G04 #@! TF.GenerationSoftware,KiCad,Pcbnew,(5.1.4-0-10_14)*
G04 #@! TF.CreationDate,2020-05-04T21:59:13+12:00*
G04 #@! TF.ProjectId,Hand Mesurement Device,48616e64-204d-4657-9375-72656d656e74,rev?*
G04 #@! TF.SameCoordinates,Original*
G04 #@! TF.FileFunction,Copper,L1,Top*
G04 #@! TF.FilePolarity,Positive*
%FSLAX46Y46*%
G04 Gerber Fmt 4.6, Leading zero omitted, Abs format (unit mm)*
G04 Created by KiCad (PCBNEW (5.1.4-0-10_14)) date 2020-05-04 21:59:13*
%MOMM*%
%LPD*%
G04 APERTURE LIST*
%ADD10O,1.700000X1.700000*%
%ADD11R,1.700000X1.700000*%
%ADD12R,1.600000X1.600000*%
%ADD13C,1.600000*%
%ADD14C,0.100000*%
%ADD15C,0.950000*%
%ADD16O,1.524000X1.524000*%
%ADD17C,1.500000*%
%ADD18C,1.150000*%
%ADD19R,1.200000X0.600000*%
%ADD20C,1.524000*%
%ADD21R,2.200000X1.200000*%
%ADD22R,6.400000X5.800000*%
%ADD23C,1.200000*%
%ADD24C,0.800000*%
%ADD25C,0.300000*%
%ADD26C,0.500000*%
%ADD27C,0.254000*%
G04 APERTURE END LIST*
D10*
X154970000Y-81130000D03*
X154970000Y-83670000D03*
X154970000Y-86210000D03*
X154970000Y-88750000D03*
X154970000Y-91290000D03*
X154970000Y-93830000D03*
X154970000Y-96370000D03*
X154970000Y-98910000D03*
X154970000Y-101450000D03*
X154970000Y-103990000D03*
X154970000Y-106530000D03*
X154970000Y-109070000D03*
X154970000Y-111610000D03*
D11*
X154970000Y-114150000D03*
X124250000Y-81150000D03*
D10*
X124250000Y-83690000D03*
X124250000Y-86230000D03*
X124250000Y-88770000D03*
X124250000Y-91310000D03*
X124250000Y-93850000D03*
X124250000Y-96390000D03*
X124250000Y-98930000D03*
X124250000Y-101470000D03*
X124250000Y-104010000D03*
X124250000Y-106550000D03*
X124250000Y-109090000D03*
X124250000Y-111630000D03*
X124250000Y-114170000D03*
D12*
X141450000Y-81150000D03*
D13*
X141450000Y-83690000D03*
X141450000Y-86230000D03*
X141450000Y-88770000D03*
X141450000Y-91310000D03*
X141450000Y-93850000D03*
X141450000Y-96390000D03*
X141450000Y-98930000D03*
X141450000Y-101470000D03*
X141450000Y-104010000D03*
X141450000Y-106550000D03*
X141450000Y-109090000D03*
X141450000Y-111630000D03*
X141450000Y-114170000D03*
X149070000Y-114170000D03*
X149070000Y-111630000D03*
X149070000Y-109090000D03*
X149070000Y-106550000D03*
X149070000Y-104010000D03*
X149070000Y-101470000D03*
X149070000Y-98930000D03*
X149070000Y-96390000D03*
X149070000Y-93850000D03*
X149070000Y-91310000D03*
X149070000Y-88770000D03*
X149070000Y-86230000D03*
X149070000Y-83690000D03*
X149070000Y-81150000D03*
D14*
G36*
X150673279Y-75851144D02*
G01*
X150696334Y-75854563D01*
X150718943Y-75860227D01*
X150740887Y-75868079D01*
X150761957Y-75878044D01*
X150781948Y-75890026D01*
X150800668Y-75903910D01*
X150817938Y-75919562D01*
X150833590Y-75936832D01*
X150847474Y-75955552D01*
X150859456Y-75975543D01*
X150869421Y-75996613D01*
X150877273Y-76018557D01*
X150882937Y-76041166D01*
X150886356Y-76064221D01*
X150887500Y-76087500D01*
X150887500Y-76662500D01*
X150886356Y-76685779D01*
X150882937Y-76708834D01*
X150877273Y-76731443D01*
X150869421Y-76753387D01*
X150859456Y-76774457D01*
X150847474Y-76794448D01*
X150833590Y-76813168D01*
X150817938Y-76830438D01*
X150800668Y-76846090D01*
X150781948Y-76859974D01*
X150761957Y-76871956D01*
X150740887Y-76881921D01*
X150718943Y-76889773D01*
X150696334Y-76895437D01*
X150673279Y-76898856D01*
X150650000Y-76900000D01*
X150175000Y-76900000D01*
X150151721Y-76898856D01*
X150128666Y-76895437D01*
X150106057Y-76889773D01*
X150084113Y-76881921D01*
X150063043Y-76871956D01*
X150043052Y-76859974D01*
X150024332Y-76846090D01*
X150007062Y-76830438D01*
X149991410Y-76813168D01*
X149977526Y-76794448D01*
X149965544Y-76774457D01*
X149955579Y-76753387D01*
X149947727Y-76731443D01*
X149942063Y-76708834D01*
X149938644Y-76685779D01*
X149937500Y-76662500D01*
X149937500Y-76087500D01*
X149938644Y-76064221D01*
X149942063Y-76041166D01*
X149947727Y-76018557D01*
X149955579Y-75996613D01*
X149965544Y-75975543D01*
X149977526Y-75955552D01*
X149991410Y-75936832D01*
X150007062Y-75919562D01*
X150024332Y-75903910D01*
X150043052Y-75890026D01*
X150063043Y-75878044D01*
X150084113Y-75868079D01*
X150106057Y-75860227D01*
X150128666Y-75854563D01*
X150151721Y-75851144D01*
X150175000Y-75850000D01*
X150650000Y-75850000D01*
X150673279Y-75851144D01*
X150673279Y-75851144D01*
G37*
D15*
X150412500Y-76375000D03*
D14*
G36*
X150673279Y-74101144D02*
G01*
X150696334Y-74104563D01*
X150718943Y-74110227D01*
X150740887Y-74118079D01*
X150761957Y-74128044D01*
X150781948Y-74140026D01*
X150800668Y-74153910D01*
X150817938Y-74169562D01*
X150833590Y-74186832D01*
X150847474Y-74205552D01*
X150859456Y-74225543D01*
X150869421Y-74246613D01*
X150877273Y-74268557D01*
X150882937Y-74291166D01*
X150886356Y-74314221D01*
X150887500Y-74337500D01*
X150887500Y-74912500D01*
X150886356Y-74935779D01*
X150882937Y-74958834D01*
X150877273Y-74981443D01*
X150869421Y-75003387D01*
X150859456Y-75024457D01*
X150847474Y-75044448D01*
X150833590Y-75063168D01*
X150817938Y-75080438D01*
X150800668Y-75096090D01*
X150781948Y-75109974D01*
X150761957Y-75121956D01*
X150740887Y-75131921D01*
X150718943Y-75139773D01*
X150696334Y-75145437D01*
X150673279Y-75148856D01*
X150650000Y-75150000D01*
X150175000Y-75150000D01*
X150151721Y-75148856D01*
X150128666Y-75145437D01*
X150106057Y-75139773D01*
X150084113Y-75131921D01*
X150063043Y-75121956D01*
X150043052Y-75109974D01*
X150024332Y-75096090D01*
X150007062Y-75080438D01*
X149991410Y-75063168D01*
X149977526Y-75044448D01*
X149965544Y-75024457D01*
X149955579Y-75003387D01*
X149947727Y-74981443D01*
X149942063Y-74958834D01*
X149938644Y-74935779D01*
X149937500Y-74912500D01*
X149937500Y-74337500D01*
X149938644Y-74314221D01*
X149942063Y-74291166D01*
X149947727Y-74268557D01*
X149955579Y-74246613D01*
X149965544Y-74225543D01*
X149977526Y-74205552D01*
X149991410Y-74186832D01*
X150007062Y-74169562D01*
X150024332Y-74153910D01*
X150043052Y-74140026D01*
X150063043Y-74128044D01*
X150084113Y-74118079D01*
X150106057Y-74110227D01*
X150128666Y-74104563D01*
X150151721Y-74101144D01*
X150175000Y-74100000D01*
X150650000Y-74100000D01*
X150673279Y-74101144D01*
X150673279Y-74101144D01*
G37*
D15*
X150412500Y-74625000D03*
D11*
X129400000Y-90700000D03*
D10*
X129400000Y-88160000D03*
X131940000Y-90700000D03*
X131940000Y-88160000D03*
X134480000Y-90700000D03*
X134480000Y-88160000D03*
X137020000Y-90700000D03*
X137020000Y-88160000D03*
D14*
G36*
X134105779Y-116946144D02*
G01*
X134128834Y-116949563D01*
X134151443Y-116955227D01*
X134173387Y-116963079D01*
X134194457Y-116973044D01*
X134214448Y-116985026D01*
X134233168Y-116998910D01*
X134250438Y-117014562D01*
X134266090Y-117031832D01*
X134279974Y-117050552D01*
X134291956Y-117070543D01*
X134301921Y-117091613D01*
X134309773Y-117113557D01*
X134315437Y-117136166D01*
X134318856Y-117159221D01*
X134320000Y-117182500D01*
X134320000Y-117657500D01*
X134318856Y-117680779D01*
X134315437Y-117703834D01*
X134309773Y-117726443D01*
X134301921Y-117748387D01*
X134291956Y-117769457D01*
X134279974Y-117789448D01*
X134266090Y-117808168D01*
X134250438Y-117825438D01*
X134233168Y-117841090D01*
X134214448Y-117854974D01*
X134194457Y-117866956D01*
X134173387Y-117876921D01*
X134151443Y-117884773D01*
X134128834Y-117890437D01*
X134105779Y-117893856D01*
X134082500Y-117895000D01*
X133507500Y-117895000D01*
X133484221Y-117893856D01*
X133461166Y-117890437D01*
X133438557Y-117884773D01*
X133416613Y-117876921D01*
X133395543Y-117866956D01*
X133375552Y-117854974D01*
X133356832Y-117841090D01*
X133339562Y-117825438D01*
X133323910Y-117808168D01*
X133310026Y-117789448D01*
X133298044Y-117769457D01*
X133288079Y-117748387D01*
X133280227Y-117726443D01*
X133274563Y-117703834D01*
X133271144Y-117680779D01*
X133270000Y-117657500D01*
X133270000Y-117182500D01*
X133271144Y-117159221D01*
X133274563Y-117136166D01*
X133280227Y-117113557D01*
X133288079Y-117091613D01*
X133298044Y-117070543D01*
X133310026Y-117050552D01*
X133323910Y-117031832D01*
X133339562Y-117014562D01*
X133356832Y-116998910D01*
X133375552Y-116985026D01*
X133395543Y-116973044D01*
X133416613Y-116963079D01*
X133438557Y-116955227D01*
X133461166Y-116949563D01*
X133484221Y-116946144D01*
X133507500Y-116945000D01*
X134082500Y-116945000D01*
X134105779Y-116946144D01*
X134105779Y-116946144D01*
G37*
D15*
X133795000Y-117420000D03*
D14*
G36*
X135855779Y-116946144D02*
G01*
X135878834Y-116949563D01*
X135901443Y-116955227D01*
X135923387Y-116963079D01*
X135944457Y-116973044D01*
X135964448Y-116985026D01*
X135983168Y-116998910D01*
X136000438Y-117014562D01*
X136016090Y-117031832D01*
X136029974Y-117050552D01*
X136041956Y-117070543D01*
X136051921Y-117091613D01*
X136059773Y-117113557D01*
X136065437Y-117136166D01*
X136068856Y-117159221D01*
X136070000Y-117182500D01*
X136070000Y-117657500D01*
X136068856Y-117680779D01*
X136065437Y-117703834D01*
X136059773Y-117726443D01*
X136051921Y-117748387D01*
X136041956Y-117769457D01*
X136029974Y-117789448D01*
X136016090Y-117808168D01*
X136000438Y-117825438D01*
X135983168Y-117841090D01*
X135964448Y-117854974D01*
X135944457Y-117866956D01*
X135923387Y-117876921D01*
X135901443Y-117884773D01*
X135878834Y-117890437D01*
X135855779Y-117893856D01*
X135832500Y-117895000D01*
X135257500Y-117895000D01*
X135234221Y-117893856D01*
X135211166Y-117890437D01*
X135188557Y-117884773D01*
X135166613Y-117876921D01*
X135145543Y-117866956D01*
X135125552Y-117854974D01*
X135106832Y-117841090D01*
X135089562Y-117825438D01*
X135073910Y-117808168D01*
X135060026Y-117789448D01*
X135048044Y-117769457D01*
X135038079Y-117748387D01*
X135030227Y-117726443D01*
X135024563Y-117703834D01*
X135021144Y-117680779D01*
X135020000Y-117657500D01*
X135020000Y-117182500D01*
X135021144Y-117159221D01*
X135024563Y-117136166D01*
X135030227Y-117113557D01*
X135038079Y-117091613D01*
X135048044Y-117070543D01*
X135060026Y-117050552D01*
X135073910Y-117031832D01*
X135089562Y-117014562D01*
X135106832Y-116998910D01*
X135125552Y-116985026D01*
X135145543Y-116973044D01*
X135166613Y-116963079D01*
X135188557Y-116955227D01*
X135211166Y-116949563D01*
X135234221Y-116946144D01*
X135257500Y-116945000D01*
X135832500Y-116945000D01*
X135855779Y-116946144D01*
X135855779Y-116946144D01*
G37*
D15*
X135545000Y-117420000D03*
D11*
X124275000Y-69075000D03*
D10*
X124275000Y-71615000D03*
X124275000Y-74155000D03*
X128698750Y-74155000D03*
X128698750Y-71615000D03*
D11*
X128698750Y-69075000D03*
X133122500Y-69075000D03*
D10*
X133122500Y-71615000D03*
X133122500Y-74155000D03*
X137546250Y-74155000D03*
X137546250Y-71615000D03*
D11*
X137546250Y-69075000D03*
X141970000Y-69075000D03*
D10*
X141970000Y-71615000D03*
X141970000Y-74155000D03*
D14*
G36*
X137368879Y-82051144D02*
G01*
X137391934Y-82054563D01*
X137414543Y-82060227D01*
X137436487Y-82068079D01*
X137457557Y-82078044D01*
X137477548Y-82090026D01*
X137496268Y-82103910D01*
X137513538Y-82119562D01*
X137529190Y-82136832D01*
X137543074Y-82155552D01*
X137555056Y-82175543D01*
X137565021Y-82196613D01*
X137572873Y-82218557D01*
X137578537Y-82241166D01*
X137581956Y-82264221D01*
X137583100Y-82287500D01*
X137583100Y-82862500D01*
X137581956Y-82885779D01*
X137578537Y-82908834D01*
X137572873Y-82931443D01*
X137565021Y-82953387D01*
X137555056Y-82974457D01*
X137543074Y-82994448D01*
X137529190Y-83013168D01*
X137513538Y-83030438D01*
X137496268Y-83046090D01*
X137477548Y-83059974D01*
X137457557Y-83071956D01*
X137436487Y-83081921D01*
X137414543Y-83089773D01*
X137391934Y-83095437D01*
X137368879Y-83098856D01*
X137345600Y-83100000D01*
X136870600Y-83100000D01*
X136847321Y-83098856D01*
X136824266Y-83095437D01*
X136801657Y-83089773D01*
X136779713Y-83081921D01*
X136758643Y-83071956D01*
X136738652Y-83059974D01*
X136719932Y-83046090D01*
X136702662Y-83030438D01*
X136687010Y-83013168D01*
X136673126Y-82994448D01*
X136661144Y-82974457D01*
X136651179Y-82953387D01*
X136643327Y-82931443D01*
X136637663Y-82908834D01*
X136634244Y-82885779D01*
X136633100Y-82862500D01*
X136633100Y-82287500D01*
X136634244Y-82264221D01*
X136637663Y-82241166D01*
X136643327Y-82218557D01*
X136651179Y-82196613D01*
X136661144Y-82175543D01*
X136673126Y-82155552D01*
X136687010Y-82136832D01*
X136702662Y-82119562D01*
X136719932Y-82103910D01*
X136738652Y-82090026D01*
X136758643Y-82078044D01*
X136779713Y-82068079D01*
X136801657Y-82060227D01*
X136824266Y-82054563D01*
X136847321Y-82051144D01*
X136870600Y-82050000D01*
X137345600Y-82050000D01*
X137368879Y-82051144D01*
X137368879Y-82051144D01*
G37*
D15*
X137108100Y-82575000D03*
D14*
G36*
X137368879Y-80301144D02*
G01*
X137391934Y-80304563D01*
X137414543Y-80310227D01*
X137436487Y-80318079D01*
X137457557Y-80328044D01*
X137477548Y-80340026D01*
X137496268Y-80353910D01*
X137513538Y-80369562D01*
X137529190Y-80386832D01*
X137543074Y-80405552D01*
X137555056Y-80425543D01*
X137565021Y-80446613D01*
X137572873Y-80468557D01*
X137578537Y-80491166D01*
X137581956Y-80514221D01*
X137583100Y-80537500D01*
X137583100Y-81112500D01*
X137581956Y-81135779D01*
X137578537Y-81158834D01*
X137572873Y-81181443D01*
X137565021Y-81203387D01*
X137555056Y-81224457D01*
X137543074Y-81244448D01*
X137529190Y-81263168D01*
X137513538Y-81280438D01*
X137496268Y-81296090D01*
X137477548Y-81309974D01*
X137457557Y-81321956D01*
X137436487Y-81331921D01*
X137414543Y-81339773D01*
X137391934Y-81345437D01*
X137368879Y-81348856D01*
X137345600Y-81350000D01*
X136870600Y-81350000D01*
X136847321Y-81348856D01*
X136824266Y-81345437D01*
X136801657Y-81339773D01*
X136779713Y-81331921D01*
X136758643Y-81321956D01*
X136738652Y-81309974D01*
X136719932Y-81296090D01*
X136702662Y-81280438D01*
X136687010Y-81263168D01*
X136673126Y-81244448D01*
X136661144Y-81224457D01*
X136651179Y-81203387D01*
X136643327Y-81181443D01*
X136637663Y-81158834D01*
X136634244Y-81135779D01*
X136633100Y-81112500D01*
X136633100Y-80537500D01*
X136634244Y-80514221D01*
X136637663Y-80491166D01*
X136643327Y-80468557D01*
X136651179Y-80446613D01*
X136661144Y-80425543D01*
X136673126Y-80405552D01*
X136687010Y-80386832D01*
X136702662Y-80369562D01*
X136719932Y-80353910D01*
X136738652Y-80340026D01*
X136758643Y-80328044D01*
X136779713Y-80318079D01*
X136801657Y-80310227D01*
X136824266Y-80304563D01*
X136847321Y-80301144D01*
X136870600Y-80300000D01*
X137345600Y-80300000D01*
X137368879Y-80301144D01*
X137368879Y-80301144D01*
G37*
D15*
X137108100Y-80825000D03*
D14*
G36*
X152435779Y-74101144D02*
G01*
X152458834Y-74104563D01*
X152481443Y-74110227D01*
X152503387Y-74118079D01*
X152524457Y-74128044D01*
X152544448Y-74140026D01*
X152563168Y-74153910D01*
X152580438Y-74169562D01*
X152596090Y-74186832D01*
X152609974Y-74205552D01*
X152621956Y-74225543D01*
X152631921Y-74246613D01*
X152639773Y-74268557D01*
X152645437Y-74291166D01*
X152648856Y-74314221D01*
X152650000Y-74337500D01*
X152650000Y-74912500D01*
X152648856Y-74935779D01*
X152645437Y-74958834D01*
X152639773Y-74981443D01*
X152631921Y-75003387D01*
X152621956Y-75024457D01*
X152609974Y-75044448D01*
X152596090Y-75063168D01*
X152580438Y-75080438D01*
X152563168Y-75096090D01*
X152544448Y-75109974D01*
X152524457Y-75121956D01*
X152503387Y-75131921D01*
X152481443Y-75139773D01*
X152458834Y-75145437D01*
X152435779Y-75148856D01*
X152412500Y-75150000D01*
X151937500Y-75150000D01*
X151914221Y-75148856D01*
X151891166Y-75145437D01*
X151868557Y-75139773D01*
X151846613Y-75131921D01*
X151825543Y-75121956D01*
X151805552Y-75109974D01*
X151786832Y-75096090D01*
X151769562Y-75080438D01*
X151753910Y-75063168D01*
X151740026Y-75044448D01*
X151728044Y-75024457D01*
X151718079Y-75003387D01*
X151710227Y-74981443D01*
X151704563Y-74958834D01*
X151701144Y-74935779D01*
X151700000Y-74912500D01*
X151700000Y-74337500D01*
X151701144Y-74314221D01*
X151704563Y-74291166D01*
X151710227Y-74268557D01*
X151718079Y-74246613D01*
X151728044Y-74225543D01*
X151740026Y-74205552D01*
X151753910Y-74186832D01*
X151769562Y-74169562D01*
X151786832Y-74153910D01*
X151805552Y-74140026D01*
X151825543Y-74128044D01*
X151846613Y-74118079D01*
X151868557Y-74110227D01*
X151891166Y-74104563D01*
X151914221Y-74101144D01*
X151937500Y-74100000D01*
X152412500Y-74100000D01*
X152435779Y-74101144D01*
X152435779Y-74101144D01*
G37*
D15*
X152175000Y-74625000D03*
D14*
G36*
X152435779Y-75851144D02*
G01*
X152458834Y-75854563D01*
X152481443Y-75860227D01*
X152503387Y-75868079D01*
X152524457Y-75878044D01*
X152544448Y-75890026D01*
X152563168Y-75903910D01*
X152580438Y-75919562D01*
X152596090Y-75936832D01*
X152609974Y-75955552D01*
X152621956Y-75975543D01*
X152631921Y-75996613D01*
X152639773Y-76018557D01*
X152645437Y-76041166D01*
X152648856Y-76064221D01*
X152650000Y-76087500D01*
X152650000Y-76662500D01*
X152648856Y-76685779D01*
X152645437Y-76708834D01*
X152639773Y-76731443D01*
X152631921Y-76753387D01*
X152621956Y-76774457D01*
X152609974Y-76794448D01*
X152596090Y-76813168D01*
X152580438Y-76830438D01*
X152563168Y-76846090D01*
X152544448Y-76859974D01*
X152524457Y-76871956D01*
X152503387Y-76881921D01*
X152481443Y-76889773D01*
X152458834Y-76895437D01*
X152435779Y-76898856D01*
X152412500Y-76900000D01*
X151937500Y-76900000D01*
X151914221Y-76898856D01*
X151891166Y-76895437D01*
X151868557Y-76889773D01*
X151846613Y-76881921D01*
X151825543Y-76871956D01*
X151805552Y-76859974D01*
X151786832Y-76846090D01*
X151769562Y-76830438D01*
X151753910Y-76813168D01*
X151740026Y-76794448D01*
X151728044Y-76774457D01*
X151718079Y-76753387D01*
X151710227Y-76731443D01*
X151704563Y-76708834D01*
X151701144Y-76685779D01*
X151700000Y-76662500D01*
X151700000Y-76087500D01*
X151701144Y-76064221D01*
X151704563Y-76041166D01*
X151710227Y-76018557D01*
X151718079Y-75996613D01*
X151728044Y-75975543D01*
X151740026Y-75955552D01*
X151753910Y-75936832D01*
X151769562Y-75919562D01*
X151786832Y-75903910D01*
X151805552Y-75890026D01*
X151825543Y-75878044D01*
X151846613Y-75868079D01*
X151868557Y-75860227D01*
X151891166Y-75854563D01*
X151914221Y-75851144D01*
X151937500Y-75850000D01*
X152412500Y-75850000D01*
X152435779Y-75851144D01*
X152435779Y-75851144D01*
G37*
D15*
X152175000Y-76375000D03*
D14*
G36*
X148910779Y-75851144D02*
G01*
X148933834Y-75854563D01*
X148956443Y-75860227D01*
X148978387Y-75868079D01*
X148999457Y-75878044D01*
X149019448Y-75890026D01*
X149038168Y-75903910D01*
X149055438Y-75919562D01*
X149071090Y-75936832D01*
X149084974Y-75955552D01*
X149096956Y-75975543D01*
X149106921Y-75996613D01*
X149114773Y-76018557D01*
X149120437Y-76041166D01*
X149123856Y-76064221D01*
X149125000Y-76087500D01*
X149125000Y-76662500D01*
X149123856Y-76685779D01*
X149120437Y-76708834D01*
X149114773Y-76731443D01*
X149106921Y-76753387D01*
X149096956Y-76774457D01*
X149084974Y-76794448D01*
X149071090Y-76813168D01*
X149055438Y-76830438D01*
X149038168Y-76846090D01*
X149019448Y-76859974D01*
X148999457Y-76871956D01*
X148978387Y-76881921D01*
X148956443Y-76889773D01*
X148933834Y-76895437D01*
X148910779Y-76898856D01*
X148887500Y-76900000D01*
X148412500Y-76900000D01*
X148389221Y-76898856D01*
X148366166Y-76895437D01*
X148343557Y-76889773D01*
X148321613Y-76881921D01*
X148300543Y-76871956D01*
X148280552Y-76859974D01*
X148261832Y-76846090D01*
X148244562Y-76830438D01*
X148228910Y-76813168D01*
X148215026Y-76794448D01*
X148203044Y-76774457D01*
X148193079Y-76753387D01*
X148185227Y-76731443D01*
X148179563Y-76708834D01*
X148176144Y-76685779D01*
X148175000Y-76662500D01*
X148175000Y-76087500D01*
X148176144Y-76064221D01*
X148179563Y-76041166D01*
X148185227Y-76018557D01*
X148193079Y-75996613D01*
X148203044Y-75975543D01*
X148215026Y-75955552D01*
X148228910Y-75936832D01*
X148244562Y-75919562D01*
X148261832Y-75903910D01*
X148280552Y-75890026D01*
X148300543Y-75878044D01*
X148321613Y-75868079D01*
X148343557Y-75860227D01*
X148366166Y-75854563D01*
X148389221Y-75851144D01*
X148412500Y-75850000D01*
X148887500Y-75850000D01*
X148910779Y-75851144D01*
X148910779Y-75851144D01*
G37*
D15*
X148650000Y-76375000D03*
D14*
G36*
X148910779Y-74101144D02*
G01*
X148933834Y-74104563D01*
X148956443Y-74110227D01*
X148978387Y-74118079D01*
X148999457Y-74128044D01*
X149019448Y-74140026D01*
X149038168Y-74153910D01*
X149055438Y-74169562D01*
X149071090Y-74186832D01*
X149084974Y-74205552D01*
X149096956Y-74225543D01*
X149106921Y-74246613D01*
X149114773Y-74268557D01*
X149120437Y-74291166D01*
X149123856Y-74314221D01*
X149125000Y-74337500D01*
X149125000Y-74912500D01*
X149123856Y-74935779D01*
X149120437Y-74958834D01*
X149114773Y-74981443D01*
X149106921Y-75003387D01*
X149096956Y-75024457D01*
X149084974Y-75044448D01*
X149071090Y-75063168D01*
X149055438Y-75080438D01*
X149038168Y-75096090D01*
X149019448Y-75109974D01*
X148999457Y-75121956D01*
X148978387Y-75131921D01*
X148956443Y-75139773D01*
X148933834Y-75145437D01*
X148910779Y-75148856D01*
X148887500Y-75150000D01*
X148412500Y-75150000D01*
X148389221Y-75148856D01*
X148366166Y-75145437D01*
X148343557Y-75139773D01*
X148321613Y-75131921D01*
X148300543Y-75121956D01*
X148280552Y-75109974D01*
X148261832Y-75096090D01*
X148244562Y-75080438D01*
X148228910Y-75063168D01*
X148215026Y-75044448D01*
X148203044Y-75024457D01*
X148193079Y-75003387D01*
X148185227Y-74981443D01*
X148179563Y-74958834D01*
X148176144Y-74935779D01*
X148175000Y-74912500D01*
X148175000Y-74337500D01*
X148176144Y-74314221D01*
X148179563Y-74291166D01*
X148185227Y-74268557D01*
X148193079Y-74246613D01*
X148203044Y-74225543D01*
X148215026Y-74205552D01*
X148228910Y-74186832D01*
X148244562Y-74169562D01*
X148261832Y-74153910D01*
X148280552Y-74140026D01*
X148300543Y-74128044D01*
X148321613Y-74118079D01*
X148343557Y-74110227D01*
X148366166Y-74104563D01*
X148389221Y-74101144D01*
X148412500Y-74100000D01*
X148887500Y-74100000D01*
X148910779Y-74101144D01*
X148910779Y-74101144D01*
G37*
D15*
X148650000Y-74625000D03*
D16*
X132952200Y-78428800D03*
X132952200Y-84931200D03*
X128431000Y-78428800D03*
X128431000Y-84931200D03*
D17*
X136453332Y-103370000D03*
X136453332Y-98490000D03*
D11*
X154980000Y-123235000D03*
D10*
X154980000Y-125775000D03*
D11*
X139610000Y-120590000D03*
D10*
X142150000Y-120590000D03*
X144690000Y-120590000D03*
X147230000Y-120590000D03*
X149770000Y-120590000D03*
D14*
G36*
X135844505Y-126101204D02*
G01*
X135868773Y-126104804D01*
X135892572Y-126110765D01*
X135915671Y-126119030D01*
X135937850Y-126129520D01*
X135958893Y-126142132D01*
X135978599Y-126156747D01*
X135996777Y-126173223D01*
X136013253Y-126191401D01*
X136027868Y-126211107D01*
X136040480Y-126232150D01*
X136050970Y-126254329D01*
X136059235Y-126277428D01*
X136065196Y-126301227D01*
X136068796Y-126325495D01*
X136070000Y-126349999D01*
X136070000Y-127250001D01*
X136068796Y-127274505D01*
X136065196Y-127298773D01*
X136059235Y-127322572D01*
X136050970Y-127345671D01*
X136040480Y-127367850D01*
X136027868Y-127388893D01*
X136013253Y-127408599D01*
X135996777Y-127426777D01*
X135978599Y-127443253D01*
X135958893Y-127457868D01*
X135937850Y-127470480D01*
X135915671Y-127480970D01*
X135892572Y-127489235D01*
X135868773Y-127495196D01*
X135844505Y-127498796D01*
X135820001Y-127500000D01*
X135169999Y-127500000D01*
X135145495Y-127498796D01*
X135121227Y-127495196D01*
X135097428Y-127489235D01*
X135074329Y-127480970D01*
X135052150Y-127470480D01*
X135031107Y-127457868D01*
X135011401Y-127443253D01*
X134993223Y-127426777D01*
X134976747Y-127408599D01*
X134962132Y-127388893D01*
X134949520Y-127367850D01*
X134939030Y-127345671D01*
X134930765Y-127322572D01*
X134924804Y-127298773D01*
X134921204Y-127274505D01*
X134920000Y-127250001D01*
X134920000Y-126349999D01*
X134921204Y-126325495D01*
X134924804Y-126301227D01*
X134930765Y-126277428D01*
X134939030Y-126254329D01*
X134949520Y-126232150D01*
X134962132Y-126211107D01*
X134976747Y-126191401D01*
X134993223Y-126173223D01*
X135011401Y-126156747D01*
X135031107Y-126142132D01*
X135052150Y-126129520D01*
X135074329Y-126119030D01*
X135097428Y-126110765D01*
X135121227Y-126104804D01*
X135145495Y-126101204D01*
X135169999Y-126100000D01*
X135820001Y-126100000D01*
X135844505Y-126101204D01*
X135844505Y-126101204D01*
G37*
D18*
X135495000Y-126800000D03*
D14*
G36*
X133794505Y-126101204D02*
G01*
X133818773Y-126104804D01*
X133842572Y-126110765D01*
X133865671Y-126119030D01*
X133887850Y-126129520D01*
X133908893Y-126142132D01*
X133928599Y-126156747D01*
X133946777Y-126173223D01*
X133963253Y-126191401D01*
X133977868Y-126211107D01*
X133990480Y-126232150D01*
X134000970Y-126254329D01*
X134009235Y-126277428D01*
X134015196Y-126301227D01*
X134018796Y-126325495D01*
X134020000Y-126349999D01*
X134020000Y-127250001D01*
X134018796Y-127274505D01*
X134015196Y-127298773D01*
X134009235Y-127322572D01*
X134000970Y-127345671D01*
X133990480Y-127367850D01*
X133977868Y-127388893D01*
X133963253Y-127408599D01*
X133946777Y-127426777D01*
X133928599Y-127443253D01*
X133908893Y-127457868D01*
X133887850Y-127470480D01*
X133865671Y-127480970D01*
X133842572Y-127489235D01*
X133818773Y-127495196D01*
X133794505Y-127498796D01*
X133770001Y-127500000D01*
X133119999Y-127500000D01*
X133095495Y-127498796D01*
X133071227Y-127495196D01*
X133047428Y-127489235D01*
X133024329Y-127480970D01*
X133002150Y-127470480D01*
X132981107Y-127457868D01*
X132961401Y-127443253D01*
X132943223Y-127426777D01*
X132926747Y-127408599D01*
X132912132Y-127388893D01*
X132899520Y-127367850D01*
X132889030Y-127345671D01*
X132880765Y-127322572D01*
X132874804Y-127298773D01*
X132871204Y-127274505D01*
X132870000Y-127250001D01*
X132870000Y-126349999D01*
X132871204Y-126325495D01*
X132874804Y-126301227D01*
X132880765Y-126277428D01*
X132889030Y-126254329D01*
X132899520Y-126232150D01*
X132912132Y-126211107D01*
X132926747Y-126191401D01*
X132943223Y-126173223D01*
X132961401Y-126156747D01*
X132981107Y-126142132D01*
X133002150Y-126129520D01*
X133024329Y-126119030D01*
X133047428Y-126110765D01*
X133071227Y-126104804D01*
X133095495Y-126101204D01*
X133119999Y-126100000D01*
X133770001Y-126100000D01*
X133794505Y-126101204D01*
X133794505Y-126101204D01*
G37*
D18*
X133445000Y-126800000D03*
D19*
X148785500Y-70275000D03*
X148785500Y-71375000D03*
X148785500Y-72475000D03*
X151785500Y-70275000D03*
X151785500Y-72475000D03*
X151785500Y-71375000D03*
D13*
X131768916Y-97200000D03*
D20*
X128368916Y-99200000D03*
X128368916Y-103200000D03*
X131768916Y-105200000D03*
D14*
G36*
X152035779Y-96576144D02*
G01*
X152058834Y-96579563D01*
X152081443Y-96585227D01*
X152103387Y-96593079D01*
X152124457Y-96603044D01*
X152144448Y-96615026D01*
X152163168Y-96628910D01*
X152180438Y-96644562D01*
X152196090Y-96661832D01*
X152209974Y-96680552D01*
X152221956Y-96700543D01*
X152231921Y-96721613D01*
X152239773Y-96743557D01*
X152245437Y-96766166D01*
X152248856Y-96789221D01*
X152250000Y-96812500D01*
X152250000Y-97387500D01*
X152248856Y-97410779D01*
X152245437Y-97433834D01*
X152239773Y-97456443D01*
X152231921Y-97478387D01*
X152221956Y-97499457D01*
X152209974Y-97519448D01*
X152196090Y-97538168D01*
X152180438Y-97555438D01*
X152163168Y-97571090D01*
X152144448Y-97584974D01*
X152124457Y-97596956D01*
X152103387Y-97606921D01*
X152081443Y-97614773D01*
X152058834Y-97620437D01*
X152035779Y-97623856D01*
X152012500Y-97625000D01*
X151537500Y-97625000D01*
X151514221Y-97623856D01*
X151491166Y-97620437D01*
X151468557Y-97614773D01*
X151446613Y-97606921D01*
X151425543Y-97596956D01*
X151405552Y-97584974D01*
X151386832Y-97571090D01*
X151369562Y-97555438D01*
X151353910Y-97538168D01*
X151340026Y-97519448D01*
X151328044Y-97499457D01*
X151318079Y-97478387D01*
X151310227Y-97456443D01*
X151304563Y-97433834D01*
X151301144Y-97410779D01*
X151300000Y-97387500D01*
X151300000Y-96812500D01*
X151301144Y-96789221D01*
X151304563Y-96766166D01*
X151310227Y-96743557D01*
X151318079Y-96721613D01*
X151328044Y-96700543D01*
X151340026Y-96680552D01*
X151353910Y-96661832D01*
X151369562Y-96644562D01*
X151386832Y-96628910D01*
X151405552Y-96615026D01*
X151425543Y-96603044D01*
X151446613Y-96593079D01*
X151468557Y-96585227D01*
X151491166Y-96579563D01*
X151514221Y-96576144D01*
X151537500Y-96575000D01*
X152012500Y-96575000D01*
X152035779Y-96576144D01*
X152035779Y-96576144D01*
G37*
D15*
X151775000Y-97100000D03*
D14*
G36*
X152035779Y-98326144D02*
G01*
X152058834Y-98329563D01*
X152081443Y-98335227D01*
X152103387Y-98343079D01*
X152124457Y-98353044D01*
X152144448Y-98365026D01*
X152163168Y-98378910D01*
X152180438Y-98394562D01*
X152196090Y-98411832D01*
X152209974Y-98430552D01*
X152221956Y-98450543D01*
X152231921Y-98471613D01*
X152239773Y-98493557D01*
X152245437Y-98516166D01*
X152248856Y-98539221D01*
X152250000Y-98562500D01*
X152250000Y-99137500D01*
X152248856Y-99160779D01*
X152245437Y-99183834D01*
X152239773Y-99206443D01*
X152231921Y-99228387D01*
X152221956Y-99249457D01*
X152209974Y-99269448D01*
X152196090Y-99288168D01*
X152180438Y-99305438D01*
X152163168Y-99321090D01*
X152144448Y-99334974D01*
X152124457Y-99346956D01*
X152103387Y-99356921D01*
X152081443Y-99364773D01*
X152058834Y-99370437D01*
X152035779Y-99373856D01*
X152012500Y-99375000D01*
X151537500Y-99375000D01*
X151514221Y-99373856D01*
X151491166Y-99370437D01*
X151468557Y-99364773D01*
X151446613Y-99356921D01*
X151425543Y-99346956D01*
X151405552Y-99334974D01*
X151386832Y-99321090D01*
X151369562Y-99305438D01*
X151353910Y-99288168D01*
X151340026Y-99269448D01*
X151328044Y-99249457D01*
X151318079Y-99228387D01*
X151310227Y-99206443D01*
X151304563Y-99183834D01*
X151301144Y-99160779D01*
X151300000Y-99137500D01*
X151300000Y-98562500D01*
X151301144Y-98539221D01*
X151304563Y-98516166D01*
X151310227Y-98493557D01*
X151318079Y-98471613D01*
X151328044Y-98450543D01*
X151340026Y-98430552D01*
X151353910Y-98411832D01*
X151369562Y-98394562D01*
X151386832Y-98378910D01*
X151405552Y-98365026D01*
X151425543Y-98353044D01*
X151446613Y-98343079D01*
X151468557Y-98335227D01*
X151491166Y-98329563D01*
X151514221Y-98326144D01*
X151537500Y-98325000D01*
X152012500Y-98325000D01*
X152035779Y-98326144D01*
X152035779Y-98326144D01*
G37*
D15*
X151775000Y-98850000D03*
D21*
X134970000Y-124350000D03*
X134970000Y-119790000D03*
D22*
X128670000Y-122070000D03*
D11*
X139675000Y-126025000D03*
D10*
X142215000Y-126025000D03*
X144755000Y-126025000D03*
X147295000Y-126025000D03*
X149835000Y-126025000D03*
D23*
X127300000Y-115850000D03*
X147675000Y-69075000D03*
X153000000Y-96200000D03*
X137108100Y-78791900D03*
X137824990Y-113875010D03*
X130630927Y-99200000D03*
X132670000Y-115690000D03*
X135610000Y-122320000D03*
D24*
X143875000Y-85775000D03*
X151450001Y-87549999D03*
X152369999Y-95030001D03*
X122900000Y-78600000D03*
X123825000Y-78100000D03*
X144774747Y-113375253D03*
X133975000Y-92200000D03*
X134125000Y-99000000D03*
X133500000Y-99900000D03*
X122299997Y-104400000D03*
X125699990Y-93695697D03*
X146403230Y-96922332D03*
X135606066Y-93800011D03*
X143750011Y-102075000D03*
X126379608Y-95431532D03*
X136349799Y-94468506D03*
X134725000Y-97850000D03*
X135479370Y-91979190D03*
D23*
X136199625Y-112400010D03*
D25*
X139433333Y-101470000D02*
X141450000Y-101470000D01*
X136453333Y-98490000D02*
X139433333Y-101470000D01*
D26*
X154980000Y-125775000D02*
X153095000Y-125775000D01*
X154970000Y-111610000D02*
X154970000Y-109070000D01*
X154970000Y-109070000D02*
X154970000Y-106530000D01*
X127395000Y-122770000D02*
X127395000Y-122070000D01*
X127395000Y-115945000D02*
X127300000Y-115850000D01*
X127395000Y-122070000D02*
X127395000Y-115945000D01*
X125425000Y-69075000D02*
X141970000Y-69075000D01*
X124275000Y-69075000D02*
X125425000Y-69075000D01*
X156370001Y-113010001D02*
X155819999Y-112459999D01*
X155819999Y-112459999D02*
X154970000Y-111610000D01*
X156370001Y-117689999D02*
X156370001Y-113010001D01*
X148785500Y-72475000D02*
X148785500Y-70275000D01*
X148785500Y-69475000D02*
X148385500Y-69075000D01*
X148785500Y-70275000D02*
X148785500Y-69475000D01*
X148385500Y-69075000D02*
X147675000Y-69075000D01*
X147675000Y-69075000D02*
X147675000Y-69075000D01*
X131250010Y-128050010D02*
X128670000Y-125470000D01*
X128670000Y-125470000D02*
X128670000Y-122070000D01*
X134244990Y-128050010D02*
X131250010Y-128050010D01*
X135495000Y-126800000D02*
X134244990Y-128050010D01*
X139610000Y-123420000D02*
X142215000Y-126025000D01*
X139610000Y-120590000D02*
X139610000Y-123420000D01*
X135545000Y-116845000D02*
X134090000Y-115390000D01*
X135545000Y-117420000D02*
X135545000Y-116845000D01*
X134090000Y-115390000D02*
X134090000Y-115380000D01*
X134090000Y-115380000D02*
X133060000Y-114350000D01*
X130570000Y-115850000D02*
X127300000Y-115850000D01*
X132070000Y-114350000D02*
X130570000Y-115850000D01*
X133060000Y-114350000D02*
X132070000Y-114350000D01*
D25*
X140810000Y-103370000D02*
X141450000Y-104010000D01*
X136453333Y-103370000D02*
X140810000Y-103370000D01*
D26*
X124275000Y-74155000D02*
X141970000Y-74155000D01*
X137108100Y-74593150D02*
X137546250Y-74155000D01*
X137108100Y-80825000D02*
X137108100Y-78791900D01*
X154950000Y-101470000D02*
X154970000Y-101450000D01*
X149070000Y-101470000D02*
X154950000Y-101470000D01*
X154970000Y-101450000D02*
X154970000Y-103990000D01*
X137108100Y-78791900D02*
X137108100Y-74593150D01*
X137924990Y-113875010D02*
X140069992Y-116020012D01*
X147522914Y-100670001D02*
X148270001Y-100670001D01*
X141450000Y-96390000D02*
X143242913Y-96390000D01*
X148270001Y-100670001D02*
X149070000Y-101470000D01*
X143242913Y-96390000D02*
X147522914Y-100670001D01*
X141450000Y-96390000D02*
X134576918Y-96390000D01*
X128368916Y-99200000D02*
X130630927Y-99200000D01*
X131766918Y-99200000D02*
X131479455Y-99200000D01*
X134576918Y-96390000D02*
X131766918Y-99200000D01*
X131479455Y-99200000D02*
X130630927Y-99200000D01*
X140069992Y-116020012D02*
X140070012Y-116020012D01*
X142150000Y-118100000D02*
X142150000Y-120590000D01*
X140070012Y-116020012D02*
X142150000Y-118100000D01*
X135470000Y-124350000D02*
X134970000Y-124350000D01*
X134970000Y-124350000D02*
X133370000Y-124350000D01*
X133445000Y-124425000D02*
X133445000Y-126800000D01*
X133370000Y-124350000D02*
X133445000Y-124425000D01*
X132645001Y-117278538D02*
X132645001Y-123625001D01*
X132670000Y-115690000D02*
X132645001Y-117278538D01*
X132645001Y-123625001D02*
X133370000Y-124350000D01*
X154980000Y-121885000D02*
X154980000Y-123235000D01*
X156715000Y-120150000D02*
X154980000Y-121885000D01*
X157450000Y-119425000D02*
X156725000Y-120150000D01*
X157450000Y-101390000D02*
X157450000Y-119425000D01*
X156725000Y-120150000D02*
X156715000Y-120150000D01*
X154970000Y-98910000D02*
X157450000Y-101390000D01*
X133795000Y-118615000D02*
X134970000Y-119790000D01*
X133795000Y-117420000D02*
X133795000Y-118615000D01*
X134970000Y-121680000D02*
X135610000Y-122320000D01*
X134970000Y-119790000D02*
X134970000Y-121680000D01*
D25*
X150412500Y-73848000D02*
X151785500Y-72475000D01*
X150412500Y-74625000D02*
X150412500Y-73848000D01*
X141310000Y-83550000D02*
X141450000Y-83690000D01*
X140318630Y-83690000D02*
X141450000Y-83690000D01*
X124250000Y-81150000D02*
X132882122Y-81150000D01*
X135422122Y-83690000D02*
X140318630Y-83690000D01*
X132882122Y-81150000D02*
X135422122Y-83690000D01*
X124250000Y-83690000D02*
X134535000Y-83690000D01*
X134535000Y-83690000D02*
X135245000Y-84400000D01*
X139620000Y-84400000D02*
X141450000Y-86230000D01*
X135245000Y-84400000D02*
X139620000Y-84400000D01*
X125452081Y-86230000D02*
X124250000Y-86230000D01*
X140318630Y-88770000D02*
X137778630Y-86230000D01*
X137778630Y-86230000D02*
X125452081Y-86230000D01*
X141450000Y-88770000D02*
X140318630Y-88770000D01*
X145649999Y-87549999D02*
X143875000Y-85775000D01*
X151450001Y-87549999D02*
X145649999Y-87549999D01*
X150412500Y-76375000D02*
X143100011Y-83687489D01*
X143100011Y-83687489D02*
X143100011Y-89659989D01*
X143100011Y-89659989D02*
X142249999Y-90510001D01*
X142249999Y-90510001D02*
X141450000Y-91310000D01*
X125452081Y-88770000D02*
X126152080Y-89469999D01*
X132496001Y-89469999D02*
X133259999Y-88706001D01*
X126152080Y-89469999D02*
X132496001Y-89469999D01*
X133883999Y-86929999D02*
X137576001Y-86929999D01*
X133259999Y-88706001D02*
X133259999Y-87553999D01*
X133259999Y-87553999D02*
X133883999Y-86929999D01*
X137576001Y-86929999D02*
X140650001Y-90003999D01*
X124250000Y-88770000D02*
X125452081Y-88770000D01*
X140650001Y-90003999D02*
X140650001Y-90510001D01*
X140650001Y-90510001D02*
X141450000Y-91310000D01*
X124250000Y-91310000D02*
X125340011Y-92400011D01*
X143225000Y-93850000D02*
X141450000Y-93850000D01*
X144405001Y-95030001D02*
X143225000Y-93850000D01*
X152369999Y-95030001D02*
X144405001Y-95030001D01*
X140650001Y-93050001D02*
X141450000Y-93850000D01*
X125885696Y-92945696D02*
X125340011Y-92400011D01*
X126059991Y-92945696D02*
X125885696Y-92945696D01*
X140650001Y-93050001D02*
X126164296Y-93050001D01*
X126164296Y-93050001D02*
X126059991Y-92945696D01*
X122900000Y-78600000D02*
X122900000Y-78600000D01*
X139150000Y-108850000D02*
X141450000Y-106550000D01*
X127600000Y-108850000D02*
X139150000Y-108850000D01*
X125099999Y-94699999D02*
X125099999Y-95261927D01*
X127156915Y-108406915D02*
X127600000Y-108850000D01*
X127156915Y-98456915D02*
X127156915Y-108406915D01*
X124250000Y-93850000D02*
X125099999Y-94699999D01*
X125099999Y-95261927D02*
X125450001Y-95611929D01*
X125450001Y-95611929D02*
X125450001Y-96750001D01*
X125450001Y-96750001D02*
X127156915Y-98456915D01*
X153350010Y-70309508D02*
X153350010Y-75199990D01*
X122474989Y-67657889D02*
X122857889Y-67274989D01*
X150315491Y-67274989D02*
X153350010Y-70309508D01*
X122857889Y-67274989D02*
X150315491Y-67274989D01*
X153350010Y-75199990D02*
X152175000Y-76375000D01*
X122474988Y-78174988D02*
X122474989Y-67657889D01*
X122900000Y-78600000D02*
X122474988Y-78174988D01*
X123825000Y-78100000D02*
X122974999Y-77249999D01*
X147735499Y-72330497D02*
X147735499Y-75460499D01*
X143180001Y-67774999D02*
X147735499Y-72330497D01*
X148150928Y-75875928D02*
X148650000Y-76375000D01*
X147735499Y-75460499D02*
X148150928Y-75875928D01*
X123064999Y-67774999D02*
X143180001Y-67774999D01*
X122974999Y-67864999D02*
X123064999Y-67774999D01*
X122974999Y-77249999D02*
X122974999Y-67864999D01*
X127642848Y-109599970D02*
X139808660Y-109599970D01*
X124250000Y-96390000D02*
X126524990Y-98664990D01*
X139808660Y-109599970D02*
X140318630Y-109090000D01*
X140318630Y-109090000D02*
X141450000Y-109090000D01*
X126524990Y-98664990D02*
X126524990Y-108482112D01*
X126524990Y-108482112D02*
X127642848Y-109599970D01*
X124250000Y-98930000D02*
X126024979Y-100704979D01*
X140044978Y-110224978D02*
X140650001Y-110830001D01*
X140650001Y-110830001D02*
X141450000Y-111630000D01*
X126024979Y-100704979D02*
X126024979Y-108689223D01*
X126024979Y-108689223D02*
X127560734Y-110224978D01*
X127560734Y-110224978D02*
X140044978Y-110224978D01*
X143195253Y-113375253D02*
X141450000Y-111630000D01*
X144774747Y-113375253D02*
X143195253Y-113375253D01*
X125450001Y-108821367D02*
X127353623Y-110724989D01*
X127353623Y-110724989D02*
X138007111Y-110724989D01*
X125450001Y-102670001D02*
X125450001Y-108821367D01*
X124250000Y-101470000D02*
X125450001Y-102670001D01*
X140650001Y-113370001D02*
X141450000Y-114170000D01*
X138007111Y-110724989D02*
X140650001Y-113367879D01*
X140650001Y-113367879D02*
X140650001Y-113370001D01*
X148270001Y-110830001D02*
X149070000Y-111630000D01*
X147919999Y-110479999D02*
X148270001Y-110830001D01*
X142002001Y-102859999D02*
X147919999Y-108777997D01*
X147919999Y-108777997D02*
X147919999Y-110479999D01*
X137984999Y-102859999D02*
X142002001Y-102859999D01*
X134125000Y-99000000D02*
X137984999Y-102859999D01*
X132475000Y-90700000D02*
X133975000Y-92200000D01*
X131940000Y-90700000D02*
X132475000Y-90700000D01*
X123049999Y-105349999D02*
X124250000Y-106550000D01*
X123673999Y-90109999D02*
X123049999Y-90733999D01*
X131940000Y-90700000D02*
X130739999Y-91900001D01*
X126489997Y-90109999D02*
X123673999Y-90109999D01*
X128279999Y-91900001D02*
X126489997Y-90109999D01*
X123049999Y-90733999D02*
X123049999Y-105349999D01*
X130739999Y-91900001D02*
X128279999Y-91900001D01*
X131070001Y-87280001D02*
X131920000Y-88130000D01*
X130619999Y-86829999D02*
X131070001Y-87280001D01*
X128755999Y-86829999D02*
X130619999Y-86829999D01*
X128015999Y-87569999D02*
X128755999Y-86829999D01*
X123673999Y-87569999D02*
X128015999Y-87569999D01*
X122549989Y-88694009D02*
X123673999Y-87569999D01*
X148270001Y-113370001D02*
X149070000Y-114170000D01*
X142002001Y-105399999D02*
X142800000Y-106197998D01*
X142800000Y-107900000D02*
X148270001Y-113370001D01*
X142800000Y-106197998D02*
X142800000Y-107900000D01*
X133500000Y-102044669D02*
X136855330Y-105399999D01*
X136855330Y-105399999D02*
X142002001Y-105399999D01*
X133500000Y-99900000D02*
X133500000Y-102044669D01*
X122549989Y-88694009D02*
X122549989Y-103700011D01*
X122549989Y-103700011D02*
X122549989Y-103750011D01*
X122299997Y-103834315D02*
X122299997Y-104400000D01*
X122549989Y-103700011D02*
X122434301Y-103700011D01*
X122434301Y-103700011D02*
X122299997Y-103834315D01*
X126088525Y-93632146D02*
X126088525Y-93632146D01*
X146403230Y-96922332D02*
X144765210Y-96922332D01*
X125699990Y-93695697D02*
X135501752Y-93695697D01*
X144765210Y-96922332D02*
X142842879Y-95000001D01*
X135501752Y-93695697D02*
X135606066Y-93800011D01*
X142842879Y-95000001D02*
X137967879Y-95000001D01*
X135822528Y-93583549D02*
X135606066Y-93800011D01*
X137967879Y-95000001D02*
X136551427Y-93583549D01*
X136551427Y-93583549D02*
X135822528Y-93583549D01*
X144315696Y-102075000D02*
X143750011Y-102075000D01*
X149070000Y-106550000D02*
X144595000Y-102075000D01*
X144595000Y-102075000D02*
X144315696Y-102075000D01*
X126250000Y-95250000D02*
X126250000Y-95250000D01*
X126379608Y-95431532D02*
X135386773Y-95431532D01*
X135949800Y-94868505D02*
X136349799Y-94468506D01*
X135386773Y-95431532D02*
X135949800Y-94868505D01*
X138500000Y-98908665D02*
X136981334Y-97389999D01*
X136981334Y-97389999D02*
X135185001Y-97389999D01*
X138500000Y-99050000D02*
X138500000Y-98908665D01*
X139769999Y-100319999D02*
X138500000Y-99050000D01*
X135185001Y-97389999D02*
X134725000Y-97850000D01*
X145379999Y-100319999D02*
X139769999Y-100319999D01*
X149070000Y-104010000D02*
X145379999Y-100319999D01*
X135787895Y-89457895D02*
X135787895Y-91104980D01*
X135479370Y-91413505D02*
X135479370Y-91979190D01*
X134460000Y-88130000D02*
X135787895Y-89457895D01*
X135787895Y-91104980D02*
X135479370Y-91413505D01*
X140973640Y-115320001D02*
X149622001Y-115320001D01*
X131255036Y-114175000D02*
X134205036Y-111225000D01*
X124250000Y-114170000D02*
X125452081Y-114170000D01*
X150220001Y-114722001D02*
X150220001Y-105160001D01*
X125452081Y-114170000D02*
X125457081Y-114175000D01*
X150220001Y-105160001D02*
X149869999Y-104809999D01*
X125457081Y-114175000D02*
X131255036Y-114175000D01*
X149869999Y-104809999D02*
X149070000Y-104010000D01*
X136878639Y-111225000D02*
X140973640Y-115320001D01*
X149622001Y-115320001D02*
X150220001Y-114722001D01*
X134205036Y-111225000D02*
X136878639Y-111225000D01*
X154950000Y-81150000D02*
X154970000Y-81130000D01*
X149070000Y-81150000D02*
X154950000Y-81150000D01*
X154950000Y-83690000D02*
X154970000Y-83670000D01*
X149070000Y-83690000D02*
X154950000Y-83690000D01*
X154950000Y-86230000D02*
X154970000Y-86210000D01*
X149070000Y-86230000D02*
X154950000Y-86230000D01*
X154950000Y-88770000D02*
X154970000Y-88750000D01*
X149070000Y-88770000D02*
X154950000Y-88770000D01*
X154950000Y-91310000D02*
X154970000Y-91290000D01*
X149070000Y-91310000D02*
X154950000Y-91310000D01*
X154950000Y-93850000D02*
X154970000Y-93830000D01*
X149070000Y-93850000D02*
X154950000Y-93850000D01*
X152410000Y-98930000D02*
X154970000Y-96370000D01*
X149070000Y-98930000D02*
X152410000Y-98930000D01*
X137098400Y-82575000D02*
X137108100Y-82575000D01*
X132952200Y-78428800D02*
X137098400Y-82575000D01*
X141450000Y-82250000D02*
X141450000Y-81150000D01*
X141125000Y-82575000D02*
X141450000Y-82250000D01*
X137108100Y-82575000D02*
X141125000Y-82575000D01*
X154970000Y-114150000D02*
X153820000Y-114150000D01*
X153679999Y-114290001D02*
X153679999Y-122180001D01*
X150684999Y-125175001D02*
X149835000Y-126025000D01*
X153679999Y-122180001D02*
X150684999Y-125175001D01*
X153820000Y-114150000D02*
X153679999Y-114290001D01*
D26*
X136199625Y-112400010D02*
X136199625Y-115144531D01*
X136620010Y-115564916D02*
X136620010Y-121590010D01*
X136199625Y-115144531D02*
X136620010Y-115564916D01*
X139675000Y-124645000D02*
X139675000Y-126025000D01*
X136620010Y-121590010D02*
X139675000Y-124645000D01*
D25*
X151485500Y-70275000D02*
X151785500Y-70275000D01*
X149835501Y-71924999D02*
X151485500Y-70275000D01*
X149835501Y-73439499D02*
X149835501Y-71924999D01*
X148650000Y-74625000D02*
X149835501Y-73439499D01*
X152735501Y-74064499D02*
X152735501Y-72025001D01*
X152175000Y-74625000D02*
X152735501Y-74064499D01*
X152085500Y-71375000D02*
X151785500Y-71375000D01*
X152735501Y-72025001D02*
X152085500Y-71375000D01*
D27*
G36*
X156565000Y-101756579D02*
G01*
X156565001Y-119058420D01*
X156175725Y-119447697D01*
X156119953Y-119493468D01*
X156119951Y-119493470D01*
X156086183Y-119521183D01*
X156058470Y-119554951D01*
X154464999Y-121148423D01*
X154464999Y-115638072D01*
X155820000Y-115638072D01*
X155944482Y-115625812D01*
X156064180Y-115589502D01*
X156174494Y-115530537D01*
X156271185Y-115451185D01*
X156350537Y-115354494D01*
X156409502Y-115244180D01*
X156445812Y-115124482D01*
X156458072Y-115000000D01*
X156458072Y-113300000D01*
X156445812Y-113175518D01*
X156409502Y-113055820D01*
X156350537Y-112945506D01*
X156271185Y-112848815D01*
X156174494Y-112769463D01*
X156064180Y-112710498D01*
X155983534Y-112686034D01*
X156067588Y-112610269D01*
X156241641Y-112376920D01*
X156366825Y-112114099D01*
X156411476Y-111966890D01*
X156290155Y-111737000D01*
X155097000Y-111737000D01*
X155097000Y-111757000D01*
X154843000Y-111757000D01*
X154843000Y-111737000D01*
X153649845Y-111737000D01*
X153528524Y-111966890D01*
X153573175Y-112114099D01*
X153698359Y-112376920D01*
X153872412Y-112610269D01*
X153956466Y-112686034D01*
X153875820Y-112710498D01*
X153765506Y-112769463D01*
X153668815Y-112848815D01*
X153589463Y-112945506D01*
X153530498Y-113055820D01*
X153494188Y-113175518D01*
X153481928Y-113300000D01*
X153481928Y-113440601D01*
X153381767Y-113494138D01*
X153262236Y-113592236D01*
X153237653Y-113622190D01*
X153152189Y-113707654D01*
X153122235Y-113732237D01*
X153024137Y-113851769D01*
X152951245Y-113988142D01*
X152906358Y-114136115D01*
X152894999Y-114251441D01*
X152894999Y-114251448D01*
X152891202Y-114290001D01*
X152894999Y-114328554D01*
X152895000Y-121854843D01*
X150173869Y-124575974D01*
X150126111Y-124561487D01*
X149907950Y-124540000D01*
X149762050Y-124540000D01*
X149543889Y-124561487D01*
X149263966Y-124646401D01*
X149005986Y-124784294D01*
X148779866Y-124969866D01*
X148594294Y-125195986D01*
X148565000Y-125250791D01*
X148535706Y-125195986D01*
X148350134Y-124969866D01*
X148124014Y-124784294D01*
X147866034Y-124646401D01*
X147586111Y-124561487D01*
X147367950Y-124540000D01*
X147222050Y-124540000D01*
X147003889Y-124561487D01*
X146723966Y-124646401D01*
X146465986Y-124784294D01*
X146239866Y-124969866D01*
X146054294Y-125195986D01*
X146025000Y-125250791D01*
X145995706Y-125195986D01*
X145810134Y-124969866D01*
X145584014Y-124784294D01*
X145326034Y-124646401D01*
X145046111Y-124561487D01*
X144827950Y-124540000D01*
X144682050Y-124540000D01*
X144463889Y-124561487D01*
X144183966Y-124646401D01*
X143925986Y-124784294D01*
X143699866Y-124969866D01*
X143514294Y-125195986D01*
X143479799Y-125260523D01*
X143410178Y-125143645D01*
X143215269Y-124927412D01*
X142981920Y-124753359D01*
X142719099Y-124628175D01*
X142571890Y-124583524D01*
X142342000Y-124704845D01*
X142342000Y-125898000D01*
X142362000Y-125898000D01*
X142362000Y-126152000D01*
X142342000Y-126152000D01*
X142342000Y-127345155D01*
X142571890Y-127466476D01*
X142719099Y-127421825D01*
X142981920Y-127296641D01*
X143215269Y-127122588D01*
X143410178Y-126906355D01*
X143479799Y-126789477D01*
X143514294Y-126854014D01*
X143699866Y-127080134D01*
X143925986Y-127265706D01*
X144183966Y-127403599D01*
X144463889Y-127488513D01*
X144682050Y-127510000D01*
X144827950Y-127510000D01*
X145046111Y-127488513D01*
X145326034Y-127403599D01*
X145584014Y-127265706D01*
X145810134Y-127080134D01*
X145995706Y-126854014D01*
X146025000Y-126799209D01*
X146054294Y-126854014D01*
X146239866Y-127080134D01*
X146465986Y-127265706D01*
X146723966Y-127403599D01*
X147003889Y-127488513D01*
X147222050Y-127510000D01*
X147367950Y-127510000D01*
X147586111Y-127488513D01*
X147866034Y-127403599D01*
X148124014Y-127265706D01*
X148350134Y-127080134D01*
X148535706Y-126854014D01*
X148565000Y-126799209D01*
X148594294Y-126854014D01*
X148779866Y-127080134D01*
X149005986Y-127265706D01*
X149263966Y-127403599D01*
X149543889Y-127488513D01*
X149762050Y-127510000D01*
X149907950Y-127510000D01*
X150126111Y-127488513D01*
X150406034Y-127403599D01*
X150664014Y-127265706D01*
X150890134Y-127080134D01*
X151075706Y-126854014D01*
X151213599Y-126596034D01*
X151298513Y-126316111D01*
X151316657Y-126131890D01*
X153538524Y-126131890D01*
X153583175Y-126279099D01*
X153708359Y-126541920D01*
X153882412Y-126775269D01*
X154098645Y-126970178D01*
X154348748Y-127119157D01*
X154623109Y-127216481D01*
X154853000Y-127095814D01*
X154853000Y-125902000D01*
X155107000Y-125902000D01*
X155107000Y-127095814D01*
X155336891Y-127216481D01*
X155611252Y-127119157D01*
X155861355Y-126970178D01*
X156077588Y-126775269D01*
X156251641Y-126541920D01*
X156376825Y-126279099D01*
X156421476Y-126131890D01*
X156300155Y-125902000D01*
X155107000Y-125902000D01*
X154853000Y-125902000D01*
X153659845Y-125902000D01*
X153538524Y-126131890D01*
X151316657Y-126131890D01*
X151327185Y-126025000D01*
X151298513Y-125733889D01*
X151284026Y-125686131D01*
X153491928Y-123478229D01*
X153491928Y-124085000D01*
X153504188Y-124209482D01*
X153540498Y-124329180D01*
X153599463Y-124439494D01*
X153678815Y-124536185D01*
X153775506Y-124615537D01*
X153885820Y-124674502D01*
X153966466Y-124698966D01*
X153882412Y-124774731D01*
X153708359Y-125008080D01*
X153583175Y-125270901D01*
X153538524Y-125418110D01*
X153659845Y-125648000D01*
X154853000Y-125648000D01*
X154853000Y-125628000D01*
X155107000Y-125628000D01*
X155107000Y-125648000D01*
X156300155Y-125648000D01*
X156421476Y-125418110D01*
X156376825Y-125270901D01*
X156251641Y-125008080D01*
X156077588Y-124774731D01*
X155993534Y-124698966D01*
X156074180Y-124674502D01*
X156184494Y-124615537D01*
X156281185Y-124536185D01*
X156360537Y-124439494D01*
X156419502Y-124329180D01*
X156455812Y-124209482D01*
X156468072Y-124085000D01*
X156468072Y-122385000D01*
X156455812Y-122260518D01*
X156419502Y-122140820D01*
X156360537Y-122030506D01*
X156281185Y-121933815D01*
X156227127Y-121889451D01*
X157264281Y-120852298D01*
X157353817Y-120778817D01*
X157381534Y-120745044D01*
X157640000Y-120486578D01*
X157640000Y-126167721D01*
X157592330Y-126653894D01*
X157460512Y-127090497D01*
X157246399Y-127493186D01*
X156958150Y-127846613D01*
X156606739Y-128137327D01*
X156205564Y-128354240D01*
X155769886Y-128489106D01*
X155286180Y-128539946D01*
X148444999Y-128514886D01*
X148412401Y-128517976D01*
X148388479Y-128517809D01*
X148379308Y-128518709D01*
X147636888Y-128596741D01*
X147578319Y-128608764D01*
X147519532Y-128619977D01*
X147510710Y-128622641D01*
X146797586Y-128843389D01*
X146742423Y-128866577D01*
X146686977Y-128888979D01*
X146678841Y-128893305D01*
X146022175Y-129248363D01*
X145972591Y-129281808D01*
X145922528Y-129314568D01*
X145915387Y-129320392D01*
X145340192Y-129796235D01*
X145298052Y-129838671D01*
X145255302Y-129880534D01*
X145249429Y-129887635D01*
X144777613Y-130466137D01*
X144744531Y-130515930D01*
X144710713Y-130565319D01*
X144706331Y-130573426D01*
X144355866Y-131232555D01*
X144333070Y-131287863D01*
X144309505Y-131342843D01*
X144306780Y-131351646D01*
X144091016Y-132066294D01*
X144079399Y-132124967D01*
X144066960Y-132183484D01*
X144065997Y-132192649D01*
X143993150Y-132935595D01*
X143993150Y-132938410D01*
X143992265Y-132944618D01*
X143922614Y-133771727D01*
X143722852Y-134516544D01*
X143394353Y-135214213D01*
X142947505Y-135842675D01*
X142396418Y-136382085D01*
X141758524Y-136815377D01*
X141053987Y-137128858D01*
X140305060Y-137312625D01*
X139535439Y-137360863D01*
X138769434Y-137272050D01*
X138031262Y-137048993D01*
X137344259Y-136698743D01*
X136730134Y-136232369D01*
X136208305Y-135664615D01*
X135795262Y-135013425D01*
X135504066Y-134299386D01*
X135341920Y-133535666D01*
X135309931Y-133004006D01*
X135309903Y-132995998D01*
X135306990Y-132967313D01*
X135307191Y-132938479D01*
X135306291Y-132929308D01*
X135283589Y-132713305D01*
X136485313Y-132713305D01*
X136485313Y-133336695D01*
X136606930Y-133948105D01*
X136845490Y-134524042D01*
X137191827Y-135042371D01*
X137632629Y-135483173D01*
X138150958Y-135829510D01*
X138726895Y-136068070D01*
X139338305Y-136189687D01*
X139961695Y-136189687D01*
X140573105Y-136068070D01*
X141149042Y-135829510D01*
X141667371Y-135483173D01*
X142108173Y-135042371D01*
X142454510Y-134524042D01*
X142693070Y-133948105D01*
X142814687Y-133336695D01*
X142814687Y-132713305D01*
X142693070Y-132101895D01*
X142454510Y-131525958D01*
X142108173Y-131007629D01*
X141667371Y-130566827D01*
X141149042Y-130220490D01*
X140573105Y-129981930D01*
X139961695Y-129860313D01*
X139338305Y-129860313D01*
X138726895Y-129981930D01*
X138150958Y-130220490D01*
X137632629Y-130566827D01*
X137191827Y-131007629D01*
X136845490Y-131525958D01*
X136606930Y-132101895D01*
X136485313Y-132713305D01*
X135283589Y-132713305D01*
X135228259Y-132186888D01*
X135216236Y-132128319D01*
X135205023Y-132069532D01*
X135202359Y-132060710D01*
X134981611Y-131347586D01*
X134958423Y-131292423D01*
X134936021Y-131236977D01*
X134931695Y-131228841D01*
X134576637Y-130572175D01*
X134543192Y-130522591D01*
X134510432Y-130472528D01*
X134504608Y-130465387D01*
X134028765Y-129890192D01*
X133986329Y-129848052D01*
X133944466Y-129805302D01*
X133937365Y-129799429D01*
X133358863Y-129327613D01*
X133309070Y-129294531D01*
X133259681Y-129260713D01*
X133251574Y-129256331D01*
X132592445Y-128905866D01*
X132537137Y-128883070D01*
X132482157Y-128859505D01*
X132473354Y-128856780D01*
X131758706Y-128641016D01*
X131700033Y-128629399D01*
X131641516Y-128616960D01*
X131632351Y-128615997D01*
X130889405Y-128543150D01*
X130889402Y-128543150D01*
X130857419Y-128540000D01*
X123982279Y-128540000D01*
X123496106Y-128492330D01*
X123059503Y-128360512D01*
X122656814Y-128146399D01*
X122303387Y-127858150D01*
X122012673Y-127506739D01*
X121795760Y-127105564D01*
X121660894Y-126669886D01*
X121610000Y-126185664D01*
X121610000Y-124970000D01*
X124831928Y-124970000D01*
X124844188Y-125094482D01*
X124880498Y-125214180D01*
X124939463Y-125324494D01*
X125018815Y-125421185D01*
X125115506Y-125500537D01*
X125225820Y-125559502D01*
X125345518Y-125595812D01*
X125470000Y-125608072D01*
X128384250Y-125605000D01*
X128543000Y-125446250D01*
X128543000Y-122197000D01*
X124993750Y-122197000D01*
X124835000Y-122355750D01*
X124831928Y-124970000D01*
X121610000Y-124970000D01*
X121610000Y-119170000D01*
X124831928Y-119170000D01*
X124835000Y-121784250D01*
X124993750Y-121943000D01*
X128543000Y-121943000D01*
X128543000Y-118693750D01*
X128384250Y-118535000D01*
X125470000Y-118531928D01*
X125345518Y-118544188D01*
X125225820Y-118580498D01*
X125115506Y-118639463D01*
X125018815Y-118718815D01*
X124939463Y-118815506D01*
X124880498Y-118925820D01*
X124844188Y-119045518D01*
X124831928Y-119170000D01*
X121610000Y-119170000D01*
X121610000Y-105173714D01*
X121640223Y-105203937D01*
X121809741Y-105317205D01*
X121998099Y-105395226D01*
X122198058Y-105435000D01*
X122269574Y-105435000D01*
X122276358Y-105503885D01*
X122321245Y-105651858D01*
X122321246Y-105651859D01*
X122394138Y-105788232D01*
X122434689Y-105837643D01*
X122467654Y-105877811D01*
X122467658Y-105877815D01*
X122492236Y-105907763D01*
X122522184Y-105932341D01*
X122800974Y-106211131D01*
X122786487Y-106258889D01*
X122757815Y-106550000D01*
X122786487Y-106841111D01*
X122871401Y-107121034D01*
X123009294Y-107379014D01*
X123194866Y-107605134D01*
X123420986Y-107790706D01*
X123475791Y-107820000D01*
X123420986Y-107849294D01*
X123194866Y-108034866D01*
X123009294Y-108260986D01*
X122871401Y-108518966D01*
X122786487Y-108798889D01*
X122757815Y-109090000D01*
X122786487Y-109381111D01*
X122871401Y-109661034D01*
X123009294Y-109919014D01*
X123194866Y-110145134D01*
X123420986Y-110330706D01*
X123475791Y-110360000D01*
X123420986Y-110389294D01*
X123194866Y-110574866D01*
X123009294Y-110800986D01*
X122871401Y-111058966D01*
X122786487Y-111338889D01*
X122757815Y-111630000D01*
X122786487Y-111921111D01*
X122871401Y-112201034D01*
X123009294Y-112459014D01*
X123194866Y-112685134D01*
X123420986Y-112870706D01*
X123475791Y-112900000D01*
X123420986Y-112929294D01*
X123194866Y-113114866D01*
X123009294Y-113340986D01*
X122871401Y-113598966D01*
X122786487Y-113878889D01*
X122757815Y-114170000D01*
X122786487Y-114461111D01*
X122871401Y-114741034D01*
X123009294Y-114999014D01*
X123194866Y-115225134D01*
X123420986Y-115410706D01*
X123678966Y-115548599D01*
X123958889Y-115633513D01*
X124177050Y-115655000D01*
X124322950Y-115655000D01*
X124541111Y-115633513D01*
X124821034Y-115548599D01*
X125079014Y-115410706D01*
X125305134Y-115225134D01*
X125490706Y-114999014D01*
X125511559Y-114960000D01*
X131216483Y-114960000D01*
X131255036Y-114963797D01*
X131293589Y-114960000D01*
X131293597Y-114960000D01*
X131408923Y-114948641D01*
X131556896Y-114903754D01*
X131693269Y-114830862D01*
X131812800Y-114732764D01*
X131837383Y-114702810D01*
X134530194Y-112010000D01*
X135024418Y-112010000D01*
X135012085Y-112039774D01*
X134964625Y-112278373D01*
X134964625Y-112521647D01*
X135012085Y-112760246D01*
X135105182Y-112985002D01*
X135240338Y-113187277D01*
X135314625Y-113261564D01*
X135314626Y-115101052D01*
X135310344Y-115144531D01*
X135327430Y-115318021D01*
X135378037Y-115484844D01*
X135460215Y-115638590D01*
X135543093Y-115739577D01*
X135543096Y-115739580D01*
X135570809Y-115773348D01*
X135604577Y-115801061D01*
X135735010Y-115931494D01*
X135735010Y-116405740D01*
X135672000Y-116468750D01*
X135672000Y-117293000D01*
X135692000Y-117293000D01*
X135692000Y-117547000D01*
X135672000Y-117547000D01*
X135672000Y-118371250D01*
X135735010Y-118434260D01*
X135735010Y-118551928D01*
X134983506Y-118551928D01*
X134958604Y-118527025D01*
X135020000Y-118533072D01*
X135259250Y-118530000D01*
X135418000Y-118371250D01*
X135418000Y-117547000D01*
X135398000Y-117547000D01*
X135398000Y-117293000D01*
X135418000Y-117293000D01*
X135418000Y-116468750D01*
X135259250Y-116310000D01*
X135020000Y-116306928D01*
X134895518Y-116319188D01*
X134775820Y-116355498D01*
X134665506Y-116414463D01*
X134592839Y-116474099D01*
X134568942Y-116454488D01*
X134417567Y-116373577D01*
X134253316Y-116323752D01*
X134082500Y-116306928D01*
X133743104Y-116306928D01*
X133764443Y-116274992D01*
X133857540Y-116050236D01*
X133905000Y-115811637D01*
X133905000Y-115568363D01*
X133857540Y-115329764D01*
X133764443Y-115105008D01*
X133629287Y-114902733D01*
X133457267Y-114730713D01*
X133254992Y-114595557D01*
X133030236Y-114502460D01*
X132791637Y-114455000D01*
X132548363Y-114455000D01*
X132309764Y-114502460D01*
X132085008Y-114595557D01*
X131882733Y-114730713D01*
X131710713Y-114902733D01*
X131575557Y-115105008D01*
X131482460Y-115329764D01*
X131435000Y-115568363D01*
X131435000Y-115811637D01*
X131482460Y-116050236D01*
X131575557Y-116274992D01*
X131710713Y-116477267D01*
X131771544Y-116538098D01*
X131760686Y-117228112D01*
X131760001Y-117235062D01*
X131760001Y-117271608D01*
X131759427Y-117308083D01*
X131760001Y-117315030D01*
X131760001Y-118532044D01*
X128955750Y-118535000D01*
X128797000Y-118693750D01*
X128797000Y-121943000D01*
X128817000Y-121943000D01*
X128817000Y-122197000D01*
X128797000Y-122197000D01*
X128797000Y-125446250D01*
X128955750Y-125605000D01*
X131870000Y-125608072D01*
X131994482Y-125595812D01*
X132114180Y-125559502D01*
X132224494Y-125500537D01*
X132321185Y-125421185D01*
X132400537Y-125324494D01*
X132459502Y-125214180D01*
X132495812Y-125094482D01*
X132508072Y-124970000D01*
X132507801Y-124739380D01*
X132560000Y-124791579D01*
X132560001Y-125666263D01*
X132492038Y-125722038D01*
X132381595Y-125856613D01*
X132299528Y-126010149D01*
X132248992Y-126176745D01*
X132231928Y-126349999D01*
X132231928Y-127250001D01*
X132248992Y-127423255D01*
X132299528Y-127589851D01*
X132381595Y-127743387D01*
X132492038Y-127877962D01*
X132626613Y-127988405D01*
X132780149Y-128070472D01*
X132946745Y-128121008D01*
X133119999Y-128138072D01*
X133770001Y-128138072D01*
X133943255Y-128121008D01*
X134109851Y-128070472D01*
X134263387Y-127988405D01*
X134397962Y-127877962D01*
X134403342Y-127871406D01*
X134468815Y-127951185D01*
X134565506Y-128030537D01*
X134675820Y-128089502D01*
X134795518Y-128125812D01*
X134920000Y-128138072D01*
X135209250Y-128135000D01*
X135368000Y-127976250D01*
X135368000Y-126927000D01*
X135622000Y-126927000D01*
X135622000Y-127976250D01*
X135780750Y-128135000D01*
X136070000Y-128138072D01*
X136194482Y-128125812D01*
X136314180Y-128089502D01*
X136424494Y-128030537D01*
X136521185Y-127951185D01*
X136600537Y-127854494D01*
X136659502Y-127744180D01*
X136695812Y-127624482D01*
X136708072Y-127500000D01*
X136705000Y-127085750D01*
X136546250Y-126927000D01*
X135622000Y-126927000D01*
X135368000Y-126927000D01*
X135348000Y-126927000D01*
X135348000Y-126673000D01*
X135368000Y-126673000D01*
X135368000Y-126653000D01*
X135622000Y-126653000D01*
X135622000Y-126673000D01*
X136546250Y-126673000D01*
X136705000Y-126514250D01*
X136708072Y-126100000D01*
X136695812Y-125975518D01*
X136659502Y-125855820D01*
X136600537Y-125745506D01*
X136521185Y-125648815D01*
X136424494Y-125569463D01*
X136341311Y-125525000D01*
X136424494Y-125480537D01*
X136521185Y-125401185D01*
X136600537Y-125304494D01*
X136659502Y-125194180D01*
X136695812Y-125074482D01*
X136708072Y-124950000D01*
X136708072Y-123750000D01*
X136695812Y-123625518D01*
X136659502Y-123505820D01*
X136600537Y-123395506D01*
X136521185Y-123298815D01*
X136442398Y-123234156D01*
X136569287Y-123107267D01*
X136696020Y-122917598D01*
X138444350Y-124665929D01*
X138373815Y-124723815D01*
X138294463Y-124820506D01*
X138235498Y-124930820D01*
X138199188Y-125050518D01*
X138186928Y-125175000D01*
X138186928Y-126875000D01*
X138199188Y-126999482D01*
X138235498Y-127119180D01*
X138294463Y-127229494D01*
X138373815Y-127326185D01*
X138470506Y-127405537D01*
X138580820Y-127464502D01*
X138700518Y-127500812D01*
X138825000Y-127513072D01*
X140525000Y-127513072D01*
X140649482Y-127500812D01*
X140769180Y-127464502D01*
X140879494Y-127405537D01*
X140976185Y-127326185D01*
X141055537Y-127229494D01*
X141114502Y-127119180D01*
X141138966Y-127038534D01*
X141214731Y-127122588D01*
X141448080Y-127296641D01*
X141710901Y-127421825D01*
X141858110Y-127466476D01*
X142088000Y-127345155D01*
X142088000Y-126152000D01*
X142068000Y-126152000D01*
X142068000Y-125898000D01*
X142088000Y-125898000D01*
X142088000Y-124704845D01*
X141858110Y-124583524D01*
X141710901Y-124628175D01*
X141448080Y-124753359D01*
X141214731Y-124927412D01*
X141138966Y-125011466D01*
X141114502Y-124930820D01*
X141055537Y-124820506D01*
X140976185Y-124723815D01*
X140879494Y-124644463D01*
X140769180Y-124585498D01*
X140649482Y-124549188D01*
X140553919Y-124539776D01*
X140547195Y-124471510D01*
X140496589Y-124304687D01*
X140414411Y-124150941D01*
X140303817Y-124016183D01*
X140270050Y-123988471D01*
X137721579Y-121440000D01*
X138121928Y-121440000D01*
X138134188Y-121564482D01*
X138170498Y-121684180D01*
X138229463Y-121794494D01*
X138308815Y-121891185D01*
X138405506Y-121970537D01*
X138515820Y-122029502D01*
X138635518Y-122065812D01*
X138760000Y-122078072D01*
X139324250Y-122075000D01*
X139483000Y-121916250D01*
X139483000Y-120717000D01*
X138283750Y-120717000D01*
X138125000Y-120875750D01*
X138121928Y-121440000D01*
X137721579Y-121440000D01*
X137505010Y-121223432D01*
X137505010Y-119740000D01*
X138121928Y-119740000D01*
X138125000Y-120304250D01*
X138283750Y-120463000D01*
X139483000Y-120463000D01*
X139483000Y-119263750D01*
X139324250Y-119105000D01*
X138760000Y-119101928D01*
X138635518Y-119114188D01*
X138515820Y-119150498D01*
X138405506Y-119209463D01*
X138308815Y-119288815D01*
X138229463Y-119385506D01*
X138170498Y-119495820D01*
X138134188Y-119615518D01*
X138121928Y-119740000D01*
X137505010Y-119740000D01*
X137505010Y-115608381D01*
X137509291Y-115564915D01*
X137505010Y-115521449D01*
X137505010Y-115521439D01*
X137492205Y-115391426D01*
X137441599Y-115224603D01*
X137359421Y-115070857D01*
X137294845Y-114992171D01*
X137464754Y-115062550D01*
X137703353Y-115110010D01*
X137908412Y-115110010D01*
X139413462Y-116615061D01*
X139441175Y-116648829D01*
X139474943Y-116676542D01*
X139474945Y-116676544D01*
X139475062Y-116676640D01*
X141265000Y-118466579D01*
X141265001Y-119395240D01*
X141094866Y-119534866D01*
X141070393Y-119564687D01*
X141049502Y-119495820D01*
X140990537Y-119385506D01*
X140911185Y-119288815D01*
X140814494Y-119209463D01*
X140704180Y-119150498D01*
X140584482Y-119114188D01*
X140460000Y-119101928D01*
X139895750Y-119105000D01*
X139737000Y-119263750D01*
X139737000Y-120463000D01*
X139757000Y-120463000D01*
X139757000Y-120717000D01*
X139737000Y-120717000D01*
X139737000Y-121916250D01*
X139895750Y-122075000D01*
X140460000Y-122078072D01*
X140584482Y-122065812D01*
X140704180Y-122029502D01*
X140814494Y-121970537D01*
X140911185Y-121891185D01*
X140990537Y-121794494D01*
X141049502Y-121684180D01*
X141070393Y-121615313D01*
X141094866Y-121645134D01*
X141320986Y-121830706D01*
X141578966Y-121968599D01*
X141858889Y-122053513D01*
X142077050Y-122075000D01*
X142222950Y-122075000D01*
X142441111Y-122053513D01*
X142721034Y-121968599D01*
X142979014Y-121830706D01*
X143205134Y-121645134D01*
X143390706Y-121419014D01*
X143420000Y-121364209D01*
X143449294Y-121419014D01*
X143634866Y-121645134D01*
X143860986Y-121830706D01*
X144118966Y-121968599D01*
X144398889Y-122053513D01*
X144617050Y-122075000D01*
X144762950Y-122075000D01*
X144981111Y-122053513D01*
X145261034Y-121968599D01*
X145519014Y-121830706D01*
X145745134Y-121645134D01*
X145930706Y-121419014D01*
X145960000Y-121364209D01*
X145989294Y-121419014D01*
X146174866Y-121645134D01*
X146400986Y-121830706D01*
X146658966Y-121968599D01*
X146938889Y-122053513D01*
X147157050Y-122075000D01*
X147302950Y-122075000D01*
X147521111Y-122053513D01*
X147801034Y-121968599D01*
X148059014Y-121830706D01*
X148285134Y-121645134D01*
X148470706Y-121419014D01*
X148500000Y-121364209D01*
X148529294Y-121419014D01*
X148714866Y-121645134D01*
X148940986Y-121830706D01*
X149198966Y-121968599D01*
X149478889Y-122053513D01*
X149697050Y-122075000D01*
X149842950Y-122075000D01*
X150061111Y-122053513D01*
X150341034Y-121968599D01*
X150599014Y-121830706D01*
X150825134Y-121645134D01*
X151010706Y-121419014D01*
X151148599Y-121161034D01*
X151233513Y-120881111D01*
X151262185Y-120590000D01*
X151233513Y-120298889D01*
X151148599Y-120018966D01*
X151010706Y-119760986D01*
X150825134Y-119534866D01*
X150599014Y-119349294D01*
X150341034Y-119211401D01*
X150061111Y-119126487D01*
X149842950Y-119105000D01*
X149697050Y-119105000D01*
X149478889Y-119126487D01*
X149198966Y-119211401D01*
X148940986Y-119349294D01*
X148714866Y-119534866D01*
X148529294Y-119760986D01*
X148500000Y-119815791D01*
X148470706Y-119760986D01*
X148285134Y-119534866D01*
X148059014Y-119349294D01*
X147801034Y-119211401D01*
X147521111Y-119126487D01*
X147302950Y-119105000D01*
X147157050Y-119105000D01*
X146938889Y-119126487D01*
X146658966Y-119211401D01*
X146400986Y-119349294D01*
X146174866Y-119534866D01*
X145989294Y-119760986D01*
X145960000Y-119815791D01*
X145930706Y-119760986D01*
X145745134Y-119534866D01*
X145519014Y-119349294D01*
X145261034Y-119211401D01*
X144981111Y-119126487D01*
X144762950Y-119105000D01*
X144617050Y-119105000D01*
X144398889Y-119126487D01*
X144118966Y-119211401D01*
X143860986Y-119349294D01*
X143634866Y-119534866D01*
X143449294Y-119760986D01*
X143420000Y-119815791D01*
X143390706Y-119760986D01*
X143205134Y-119534866D01*
X143035000Y-119395241D01*
X143035000Y-118143465D01*
X143039281Y-118099999D01*
X143035000Y-118056533D01*
X143035000Y-118056523D01*
X143022195Y-117926510D01*
X142971589Y-117759687D01*
X142889411Y-117605941D01*
X142778817Y-117471183D01*
X142745050Y-117443471D01*
X141406579Y-116105001D01*
X149583448Y-116105001D01*
X149622001Y-116108798D01*
X149660554Y-116105001D01*
X149660562Y-116105001D01*
X149775888Y-116093642D01*
X149923861Y-116048755D01*
X150060234Y-115975863D01*
X150179765Y-115877765D01*
X150204348Y-115847811D01*
X150747812Y-115304347D01*
X150777765Y-115279765D01*
X150875863Y-115160234D01*
X150948755Y-115023861D01*
X150965133Y-114969870D01*
X150993643Y-114875888D01*
X151004836Y-114762237D01*
X151005001Y-114760562D01*
X151005001Y-114760557D01*
X151008798Y-114722001D01*
X151005001Y-114683445D01*
X151005001Y-109426890D01*
X153528524Y-109426890D01*
X153573175Y-109574099D01*
X153698359Y-109836920D01*
X153872412Y-110070269D01*
X154088645Y-110265178D01*
X154214255Y-110340000D01*
X154088645Y-110414822D01*
X153872412Y-110609731D01*
X153698359Y-110843080D01*
X153573175Y-111105901D01*
X153528524Y-111253110D01*
X153649845Y-111483000D01*
X154843000Y-111483000D01*
X154843000Y-109197000D01*
X155097000Y-109197000D01*
X155097000Y-111483000D01*
X156290155Y-111483000D01*
X156411476Y-111253110D01*
X156366825Y-111105901D01*
X156241641Y-110843080D01*
X156067588Y-110609731D01*
X155851355Y-110414822D01*
X155725745Y-110340000D01*
X155851355Y-110265178D01*
X156067588Y-110070269D01*
X156241641Y-109836920D01*
X156366825Y-109574099D01*
X156411476Y-109426890D01*
X156290155Y-109197000D01*
X155097000Y-109197000D01*
X154843000Y-109197000D01*
X153649845Y-109197000D01*
X153528524Y-109426890D01*
X151005001Y-109426890D01*
X151005001Y-106886890D01*
X153528524Y-106886890D01*
X153573175Y-107034099D01*
X153698359Y-107296920D01*
X153872412Y-107530269D01*
X154088645Y-107725178D01*
X154214255Y-107800000D01*
X154088645Y-107874822D01*
X153872412Y-108069731D01*
X153698359Y-108303080D01*
X153573175Y-108565901D01*
X153528524Y-108713110D01*
X153649845Y-108943000D01*
X154843000Y-108943000D01*
X154843000Y-106657000D01*
X155097000Y-106657000D01*
X155097000Y-108943000D01*
X156290155Y-108943000D01*
X156411476Y-108713110D01*
X156366825Y-108565901D01*
X156241641Y-108303080D01*
X156067588Y-108069731D01*
X155851355Y-107874822D01*
X155725745Y-107800000D01*
X155851355Y-107725178D01*
X156067588Y-107530269D01*
X156241641Y-107296920D01*
X156366825Y-107034099D01*
X156411476Y-106886890D01*
X156290155Y-106657000D01*
X155097000Y-106657000D01*
X154843000Y-106657000D01*
X153649845Y-106657000D01*
X153528524Y-106886890D01*
X151005001Y-106886890D01*
X151005001Y-105198557D01*
X151008798Y-105160001D01*
X151005001Y-105121445D01*
X151005001Y-105121440D01*
X150999187Y-105062408D01*
X150993643Y-105006114D01*
X150948755Y-104858141D01*
X150940253Y-104842235D01*
X150875863Y-104721768D01*
X150777765Y-104602237D01*
X150747806Y-104577650D01*
X150474554Y-104304397D01*
X150505000Y-104151335D01*
X150505000Y-103868665D01*
X150449853Y-103591426D01*
X150341680Y-103330273D01*
X150184637Y-103095241D01*
X149984759Y-102895363D01*
X149752241Y-102740000D01*
X149984759Y-102584637D01*
X150184637Y-102384759D01*
X150204521Y-102355000D01*
X153791654Y-102355000D01*
X153914866Y-102505134D01*
X154085000Y-102644760D01*
X154085001Y-102795240D01*
X153914866Y-102934866D01*
X153729294Y-103160986D01*
X153591401Y-103418966D01*
X153506487Y-103698889D01*
X153477815Y-103990000D01*
X153506487Y-104281111D01*
X153591401Y-104561034D01*
X153729294Y-104819014D01*
X153914866Y-105045134D01*
X154140986Y-105230706D01*
X154205523Y-105265201D01*
X154088645Y-105334822D01*
X153872412Y-105529731D01*
X153698359Y-105763080D01*
X153573175Y-106025901D01*
X153528524Y-106173110D01*
X153649845Y-106403000D01*
X154843000Y-106403000D01*
X154843000Y-106383000D01*
X155097000Y-106383000D01*
X155097000Y-106403000D01*
X156290155Y-106403000D01*
X156411476Y-106173110D01*
X156366825Y-106025901D01*
X156241641Y-105763080D01*
X156067588Y-105529731D01*
X155851355Y-105334822D01*
X155734477Y-105265201D01*
X155799014Y-105230706D01*
X156025134Y-105045134D01*
X156210706Y-104819014D01*
X156348599Y-104561034D01*
X156433513Y-104281111D01*
X156462185Y-103990000D01*
X156433513Y-103698889D01*
X156348599Y-103418966D01*
X156210706Y-103160986D01*
X156025134Y-102934866D01*
X155855000Y-102795241D01*
X155855000Y-102644759D01*
X156025134Y-102505134D01*
X156210706Y-102279014D01*
X156348599Y-102021034D01*
X156433513Y-101741111D01*
X156443915Y-101635494D01*
X156565000Y-101756579D01*
X156565000Y-101756579D01*
G37*
X156565000Y-101756579D02*
X156565001Y-119058420D01*
X156175725Y-119447697D01*
X156119953Y-119493468D01*
X156119951Y-119493470D01*
X156086183Y-119521183D01*
X156058470Y-119554951D01*
X154464999Y-121148423D01*
X154464999Y-115638072D01*
X155820000Y-115638072D01*
X155944482Y-115625812D01*
X156064180Y-115589502D01*
X156174494Y-115530537D01*
X156271185Y-115451185D01*
X156350537Y-115354494D01*
X156409502Y-115244180D01*
X156445812Y-115124482D01*
X156458072Y-115000000D01*
X156458072Y-113300000D01*
X156445812Y-113175518D01*
X156409502Y-113055820D01*
X156350537Y-112945506D01*
X156271185Y-112848815D01*
X156174494Y-112769463D01*
X156064180Y-112710498D01*
X155983534Y-112686034D01*
X156067588Y-112610269D01*
X156241641Y-112376920D01*
X156366825Y-112114099D01*
X156411476Y-111966890D01*
X156290155Y-111737000D01*
X155097000Y-111737000D01*
X155097000Y-111757000D01*
X154843000Y-111757000D01*
X154843000Y-111737000D01*
X153649845Y-111737000D01*
X153528524Y-111966890D01*
X153573175Y-112114099D01*
X153698359Y-112376920D01*
X153872412Y-112610269D01*
X153956466Y-112686034D01*
X153875820Y-112710498D01*
X153765506Y-112769463D01*
X153668815Y-112848815D01*
X153589463Y-112945506D01*
X153530498Y-113055820D01*
X153494188Y-113175518D01*
X153481928Y-113300000D01*
X153481928Y-113440601D01*
X153381767Y-113494138D01*
X153262236Y-113592236D01*
X153237653Y-113622190D01*
X153152189Y-113707654D01*
X153122235Y-113732237D01*
X153024137Y-113851769D01*
X152951245Y-113988142D01*
X152906358Y-114136115D01*
X152894999Y-114251441D01*
X152894999Y-114251448D01*
X152891202Y-114290001D01*
X152894999Y-114328554D01*
X152895000Y-121854843D01*
X150173869Y-124575974D01*
X150126111Y-124561487D01*
X149907950Y-124540000D01*
X149762050Y-124540000D01*
X149543889Y-124561487D01*
X149263966Y-124646401D01*
X149005986Y-124784294D01*
X148779866Y-124969866D01*
X148594294Y-125195986D01*
X148565000Y-125250791D01*
X148535706Y-125195986D01*
X148350134Y-124969866D01*
X148124014Y-124784294D01*
X147866034Y-124646401D01*
X147586111Y-124561487D01*
X147367950Y-124540000D01*
X147222050Y-124540000D01*
X147003889Y-124561487D01*
X146723966Y-124646401D01*
X146465986Y-124784294D01*
X146239866Y-124969866D01*
X146054294Y-125195986D01*
X146025000Y-125250791D01*
X145995706Y-125195986D01*
X145810134Y-124969866D01*
X145584014Y-124784294D01*
X145326034Y-124646401D01*
X145046111Y-124561487D01*
X144827950Y-124540000D01*
X144682050Y-124540000D01*
X144463889Y-124561487D01*
X144183966Y-124646401D01*
X143925986Y-124784294D01*
X143699866Y-124969866D01*
X143514294Y-125195986D01*
X143479799Y-125260523D01*
X143410178Y-125143645D01*
X143215269Y-124927412D01*
X142981920Y-124753359D01*
X142719099Y-124628175D01*
X142571890Y-124583524D01*
X142342000Y-124704845D01*
X142342000Y-125898000D01*
X142362000Y-125898000D01*
X142362000Y-126152000D01*
X142342000Y-126152000D01*
X142342000Y-127345155D01*
X142571890Y-127466476D01*
X142719099Y-127421825D01*
X142981920Y-127296641D01*
X143215269Y-127122588D01*
X143410178Y-126906355D01*
X143479799Y-126789477D01*
X143514294Y-126854014D01*
X143699866Y-127080134D01*
X143925986Y-127265706D01*
X144183966Y-127403599D01*
X144463889Y-127488513D01*
X144682050Y-127510000D01*
X144827950Y-127510000D01*
X145046111Y-127488513D01*
X145326034Y-127403599D01*
X145584014Y-127265706D01*
X145810134Y-127080134D01*
X145995706Y-126854014D01*
X146025000Y-126799209D01*
X146054294Y-126854014D01*
X146239866Y-127080134D01*
X146465986Y-127265706D01*
X146723966Y-127403599D01*
X147003889Y-127488513D01*
X147222050Y-127510000D01*
X147367950Y-127510000D01*
X147586111Y-127488513D01*
X147866034Y-127403599D01*
X148124014Y-127265706D01*
X148350134Y-127080134D01*
X148535706Y-126854014D01*
X148565000Y-126799209D01*
X148594294Y-126854014D01*
X148779866Y-127080134D01*
X149005986Y-127265706D01*
X149263966Y-127403599D01*
X149543889Y-127488513D01*
X149762050Y-127510000D01*
X149907950Y-127510000D01*
X150126111Y-127488513D01*
X150406034Y-127403599D01*
X150664014Y-127265706D01*
X150890134Y-127080134D01*
X151075706Y-126854014D01*
X151213599Y-126596034D01*
X151298513Y-126316111D01*
X151316657Y-126131890D01*
X153538524Y-126131890D01*
X153583175Y-126279099D01*
X153708359Y-126541920D01*
X153882412Y-126775269D01*
X154098645Y-126970178D01*
X154348748Y-127119157D01*
X154623109Y-127216481D01*
X154853000Y-127095814D01*
X154853000Y-125902000D01*
X155107000Y-125902000D01*
X155107000Y-127095814D01*
X155336891Y-127216481D01*
X155611252Y-127119157D01*
X155861355Y-126970178D01*
X156077588Y-126775269D01*
X156251641Y-126541920D01*
X156376825Y-126279099D01*
X156421476Y-126131890D01*
X156300155Y-125902000D01*
X155107000Y-125902000D01*
X154853000Y-125902000D01*
X153659845Y-125902000D01*
X153538524Y-126131890D01*
X151316657Y-126131890D01*
X151327185Y-126025000D01*
X151298513Y-125733889D01*
X151284026Y-125686131D01*
X153491928Y-123478229D01*
X153491928Y-124085000D01*
X153504188Y-124209482D01*
X153540498Y-124329180D01*
X153599463Y-124439494D01*
X153678815Y-124536185D01*
X153775506Y-124615537D01*
X153885820Y-124674502D01*
X153966466Y-124698966D01*
X153882412Y-124774731D01*
X153708359Y-125008080D01*
X153583175Y-125270901D01*
X153538524Y-125418110D01*
X153659845Y-125648000D01*
X154853000Y-125648000D01*
X154853000Y-125628000D01*
X155107000Y-125628000D01*
X155107000Y-125648000D01*
X156300155Y-125648000D01*
X156421476Y-125418110D01*
X156376825Y-125270901D01*
X156251641Y-125008080D01*
X156077588Y-124774731D01*
X155993534Y-124698966D01*
X156074180Y-124674502D01*
X156184494Y-124615537D01*
X156281185Y-124536185D01*
X156360537Y-124439494D01*
X156419502Y-124329180D01*
X156455812Y-124209482D01*
X156468072Y-124085000D01*
X156468072Y-122385000D01*
X156455812Y-122260518D01*
X156419502Y-122140820D01*
X156360537Y-122030506D01*
X156281185Y-121933815D01*
X156227127Y-121889451D01*
X157264281Y-120852298D01*
X157353817Y-120778817D01*
X157381534Y-120745044D01*
X157640000Y-120486578D01*
X157640000Y-126167721D01*
X157592330Y-126653894D01*
X157460512Y-127090497D01*
X157246399Y-127493186D01*
X156958150Y-127846613D01*
X156606739Y-128137327D01*
X156205564Y-128354240D01*
X155769886Y-128489106D01*
X155286180Y-128539946D01*
X148444999Y-128514886D01*
X148412401Y-128517976D01*
X148388479Y-128517809D01*
X148379308Y-128518709D01*
X147636888Y-128596741D01*
X147578319Y-128608764D01*
X147519532Y-128619977D01*
X147510710Y-128622641D01*
X146797586Y-128843389D01*
X146742423Y-128866577D01*
X146686977Y-128888979D01*
X146678841Y-128893305D01*
X146022175Y-129248363D01*
X145972591Y-129281808D01*
X145922528Y-129314568D01*
X145915387Y-129320392D01*
X145340192Y-129796235D01*
X145298052Y-129838671D01*
X145255302Y-129880534D01*
X145249429Y-129887635D01*
X144777613Y-130466137D01*
X144744531Y-130515930D01*
X144710713Y-130565319D01*
X144706331Y-130573426D01*
X144355866Y-131232555D01*
X144333070Y-131287863D01*
X144309505Y-131342843D01*
X144306780Y-131351646D01*
X144091016Y-132066294D01*
X144079399Y-132124967D01*
X144066960Y-132183484D01*
X144065997Y-132192649D01*
X143993150Y-132935595D01*
X143993150Y-132938410D01*
X143992265Y-132944618D01*
X143922614Y-133771727D01*
X143722852Y-134516544D01*
X143394353Y-135214213D01*
X142947505Y-135842675D01*
X142396418Y-136382085D01*
X141758524Y-136815377D01*
X141053987Y-137128858D01*
X140305060Y-137312625D01*
X139535439Y-137360863D01*
X138769434Y-137272050D01*
X138031262Y-137048993D01*
X137344259Y-136698743D01*
X136730134Y-136232369D01*
X136208305Y-135664615D01*
X135795262Y-135013425D01*
X135504066Y-134299386D01*
X135341920Y-133535666D01*
X135309931Y-133004006D01*
X135309903Y-132995998D01*
X135306990Y-132967313D01*
X135307191Y-132938479D01*
X135306291Y-132929308D01*
X135283589Y-132713305D01*
X136485313Y-132713305D01*
X136485313Y-133336695D01*
X136606930Y-133948105D01*
X136845490Y-134524042D01*
X137191827Y-135042371D01*
X137632629Y-135483173D01*
X138150958Y-135829510D01*
X138726895Y-136068070D01*
X139338305Y-136189687D01*
X139961695Y-136189687D01*
X140573105Y-136068070D01*
X141149042Y-135829510D01*
X141667371Y-135483173D01*
X142108173Y-135042371D01*
X142454510Y-134524042D01*
X142693070Y-133948105D01*
X142814687Y-133336695D01*
X142814687Y-132713305D01*
X142693070Y-132101895D01*
X142454510Y-131525958D01*
X142108173Y-131007629D01*
X141667371Y-130566827D01*
X141149042Y-130220490D01*
X140573105Y-129981930D01*
X139961695Y-129860313D01*
X139338305Y-129860313D01*
X138726895Y-129981930D01*
X138150958Y-130220490D01*
X137632629Y-130566827D01*
X137191827Y-131007629D01*
X136845490Y-131525958D01*
X136606930Y-132101895D01*
X136485313Y-132713305D01*
X135283589Y-132713305D01*
X135228259Y-132186888D01*
X135216236Y-132128319D01*
X135205023Y-132069532D01*
X135202359Y-132060710D01*
X134981611Y-131347586D01*
X134958423Y-131292423D01*
X134936021Y-131236977D01*
X134931695Y-131228841D01*
X134576637Y-130572175D01*
X134543192Y-130522591D01*
X134510432Y-130472528D01*
X134504608Y-130465387D01*
X134028765Y-129890192D01*
X133986329Y-129848052D01*
X133944466Y-129805302D01*
X133937365Y-129799429D01*
X133358863Y-129327613D01*
X133309070Y-129294531D01*
X133259681Y-129260713D01*
X133251574Y-129256331D01*
X132592445Y-128905866D01*
X132537137Y-128883070D01*
X132482157Y-128859505D01*
X132473354Y-128856780D01*
X131758706Y-128641016D01*
X131700033Y-128629399D01*
X131641516Y-128616960D01*
X131632351Y-128615997D01*
X130889405Y-128543150D01*
X130889402Y-128543150D01*
X130857419Y-128540000D01*
X123982279Y-128540000D01*
X123496106Y-128492330D01*
X123059503Y-128360512D01*
X122656814Y-128146399D01*
X122303387Y-127858150D01*
X122012673Y-127506739D01*
X121795760Y-127105564D01*
X121660894Y-126669886D01*
X121610000Y-126185664D01*
X121610000Y-124970000D01*
X124831928Y-124970000D01*
X124844188Y-125094482D01*
X124880498Y-125214180D01*
X124939463Y-125324494D01*
X125018815Y-125421185D01*
X125115506Y-125500537D01*
X125225820Y-125559502D01*
X125345518Y-125595812D01*
X125470000Y-125608072D01*
X128384250Y-125605000D01*
X128543000Y-125446250D01*
X128543000Y-122197000D01*
X124993750Y-122197000D01*
X124835000Y-122355750D01*
X124831928Y-124970000D01*
X121610000Y-124970000D01*
X121610000Y-119170000D01*
X124831928Y-119170000D01*
X124835000Y-121784250D01*
X124993750Y-121943000D01*
X128543000Y-121943000D01*
X128543000Y-118693750D01*
X128384250Y-118535000D01*
X125470000Y-118531928D01*
X125345518Y-118544188D01*
X125225820Y-118580498D01*
X125115506Y-118639463D01*
X125018815Y-118718815D01*
X124939463Y-118815506D01*
X124880498Y-118925820D01*
X124844188Y-119045518D01*
X124831928Y-119170000D01*
X121610000Y-119170000D01*
X121610000Y-105173714D01*
X121640223Y-105203937D01*
X121809741Y-105317205D01*
X121998099Y-105395226D01*
X122198058Y-105435000D01*
X122269574Y-105435000D01*
X122276358Y-105503885D01*
X122321245Y-105651858D01*
X122321246Y-105651859D01*
X122394138Y-105788232D01*
X122434689Y-105837643D01*
X122467654Y-105877811D01*
X122467658Y-105877815D01*
X122492236Y-105907763D01*
X122522184Y-105932341D01*
X122800974Y-106211131D01*
X122786487Y-106258889D01*
X122757815Y-106550000D01*
X122786487Y-106841111D01*
X122871401Y-107121034D01*
X123009294Y-107379014D01*
X123194866Y-107605134D01*
X123420986Y-107790706D01*
X123475791Y-107820000D01*
X123420986Y-107849294D01*
X123194866Y-108034866D01*
X123009294Y-108260986D01*
X122871401Y-108518966D01*
X122786487Y-108798889D01*
X122757815Y-109090000D01*
X122786487Y-109381111D01*
X122871401Y-109661034D01*
X123009294Y-109919014D01*
X123194866Y-110145134D01*
X123420986Y-110330706D01*
X123475791Y-110360000D01*
X123420986Y-110389294D01*
X123194866Y-110574866D01*
X123009294Y-110800986D01*
X122871401Y-111058966D01*
X122786487Y-111338889D01*
X122757815Y-111630000D01*
X122786487Y-111921111D01*
X122871401Y-112201034D01*
X123009294Y-112459014D01*
X123194866Y-112685134D01*
X123420986Y-112870706D01*
X123475791Y-112900000D01*
X123420986Y-112929294D01*
X123194866Y-113114866D01*
X123009294Y-113340986D01*
X122871401Y-113598966D01*
X122786487Y-113878889D01*
X122757815Y-114170000D01*
X122786487Y-114461111D01*
X122871401Y-114741034D01*
X123009294Y-114999014D01*
X123194866Y-115225134D01*
X123420986Y-115410706D01*
X123678966Y-115548599D01*
X123958889Y-115633513D01*
X124177050Y-115655000D01*
X124322950Y-115655000D01*
X124541111Y-115633513D01*
X124821034Y-115548599D01*
X125079014Y-115410706D01*
X125305134Y-115225134D01*
X125490706Y-114999014D01*
X125511559Y-114960000D01*
X131216483Y-114960000D01*
X131255036Y-114963797D01*
X131293589Y-114960000D01*
X131293597Y-114960000D01*
X131408923Y-114948641D01*
X131556896Y-114903754D01*
X131693269Y-114830862D01*
X131812800Y-114732764D01*
X131837383Y-114702810D01*
X134530194Y-112010000D01*
X135024418Y-112010000D01*
X135012085Y-112039774D01*
X134964625Y-112278373D01*
X134964625Y-112521647D01*
X135012085Y-112760246D01*
X135105182Y-112985002D01*
X135240338Y-113187277D01*
X135314625Y-113261564D01*
X135314626Y-115101052D01*
X135310344Y-115144531D01*
X135327430Y-115318021D01*
X135378037Y-115484844D01*
X135460215Y-115638590D01*
X135543093Y-115739577D01*
X135543096Y-115739580D01*
X135570809Y-115773348D01*
X135604577Y-115801061D01*
X135735010Y-115931494D01*
X135735010Y-116405740D01*
X135672000Y-116468750D01*
X135672000Y-117293000D01*
X135692000Y-117293000D01*
X135692000Y-117547000D01*
X135672000Y-117547000D01*
X135672000Y-118371250D01*
X135735010Y-118434260D01*
X135735010Y-118551928D01*
X134983506Y-118551928D01*
X134958604Y-118527025D01*
X135020000Y-118533072D01*
X135259250Y-118530000D01*
X135418000Y-118371250D01*
X135418000Y-117547000D01*
X135398000Y-117547000D01*
X135398000Y-117293000D01*
X135418000Y-117293000D01*
X135418000Y-116468750D01*
X135259250Y-116310000D01*
X135020000Y-116306928D01*
X134895518Y-116319188D01*
X134775820Y-116355498D01*
X134665506Y-116414463D01*
X134592839Y-116474099D01*
X134568942Y-116454488D01*
X134417567Y-116373577D01*
X134253316Y-116323752D01*
X134082500Y-116306928D01*
X133743104Y-116306928D01*
X133764443Y-116274992D01*
X133857540Y-116050236D01*
X133905000Y-115811637D01*
X133905000Y-115568363D01*
X133857540Y-115329764D01*
X133764443Y-115105008D01*
X133629287Y-114902733D01*
X133457267Y-114730713D01*
X133254992Y-114595557D01*
X133030236Y-114502460D01*
X132791637Y-114455000D01*
X132548363Y-114455000D01*
X132309764Y-114502460D01*
X132085008Y-114595557D01*
X131882733Y-114730713D01*
X131710713Y-114902733D01*
X131575557Y-115105008D01*
X131482460Y-115329764D01*
X131435000Y-115568363D01*
X131435000Y-115811637D01*
X131482460Y-116050236D01*
X131575557Y-116274992D01*
X131710713Y-116477267D01*
X131771544Y-116538098D01*
X131760686Y-117228112D01*
X131760001Y-117235062D01*
X131760001Y-117271608D01*
X131759427Y-117308083D01*
X131760001Y-117315030D01*
X131760001Y-118532044D01*
X128955750Y-118535000D01*
X128797000Y-118693750D01*
X128797000Y-121943000D01*
X128817000Y-121943000D01*
X128817000Y-122197000D01*
X128797000Y-122197000D01*
X128797000Y-125446250D01*
X128955750Y-125605000D01*
X131870000Y-125608072D01*
X131994482Y-125595812D01*
X132114180Y-125559502D01*
X132224494Y-125500537D01*
X132321185Y-125421185D01*
X132400537Y-125324494D01*
X132459502Y-125214180D01*
X132495812Y-125094482D01*
X132508072Y-124970000D01*
X132507801Y-124739380D01*
X132560000Y-124791579D01*
X132560001Y-125666263D01*
X132492038Y-125722038D01*
X132381595Y-125856613D01*
X132299528Y-126010149D01*
X132248992Y-126176745D01*
X132231928Y-126349999D01*
X132231928Y-127250001D01*
X132248992Y-127423255D01*
X132299528Y-127589851D01*
X132381595Y-127743387D01*
X132492038Y-127877962D01*
X132626613Y-127988405D01*
X132780149Y-128070472D01*
X132946745Y-128121008D01*
X133119999Y-128138072D01*
X133770001Y-128138072D01*
X133943255Y-128121008D01*
X134109851Y-128070472D01*
X134263387Y-127988405D01*
X134397962Y-127877962D01*
X134403342Y-127871406D01*
X134468815Y-127951185D01*
X134565506Y-128030537D01*
X134675820Y-128089502D01*
X134795518Y-128125812D01*
X134920000Y-128138072D01*
X135209250Y-128135000D01*
X135368000Y-127976250D01*
X135368000Y-126927000D01*
X135622000Y-126927000D01*
X135622000Y-127976250D01*
X135780750Y-128135000D01*
X136070000Y-128138072D01*
X136194482Y-128125812D01*
X136314180Y-128089502D01*
X136424494Y-128030537D01*
X136521185Y-127951185D01*
X136600537Y-127854494D01*
X136659502Y-127744180D01*
X136695812Y-127624482D01*
X136708072Y-127500000D01*
X136705000Y-127085750D01*
X136546250Y-126927000D01*
X135622000Y-126927000D01*
X135368000Y-126927000D01*
X135348000Y-126927000D01*
X135348000Y-126673000D01*
X135368000Y-126673000D01*
X135368000Y-126653000D01*
X135622000Y-126653000D01*
X135622000Y-126673000D01*
X136546250Y-126673000D01*
X136705000Y-126514250D01*
X136708072Y-126100000D01*
X136695812Y-125975518D01*
X136659502Y-125855820D01*
X136600537Y-125745506D01*
X136521185Y-125648815D01*
X136424494Y-125569463D01*
X136341311Y-125525000D01*
X136424494Y-125480537D01*
X136521185Y-125401185D01*
X136600537Y-125304494D01*
X136659502Y-125194180D01*
X136695812Y-125074482D01*
X136708072Y-124950000D01*
X136708072Y-123750000D01*
X136695812Y-123625518D01*
X136659502Y-123505820D01*
X136600537Y-123395506D01*
X136521185Y-123298815D01*
X136442398Y-123234156D01*
X136569287Y-123107267D01*
X136696020Y-122917598D01*
X138444350Y-124665929D01*
X138373815Y-124723815D01*
X138294463Y-124820506D01*
X138235498Y-124930820D01*
X138199188Y-125050518D01*
X138186928Y-125175000D01*
X138186928Y-126875000D01*
X138199188Y-126999482D01*
X138235498Y-127119180D01*
X138294463Y-127229494D01*
X138373815Y-127326185D01*
X138470506Y-127405537D01*
X138580820Y-127464502D01*
X138700518Y-127500812D01*
X138825000Y-127513072D01*
X140525000Y-127513072D01*
X140649482Y-127500812D01*
X140769180Y-127464502D01*
X140879494Y-127405537D01*
X140976185Y-127326185D01*
X141055537Y-127229494D01*
X141114502Y-127119180D01*
X141138966Y-127038534D01*
X141214731Y-127122588D01*
X141448080Y-127296641D01*
X141710901Y-127421825D01*
X141858110Y-127466476D01*
X142088000Y-127345155D01*
X142088000Y-126152000D01*
X142068000Y-126152000D01*
X142068000Y-125898000D01*
X142088000Y-125898000D01*
X142088000Y-124704845D01*
X141858110Y-124583524D01*
X141710901Y-124628175D01*
X141448080Y-124753359D01*
X141214731Y-124927412D01*
X141138966Y-125011466D01*
X141114502Y-124930820D01*
X141055537Y-124820506D01*
X140976185Y-124723815D01*
X140879494Y-124644463D01*
X140769180Y-124585498D01*
X140649482Y-124549188D01*
X140553919Y-124539776D01*
X140547195Y-124471510D01*
X140496589Y-124304687D01*
X140414411Y-124150941D01*
X140303817Y-124016183D01*
X140270050Y-123988471D01*
X137721579Y-121440000D01*
X138121928Y-121440000D01*
X138134188Y-121564482D01*
X138170498Y-121684180D01*
X138229463Y-121794494D01*
X138308815Y-121891185D01*
X138405506Y-121970537D01*
X138515820Y-122029502D01*
X138635518Y-122065812D01*
X138760000Y-122078072D01*
X139324250Y-122075000D01*
X139483000Y-121916250D01*
X139483000Y-120717000D01*
X138283750Y-120717000D01*
X138125000Y-120875750D01*
X138121928Y-121440000D01*
X137721579Y-121440000D01*
X137505010Y-121223432D01*
X137505010Y-119740000D01*
X138121928Y-119740000D01*
X138125000Y-120304250D01*
X138283750Y-120463000D01*
X139483000Y-120463000D01*
X139483000Y-119263750D01*
X139324250Y-119105000D01*
X138760000Y-119101928D01*
X138635518Y-119114188D01*
X138515820Y-119150498D01*
X138405506Y-119209463D01*
X138308815Y-119288815D01*
X138229463Y-119385506D01*
X138170498Y-119495820D01*
X138134188Y-119615518D01*
X138121928Y-119740000D01*
X137505010Y-119740000D01*
X137505010Y-115608381D01*
X137509291Y-115564915D01*
X137505010Y-115521449D01*
X137505010Y-115521439D01*
X137492205Y-115391426D01*
X137441599Y-115224603D01*
X137359421Y-115070857D01*
X137294845Y-114992171D01*
X137464754Y-115062550D01*
X137703353Y-115110010D01*
X137908412Y-115110010D01*
X139413462Y-116615061D01*
X139441175Y-116648829D01*
X139474943Y-116676542D01*
X139474945Y-116676544D01*
X139475062Y-116676640D01*
X141265000Y-118466579D01*
X141265001Y-119395240D01*
X141094866Y-119534866D01*
X141070393Y-119564687D01*
X141049502Y-119495820D01*
X140990537Y-119385506D01*
X140911185Y-119288815D01*
X140814494Y-119209463D01*
X140704180Y-119150498D01*
X140584482Y-119114188D01*
X140460000Y-119101928D01*
X139895750Y-119105000D01*
X139737000Y-119263750D01*
X139737000Y-120463000D01*
X139757000Y-120463000D01*
X139757000Y-120717000D01*
X139737000Y-120717000D01*
X139737000Y-121916250D01*
X139895750Y-122075000D01*
X140460000Y-122078072D01*
X140584482Y-122065812D01*
X140704180Y-122029502D01*
X140814494Y-121970537D01*
X140911185Y-121891185D01*
X140990537Y-121794494D01*
X141049502Y-121684180D01*
X141070393Y-121615313D01*
X141094866Y-121645134D01*
X141320986Y-121830706D01*
X141578966Y-121968599D01*
X141858889Y-122053513D01*
X142077050Y-122075000D01*
X142222950Y-122075000D01*
X142441111Y-122053513D01*
X142721034Y-121968599D01*
X142979014Y-121830706D01*
X143205134Y-121645134D01*
X143390706Y-121419014D01*
X143420000Y-121364209D01*
X143449294Y-121419014D01*
X143634866Y-121645134D01*
X143860986Y-121830706D01*
X144118966Y-121968599D01*
X144398889Y-122053513D01*
X144617050Y-122075000D01*
X144762950Y-122075000D01*
X144981111Y-122053513D01*
X145261034Y-121968599D01*
X145519014Y-121830706D01*
X145745134Y-121645134D01*
X145930706Y-121419014D01*
X145960000Y-121364209D01*
X145989294Y-121419014D01*
X146174866Y-121645134D01*
X146400986Y-121830706D01*
X146658966Y-121968599D01*
X146938889Y-122053513D01*
X147157050Y-122075000D01*
X147302950Y-122075000D01*
X147521111Y-122053513D01*
X147801034Y-121968599D01*
X148059014Y-121830706D01*
X148285134Y-121645134D01*
X148470706Y-121419014D01*
X148500000Y-121364209D01*
X148529294Y-121419014D01*
X148714866Y-121645134D01*
X148940986Y-121830706D01*
X149198966Y-121968599D01*
X149478889Y-122053513D01*
X149697050Y-122075000D01*
X149842950Y-122075000D01*
X150061111Y-122053513D01*
X150341034Y-121968599D01*
X150599014Y-121830706D01*
X150825134Y-121645134D01*
X151010706Y-121419014D01*
X151148599Y-121161034D01*
X151233513Y-120881111D01*
X151262185Y-120590000D01*
X151233513Y-120298889D01*
X151148599Y-120018966D01*
X151010706Y-119760986D01*
X150825134Y-119534866D01*
X150599014Y-119349294D01*
X150341034Y-119211401D01*
X150061111Y-119126487D01*
X149842950Y-119105000D01*
X149697050Y-119105000D01*
X149478889Y-119126487D01*
X149198966Y-119211401D01*
X148940986Y-119349294D01*
X148714866Y-119534866D01*
X148529294Y-119760986D01*
X148500000Y-119815791D01*
X148470706Y-119760986D01*
X148285134Y-119534866D01*
X148059014Y-119349294D01*
X147801034Y-119211401D01*
X147521111Y-119126487D01*
X147302950Y-119105000D01*
X147157050Y-119105000D01*
X146938889Y-119126487D01*
X146658966Y-119211401D01*
X146400986Y-119349294D01*
X146174866Y-119534866D01*
X145989294Y-119760986D01*
X145960000Y-119815791D01*
X145930706Y-119760986D01*
X145745134Y-119534866D01*
X145519014Y-119349294D01*
X145261034Y-119211401D01*
X144981111Y-119126487D01*
X144762950Y-119105000D01*
X144617050Y-119105000D01*
X144398889Y-119126487D01*
X144118966Y-119211401D01*
X143860986Y-119349294D01*
X143634866Y-119534866D01*
X143449294Y-119760986D01*
X143420000Y-119815791D01*
X143390706Y-119760986D01*
X143205134Y-119534866D01*
X143035000Y-119395241D01*
X143035000Y-118143465D01*
X143039281Y-118099999D01*
X143035000Y-118056533D01*
X143035000Y-118056523D01*
X143022195Y-117926510D01*
X142971589Y-117759687D01*
X142889411Y-117605941D01*
X142778817Y-117471183D01*
X142745050Y-117443471D01*
X141406579Y-116105001D01*
X149583448Y-116105001D01*
X149622001Y-116108798D01*
X149660554Y-116105001D01*
X149660562Y-116105001D01*
X149775888Y-116093642D01*
X149923861Y-116048755D01*
X150060234Y-115975863D01*
X150179765Y-115877765D01*
X150204348Y-115847811D01*
X150747812Y-115304347D01*
X150777765Y-115279765D01*
X150875863Y-115160234D01*
X150948755Y-115023861D01*
X150965133Y-114969870D01*
X150993643Y-114875888D01*
X151004836Y-114762237D01*
X151005001Y-114760562D01*
X151005001Y-114760557D01*
X151008798Y-114722001D01*
X151005001Y-114683445D01*
X151005001Y-109426890D01*
X153528524Y-109426890D01*
X153573175Y-109574099D01*
X153698359Y-109836920D01*
X153872412Y-110070269D01*
X154088645Y-110265178D01*
X154214255Y-110340000D01*
X154088645Y-110414822D01*
X153872412Y-110609731D01*
X153698359Y-110843080D01*
X153573175Y-111105901D01*
X153528524Y-111253110D01*
X153649845Y-111483000D01*
X154843000Y-111483000D01*
X154843000Y-109197000D01*
X155097000Y-109197000D01*
X155097000Y-111483000D01*
X156290155Y-111483000D01*
X156411476Y-111253110D01*
X156366825Y-111105901D01*
X156241641Y-110843080D01*
X156067588Y-110609731D01*
X155851355Y-110414822D01*
X155725745Y-110340000D01*
X155851355Y-110265178D01*
X156067588Y-110070269D01*
X156241641Y-109836920D01*
X156366825Y-109574099D01*
X156411476Y-109426890D01*
X156290155Y-109197000D01*
X155097000Y-109197000D01*
X154843000Y-109197000D01*
X153649845Y-109197000D01*
X153528524Y-109426890D01*
X151005001Y-109426890D01*
X151005001Y-106886890D01*
X153528524Y-106886890D01*
X153573175Y-107034099D01*
X153698359Y-107296920D01*
X153872412Y-107530269D01*
X154088645Y-107725178D01*
X154214255Y-107800000D01*
X154088645Y-107874822D01*
X153872412Y-108069731D01*
X153698359Y-108303080D01*
X153573175Y-108565901D01*
X153528524Y-108713110D01*
X153649845Y-108943000D01*
X154843000Y-108943000D01*
X154843000Y-106657000D01*
X155097000Y-106657000D01*
X155097000Y-108943000D01*
X156290155Y-108943000D01*
X156411476Y-108713110D01*
X156366825Y-108565901D01*
X156241641Y-108303080D01*
X156067588Y-108069731D01*
X155851355Y-107874822D01*
X155725745Y-107800000D01*
X155851355Y-107725178D01*
X156067588Y-107530269D01*
X156241641Y-107296920D01*
X156366825Y-107034099D01*
X156411476Y-106886890D01*
X156290155Y-106657000D01*
X155097000Y-106657000D01*
X154843000Y-106657000D01*
X153649845Y-106657000D01*
X153528524Y-106886890D01*
X151005001Y-106886890D01*
X151005001Y-105198557D01*
X151008798Y-105160001D01*
X151005001Y-105121445D01*
X151005001Y-105121440D01*
X150999187Y-105062408D01*
X150993643Y-105006114D01*
X150948755Y-104858141D01*
X150940253Y-104842235D01*
X150875863Y-104721768D01*
X150777765Y-104602237D01*
X150747806Y-104577650D01*
X150474554Y-104304397D01*
X150505000Y-104151335D01*
X150505000Y-103868665D01*
X150449853Y-103591426D01*
X150341680Y-103330273D01*
X150184637Y-103095241D01*
X149984759Y-102895363D01*
X149752241Y-102740000D01*
X149984759Y-102584637D01*
X150184637Y-102384759D01*
X150204521Y-102355000D01*
X153791654Y-102355000D01*
X153914866Y-102505134D01*
X154085000Y-102644760D01*
X154085001Y-102795240D01*
X153914866Y-102934866D01*
X153729294Y-103160986D01*
X153591401Y-103418966D01*
X153506487Y-103698889D01*
X153477815Y-103990000D01*
X153506487Y-104281111D01*
X153591401Y-104561034D01*
X153729294Y-104819014D01*
X153914866Y-105045134D01*
X154140986Y-105230706D01*
X154205523Y-105265201D01*
X154088645Y-105334822D01*
X153872412Y-105529731D01*
X153698359Y-105763080D01*
X153573175Y-106025901D01*
X153528524Y-106173110D01*
X153649845Y-106403000D01*
X154843000Y-106403000D01*
X154843000Y-106383000D01*
X155097000Y-106383000D01*
X155097000Y-106403000D01*
X156290155Y-106403000D01*
X156411476Y-106173110D01*
X156366825Y-106025901D01*
X156241641Y-105763080D01*
X156067588Y-105529731D01*
X155851355Y-105334822D01*
X155734477Y-105265201D01*
X155799014Y-105230706D01*
X156025134Y-105045134D01*
X156210706Y-104819014D01*
X156348599Y-104561034D01*
X156433513Y-104281111D01*
X156462185Y-103990000D01*
X156433513Y-103698889D01*
X156348599Y-103418966D01*
X156210706Y-103160986D01*
X156025134Y-102934866D01*
X155855000Y-102795241D01*
X155855000Y-102644759D01*
X156025134Y-102505134D01*
X156210706Y-102279014D01*
X156348599Y-102021034D01*
X156433513Y-101741111D01*
X156443915Y-101635494D01*
X156565000Y-101756579D01*
G36*
X153729294Y-94659014D02*
G01*
X153914866Y-94885134D01*
X154140986Y-95070706D01*
X154195791Y-95100000D01*
X154140986Y-95129294D01*
X153914866Y-95314866D01*
X153729294Y-95540986D01*
X153591401Y-95798966D01*
X153506487Y-96078889D01*
X153477815Y-96370000D01*
X153506487Y-96661111D01*
X153520974Y-96708869D01*
X152864547Y-97365297D01*
X152726250Y-97227000D01*
X151902000Y-97227000D01*
X151902000Y-97247000D01*
X151648000Y-97247000D01*
X151648000Y-97227000D01*
X150823750Y-97227000D01*
X150665000Y-97385750D01*
X150661928Y-97625000D01*
X150674188Y-97749482D01*
X150710498Y-97869180D01*
X150769463Y-97979494D01*
X150829099Y-98052161D01*
X150809488Y-98076058D01*
X150772638Y-98145000D01*
X150271339Y-98145000D01*
X150184637Y-98015241D01*
X149984759Y-97815363D01*
X149750872Y-97659085D01*
X149811514Y-97626671D01*
X149883097Y-97382702D01*
X149070000Y-96569605D01*
X148256903Y-97382702D01*
X148328486Y-97626671D01*
X148392992Y-97657194D01*
X148390273Y-97658320D01*
X148155241Y-97815363D01*
X147955363Y-98015241D01*
X147798320Y-98250273D01*
X147690147Y-98511426D01*
X147635000Y-98788665D01*
X147635000Y-99071335D01*
X147690147Y-99348574D01*
X147798320Y-99609727D01*
X147915434Y-99785001D01*
X147889493Y-99785001D01*
X145965988Y-97861496D01*
X146101332Y-97917558D01*
X146301291Y-97957332D01*
X146505169Y-97957332D01*
X146705128Y-97917558D01*
X146893486Y-97839537D01*
X147063004Y-97726269D01*
X147207167Y-97582106D01*
X147320435Y-97412588D01*
X147398456Y-97224230D01*
X147438230Y-97024271D01*
X147438230Y-96820393D01*
X147398456Y-96620434D01*
X147320435Y-96432076D01*
X147207167Y-96262558D01*
X147063004Y-96118395D01*
X146893486Y-96005127D01*
X146705128Y-95927106D01*
X146505169Y-95887332D01*
X146301291Y-95887332D01*
X146101332Y-95927106D01*
X145912974Y-96005127D01*
X145743456Y-96118395D01*
X145724519Y-96137332D01*
X145090367Y-96137332D01*
X144768036Y-95815001D01*
X147754539Y-95815001D01*
X147712429Y-95903996D01*
X147643700Y-96178184D01*
X147629783Y-96460512D01*
X147671213Y-96740130D01*
X147766397Y-97006292D01*
X147833329Y-97131514D01*
X148077298Y-97203097D01*
X148890395Y-96390000D01*
X148876253Y-96375858D01*
X149055858Y-96196253D01*
X149070000Y-96210395D01*
X149084143Y-96196253D01*
X149263748Y-96375858D01*
X149249605Y-96390000D01*
X150062702Y-97203097D01*
X150306671Y-97131514D01*
X150427571Y-96876004D01*
X150496300Y-96601816D01*
X150497621Y-96575000D01*
X150661928Y-96575000D01*
X150665000Y-96814250D01*
X150823750Y-96973000D01*
X151648000Y-96973000D01*
X151648000Y-96098750D01*
X151489250Y-95940000D01*
X151300000Y-95936928D01*
X151175518Y-95949188D01*
X151055820Y-95985498D01*
X150945506Y-96044463D01*
X150848815Y-96123815D01*
X150769463Y-96220506D01*
X150710498Y-96330820D01*
X150674188Y-96450518D01*
X150661928Y-96575000D01*
X150497621Y-96575000D01*
X150510217Y-96319488D01*
X150468787Y-96039870D01*
X150388370Y-95815001D01*
X151691288Y-95815001D01*
X151710225Y-95833938D01*
X151879743Y-95947206D01*
X152002639Y-95998111D01*
X151902000Y-96098750D01*
X151902000Y-96973000D01*
X152726250Y-96973000D01*
X152885000Y-96814250D01*
X152888072Y-96575000D01*
X152875812Y-96450518D01*
X152839502Y-96330820D01*
X152780537Y-96220506D01*
X152701185Y-96123815D01*
X152604494Y-96044463D01*
X152596547Y-96040215D01*
X152671897Y-96025227D01*
X152860255Y-95947206D01*
X153029773Y-95833938D01*
X153173936Y-95689775D01*
X153287204Y-95520257D01*
X153365225Y-95331899D01*
X153404999Y-95131940D01*
X153404999Y-94928062D01*
X153365225Y-94728103D01*
X153326660Y-94635000D01*
X153716458Y-94635000D01*
X153729294Y-94659014D01*
X153729294Y-94659014D01*
G37*
X153729294Y-94659014D02*
X153914866Y-94885134D01*
X154140986Y-95070706D01*
X154195791Y-95100000D01*
X154140986Y-95129294D01*
X153914866Y-95314866D01*
X153729294Y-95540986D01*
X153591401Y-95798966D01*
X153506487Y-96078889D01*
X153477815Y-96370000D01*
X153506487Y-96661111D01*
X153520974Y-96708869D01*
X152864547Y-97365297D01*
X152726250Y-97227000D01*
X151902000Y-97227000D01*
X151902000Y-97247000D01*
X151648000Y-97247000D01*
X151648000Y-97227000D01*
X150823750Y-97227000D01*
X150665000Y-97385750D01*
X150661928Y-97625000D01*
X150674188Y-97749482D01*
X150710498Y-97869180D01*
X150769463Y-97979494D01*
X150829099Y-98052161D01*
X150809488Y-98076058D01*
X150772638Y-98145000D01*
X150271339Y-98145000D01*
X150184637Y-98015241D01*
X149984759Y-97815363D01*
X149750872Y-97659085D01*
X149811514Y-97626671D01*
X149883097Y-97382702D01*
X149070000Y-96569605D01*
X148256903Y-97382702D01*
X148328486Y-97626671D01*
X148392992Y-97657194D01*
X148390273Y-97658320D01*
X148155241Y-97815363D01*
X147955363Y-98015241D01*
X147798320Y-98250273D01*
X147690147Y-98511426D01*
X147635000Y-98788665D01*
X147635000Y-99071335D01*
X147690147Y-99348574D01*
X147798320Y-99609727D01*
X147915434Y-99785001D01*
X147889493Y-99785001D01*
X145965988Y-97861496D01*
X146101332Y-97917558D01*
X146301291Y-97957332D01*
X146505169Y-97957332D01*
X146705128Y-97917558D01*
X146893486Y-97839537D01*
X147063004Y-97726269D01*
X147207167Y-97582106D01*
X147320435Y-97412588D01*
X147398456Y-97224230D01*
X147438230Y-97024271D01*
X147438230Y-96820393D01*
X147398456Y-96620434D01*
X147320435Y-96432076D01*
X147207167Y-96262558D01*
X147063004Y-96118395D01*
X146893486Y-96005127D01*
X146705128Y-95927106D01*
X146505169Y-95887332D01*
X146301291Y-95887332D01*
X146101332Y-95927106D01*
X145912974Y-96005127D01*
X145743456Y-96118395D01*
X145724519Y-96137332D01*
X145090367Y-96137332D01*
X144768036Y-95815001D01*
X147754539Y-95815001D01*
X147712429Y-95903996D01*
X147643700Y-96178184D01*
X147629783Y-96460512D01*
X147671213Y-96740130D01*
X147766397Y-97006292D01*
X147833329Y-97131514D01*
X148077298Y-97203097D01*
X148890395Y-96390000D01*
X148876253Y-96375858D01*
X149055858Y-96196253D01*
X149070000Y-96210395D01*
X149084143Y-96196253D01*
X149263748Y-96375858D01*
X149249605Y-96390000D01*
X150062702Y-97203097D01*
X150306671Y-97131514D01*
X150427571Y-96876004D01*
X150496300Y-96601816D01*
X150497621Y-96575000D01*
X150661928Y-96575000D01*
X150665000Y-96814250D01*
X150823750Y-96973000D01*
X151648000Y-96973000D01*
X151648000Y-96098750D01*
X151489250Y-95940000D01*
X151300000Y-95936928D01*
X151175518Y-95949188D01*
X151055820Y-95985498D01*
X150945506Y-96044463D01*
X150848815Y-96123815D01*
X150769463Y-96220506D01*
X150710498Y-96330820D01*
X150674188Y-96450518D01*
X150661928Y-96575000D01*
X150497621Y-96575000D01*
X150510217Y-96319488D01*
X150468787Y-96039870D01*
X150388370Y-95815001D01*
X151691288Y-95815001D01*
X151710225Y-95833938D01*
X151879743Y-95947206D01*
X152002639Y-95998111D01*
X151902000Y-96098750D01*
X151902000Y-96973000D01*
X152726250Y-96973000D01*
X152885000Y-96814250D01*
X152888072Y-96575000D01*
X152875812Y-96450518D01*
X152839502Y-96330820D01*
X152780537Y-96220506D01*
X152701185Y-96123815D01*
X152604494Y-96044463D01*
X152596547Y-96040215D01*
X152671897Y-96025227D01*
X152860255Y-95947206D01*
X153029773Y-95833938D01*
X153173936Y-95689775D01*
X153287204Y-95520257D01*
X153365225Y-95331899D01*
X153404999Y-95131940D01*
X153404999Y-94928062D01*
X153365225Y-94728103D01*
X153326660Y-94635000D01*
X153716458Y-94635000D01*
X153729294Y-94659014D01*
G36*
X140335363Y-97304759D02*
G01*
X140535241Y-97504637D01*
X140769128Y-97660915D01*
X140708486Y-97693329D01*
X140636903Y-97937298D01*
X141450000Y-98750395D01*
X142263097Y-97937298D01*
X142191514Y-97693329D01*
X142127008Y-97662806D01*
X142129727Y-97661680D01*
X142364759Y-97504637D01*
X142564637Y-97304759D01*
X142584521Y-97275000D01*
X142876335Y-97275000D01*
X145136333Y-99534999D01*
X142751266Y-99534999D01*
X142807571Y-99416004D01*
X142876300Y-99141816D01*
X142890217Y-98859488D01*
X142848787Y-98579870D01*
X142753603Y-98313708D01*
X142686671Y-98188486D01*
X142442702Y-98116903D01*
X141629605Y-98930000D01*
X141643748Y-98944143D01*
X141464143Y-99123748D01*
X141450000Y-99109605D01*
X141435858Y-99123748D01*
X141256253Y-98944143D01*
X141270395Y-98930000D01*
X140457298Y-98116903D01*
X140213329Y-98188486D01*
X140092429Y-98443996D01*
X140023700Y-98718184D01*
X140009783Y-99000512D01*
X140051213Y-99280130D01*
X140142358Y-99534999D01*
X140095156Y-99534999D01*
X139255660Y-98695503D01*
X139228754Y-98606805D01*
X139177601Y-98511104D01*
X139155862Y-98470432D01*
X139093249Y-98394139D01*
X139082345Y-98380852D01*
X139082342Y-98380849D01*
X139057764Y-98350901D01*
X139027816Y-98326323D01*
X137976492Y-97275000D01*
X140315479Y-97275000D01*
X140335363Y-97304759D01*
X140335363Y-97304759D01*
G37*
X140335363Y-97304759D02*
X140535241Y-97504637D01*
X140769128Y-97660915D01*
X140708486Y-97693329D01*
X140636903Y-97937298D01*
X141450000Y-98750395D01*
X142263097Y-97937298D01*
X142191514Y-97693329D01*
X142127008Y-97662806D01*
X142129727Y-97661680D01*
X142364759Y-97504637D01*
X142564637Y-97304759D01*
X142584521Y-97275000D01*
X142876335Y-97275000D01*
X145136333Y-99534999D01*
X142751266Y-99534999D01*
X142807571Y-99416004D01*
X142876300Y-99141816D01*
X142890217Y-98859488D01*
X142848787Y-98579870D01*
X142753603Y-98313708D01*
X142686671Y-98188486D01*
X142442702Y-98116903D01*
X141629605Y-98930000D01*
X141643748Y-98944143D01*
X141464143Y-99123748D01*
X141450000Y-99109605D01*
X141435858Y-99123748D01*
X141256253Y-98944143D01*
X141270395Y-98930000D01*
X140457298Y-98116903D01*
X140213329Y-98188486D01*
X140092429Y-98443996D01*
X140023700Y-98718184D01*
X140009783Y-99000512D01*
X140051213Y-99280130D01*
X140142358Y-99534999D01*
X140095156Y-99534999D01*
X139255660Y-98695503D01*
X139228754Y-98606805D01*
X139177601Y-98511104D01*
X139155862Y-98470432D01*
X139093249Y-98394139D01*
X139082345Y-98380852D01*
X139082342Y-98380849D01*
X139057764Y-98350901D01*
X139027816Y-98326323D01*
X137976492Y-97275000D01*
X140315479Y-97275000D01*
X140335363Y-97304759D01*
G36*
X129527000Y-88033000D02*
G01*
X129547000Y-88033000D01*
X129547000Y-88287000D01*
X129527000Y-88287000D01*
X129527000Y-88307000D01*
X129273000Y-88307000D01*
X129273000Y-88287000D01*
X129253000Y-88287000D01*
X129253000Y-88033000D01*
X129273000Y-88033000D01*
X129273000Y-88013000D01*
X129527000Y-88013000D01*
X129527000Y-88033000D01*
X129527000Y-88033000D01*
G37*
X129527000Y-88033000D02*
X129547000Y-88033000D01*
X129547000Y-88287000D01*
X129527000Y-88287000D01*
X129527000Y-88307000D01*
X129273000Y-88307000D01*
X129273000Y-88287000D01*
X129253000Y-88287000D01*
X129253000Y-88033000D01*
X129273000Y-88033000D01*
X129273000Y-88013000D01*
X129527000Y-88013000D01*
X129527000Y-88033000D01*
G36*
X127076775Y-84588129D02*
G01*
X127198530Y-84804200D01*
X128304000Y-84804200D01*
X128304000Y-84784200D01*
X128558000Y-84784200D01*
X128558000Y-84804200D01*
X129663470Y-84804200D01*
X129785225Y-84588129D01*
X129744405Y-84475000D01*
X131630726Y-84475000D01*
X131575414Y-84657340D01*
X131548441Y-84931200D01*
X131575414Y-85205060D01*
X131648199Y-85445000D01*
X129723621Y-85445000D01*
X129785225Y-85274271D01*
X129663470Y-85058200D01*
X128558000Y-85058200D01*
X128558000Y-85078200D01*
X128304000Y-85078200D01*
X128304000Y-85058200D01*
X127198530Y-85058200D01*
X127076775Y-85274271D01*
X127138379Y-85445000D01*
X125514232Y-85445000D01*
X125490706Y-85400986D01*
X125305134Y-85174866D01*
X125079014Y-84989294D01*
X125024209Y-84960000D01*
X125079014Y-84930706D01*
X125305134Y-84745134D01*
X125490706Y-84519014D01*
X125514232Y-84475000D01*
X127117595Y-84475000D01*
X127076775Y-84588129D01*
X127076775Y-84588129D01*
G37*
X127076775Y-84588129D02*
X127198530Y-84804200D01*
X128304000Y-84804200D01*
X128304000Y-84784200D01*
X128558000Y-84784200D01*
X128558000Y-84804200D01*
X129663470Y-84804200D01*
X129785225Y-84588129D01*
X129744405Y-84475000D01*
X131630726Y-84475000D01*
X131575414Y-84657340D01*
X131548441Y-84931200D01*
X131575414Y-85205060D01*
X131648199Y-85445000D01*
X129723621Y-85445000D01*
X129785225Y-85274271D01*
X129663470Y-85058200D01*
X128558000Y-85058200D01*
X128558000Y-85078200D01*
X128304000Y-85078200D01*
X128304000Y-85058200D01*
X127198530Y-85058200D01*
X127076775Y-85274271D01*
X127138379Y-85445000D01*
X125514232Y-85445000D01*
X125490706Y-85400986D01*
X125305134Y-85174866D01*
X125079014Y-84989294D01*
X125024209Y-84960000D01*
X125079014Y-84930706D01*
X125305134Y-84745134D01*
X125490706Y-84519014D01*
X125514232Y-84475000D01*
X127117595Y-84475000D01*
X127076775Y-84588129D01*
G36*
X127213750Y-68789250D02*
G01*
X127372500Y-68948000D01*
X128571750Y-68948000D01*
X128571750Y-68928000D01*
X128825750Y-68928000D01*
X128825750Y-68948000D01*
X130025000Y-68948000D01*
X130183750Y-68789250D01*
X130184998Y-68559999D01*
X131636252Y-68559999D01*
X131637500Y-68789250D01*
X131796250Y-68948000D01*
X132995500Y-68948000D01*
X132995500Y-68928000D01*
X133249500Y-68928000D01*
X133249500Y-68948000D01*
X134448750Y-68948000D01*
X134607500Y-68789250D01*
X134608748Y-68559999D01*
X136060002Y-68559999D01*
X136061250Y-68789250D01*
X136220000Y-68948000D01*
X137419250Y-68948000D01*
X137419250Y-68928000D01*
X137673250Y-68928000D01*
X137673250Y-68948000D01*
X138872500Y-68948000D01*
X139031250Y-68789250D01*
X139032498Y-68559999D01*
X140483752Y-68559999D01*
X140485000Y-68789250D01*
X140643750Y-68948000D01*
X141843000Y-68948000D01*
X141843000Y-68928000D01*
X142097000Y-68928000D01*
X142097000Y-68948000D01*
X142117000Y-68948000D01*
X142117000Y-69202000D01*
X142097000Y-69202000D01*
X142097000Y-69222000D01*
X141843000Y-69222000D01*
X141843000Y-69202000D01*
X140643750Y-69202000D01*
X140485000Y-69360750D01*
X140481928Y-69925000D01*
X140494188Y-70049482D01*
X140530498Y-70169180D01*
X140589463Y-70279494D01*
X140668815Y-70376185D01*
X140765506Y-70455537D01*
X140875820Y-70514502D01*
X140944687Y-70535393D01*
X140914866Y-70559866D01*
X140729294Y-70785986D01*
X140591401Y-71043966D01*
X140506487Y-71323889D01*
X140477815Y-71615000D01*
X140506487Y-71906111D01*
X140591401Y-72186034D01*
X140729294Y-72444014D01*
X140914866Y-72670134D01*
X141140986Y-72855706D01*
X141195791Y-72885000D01*
X141140986Y-72914294D01*
X140914866Y-73099866D01*
X140775241Y-73270000D01*
X138741009Y-73270000D01*
X138601384Y-73099866D01*
X138375264Y-72914294D01*
X138320459Y-72885000D01*
X138375264Y-72855706D01*
X138601384Y-72670134D01*
X138786956Y-72444014D01*
X138924849Y-72186034D01*
X139009763Y-71906111D01*
X139038435Y-71615000D01*
X139009763Y-71323889D01*
X138924849Y-71043966D01*
X138786956Y-70785986D01*
X138601384Y-70559866D01*
X138571563Y-70535393D01*
X138640430Y-70514502D01*
X138750744Y-70455537D01*
X138847435Y-70376185D01*
X138926787Y-70279494D01*
X138985752Y-70169180D01*
X139022062Y-70049482D01*
X139034322Y-69925000D01*
X139031250Y-69360750D01*
X138872500Y-69202000D01*
X137673250Y-69202000D01*
X137673250Y-69222000D01*
X137419250Y-69222000D01*
X137419250Y-69202000D01*
X136220000Y-69202000D01*
X136061250Y-69360750D01*
X136058178Y-69925000D01*
X136070438Y-70049482D01*
X136106748Y-70169180D01*
X136165713Y-70279494D01*
X136245065Y-70376185D01*
X136341756Y-70455537D01*
X136452070Y-70514502D01*
X136520937Y-70535393D01*
X136491116Y-70559866D01*
X136305544Y-70785986D01*
X136167651Y-71043966D01*
X136082737Y-71323889D01*
X136054065Y-71615000D01*
X136082737Y-71906111D01*
X136167651Y-72186034D01*
X136305544Y-72444014D01*
X136491116Y-72670134D01*
X136717236Y-72855706D01*
X136772041Y-72885000D01*
X136717236Y-72914294D01*
X136491116Y-73099866D01*
X136351491Y-73270000D01*
X134317259Y-73270000D01*
X134177634Y-73099866D01*
X133951514Y-72914294D01*
X133896709Y-72885000D01*
X133951514Y-72855706D01*
X134177634Y-72670134D01*
X134363206Y-72444014D01*
X134501099Y-72186034D01*
X134586013Y-71906111D01*
X134614685Y-71615000D01*
X134586013Y-71323889D01*
X134501099Y-71043966D01*
X134363206Y-70785986D01*
X134177634Y-70559866D01*
X134147813Y-70535393D01*
X134216680Y-70514502D01*
X134326994Y-70455537D01*
X134423685Y-70376185D01*
X134503037Y-70279494D01*
X134562002Y-70169180D01*
X134598312Y-70049482D01*
X134610572Y-69925000D01*
X134607500Y-69360750D01*
X134448750Y-69202000D01*
X133249500Y-69202000D01*
X133249500Y-69222000D01*
X132995500Y-69222000D01*
X132995500Y-69202000D01*
X131796250Y-69202000D01*
X131637500Y-69360750D01*
X131634428Y-69925000D01*
X131646688Y-70049482D01*
X131682998Y-70169180D01*
X131741963Y-70279494D01*
X131821315Y-70376185D01*
X131918006Y-70455537D01*
X132028320Y-70514502D01*
X132097187Y-70535393D01*
X132067366Y-70559866D01*
X131881794Y-70785986D01*
X131743901Y-71043966D01*
X131658987Y-71323889D01*
X131630315Y-71615000D01*
X131658987Y-71906111D01*
X131743901Y-72186034D01*
X131881794Y-72444014D01*
X132067366Y-72670134D01*
X132293486Y-72855706D01*
X132348291Y-72885000D01*
X132293486Y-72914294D01*
X132067366Y-73099866D01*
X131927741Y-73270000D01*
X129893509Y-73270000D01*
X129753884Y-73099866D01*
X129527764Y-72914294D01*
X129472959Y-72885000D01*
X129527764Y-72855706D01*
X129753884Y-72670134D01*
X129939456Y-72444014D01*
X130077349Y-72186034D01*
X130162263Y-71906111D01*
X130190935Y-71615000D01*
X130162263Y-71323889D01*
X130077349Y-71043966D01*
X129939456Y-70785986D01*
X129753884Y-70559866D01*
X129724063Y-70535393D01*
X129792930Y-70514502D01*
X129903244Y-70455537D01*
X129999935Y-70376185D01*
X130079287Y-70279494D01*
X130138252Y-70169180D01*
X130174562Y-70049482D01*
X130186822Y-69925000D01*
X130183750Y-69360750D01*
X130025000Y-69202000D01*
X128825750Y-69202000D01*
X128825750Y-69222000D01*
X128571750Y-69222000D01*
X128571750Y-69202000D01*
X127372500Y-69202000D01*
X127213750Y-69360750D01*
X127210678Y-69925000D01*
X127222938Y-70049482D01*
X127259248Y-70169180D01*
X127318213Y-70279494D01*
X127397565Y-70376185D01*
X127494256Y-70455537D01*
X127604570Y-70514502D01*
X127673437Y-70535393D01*
X127643616Y-70559866D01*
X127458044Y-70785986D01*
X127320151Y-71043966D01*
X127235237Y-71323889D01*
X127206565Y-71615000D01*
X127235237Y-71906111D01*
X127320151Y-72186034D01*
X127458044Y-72444014D01*
X127643616Y-72670134D01*
X127869736Y-72855706D01*
X127924541Y-72885000D01*
X127869736Y-72914294D01*
X127643616Y-73099866D01*
X127503991Y-73270000D01*
X125469759Y-73270000D01*
X125330134Y-73099866D01*
X125104014Y-72914294D01*
X125049209Y-72885000D01*
X125104014Y-72855706D01*
X125330134Y-72670134D01*
X125515706Y-72444014D01*
X125653599Y-72186034D01*
X125738513Y-71906111D01*
X125767185Y-71615000D01*
X125738513Y-71323889D01*
X125653599Y-71043966D01*
X125515706Y-70785986D01*
X125330134Y-70559866D01*
X125300313Y-70535393D01*
X125369180Y-70514502D01*
X125479494Y-70455537D01*
X125576185Y-70376185D01*
X125655537Y-70279494D01*
X125714502Y-70169180D01*
X125750812Y-70049482D01*
X125763072Y-69925000D01*
X125760000Y-69360750D01*
X125601250Y-69202000D01*
X124402000Y-69202000D01*
X124402000Y-69222000D01*
X124148000Y-69222000D01*
X124148000Y-69202000D01*
X124128000Y-69202000D01*
X124128000Y-68948000D01*
X124148000Y-68948000D01*
X124148000Y-68928000D01*
X124402000Y-68928000D01*
X124402000Y-68948000D01*
X125601250Y-68948000D01*
X125760000Y-68789250D01*
X125761248Y-68559999D01*
X127212502Y-68559999D01*
X127213750Y-68789250D01*
X127213750Y-68789250D01*
G37*
X127213750Y-68789250D02*
X127372500Y-68948000D01*
X128571750Y-68948000D01*
X128571750Y-68928000D01*
X128825750Y-68928000D01*
X128825750Y-68948000D01*
X130025000Y-68948000D01*
X130183750Y-68789250D01*
X130184998Y-68559999D01*
X131636252Y-68559999D01*
X131637500Y-68789250D01*
X131796250Y-68948000D01*
X132995500Y-68948000D01*
X132995500Y-68928000D01*
X133249500Y-68928000D01*
X133249500Y-68948000D01*
X134448750Y-68948000D01*
X134607500Y-68789250D01*
X134608748Y-68559999D01*
X136060002Y-68559999D01*
X136061250Y-68789250D01*
X136220000Y-68948000D01*
X137419250Y-68948000D01*
X137419250Y-68928000D01*
X137673250Y-68928000D01*
X137673250Y-68948000D01*
X138872500Y-68948000D01*
X139031250Y-68789250D01*
X139032498Y-68559999D01*
X140483752Y-68559999D01*
X140485000Y-68789250D01*
X140643750Y-68948000D01*
X141843000Y-68948000D01*
X141843000Y-68928000D01*
X142097000Y-68928000D01*
X142097000Y-68948000D01*
X142117000Y-68948000D01*
X142117000Y-69202000D01*
X142097000Y-69202000D01*
X142097000Y-69222000D01*
X141843000Y-69222000D01*
X141843000Y-69202000D01*
X140643750Y-69202000D01*
X140485000Y-69360750D01*
X140481928Y-69925000D01*
X140494188Y-70049482D01*
X140530498Y-70169180D01*
X140589463Y-70279494D01*
X140668815Y-70376185D01*
X140765506Y-70455537D01*
X140875820Y-70514502D01*
X140944687Y-70535393D01*
X140914866Y-70559866D01*
X140729294Y-70785986D01*
X140591401Y-71043966D01*
X140506487Y-71323889D01*
X140477815Y-71615000D01*
X140506487Y-71906111D01*
X140591401Y-72186034D01*
X140729294Y-72444014D01*
X140914866Y-72670134D01*
X141140986Y-72855706D01*
X141195791Y-72885000D01*
X141140986Y-72914294D01*
X140914866Y-73099866D01*
X140775241Y-73270000D01*
X138741009Y-73270000D01*
X138601384Y-73099866D01*
X138375264Y-72914294D01*
X138320459Y-72885000D01*
X138375264Y-72855706D01*
X138601384Y-72670134D01*
X138786956Y-72444014D01*
X138924849Y-72186034D01*
X139009763Y-71906111D01*
X139038435Y-71615000D01*
X139009763Y-71323889D01*
X138924849Y-71043966D01*
X138786956Y-70785986D01*
X138601384Y-70559866D01*
X138571563Y-70535393D01*
X138640430Y-70514502D01*
X138750744Y-70455537D01*
X138847435Y-70376185D01*
X138926787Y-70279494D01*
X138985752Y-70169180D01*
X139022062Y-70049482D01*
X139034322Y-69925000D01*
X139031250Y-69360750D01*
X138872500Y-69202000D01*
X137673250Y-69202000D01*
X137673250Y-69222000D01*
X137419250Y-69222000D01*
X137419250Y-69202000D01*
X136220000Y-69202000D01*
X136061250Y-69360750D01*
X136058178Y-69925000D01*
X136070438Y-70049482D01*
X136106748Y-70169180D01*
X136165713Y-70279494D01*
X136245065Y-70376185D01*
X136341756Y-70455537D01*
X136452070Y-70514502D01*
X136520937Y-70535393D01*
X136491116Y-70559866D01*
X136305544Y-70785986D01*
X136167651Y-71043966D01*
X136082737Y-71323889D01*
X136054065Y-71615000D01*
X136082737Y-71906111D01*
X136167651Y-72186034D01*
X136305544Y-72444014D01*
X136491116Y-72670134D01*
X136717236Y-72855706D01*
X136772041Y-72885000D01*
X136717236Y-72914294D01*
X136491116Y-73099866D01*
X136351491Y-73270000D01*
X134317259Y-73270000D01*
X134177634Y-73099866D01*
X133951514Y-72914294D01*
X133896709Y-72885000D01*
X133951514Y-72855706D01*
X134177634Y-72670134D01*
X134363206Y-72444014D01*
X134501099Y-72186034D01*
X134586013Y-71906111D01*
X134614685Y-71615000D01*
X134586013Y-71323889D01*
X134501099Y-71043966D01*
X134363206Y-70785986D01*
X134177634Y-70559866D01*
X134147813Y-70535393D01*
X134216680Y-70514502D01*
X134326994Y-70455537D01*
X134423685Y-70376185D01*
X134503037Y-70279494D01*
X134562002Y-70169180D01*
X134598312Y-70049482D01*
X134610572Y-69925000D01*
X134607500Y-69360750D01*
X134448750Y-69202000D01*
X133249500Y-69202000D01*
X133249500Y-69222000D01*
X132995500Y-69222000D01*
X132995500Y-69202000D01*
X131796250Y-69202000D01*
X131637500Y-69360750D01*
X131634428Y-69925000D01*
X131646688Y-70049482D01*
X131682998Y-70169180D01*
X131741963Y-70279494D01*
X131821315Y-70376185D01*
X131918006Y-70455537D01*
X132028320Y-70514502D01*
X132097187Y-70535393D01*
X132067366Y-70559866D01*
X131881794Y-70785986D01*
X131743901Y-71043966D01*
X131658987Y-71323889D01*
X131630315Y-71615000D01*
X131658987Y-71906111D01*
X131743901Y-72186034D01*
X131881794Y-72444014D01*
X132067366Y-72670134D01*
X132293486Y-72855706D01*
X132348291Y-72885000D01*
X132293486Y-72914294D01*
X132067366Y-73099866D01*
X131927741Y-73270000D01*
X129893509Y-73270000D01*
X129753884Y-73099866D01*
X129527764Y-72914294D01*
X129472959Y-72885000D01*
X129527764Y-72855706D01*
X129753884Y-72670134D01*
X129939456Y-72444014D01*
X130077349Y-72186034D01*
X130162263Y-71906111D01*
X130190935Y-71615000D01*
X130162263Y-71323889D01*
X130077349Y-71043966D01*
X129939456Y-70785986D01*
X129753884Y-70559866D01*
X129724063Y-70535393D01*
X129792930Y-70514502D01*
X129903244Y-70455537D01*
X129999935Y-70376185D01*
X130079287Y-70279494D01*
X130138252Y-70169180D01*
X130174562Y-70049482D01*
X130186822Y-69925000D01*
X130183750Y-69360750D01*
X130025000Y-69202000D01*
X128825750Y-69202000D01*
X128825750Y-69222000D01*
X128571750Y-69222000D01*
X128571750Y-69202000D01*
X127372500Y-69202000D01*
X127213750Y-69360750D01*
X127210678Y-69925000D01*
X127222938Y-70049482D01*
X127259248Y-70169180D01*
X127318213Y-70279494D01*
X127397565Y-70376185D01*
X127494256Y-70455537D01*
X127604570Y-70514502D01*
X127673437Y-70535393D01*
X127643616Y-70559866D01*
X127458044Y-70785986D01*
X127320151Y-71043966D01*
X127235237Y-71323889D01*
X127206565Y-71615000D01*
X127235237Y-71906111D01*
X127320151Y-72186034D01*
X127458044Y-72444014D01*
X127643616Y-72670134D01*
X127869736Y-72855706D01*
X127924541Y-72885000D01*
X127869736Y-72914294D01*
X127643616Y-73099866D01*
X127503991Y-73270000D01*
X125469759Y-73270000D01*
X125330134Y-73099866D01*
X125104014Y-72914294D01*
X125049209Y-72885000D01*
X125104014Y-72855706D01*
X125330134Y-72670134D01*
X125515706Y-72444014D01*
X125653599Y-72186034D01*
X125738513Y-71906111D01*
X125767185Y-71615000D01*
X125738513Y-71323889D01*
X125653599Y-71043966D01*
X125515706Y-70785986D01*
X125330134Y-70559866D01*
X125300313Y-70535393D01*
X125369180Y-70514502D01*
X125479494Y-70455537D01*
X125576185Y-70376185D01*
X125655537Y-70279494D01*
X125714502Y-70169180D01*
X125750812Y-70049482D01*
X125763072Y-69925000D01*
X125760000Y-69360750D01*
X125601250Y-69202000D01*
X124402000Y-69202000D01*
X124402000Y-69222000D01*
X124148000Y-69222000D01*
X124148000Y-69202000D01*
X124128000Y-69202000D01*
X124128000Y-68948000D01*
X124148000Y-68948000D01*
X124148000Y-68928000D01*
X124402000Y-68928000D01*
X124402000Y-68948000D01*
X125601250Y-68948000D01*
X125760000Y-68789250D01*
X125761248Y-68559999D01*
X127212502Y-68559999D01*
X127213750Y-68789250D01*
G36*
X151267273Y-69336928D02*
G01*
X151185500Y-69336928D01*
X151061018Y-69349188D01*
X150941320Y-69385498D01*
X150831006Y-69444463D01*
X150734315Y-69523815D01*
X150654963Y-69620506D01*
X150595998Y-69730820D01*
X150559688Y-69850518D01*
X150547428Y-69975000D01*
X150547428Y-70102914D01*
X150017916Y-70632426D01*
X150023572Y-70575000D01*
X150020500Y-70560750D01*
X149861750Y-70402000D01*
X148912500Y-70402000D01*
X148912500Y-71248000D01*
X148932500Y-71248000D01*
X148932500Y-71502000D01*
X148912500Y-71502000D01*
X148912500Y-72348000D01*
X148932500Y-72348000D01*
X148932500Y-72602000D01*
X148912500Y-72602000D01*
X148912500Y-72622000D01*
X148658500Y-72622000D01*
X148658500Y-72602000D01*
X148638500Y-72602000D01*
X148638500Y-72348000D01*
X148658500Y-72348000D01*
X148658500Y-71502000D01*
X148638500Y-71502000D01*
X148638500Y-71248000D01*
X148658500Y-71248000D01*
X148658500Y-70402000D01*
X147709250Y-70402000D01*
X147550500Y-70560750D01*
X147547428Y-70575000D01*
X147559688Y-70699482D01*
X147595998Y-70819180D01*
X147599109Y-70825000D01*
X147595998Y-70830820D01*
X147559688Y-70950518D01*
X147551259Y-71036099D01*
X146490160Y-69975000D01*
X147547428Y-69975000D01*
X147550500Y-69989250D01*
X147709250Y-70148000D01*
X148658500Y-70148000D01*
X148658500Y-69498750D01*
X148912500Y-69498750D01*
X148912500Y-70148000D01*
X149861750Y-70148000D01*
X150020500Y-69989250D01*
X150023572Y-69975000D01*
X150011312Y-69850518D01*
X149975002Y-69730820D01*
X149916037Y-69620506D01*
X149836685Y-69523815D01*
X149739994Y-69444463D01*
X149629680Y-69385498D01*
X149509982Y-69349188D01*
X149385500Y-69336928D01*
X149071250Y-69340000D01*
X148912500Y-69498750D01*
X148658500Y-69498750D01*
X148499750Y-69340000D01*
X148185500Y-69336928D01*
X148061018Y-69349188D01*
X147941320Y-69385498D01*
X147831006Y-69444463D01*
X147734315Y-69523815D01*
X147654963Y-69620506D01*
X147595998Y-69730820D01*
X147559688Y-69850518D01*
X147547428Y-69975000D01*
X146490160Y-69975000D01*
X144575148Y-68059989D01*
X149990334Y-68059989D01*
X151267273Y-69336928D01*
X151267273Y-69336928D01*
G37*
X151267273Y-69336928D02*
X151185500Y-69336928D01*
X151061018Y-69349188D01*
X150941320Y-69385498D01*
X150831006Y-69444463D01*
X150734315Y-69523815D01*
X150654963Y-69620506D01*
X150595998Y-69730820D01*
X150559688Y-69850518D01*
X150547428Y-69975000D01*
X150547428Y-70102914D01*
X150017916Y-70632426D01*
X150023572Y-70575000D01*
X150020500Y-70560750D01*
X149861750Y-70402000D01*
X148912500Y-70402000D01*
X148912500Y-71248000D01*
X148932500Y-71248000D01*
X148932500Y-71502000D01*
X148912500Y-71502000D01*
X148912500Y-72348000D01*
X148932500Y-72348000D01*
X148932500Y-72602000D01*
X148912500Y-72602000D01*
X148912500Y-72622000D01*
X148658500Y-72622000D01*
X148658500Y-72602000D01*
X148638500Y-72602000D01*
X148638500Y-72348000D01*
X148658500Y-72348000D01*
X148658500Y-71502000D01*
X148638500Y-71502000D01*
X148638500Y-71248000D01*
X148658500Y-71248000D01*
X148658500Y-70402000D01*
X147709250Y-70402000D01*
X147550500Y-70560750D01*
X147547428Y-70575000D01*
X147559688Y-70699482D01*
X147595998Y-70819180D01*
X147599109Y-70825000D01*
X147595998Y-70830820D01*
X147559688Y-70950518D01*
X147551259Y-71036099D01*
X146490160Y-69975000D01*
X147547428Y-69975000D01*
X147550500Y-69989250D01*
X147709250Y-70148000D01*
X148658500Y-70148000D01*
X148658500Y-69498750D01*
X148912500Y-69498750D01*
X148912500Y-70148000D01*
X149861750Y-70148000D01*
X150020500Y-69989250D01*
X150023572Y-69975000D01*
X150011312Y-69850518D01*
X149975002Y-69730820D01*
X149916037Y-69620506D01*
X149836685Y-69523815D01*
X149739994Y-69444463D01*
X149629680Y-69385498D01*
X149509982Y-69349188D01*
X149385500Y-69336928D01*
X149071250Y-69340000D01*
X148912500Y-69498750D01*
X148658500Y-69498750D01*
X148499750Y-69340000D01*
X148185500Y-69336928D01*
X148061018Y-69349188D01*
X147941320Y-69385498D01*
X147831006Y-69444463D01*
X147734315Y-69523815D01*
X147654963Y-69620506D01*
X147595998Y-69730820D01*
X147559688Y-69850518D01*
X147547428Y-69975000D01*
X146490160Y-69975000D01*
X144575148Y-68059989D01*
X149990334Y-68059989D01*
X151267273Y-69336928D01*
M02*
