G04 #@! TF.GenerationSoftware,KiCad,Pcbnew,(5.1.4-0-10_14)*
G04 #@! TF.CreationDate,2020-05-04T21:59:13+12:00*
G04 #@! TF.ProjectId,Hand Mesurement Device,48616e64-204d-4657-9375-72656d656e74,rev?*
G04 #@! TF.SameCoordinates,Original*
G04 #@! TF.FileFunction,Legend,Bot*
G04 #@! TF.FilePolarity,Positive*
%FSLAX46Y46*%
G04 Gerber Fmt 4.6, Leading zero omitted, Abs format (unit mm)*
G04 Created by KiCad (PCBNEW (5.1.4-0-10_14)) date 2020-05-04 21:59:13*
%MOMM*%
%LPD*%
G04 APERTURE LIST*
%ADD10C,0.100000*%
%ADD11C,0.120000*%
%ADD12C,0.150000*%
G04 APERTURE END LIST*
D10*
X149693333Y-71341666D02*
X149693333Y-70641666D01*
X149293333Y-71341666D01*
X149293333Y-70641666D01*
X148560000Y-71341666D02*
X148793333Y-71008333D01*
X148960000Y-71341666D02*
X148960000Y-70641666D01*
X148693333Y-70641666D01*
X148626666Y-70675000D01*
X148593333Y-70708333D01*
X148560000Y-70775000D01*
X148560000Y-70875000D01*
X148593333Y-70941666D01*
X148626666Y-70975000D01*
X148693333Y-71008333D01*
X148960000Y-71008333D01*
X148026666Y-70975000D02*
X148260000Y-70975000D01*
X148260000Y-71341666D02*
X148260000Y-70641666D01*
X147926666Y-70641666D01*
X147660000Y-71275000D02*
X147626666Y-71308333D01*
X147660000Y-71341666D01*
X147693333Y-71308333D01*
X147660000Y-71275000D01*
X147660000Y-71341666D01*
X147660000Y-70908333D02*
X147626666Y-70941666D01*
X147660000Y-70975000D01*
X147693333Y-70941666D01*
X147660000Y-70908333D01*
X147660000Y-70975000D01*
X149693333Y-72491666D02*
X149693333Y-71791666D01*
X149526666Y-71791666D01*
X149426666Y-71825000D01*
X149360000Y-71891666D01*
X149326666Y-71958333D01*
X149293333Y-72091666D01*
X149293333Y-72191666D01*
X149326666Y-72325000D01*
X149360000Y-72391666D01*
X149426666Y-72458333D01*
X149526666Y-72491666D01*
X149693333Y-72491666D01*
X148960000Y-72491666D02*
X148826666Y-72491666D01*
X148760000Y-72458333D01*
X148726666Y-72425000D01*
X148660000Y-72325000D01*
X148626666Y-72191666D01*
X148626666Y-71925000D01*
X148660000Y-71858333D01*
X148693333Y-71825000D01*
X148760000Y-71791666D01*
X148893333Y-71791666D01*
X148960000Y-71825000D01*
X148993333Y-71858333D01*
X149026666Y-71925000D01*
X149026666Y-72091666D01*
X148993333Y-72158333D01*
X148960000Y-72191666D01*
X148893333Y-72225000D01*
X148760000Y-72225000D01*
X148693333Y-72191666D01*
X148660000Y-72158333D01*
X148626666Y-72091666D01*
X147793333Y-72225000D02*
X147260000Y-72225000D01*
X145993333Y-72425000D02*
X146026666Y-72458333D01*
X146126666Y-72491666D01*
X146193333Y-72491666D01*
X146293333Y-72458333D01*
X146360000Y-72391666D01*
X146393333Y-72325000D01*
X146426666Y-72191666D01*
X146426666Y-72091666D01*
X146393333Y-71958333D01*
X146360000Y-71891666D01*
X146293333Y-71825000D01*
X146193333Y-71791666D01*
X146126666Y-71791666D01*
X146026666Y-71825000D01*
X145993333Y-71858333D01*
X145693333Y-72125000D02*
X145460000Y-72125000D01*
X145360000Y-72491666D02*
X145693333Y-72491666D01*
X145693333Y-71791666D01*
X145360000Y-71791666D01*
X149693333Y-73641666D02*
X149693333Y-72941666D01*
X149526666Y-72941666D01*
X149426666Y-72975000D01*
X149360000Y-73041666D01*
X149326666Y-73108333D01*
X149293333Y-73241666D01*
X149293333Y-73341666D01*
X149326666Y-73475000D01*
X149360000Y-73541666D01*
X149426666Y-73608333D01*
X149526666Y-73641666D01*
X149693333Y-73641666D01*
X148626666Y-73641666D02*
X149026666Y-73641666D01*
X148826666Y-73641666D02*
X148826666Y-72941666D01*
X148893333Y-73041666D01*
X148960000Y-73108333D01*
X149026666Y-73141666D01*
X148193333Y-72941666D02*
X148126666Y-72941666D01*
X148060000Y-72975000D01*
X148026666Y-73008333D01*
X147993333Y-73075000D01*
X147960000Y-73208333D01*
X147960000Y-73375000D01*
X147993333Y-73508333D01*
X148026666Y-73575000D01*
X148060000Y-73608333D01*
X148126666Y-73641666D01*
X148193333Y-73641666D01*
X148260000Y-73608333D01*
X148293333Y-73575000D01*
X148326666Y-73508333D01*
X148360000Y-73375000D01*
X148360000Y-73208333D01*
X148326666Y-73075000D01*
X148293333Y-73008333D01*
X148260000Y-72975000D01*
X148193333Y-72941666D01*
X147126666Y-73375000D02*
X146593333Y-73375000D01*
X145326666Y-73575000D02*
X145360000Y-73608333D01*
X145460000Y-73641666D01*
X145526666Y-73641666D01*
X145626666Y-73608333D01*
X145693333Y-73541666D01*
X145726666Y-73475000D01*
X145760000Y-73341666D01*
X145760000Y-73241666D01*
X145726666Y-73108333D01*
X145693333Y-73041666D01*
X145626666Y-72975000D01*
X145526666Y-72941666D01*
X145460000Y-72941666D01*
X145360000Y-72975000D01*
X145326666Y-73008333D01*
X145060000Y-73608333D02*
X144960000Y-73641666D01*
X144793333Y-73641666D01*
X144726666Y-73608333D01*
X144693333Y-73575000D01*
X144660000Y-73508333D01*
X144660000Y-73441666D01*
X144693333Y-73375000D01*
X144726666Y-73341666D01*
X144793333Y-73308333D01*
X144926666Y-73275000D01*
X144993333Y-73241666D01*
X145026666Y-73208333D01*
X145060000Y-73141666D01*
X145060000Y-73075000D01*
X145026666Y-73008333D01*
X144993333Y-72975000D01*
X144926666Y-72941666D01*
X144760000Y-72941666D01*
X144660000Y-72975000D01*
X144360000Y-73641666D02*
X144360000Y-72941666D01*
X143960000Y-73641666D01*
X143960000Y-72941666D01*
X149693333Y-74791666D02*
X149693333Y-74091666D01*
X149526666Y-74091666D01*
X149426666Y-74125000D01*
X149360000Y-74191666D01*
X149326666Y-74258333D01*
X149293333Y-74391666D01*
X149293333Y-74491666D01*
X149326666Y-74625000D01*
X149360000Y-74691666D01*
X149426666Y-74758333D01*
X149526666Y-74791666D01*
X149693333Y-74791666D01*
X148626666Y-74791666D02*
X149026666Y-74791666D01*
X148826666Y-74791666D02*
X148826666Y-74091666D01*
X148893333Y-74191666D01*
X148960000Y-74258333D01*
X149026666Y-74291666D01*
X147960000Y-74791666D02*
X148360000Y-74791666D01*
X148160000Y-74791666D02*
X148160000Y-74091666D01*
X148226666Y-74191666D01*
X148293333Y-74258333D01*
X148360000Y-74291666D01*
X147126666Y-74525000D02*
X146593333Y-74525000D01*
X145726666Y-74791666D02*
X145726666Y-74091666D01*
X145493333Y-74591666D01*
X145260000Y-74091666D01*
X145260000Y-74791666D01*
X144926666Y-74791666D02*
X144926666Y-74091666D01*
X144626666Y-74758333D02*
X144526666Y-74791666D01*
X144360000Y-74791666D01*
X144293333Y-74758333D01*
X144260000Y-74725000D01*
X144226666Y-74658333D01*
X144226666Y-74591666D01*
X144260000Y-74525000D01*
X144293333Y-74491666D01*
X144360000Y-74458333D01*
X144493333Y-74425000D01*
X144560000Y-74391666D01*
X144593333Y-74358333D01*
X144626666Y-74291666D01*
X144626666Y-74225000D01*
X144593333Y-74158333D01*
X144560000Y-74125000D01*
X144493333Y-74091666D01*
X144326666Y-74091666D01*
X144226666Y-74125000D01*
X143793333Y-74091666D02*
X143660000Y-74091666D01*
X143593333Y-74125000D01*
X143526666Y-74191666D01*
X143493333Y-74325000D01*
X143493333Y-74558333D01*
X143526666Y-74691666D01*
X143593333Y-74758333D01*
X143660000Y-74791666D01*
X143793333Y-74791666D01*
X143860000Y-74758333D01*
X143926666Y-74691666D01*
X143960000Y-74558333D01*
X143960000Y-74325000D01*
X143926666Y-74191666D01*
X143860000Y-74125000D01*
X143793333Y-74091666D01*
X149693333Y-75941666D02*
X149693333Y-75241666D01*
X149526666Y-75241666D01*
X149426666Y-75275000D01*
X149360000Y-75341666D01*
X149326666Y-75408333D01*
X149293333Y-75541666D01*
X149293333Y-75641666D01*
X149326666Y-75775000D01*
X149360000Y-75841666D01*
X149426666Y-75908333D01*
X149526666Y-75941666D01*
X149693333Y-75941666D01*
X148626666Y-75941666D02*
X149026666Y-75941666D01*
X148826666Y-75941666D02*
X148826666Y-75241666D01*
X148893333Y-75341666D01*
X148960000Y-75408333D01*
X149026666Y-75441666D01*
X148360000Y-75308333D02*
X148326666Y-75275000D01*
X148260000Y-75241666D01*
X148093333Y-75241666D01*
X148026666Y-75275000D01*
X147993333Y-75308333D01*
X147960000Y-75375000D01*
X147960000Y-75441666D01*
X147993333Y-75541666D01*
X148393333Y-75941666D01*
X147960000Y-75941666D01*
X147126666Y-75675000D02*
X146593333Y-75675000D01*
X145726666Y-75941666D02*
X145726666Y-75241666D01*
X145493333Y-75741666D01*
X145260000Y-75241666D01*
X145260000Y-75941666D01*
X144793333Y-75241666D02*
X144660000Y-75241666D01*
X144593333Y-75275000D01*
X144526666Y-75341666D01*
X144493333Y-75475000D01*
X144493333Y-75708333D01*
X144526666Y-75841666D01*
X144593333Y-75908333D01*
X144660000Y-75941666D01*
X144793333Y-75941666D01*
X144860000Y-75908333D01*
X144926666Y-75841666D01*
X144960000Y-75708333D01*
X144960000Y-75475000D01*
X144926666Y-75341666D01*
X144860000Y-75275000D01*
X144793333Y-75241666D01*
X144226666Y-75908333D02*
X144126666Y-75941666D01*
X143960000Y-75941666D01*
X143893333Y-75908333D01*
X143860000Y-75875000D01*
X143826666Y-75808333D01*
X143826666Y-75741666D01*
X143860000Y-75675000D01*
X143893333Y-75641666D01*
X143960000Y-75608333D01*
X144093333Y-75575000D01*
X144160000Y-75541666D01*
X144193333Y-75508333D01*
X144226666Y-75441666D01*
X144226666Y-75375000D01*
X144193333Y-75308333D01*
X144160000Y-75275000D01*
X144093333Y-75241666D01*
X143926666Y-75241666D01*
X143826666Y-75275000D01*
X143526666Y-75941666D02*
X143526666Y-75241666D01*
X149693333Y-77091666D02*
X149693333Y-76391666D01*
X149526666Y-76391666D01*
X149426666Y-76425000D01*
X149360000Y-76491666D01*
X149326666Y-76558333D01*
X149293333Y-76691666D01*
X149293333Y-76791666D01*
X149326666Y-76925000D01*
X149360000Y-76991666D01*
X149426666Y-77058333D01*
X149526666Y-77091666D01*
X149693333Y-77091666D01*
X148626666Y-77091666D02*
X149026666Y-77091666D01*
X148826666Y-77091666D02*
X148826666Y-76391666D01*
X148893333Y-76491666D01*
X148960000Y-76558333D01*
X149026666Y-76591666D01*
X148393333Y-76391666D02*
X147960000Y-76391666D01*
X148193333Y-76658333D01*
X148093333Y-76658333D01*
X148026666Y-76691666D01*
X147993333Y-76725000D01*
X147960000Y-76791666D01*
X147960000Y-76958333D01*
X147993333Y-77025000D01*
X148026666Y-77058333D01*
X148093333Y-77091666D01*
X148293333Y-77091666D01*
X148360000Y-77058333D01*
X148393333Y-77025000D01*
X147126666Y-76825000D02*
X146593333Y-76825000D01*
X145760000Y-77058333D02*
X145660000Y-77091666D01*
X145493333Y-77091666D01*
X145426666Y-77058333D01*
X145393333Y-77025000D01*
X145360000Y-76958333D01*
X145360000Y-76891666D01*
X145393333Y-76825000D01*
X145426666Y-76791666D01*
X145493333Y-76758333D01*
X145626666Y-76725000D01*
X145693333Y-76691666D01*
X145726666Y-76658333D01*
X145760000Y-76591666D01*
X145760000Y-76525000D01*
X145726666Y-76458333D01*
X145693333Y-76425000D01*
X145626666Y-76391666D01*
X145460000Y-76391666D01*
X145360000Y-76425000D01*
X144660000Y-77025000D02*
X144693333Y-77058333D01*
X144793333Y-77091666D01*
X144860000Y-77091666D01*
X144960000Y-77058333D01*
X145026666Y-76991666D01*
X145060000Y-76925000D01*
X145093333Y-76791666D01*
X145093333Y-76691666D01*
X145060000Y-76558333D01*
X145026666Y-76491666D01*
X144960000Y-76425000D01*
X144860000Y-76391666D01*
X144793333Y-76391666D01*
X144693333Y-76425000D01*
X144660000Y-76458333D01*
X144360000Y-77091666D02*
X144360000Y-76391666D01*
X143960000Y-77091666D02*
X144260000Y-76691666D01*
X143960000Y-76391666D02*
X144360000Y-76791666D01*
X149693333Y-78241666D02*
X149693333Y-77541666D01*
X149426666Y-77541666D01*
X149360000Y-77575000D01*
X149326666Y-77608333D01*
X149293333Y-77675000D01*
X149293333Y-77775000D01*
X149326666Y-77841666D01*
X149360000Y-77875000D01*
X149426666Y-77908333D01*
X149693333Y-77908333D01*
X148893333Y-78241666D02*
X148960000Y-78208333D01*
X148993333Y-78175000D01*
X149026666Y-78108333D01*
X149026666Y-77908333D01*
X148993333Y-77841666D01*
X148960000Y-77808333D01*
X148893333Y-77775000D01*
X148793333Y-77775000D01*
X148726666Y-77808333D01*
X148693333Y-77841666D01*
X148660000Y-77908333D01*
X148660000Y-78108333D01*
X148693333Y-78175000D01*
X148726666Y-78208333D01*
X148793333Y-78241666D01*
X148893333Y-78241666D01*
X148460000Y-77775000D02*
X148193333Y-77775000D01*
X148360000Y-77541666D02*
X148360000Y-78141666D01*
X148326666Y-78208333D01*
X148260000Y-78241666D01*
X148193333Y-78241666D01*
X147993333Y-78208333D02*
X147926666Y-78241666D01*
X147793333Y-78241666D01*
X147726666Y-78208333D01*
X147693333Y-78141666D01*
X147693333Y-78108333D01*
X147726666Y-78041666D01*
X147793333Y-78008333D01*
X147893333Y-78008333D01*
X147960000Y-77975000D01*
X147993333Y-77908333D01*
X147993333Y-77875000D01*
X147960000Y-77808333D01*
X147893333Y-77775000D01*
X147793333Y-77775000D01*
X147726666Y-77808333D01*
X147393333Y-78175000D02*
X147360000Y-78208333D01*
X147393333Y-78241666D01*
X147426666Y-78208333D01*
X147393333Y-78175000D01*
X147393333Y-78241666D01*
X147393333Y-77808333D02*
X147360000Y-77841666D01*
X147393333Y-77875000D01*
X147426666Y-77841666D01*
X147393333Y-77808333D01*
X147393333Y-77875000D01*
X149726666Y-79191666D02*
X149393333Y-79191666D01*
X149793333Y-79391666D02*
X149560000Y-78691666D01*
X149326666Y-79391666D01*
X148960000Y-78691666D02*
X148893333Y-78691666D01*
X148826666Y-78725000D01*
X148793333Y-78758333D01*
X148760000Y-78825000D01*
X148726666Y-78958333D01*
X148726666Y-79125000D01*
X148760000Y-79258333D01*
X148793333Y-79325000D01*
X148826666Y-79358333D01*
X148893333Y-79391666D01*
X148960000Y-79391666D01*
X149026666Y-79358333D01*
X149060000Y-79325000D01*
X149093333Y-79258333D01*
X149126666Y-79125000D01*
X149126666Y-78958333D01*
X149093333Y-78825000D01*
X149060000Y-78758333D01*
X149026666Y-78725000D01*
X148960000Y-78691666D01*
X148493333Y-79158333D02*
X147893333Y-79158333D01*
X147660000Y-79191666D02*
X147326666Y-79191666D01*
X147726666Y-79391666D02*
X147493333Y-78691666D01*
X147260000Y-79391666D01*
X146726666Y-78925000D02*
X146726666Y-79391666D01*
X146893333Y-78658333D02*
X147060000Y-79158333D01*
X146626666Y-79158333D01*
X157093333Y-70975000D02*
X156860000Y-70975000D01*
X156760000Y-71341666D02*
X157093333Y-71341666D01*
X157093333Y-70641666D01*
X156760000Y-70641666D01*
X156460000Y-70875000D02*
X156460000Y-71341666D01*
X156460000Y-70941666D02*
X156426666Y-70908333D01*
X156360000Y-70875000D01*
X156260000Y-70875000D01*
X156193333Y-70908333D01*
X156160000Y-70975000D01*
X156160000Y-71341666D01*
X155526666Y-71308333D02*
X155593333Y-71341666D01*
X155726666Y-71341666D01*
X155793333Y-71308333D01*
X155826666Y-71275000D01*
X155860000Y-71208333D01*
X155860000Y-71008333D01*
X155826666Y-70941666D01*
X155793333Y-70908333D01*
X155726666Y-70875000D01*
X155593333Y-70875000D01*
X155526666Y-70908333D01*
X155126666Y-71341666D02*
X155193333Y-71308333D01*
X155226666Y-71275000D01*
X155260000Y-71208333D01*
X155260000Y-71008333D01*
X155226666Y-70941666D01*
X155193333Y-70908333D01*
X155126666Y-70875000D01*
X155026666Y-70875000D01*
X154960000Y-70908333D01*
X154926666Y-70941666D01*
X154893333Y-71008333D01*
X154893333Y-71208333D01*
X154926666Y-71275000D01*
X154960000Y-71308333D01*
X155026666Y-71341666D01*
X155126666Y-71341666D01*
X154293333Y-71341666D02*
X154293333Y-70641666D01*
X154293333Y-71308333D02*
X154360000Y-71341666D01*
X154493333Y-71341666D01*
X154560000Y-71308333D01*
X154593333Y-71275000D01*
X154626666Y-71208333D01*
X154626666Y-71008333D01*
X154593333Y-70941666D01*
X154560000Y-70908333D01*
X154493333Y-70875000D01*
X154360000Y-70875000D01*
X154293333Y-70908333D01*
X153693333Y-71308333D02*
X153760000Y-71341666D01*
X153893333Y-71341666D01*
X153960000Y-71308333D01*
X153993333Y-71241666D01*
X153993333Y-70975000D01*
X153960000Y-70908333D01*
X153893333Y-70875000D01*
X153760000Y-70875000D01*
X153693333Y-70908333D01*
X153660000Y-70975000D01*
X153660000Y-71041666D01*
X153993333Y-71108333D01*
X153360000Y-71341666D02*
X153360000Y-70875000D01*
X153360000Y-71008333D02*
X153326666Y-70941666D01*
X153293333Y-70908333D01*
X153226666Y-70875000D01*
X153160000Y-70875000D01*
X152926666Y-71275000D02*
X152893333Y-71308333D01*
X152926666Y-71341666D01*
X152960000Y-71308333D01*
X152926666Y-71275000D01*
X152926666Y-71341666D01*
X152926666Y-70908333D02*
X152893333Y-70941666D01*
X152926666Y-70975000D01*
X152960000Y-70941666D01*
X152926666Y-70908333D01*
X152926666Y-70975000D01*
X157093333Y-72491666D02*
X157093333Y-71791666D01*
X156926666Y-71791666D01*
X156826666Y-71825000D01*
X156760000Y-71891666D01*
X156726666Y-71958333D01*
X156693333Y-72091666D01*
X156693333Y-72191666D01*
X156726666Y-72325000D01*
X156760000Y-72391666D01*
X156826666Y-72458333D01*
X156926666Y-72491666D01*
X157093333Y-72491666D01*
X156426666Y-71858333D02*
X156393333Y-71825000D01*
X156326666Y-71791666D01*
X156160000Y-71791666D01*
X156093333Y-71825000D01*
X156060000Y-71858333D01*
X156026666Y-71925000D01*
X156026666Y-71991666D01*
X156060000Y-72091666D01*
X156460000Y-72491666D01*
X156026666Y-72491666D01*
X155193333Y-72225000D02*
X154660000Y-72225000D01*
X153793333Y-72125000D02*
X153560000Y-72125000D01*
X153460000Y-72491666D02*
X153793333Y-72491666D01*
X153793333Y-71791666D01*
X153460000Y-71791666D01*
X153160000Y-72025000D02*
X153160000Y-72491666D01*
X153160000Y-72091666D02*
X153126666Y-72058333D01*
X153060000Y-72025000D01*
X152960000Y-72025000D01*
X152893333Y-72058333D01*
X152860000Y-72125000D01*
X152860000Y-72491666D01*
X152560000Y-72291666D02*
X152226666Y-72291666D01*
X152626666Y-72491666D02*
X152393333Y-71791666D01*
X152160000Y-72491666D01*
X157093333Y-73641666D02*
X157093333Y-72941666D01*
X156926666Y-72941666D01*
X156826666Y-72975000D01*
X156760000Y-73041666D01*
X156726666Y-73108333D01*
X156693333Y-73241666D01*
X156693333Y-73341666D01*
X156726666Y-73475000D01*
X156760000Y-73541666D01*
X156826666Y-73608333D01*
X156926666Y-73641666D01*
X157093333Y-73641666D01*
X156093333Y-73175000D02*
X156093333Y-73641666D01*
X156260000Y-72908333D02*
X156426666Y-73408333D01*
X155993333Y-73408333D01*
X155193333Y-73375000D02*
X154660000Y-73375000D01*
X153793333Y-73275000D02*
X153560000Y-73275000D01*
X153460000Y-73641666D02*
X153793333Y-73641666D01*
X153793333Y-72941666D01*
X153460000Y-72941666D01*
X153160000Y-73175000D02*
X153160000Y-73641666D01*
X153160000Y-73241666D02*
X153126666Y-73208333D01*
X153060000Y-73175000D01*
X152960000Y-73175000D01*
X152893333Y-73208333D01*
X152860000Y-73275000D01*
X152860000Y-73641666D01*
X152293333Y-73275000D02*
X152193333Y-73308333D01*
X152160000Y-73341666D01*
X152126666Y-73408333D01*
X152126666Y-73508333D01*
X152160000Y-73575000D01*
X152193333Y-73608333D01*
X152260000Y-73641666D01*
X152526666Y-73641666D01*
X152526666Y-72941666D01*
X152293333Y-72941666D01*
X152226666Y-72975000D01*
X152193333Y-73008333D01*
X152160000Y-73075000D01*
X152160000Y-73141666D01*
X152193333Y-73208333D01*
X152226666Y-73241666D01*
X152293333Y-73275000D01*
X152526666Y-73275000D01*
X157093333Y-74791666D02*
X157093333Y-74091666D01*
X156926666Y-74091666D01*
X156826666Y-74125000D01*
X156760000Y-74191666D01*
X156726666Y-74258333D01*
X156693333Y-74391666D01*
X156693333Y-74491666D01*
X156726666Y-74625000D01*
X156760000Y-74691666D01*
X156826666Y-74758333D01*
X156926666Y-74791666D01*
X157093333Y-74791666D01*
X156460000Y-74091666D02*
X155993333Y-74091666D01*
X156293333Y-74791666D01*
X155193333Y-74525000D02*
X154660000Y-74525000D01*
X153826666Y-74758333D02*
X153726666Y-74791666D01*
X153560000Y-74791666D01*
X153493333Y-74758333D01*
X153460000Y-74725000D01*
X153426666Y-74658333D01*
X153426666Y-74591666D01*
X153460000Y-74525000D01*
X153493333Y-74491666D01*
X153560000Y-74458333D01*
X153693333Y-74425000D01*
X153760000Y-74391666D01*
X153793333Y-74358333D01*
X153826666Y-74291666D01*
X153826666Y-74225000D01*
X153793333Y-74158333D01*
X153760000Y-74125000D01*
X153693333Y-74091666D01*
X153526666Y-74091666D01*
X153426666Y-74125000D01*
X153193333Y-74325000D02*
X153060000Y-74791666D01*
X152926666Y-74458333D01*
X152793333Y-74791666D01*
X152660000Y-74325000D01*
X156760000Y-75941666D02*
X157093333Y-75941666D01*
X157093333Y-75241666D01*
X156526666Y-75575000D02*
X156293333Y-75575000D01*
X156193333Y-75941666D02*
X156526666Y-75941666D01*
X156526666Y-75241666D01*
X156193333Y-75241666D01*
X155893333Y-75941666D02*
X155893333Y-75241666D01*
X155726666Y-75241666D01*
X155626666Y-75275000D01*
X155560000Y-75341666D01*
X155526666Y-75408333D01*
X155493333Y-75541666D01*
X155493333Y-75641666D01*
X155526666Y-75775000D01*
X155560000Y-75841666D01*
X155626666Y-75908333D01*
X155726666Y-75941666D01*
X155893333Y-75941666D01*
X155193333Y-75875000D02*
X155160000Y-75908333D01*
X155193333Y-75941666D01*
X155226666Y-75908333D01*
X155193333Y-75875000D01*
X155193333Y-75941666D01*
X155193333Y-75508333D02*
X155160000Y-75541666D01*
X155193333Y-75575000D01*
X155226666Y-75541666D01*
X155193333Y-75508333D01*
X155193333Y-75575000D01*
X157093333Y-77091666D02*
X157093333Y-76391666D01*
X156926666Y-76391666D01*
X156826666Y-76425000D01*
X156760000Y-76491666D01*
X156726666Y-76558333D01*
X156693333Y-76691666D01*
X156693333Y-76791666D01*
X156726666Y-76925000D01*
X156760000Y-76991666D01*
X156826666Y-77058333D01*
X156926666Y-77091666D01*
X157093333Y-77091666D01*
X156460000Y-76391666D02*
X156026666Y-76391666D01*
X156260000Y-76658333D01*
X156160000Y-76658333D01*
X156093333Y-76691666D01*
X156060000Y-76725000D01*
X156026666Y-76791666D01*
X156026666Y-76958333D01*
X156060000Y-77025000D01*
X156093333Y-77058333D01*
X156160000Y-77091666D01*
X156360000Y-77091666D01*
X156426666Y-77058333D01*
X156460000Y-77025000D01*
X155193333Y-76825000D02*
X154660000Y-76825000D01*
X153393333Y-77091666D02*
X153626666Y-76758333D01*
X153793333Y-77091666D02*
X153793333Y-76391666D01*
X153526666Y-76391666D01*
X153460000Y-76425000D01*
X153426666Y-76458333D01*
X153393333Y-76525000D01*
X153393333Y-76625000D01*
X153426666Y-76691666D01*
X153460000Y-76725000D01*
X153526666Y-76758333D01*
X153793333Y-76758333D01*
X157093333Y-78241666D02*
X157093333Y-77541666D01*
X156926666Y-77541666D01*
X156826666Y-77575000D01*
X156760000Y-77641666D01*
X156726666Y-77708333D01*
X156693333Y-77841666D01*
X156693333Y-77941666D01*
X156726666Y-78075000D01*
X156760000Y-78141666D01*
X156826666Y-78208333D01*
X156926666Y-78241666D01*
X157093333Y-78241666D01*
X156060000Y-77541666D02*
X156393333Y-77541666D01*
X156426666Y-77875000D01*
X156393333Y-77841666D01*
X156326666Y-77808333D01*
X156160000Y-77808333D01*
X156093333Y-77841666D01*
X156060000Y-77875000D01*
X156026666Y-77941666D01*
X156026666Y-78108333D01*
X156060000Y-78175000D01*
X156093333Y-78208333D01*
X156160000Y-78241666D01*
X156326666Y-78241666D01*
X156393333Y-78208333D01*
X156426666Y-78175000D01*
X155193333Y-77975000D02*
X154660000Y-77975000D01*
X153426666Y-77575000D02*
X153493333Y-77541666D01*
X153593333Y-77541666D01*
X153693333Y-77575000D01*
X153760000Y-77641666D01*
X153793333Y-77708333D01*
X153826666Y-77841666D01*
X153826666Y-77941666D01*
X153793333Y-78075000D01*
X153760000Y-78141666D01*
X153693333Y-78208333D01*
X153593333Y-78241666D01*
X153526666Y-78241666D01*
X153426666Y-78208333D01*
X153393333Y-78175000D01*
X153393333Y-77941666D01*
X153526666Y-77941666D01*
X157093333Y-79391666D02*
X157093333Y-78691666D01*
X156926666Y-78691666D01*
X156826666Y-78725000D01*
X156760000Y-78791666D01*
X156726666Y-78858333D01*
X156693333Y-78991666D01*
X156693333Y-79091666D01*
X156726666Y-79225000D01*
X156760000Y-79291666D01*
X156826666Y-79358333D01*
X156926666Y-79391666D01*
X157093333Y-79391666D01*
X156093333Y-78691666D02*
X156226666Y-78691666D01*
X156293333Y-78725000D01*
X156326666Y-78758333D01*
X156393333Y-78858333D01*
X156426666Y-78991666D01*
X156426666Y-79258333D01*
X156393333Y-79325000D01*
X156360000Y-79358333D01*
X156293333Y-79391666D01*
X156160000Y-79391666D01*
X156093333Y-79358333D01*
X156060000Y-79325000D01*
X156026666Y-79258333D01*
X156026666Y-79091666D01*
X156060000Y-79025000D01*
X156093333Y-78991666D01*
X156160000Y-78958333D01*
X156293333Y-78958333D01*
X156360000Y-78991666D01*
X156393333Y-79025000D01*
X156426666Y-79091666D01*
X155193333Y-79125000D02*
X154660000Y-79125000D01*
X153560000Y-79025000D02*
X153460000Y-79058333D01*
X153426666Y-79091666D01*
X153393333Y-79158333D01*
X153393333Y-79258333D01*
X153426666Y-79325000D01*
X153460000Y-79358333D01*
X153526666Y-79391666D01*
X153793333Y-79391666D01*
X153793333Y-78691666D01*
X153560000Y-78691666D01*
X153493333Y-78725000D01*
X153460000Y-78758333D01*
X153426666Y-78825000D01*
X153426666Y-78891666D01*
X153460000Y-78958333D01*
X153493333Y-78991666D01*
X153560000Y-79025000D01*
X153793333Y-79025000D01*
X157108333Y-67896428D02*
X157108333Y-67296428D01*
X157108333Y-67582142D02*
X156708333Y-67582142D01*
X156708333Y-67896428D02*
X156708333Y-67296428D01*
X156075000Y-67896428D02*
X156075000Y-67582142D01*
X156108333Y-67525000D01*
X156175000Y-67496428D01*
X156308333Y-67496428D01*
X156375000Y-67525000D01*
X156075000Y-67867857D02*
X156141666Y-67896428D01*
X156308333Y-67896428D01*
X156375000Y-67867857D01*
X156408333Y-67810714D01*
X156408333Y-67753571D01*
X156375000Y-67696428D01*
X156308333Y-67667857D01*
X156141666Y-67667857D01*
X156075000Y-67639285D01*
X155741666Y-67496428D02*
X155741666Y-67896428D01*
X155741666Y-67553571D02*
X155708333Y-67525000D01*
X155641666Y-67496428D01*
X155541666Y-67496428D01*
X155475000Y-67525000D01*
X155441666Y-67582142D01*
X155441666Y-67896428D01*
X154808333Y-67896428D02*
X154808333Y-67296428D01*
X154808333Y-67867857D02*
X154875000Y-67896428D01*
X155008333Y-67896428D01*
X155075000Y-67867857D01*
X155108333Y-67839285D01*
X155141666Y-67782142D01*
X155141666Y-67610714D01*
X155108333Y-67553571D01*
X155075000Y-67525000D01*
X155008333Y-67496428D01*
X154875000Y-67496428D01*
X154808333Y-67525000D01*
X153941666Y-67896428D02*
X153941666Y-67296428D01*
X153708333Y-67725000D01*
X153475000Y-67296428D01*
X153475000Y-67896428D01*
X152875000Y-67867857D02*
X152941666Y-67896428D01*
X153075000Y-67896428D01*
X153141666Y-67867857D01*
X153175000Y-67810714D01*
X153175000Y-67582142D01*
X153141666Y-67525000D01*
X153075000Y-67496428D01*
X152941666Y-67496428D01*
X152875000Y-67525000D01*
X152841666Y-67582142D01*
X152841666Y-67639285D01*
X153175000Y-67696428D01*
X152241666Y-67896428D02*
X152241666Y-67582142D01*
X152275000Y-67525000D01*
X152341666Y-67496428D01*
X152475000Y-67496428D01*
X152541666Y-67525000D01*
X152241666Y-67867857D02*
X152308333Y-67896428D01*
X152475000Y-67896428D01*
X152541666Y-67867857D01*
X152575000Y-67810714D01*
X152575000Y-67753571D01*
X152541666Y-67696428D01*
X152475000Y-67667857D01*
X152308333Y-67667857D01*
X152241666Y-67639285D01*
X151941666Y-67867857D02*
X151875000Y-67896428D01*
X151741666Y-67896428D01*
X151675000Y-67867857D01*
X151641666Y-67810714D01*
X151641666Y-67782142D01*
X151675000Y-67725000D01*
X151741666Y-67696428D01*
X151841666Y-67696428D01*
X151908333Y-67667857D01*
X151941666Y-67610714D01*
X151941666Y-67582142D01*
X151908333Y-67525000D01*
X151841666Y-67496428D01*
X151741666Y-67496428D01*
X151675000Y-67525000D01*
X151041666Y-67496428D02*
X151041666Y-67896428D01*
X151341666Y-67496428D02*
X151341666Y-67810714D01*
X151308333Y-67867857D01*
X151241666Y-67896428D01*
X151141666Y-67896428D01*
X151075000Y-67867857D01*
X151041666Y-67839285D01*
X150708333Y-67896428D02*
X150708333Y-67496428D01*
X150708333Y-67610714D02*
X150675000Y-67553571D01*
X150641666Y-67525000D01*
X150575000Y-67496428D01*
X150508333Y-67496428D01*
X150008333Y-67867857D02*
X150075000Y-67896428D01*
X150208333Y-67896428D01*
X150275000Y-67867857D01*
X150308333Y-67810714D01*
X150308333Y-67582142D01*
X150275000Y-67525000D01*
X150208333Y-67496428D01*
X150075000Y-67496428D01*
X150008333Y-67525000D01*
X149975000Y-67582142D01*
X149975000Y-67639285D01*
X150308333Y-67696428D01*
X149675000Y-67896428D02*
X149675000Y-67496428D01*
X149675000Y-67553571D02*
X149641666Y-67525000D01*
X149575000Y-67496428D01*
X149475000Y-67496428D01*
X149408333Y-67525000D01*
X149375000Y-67582142D01*
X149375000Y-67896428D01*
X149375000Y-67582142D02*
X149341666Y-67525000D01*
X149275000Y-67496428D01*
X149175000Y-67496428D01*
X149108333Y-67525000D01*
X149075000Y-67582142D01*
X149075000Y-67896428D01*
X148475000Y-67867857D02*
X148541666Y-67896428D01*
X148675000Y-67896428D01*
X148741666Y-67867857D01*
X148775000Y-67810714D01*
X148775000Y-67582142D01*
X148741666Y-67525000D01*
X148675000Y-67496428D01*
X148541666Y-67496428D01*
X148475000Y-67525000D01*
X148441666Y-67582142D01*
X148441666Y-67639285D01*
X148775000Y-67696428D01*
X148141666Y-67496428D02*
X148141666Y-67896428D01*
X148141666Y-67553571D02*
X148108333Y-67525000D01*
X148041666Y-67496428D01*
X147941666Y-67496428D01*
X147875000Y-67525000D01*
X147841666Y-67582142D01*
X147841666Y-67896428D01*
X147608333Y-67496428D02*
X147341666Y-67496428D01*
X147508333Y-67296428D02*
X147508333Y-67810714D01*
X147475000Y-67867857D01*
X147408333Y-67896428D01*
X147341666Y-67896428D01*
X146575000Y-67896428D02*
X146575000Y-67296428D01*
X146408333Y-67296428D01*
X146308333Y-67325000D01*
X146241666Y-67382142D01*
X146208333Y-67439285D01*
X146175000Y-67553571D01*
X146175000Y-67639285D01*
X146208333Y-67753571D01*
X146241666Y-67810714D01*
X146308333Y-67867857D01*
X146408333Y-67896428D01*
X146575000Y-67896428D01*
X145608333Y-67867857D02*
X145675000Y-67896428D01*
X145808333Y-67896428D01*
X145875000Y-67867857D01*
X145908333Y-67810714D01*
X145908333Y-67582142D01*
X145875000Y-67525000D01*
X145808333Y-67496428D01*
X145675000Y-67496428D01*
X145608333Y-67525000D01*
X145575000Y-67582142D01*
X145575000Y-67639285D01*
X145908333Y-67696428D01*
X145341666Y-67496428D02*
X145175000Y-67896428D01*
X145008333Y-67496428D01*
X144741666Y-67896428D02*
X144741666Y-67496428D01*
X144741666Y-67296428D02*
X144775000Y-67325000D01*
X144741666Y-67353571D01*
X144708333Y-67325000D01*
X144741666Y-67296428D01*
X144741666Y-67353571D01*
X144108333Y-67867857D02*
X144175000Y-67896428D01*
X144308333Y-67896428D01*
X144375000Y-67867857D01*
X144408333Y-67839285D01*
X144441666Y-67782142D01*
X144441666Y-67610714D01*
X144408333Y-67553571D01*
X144375000Y-67525000D01*
X144308333Y-67496428D01*
X144175000Y-67496428D01*
X144108333Y-67525000D01*
X143541666Y-67867857D02*
X143608333Y-67896428D01*
X143741666Y-67896428D01*
X143808333Y-67867857D01*
X143841666Y-67810714D01*
X143841666Y-67582142D01*
X143808333Y-67525000D01*
X143741666Y-67496428D01*
X143608333Y-67496428D01*
X143541666Y-67525000D01*
X143508333Y-67582142D01*
X143508333Y-67639285D01*
X143841666Y-67696428D01*
X154758333Y-68582142D02*
X154658333Y-68610714D01*
X154625000Y-68639285D01*
X154591666Y-68696428D01*
X154591666Y-68782142D01*
X154625000Y-68839285D01*
X154658333Y-68867857D01*
X154725000Y-68896428D01*
X154991666Y-68896428D01*
X154991666Y-68296428D01*
X154758333Y-68296428D01*
X154691666Y-68325000D01*
X154658333Y-68353571D01*
X154625000Y-68410714D01*
X154625000Y-68467857D01*
X154658333Y-68525000D01*
X154691666Y-68553571D01*
X154758333Y-68582142D01*
X154991666Y-68582142D01*
X154358333Y-68496428D02*
X154191666Y-68896428D01*
X154025000Y-68496428D02*
X154191666Y-68896428D01*
X154258333Y-69039285D01*
X154291666Y-69067857D01*
X154358333Y-69096428D01*
X153025000Y-68296428D02*
X153025000Y-68725000D01*
X153058333Y-68810714D01*
X153125000Y-68867857D01*
X153225000Y-68896428D01*
X153291666Y-68896428D01*
X152591666Y-68896428D02*
X152658333Y-68867857D01*
X152691666Y-68839285D01*
X152725000Y-68782142D01*
X152725000Y-68610714D01*
X152691666Y-68553571D01*
X152658333Y-68525000D01*
X152591666Y-68496428D01*
X152491666Y-68496428D01*
X152425000Y-68525000D01*
X152391666Y-68553571D01*
X152358333Y-68610714D01*
X152358333Y-68782142D01*
X152391666Y-68839285D01*
X152425000Y-68867857D01*
X152491666Y-68896428D01*
X152591666Y-68896428D01*
X152091666Y-68867857D02*
X152025000Y-68896428D01*
X151891666Y-68896428D01*
X151825000Y-68867857D01*
X151791666Y-68810714D01*
X151791666Y-68782142D01*
X151825000Y-68725000D01*
X151891666Y-68696428D01*
X151991666Y-68696428D01*
X152058333Y-68667857D01*
X152091666Y-68610714D01*
X152091666Y-68582142D01*
X152058333Y-68525000D01*
X151991666Y-68496428D01*
X151891666Y-68496428D01*
X151825000Y-68525000D01*
X151491666Y-68896428D02*
X151491666Y-68296428D01*
X151191666Y-68896428D02*
X151191666Y-68582142D01*
X151225000Y-68525000D01*
X151291666Y-68496428D01*
X151391666Y-68496428D01*
X151458333Y-68525000D01*
X151491666Y-68553571D01*
X150558333Y-68496428D02*
X150558333Y-68896428D01*
X150858333Y-68496428D02*
X150858333Y-68810714D01*
X150825000Y-68867857D01*
X150758333Y-68896428D01*
X150658333Y-68896428D01*
X150591666Y-68867857D01*
X150558333Y-68839285D01*
X149925000Y-68896428D02*
X149925000Y-68582142D01*
X149958333Y-68525000D01*
X150025000Y-68496428D01*
X150158333Y-68496428D01*
X150225000Y-68525000D01*
X149925000Y-68867857D02*
X149991666Y-68896428D01*
X150158333Y-68896428D01*
X150225000Y-68867857D01*
X150258333Y-68810714D01*
X150258333Y-68753571D01*
X150225000Y-68696428D01*
X150158333Y-68667857D01*
X149991666Y-68667857D01*
X149925000Y-68639285D01*
X148825000Y-68582142D02*
X148725000Y-68610714D01*
X148691666Y-68639285D01*
X148658333Y-68696428D01*
X148658333Y-68782142D01*
X148691666Y-68839285D01*
X148725000Y-68867857D01*
X148791666Y-68896428D01*
X149058333Y-68896428D01*
X149058333Y-68296428D01*
X148825000Y-68296428D01*
X148758333Y-68325000D01*
X148725000Y-68353571D01*
X148691666Y-68410714D01*
X148691666Y-68467857D01*
X148725000Y-68525000D01*
X148758333Y-68553571D01*
X148825000Y-68582142D01*
X149058333Y-68582142D01*
X148358333Y-68896428D02*
X148358333Y-68496428D01*
X148358333Y-68610714D02*
X148325000Y-68553571D01*
X148291666Y-68525000D01*
X148225000Y-68496428D01*
X148158333Y-68496428D01*
X147825000Y-68896428D02*
X147891666Y-68867857D01*
X147925000Y-68839285D01*
X147958333Y-68782142D01*
X147958333Y-68610714D01*
X147925000Y-68553571D01*
X147891666Y-68525000D01*
X147825000Y-68496428D01*
X147725000Y-68496428D01*
X147658333Y-68525000D01*
X147625000Y-68553571D01*
X147591666Y-68610714D01*
X147591666Y-68782142D01*
X147625000Y-68839285D01*
X147658333Y-68867857D01*
X147725000Y-68896428D01*
X147825000Y-68896428D01*
X147358333Y-68496428D02*
X147225000Y-68896428D01*
X147091666Y-68610714D01*
X146958333Y-68896428D01*
X146825000Y-68496428D01*
X146558333Y-68496428D02*
X146558333Y-68896428D01*
X146558333Y-68553571D02*
X146525000Y-68525000D01*
X146458333Y-68496428D01*
X146358333Y-68496428D01*
X146291666Y-68525000D01*
X146258333Y-68582142D01*
X146258333Y-68896428D01*
X145658333Y-68867857D02*
X145725000Y-68896428D01*
X145858333Y-68896428D01*
X145925000Y-68867857D01*
X145958333Y-68810714D01*
X145958333Y-68582142D01*
X145925000Y-68525000D01*
X145858333Y-68496428D01*
X145725000Y-68496428D01*
X145658333Y-68525000D01*
X145625000Y-68582142D01*
X145625000Y-68639285D01*
X145958333Y-68696428D01*
X155858333Y-69896428D02*
X155858333Y-69296428D01*
X155691666Y-69296428D01*
X155591666Y-69325000D01*
X155525000Y-69382142D01*
X155491666Y-69439285D01*
X155458333Y-69553571D01*
X155458333Y-69639285D01*
X155491666Y-69753571D01*
X155525000Y-69810714D01*
X155591666Y-69867857D01*
X155691666Y-69896428D01*
X155858333Y-69896428D01*
X155158333Y-69896428D02*
X155158333Y-69496428D01*
X155158333Y-69610714D02*
X155125000Y-69553571D01*
X155091666Y-69525000D01*
X155025000Y-69496428D01*
X154958333Y-69496428D01*
X154725000Y-69896428D02*
X154725000Y-69496428D01*
X154725000Y-69296428D02*
X154758333Y-69325000D01*
X154725000Y-69353571D01*
X154691666Y-69325000D01*
X154725000Y-69296428D01*
X154725000Y-69353571D01*
X154458333Y-69496428D02*
X154291666Y-69896428D01*
X154125000Y-69496428D01*
X153591666Y-69867857D02*
X153658333Y-69896428D01*
X153791666Y-69896428D01*
X153858333Y-69867857D01*
X153891666Y-69810714D01*
X153891666Y-69582142D01*
X153858333Y-69525000D01*
X153791666Y-69496428D01*
X153658333Y-69496428D01*
X153591666Y-69525000D01*
X153558333Y-69582142D01*
X153558333Y-69639285D01*
X153891666Y-69696428D01*
X153258333Y-69496428D02*
X153258333Y-69896428D01*
X153258333Y-69553571D02*
X153225000Y-69525000D01*
X153158333Y-69496428D01*
X153058333Y-69496428D01*
X152991666Y-69525000D01*
X152958333Y-69582142D01*
X152958333Y-69896428D01*
X151858333Y-69582142D02*
X151758333Y-69610714D01*
X151725000Y-69639285D01*
X151691666Y-69696428D01*
X151691666Y-69782142D01*
X151725000Y-69839285D01*
X151758333Y-69867857D01*
X151825000Y-69896428D01*
X152091666Y-69896428D01*
X152091666Y-69296428D01*
X151858333Y-69296428D01*
X151791666Y-69325000D01*
X151758333Y-69353571D01*
X151725000Y-69410714D01*
X151725000Y-69467857D01*
X151758333Y-69525000D01*
X151791666Y-69553571D01*
X151858333Y-69582142D01*
X152091666Y-69582142D01*
X151458333Y-69496428D02*
X151291666Y-69896428D01*
X151125000Y-69496428D02*
X151291666Y-69896428D01*
X151358333Y-70039285D01*
X151391666Y-70067857D01*
X151458333Y-70096428D01*
X150358333Y-69725000D02*
X150025000Y-69725000D01*
X150425000Y-69896428D02*
X150191666Y-69296428D01*
X149958333Y-69896428D01*
X149825000Y-69296428D02*
X149425000Y-69296428D01*
X149625000Y-69896428D02*
X149625000Y-69296428D01*
X149191666Y-69582142D02*
X148958333Y-69582142D01*
X148858333Y-69896428D02*
X149191666Y-69896428D01*
X149191666Y-69296428D01*
X148858333Y-69296428D01*
X148558333Y-69896428D02*
X148558333Y-69296428D01*
X148325000Y-69725000D01*
X148091666Y-69296428D01*
X148091666Y-69896428D01*
X147391666Y-69325000D02*
X147458333Y-69296428D01*
X147558333Y-69296428D01*
X147658333Y-69325000D01*
X147725000Y-69382142D01*
X147758333Y-69439285D01*
X147791666Y-69553571D01*
X147791666Y-69639285D01*
X147758333Y-69753571D01*
X147725000Y-69810714D01*
X147658333Y-69867857D01*
X147558333Y-69896428D01*
X147491666Y-69896428D01*
X147391666Y-69867857D01*
X147358333Y-69839285D01*
X147358333Y-69639285D01*
X147491666Y-69639285D01*
X147091666Y-69725000D02*
X146758333Y-69725000D01*
X147158333Y-69896428D02*
X146925000Y-69296428D01*
X146691666Y-69896428D01*
X146525000Y-69296428D02*
X146091666Y-69296428D01*
X146325000Y-69525000D01*
X146225000Y-69525000D01*
X146158333Y-69553571D01*
X146125000Y-69582142D01*
X146091666Y-69639285D01*
X146091666Y-69782142D01*
X146125000Y-69839285D01*
X146158333Y-69867857D01*
X146225000Y-69896428D01*
X146425000Y-69896428D01*
X146491666Y-69867857D01*
X146525000Y-69839285D01*
X145825000Y-69353571D02*
X145791666Y-69325000D01*
X145725000Y-69296428D01*
X145558333Y-69296428D01*
X145491666Y-69325000D01*
X145458333Y-69353571D01*
X145425000Y-69410714D01*
X145425000Y-69467857D01*
X145458333Y-69553571D01*
X145858333Y-69896428D01*
X145425000Y-69896428D01*
X145025000Y-69553571D02*
X145091666Y-69525000D01*
X145125000Y-69496428D01*
X145158333Y-69439285D01*
X145158333Y-69410714D01*
X145125000Y-69353571D01*
X145091666Y-69325000D01*
X145025000Y-69296428D01*
X144891666Y-69296428D01*
X144825000Y-69325000D01*
X144791666Y-69353571D01*
X144758333Y-69410714D01*
X144758333Y-69439285D01*
X144791666Y-69496428D01*
X144825000Y-69525000D01*
X144891666Y-69553571D01*
X145025000Y-69553571D01*
X145091666Y-69582142D01*
X145125000Y-69610714D01*
X145158333Y-69667857D01*
X145158333Y-69782142D01*
X145125000Y-69839285D01*
X145091666Y-69867857D01*
X145025000Y-69896428D01*
X144891666Y-69896428D01*
X144825000Y-69867857D01*
X144791666Y-69839285D01*
X144758333Y-69782142D01*
X144758333Y-69667857D01*
X144791666Y-69610714D01*
X144825000Y-69582142D01*
X144891666Y-69553571D01*
X138092857Y-93114285D02*
X138092857Y-92364285D01*
X137307142Y-93114285D02*
X137557142Y-92757142D01*
X137735714Y-93114285D02*
X137735714Y-92364285D01*
X137450000Y-92364285D01*
X137378571Y-92400000D01*
X137342857Y-92435714D01*
X137307142Y-92507142D01*
X137307142Y-92614285D01*
X137342857Y-92685714D01*
X137378571Y-92721428D01*
X137450000Y-92757142D01*
X137735714Y-92757142D01*
X136485714Y-93185714D02*
X136557142Y-93150000D01*
X136628571Y-93078571D01*
X136735714Y-92971428D01*
X136807142Y-92935714D01*
X136878571Y-92935714D01*
X136842857Y-93114285D02*
X136914285Y-93078571D01*
X136985714Y-93007142D01*
X137021428Y-92864285D01*
X137021428Y-92614285D01*
X136985714Y-92471428D01*
X136914285Y-92400000D01*
X136842857Y-92364285D01*
X136700000Y-92364285D01*
X136628571Y-92400000D01*
X136557142Y-92471428D01*
X136521428Y-92614285D01*
X136521428Y-92864285D01*
X136557142Y-93007142D01*
X136628571Y-93078571D01*
X136700000Y-93114285D01*
X136842857Y-93114285D01*
X135703571Y-93114285D02*
X135703571Y-92364285D01*
X135453571Y-92900000D01*
X135203571Y-92364285D01*
X135203571Y-93114285D01*
X134703571Y-92364285D02*
X134560714Y-92364285D01*
X134489285Y-92400000D01*
X134417857Y-92471428D01*
X134382142Y-92614285D01*
X134382142Y-92864285D01*
X134417857Y-93007142D01*
X134489285Y-93078571D01*
X134560714Y-93114285D01*
X134703571Y-93114285D01*
X134775000Y-93078571D01*
X134846428Y-93007142D01*
X134882142Y-92864285D01*
X134882142Y-92614285D01*
X134846428Y-92471428D01*
X134775000Y-92400000D01*
X134703571Y-92364285D01*
X134096428Y-93078571D02*
X133989285Y-93114285D01*
X133810714Y-93114285D01*
X133739285Y-93078571D01*
X133703571Y-93042857D01*
X133667857Y-92971428D01*
X133667857Y-92900000D01*
X133703571Y-92828571D01*
X133739285Y-92792857D01*
X133810714Y-92757142D01*
X133953571Y-92721428D01*
X134025000Y-92685714D01*
X134060714Y-92650000D01*
X134096428Y-92578571D01*
X134096428Y-92507142D01*
X134060714Y-92435714D01*
X134025000Y-92400000D01*
X133953571Y-92364285D01*
X133775000Y-92364285D01*
X133667857Y-92400000D01*
X133346428Y-93114285D02*
X133346428Y-92364285D01*
X138828571Y-86214285D02*
X138828571Y-85464285D01*
X138578571Y-86000000D01*
X138328571Y-85464285D01*
X138328571Y-86214285D01*
X137971428Y-86214285D02*
X137971428Y-85464285D01*
X137650000Y-86178571D02*
X137542857Y-86214285D01*
X137364285Y-86214285D01*
X137292857Y-86178571D01*
X137257142Y-86142857D01*
X137221428Y-86071428D01*
X137221428Y-86000000D01*
X137257142Y-85928571D01*
X137292857Y-85892857D01*
X137364285Y-85857142D01*
X137507142Y-85821428D01*
X137578571Y-85785714D01*
X137614285Y-85750000D01*
X137650000Y-85678571D01*
X137650000Y-85607142D01*
X137614285Y-85535714D01*
X137578571Y-85500000D01*
X137507142Y-85464285D01*
X137328571Y-85464285D01*
X137221428Y-85500000D01*
X136757142Y-85464285D02*
X136614285Y-85464285D01*
X136542857Y-85500000D01*
X136471428Y-85571428D01*
X136435714Y-85714285D01*
X136435714Y-85964285D01*
X136471428Y-86107142D01*
X136542857Y-86178571D01*
X136614285Y-86214285D01*
X136757142Y-86214285D01*
X136828571Y-86178571D01*
X136900000Y-86107142D01*
X136935714Y-85964285D01*
X136935714Y-85714285D01*
X136900000Y-85571428D01*
X136828571Y-85500000D01*
X136757142Y-85464285D01*
X132442857Y-93092857D02*
X132478571Y-93128571D01*
X132585714Y-93164285D01*
X132657142Y-93164285D01*
X132764285Y-93128571D01*
X132835714Y-93057142D01*
X132871428Y-92985714D01*
X132907142Y-92842857D01*
X132907142Y-92735714D01*
X132871428Y-92592857D01*
X132835714Y-92521428D01*
X132764285Y-92450000D01*
X132657142Y-92414285D01*
X132585714Y-92414285D01*
X132478571Y-92450000D01*
X132442857Y-92485714D01*
X132157142Y-93128571D02*
X132050000Y-93164285D01*
X131871428Y-93164285D01*
X131800000Y-93128571D01*
X131764285Y-93092857D01*
X131728571Y-93021428D01*
X131728571Y-92950000D01*
X131764285Y-92878571D01*
X131800000Y-92842857D01*
X131871428Y-92807142D01*
X132014285Y-92771428D01*
X132085714Y-92735714D01*
X132121428Y-92700000D01*
X132157142Y-92628571D01*
X132157142Y-92557142D01*
X132121428Y-92485714D01*
X132085714Y-92450000D01*
X132014285Y-92414285D01*
X131835714Y-92414285D01*
X131728571Y-92450000D01*
X131407142Y-93164285D02*
X131407142Y-92414285D01*
X130978571Y-93164285D01*
X130978571Y-92414285D01*
X135889285Y-86203571D02*
X135782142Y-86239285D01*
X135603571Y-86239285D01*
X135532142Y-86203571D01*
X135496428Y-86167857D01*
X135460714Y-86096428D01*
X135460714Y-86025000D01*
X135496428Y-85953571D01*
X135532142Y-85917857D01*
X135603571Y-85882142D01*
X135746428Y-85846428D01*
X135817857Y-85810714D01*
X135853571Y-85775000D01*
X135889285Y-85703571D01*
X135889285Y-85632142D01*
X135853571Y-85560714D01*
X135817857Y-85525000D01*
X135746428Y-85489285D01*
X135567857Y-85489285D01*
X135460714Y-85525000D01*
X134710714Y-86167857D02*
X134746428Y-86203571D01*
X134853571Y-86239285D01*
X134925000Y-86239285D01*
X135032142Y-86203571D01*
X135103571Y-86132142D01*
X135139285Y-86060714D01*
X135175000Y-85917857D01*
X135175000Y-85810714D01*
X135139285Y-85667857D01*
X135103571Y-85596428D01*
X135032142Y-85525000D01*
X134925000Y-85489285D01*
X134853571Y-85489285D01*
X134746428Y-85525000D01*
X134710714Y-85560714D01*
X134389285Y-86239285D02*
X134389285Y-85489285D01*
X133960714Y-86239285D02*
X134282142Y-85810714D01*
X133960714Y-85489285D02*
X134389285Y-85917857D01*
X131257142Y-86142857D02*
X131292857Y-86178571D01*
X131400000Y-86214285D01*
X131471428Y-86214285D01*
X131578571Y-86178571D01*
X131650000Y-86107142D01*
X131685714Y-86035714D01*
X131721428Y-85892857D01*
X131721428Y-85785714D01*
X131685714Y-85642857D01*
X131650000Y-85571428D01*
X131578571Y-85500000D01*
X131471428Y-85464285D01*
X131400000Y-85464285D01*
X131292857Y-85500000D01*
X131257142Y-85535714D01*
X130935714Y-85821428D02*
X130685714Y-85821428D01*
X130578571Y-86214285D02*
X130935714Y-86214285D01*
X130935714Y-85464285D01*
X130578571Y-85464285D01*
X126464285Y-89903571D02*
X126464285Y-90367857D01*
X126750000Y-90117857D01*
X126750000Y-90225000D01*
X126785714Y-90296428D01*
X126821428Y-90332142D01*
X126892857Y-90367857D01*
X127071428Y-90367857D01*
X127142857Y-90332142D01*
X127178571Y-90296428D01*
X127214285Y-90225000D01*
X127214285Y-90010714D01*
X127178571Y-89939285D01*
X127142857Y-89903571D01*
X127142857Y-90689285D02*
X127178571Y-90725000D01*
X127214285Y-90689285D01*
X127178571Y-90653571D01*
X127142857Y-90689285D01*
X127214285Y-90689285D01*
X126464285Y-90975000D02*
X126464285Y-91439285D01*
X126750000Y-91189285D01*
X126750000Y-91296428D01*
X126785714Y-91367857D01*
X126821428Y-91403571D01*
X126892857Y-91439285D01*
X127071428Y-91439285D01*
X127142857Y-91403571D01*
X127178571Y-91367857D01*
X127214285Y-91296428D01*
X127214285Y-91082142D01*
X127178571Y-91010714D01*
X127142857Y-90975000D01*
X126714285Y-91689285D02*
X127214285Y-91867857D01*
X126714285Y-92046428D01*
X126500000Y-87503571D02*
X126464285Y-87432142D01*
X126464285Y-87325000D01*
X126500000Y-87217857D01*
X126571428Y-87146428D01*
X126642857Y-87110714D01*
X126785714Y-87075000D01*
X126892857Y-87075000D01*
X127035714Y-87110714D01*
X127107142Y-87146428D01*
X127178571Y-87217857D01*
X127214285Y-87325000D01*
X127214285Y-87396428D01*
X127178571Y-87503571D01*
X127142857Y-87539285D01*
X126892857Y-87539285D01*
X126892857Y-87396428D01*
X127214285Y-87860714D02*
X126464285Y-87860714D01*
X127214285Y-88289285D01*
X126464285Y-88289285D01*
X127214285Y-88646428D02*
X126464285Y-88646428D01*
X126464285Y-88825000D01*
X126500000Y-88932142D01*
X126571428Y-89003571D01*
X126642857Y-89039285D01*
X126785714Y-89075000D01*
X126892857Y-89075000D01*
X127035714Y-89039285D01*
X127107142Y-89003571D01*
X127178571Y-88932142D01*
X127214285Y-88825000D01*
X127214285Y-88646428D01*
D11*
X128070000Y-86830000D02*
X128070000Y-89430000D01*
X128070000Y-86830000D02*
X138350000Y-86830000D01*
X138350000Y-86830000D02*
X138350000Y-92030000D01*
X130670000Y-92030000D02*
X138350000Y-92030000D01*
X130670000Y-89430000D02*
X130670000Y-92030000D01*
X128070000Y-89430000D02*
X130670000Y-89430000D01*
X128070000Y-92030000D02*
X129400000Y-92030000D01*
X128070000Y-90700000D02*
X128070000Y-92030000D01*
X127622000Y-86382000D02*
X127622000Y-114893500D01*
X127622000Y-86382000D02*
X143179500Y-86382000D01*
X143179500Y-86382000D02*
X143179500Y-114893500D01*
X143179500Y-114893500D02*
X127622000Y-114893500D01*
X136368749Y-116560000D02*
X136891253Y-116560000D01*
X136368749Y-115140000D02*
X136891253Y-115140000D01*
X136282066Y-96110000D02*
X136624600Y-96110000D01*
X136282066Y-95090000D02*
X136624600Y-95090000D01*
X136282066Y-105730000D02*
X136624600Y-105730000D01*
X136282066Y-106750000D02*
X136624600Y-106750000D01*
X136615000Y-124435000D02*
X135355000Y-124435000D01*
X129795000Y-124435000D02*
X131055000Y-124435000D01*
X136615000Y-120675000D02*
X136615000Y-124435000D01*
X129795000Y-118425000D02*
X129795000Y-124435000D01*
X129718747Y-116560000D02*
X130241251Y-116560000D01*
X129718747Y-115140000D02*
X130241251Y-115140000D01*
D12*
X127033333Y-85177380D02*
X127033333Y-85891666D01*
X127080952Y-86034523D01*
X127176190Y-86129761D01*
X127319047Y-86177380D01*
X127414285Y-86177380D01*
X126652380Y-85177380D02*
X126033333Y-85177380D01*
X126366666Y-85558333D01*
X126223809Y-85558333D01*
X126128571Y-85605952D01*
X126080952Y-85653571D01*
X126033333Y-85748809D01*
X126033333Y-85986904D01*
X126080952Y-86082142D01*
X126128571Y-86129761D01*
X126223809Y-86177380D01*
X126509523Y-86177380D01*
X126604761Y-86129761D01*
X126652380Y-86082142D01*
X136796667Y-117857142D02*
X136844286Y-117904761D01*
X136987143Y-117952380D01*
X137082381Y-117952380D01*
X137225239Y-117904761D01*
X137320477Y-117809523D01*
X137368096Y-117714285D01*
X137415715Y-117523809D01*
X137415715Y-117380952D01*
X137368096Y-117190476D01*
X137320477Y-117095238D01*
X137225239Y-117000000D01*
X137082381Y-116952380D01*
X136987143Y-116952380D01*
X136844286Y-117000000D01*
X136796667Y-117047619D01*
X135939524Y-117285714D02*
X135939524Y-117952380D01*
X136177620Y-116904761D02*
X136415715Y-117619047D01*
X135796667Y-117619047D01*
X137701429Y-114652380D02*
X138272858Y-114652380D01*
X137987143Y-114652380D02*
X137987143Y-113652380D01*
X138082381Y-113795238D01*
X138177620Y-113890476D01*
X138272858Y-113938095D01*
X137082381Y-113652380D02*
X136987143Y-113652380D01*
X136891905Y-113700000D01*
X136844286Y-113747619D01*
X136796667Y-113842857D01*
X136749048Y-114033333D01*
X136749048Y-114271428D01*
X136796667Y-114461904D01*
X136844286Y-114557142D01*
X136891905Y-114604761D01*
X136987143Y-114652380D01*
X137082381Y-114652380D01*
X137177620Y-114604761D01*
X137225239Y-114557142D01*
X137272858Y-114461904D01*
X137320477Y-114271428D01*
X137320477Y-114033333D01*
X137272858Y-113842857D01*
X137225239Y-113747619D01*
X137177620Y-113700000D01*
X137082381Y-113652380D01*
X135891905Y-113985714D02*
X135891905Y-114652380D01*
X136320477Y-113985714D02*
X136320477Y-114509523D01*
X136272858Y-114604761D01*
X136177620Y-114652380D01*
X136034762Y-114652380D01*
X135939524Y-114604761D01*
X135891905Y-114557142D01*
X135082381Y-114128571D02*
X135415715Y-114128571D01*
X135415715Y-114652380D02*
X135415715Y-113652380D01*
X134939524Y-113652380D01*
X135169453Y-116937428D02*
X134407548Y-116937428D01*
X134788501Y-117318380D02*
X134788501Y-116556476D01*
X136619999Y-97387142D02*
X136667618Y-97434761D01*
X136810475Y-97482380D01*
X136905713Y-97482380D01*
X137048571Y-97434761D01*
X137143809Y-97339523D01*
X137191428Y-97244285D01*
X137239047Y-97053809D01*
X137239047Y-96910952D01*
X137191428Y-96720476D01*
X137143809Y-96625238D01*
X137048571Y-96530000D01*
X136905713Y-96482380D01*
X136810475Y-96482380D01*
X136667618Y-96530000D01*
X136619999Y-96577619D01*
X135667618Y-97482380D02*
X136239047Y-97482380D01*
X135953333Y-97482380D02*
X135953333Y-96482380D01*
X136048571Y-96625238D01*
X136143809Y-96720476D01*
X136239047Y-96768095D01*
X138096190Y-93717619D02*
X138048571Y-93670000D01*
X137953333Y-93622380D01*
X137715237Y-93622380D01*
X137619999Y-93670000D01*
X137572380Y-93717619D01*
X137524761Y-93812857D01*
X137524761Y-93908095D01*
X137572380Y-94050952D01*
X138143809Y-94622380D01*
X137524761Y-94622380D01*
X137143809Y-93717619D02*
X137096190Y-93670000D01*
X137000952Y-93622380D01*
X136762856Y-93622380D01*
X136667618Y-93670000D01*
X136619999Y-93717619D01*
X136572380Y-93812857D01*
X136572380Y-93908095D01*
X136619999Y-94050952D01*
X137191428Y-94622380D01*
X136572380Y-94622380D01*
X136143809Y-93955714D02*
X136143809Y-94955714D01*
X136143809Y-94003333D02*
X136048571Y-93955714D01*
X135858094Y-93955714D01*
X135762856Y-94003333D01*
X135715237Y-94050952D01*
X135667618Y-94146190D01*
X135667618Y-94431904D01*
X135715237Y-94527142D01*
X135762856Y-94574761D01*
X135858094Y-94622380D01*
X136048571Y-94622380D01*
X136143809Y-94574761D01*
X134905713Y-94098571D02*
X135239047Y-94098571D01*
X135239047Y-94622380D02*
X135239047Y-93622380D01*
X134762856Y-93622380D01*
X136716666Y-105332142D02*
X136764285Y-105379761D01*
X136907142Y-105427380D01*
X137002380Y-105427380D01*
X137145238Y-105379761D01*
X137240476Y-105284523D01*
X137288095Y-105189285D01*
X137335714Y-104998809D01*
X137335714Y-104855952D01*
X137288095Y-104665476D01*
X137240476Y-104570238D01*
X137145238Y-104475000D01*
X137002380Y-104427380D01*
X136907142Y-104427380D01*
X136764285Y-104475000D01*
X136716666Y-104522619D01*
X136335714Y-104522619D02*
X136288095Y-104475000D01*
X136192857Y-104427380D01*
X135954761Y-104427380D01*
X135859523Y-104475000D01*
X135811904Y-104522619D01*
X135764285Y-104617857D01*
X135764285Y-104713095D01*
X135811904Y-104855952D01*
X136383333Y-105427380D01*
X135764285Y-105427380D01*
X138017857Y-107272619D02*
X137970238Y-107225000D01*
X137875000Y-107177380D01*
X137636904Y-107177380D01*
X137541666Y-107225000D01*
X137494047Y-107272619D01*
X137446428Y-107367857D01*
X137446428Y-107463095D01*
X137494047Y-107605952D01*
X138065476Y-108177380D01*
X137446428Y-108177380D01*
X137065476Y-107272619D02*
X137017857Y-107225000D01*
X136922619Y-107177380D01*
X136684523Y-107177380D01*
X136589285Y-107225000D01*
X136541666Y-107272619D01*
X136494047Y-107367857D01*
X136494047Y-107463095D01*
X136541666Y-107605952D01*
X137113095Y-108177380D01*
X136494047Y-108177380D01*
X136065476Y-107510714D02*
X136065476Y-108510714D01*
X136065476Y-107558333D02*
X135970238Y-107510714D01*
X135779761Y-107510714D01*
X135684523Y-107558333D01*
X135636904Y-107605952D01*
X135589285Y-107701190D01*
X135589285Y-107986904D01*
X135636904Y-108082142D01*
X135684523Y-108129761D01*
X135779761Y-108177380D01*
X135970238Y-108177380D01*
X136065476Y-108129761D01*
X134827380Y-107653571D02*
X135160714Y-107653571D01*
X135160714Y-108177380D02*
X135160714Y-107177380D01*
X134684523Y-107177380D01*
X128157380Y-121763095D02*
X128966904Y-121763095D01*
X129062142Y-121810714D01*
X129109761Y-121858333D01*
X129157380Y-121953571D01*
X129157380Y-122144047D01*
X129109761Y-122239285D01*
X129062142Y-122286904D01*
X128966904Y-122334523D01*
X128157380Y-122334523D01*
X128252619Y-122763095D02*
X128205000Y-122810714D01*
X128157380Y-122905952D01*
X128157380Y-123144047D01*
X128205000Y-123239285D01*
X128252619Y-123286904D01*
X128347857Y-123334523D01*
X128443095Y-123334523D01*
X128585952Y-123286904D01*
X129157380Y-122715476D01*
X129157380Y-123334523D01*
X138157380Y-118882142D02*
X138157380Y-118405952D01*
X137157380Y-118405952D01*
X138157380Y-119215476D02*
X137157380Y-119215476D01*
X137871666Y-119548809D01*
X137157380Y-119882142D01*
X138157380Y-119882142D01*
X138157380Y-120882142D02*
X138157380Y-120310714D01*
X138157380Y-120596428D02*
X137157380Y-120596428D01*
X137300238Y-120501190D01*
X137395476Y-120405952D01*
X137443095Y-120310714D01*
X138157380Y-121834523D02*
X138157380Y-121263095D01*
X138157380Y-121548809D02*
X137157380Y-121548809D01*
X137300238Y-121453571D01*
X137395476Y-121358333D01*
X137443095Y-121263095D01*
X137157380Y-122167857D02*
X137157380Y-122834523D01*
X138157380Y-122405952D01*
X138252619Y-122977380D02*
X138252619Y-123739285D01*
X137157380Y-123882142D02*
X137157380Y-124501190D01*
X137538333Y-124167857D01*
X137538333Y-124310714D01*
X137585952Y-124405952D01*
X137633571Y-124453571D01*
X137728809Y-124501190D01*
X137966904Y-124501190D01*
X138062142Y-124453571D01*
X138109761Y-124405952D01*
X138157380Y-124310714D01*
X138157380Y-124025000D01*
X138109761Y-123929761D01*
X138062142Y-123882142D01*
X138062142Y-124929761D02*
X138109761Y-124977380D01*
X138157380Y-124929761D01*
X138109761Y-124882142D01*
X138062142Y-124929761D01*
X138157380Y-124929761D01*
X137157380Y-125310714D02*
X137157380Y-125929761D01*
X137538333Y-125596428D01*
X137538333Y-125739285D01*
X137585952Y-125834523D01*
X137633571Y-125882142D01*
X137728809Y-125929761D01*
X137966904Y-125929761D01*
X138062142Y-125882142D01*
X138109761Y-125834523D01*
X138157380Y-125739285D01*
X138157380Y-125453571D01*
X138109761Y-125358333D01*
X138062142Y-125310714D01*
X137490714Y-126263095D02*
X138157380Y-126501190D01*
X137490714Y-126739285D01*
X130146665Y-117857142D02*
X130194284Y-117904761D01*
X130337141Y-117952380D01*
X130432379Y-117952380D01*
X130575237Y-117904761D01*
X130670475Y-117809523D01*
X130718094Y-117714285D01*
X130765713Y-117523809D01*
X130765713Y-117380952D01*
X130718094Y-117190476D01*
X130670475Y-117095238D01*
X130575237Y-117000000D01*
X130432379Y-116952380D01*
X130337141Y-116952380D01*
X130194284Y-117000000D01*
X130146665Y-117047619D01*
X129813332Y-116952380D02*
X129194284Y-116952380D01*
X129527618Y-117333333D01*
X129384760Y-117333333D01*
X129289522Y-117380952D01*
X129241903Y-117428571D01*
X129194284Y-117523809D01*
X129194284Y-117761904D01*
X129241903Y-117857142D01*
X129289522Y-117904761D01*
X129384760Y-117952380D01*
X129670475Y-117952380D01*
X129765713Y-117904761D01*
X129813332Y-117857142D01*
X131051427Y-114652380D02*
X131622856Y-114652380D01*
X131337141Y-114652380D02*
X131337141Y-113652380D01*
X131432379Y-113795238D01*
X131527618Y-113890476D01*
X131622856Y-113938095D01*
X130432379Y-113652380D02*
X130337141Y-113652380D01*
X130241903Y-113700000D01*
X130194284Y-113747619D01*
X130146665Y-113842857D01*
X130099046Y-114033333D01*
X130099046Y-114271428D01*
X130146665Y-114461904D01*
X130194284Y-114557142D01*
X130241903Y-114604761D01*
X130337141Y-114652380D01*
X130432379Y-114652380D01*
X130527618Y-114604761D01*
X130575237Y-114557142D01*
X130622856Y-114461904D01*
X130670475Y-114271428D01*
X130670475Y-114033333D01*
X130622856Y-113842857D01*
X130575237Y-113747619D01*
X130527618Y-113700000D01*
X130432379Y-113652380D01*
X129241903Y-113985714D02*
X129241903Y-114652380D01*
X129670475Y-113985714D02*
X129670475Y-114509523D01*
X129622856Y-114604761D01*
X129527618Y-114652380D01*
X129384760Y-114652380D01*
X129289522Y-114604761D01*
X129241903Y-114557142D01*
X128432379Y-114128571D02*
X128765713Y-114128571D01*
X128765713Y-114652380D02*
X128765713Y-113652380D01*
X128289522Y-113652380D01*
M02*
