G04 #@! TF.GenerationSoftware,KiCad,Pcbnew,(5.1.4-0-10_14)*
G04 #@! TF.CreationDate,2020-05-04T21:59:13+12:00*
G04 #@! TF.ProjectId,Hand Mesurement Device,48616e64-204d-4657-9375-72656d656e74,rev?*
G04 #@! TF.SameCoordinates,Original*
G04 #@! TF.FileFunction,Soldermask,Top*
G04 #@! TF.FilePolarity,Negative*
%FSLAX46Y46*%
G04 Gerber Fmt 4.6, Leading zero omitted, Abs format (unit mm)*
G04 Created by KiCad (PCBNEW (5.1.4-0-10_14)) date 2020-05-04 21:59:13*
%MOMM*%
%LPD*%
G04 APERTURE LIST*
%ADD10C,0.100000*%
G04 APERTURE END LIST*
D10*
G36*
X135958674Y-126053465D02*
G01*
X135996367Y-126064899D01*
X136031103Y-126083466D01*
X136061548Y-126108452D01*
X136086534Y-126138897D01*
X136105101Y-126173633D01*
X136116535Y-126211326D01*
X136121000Y-126256661D01*
X136121000Y-127343339D01*
X136116535Y-127388674D01*
X136105101Y-127426367D01*
X136086534Y-127461103D01*
X136061548Y-127491548D01*
X136031103Y-127516534D01*
X135996367Y-127535101D01*
X135958674Y-127546535D01*
X135913339Y-127551000D01*
X135076661Y-127551000D01*
X135031326Y-127546535D01*
X134993633Y-127535101D01*
X134958897Y-127516534D01*
X134928452Y-127491548D01*
X134903466Y-127461103D01*
X134884899Y-127426367D01*
X134873465Y-127388674D01*
X134869000Y-127343339D01*
X134869000Y-126256661D01*
X134873465Y-126211326D01*
X134884899Y-126173633D01*
X134903466Y-126138897D01*
X134928452Y-126108452D01*
X134958897Y-126083466D01*
X134993633Y-126064899D01*
X135031326Y-126053465D01*
X135076661Y-126049000D01*
X135913339Y-126049000D01*
X135958674Y-126053465D01*
X135958674Y-126053465D01*
G37*
G36*
X133908674Y-126053465D02*
G01*
X133946367Y-126064899D01*
X133981103Y-126083466D01*
X134011548Y-126108452D01*
X134036534Y-126138897D01*
X134055101Y-126173633D01*
X134066535Y-126211326D01*
X134071000Y-126256661D01*
X134071000Y-127343339D01*
X134066535Y-127388674D01*
X134055101Y-127426367D01*
X134036534Y-127461103D01*
X134011548Y-127491548D01*
X133981103Y-127516534D01*
X133946367Y-127535101D01*
X133908674Y-127546535D01*
X133863339Y-127551000D01*
X133026661Y-127551000D01*
X132981326Y-127546535D01*
X132943633Y-127535101D01*
X132908897Y-127516534D01*
X132878452Y-127491548D01*
X132853466Y-127461103D01*
X132834899Y-127426367D01*
X132823465Y-127388674D01*
X132819000Y-127343339D01*
X132819000Y-126256661D01*
X132823465Y-126211326D01*
X132834899Y-126173633D01*
X132853466Y-126138897D01*
X132878452Y-126108452D01*
X132908897Y-126083466D01*
X132943633Y-126064899D01*
X132981326Y-126053465D01*
X133026661Y-126049000D01*
X133863339Y-126049000D01*
X133908674Y-126053465D01*
X133908674Y-126053465D01*
G37*
G36*
X144865443Y-125130519D02*
G01*
X144931627Y-125137037D01*
X145101466Y-125188557D01*
X145257991Y-125272222D01*
X145293729Y-125301552D01*
X145395186Y-125384814D01*
X145478448Y-125486271D01*
X145507778Y-125522009D01*
X145591443Y-125678534D01*
X145642963Y-125848373D01*
X145660359Y-126025000D01*
X145642963Y-126201627D01*
X145591443Y-126371466D01*
X145507778Y-126527991D01*
X145478448Y-126563729D01*
X145395186Y-126665186D01*
X145293729Y-126748448D01*
X145257991Y-126777778D01*
X145101466Y-126861443D01*
X144931627Y-126912963D01*
X144865443Y-126919481D01*
X144799260Y-126926000D01*
X144710740Y-126926000D01*
X144644557Y-126919481D01*
X144578373Y-126912963D01*
X144408534Y-126861443D01*
X144252009Y-126777778D01*
X144216271Y-126748448D01*
X144114814Y-126665186D01*
X144031552Y-126563729D01*
X144002222Y-126527991D01*
X143918557Y-126371466D01*
X143867037Y-126201627D01*
X143849641Y-126025000D01*
X143867037Y-125848373D01*
X143918557Y-125678534D01*
X144002222Y-125522009D01*
X144031552Y-125486271D01*
X144114814Y-125384814D01*
X144216271Y-125301552D01*
X144252009Y-125272222D01*
X144408534Y-125188557D01*
X144578373Y-125137037D01*
X144644557Y-125130519D01*
X144710740Y-125124000D01*
X144799260Y-125124000D01*
X144865443Y-125130519D01*
X144865443Y-125130519D01*
G37*
G36*
X142325443Y-125130519D02*
G01*
X142391627Y-125137037D01*
X142561466Y-125188557D01*
X142717991Y-125272222D01*
X142753729Y-125301552D01*
X142855186Y-125384814D01*
X142938448Y-125486271D01*
X142967778Y-125522009D01*
X143051443Y-125678534D01*
X143102963Y-125848373D01*
X143120359Y-126025000D01*
X143102963Y-126201627D01*
X143051443Y-126371466D01*
X142967778Y-126527991D01*
X142938448Y-126563729D01*
X142855186Y-126665186D01*
X142753729Y-126748448D01*
X142717991Y-126777778D01*
X142561466Y-126861443D01*
X142391627Y-126912963D01*
X142325443Y-126919481D01*
X142259260Y-126926000D01*
X142170740Y-126926000D01*
X142104557Y-126919481D01*
X142038373Y-126912963D01*
X141868534Y-126861443D01*
X141712009Y-126777778D01*
X141676271Y-126748448D01*
X141574814Y-126665186D01*
X141491552Y-126563729D01*
X141462222Y-126527991D01*
X141378557Y-126371466D01*
X141327037Y-126201627D01*
X141309641Y-126025000D01*
X141327037Y-125848373D01*
X141378557Y-125678534D01*
X141462222Y-125522009D01*
X141491552Y-125486271D01*
X141574814Y-125384814D01*
X141676271Y-125301552D01*
X141712009Y-125272222D01*
X141868534Y-125188557D01*
X142038373Y-125137037D01*
X142104557Y-125130519D01*
X142170740Y-125124000D01*
X142259260Y-125124000D01*
X142325443Y-125130519D01*
X142325443Y-125130519D01*
G37*
G36*
X140576000Y-126926000D02*
G01*
X138774000Y-126926000D01*
X138774000Y-125124000D01*
X140576000Y-125124000D01*
X140576000Y-126926000D01*
X140576000Y-126926000D01*
G37*
G36*
X149945443Y-125130519D02*
G01*
X150011627Y-125137037D01*
X150181466Y-125188557D01*
X150337991Y-125272222D01*
X150373729Y-125301552D01*
X150475186Y-125384814D01*
X150558448Y-125486271D01*
X150587778Y-125522009D01*
X150671443Y-125678534D01*
X150722963Y-125848373D01*
X150740359Y-126025000D01*
X150722963Y-126201627D01*
X150671443Y-126371466D01*
X150587778Y-126527991D01*
X150558448Y-126563729D01*
X150475186Y-126665186D01*
X150373729Y-126748448D01*
X150337991Y-126777778D01*
X150181466Y-126861443D01*
X150011627Y-126912963D01*
X149945443Y-126919481D01*
X149879260Y-126926000D01*
X149790740Y-126926000D01*
X149724557Y-126919481D01*
X149658373Y-126912963D01*
X149488534Y-126861443D01*
X149332009Y-126777778D01*
X149296271Y-126748448D01*
X149194814Y-126665186D01*
X149111552Y-126563729D01*
X149082222Y-126527991D01*
X148998557Y-126371466D01*
X148947037Y-126201627D01*
X148929641Y-126025000D01*
X148947037Y-125848373D01*
X148998557Y-125678534D01*
X149082222Y-125522009D01*
X149111552Y-125486271D01*
X149194814Y-125384814D01*
X149296271Y-125301552D01*
X149332009Y-125272222D01*
X149488534Y-125188557D01*
X149658373Y-125137037D01*
X149724557Y-125130519D01*
X149790740Y-125124000D01*
X149879260Y-125124000D01*
X149945443Y-125130519D01*
X149945443Y-125130519D01*
G37*
G36*
X147405443Y-125130519D02*
G01*
X147471627Y-125137037D01*
X147641466Y-125188557D01*
X147797991Y-125272222D01*
X147833729Y-125301552D01*
X147935186Y-125384814D01*
X148018448Y-125486271D01*
X148047778Y-125522009D01*
X148131443Y-125678534D01*
X148182963Y-125848373D01*
X148200359Y-126025000D01*
X148182963Y-126201627D01*
X148131443Y-126371466D01*
X148047778Y-126527991D01*
X148018448Y-126563729D01*
X147935186Y-126665186D01*
X147833729Y-126748448D01*
X147797991Y-126777778D01*
X147641466Y-126861443D01*
X147471627Y-126912963D01*
X147405443Y-126919481D01*
X147339260Y-126926000D01*
X147250740Y-126926000D01*
X147184557Y-126919481D01*
X147118373Y-126912963D01*
X146948534Y-126861443D01*
X146792009Y-126777778D01*
X146756271Y-126748448D01*
X146654814Y-126665186D01*
X146571552Y-126563729D01*
X146542222Y-126527991D01*
X146458557Y-126371466D01*
X146407037Y-126201627D01*
X146389641Y-126025000D01*
X146407037Y-125848373D01*
X146458557Y-125678534D01*
X146542222Y-125522009D01*
X146571552Y-125486271D01*
X146654814Y-125384814D01*
X146756271Y-125301552D01*
X146792009Y-125272222D01*
X146948534Y-125188557D01*
X147118373Y-125137037D01*
X147184557Y-125130519D01*
X147250740Y-125124000D01*
X147339260Y-125124000D01*
X147405443Y-125130519D01*
X147405443Y-125130519D01*
G37*
G36*
X155090442Y-124880518D02*
G01*
X155156627Y-124887037D01*
X155326466Y-124938557D01*
X155482991Y-125022222D01*
X155518729Y-125051552D01*
X155620186Y-125134814D01*
X155703448Y-125236271D01*
X155732778Y-125272009D01*
X155816443Y-125428534D01*
X155867963Y-125598373D01*
X155885359Y-125775000D01*
X155867963Y-125951627D01*
X155816443Y-126121466D01*
X155732778Y-126277991D01*
X155703448Y-126313729D01*
X155620186Y-126415186D01*
X155518729Y-126498448D01*
X155482991Y-126527778D01*
X155326466Y-126611443D01*
X155156627Y-126662963D01*
X155090442Y-126669482D01*
X155024260Y-126676000D01*
X154935740Y-126676000D01*
X154869558Y-126669482D01*
X154803373Y-126662963D01*
X154633534Y-126611443D01*
X154477009Y-126527778D01*
X154441271Y-126498448D01*
X154339814Y-126415186D01*
X154256552Y-126313729D01*
X154227222Y-126277991D01*
X154143557Y-126121466D01*
X154092037Y-125951627D01*
X154074641Y-125775000D01*
X154092037Y-125598373D01*
X154143557Y-125428534D01*
X154227222Y-125272009D01*
X154256552Y-125236271D01*
X154339814Y-125134814D01*
X154441271Y-125051552D01*
X154477009Y-125022222D01*
X154633534Y-124938557D01*
X154803373Y-124887037D01*
X154869558Y-124880518D01*
X154935740Y-124874000D01*
X155024260Y-124874000D01*
X155090442Y-124880518D01*
X155090442Y-124880518D01*
G37*
G36*
X131921000Y-125021000D02*
G01*
X125419000Y-125021000D01*
X125419000Y-119119000D01*
X131921000Y-119119000D01*
X131921000Y-125021000D01*
X131921000Y-125021000D01*
G37*
G36*
X136121000Y-125001000D02*
G01*
X133819000Y-125001000D01*
X133819000Y-123699000D01*
X136121000Y-123699000D01*
X136121000Y-125001000D01*
X136121000Y-125001000D01*
G37*
G36*
X155881000Y-124136000D02*
G01*
X154079000Y-124136000D01*
X154079000Y-122334000D01*
X155881000Y-122334000D01*
X155881000Y-124136000D01*
X155881000Y-124136000D01*
G37*
G36*
X144800443Y-119695519D02*
G01*
X144866627Y-119702037D01*
X145036466Y-119753557D01*
X145192991Y-119837222D01*
X145228729Y-119866552D01*
X145330186Y-119949814D01*
X145413448Y-120051271D01*
X145442778Y-120087009D01*
X145526443Y-120243534D01*
X145577963Y-120413373D01*
X145595359Y-120590000D01*
X145577963Y-120766627D01*
X145526443Y-120936466D01*
X145442778Y-121092991D01*
X145413448Y-121128729D01*
X145330186Y-121230186D01*
X145228729Y-121313448D01*
X145192991Y-121342778D01*
X145036466Y-121426443D01*
X144866627Y-121477963D01*
X144800443Y-121484481D01*
X144734260Y-121491000D01*
X144645740Y-121491000D01*
X144579557Y-121484481D01*
X144513373Y-121477963D01*
X144343534Y-121426443D01*
X144187009Y-121342778D01*
X144151271Y-121313448D01*
X144049814Y-121230186D01*
X143966552Y-121128729D01*
X143937222Y-121092991D01*
X143853557Y-120936466D01*
X143802037Y-120766627D01*
X143784641Y-120590000D01*
X143802037Y-120413373D01*
X143853557Y-120243534D01*
X143937222Y-120087009D01*
X143966552Y-120051271D01*
X144049814Y-119949814D01*
X144151271Y-119866552D01*
X144187009Y-119837222D01*
X144343534Y-119753557D01*
X144513373Y-119702037D01*
X144579557Y-119695519D01*
X144645740Y-119689000D01*
X144734260Y-119689000D01*
X144800443Y-119695519D01*
X144800443Y-119695519D01*
G37*
G36*
X147340443Y-119695519D02*
G01*
X147406627Y-119702037D01*
X147576466Y-119753557D01*
X147732991Y-119837222D01*
X147768729Y-119866552D01*
X147870186Y-119949814D01*
X147953448Y-120051271D01*
X147982778Y-120087009D01*
X148066443Y-120243534D01*
X148117963Y-120413373D01*
X148135359Y-120590000D01*
X148117963Y-120766627D01*
X148066443Y-120936466D01*
X147982778Y-121092991D01*
X147953448Y-121128729D01*
X147870186Y-121230186D01*
X147768729Y-121313448D01*
X147732991Y-121342778D01*
X147576466Y-121426443D01*
X147406627Y-121477963D01*
X147340443Y-121484481D01*
X147274260Y-121491000D01*
X147185740Y-121491000D01*
X147119557Y-121484481D01*
X147053373Y-121477963D01*
X146883534Y-121426443D01*
X146727009Y-121342778D01*
X146691271Y-121313448D01*
X146589814Y-121230186D01*
X146506552Y-121128729D01*
X146477222Y-121092991D01*
X146393557Y-120936466D01*
X146342037Y-120766627D01*
X146324641Y-120590000D01*
X146342037Y-120413373D01*
X146393557Y-120243534D01*
X146477222Y-120087009D01*
X146506552Y-120051271D01*
X146589814Y-119949814D01*
X146691271Y-119866552D01*
X146727009Y-119837222D01*
X146883534Y-119753557D01*
X147053373Y-119702037D01*
X147119557Y-119695519D01*
X147185740Y-119689000D01*
X147274260Y-119689000D01*
X147340443Y-119695519D01*
X147340443Y-119695519D01*
G37*
G36*
X149880443Y-119695519D02*
G01*
X149946627Y-119702037D01*
X150116466Y-119753557D01*
X150272991Y-119837222D01*
X150308729Y-119866552D01*
X150410186Y-119949814D01*
X150493448Y-120051271D01*
X150522778Y-120087009D01*
X150606443Y-120243534D01*
X150657963Y-120413373D01*
X150675359Y-120590000D01*
X150657963Y-120766627D01*
X150606443Y-120936466D01*
X150522778Y-121092991D01*
X150493448Y-121128729D01*
X150410186Y-121230186D01*
X150308729Y-121313448D01*
X150272991Y-121342778D01*
X150116466Y-121426443D01*
X149946627Y-121477963D01*
X149880443Y-121484481D01*
X149814260Y-121491000D01*
X149725740Y-121491000D01*
X149659557Y-121484481D01*
X149593373Y-121477963D01*
X149423534Y-121426443D01*
X149267009Y-121342778D01*
X149231271Y-121313448D01*
X149129814Y-121230186D01*
X149046552Y-121128729D01*
X149017222Y-121092991D01*
X148933557Y-120936466D01*
X148882037Y-120766627D01*
X148864641Y-120590000D01*
X148882037Y-120413373D01*
X148933557Y-120243534D01*
X149017222Y-120087009D01*
X149046552Y-120051271D01*
X149129814Y-119949814D01*
X149231271Y-119866552D01*
X149267009Y-119837222D01*
X149423534Y-119753557D01*
X149593373Y-119702037D01*
X149659557Y-119695519D01*
X149725740Y-119689000D01*
X149814260Y-119689000D01*
X149880443Y-119695519D01*
X149880443Y-119695519D01*
G37*
G36*
X142260443Y-119695519D02*
G01*
X142326627Y-119702037D01*
X142496466Y-119753557D01*
X142652991Y-119837222D01*
X142688729Y-119866552D01*
X142790186Y-119949814D01*
X142873448Y-120051271D01*
X142902778Y-120087009D01*
X142986443Y-120243534D01*
X143037963Y-120413373D01*
X143055359Y-120590000D01*
X143037963Y-120766627D01*
X142986443Y-120936466D01*
X142902778Y-121092991D01*
X142873448Y-121128729D01*
X142790186Y-121230186D01*
X142688729Y-121313448D01*
X142652991Y-121342778D01*
X142496466Y-121426443D01*
X142326627Y-121477963D01*
X142260443Y-121484481D01*
X142194260Y-121491000D01*
X142105740Y-121491000D01*
X142039557Y-121484481D01*
X141973373Y-121477963D01*
X141803534Y-121426443D01*
X141647009Y-121342778D01*
X141611271Y-121313448D01*
X141509814Y-121230186D01*
X141426552Y-121128729D01*
X141397222Y-121092991D01*
X141313557Y-120936466D01*
X141262037Y-120766627D01*
X141244641Y-120590000D01*
X141262037Y-120413373D01*
X141313557Y-120243534D01*
X141397222Y-120087009D01*
X141426552Y-120051271D01*
X141509814Y-119949814D01*
X141611271Y-119866552D01*
X141647009Y-119837222D01*
X141803534Y-119753557D01*
X141973373Y-119702037D01*
X142039557Y-119695519D01*
X142105740Y-119689000D01*
X142194260Y-119689000D01*
X142260443Y-119695519D01*
X142260443Y-119695519D01*
G37*
G36*
X140511000Y-121491000D02*
G01*
X138709000Y-121491000D01*
X138709000Y-119689000D01*
X140511000Y-119689000D01*
X140511000Y-121491000D01*
X140511000Y-121491000D01*
G37*
G36*
X136121000Y-120441000D02*
G01*
X133819000Y-120441000D01*
X133819000Y-119139000D01*
X136121000Y-119139000D01*
X136121000Y-120441000D01*
X136121000Y-120441000D01*
G37*
G36*
X135959499Y-116898445D02*
G01*
X135996995Y-116909820D01*
X136031554Y-116928292D01*
X136061847Y-116953153D01*
X136086708Y-116983446D01*
X136105180Y-117018005D01*
X136116555Y-117055501D01*
X136121000Y-117100638D01*
X136121000Y-117739362D01*
X136116555Y-117784499D01*
X136105180Y-117821995D01*
X136086708Y-117856554D01*
X136061847Y-117886847D01*
X136031554Y-117911708D01*
X135996995Y-117930180D01*
X135959499Y-117941555D01*
X135914362Y-117946000D01*
X135175638Y-117946000D01*
X135130501Y-117941555D01*
X135093005Y-117930180D01*
X135058446Y-117911708D01*
X135028153Y-117886847D01*
X135003292Y-117856554D01*
X134984820Y-117821995D01*
X134973445Y-117784499D01*
X134969000Y-117739362D01*
X134969000Y-117100638D01*
X134973445Y-117055501D01*
X134984820Y-117018005D01*
X135003292Y-116983446D01*
X135028153Y-116953153D01*
X135058446Y-116928292D01*
X135093005Y-116909820D01*
X135130501Y-116898445D01*
X135175638Y-116894000D01*
X135914362Y-116894000D01*
X135959499Y-116898445D01*
X135959499Y-116898445D01*
G37*
G36*
X134209499Y-116898445D02*
G01*
X134246995Y-116909820D01*
X134281554Y-116928292D01*
X134311847Y-116953153D01*
X134336708Y-116983446D01*
X134355180Y-117018005D01*
X134366555Y-117055501D01*
X134371000Y-117100638D01*
X134371000Y-117739362D01*
X134366555Y-117784499D01*
X134355180Y-117821995D01*
X134336708Y-117856554D01*
X134311847Y-117886847D01*
X134281554Y-117911708D01*
X134246995Y-117930180D01*
X134209499Y-117941555D01*
X134164362Y-117946000D01*
X133425638Y-117946000D01*
X133380501Y-117941555D01*
X133343005Y-117930180D01*
X133308446Y-117911708D01*
X133278153Y-117886847D01*
X133253292Y-117856554D01*
X133234820Y-117821995D01*
X133223445Y-117784499D01*
X133219000Y-117739362D01*
X133219000Y-117100638D01*
X133223445Y-117055501D01*
X133234820Y-117018005D01*
X133253292Y-116983446D01*
X133278153Y-116953153D01*
X133308446Y-116928292D01*
X133343005Y-116909820D01*
X133380501Y-116898445D01*
X133425638Y-116894000D01*
X134164362Y-116894000D01*
X134209499Y-116898445D01*
X134209499Y-116898445D01*
G37*
G36*
X124360443Y-113275519D02*
G01*
X124426627Y-113282037D01*
X124596466Y-113333557D01*
X124752991Y-113417222D01*
X124788729Y-113446552D01*
X124890186Y-113529814D01*
X124970369Y-113627519D01*
X125002778Y-113667009D01*
X125086443Y-113823534D01*
X125137963Y-113993373D01*
X125155359Y-114170000D01*
X125137963Y-114346627D01*
X125086443Y-114516466D01*
X125002778Y-114672991D01*
X124973448Y-114708729D01*
X124890186Y-114810186D01*
X124788729Y-114893448D01*
X124752991Y-114922778D01*
X124596466Y-115006443D01*
X124426627Y-115057963D01*
X124360443Y-115064481D01*
X124294260Y-115071000D01*
X124205740Y-115071000D01*
X124139557Y-115064481D01*
X124073373Y-115057963D01*
X123903534Y-115006443D01*
X123747009Y-114922778D01*
X123711271Y-114893448D01*
X123609814Y-114810186D01*
X123526552Y-114708729D01*
X123497222Y-114672991D01*
X123413557Y-114516466D01*
X123362037Y-114346627D01*
X123344641Y-114170000D01*
X123362037Y-113993373D01*
X123413557Y-113823534D01*
X123497222Y-113667009D01*
X123529631Y-113627519D01*
X123609814Y-113529814D01*
X123711271Y-113446552D01*
X123747009Y-113417222D01*
X123903534Y-113333557D01*
X124073373Y-113282037D01*
X124139557Y-113275519D01*
X124205740Y-113269000D01*
X124294260Y-113269000D01*
X124360443Y-113275519D01*
X124360443Y-113275519D01*
G37*
G36*
X155871000Y-115051000D02*
G01*
X154069000Y-115051000D01*
X154069000Y-113249000D01*
X155871000Y-113249000D01*
X155871000Y-115051000D01*
X155871000Y-115051000D01*
G37*
G36*
X149318228Y-113351703D02*
G01*
X149473100Y-113415853D01*
X149612481Y-113508985D01*
X149731015Y-113627519D01*
X149824147Y-113766900D01*
X149888297Y-113921772D01*
X149921000Y-114086184D01*
X149921000Y-114253816D01*
X149888297Y-114418228D01*
X149824147Y-114573100D01*
X149731015Y-114712481D01*
X149612481Y-114831015D01*
X149473100Y-114924147D01*
X149318228Y-114988297D01*
X149153816Y-115021000D01*
X148986184Y-115021000D01*
X148821772Y-114988297D01*
X148666900Y-114924147D01*
X148527519Y-114831015D01*
X148408985Y-114712481D01*
X148315853Y-114573100D01*
X148251703Y-114418228D01*
X148219000Y-114253816D01*
X148219000Y-114086184D01*
X148251703Y-113921772D01*
X148315853Y-113766900D01*
X148408985Y-113627519D01*
X148527519Y-113508985D01*
X148666900Y-113415853D01*
X148821772Y-113351703D01*
X148986184Y-113319000D01*
X149153816Y-113319000D01*
X149318228Y-113351703D01*
X149318228Y-113351703D01*
G37*
G36*
X141698228Y-113351703D02*
G01*
X141853100Y-113415853D01*
X141992481Y-113508985D01*
X142111015Y-113627519D01*
X142204147Y-113766900D01*
X142268297Y-113921772D01*
X142301000Y-114086184D01*
X142301000Y-114253816D01*
X142268297Y-114418228D01*
X142204147Y-114573100D01*
X142111015Y-114712481D01*
X141992481Y-114831015D01*
X141853100Y-114924147D01*
X141698228Y-114988297D01*
X141533816Y-115021000D01*
X141366184Y-115021000D01*
X141201772Y-114988297D01*
X141046900Y-114924147D01*
X140907519Y-114831015D01*
X140788985Y-114712481D01*
X140695853Y-114573100D01*
X140631703Y-114418228D01*
X140599000Y-114253816D01*
X140599000Y-114086184D01*
X140631703Y-113921772D01*
X140695853Y-113766900D01*
X140788985Y-113627519D01*
X140907519Y-113508985D01*
X141046900Y-113415853D01*
X141201772Y-113351703D01*
X141366184Y-113319000D01*
X141533816Y-113319000D01*
X141698228Y-113351703D01*
X141698228Y-113351703D01*
G37*
G36*
X124360443Y-110735519D02*
G01*
X124426627Y-110742037D01*
X124596466Y-110793557D01*
X124752991Y-110877222D01*
X124788729Y-110906552D01*
X124890186Y-110989814D01*
X124970369Y-111087519D01*
X125002778Y-111127009D01*
X125086443Y-111283534D01*
X125137963Y-111453373D01*
X125155359Y-111630000D01*
X125137963Y-111806627D01*
X125086443Y-111976466D01*
X125002778Y-112132991D01*
X124973448Y-112168729D01*
X124890186Y-112270186D01*
X124788729Y-112353448D01*
X124752991Y-112382778D01*
X124596466Y-112466443D01*
X124426627Y-112517963D01*
X124360443Y-112524481D01*
X124294260Y-112531000D01*
X124205740Y-112531000D01*
X124139557Y-112524481D01*
X124073373Y-112517963D01*
X123903534Y-112466443D01*
X123747009Y-112382778D01*
X123711271Y-112353448D01*
X123609814Y-112270186D01*
X123526552Y-112168729D01*
X123497222Y-112132991D01*
X123413557Y-111976466D01*
X123362037Y-111806627D01*
X123344641Y-111630000D01*
X123362037Y-111453373D01*
X123413557Y-111283534D01*
X123497222Y-111127009D01*
X123529631Y-111087519D01*
X123609814Y-110989814D01*
X123711271Y-110906552D01*
X123747009Y-110877222D01*
X123903534Y-110793557D01*
X124073373Y-110742037D01*
X124139557Y-110735519D01*
X124205740Y-110729000D01*
X124294260Y-110729000D01*
X124360443Y-110735519D01*
X124360443Y-110735519D01*
G37*
G36*
X155080443Y-110715519D02*
G01*
X155146627Y-110722037D01*
X155316466Y-110773557D01*
X155472991Y-110857222D01*
X155497361Y-110877222D01*
X155610186Y-110969814D01*
X155693448Y-111071271D01*
X155722778Y-111107009D01*
X155806443Y-111263534D01*
X155857963Y-111433373D01*
X155875359Y-111610000D01*
X155857963Y-111786627D01*
X155806443Y-111956466D01*
X155722778Y-112112991D01*
X155706366Y-112132989D01*
X155610186Y-112250186D01*
X155508729Y-112333448D01*
X155472991Y-112362778D01*
X155316466Y-112446443D01*
X155146627Y-112497963D01*
X155080443Y-112504481D01*
X155014260Y-112511000D01*
X154925740Y-112511000D01*
X154859557Y-112504481D01*
X154793373Y-112497963D01*
X154623534Y-112446443D01*
X154467009Y-112362778D01*
X154431271Y-112333448D01*
X154329814Y-112250186D01*
X154233634Y-112132989D01*
X154217222Y-112112991D01*
X154133557Y-111956466D01*
X154082037Y-111786627D01*
X154064641Y-111610000D01*
X154082037Y-111433373D01*
X154133557Y-111263534D01*
X154217222Y-111107009D01*
X154246552Y-111071271D01*
X154329814Y-110969814D01*
X154442639Y-110877222D01*
X154467009Y-110857222D01*
X154623534Y-110773557D01*
X154793373Y-110722037D01*
X154859557Y-110715519D01*
X154925740Y-110709000D01*
X155014260Y-110709000D01*
X155080443Y-110715519D01*
X155080443Y-110715519D01*
G37*
G36*
X141698228Y-110811703D02*
G01*
X141853100Y-110875853D01*
X141992481Y-110968985D01*
X142111015Y-111087519D01*
X142204147Y-111226900D01*
X142268297Y-111381772D01*
X142301000Y-111546184D01*
X142301000Y-111713816D01*
X142268297Y-111878228D01*
X142204147Y-112033100D01*
X142111015Y-112172481D01*
X141992481Y-112291015D01*
X141853100Y-112384147D01*
X141698228Y-112448297D01*
X141533816Y-112481000D01*
X141366184Y-112481000D01*
X141201772Y-112448297D01*
X141046900Y-112384147D01*
X140907519Y-112291015D01*
X140788985Y-112172481D01*
X140695853Y-112033100D01*
X140631703Y-111878228D01*
X140599000Y-111713816D01*
X140599000Y-111546184D01*
X140631703Y-111381772D01*
X140695853Y-111226900D01*
X140788985Y-111087519D01*
X140907519Y-110968985D01*
X141046900Y-110875853D01*
X141201772Y-110811703D01*
X141366184Y-110779000D01*
X141533816Y-110779000D01*
X141698228Y-110811703D01*
X141698228Y-110811703D01*
G37*
G36*
X149318228Y-110811703D02*
G01*
X149473100Y-110875853D01*
X149612481Y-110968985D01*
X149731015Y-111087519D01*
X149824147Y-111226900D01*
X149888297Y-111381772D01*
X149921000Y-111546184D01*
X149921000Y-111713816D01*
X149888297Y-111878228D01*
X149824147Y-112033100D01*
X149731015Y-112172481D01*
X149612481Y-112291015D01*
X149473100Y-112384147D01*
X149318228Y-112448297D01*
X149153816Y-112481000D01*
X148986184Y-112481000D01*
X148821772Y-112448297D01*
X148666900Y-112384147D01*
X148527519Y-112291015D01*
X148408985Y-112172481D01*
X148315853Y-112033100D01*
X148251703Y-111878228D01*
X148219000Y-111713816D01*
X148219000Y-111546184D01*
X148251703Y-111381772D01*
X148315853Y-111226900D01*
X148408985Y-111087519D01*
X148527519Y-110968985D01*
X148666900Y-110875853D01*
X148821772Y-110811703D01*
X148986184Y-110779000D01*
X149153816Y-110779000D01*
X149318228Y-110811703D01*
X149318228Y-110811703D01*
G37*
G36*
X124360443Y-108195519D02*
G01*
X124426627Y-108202037D01*
X124596466Y-108253557D01*
X124752991Y-108337222D01*
X124788729Y-108366552D01*
X124890186Y-108449814D01*
X124970369Y-108547519D01*
X125002778Y-108587009D01*
X125086443Y-108743534D01*
X125137963Y-108913373D01*
X125155359Y-109090000D01*
X125137963Y-109266627D01*
X125086443Y-109436466D01*
X125002778Y-109592991D01*
X124973448Y-109628729D01*
X124890186Y-109730186D01*
X124788729Y-109813448D01*
X124752991Y-109842778D01*
X124596466Y-109926443D01*
X124426627Y-109977963D01*
X124360443Y-109984481D01*
X124294260Y-109991000D01*
X124205740Y-109991000D01*
X124139557Y-109984481D01*
X124073373Y-109977963D01*
X123903534Y-109926443D01*
X123747009Y-109842778D01*
X123711271Y-109813448D01*
X123609814Y-109730186D01*
X123526552Y-109628729D01*
X123497222Y-109592991D01*
X123413557Y-109436466D01*
X123362037Y-109266627D01*
X123344641Y-109090000D01*
X123362037Y-108913373D01*
X123413557Y-108743534D01*
X123497222Y-108587009D01*
X123529631Y-108547519D01*
X123609814Y-108449814D01*
X123711271Y-108366552D01*
X123747009Y-108337222D01*
X123903534Y-108253557D01*
X124073373Y-108202037D01*
X124139557Y-108195519D01*
X124205740Y-108189000D01*
X124294260Y-108189000D01*
X124360443Y-108195519D01*
X124360443Y-108195519D01*
G37*
G36*
X155080442Y-108175518D02*
G01*
X155146627Y-108182037D01*
X155316466Y-108233557D01*
X155472991Y-108317222D01*
X155497361Y-108337222D01*
X155610186Y-108429814D01*
X155693448Y-108531271D01*
X155722778Y-108567009D01*
X155806443Y-108723534D01*
X155857963Y-108893373D01*
X155875359Y-109070000D01*
X155857963Y-109246627D01*
X155806443Y-109416466D01*
X155722778Y-109572991D01*
X155706366Y-109592989D01*
X155610186Y-109710186D01*
X155508729Y-109793448D01*
X155472991Y-109822778D01*
X155316466Y-109906443D01*
X155146627Y-109957963D01*
X155080443Y-109964481D01*
X155014260Y-109971000D01*
X154925740Y-109971000D01*
X154859557Y-109964481D01*
X154793373Y-109957963D01*
X154623534Y-109906443D01*
X154467009Y-109822778D01*
X154431271Y-109793448D01*
X154329814Y-109710186D01*
X154233634Y-109592989D01*
X154217222Y-109572991D01*
X154133557Y-109416466D01*
X154082037Y-109246627D01*
X154064641Y-109070000D01*
X154082037Y-108893373D01*
X154133557Y-108723534D01*
X154217222Y-108567009D01*
X154246552Y-108531271D01*
X154329814Y-108429814D01*
X154442639Y-108337222D01*
X154467009Y-108317222D01*
X154623534Y-108233557D01*
X154793373Y-108182037D01*
X154859558Y-108175518D01*
X154925740Y-108169000D01*
X155014260Y-108169000D01*
X155080442Y-108175518D01*
X155080442Y-108175518D01*
G37*
G36*
X149318228Y-108271703D02*
G01*
X149473100Y-108335853D01*
X149612481Y-108428985D01*
X149731015Y-108547519D01*
X149824147Y-108686900D01*
X149888297Y-108841772D01*
X149921000Y-109006184D01*
X149921000Y-109173816D01*
X149888297Y-109338228D01*
X149824147Y-109493100D01*
X149731015Y-109632481D01*
X149612481Y-109751015D01*
X149473100Y-109844147D01*
X149318228Y-109908297D01*
X149153816Y-109941000D01*
X148986184Y-109941000D01*
X148821772Y-109908297D01*
X148666900Y-109844147D01*
X148527519Y-109751015D01*
X148408985Y-109632481D01*
X148315853Y-109493100D01*
X148251703Y-109338228D01*
X148219000Y-109173816D01*
X148219000Y-109006184D01*
X148251703Y-108841772D01*
X148315853Y-108686900D01*
X148408985Y-108547519D01*
X148527519Y-108428985D01*
X148666900Y-108335853D01*
X148821772Y-108271703D01*
X148986184Y-108239000D01*
X149153816Y-108239000D01*
X149318228Y-108271703D01*
X149318228Y-108271703D01*
G37*
G36*
X141698228Y-108271703D02*
G01*
X141853100Y-108335853D01*
X141992481Y-108428985D01*
X142111015Y-108547519D01*
X142204147Y-108686900D01*
X142268297Y-108841772D01*
X142301000Y-109006184D01*
X142301000Y-109173816D01*
X142268297Y-109338228D01*
X142204147Y-109493100D01*
X142111015Y-109632481D01*
X141992481Y-109751015D01*
X141853100Y-109844147D01*
X141698228Y-109908297D01*
X141533816Y-109941000D01*
X141366184Y-109941000D01*
X141201772Y-109908297D01*
X141046900Y-109844147D01*
X140907519Y-109751015D01*
X140788985Y-109632481D01*
X140695853Y-109493100D01*
X140631703Y-109338228D01*
X140599000Y-109173816D01*
X140599000Y-109006184D01*
X140631703Y-108841772D01*
X140695853Y-108686900D01*
X140788985Y-108547519D01*
X140907519Y-108428985D01*
X141046900Y-108335853D01*
X141201772Y-108271703D01*
X141366184Y-108239000D01*
X141533816Y-108239000D01*
X141698228Y-108271703D01*
X141698228Y-108271703D01*
G37*
G36*
X124360443Y-105655519D02*
G01*
X124426627Y-105662037D01*
X124596466Y-105713557D01*
X124752991Y-105797222D01*
X124788729Y-105826552D01*
X124890186Y-105909814D01*
X124949227Y-105981757D01*
X125002778Y-106047009D01*
X125086443Y-106203534D01*
X125137963Y-106373373D01*
X125155359Y-106550000D01*
X125137963Y-106726627D01*
X125086443Y-106896466D01*
X125002778Y-107052991D01*
X124973448Y-107088729D01*
X124890186Y-107190186D01*
X124788729Y-107273448D01*
X124752991Y-107302778D01*
X124596466Y-107386443D01*
X124426627Y-107437963D01*
X124360443Y-107444481D01*
X124294260Y-107451000D01*
X124205740Y-107451000D01*
X124139557Y-107444481D01*
X124073373Y-107437963D01*
X123903534Y-107386443D01*
X123747009Y-107302778D01*
X123711271Y-107273448D01*
X123609814Y-107190186D01*
X123526552Y-107088729D01*
X123497222Y-107052991D01*
X123413557Y-106896466D01*
X123362037Y-106726627D01*
X123344641Y-106550000D01*
X123362037Y-106373373D01*
X123413557Y-106203534D01*
X123497222Y-106047009D01*
X123550773Y-105981757D01*
X123609814Y-105909814D01*
X123711271Y-105826552D01*
X123747009Y-105797222D01*
X123903534Y-105713557D01*
X124073373Y-105662037D01*
X124139557Y-105655519D01*
X124205740Y-105649000D01*
X124294260Y-105649000D01*
X124360443Y-105655519D01*
X124360443Y-105655519D01*
G37*
G36*
X155080442Y-105635518D02*
G01*
X155146627Y-105642037D01*
X155316466Y-105693557D01*
X155472991Y-105777222D01*
X155497361Y-105797222D01*
X155610186Y-105889814D01*
X155685641Y-105981758D01*
X155722778Y-106027009D01*
X155806443Y-106183534D01*
X155857963Y-106353373D01*
X155875359Y-106530000D01*
X155857963Y-106706627D01*
X155806443Y-106876466D01*
X155722778Y-107032991D01*
X155706366Y-107052989D01*
X155610186Y-107170186D01*
X155508729Y-107253448D01*
X155472991Y-107282778D01*
X155316466Y-107366443D01*
X155146627Y-107417963D01*
X155080442Y-107424482D01*
X155014260Y-107431000D01*
X154925740Y-107431000D01*
X154859558Y-107424482D01*
X154793373Y-107417963D01*
X154623534Y-107366443D01*
X154467009Y-107282778D01*
X154431271Y-107253448D01*
X154329814Y-107170186D01*
X154233634Y-107052989D01*
X154217222Y-107032991D01*
X154133557Y-106876466D01*
X154082037Y-106706627D01*
X154064641Y-106530000D01*
X154082037Y-106353373D01*
X154133557Y-106183534D01*
X154217222Y-106027009D01*
X154254359Y-105981758D01*
X154329814Y-105889814D01*
X154442639Y-105797222D01*
X154467009Y-105777222D01*
X154623534Y-105693557D01*
X154793373Y-105642037D01*
X154859558Y-105635518D01*
X154925740Y-105629000D01*
X155014260Y-105629000D01*
X155080442Y-105635518D01*
X155080442Y-105635518D01*
G37*
G36*
X141698228Y-105731703D02*
G01*
X141853100Y-105795853D01*
X141992481Y-105888985D01*
X142111015Y-106007519D01*
X142204147Y-106146900D01*
X142268297Y-106301772D01*
X142301000Y-106466184D01*
X142301000Y-106633816D01*
X142268297Y-106798228D01*
X142204147Y-106953100D01*
X142111015Y-107092481D01*
X141992481Y-107211015D01*
X141853100Y-107304147D01*
X141698228Y-107368297D01*
X141533816Y-107401000D01*
X141366184Y-107401000D01*
X141201772Y-107368297D01*
X141046900Y-107304147D01*
X140907519Y-107211015D01*
X140788985Y-107092481D01*
X140695853Y-106953100D01*
X140631703Y-106798228D01*
X140599000Y-106633816D01*
X140599000Y-106466184D01*
X140631703Y-106301772D01*
X140695853Y-106146900D01*
X140788985Y-106007519D01*
X140907519Y-105888985D01*
X141046900Y-105795853D01*
X141201772Y-105731703D01*
X141366184Y-105699000D01*
X141533816Y-105699000D01*
X141698228Y-105731703D01*
X141698228Y-105731703D01*
G37*
G36*
X149318228Y-105731703D02*
G01*
X149473100Y-105795853D01*
X149612481Y-105888985D01*
X149731015Y-106007519D01*
X149824147Y-106146900D01*
X149888297Y-106301772D01*
X149921000Y-106466184D01*
X149921000Y-106633816D01*
X149888297Y-106798228D01*
X149824147Y-106953100D01*
X149731015Y-107092481D01*
X149612481Y-107211015D01*
X149473100Y-107304147D01*
X149318228Y-107368297D01*
X149153816Y-107401000D01*
X148986184Y-107401000D01*
X148821772Y-107368297D01*
X148666900Y-107304147D01*
X148527519Y-107211015D01*
X148408985Y-107092481D01*
X148315853Y-106953100D01*
X148251703Y-106798228D01*
X148219000Y-106633816D01*
X148219000Y-106466184D01*
X148251703Y-106301772D01*
X148315853Y-106146900D01*
X148408985Y-106007519D01*
X148527519Y-105888985D01*
X148666900Y-105795853D01*
X148821772Y-105731703D01*
X148986184Y-105699000D01*
X149153816Y-105699000D01*
X149318228Y-105731703D01*
X149318228Y-105731703D01*
G37*
G36*
X132006058Y-104418242D02*
G01*
X132154017Y-104479529D01*
X132287171Y-104568499D01*
X132400417Y-104681745D01*
X132489387Y-104814899D01*
X132550674Y-104962858D01*
X132581916Y-105119925D01*
X132581916Y-105280075D01*
X132550674Y-105437142D01*
X132489387Y-105585101D01*
X132400417Y-105718255D01*
X132287171Y-105831501D01*
X132154017Y-105920471D01*
X132006058Y-105981758D01*
X131848991Y-106013000D01*
X131688841Y-106013000D01*
X131531774Y-105981758D01*
X131383815Y-105920471D01*
X131250661Y-105831501D01*
X131137415Y-105718255D01*
X131048445Y-105585101D01*
X130987158Y-105437142D01*
X130955916Y-105280075D01*
X130955916Y-105119925D01*
X130987158Y-104962858D01*
X131048445Y-104814899D01*
X131137415Y-104681745D01*
X131250661Y-104568499D01*
X131383815Y-104479529D01*
X131531774Y-104418242D01*
X131688841Y-104387000D01*
X131848991Y-104387000D01*
X132006058Y-104418242D01*
X132006058Y-104418242D01*
G37*
G36*
X124360443Y-103115519D02*
G01*
X124426627Y-103122037D01*
X124596466Y-103173557D01*
X124752991Y-103257222D01*
X124780836Y-103280074D01*
X124890186Y-103369814D01*
X124955083Y-103448893D01*
X125002778Y-103507009D01*
X125086443Y-103663534D01*
X125137963Y-103833373D01*
X125155359Y-104010000D01*
X125137963Y-104186627D01*
X125086443Y-104356466D01*
X125002778Y-104512991D01*
X124973448Y-104548729D01*
X124890186Y-104650186D01*
X124788729Y-104733448D01*
X124752991Y-104762778D01*
X124596466Y-104846443D01*
X124426627Y-104897963D01*
X124360442Y-104904482D01*
X124294260Y-104911000D01*
X124205740Y-104911000D01*
X124139558Y-104904482D01*
X124073373Y-104897963D01*
X123903534Y-104846443D01*
X123747009Y-104762778D01*
X123711271Y-104733448D01*
X123609814Y-104650186D01*
X123526552Y-104548729D01*
X123497222Y-104512991D01*
X123413557Y-104356466D01*
X123362037Y-104186627D01*
X123344641Y-104010000D01*
X123362037Y-103833373D01*
X123413557Y-103663534D01*
X123497222Y-103507009D01*
X123544917Y-103448893D01*
X123609814Y-103369814D01*
X123719164Y-103280074D01*
X123747009Y-103257222D01*
X123903534Y-103173557D01*
X124073373Y-103122037D01*
X124139557Y-103115519D01*
X124205740Y-103109000D01*
X124294260Y-103109000D01*
X124360443Y-103115519D01*
X124360443Y-103115519D01*
G37*
G36*
X155080443Y-103095519D02*
G01*
X155146627Y-103102037D01*
X155316466Y-103153557D01*
X155472991Y-103237222D01*
X155497361Y-103257222D01*
X155610186Y-103349814D01*
X155681853Y-103437142D01*
X155722778Y-103487009D01*
X155806443Y-103643534D01*
X155857963Y-103813373D01*
X155875359Y-103990000D01*
X155857963Y-104166627D01*
X155806443Y-104336466D01*
X155722778Y-104492991D01*
X155706366Y-104512989D01*
X155610186Y-104630186D01*
X155508729Y-104713448D01*
X155472991Y-104742778D01*
X155316466Y-104826443D01*
X155146627Y-104877963D01*
X155080443Y-104884481D01*
X155014260Y-104891000D01*
X154925740Y-104891000D01*
X154859557Y-104884481D01*
X154793373Y-104877963D01*
X154623534Y-104826443D01*
X154467009Y-104742778D01*
X154431271Y-104713448D01*
X154329814Y-104630186D01*
X154233634Y-104512989D01*
X154217222Y-104492991D01*
X154133557Y-104336466D01*
X154082037Y-104166627D01*
X154064641Y-103990000D01*
X154082037Y-103813373D01*
X154133557Y-103643534D01*
X154217222Y-103487009D01*
X154258147Y-103437142D01*
X154329814Y-103349814D01*
X154442639Y-103257222D01*
X154467009Y-103237222D01*
X154623534Y-103153557D01*
X154793373Y-103102037D01*
X154859557Y-103095519D01*
X154925740Y-103089000D01*
X155014260Y-103089000D01*
X155080443Y-103095519D01*
X155080443Y-103095519D01*
G37*
G36*
X141698228Y-103191703D02*
G01*
X141853100Y-103255853D01*
X141992481Y-103348985D01*
X142111015Y-103467519D01*
X142204147Y-103606900D01*
X142268297Y-103761772D01*
X142301000Y-103926184D01*
X142301000Y-104093816D01*
X142268297Y-104258228D01*
X142204147Y-104413100D01*
X142111015Y-104552481D01*
X141992481Y-104671015D01*
X141853100Y-104764147D01*
X141698228Y-104828297D01*
X141533816Y-104861000D01*
X141366184Y-104861000D01*
X141201772Y-104828297D01*
X141046900Y-104764147D01*
X140907519Y-104671015D01*
X140788985Y-104552481D01*
X140695853Y-104413100D01*
X140631703Y-104258228D01*
X140599000Y-104093816D01*
X140599000Y-103926184D01*
X140631703Y-103761772D01*
X140695853Y-103606900D01*
X140788985Y-103467519D01*
X140907519Y-103348985D01*
X141046900Y-103255853D01*
X141201772Y-103191703D01*
X141366184Y-103159000D01*
X141533816Y-103159000D01*
X141698228Y-103191703D01*
X141698228Y-103191703D01*
G37*
G36*
X149318228Y-103191703D02*
G01*
X149473100Y-103255853D01*
X149612481Y-103348985D01*
X149731015Y-103467519D01*
X149824147Y-103606900D01*
X149888297Y-103761772D01*
X149921000Y-103926184D01*
X149921000Y-104093816D01*
X149888297Y-104258228D01*
X149824147Y-104413100D01*
X149731015Y-104552481D01*
X149612481Y-104671015D01*
X149473100Y-104764147D01*
X149318228Y-104828297D01*
X149153816Y-104861000D01*
X148986184Y-104861000D01*
X148821772Y-104828297D01*
X148666900Y-104764147D01*
X148527519Y-104671015D01*
X148408985Y-104552481D01*
X148315853Y-104413100D01*
X148251703Y-104258228D01*
X148219000Y-104093816D01*
X148219000Y-103926184D01*
X148251703Y-103761772D01*
X148315853Y-103606900D01*
X148408985Y-103467519D01*
X148527519Y-103348985D01*
X148666900Y-103255853D01*
X148821772Y-103191703D01*
X148986184Y-103159000D01*
X149153816Y-103159000D01*
X149318228Y-103191703D01*
X149318228Y-103191703D01*
G37*
G36*
X136686974Y-102599781D02*
G01*
X136832746Y-102660162D01*
X136832748Y-102660163D01*
X136963940Y-102747822D01*
X137075510Y-102859392D01*
X137144643Y-102962858D01*
X137163170Y-102990586D01*
X137223551Y-103136358D01*
X137254332Y-103291107D01*
X137254332Y-103448893D01*
X137223551Y-103603642D01*
X137163170Y-103749414D01*
X137163169Y-103749416D01*
X137075510Y-103880608D01*
X136963940Y-103992178D01*
X136832748Y-104079837D01*
X136832747Y-104079838D01*
X136832746Y-104079838D01*
X136686974Y-104140219D01*
X136532225Y-104171000D01*
X136374439Y-104171000D01*
X136219690Y-104140219D01*
X136073918Y-104079838D01*
X136073917Y-104079838D01*
X136073916Y-104079837D01*
X135942724Y-103992178D01*
X135831154Y-103880608D01*
X135743495Y-103749416D01*
X135743494Y-103749414D01*
X135683113Y-103603642D01*
X135652332Y-103448893D01*
X135652332Y-103291107D01*
X135683113Y-103136358D01*
X135743494Y-102990586D01*
X135762021Y-102962858D01*
X135831154Y-102859392D01*
X135942724Y-102747822D01*
X136073916Y-102660163D01*
X136073918Y-102660162D01*
X136219690Y-102599781D01*
X136374439Y-102569000D01*
X136532225Y-102569000D01*
X136686974Y-102599781D01*
X136686974Y-102599781D01*
G37*
G36*
X128606058Y-102418242D02*
G01*
X128754017Y-102479529D01*
X128887171Y-102568499D01*
X129000417Y-102681745D01*
X129089387Y-102814899D01*
X129150674Y-102962858D01*
X129181916Y-103119925D01*
X129181916Y-103280075D01*
X129150674Y-103437142D01*
X129089387Y-103585101D01*
X129000417Y-103718255D01*
X128887171Y-103831501D01*
X128754017Y-103920471D01*
X128606058Y-103981758D01*
X128448991Y-104013000D01*
X128288841Y-104013000D01*
X128131774Y-103981758D01*
X127983815Y-103920471D01*
X127850661Y-103831501D01*
X127737415Y-103718255D01*
X127648445Y-103585101D01*
X127587158Y-103437142D01*
X127555916Y-103280075D01*
X127555916Y-103119925D01*
X127587158Y-102962858D01*
X127648445Y-102814899D01*
X127737415Y-102681745D01*
X127850661Y-102568499D01*
X127983815Y-102479529D01*
X128131774Y-102418242D01*
X128288841Y-102387000D01*
X128448991Y-102387000D01*
X128606058Y-102418242D01*
X128606058Y-102418242D01*
G37*
G36*
X124360442Y-100575518D02*
G01*
X124426627Y-100582037D01*
X124596466Y-100633557D01*
X124752991Y-100717222D01*
X124788729Y-100746552D01*
X124890186Y-100829814D01*
X124970369Y-100927519D01*
X125002778Y-100967009D01*
X125086443Y-101123534D01*
X125137963Y-101293373D01*
X125155359Y-101470000D01*
X125137963Y-101646627D01*
X125086443Y-101816466D01*
X125002778Y-101972991D01*
X124973448Y-102008729D01*
X124890186Y-102110186D01*
X124788729Y-102193448D01*
X124752991Y-102222778D01*
X124596466Y-102306443D01*
X124426627Y-102357963D01*
X124360443Y-102364481D01*
X124294260Y-102371000D01*
X124205740Y-102371000D01*
X124139557Y-102364481D01*
X124073373Y-102357963D01*
X123903534Y-102306443D01*
X123747009Y-102222778D01*
X123711271Y-102193448D01*
X123609814Y-102110186D01*
X123526552Y-102008729D01*
X123497222Y-101972991D01*
X123413557Y-101816466D01*
X123362037Y-101646627D01*
X123344641Y-101470000D01*
X123362037Y-101293373D01*
X123413557Y-101123534D01*
X123497222Y-100967009D01*
X123529631Y-100927519D01*
X123609814Y-100829814D01*
X123711271Y-100746552D01*
X123747009Y-100717222D01*
X123903534Y-100633557D01*
X124073373Y-100582037D01*
X124139558Y-100575518D01*
X124205740Y-100569000D01*
X124294260Y-100569000D01*
X124360442Y-100575518D01*
X124360442Y-100575518D01*
G37*
G36*
X155080443Y-100555519D02*
G01*
X155146627Y-100562037D01*
X155316466Y-100613557D01*
X155472991Y-100697222D01*
X155497361Y-100717222D01*
X155610186Y-100809814D01*
X155693448Y-100911271D01*
X155722778Y-100947009D01*
X155806443Y-101103534D01*
X155857963Y-101273373D01*
X155875359Y-101450000D01*
X155857963Y-101626627D01*
X155806443Y-101796466D01*
X155722778Y-101952991D01*
X155706366Y-101972989D01*
X155610186Y-102090186D01*
X155508729Y-102173448D01*
X155472991Y-102202778D01*
X155316466Y-102286443D01*
X155146627Y-102337963D01*
X155080442Y-102344482D01*
X155014260Y-102351000D01*
X154925740Y-102351000D01*
X154859558Y-102344482D01*
X154793373Y-102337963D01*
X154623534Y-102286443D01*
X154467009Y-102202778D01*
X154431271Y-102173448D01*
X154329814Y-102090186D01*
X154233634Y-101972989D01*
X154217222Y-101952991D01*
X154133557Y-101796466D01*
X154082037Y-101626627D01*
X154064641Y-101450000D01*
X154082037Y-101273373D01*
X154133557Y-101103534D01*
X154217222Y-100947009D01*
X154246552Y-100911271D01*
X154329814Y-100809814D01*
X154442639Y-100717222D01*
X154467009Y-100697222D01*
X154623534Y-100613557D01*
X154793373Y-100562037D01*
X154859558Y-100555518D01*
X154925740Y-100549000D01*
X155014260Y-100549000D01*
X155080443Y-100555519D01*
X155080443Y-100555519D01*
G37*
G36*
X149318228Y-100651703D02*
G01*
X149473100Y-100715853D01*
X149612481Y-100808985D01*
X149731015Y-100927519D01*
X149824147Y-101066900D01*
X149888297Y-101221772D01*
X149921000Y-101386184D01*
X149921000Y-101553816D01*
X149888297Y-101718228D01*
X149824147Y-101873100D01*
X149731015Y-102012481D01*
X149612481Y-102131015D01*
X149473100Y-102224147D01*
X149318228Y-102288297D01*
X149153816Y-102321000D01*
X148986184Y-102321000D01*
X148821772Y-102288297D01*
X148666900Y-102224147D01*
X148527519Y-102131015D01*
X148408985Y-102012481D01*
X148315853Y-101873100D01*
X148251703Y-101718228D01*
X148219000Y-101553816D01*
X148219000Y-101386184D01*
X148251703Y-101221772D01*
X148315853Y-101066900D01*
X148408985Y-100927519D01*
X148527519Y-100808985D01*
X148666900Y-100715853D01*
X148821772Y-100651703D01*
X148986184Y-100619000D01*
X149153816Y-100619000D01*
X149318228Y-100651703D01*
X149318228Y-100651703D01*
G37*
G36*
X141698228Y-100651703D02*
G01*
X141853100Y-100715853D01*
X141992481Y-100808985D01*
X142111015Y-100927519D01*
X142204147Y-101066900D01*
X142268297Y-101221772D01*
X142301000Y-101386184D01*
X142301000Y-101553816D01*
X142268297Y-101718228D01*
X142204147Y-101873100D01*
X142111015Y-102012481D01*
X141992481Y-102131015D01*
X141853100Y-102224147D01*
X141698228Y-102288297D01*
X141533816Y-102321000D01*
X141366184Y-102321000D01*
X141201772Y-102288297D01*
X141046900Y-102224147D01*
X140907519Y-102131015D01*
X140788985Y-102012481D01*
X140695853Y-101873100D01*
X140631703Y-101718228D01*
X140599000Y-101553816D01*
X140599000Y-101386184D01*
X140631703Y-101221772D01*
X140695853Y-101066900D01*
X140788985Y-100927519D01*
X140907519Y-100808985D01*
X141046900Y-100715853D01*
X141201772Y-100651703D01*
X141366184Y-100619000D01*
X141533816Y-100619000D01*
X141698228Y-100651703D01*
X141698228Y-100651703D01*
G37*
G36*
X128606058Y-98418242D02*
G01*
X128754017Y-98479529D01*
X128887171Y-98568499D01*
X129000417Y-98681745D01*
X129089387Y-98814899D01*
X129150674Y-98962858D01*
X129181916Y-99119925D01*
X129181916Y-99280075D01*
X129150674Y-99437142D01*
X129089387Y-99585101D01*
X129000417Y-99718255D01*
X128887171Y-99831501D01*
X128754017Y-99920471D01*
X128606058Y-99981758D01*
X128448991Y-100013000D01*
X128288841Y-100013000D01*
X128131774Y-99981758D01*
X127983815Y-99920471D01*
X127850661Y-99831501D01*
X127737415Y-99718255D01*
X127648445Y-99585101D01*
X127587158Y-99437142D01*
X127555916Y-99280075D01*
X127555916Y-99119925D01*
X127587158Y-98962858D01*
X127648445Y-98814899D01*
X127737415Y-98681745D01*
X127850661Y-98568499D01*
X127983815Y-98479529D01*
X128131774Y-98418242D01*
X128288841Y-98387000D01*
X128448991Y-98387000D01*
X128606058Y-98418242D01*
X128606058Y-98418242D01*
G37*
G36*
X124360442Y-98035518D02*
G01*
X124426627Y-98042037D01*
X124596466Y-98093557D01*
X124752991Y-98177222D01*
X124788729Y-98206552D01*
X124890186Y-98289814D01*
X124950613Y-98363446D01*
X125002778Y-98427009D01*
X125086443Y-98583534D01*
X125137963Y-98753373D01*
X125155359Y-98930000D01*
X125137963Y-99106627D01*
X125090073Y-99264499D01*
X125086442Y-99276468D01*
X125084514Y-99280075D01*
X125002778Y-99432991D01*
X124973448Y-99468729D01*
X124890186Y-99570186D01*
X124788729Y-99653448D01*
X124752991Y-99682778D01*
X124596466Y-99766443D01*
X124426627Y-99817963D01*
X124360443Y-99824481D01*
X124294260Y-99831000D01*
X124205740Y-99831000D01*
X124139558Y-99824482D01*
X124073373Y-99817963D01*
X123903534Y-99766443D01*
X123747009Y-99682778D01*
X123711271Y-99653448D01*
X123609814Y-99570186D01*
X123526552Y-99468729D01*
X123497222Y-99432991D01*
X123415486Y-99280075D01*
X123413558Y-99276468D01*
X123409927Y-99264499D01*
X123362037Y-99106627D01*
X123344641Y-98930000D01*
X123362037Y-98753373D01*
X123413557Y-98583534D01*
X123497222Y-98427009D01*
X123549387Y-98363446D01*
X123609814Y-98289814D01*
X123711271Y-98206552D01*
X123747009Y-98177222D01*
X123903534Y-98093557D01*
X124073373Y-98042037D01*
X124139558Y-98035518D01*
X124205740Y-98029000D01*
X124294260Y-98029000D01*
X124360442Y-98035518D01*
X124360442Y-98035518D01*
G37*
G36*
X155080442Y-98015518D02*
G01*
X155146627Y-98022037D01*
X155316466Y-98073557D01*
X155472991Y-98157222D01*
X155497361Y-98177222D01*
X155610186Y-98269814D01*
X155662166Y-98333153D01*
X155722778Y-98407009D01*
X155806443Y-98563534D01*
X155857963Y-98733373D01*
X155875359Y-98910000D01*
X155857963Y-99086627D01*
X155819231Y-99214309D01*
X155806442Y-99256468D01*
X155804437Y-99260219D01*
X155722778Y-99412991D01*
X155702957Y-99437143D01*
X155610186Y-99550186D01*
X155508729Y-99633448D01*
X155472991Y-99662778D01*
X155316466Y-99746443D01*
X155146627Y-99797963D01*
X155080443Y-99804481D01*
X155014260Y-99811000D01*
X154925740Y-99811000D01*
X154859558Y-99804482D01*
X154793373Y-99797963D01*
X154623534Y-99746443D01*
X154467009Y-99662778D01*
X154431271Y-99633448D01*
X154329814Y-99550186D01*
X154237043Y-99437143D01*
X154217222Y-99412991D01*
X154135563Y-99260219D01*
X154133558Y-99256468D01*
X154120769Y-99214309D01*
X154082037Y-99086627D01*
X154064641Y-98910000D01*
X154082037Y-98733373D01*
X154133557Y-98563534D01*
X154217222Y-98407009D01*
X154277834Y-98333153D01*
X154329814Y-98269814D01*
X154442639Y-98177222D01*
X154467009Y-98157222D01*
X154623534Y-98073557D01*
X154793373Y-98022037D01*
X154859558Y-98015518D01*
X154925740Y-98009000D01*
X155014260Y-98009000D01*
X155080442Y-98015518D01*
X155080442Y-98015518D01*
G37*
G36*
X141698228Y-98111703D02*
G01*
X141853100Y-98175853D01*
X141992481Y-98268985D01*
X142111015Y-98387519D01*
X142204147Y-98526900D01*
X142268297Y-98681772D01*
X142301000Y-98846184D01*
X142301000Y-99013816D01*
X142268297Y-99178228D01*
X142204147Y-99333100D01*
X142111015Y-99472481D01*
X141992481Y-99591015D01*
X141853100Y-99684147D01*
X141698228Y-99748297D01*
X141533816Y-99781000D01*
X141366184Y-99781000D01*
X141201772Y-99748297D01*
X141046900Y-99684147D01*
X140907519Y-99591015D01*
X140788985Y-99472481D01*
X140695853Y-99333100D01*
X140631703Y-99178228D01*
X140599000Y-99013816D01*
X140599000Y-98846184D01*
X140631703Y-98681772D01*
X140695853Y-98526900D01*
X140788985Y-98387519D01*
X140907519Y-98268985D01*
X141046900Y-98175853D01*
X141201772Y-98111703D01*
X141366184Y-98079000D01*
X141533816Y-98079000D01*
X141698228Y-98111703D01*
X141698228Y-98111703D01*
G37*
G36*
X149318228Y-98111703D02*
G01*
X149473100Y-98175853D01*
X149612481Y-98268985D01*
X149731015Y-98387519D01*
X149824147Y-98526900D01*
X149888297Y-98681772D01*
X149921000Y-98846184D01*
X149921000Y-99013816D01*
X149888297Y-99178228D01*
X149824147Y-99333100D01*
X149731015Y-99472481D01*
X149612481Y-99591015D01*
X149473100Y-99684147D01*
X149318228Y-99748297D01*
X149153816Y-99781000D01*
X148986184Y-99781000D01*
X148821772Y-99748297D01*
X148666900Y-99684147D01*
X148527519Y-99591015D01*
X148408985Y-99472481D01*
X148315853Y-99333100D01*
X148251703Y-99178228D01*
X148219000Y-99013816D01*
X148219000Y-98846184D01*
X148251703Y-98681772D01*
X148315853Y-98526900D01*
X148408985Y-98387519D01*
X148527519Y-98268985D01*
X148666900Y-98175853D01*
X148821772Y-98111703D01*
X148986184Y-98079000D01*
X149153816Y-98079000D01*
X149318228Y-98111703D01*
X149318228Y-98111703D01*
G37*
G36*
X152139499Y-98278445D02*
G01*
X152176995Y-98289820D01*
X152211554Y-98308292D01*
X152241847Y-98333153D01*
X152266708Y-98363446D01*
X152285180Y-98398005D01*
X152296555Y-98435501D01*
X152301000Y-98480638D01*
X152301000Y-99219362D01*
X152296555Y-99264499D01*
X152285180Y-99301995D01*
X152266708Y-99336554D01*
X152241847Y-99366847D01*
X152211554Y-99391708D01*
X152176995Y-99410180D01*
X152139499Y-99421555D01*
X152094362Y-99426000D01*
X151455638Y-99426000D01*
X151410501Y-99421555D01*
X151373005Y-99410180D01*
X151338446Y-99391708D01*
X151308153Y-99366847D01*
X151283292Y-99336554D01*
X151264820Y-99301995D01*
X151253445Y-99264499D01*
X151249000Y-99219362D01*
X151249000Y-98480638D01*
X151253445Y-98435501D01*
X151264820Y-98398005D01*
X151283292Y-98363446D01*
X151308153Y-98333153D01*
X151338446Y-98308292D01*
X151373005Y-98289820D01*
X151410501Y-98278445D01*
X151455638Y-98274000D01*
X152094362Y-98274000D01*
X152139499Y-98278445D01*
X152139499Y-98278445D01*
G37*
G36*
X136686974Y-97719781D02*
G01*
X136832746Y-97780162D01*
X136832748Y-97780163D01*
X136963940Y-97867822D01*
X137075510Y-97979392D01*
X137163169Y-98110584D01*
X137163170Y-98110586D01*
X137223551Y-98256358D01*
X137254332Y-98411107D01*
X137254332Y-98568893D01*
X137223551Y-98723642D01*
X137172792Y-98846184D01*
X137163169Y-98869416D01*
X137075510Y-99000608D01*
X136963940Y-99112178D01*
X136832748Y-99199837D01*
X136832747Y-99199838D01*
X136832746Y-99199838D01*
X136686974Y-99260219D01*
X136532225Y-99291000D01*
X136374439Y-99291000D01*
X136219690Y-99260219D01*
X136073918Y-99199838D01*
X136073917Y-99199838D01*
X136073916Y-99199837D01*
X135942724Y-99112178D01*
X135831154Y-99000608D01*
X135743495Y-98869416D01*
X135733872Y-98846184D01*
X135683113Y-98723642D01*
X135652332Y-98568893D01*
X135652332Y-98411107D01*
X135683113Y-98256358D01*
X135743494Y-98110586D01*
X135743495Y-98110584D01*
X135831154Y-97979392D01*
X135942724Y-97867822D01*
X136073916Y-97780163D01*
X136073918Y-97780162D01*
X136219690Y-97719781D01*
X136374439Y-97689000D01*
X136532225Y-97689000D01*
X136686974Y-97719781D01*
X136686974Y-97719781D01*
G37*
G36*
X132017144Y-96381703D02*
G01*
X132172016Y-96445853D01*
X132311397Y-96538985D01*
X132429931Y-96657519D01*
X132523063Y-96796900D01*
X132587213Y-96951772D01*
X132619916Y-97116184D01*
X132619916Y-97283816D01*
X132587213Y-97448228D01*
X132523063Y-97603100D01*
X132429931Y-97742481D01*
X132311397Y-97861015D01*
X132172016Y-97954147D01*
X132017144Y-98018297D01*
X131852732Y-98051000D01*
X131685100Y-98051000D01*
X131520688Y-98018297D01*
X131365816Y-97954147D01*
X131226435Y-97861015D01*
X131107901Y-97742481D01*
X131014769Y-97603100D01*
X130950619Y-97448228D01*
X130917916Y-97283816D01*
X130917916Y-97116184D01*
X130950619Y-96951772D01*
X131014769Y-96796900D01*
X131107901Y-96657519D01*
X131226435Y-96538985D01*
X131365816Y-96445853D01*
X131520688Y-96381703D01*
X131685100Y-96349000D01*
X131852732Y-96349000D01*
X132017144Y-96381703D01*
X132017144Y-96381703D01*
G37*
G36*
X152139499Y-96528445D02*
G01*
X152176995Y-96539820D01*
X152211554Y-96558292D01*
X152241847Y-96583153D01*
X152266708Y-96613446D01*
X152285180Y-96648005D01*
X152296555Y-96685501D01*
X152301000Y-96730638D01*
X152301000Y-97469362D01*
X152296555Y-97514499D01*
X152285180Y-97551995D01*
X152266708Y-97586554D01*
X152241847Y-97616847D01*
X152211554Y-97641708D01*
X152176995Y-97660180D01*
X152139499Y-97671555D01*
X152094362Y-97676000D01*
X151455638Y-97676000D01*
X151410501Y-97671555D01*
X151373005Y-97660180D01*
X151338446Y-97641708D01*
X151308153Y-97616847D01*
X151283292Y-97586554D01*
X151264820Y-97551995D01*
X151253445Y-97514499D01*
X151249000Y-97469362D01*
X151249000Y-96730638D01*
X151253445Y-96685501D01*
X151264820Y-96648005D01*
X151283292Y-96613446D01*
X151308153Y-96583153D01*
X151338446Y-96558292D01*
X151373005Y-96539820D01*
X151410501Y-96528445D01*
X151455638Y-96524000D01*
X152094362Y-96524000D01*
X152139499Y-96528445D01*
X152139499Y-96528445D01*
G37*
G36*
X124360443Y-95495519D02*
G01*
X124426627Y-95502037D01*
X124596466Y-95553557D01*
X124752991Y-95637222D01*
X124788729Y-95666552D01*
X124890186Y-95749814D01*
X124970369Y-95847519D01*
X125002778Y-95887009D01*
X125086443Y-96043534D01*
X125137963Y-96213373D01*
X125155359Y-96390000D01*
X125137963Y-96566627D01*
X125086443Y-96736466D01*
X125002778Y-96892991D01*
X124973448Y-96928729D01*
X124890186Y-97030186D01*
X124788729Y-97113448D01*
X124752991Y-97142778D01*
X124596466Y-97226443D01*
X124426627Y-97277963D01*
X124360443Y-97284481D01*
X124294260Y-97291000D01*
X124205740Y-97291000D01*
X124139558Y-97284482D01*
X124073373Y-97277963D01*
X123903534Y-97226443D01*
X123747009Y-97142778D01*
X123711271Y-97113448D01*
X123609814Y-97030186D01*
X123526552Y-96928729D01*
X123497222Y-96892991D01*
X123413557Y-96736466D01*
X123362037Y-96566627D01*
X123344641Y-96390000D01*
X123362037Y-96213373D01*
X123413557Y-96043534D01*
X123497222Y-95887009D01*
X123529631Y-95847519D01*
X123609814Y-95749814D01*
X123711271Y-95666552D01*
X123747009Y-95637222D01*
X123903534Y-95553557D01*
X124073373Y-95502037D01*
X124139558Y-95495518D01*
X124205740Y-95489000D01*
X124294260Y-95489000D01*
X124360443Y-95495519D01*
X124360443Y-95495519D01*
G37*
G36*
X155080442Y-95475518D02*
G01*
X155146627Y-95482037D01*
X155316466Y-95533557D01*
X155472991Y-95617222D01*
X155497361Y-95637222D01*
X155610186Y-95729814D01*
X155693448Y-95831271D01*
X155722778Y-95867009D01*
X155806443Y-96023534D01*
X155857963Y-96193373D01*
X155875359Y-96370000D01*
X155857963Y-96546627D01*
X155806443Y-96716466D01*
X155722778Y-96872991D01*
X155706366Y-96892989D01*
X155610186Y-97010186D01*
X155508729Y-97093448D01*
X155472991Y-97122778D01*
X155316466Y-97206443D01*
X155146627Y-97257963D01*
X155080443Y-97264481D01*
X155014260Y-97271000D01*
X154925740Y-97271000D01*
X154859557Y-97264481D01*
X154793373Y-97257963D01*
X154623534Y-97206443D01*
X154467009Y-97122778D01*
X154431271Y-97093448D01*
X154329814Y-97010186D01*
X154233634Y-96892989D01*
X154217222Y-96872991D01*
X154133557Y-96716466D01*
X154082037Y-96546627D01*
X154064641Y-96370000D01*
X154082037Y-96193373D01*
X154133557Y-96023534D01*
X154217222Y-95867009D01*
X154246552Y-95831271D01*
X154329814Y-95729814D01*
X154442639Y-95637222D01*
X154467009Y-95617222D01*
X154623534Y-95533557D01*
X154793373Y-95482037D01*
X154859558Y-95475518D01*
X154925740Y-95469000D01*
X155014260Y-95469000D01*
X155080442Y-95475518D01*
X155080442Y-95475518D01*
G37*
G36*
X141698228Y-95571703D02*
G01*
X141853100Y-95635853D01*
X141992481Y-95728985D01*
X142111015Y-95847519D01*
X142204147Y-95986900D01*
X142268297Y-96141772D01*
X142301000Y-96306184D01*
X142301000Y-96473816D01*
X142268297Y-96638228D01*
X142204147Y-96793100D01*
X142111015Y-96932481D01*
X141992481Y-97051015D01*
X141853100Y-97144147D01*
X141698228Y-97208297D01*
X141533816Y-97241000D01*
X141366184Y-97241000D01*
X141201772Y-97208297D01*
X141046900Y-97144147D01*
X140907519Y-97051015D01*
X140788985Y-96932481D01*
X140695853Y-96793100D01*
X140631703Y-96638228D01*
X140599000Y-96473816D01*
X140599000Y-96306184D01*
X140631703Y-96141772D01*
X140695853Y-95986900D01*
X140788985Y-95847519D01*
X140907519Y-95728985D01*
X141046900Y-95635853D01*
X141201772Y-95571703D01*
X141366184Y-95539000D01*
X141533816Y-95539000D01*
X141698228Y-95571703D01*
X141698228Y-95571703D01*
G37*
G36*
X149318228Y-95571703D02*
G01*
X149473100Y-95635853D01*
X149612481Y-95728985D01*
X149731015Y-95847519D01*
X149824147Y-95986900D01*
X149888297Y-96141772D01*
X149921000Y-96306184D01*
X149921000Y-96473816D01*
X149888297Y-96638228D01*
X149824147Y-96793100D01*
X149731015Y-96932481D01*
X149612481Y-97051015D01*
X149473100Y-97144147D01*
X149318228Y-97208297D01*
X149153816Y-97241000D01*
X148986184Y-97241000D01*
X148821772Y-97208297D01*
X148666900Y-97144147D01*
X148527519Y-97051015D01*
X148408985Y-96932481D01*
X148315853Y-96793100D01*
X148251703Y-96638228D01*
X148219000Y-96473816D01*
X148219000Y-96306184D01*
X148251703Y-96141772D01*
X148315853Y-95986900D01*
X148408985Y-95847519D01*
X148527519Y-95728985D01*
X148666900Y-95635853D01*
X148821772Y-95571703D01*
X148986184Y-95539000D01*
X149153816Y-95539000D01*
X149318228Y-95571703D01*
X149318228Y-95571703D01*
G37*
G36*
X124360442Y-92955518D02*
G01*
X124426627Y-92962037D01*
X124596466Y-93013557D01*
X124752991Y-93097222D01*
X124788729Y-93126552D01*
X124890186Y-93209814D01*
X124970369Y-93307519D01*
X125002778Y-93347009D01*
X125086443Y-93503534D01*
X125137963Y-93673373D01*
X125155359Y-93850000D01*
X125137963Y-94026627D01*
X125086443Y-94196466D01*
X125002778Y-94352991D01*
X124973448Y-94388729D01*
X124890186Y-94490186D01*
X124788729Y-94573448D01*
X124752991Y-94602778D01*
X124596466Y-94686443D01*
X124426627Y-94737963D01*
X124360442Y-94744482D01*
X124294260Y-94751000D01*
X124205740Y-94751000D01*
X124139557Y-94744481D01*
X124073373Y-94737963D01*
X123903534Y-94686443D01*
X123747009Y-94602778D01*
X123711271Y-94573448D01*
X123609814Y-94490186D01*
X123526552Y-94388729D01*
X123497222Y-94352991D01*
X123413557Y-94196466D01*
X123362037Y-94026627D01*
X123344641Y-93850000D01*
X123362037Y-93673373D01*
X123413557Y-93503534D01*
X123497222Y-93347009D01*
X123529631Y-93307519D01*
X123609814Y-93209814D01*
X123711271Y-93126552D01*
X123747009Y-93097222D01*
X123903534Y-93013557D01*
X124073373Y-92962037D01*
X124139558Y-92955518D01*
X124205740Y-92949000D01*
X124294260Y-92949000D01*
X124360442Y-92955518D01*
X124360442Y-92955518D01*
G37*
G36*
X155080443Y-92935519D02*
G01*
X155146627Y-92942037D01*
X155316466Y-92993557D01*
X155472991Y-93077222D01*
X155497361Y-93097222D01*
X155610186Y-93189814D01*
X155693448Y-93291271D01*
X155722778Y-93327009D01*
X155806443Y-93483534D01*
X155857963Y-93653373D01*
X155875359Y-93830000D01*
X155857963Y-94006627D01*
X155806443Y-94176466D01*
X155722778Y-94332991D01*
X155706366Y-94352989D01*
X155610186Y-94470186D01*
X155508729Y-94553448D01*
X155472991Y-94582778D01*
X155316466Y-94666443D01*
X155146627Y-94717963D01*
X155080442Y-94724482D01*
X155014260Y-94731000D01*
X154925740Y-94731000D01*
X154859558Y-94724482D01*
X154793373Y-94717963D01*
X154623534Y-94666443D01*
X154467009Y-94582778D01*
X154431271Y-94553448D01*
X154329814Y-94470186D01*
X154233634Y-94352989D01*
X154217222Y-94332991D01*
X154133557Y-94176466D01*
X154082037Y-94006627D01*
X154064641Y-93830000D01*
X154082037Y-93653373D01*
X154133557Y-93483534D01*
X154217222Y-93327009D01*
X154246552Y-93291271D01*
X154329814Y-93189814D01*
X154442639Y-93097222D01*
X154467009Y-93077222D01*
X154623534Y-92993557D01*
X154793373Y-92942037D01*
X154859557Y-92935519D01*
X154925740Y-92929000D01*
X155014260Y-92929000D01*
X155080443Y-92935519D01*
X155080443Y-92935519D01*
G37*
G36*
X141698228Y-93031703D02*
G01*
X141853100Y-93095853D01*
X141992481Y-93188985D01*
X142111015Y-93307519D01*
X142204147Y-93446900D01*
X142268297Y-93601772D01*
X142301000Y-93766184D01*
X142301000Y-93933816D01*
X142268297Y-94098228D01*
X142204147Y-94253100D01*
X142111015Y-94392481D01*
X141992481Y-94511015D01*
X141853100Y-94604147D01*
X141698228Y-94668297D01*
X141533816Y-94701000D01*
X141366184Y-94701000D01*
X141201772Y-94668297D01*
X141046900Y-94604147D01*
X140907519Y-94511015D01*
X140788985Y-94392481D01*
X140695853Y-94253100D01*
X140631703Y-94098228D01*
X140599000Y-93933816D01*
X140599000Y-93766184D01*
X140631703Y-93601772D01*
X140695853Y-93446900D01*
X140788985Y-93307519D01*
X140907519Y-93188985D01*
X141046900Y-93095853D01*
X141201772Y-93031703D01*
X141366184Y-92999000D01*
X141533816Y-92999000D01*
X141698228Y-93031703D01*
X141698228Y-93031703D01*
G37*
G36*
X149318228Y-93031703D02*
G01*
X149473100Y-93095853D01*
X149612481Y-93188985D01*
X149731015Y-93307519D01*
X149824147Y-93446900D01*
X149888297Y-93601772D01*
X149921000Y-93766184D01*
X149921000Y-93933816D01*
X149888297Y-94098228D01*
X149824147Y-94253100D01*
X149731015Y-94392481D01*
X149612481Y-94511015D01*
X149473100Y-94604147D01*
X149318228Y-94668297D01*
X149153816Y-94701000D01*
X148986184Y-94701000D01*
X148821772Y-94668297D01*
X148666900Y-94604147D01*
X148527519Y-94511015D01*
X148408985Y-94392481D01*
X148315853Y-94253100D01*
X148251703Y-94098228D01*
X148219000Y-93933816D01*
X148219000Y-93766184D01*
X148251703Y-93601772D01*
X148315853Y-93446900D01*
X148408985Y-93307519D01*
X148527519Y-93188985D01*
X148666900Y-93095853D01*
X148821772Y-93031703D01*
X148986184Y-92999000D01*
X149153816Y-92999000D01*
X149318228Y-93031703D01*
X149318228Y-93031703D01*
G37*
G36*
X124360442Y-90415518D02*
G01*
X124426627Y-90422037D01*
X124596466Y-90473557D01*
X124752991Y-90557222D01*
X124788729Y-90586552D01*
X124890186Y-90669814D01*
X124970369Y-90767519D01*
X125002778Y-90807009D01*
X125086443Y-90963534D01*
X125137963Y-91133373D01*
X125155359Y-91310000D01*
X125137963Y-91486627D01*
X125086443Y-91656466D01*
X125002778Y-91812991D01*
X124973448Y-91848729D01*
X124890186Y-91950186D01*
X124788729Y-92033448D01*
X124752991Y-92062778D01*
X124596466Y-92146443D01*
X124426627Y-92197963D01*
X124360442Y-92204482D01*
X124294260Y-92211000D01*
X124205740Y-92211000D01*
X124139558Y-92204482D01*
X124073373Y-92197963D01*
X123903534Y-92146443D01*
X123747009Y-92062778D01*
X123711271Y-92033448D01*
X123609814Y-91950186D01*
X123526552Y-91848729D01*
X123497222Y-91812991D01*
X123413557Y-91656466D01*
X123362037Y-91486627D01*
X123344641Y-91310000D01*
X123362037Y-91133373D01*
X123413557Y-90963534D01*
X123497222Y-90807009D01*
X123529631Y-90767519D01*
X123609814Y-90669814D01*
X123711271Y-90586552D01*
X123747009Y-90557222D01*
X123903534Y-90473557D01*
X124073373Y-90422037D01*
X124139558Y-90415518D01*
X124205740Y-90409000D01*
X124294260Y-90409000D01*
X124360442Y-90415518D01*
X124360442Y-90415518D01*
G37*
G36*
X155080442Y-90395518D02*
G01*
X155146627Y-90402037D01*
X155316466Y-90453557D01*
X155472991Y-90537222D01*
X155497361Y-90557222D01*
X155610186Y-90649814D01*
X155693448Y-90751271D01*
X155722778Y-90787009D01*
X155806443Y-90943534D01*
X155857963Y-91113373D01*
X155875359Y-91290000D01*
X155857963Y-91466627D01*
X155806443Y-91636466D01*
X155722778Y-91792991D01*
X155706366Y-91812989D01*
X155610186Y-91930186D01*
X155508729Y-92013448D01*
X155472991Y-92042778D01*
X155316466Y-92126443D01*
X155146627Y-92177963D01*
X155080442Y-92184482D01*
X155014260Y-92191000D01*
X154925740Y-92191000D01*
X154859557Y-92184481D01*
X154793373Y-92177963D01*
X154623534Y-92126443D01*
X154467009Y-92042778D01*
X154431271Y-92013448D01*
X154329814Y-91930186D01*
X154233634Y-91812989D01*
X154217222Y-91792991D01*
X154133557Y-91636466D01*
X154082037Y-91466627D01*
X154064641Y-91290000D01*
X154082037Y-91113373D01*
X154133557Y-90943534D01*
X154217222Y-90787009D01*
X154246552Y-90751271D01*
X154329814Y-90649814D01*
X154442639Y-90557222D01*
X154467009Y-90537222D01*
X154623534Y-90453557D01*
X154793373Y-90402037D01*
X154859558Y-90395518D01*
X154925740Y-90389000D01*
X155014260Y-90389000D01*
X155080442Y-90395518D01*
X155080442Y-90395518D01*
G37*
G36*
X141698228Y-90491703D02*
G01*
X141853100Y-90555853D01*
X141992481Y-90648985D01*
X142111015Y-90767519D01*
X142204147Y-90906900D01*
X142268297Y-91061772D01*
X142301000Y-91226184D01*
X142301000Y-91393816D01*
X142268297Y-91558228D01*
X142204147Y-91713100D01*
X142111015Y-91852481D01*
X141992481Y-91971015D01*
X141853100Y-92064147D01*
X141698228Y-92128297D01*
X141533816Y-92161000D01*
X141366184Y-92161000D01*
X141201772Y-92128297D01*
X141046900Y-92064147D01*
X140907519Y-91971015D01*
X140788985Y-91852481D01*
X140695853Y-91713100D01*
X140631703Y-91558228D01*
X140599000Y-91393816D01*
X140599000Y-91226184D01*
X140631703Y-91061772D01*
X140695853Y-90906900D01*
X140788985Y-90767519D01*
X140907519Y-90648985D01*
X141046900Y-90555853D01*
X141201772Y-90491703D01*
X141366184Y-90459000D01*
X141533816Y-90459000D01*
X141698228Y-90491703D01*
X141698228Y-90491703D01*
G37*
G36*
X149318228Y-90491703D02*
G01*
X149473100Y-90555853D01*
X149612481Y-90648985D01*
X149731015Y-90767519D01*
X149824147Y-90906900D01*
X149888297Y-91061772D01*
X149921000Y-91226184D01*
X149921000Y-91393816D01*
X149888297Y-91558228D01*
X149824147Y-91713100D01*
X149731015Y-91852481D01*
X149612481Y-91971015D01*
X149473100Y-92064147D01*
X149318228Y-92128297D01*
X149153816Y-92161000D01*
X148986184Y-92161000D01*
X148821772Y-92128297D01*
X148666900Y-92064147D01*
X148527519Y-91971015D01*
X148408985Y-91852481D01*
X148315853Y-91713100D01*
X148251703Y-91558228D01*
X148219000Y-91393816D01*
X148219000Y-91226184D01*
X148251703Y-91061772D01*
X148315853Y-90906900D01*
X148408985Y-90767519D01*
X148527519Y-90648985D01*
X148666900Y-90555853D01*
X148821772Y-90491703D01*
X148986184Y-90459000D01*
X149153816Y-90459000D01*
X149318228Y-90491703D01*
X149318228Y-90491703D01*
G37*
G36*
X134590442Y-89805518D02*
G01*
X134656627Y-89812037D01*
X134826466Y-89863557D01*
X134982991Y-89947222D01*
X135018729Y-89976552D01*
X135120186Y-90059814D01*
X135203448Y-90161271D01*
X135232778Y-90197009D01*
X135316443Y-90353534D01*
X135367963Y-90523373D01*
X135385359Y-90700000D01*
X135367963Y-90876627D01*
X135316443Y-91046466D01*
X135232778Y-91202991D01*
X135213744Y-91226184D01*
X135120186Y-91340186D01*
X135018729Y-91423448D01*
X134982991Y-91452778D01*
X134826466Y-91536443D01*
X134656627Y-91587963D01*
X134590442Y-91594482D01*
X134524260Y-91601000D01*
X134435740Y-91601000D01*
X134369558Y-91594482D01*
X134303373Y-91587963D01*
X134133534Y-91536443D01*
X133977009Y-91452778D01*
X133941271Y-91423448D01*
X133839814Y-91340186D01*
X133746256Y-91226184D01*
X133727222Y-91202991D01*
X133643557Y-91046466D01*
X133592037Y-90876627D01*
X133574641Y-90700000D01*
X133592037Y-90523373D01*
X133643557Y-90353534D01*
X133727222Y-90197009D01*
X133756552Y-90161271D01*
X133839814Y-90059814D01*
X133941271Y-89976552D01*
X133977009Y-89947222D01*
X134133534Y-89863557D01*
X134303373Y-89812037D01*
X134369558Y-89805518D01*
X134435740Y-89799000D01*
X134524260Y-89799000D01*
X134590442Y-89805518D01*
X134590442Y-89805518D01*
G37*
G36*
X137130442Y-89805518D02*
G01*
X137196627Y-89812037D01*
X137366466Y-89863557D01*
X137522991Y-89947222D01*
X137558729Y-89976552D01*
X137660186Y-90059814D01*
X137743448Y-90161271D01*
X137772778Y-90197009D01*
X137856443Y-90353534D01*
X137907963Y-90523373D01*
X137925359Y-90700000D01*
X137907963Y-90876627D01*
X137856443Y-91046466D01*
X137772778Y-91202991D01*
X137753744Y-91226184D01*
X137660186Y-91340186D01*
X137558729Y-91423448D01*
X137522991Y-91452778D01*
X137366466Y-91536443D01*
X137196627Y-91587963D01*
X137130442Y-91594482D01*
X137064260Y-91601000D01*
X136975740Y-91601000D01*
X136909558Y-91594482D01*
X136843373Y-91587963D01*
X136673534Y-91536443D01*
X136517009Y-91452778D01*
X136481271Y-91423448D01*
X136379814Y-91340186D01*
X136286256Y-91226184D01*
X136267222Y-91202991D01*
X136183557Y-91046466D01*
X136132037Y-90876627D01*
X136114641Y-90700000D01*
X136132037Y-90523373D01*
X136183557Y-90353534D01*
X136267222Y-90197009D01*
X136296552Y-90161271D01*
X136379814Y-90059814D01*
X136481271Y-89976552D01*
X136517009Y-89947222D01*
X136673534Y-89863557D01*
X136843373Y-89812037D01*
X136909558Y-89805518D01*
X136975740Y-89799000D01*
X137064260Y-89799000D01*
X137130442Y-89805518D01*
X137130442Y-89805518D01*
G37*
G36*
X132050442Y-89805518D02*
G01*
X132116627Y-89812037D01*
X132286466Y-89863557D01*
X132442991Y-89947222D01*
X132478729Y-89976552D01*
X132580186Y-90059814D01*
X132663448Y-90161271D01*
X132692778Y-90197009D01*
X132776443Y-90353534D01*
X132827963Y-90523373D01*
X132845359Y-90700000D01*
X132827963Y-90876627D01*
X132776443Y-91046466D01*
X132692778Y-91202991D01*
X132673744Y-91226184D01*
X132580186Y-91340186D01*
X132478729Y-91423448D01*
X132442991Y-91452778D01*
X132286466Y-91536443D01*
X132116627Y-91587963D01*
X132050442Y-91594482D01*
X131984260Y-91601000D01*
X131895740Y-91601000D01*
X131829558Y-91594482D01*
X131763373Y-91587963D01*
X131593534Y-91536443D01*
X131437009Y-91452778D01*
X131401271Y-91423448D01*
X131299814Y-91340186D01*
X131206256Y-91226184D01*
X131187222Y-91202991D01*
X131103557Y-91046466D01*
X131052037Y-90876627D01*
X131034641Y-90700000D01*
X131052037Y-90523373D01*
X131103557Y-90353534D01*
X131187222Y-90197009D01*
X131216552Y-90161271D01*
X131299814Y-90059814D01*
X131401271Y-89976552D01*
X131437009Y-89947222D01*
X131593534Y-89863557D01*
X131763373Y-89812037D01*
X131829558Y-89805518D01*
X131895740Y-89799000D01*
X131984260Y-89799000D01*
X132050442Y-89805518D01*
X132050442Y-89805518D01*
G37*
G36*
X130301000Y-91601000D02*
G01*
X128499000Y-91601000D01*
X128499000Y-89799000D01*
X130301000Y-89799000D01*
X130301000Y-91601000D01*
X130301000Y-91601000D01*
G37*
G36*
X124360442Y-87875518D02*
G01*
X124426627Y-87882037D01*
X124596466Y-87933557D01*
X124752991Y-88017222D01*
X124788729Y-88046552D01*
X124890186Y-88129814D01*
X124970369Y-88227519D01*
X125002778Y-88267009D01*
X125086443Y-88423534D01*
X125137963Y-88593373D01*
X125155359Y-88770000D01*
X125137963Y-88946627D01*
X125086443Y-89116466D01*
X125002778Y-89272991D01*
X124973448Y-89308729D01*
X124890186Y-89410186D01*
X124788729Y-89493448D01*
X124752991Y-89522778D01*
X124596466Y-89606443D01*
X124426627Y-89657963D01*
X124360442Y-89664482D01*
X124294260Y-89671000D01*
X124205740Y-89671000D01*
X124139558Y-89664482D01*
X124073373Y-89657963D01*
X123903534Y-89606443D01*
X123747009Y-89522778D01*
X123711271Y-89493448D01*
X123609814Y-89410186D01*
X123526552Y-89308729D01*
X123497222Y-89272991D01*
X123413557Y-89116466D01*
X123362037Y-88946627D01*
X123344641Y-88770000D01*
X123362037Y-88593373D01*
X123413557Y-88423534D01*
X123497222Y-88267009D01*
X123529631Y-88227519D01*
X123609814Y-88129814D01*
X123711271Y-88046552D01*
X123747009Y-88017222D01*
X123903534Y-87933557D01*
X124073373Y-87882037D01*
X124139558Y-87875518D01*
X124205740Y-87869000D01*
X124294260Y-87869000D01*
X124360442Y-87875518D01*
X124360442Y-87875518D01*
G37*
G36*
X155080442Y-87855518D02*
G01*
X155146627Y-87862037D01*
X155316466Y-87913557D01*
X155472991Y-87997222D01*
X155497361Y-88017222D01*
X155610186Y-88109814D01*
X155693448Y-88211271D01*
X155722778Y-88247009D01*
X155806443Y-88403534D01*
X155857963Y-88573373D01*
X155875359Y-88750000D01*
X155857963Y-88926627D01*
X155806443Y-89096466D01*
X155722778Y-89252991D01*
X155706366Y-89272989D01*
X155610186Y-89390186D01*
X155508729Y-89473448D01*
X155472991Y-89502778D01*
X155316466Y-89586443D01*
X155146627Y-89637963D01*
X155080442Y-89644482D01*
X155014260Y-89651000D01*
X154925740Y-89651000D01*
X154859558Y-89644482D01*
X154793373Y-89637963D01*
X154623534Y-89586443D01*
X154467009Y-89502778D01*
X154431271Y-89473448D01*
X154329814Y-89390186D01*
X154233634Y-89272989D01*
X154217222Y-89252991D01*
X154133557Y-89096466D01*
X154082037Y-88926627D01*
X154064641Y-88750000D01*
X154082037Y-88573373D01*
X154133557Y-88403534D01*
X154217222Y-88247009D01*
X154246552Y-88211271D01*
X154329814Y-88109814D01*
X154442639Y-88017222D01*
X154467009Y-87997222D01*
X154623534Y-87913557D01*
X154793373Y-87862037D01*
X154859558Y-87855518D01*
X154925740Y-87849000D01*
X155014260Y-87849000D01*
X155080442Y-87855518D01*
X155080442Y-87855518D01*
G37*
G36*
X149318228Y-87951703D02*
G01*
X149473100Y-88015853D01*
X149612481Y-88108985D01*
X149731015Y-88227519D01*
X149824147Y-88366900D01*
X149888297Y-88521772D01*
X149921000Y-88686184D01*
X149921000Y-88853816D01*
X149888297Y-89018228D01*
X149824147Y-89173100D01*
X149731015Y-89312481D01*
X149612481Y-89431015D01*
X149473100Y-89524147D01*
X149318228Y-89588297D01*
X149153816Y-89621000D01*
X148986184Y-89621000D01*
X148821772Y-89588297D01*
X148666900Y-89524147D01*
X148527519Y-89431015D01*
X148408985Y-89312481D01*
X148315853Y-89173100D01*
X148251703Y-89018228D01*
X148219000Y-88853816D01*
X148219000Y-88686184D01*
X148251703Y-88521772D01*
X148315853Y-88366900D01*
X148408985Y-88227519D01*
X148527519Y-88108985D01*
X148666900Y-88015853D01*
X148821772Y-87951703D01*
X148986184Y-87919000D01*
X149153816Y-87919000D01*
X149318228Y-87951703D01*
X149318228Y-87951703D01*
G37*
G36*
X141698228Y-87951703D02*
G01*
X141853100Y-88015853D01*
X141992481Y-88108985D01*
X142111015Y-88227519D01*
X142204147Y-88366900D01*
X142268297Y-88521772D01*
X142301000Y-88686184D01*
X142301000Y-88853816D01*
X142268297Y-89018228D01*
X142204147Y-89173100D01*
X142111015Y-89312481D01*
X141992481Y-89431015D01*
X141853100Y-89524147D01*
X141698228Y-89588297D01*
X141533816Y-89621000D01*
X141366184Y-89621000D01*
X141201772Y-89588297D01*
X141046900Y-89524147D01*
X140907519Y-89431015D01*
X140788985Y-89312481D01*
X140695853Y-89173100D01*
X140631703Y-89018228D01*
X140599000Y-88853816D01*
X140599000Y-88686184D01*
X140631703Y-88521772D01*
X140695853Y-88366900D01*
X140788985Y-88227519D01*
X140907519Y-88108985D01*
X141046900Y-88015853D01*
X141201772Y-87951703D01*
X141366184Y-87919000D01*
X141533816Y-87919000D01*
X141698228Y-87951703D01*
X141698228Y-87951703D01*
G37*
G36*
X137130442Y-87265518D02*
G01*
X137196627Y-87272037D01*
X137366466Y-87323557D01*
X137522991Y-87407222D01*
X137558729Y-87436552D01*
X137660186Y-87519814D01*
X137743448Y-87621271D01*
X137772778Y-87657009D01*
X137856443Y-87813534D01*
X137907963Y-87983373D01*
X137925359Y-88160000D01*
X137907963Y-88336627D01*
X137856443Y-88506466D01*
X137772778Y-88662991D01*
X137753744Y-88686184D01*
X137660186Y-88800186D01*
X137558729Y-88883448D01*
X137522991Y-88912778D01*
X137366466Y-88996443D01*
X137196627Y-89047963D01*
X137130442Y-89054482D01*
X137064260Y-89061000D01*
X136975740Y-89061000D01*
X136909558Y-89054482D01*
X136843373Y-89047963D01*
X136673534Y-88996443D01*
X136517009Y-88912778D01*
X136481271Y-88883448D01*
X136379814Y-88800186D01*
X136286256Y-88686184D01*
X136267222Y-88662991D01*
X136183557Y-88506466D01*
X136132037Y-88336627D01*
X136114641Y-88160000D01*
X136132037Y-87983373D01*
X136183557Y-87813534D01*
X136267222Y-87657009D01*
X136296552Y-87621271D01*
X136379814Y-87519814D01*
X136481271Y-87436552D01*
X136517009Y-87407222D01*
X136673534Y-87323557D01*
X136843373Y-87272037D01*
X136909558Y-87265518D01*
X136975740Y-87259000D01*
X137064260Y-87259000D01*
X137130442Y-87265518D01*
X137130442Y-87265518D01*
G37*
G36*
X134590442Y-87265518D02*
G01*
X134656627Y-87272037D01*
X134826466Y-87323557D01*
X134982991Y-87407222D01*
X135018729Y-87436552D01*
X135120186Y-87519814D01*
X135203448Y-87621271D01*
X135232778Y-87657009D01*
X135316443Y-87813534D01*
X135367963Y-87983373D01*
X135385359Y-88160000D01*
X135367963Y-88336627D01*
X135316443Y-88506466D01*
X135232778Y-88662991D01*
X135213744Y-88686184D01*
X135120186Y-88800186D01*
X135018729Y-88883448D01*
X134982991Y-88912778D01*
X134826466Y-88996443D01*
X134656627Y-89047963D01*
X134590442Y-89054482D01*
X134524260Y-89061000D01*
X134435740Y-89061000D01*
X134369558Y-89054482D01*
X134303373Y-89047963D01*
X134133534Y-88996443D01*
X133977009Y-88912778D01*
X133941271Y-88883448D01*
X133839814Y-88800186D01*
X133746256Y-88686184D01*
X133727222Y-88662991D01*
X133643557Y-88506466D01*
X133592037Y-88336627D01*
X133574641Y-88160000D01*
X133592037Y-87983373D01*
X133643557Y-87813534D01*
X133727222Y-87657009D01*
X133756552Y-87621271D01*
X133839814Y-87519814D01*
X133941271Y-87436552D01*
X133977009Y-87407222D01*
X134133534Y-87323557D01*
X134303373Y-87272037D01*
X134369558Y-87265518D01*
X134435740Y-87259000D01*
X134524260Y-87259000D01*
X134590442Y-87265518D01*
X134590442Y-87265518D01*
G37*
G36*
X132050442Y-87265518D02*
G01*
X132116627Y-87272037D01*
X132286466Y-87323557D01*
X132442991Y-87407222D01*
X132478729Y-87436552D01*
X132580186Y-87519814D01*
X132663448Y-87621271D01*
X132692778Y-87657009D01*
X132776443Y-87813534D01*
X132827963Y-87983373D01*
X132845359Y-88160000D01*
X132827963Y-88336627D01*
X132776443Y-88506466D01*
X132692778Y-88662991D01*
X132673744Y-88686184D01*
X132580186Y-88800186D01*
X132478729Y-88883448D01*
X132442991Y-88912778D01*
X132286466Y-88996443D01*
X132116627Y-89047963D01*
X132050442Y-89054482D01*
X131984260Y-89061000D01*
X131895740Y-89061000D01*
X131829558Y-89054482D01*
X131763373Y-89047963D01*
X131593534Y-88996443D01*
X131437009Y-88912778D01*
X131401271Y-88883448D01*
X131299814Y-88800186D01*
X131206256Y-88686184D01*
X131187222Y-88662991D01*
X131103557Y-88506466D01*
X131052037Y-88336627D01*
X131034641Y-88160000D01*
X131052037Y-87983373D01*
X131103557Y-87813534D01*
X131187222Y-87657009D01*
X131216552Y-87621271D01*
X131299814Y-87519814D01*
X131401271Y-87436552D01*
X131437009Y-87407222D01*
X131593534Y-87323557D01*
X131763373Y-87272037D01*
X131829558Y-87265518D01*
X131895740Y-87259000D01*
X131984260Y-87259000D01*
X132050442Y-87265518D01*
X132050442Y-87265518D01*
G37*
G36*
X129510442Y-87265518D02*
G01*
X129576627Y-87272037D01*
X129746466Y-87323557D01*
X129902991Y-87407222D01*
X129938729Y-87436552D01*
X130040186Y-87519814D01*
X130123448Y-87621271D01*
X130152778Y-87657009D01*
X130236443Y-87813534D01*
X130287963Y-87983373D01*
X130305359Y-88160000D01*
X130287963Y-88336627D01*
X130236443Y-88506466D01*
X130152778Y-88662991D01*
X130133744Y-88686184D01*
X130040186Y-88800186D01*
X129938729Y-88883448D01*
X129902991Y-88912778D01*
X129746466Y-88996443D01*
X129576627Y-89047963D01*
X129510442Y-89054482D01*
X129444260Y-89061000D01*
X129355740Y-89061000D01*
X129289558Y-89054482D01*
X129223373Y-89047963D01*
X129053534Y-88996443D01*
X128897009Y-88912778D01*
X128861271Y-88883448D01*
X128759814Y-88800186D01*
X128666256Y-88686184D01*
X128647222Y-88662991D01*
X128563557Y-88506466D01*
X128512037Y-88336627D01*
X128494641Y-88160000D01*
X128512037Y-87983373D01*
X128563557Y-87813534D01*
X128647222Y-87657009D01*
X128676552Y-87621271D01*
X128759814Y-87519814D01*
X128861271Y-87436552D01*
X128897009Y-87407222D01*
X129053534Y-87323557D01*
X129223373Y-87272037D01*
X129289558Y-87265518D01*
X129355740Y-87259000D01*
X129444260Y-87259000D01*
X129510442Y-87265518D01*
X129510442Y-87265518D01*
G37*
G36*
X124360443Y-85335519D02*
G01*
X124426627Y-85342037D01*
X124596466Y-85393557D01*
X124752991Y-85477222D01*
X124788729Y-85506552D01*
X124890186Y-85589814D01*
X124969079Y-85685947D01*
X125002778Y-85727009D01*
X125086443Y-85883534D01*
X125137963Y-86053373D01*
X125155359Y-86230000D01*
X125137963Y-86406627D01*
X125086443Y-86576466D01*
X125002778Y-86732991D01*
X124973448Y-86768729D01*
X124890186Y-86870186D01*
X124788729Y-86953448D01*
X124752991Y-86982778D01*
X124596466Y-87066443D01*
X124426627Y-87117963D01*
X124360443Y-87124481D01*
X124294260Y-87131000D01*
X124205740Y-87131000D01*
X124139557Y-87124481D01*
X124073373Y-87117963D01*
X123903534Y-87066443D01*
X123747009Y-86982778D01*
X123711271Y-86953448D01*
X123609814Y-86870186D01*
X123526552Y-86768729D01*
X123497222Y-86732991D01*
X123413557Y-86576466D01*
X123362037Y-86406627D01*
X123344641Y-86230000D01*
X123362037Y-86053373D01*
X123413557Y-85883534D01*
X123497222Y-85727009D01*
X123530921Y-85685947D01*
X123609814Y-85589814D01*
X123711271Y-85506552D01*
X123747009Y-85477222D01*
X123903534Y-85393557D01*
X124073373Y-85342037D01*
X124139557Y-85335519D01*
X124205740Y-85329000D01*
X124294260Y-85329000D01*
X124360443Y-85335519D01*
X124360443Y-85335519D01*
G37*
G36*
X155080442Y-85315518D02*
G01*
X155146627Y-85322037D01*
X155316466Y-85373557D01*
X155472991Y-85457222D01*
X155497361Y-85477222D01*
X155610186Y-85569814D01*
X155693448Y-85671271D01*
X155722778Y-85707009D01*
X155806443Y-85863534D01*
X155857963Y-86033373D01*
X155875359Y-86210000D01*
X155857963Y-86386627D01*
X155806443Y-86556466D01*
X155722778Y-86712991D01*
X155706366Y-86732989D01*
X155610186Y-86850186D01*
X155508729Y-86933448D01*
X155472991Y-86962778D01*
X155316466Y-87046443D01*
X155146627Y-87097963D01*
X155080442Y-87104482D01*
X155014260Y-87111000D01*
X154925740Y-87111000D01*
X154859558Y-87104482D01*
X154793373Y-87097963D01*
X154623534Y-87046443D01*
X154467009Y-86962778D01*
X154431271Y-86933448D01*
X154329814Y-86850186D01*
X154233634Y-86732989D01*
X154217222Y-86712991D01*
X154133557Y-86556466D01*
X154082037Y-86386627D01*
X154064641Y-86210000D01*
X154082037Y-86033373D01*
X154133557Y-85863534D01*
X154217222Y-85707009D01*
X154246552Y-85671271D01*
X154329814Y-85569814D01*
X154442639Y-85477222D01*
X154467009Y-85457222D01*
X154623534Y-85373557D01*
X154793373Y-85322037D01*
X154859558Y-85315518D01*
X154925740Y-85309000D01*
X155014260Y-85309000D01*
X155080442Y-85315518D01*
X155080442Y-85315518D01*
G37*
G36*
X141698228Y-85411703D02*
G01*
X141853100Y-85475853D01*
X141992481Y-85568985D01*
X142111015Y-85687519D01*
X142204147Y-85826900D01*
X142268297Y-85981772D01*
X142301000Y-86146184D01*
X142301000Y-86313816D01*
X142268297Y-86478228D01*
X142204147Y-86633100D01*
X142111015Y-86772481D01*
X141992481Y-86891015D01*
X141853100Y-86984147D01*
X141698228Y-87048297D01*
X141533816Y-87081000D01*
X141366184Y-87081000D01*
X141201772Y-87048297D01*
X141046900Y-86984147D01*
X140907519Y-86891015D01*
X140788985Y-86772481D01*
X140695853Y-86633100D01*
X140631703Y-86478228D01*
X140599000Y-86313816D01*
X140599000Y-86146184D01*
X140631703Y-85981772D01*
X140695853Y-85826900D01*
X140788985Y-85687519D01*
X140907519Y-85568985D01*
X141046900Y-85475853D01*
X141201772Y-85411703D01*
X141366184Y-85379000D01*
X141533816Y-85379000D01*
X141698228Y-85411703D01*
X141698228Y-85411703D01*
G37*
G36*
X149318228Y-85411703D02*
G01*
X149473100Y-85475853D01*
X149612481Y-85568985D01*
X149731015Y-85687519D01*
X149824147Y-85826900D01*
X149888297Y-85981772D01*
X149921000Y-86146184D01*
X149921000Y-86313816D01*
X149888297Y-86478228D01*
X149824147Y-86633100D01*
X149731015Y-86772481D01*
X149612481Y-86891015D01*
X149473100Y-86984147D01*
X149318228Y-87048297D01*
X149153816Y-87081000D01*
X148986184Y-87081000D01*
X148821772Y-87048297D01*
X148666900Y-86984147D01*
X148527519Y-86891015D01*
X148408985Y-86772481D01*
X148315853Y-86633100D01*
X148251703Y-86478228D01*
X148219000Y-86313816D01*
X148219000Y-86146184D01*
X148251703Y-85981772D01*
X148315853Y-85826900D01*
X148408985Y-85687519D01*
X148527519Y-85568985D01*
X148666900Y-85475853D01*
X148821772Y-85411703D01*
X148986184Y-85379000D01*
X149153816Y-85379000D01*
X149318228Y-85411703D01*
X149318228Y-85411703D01*
G37*
G36*
X133031947Y-84122121D02*
G01*
X133111576Y-84129964D01*
X133264827Y-84176452D01*
X133264830Y-84176453D01*
X133406063Y-84251944D01*
X133529859Y-84353541D01*
X133631456Y-84477337D01*
X133706947Y-84618570D01*
X133706948Y-84618573D01*
X133753436Y-84771824D01*
X133769133Y-84931200D01*
X133753436Y-85090576D01*
X133706948Y-85243827D01*
X133706947Y-85243830D01*
X133631456Y-85385063D01*
X133529859Y-85508859D01*
X133406063Y-85610456D01*
X133264830Y-85685947D01*
X133264827Y-85685948D01*
X133111576Y-85732436D01*
X133031947Y-85740279D01*
X132992134Y-85744200D01*
X132912266Y-85744200D01*
X132872453Y-85740279D01*
X132792824Y-85732436D01*
X132639573Y-85685948D01*
X132639570Y-85685947D01*
X132498337Y-85610456D01*
X132374541Y-85508859D01*
X132272944Y-85385063D01*
X132197453Y-85243830D01*
X132197452Y-85243827D01*
X132150964Y-85090576D01*
X132135267Y-84931200D01*
X132150964Y-84771824D01*
X132197452Y-84618573D01*
X132197453Y-84618570D01*
X132272944Y-84477337D01*
X132374541Y-84353541D01*
X132498337Y-84251944D01*
X132639570Y-84176453D01*
X132639573Y-84176452D01*
X132792824Y-84129964D01*
X132872453Y-84122121D01*
X132912266Y-84118200D01*
X132992134Y-84118200D01*
X133031947Y-84122121D01*
X133031947Y-84122121D01*
G37*
G36*
X128510747Y-84122121D02*
G01*
X128590376Y-84129964D01*
X128743627Y-84176452D01*
X128743630Y-84176453D01*
X128884863Y-84251944D01*
X129008659Y-84353541D01*
X129110256Y-84477337D01*
X129185747Y-84618570D01*
X129185748Y-84618573D01*
X129232236Y-84771824D01*
X129247933Y-84931200D01*
X129232236Y-85090576D01*
X129185748Y-85243827D01*
X129185747Y-85243830D01*
X129110256Y-85385063D01*
X129008659Y-85508859D01*
X128884863Y-85610456D01*
X128743630Y-85685947D01*
X128743627Y-85685948D01*
X128590376Y-85732436D01*
X128510747Y-85740279D01*
X128470934Y-85744200D01*
X128391066Y-85744200D01*
X128351253Y-85740279D01*
X128271624Y-85732436D01*
X128118373Y-85685948D01*
X128118370Y-85685947D01*
X127977137Y-85610456D01*
X127853341Y-85508859D01*
X127751744Y-85385063D01*
X127676253Y-85243830D01*
X127676252Y-85243827D01*
X127629764Y-85090576D01*
X127614067Y-84931200D01*
X127629764Y-84771824D01*
X127676252Y-84618573D01*
X127676253Y-84618570D01*
X127751744Y-84477337D01*
X127853341Y-84353541D01*
X127977137Y-84251944D01*
X128118370Y-84176453D01*
X128118373Y-84176452D01*
X128271624Y-84129964D01*
X128351253Y-84122121D01*
X128391066Y-84118200D01*
X128470934Y-84118200D01*
X128510747Y-84122121D01*
X128510747Y-84122121D01*
G37*
G36*
X124360442Y-82795518D02*
G01*
X124426627Y-82802037D01*
X124596466Y-82853557D01*
X124752991Y-82937222D01*
X124788729Y-82966552D01*
X124890186Y-83049814D01*
X124956796Y-83130980D01*
X125002778Y-83187009D01*
X125086443Y-83343534D01*
X125137963Y-83513373D01*
X125155359Y-83690000D01*
X125137963Y-83866627D01*
X125086443Y-84036466D01*
X125002778Y-84192991D01*
X124973448Y-84228729D01*
X124890186Y-84330186D01*
X124788729Y-84413448D01*
X124752991Y-84442778D01*
X124596466Y-84526443D01*
X124426627Y-84577963D01*
X124360443Y-84584481D01*
X124294260Y-84591000D01*
X124205740Y-84591000D01*
X124139557Y-84584481D01*
X124073373Y-84577963D01*
X123903534Y-84526443D01*
X123747009Y-84442778D01*
X123711271Y-84413448D01*
X123609814Y-84330186D01*
X123526552Y-84228729D01*
X123497222Y-84192991D01*
X123413557Y-84036466D01*
X123362037Y-83866627D01*
X123344641Y-83690000D01*
X123362037Y-83513373D01*
X123413557Y-83343534D01*
X123497222Y-83187009D01*
X123543204Y-83130980D01*
X123609814Y-83049814D01*
X123711271Y-82966552D01*
X123747009Y-82937222D01*
X123903534Y-82853557D01*
X124073373Y-82802037D01*
X124139558Y-82795518D01*
X124205740Y-82789000D01*
X124294260Y-82789000D01*
X124360442Y-82795518D01*
X124360442Y-82795518D01*
G37*
G36*
X155080443Y-82775519D02*
G01*
X155146627Y-82782037D01*
X155316466Y-82833557D01*
X155472991Y-82917222D01*
X155497361Y-82937222D01*
X155610186Y-83029814D01*
X155681497Y-83116708D01*
X155722778Y-83167009D01*
X155806443Y-83323534D01*
X155857963Y-83493373D01*
X155875359Y-83670000D01*
X155857963Y-83846627D01*
X155806443Y-84016466D01*
X155722778Y-84172991D01*
X155706366Y-84192989D01*
X155610186Y-84310186D01*
X155508729Y-84393448D01*
X155472991Y-84422778D01*
X155316466Y-84506443D01*
X155146627Y-84557963D01*
X155080442Y-84564482D01*
X155014260Y-84571000D01*
X154925740Y-84571000D01*
X154859558Y-84564482D01*
X154793373Y-84557963D01*
X154623534Y-84506443D01*
X154467009Y-84422778D01*
X154431271Y-84393448D01*
X154329814Y-84310186D01*
X154233634Y-84192989D01*
X154217222Y-84172991D01*
X154133557Y-84016466D01*
X154082037Y-83846627D01*
X154064641Y-83670000D01*
X154082037Y-83493373D01*
X154133557Y-83323534D01*
X154217222Y-83167009D01*
X154258503Y-83116708D01*
X154329814Y-83029814D01*
X154442639Y-82937222D01*
X154467009Y-82917222D01*
X154623534Y-82833557D01*
X154793373Y-82782037D01*
X154859557Y-82775519D01*
X154925740Y-82769000D01*
X155014260Y-82769000D01*
X155080443Y-82775519D01*
X155080443Y-82775519D01*
G37*
G36*
X141698228Y-82871703D02*
G01*
X141853100Y-82935853D01*
X141992481Y-83028985D01*
X142111015Y-83147519D01*
X142204147Y-83286900D01*
X142268297Y-83441772D01*
X142301000Y-83606184D01*
X142301000Y-83773816D01*
X142268297Y-83938228D01*
X142204147Y-84093100D01*
X142111015Y-84232481D01*
X141992481Y-84351015D01*
X141853100Y-84444147D01*
X141698228Y-84508297D01*
X141533816Y-84541000D01*
X141366184Y-84541000D01*
X141201772Y-84508297D01*
X141046900Y-84444147D01*
X140907519Y-84351015D01*
X140788985Y-84232481D01*
X140695853Y-84093100D01*
X140631703Y-83938228D01*
X140599000Y-83773816D01*
X140599000Y-83606184D01*
X140631703Y-83441772D01*
X140695853Y-83286900D01*
X140788985Y-83147519D01*
X140907519Y-83028985D01*
X141046900Y-82935853D01*
X141201772Y-82871703D01*
X141366184Y-82839000D01*
X141533816Y-82839000D01*
X141698228Y-82871703D01*
X141698228Y-82871703D01*
G37*
G36*
X149318228Y-82871703D02*
G01*
X149473100Y-82935853D01*
X149612481Y-83028985D01*
X149731015Y-83147519D01*
X149824147Y-83286900D01*
X149888297Y-83441772D01*
X149921000Y-83606184D01*
X149921000Y-83773816D01*
X149888297Y-83938228D01*
X149824147Y-84093100D01*
X149731015Y-84232481D01*
X149612481Y-84351015D01*
X149473100Y-84444147D01*
X149318228Y-84508297D01*
X149153816Y-84541000D01*
X148986184Y-84541000D01*
X148821772Y-84508297D01*
X148666900Y-84444147D01*
X148527519Y-84351015D01*
X148408985Y-84232481D01*
X148315853Y-84093100D01*
X148251703Y-83938228D01*
X148219000Y-83773816D01*
X148219000Y-83606184D01*
X148251703Y-83441772D01*
X148315853Y-83286900D01*
X148408985Y-83147519D01*
X148527519Y-83028985D01*
X148666900Y-82935853D01*
X148821772Y-82871703D01*
X148986184Y-82839000D01*
X149153816Y-82839000D01*
X149318228Y-82871703D01*
X149318228Y-82871703D01*
G37*
G36*
X137472599Y-82003445D02*
G01*
X137510095Y-82014820D01*
X137544654Y-82033292D01*
X137574947Y-82058153D01*
X137599808Y-82088446D01*
X137618280Y-82123005D01*
X137629655Y-82160501D01*
X137634100Y-82205638D01*
X137634100Y-82944362D01*
X137629655Y-82989499D01*
X137618280Y-83026995D01*
X137599808Y-83061554D01*
X137574947Y-83091847D01*
X137544654Y-83116708D01*
X137510095Y-83135180D01*
X137472599Y-83146555D01*
X137427462Y-83151000D01*
X136788738Y-83151000D01*
X136743601Y-83146555D01*
X136706105Y-83135180D01*
X136671546Y-83116708D01*
X136641253Y-83091847D01*
X136616392Y-83061554D01*
X136597920Y-83026995D01*
X136586545Y-82989499D01*
X136582100Y-82944362D01*
X136582100Y-82205638D01*
X136586545Y-82160501D01*
X136597920Y-82123005D01*
X136616392Y-82088446D01*
X136641253Y-82058153D01*
X136671546Y-82033292D01*
X136706105Y-82014820D01*
X136743601Y-82003445D01*
X136788738Y-81999000D01*
X137427462Y-81999000D01*
X137472599Y-82003445D01*
X137472599Y-82003445D01*
G37*
G36*
X125151000Y-82051000D02*
G01*
X123349000Y-82051000D01*
X123349000Y-80249000D01*
X125151000Y-80249000D01*
X125151000Y-82051000D01*
X125151000Y-82051000D01*
G37*
G36*
X155080442Y-80235518D02*
G01*
X155146627Y-80242037D01*
X155316466Y-80293557D01*
X155472991Y-80377222D01*
X155508729Y-80406552D01*
X155610186Y-80489814D01*
X155693448Y-80591271D01*
X155722778Y-80627009D01*
X155806443Y-80783534D01*
X155857963Y-80953373D01*
X155875359Y-81130000D01*
X155857963Y-81306627D01*
X155806443Y-81476466D01*
X155722778Y-81632991D01*
X155693448Y-81668729D01*
X155610186Y-81770186D01*
X155508729Y-81853448D01*
X155472991Y-81882778D01*
X155316466Y-81966443D01*
X155146627Y-82017963D01*
X155080443Y-82024481D01*
X155014260Y-82031000D01*
X154925740Y-82031000D01*
X154859557Y-82024481D01*
X154793373Y-82017963D01*
X154623534Y-81966443D01*
X154467009Y-81882778D01*
X154431271Y-81853448D01*
X154329814Y-81770186D01*
X154246552Y-81668729D01*
X154217222Y-81632991D01*
X154133557Y-81476466D01*
X154082037Y-81306627D01*
X154064641Y-81130000D01*
X154082037Y-80953373D01*
X154133557Y-80783534D01*
X154217222Y-80627009D01*
X154246552Y-80591271D01*
X154329814Y-80489814D01*
X154431271Y-80406552D01*
X154467009Y-80377222D01*
X154623534Y-80293557D01*
X154793373Y-80242037D01*
X154859558Y-80235518D01*
X154925740Y-80229000D01*
X155014260Y-80229000D01*
X155080442Y-80235518D01*
X155080442Y-80235518D01*
G37*
G36*
X142301000Y-82001000D02*
G01*
X140599000Y-82001000D01*
X140599000Y-80299000D01*
X142301000Y-80299000D01*
X142301000Y-82001000D01*
X142301000Y-82001000D01*
G37*
G36*
X149318228Y-80331703D02*
G01*
X149473100Y-80395853D01*
X149612481Y-80488985D01*
X149731015Y-80607519D01*
X149824147Y-80746900D01*
X149888297Y-80901772D01*
X149921000Y-81066184D01*
X149921000Y-81233816D01*
X149888297Y-81398228D01*
X149824147Y-81553100D01*
X149731015Y-81692481D01*
X149612481Y-81811015D01*
X149473100Y-81904147D01*
X149318228Y-81968297D01*
X149153816Y-82001000D01*
X148986184Y-82001000D01*
X148821772Y-81968297D01*
X148666900Y-81904147D01*
X148527519Y-81811015D01*
X148408985Y-81692481D01*
X148315853Y-81553100D01*
X148251703Y-81398228D01*
X148219000Y-81233816D01*
X148219000Y-81066184D01*
X148251703Y-80901772D01*
X148315853Y-80746900D01*
X148408985Y-80607519D01*
X148527519Y-80488985D01*
X148666900Y-80395853D01*
X148821772Y-80331703D01*
X148986184Y-80299000D01*
X149153816Y-80299000D01*
X149318228Y-80331703D01*
X149318228Y-80331703D01*
G37*
G36*
X137472599Y-80253445D02*
G01*
X137510095Y-80264820D01*
X137544654Y-80283292D01*
X137574947Y-80308153D01*
X137599808Y-80338446D01*
X137618280Y-80373005D01*
X137629655Y-80410501D01*
X137634100Y-80455638D01*
X137634100Y-81194362D01*
X137629655Y-81239499D01*
X137618280Y-81276995D01*
X137599808Y-81311554D01*
X137574947Y-81341847D01*
X137544654Y-81366708D01*
X137510095Y-81385180D01*
X137472599Y-81396555D01*
X137427462Y-81401000D01*
X136788738Y-81401000D01*
X136743601Y-81396555D01*
X136706105Y-81385180D01*
X136671546Y-81366708D01*
X136641253Y-81341847D01*
X136616392Y-81311554D01*
X136597920Y-81276995D01*
X136586545Y-81239499D01*
X136582100Y-81194362D01*
X136582100Y-80455638D01*
X136586545Y-80410501D01*
X136597920Y-80373005D01*
X136616392Y-80338446D01*
X136641253Y-80308153D01*
X136671546Y-80283292D01*
X136706105Y-80264820D01*
X136743601Y-80253445D01*
X136788738Y-80249000D01*
X137427462Y-80249000D01*
X137472599Y-80253445D01*
X137472599Y-80253445D01*
G37*
G36*
X128510747Y-77619721D02*
G01*
X128590376Y-77627564D01*
X128743627Y-77674052D01*
X128743630Y-77674053D01*
X128884863Y-77749544D01*
X129008659Y-77851141D01*
X129110256Y-77974937D01*
X129185747Y-78116170D01*
X129185748Y-78116173D01*
X129232236Y-78269424D01*
X129247933Y-78428800D01*
X129232236Y-78588176D01*
X129185748Y-78741427D01*
X129185747Y-78741430D01*
X129110256Y-78882663D01*
X129008659Y-79006459D01*
X128884863Y-79108056D01*
X128743630Y-79183547D01*
X128743627Y-79183548D01*
X128590376Y-79230036D01*
X128510747Y-79237879D01*
X128470934Y-79241800D01*
X128391066Y-79241800D01*
X128351253Y-79237879D01*
X128271624Y-79230036D01*
X128118373Y-79183548D01*
X128118370Y-79183547D01*
X127977137Y-79108056D01*
X127853341Y-79006459D01*
X127751744Y-78882663D01*
X127676253Y-78741430D01*
X127676252Y-78741427D01*
X127629764Y-78588176D01*
X127614067Y-78428800D01*
X127629764Y-78269424D01*
X127676252Y-78116173D01*
X127676253Y-78116170D01*
X127751744Y-77974937D01*
X127853341Y-77851141D01*
X127977137Y-77749544D01*
X128118370Y-77674053D01*
X128118373Y-77674052D01*
X128271624Y-77627564D01*
X128351253Y-77619721D01*
X128391066Y-77615800D01*
X128470934Y-77615800D01*
X128510747Y-77619721D01*
X128510747Y-77619721D01*
G37*
G36*
X133031947Y-77619721D02*
G01*
X133111576Y-77627564D01*
X133264827Y-77674052D01*
X133264830Y-77674053D01*
X133406063Y-77749544D01*
X133529859Y-77851141D01*
X133631456Y-77974937D01*
X133706947Y-78116170D01*
X133706948Y-78116173D01*
X133753436Y-78269424D01*
X133769133Y-78428800D01*
X133753436Y-78588176D01*
X133706948Y-78741427D01*
X133706947Y-78741430D01*
X133631456Y-78882663D01*
X133529859Y-79006459D01*
X133406063Y-79108056D01*
X133264830Y-79183547D01*
X133264827Y-79183548D01*
X133111576Y-79230036D01*
X133031947Y-79237879D01*
X132992134Y-79241800D01*
X132912266Y-79241800D01*
X132872453Y-79237879D01*
X132792824Y-79230036D01*
X132639573Y-79183548D01*
X132639570Y-79183547D01*
X132498337Y-79108056D01*
X132374541Y-79006459D01*
X132272944Y-78882663D01*
X132197453Y-78741430D01*
X132197452Y-78741427D01*
X132150964Y-78588176D01*
X132135267Y-78428800D01*
X132150964Y-78269424D01*
X132197452Y-78116173D01*
X132197453Y-78116170D01*
X132272944Y-77974937D01*
X132374541Y-77851141D01*
X132498337Y-77749544D01*
X132639570Y-77674053D01*
X132639573Y-77674052D01*
X132792824Y-77627564D01*
X132872453Y-77619721D01*
X132912266Y-77615800D01*
X132992134Y-77615800D01*
X133031947Y-77619721D01*
X133031947Y-77619721D01*
G37*
G36*
X150776999Y-75803445D02*
G01*
X150814495Y-75814820D01*
X150849054Y-75833292D01*
X150879347Y-75858153D01*
X150904208Y-75888446D01*
X150922680Y-75923005D01*
X150934055Y-75960501D01*
X150938500Y-76005638D01*
X150938500Y-76744362D01*
X150934055Y-76789499D01*
X150922680Y-76826995D01*
X150904208Y-76861554D01*
X150879347Y-76891847D01*
X150849054Y-76916708D01*
X150814495Y-76935180D01*
X150776999Y-76946555D01*
X150731862Y-76951000D01*
X150093138Y-76951000D01*
X150048001Y-76946555D01*
X150010505Y-76935180D01*
X149975946Y-76916708D01*
X149945653Y-76891847D01*
X149920792Y-76861554D01*
X149902320Y-76826995D01*
X149890945Y-76789499D01*
X149886500Y-76744362D01*
X149886500Y-76005638D01*
X149890945Y-75960501D01*
X149902320Y-75923005D01*
X149920792Y-75888446D01*
X149945653Y-75858153D01*
X149975946Y-75833292D01*
X150010505Y-75814820D01*
X150048001Y-75803445D01*
X150093138Y-75799000D01*
X150731862Y-75799000D01*
X150776999Y-75803445D01*
X150776999Y-75803445D01*
G37*
G36*
X149014499Y-75803445D02*
G01*
X149051995Y-75814820D01*
X149086554Y-75833292D01*
X149116847Y-75858153D01*
X149141708Y-75888446D01*
X149160180Y-75923005D01*
X149171555Y-75960501D01*
X149176000Y-76005638D01*
X149176000Y-76744362D01*
X149171555Y-76789499D01*
X149160180Y-76826995D01*
X149141708Y-76861554D01*
X149116847Y-76891847D01*
X149086554Y-76916708D01*
X149051995Y-76935180D01*
X149014499Y-76946555D01*
X148969362Y-76951000D01*
X148330638Y-76951000D01*
X148285501Y-76946555D01*
X148248005Y-76935180D01*
X148213446Y-76916708D01*
X148183153Y-76891847D01*
X148158292Y-76861554D01*
X148139820Y-76826995D01*
X148128445Y-76789499D01*
X148124000Y-76744362D01*
X148124000Y-76005638D01*
X148128445Y-75960501D01*
X148139820Y-75923005D01*
X148158292Y-75888446D01*
X148183153Y-75858153D01*
X148213446Y-75833292D01*
X148248005Y-75814820D01*
X148285501Y-75803445D01*
X148330638Y-75799000D01*
X148969362Y-75799000D01*
X149014499Y-75803445D01*
X149014499Y-75803445D01*
G37*
G36*
X152539499Y-75803445D02*
G01*
X152576995Y-75814820D01*
X152611554Y-75833292D01*
X152641847Y-75858153D01*
X152666708Y-75888446D01*
X152685180Y-75923005D01*
X152696555Y-75960501D01*
X152701000Y-76005638D01*
X152701000Y-76744362D01*
X152696555Y-76789499D01*
X152685180Y-76826995D01*
X152666708Y-76861554D01*
X152641847Y-76891847D01*
X152611554Y-76916708D01*
X152576995Y-76935180D01*
X152539499Y-76946555D01*
X152494362Y-76951000D01*
X151855638Y-76951000D01*
X151810501Y-76946555D01*
X151773005Y-76935180D01*
X151738446Y-76916708D01*
X151708153Y-76891847D01*
X151683292Y-76861554D01*
X151664820Y-76826995D01*
X151653445Y-76789499D01*
X151649000Y-76744362D01*
X151649000Y-76005638D01*
X151653445Y-75960501D01*
X151664820Y-75923005D01*
X151683292Y-75888446D01*
X151708153Y-75858153D01*
X151738446Y-75833292D01*
X151773005Y-75814820D01*
X151810501Y-75803445D01*
X151855638Y-75799000D01*
X152494362Y-75799000D01*
X152539499Y-75803445D01*
X152539499Y-75803445D01*
G37*
G36*
X150776999Y-74053445D02*
G01*
X150814495Y-74064820D01*
X150849054Y-74083292D01*
X150879347Y-74108153D01*
X150904208Y-74138446D01*
X150922680Y-74173005D01*
X150934055Y-74210501D01*
X150938500Y-74255638D01*
X150938500Y-74994362D01*
X150934055Y-75039499D01*
X150922680Y-75076995D01*
X150904208Y-75111554D01*
X150879347Y-75141847D01*
X150849054Y-75166708D01*
X150814495Y-75185180D01*
X150776999Y-75196555D01*
X150731862Y-75201000D01*
X150093138Y-75201000D01*
X150048001Y-75196555D01*
X150010505Y-75185180D01*
X149975946Y-75166708D01*
X149945653Y-75141847D01*
X149920792Y-75111554D01*
X149902320Y-75076995D01*
X149890945Y-75039499D01*
X149886500Y-74994362D01*
X149886500Y-74255638D01*
X149890945Y-74210501D01*
X149902320Y-74173005D01*
X149920792Y-74138446D01*
X149945653Y-74108153D01*
X149975946Y-74083292D01*
X150010505Y-74064820D01*
X150048001Y-74053445D01*
X150093138Y-74049000D01*
X150731862Y-74049000D01*
X150776999Y-74053445D01*
X150776999Y-74053445D01*
G37*
G36*
X152539499Y-74053445D02*
G01*
X152576995Y-74064820D01*
X152611554Y-74083292D01*
X152641847Y-74108153D01*
X152666708Y-74138446D01*
X152685180Y-74173005D01*
X152696555Y-74210501D01*
X152701000Y-74255638D01*
X152701000Y-74994362D01*
X152696555Y-75039499D01*
X152685180Y-75076995D01*
X152666708Y-75111554D01*
X152641847Y-75141847D01*
X152611554Y-75166708D01*
X152576995Y-75185180D01*
X152539499Y-75196555D01*
X152494362Y-75201000D01*
X151855638Y-75201000D01*
X151810501Y-75196555D01*
X151773005Y-75185180D01*
X151738446Y-75166708D01*
X151708153Y-75141847D01*
X151683292Y-75111554D01*
X151664820Y-75076995D01*
X151653445Y-75039499D01*
X151649000Y-74994362D01*
X151649000Y-74255638D01*
X151653445Y-74210501D01*
X151664820Y-74173005D01*
X151683292Y-74138446D01*
X151708153Y-74108153D01*
X151738446Y-74083292D01*
X151773005Y-74064820D01*
X151810501Y-74053445D01*
X151855638Y-74049000D01*
X152494362Y-74049000D01*
X152539499Y-74053445D01*
X152539499Y-74053445D01*
G37*
G36*
X149014499Y-74053445D02*
G01*
X149051995Y-74064820D01*
X149086554Y-74083292D01*
X149116847Y-74108153D01*
X149141708Y-74138446D01*
X149160180Y-74173005D01*
X149171555Y-74210501D01*
X149176000Y-74255638D01*
X149176000Y-74994362D01*
X149171555Y-75039499D01*
X149160180Y-75076995D01*
X149141708Y-75111554D01*
X149116847Y-75141847D01*
X149086554Y-75166708D01*
X149051995Y-75185180D01*
X149014499Y-75196555D01*
X148969362Y-75201000D01*
X148330638Y-75201000D01*
X148285501Y-75196555D01*
X148248005Y-75185180D01*
X148213446Y-75166708D01*
X148183153Y-75141847D01*
X148158292Y-75111554D01*
X148139820Y-75076995D01*
X148128445Y-75039499D01*
X148124000Y-74994362D01*
X148124000Y-74255638D01*
X148128445Y-74210501D01*
X148139820Y-74173005D01*
X148158292Y-74138446D01*
X148183153Y-74108153D01*
X148213446Y-74083292D01*
X148248005Y-74064820D01*
X148285501Y-74053445D01*
X148330638Y-74049000D01*
X148969362Y-74049000D01*
X149014499Y-74053445D01*
X149014499Y-74053445D01*
G37*
G36*
X133232942Y-73260518D02*
G01*
X133299127Y-73267037D01*
X133468966Y-73318557D01*
X133625491Y-73402222D01*
X133661229Y-73431552D01*
X133762686Y-73514814D01*
X133845948Y-73616271D01*
X133875278Y-73652009D01*
X133958943Y-73808534D01*
X134010463Y-73978373D01*
X134027859Y-74155000D01*
X134010463Y-74331627D01*
X133958943Y-74501466D01*
X133875278Y-74657991D01*
X133845948Y-74693729D01*
X133762686Y-74795186D01*
X133661229Y-74878448D01*
X133625491Y-74907778D01*
X133625489Y-74907779D01*
X133472959Y-74989309D01*
X133468966Y-74991443D01*
X133299127Y-75042963D01*
X133232943Y-75049481D01*
X133166760Y-75056000D01*
X133078240Y-75056000D01*
X133012057Y-75049481D01*
X132945873Y-75042963D01*
X132776034Y-74991443D01*
X132772042Y-74989309D01*
X132619511Y-74907779D01*
X132619509Y-74907778D01*
X132583771Y-74878448D01*
X132482314Y-74795186D01*
X132399052Y-74693729D01*
X132369722Y-74657991D01*
X132286057Y-74501466D01*
X132234537Y-74331627D01*
X132217141Y-74155000D01*
X132234537Y-73978373D01*
X132286057Y-73808534D01*
X132369722Y-73652009D01*
X132399052Y-73616271D01*
X132482314Y-73514814D01*
X132583771Y-73431552D01*
X132619509Y-73402222D01*
X132776034Y-73318557D01*
X132945873Y-73267037D01*
X133012058Y-73260518D01*
X133078240Y-73254000D01*
X133166760Y-73254000D01*
X133232942Y-73260518D01*
X133232942Y-73260518D01*
G37*
G36*
X128809192Y-73260518D02*
G01*
X128875377Y-73267037D01*
X129045216Y-73318557D01*
X129201741Y-73402222D01*
X129237479Y-73431552D01*
X129338936Y-73514814D01*
X129422198Y-73616271D01*
X129451528Y-73652009D01*
X129535193Y-73808534D01*
X129586713Y-73978373D01*
X129604109Y-74155000D01*
X129586713Y-74331627D01*
X129535193Y-74501466D01*
X129451528Y-74657991D01*
X129422198Y-74693729D01*
X129338936Y-74795186D01*
X129237479Y-74878448D01*
X129201741Y-74907778D01*
X129201739Y-74907779D01*
X129049209Y-74989309D01*
X129045216Y-74991443D01*
X128875377Y-75042963D01*
X128809193Y-75049481D01*
X128743010Y-75056000D01*
X128654490Y-75056000D01*
X128588307Y-75049481D01*
X128522123Y-75042963D01*
X128352284Y-74991443D01*
X128348292Y-74989309D01*
X128195761Y-74907779D01*
X128195759Y-74907778D01*
X128160021Y-74878448D01*
X128058564Y-74795186D01*
X127975302Y-74693729D01*
X127945972Y-74657991D01*
X127862307Y-74501466D01*
X127810787Y-74331627D01*
X127793391Y-74155000D01*
X127810787Y-73978373D01*
X127862307Y-73808534D01*
X127945972Y-73652009D01*
X127975302Y-73616271D01*
X128058564Y-73514814D01*
X128160021Y-73431552D01*
X128195759Y-73402222D01*
X128352284Y-73318557D01*
X128522123Y-73267037D01*
X128588308Y-73260518D01*
X128654490Y-73254000D01*
X128743010Y-73254000D01*
X128809192Y-73260518D01*
X128809192Y-73260518D01*
G37*
G36*
X124385442Y-73260518D02*
G01*
X124451627Y-73267037D01*
X124621466Y-73318557D01*
X124777991Y-73402222D01*
X124813729Y-73431552D01*
X124915186Y-73514814D01*
X124998448Y-73616271D01*
X125027778Y-73652009D01*
X125111443Y-73808534D01*
X125162963Y-73978373D01*
X125180359Y-74155000D01*
X125162963Y-74331627D01*
X125111443Y-74501466D01*
X125027778Y-74657991D01*
X124998448Y-74693729D01*
X124915186Y-74795186D01*
X124813729Y-74878448D01*
X124777991Y-74907778D01*
X124777989Y-74907779D01*
X124625459Y-74989309D01*
X124621466Y-74991443D01*
X124451627Y-75042963D01*
X124385443Y-75049481D01*
X124319260Y-75056000D01*
X124230740Y-75056000D01*
X124164557Y-75049481D01*
X124098373Y-75042963D01*
X123928534Y-74991443D01*
X123924542Y-74989309D01*
X123772011Y-74907779D01*
X123772009Y-74907778D01*
X123736271Y-74878448D01*
X123634814Y-74795186D01*
X123551552Y-74693729D01*
X123522222Y-74657991D01*
X123438557Y-74501466D01*
X123387037Y-74331627D01*
X123369641Y-74155000D01*
X123387037Y-73978373D01*
X123438557Y-73808534D01*
X123522222Y-73652009D01*
X123551552Y-73616271D01*
X123634814Y-73514814D01*
X123736271Y-73431552D01*
X123772009Y-73402222D01*
X123928534Y-73318557D01*
X124098373Y-73267037D01*
X124164558Y-73260518D01*
X124230740Y-73254000D01*
X124319260Y-73254000D01*
X124385442Y-73260518D01*
X124385442Y-73260518D01*
G37*
G36*
X142080442Y-73260518D02*
G01*
X142146627Y-73267037D01*
X142316466Y-73318557D01*
X142472991Y-73402222D01*
X142508729Y-73431552D01*
X142610186Y-73514814D01*
X142693448Y-73616271D01*
X142722778Y-73652009D01*
X142806443Y-73808534D01*
X142857963Y-73978373D01*
X142875359Y-74155000D01*
X142857963Y-74331627D01*
X142806443Y-74501466D01*
X142722778Y-74657991D01*
X142693448Y-74693729D01*
X142610186Y-74795186D01*
X142508729Y-74878448D01*
X142472991Y-74907778D01*
X142472989Y-74907779D01*
X142320459Y-74989309D01*
X142316466Y-74991443D01*
X142146627Y-75042963D01*
X142080443Y-75049481D01*
X142014260Y-75056000D01*
X141925740Y-75056000D01*
X141859557Y-75049481D01*
X141793373Y-75042963D01*
X141623534Y-74991443D01*
X141619542Y-74989309D01*
X141467011Y-74907779D01*
X141467009Y-74907778D01*
X141431271Y-74878448D01*
X141329814Y-74795186D01*
X141246552Y-74693729D01*
X141217222Y-74657991D01*
X141133557Y-74501466D01*
X141082037Y-74331627D01*
X141064641Y-74155000D01*
X141082037Y-73978373D01*
X141133557Y-73808534D01*
X141217222Y-73652009D01*
X141246552Y-73616271D01*
X141329814Y-73514814D01*
X141431271Y-73431552D01*
X141467009Y-73402222D01*
X141623534Y-73318557D01*
X141793373Y-73267037D01*
X141859558Y-73260518D01*
X141925740Y-73254000D01*
X142014260Y-73254000D01*
X142080442Y-73260518D01*
X142080442Y-73260518D01*
G37*
G36*
X137656692Y-73260518D02*
G01*
X137722877Y-73267037D01*
X137892716Y-73318557D01*
X138049241Y-73402222D01*
X138084979Y-73431552D01*
X138186436Y-73514814D01*
X138269698Y-73616271D01*
X138299028Y-73652009D01*
X138382693Y-73808534D01*
X138434213Y-73978373D01*
X138451609Y-74155000D01*
X138434213Y-74331627D01*
X138382693Y-74501466D01*
X138299028Y-74657991D01*
X138269698Y-74693729D01*
X138186436Y-74795186D01*
X138084979Y-74878448D01*
X138049241Y-74907778D01*
X138049239Y-74907779D01*
X137896709Y-74989309D01*
X137892716Y-74991443D01*
X137722877Y-75042963D01*
X137656693Y-75049481D01*
X137590510Y-75056000D01*
X137501990Y-75056000D01*
X137435807Y-75049481D01*
X137369623Y-75042963D01*
X137199784Y-74991443D01*
X137195792Y-74989309D01*
X137043261Y-74907779D01*
X137043259Y-74907778D01*
X137007521Y-74878448D01*
X136906064Y-74795186D01*
X136822802Y-74693729D01*
X136793472Y-74657991D01*
X136709807Y-74501466D01*
X136658287Y-74331627D01*
X136640891Y-74155000D01*
X136658287Y-73978373D01*
X136709807Y-73808534D01*
X136793472Y-73652009D01*
X136822802Y-73616271D01*
X136906064Y-73514814D01*
X137007521Y-73431552D01*
X137043259Y-73402222D01*
X137199784Y-73318557D01*
X137369623Y-73267037D01*
X137435808Y-73260518D01*
X137501990Y-73254000D01*
X137590510Y-73254000D01*
X137656692Y-73260518D01*
X137656692Y-73260518D01*
G37*
G36*
X149436500Y-72826000D02*
G01*
X148134500Y-72826000D01*
X148134500Y-72124000D01*
X149436500Y-72124000D01*
X149436500Y-72826000D01*
X149436500Y-72826000D01*
G37*
G36*
X152436500Y-72826000D02*
G01*
X151134500Y-72826000D01*
X151134500Y-72124000D01*
X152436500Y-72124000D01*
X152436500Y-72826000D01*
X152436500Y-72826000D01*
G37*
G36*
X133232943Y-70720519D02*
G01*
X133299127Y-70727037D01*
X133468966Y-70778557D01*
X133625491Y-70862222D01*
X133661229Y-70891552D01*
X133762686Y-70974814D01*
X133845948Y-71076271D01*
X133875278Y-71112009D01*
X133958943Y-71268534D01*
X134010463Y-71438373D01*
X134027859Y-71615000D01*
X134010463Y-71791627D01*
X133958943Y-71961466D01*
X133875278Y-72117991D01*
X133845948Y-72153729D01*
X133762686Y-72255186D01*
X133661229Y-72338448D01*
X133625491Y-72367778D01*
X133468966Y-72451443D01*
X133299127Y-72502963D01*
X133232942Y-72509482D01*
X133166760Y-72516000D01*
X133078240Y-72516000D01*
X133012058Y-72509482D01*
X132945873Y-72502963D01*
X132776034Y-72451443D01*
X132619509Y-72367778D01*
X132583771Y-72338448D01*
X132482314Y-72255186D01*
X132399052Y-72153729D01*
X132369722Y-72117991D01*
X132286057Y-71961466D01*
X132234537Y-71791627D01*
X132217141Y-71615000D01*
X132234537Y-71438373D01*
X132286057Y-71268534D01*
X132369722Y-71112009D01*
X132399052Y-71076271D01*
X132482314Y-70974814D01*
X132583771Y-70891552D01*
X132619509Y-70862222D01*
X132776034Y-70778557D01*
X132945873Y-70727037D01*
X133012057Y-70720519D01*
X133078240Y-70714000D01*
X133166760Y-70714000D01*
X133232943Y-70720519D01*
X133232943Y-70720519D01*
G37*
G36*
X142080443Y-70720519D02*
G01*
X142146627Y-70727037D01*
X142316466Y-70778557D01*
X142472991Y-70862222D01*
X142508729Y-70891552D01*
X142610186Y-70974814D01*
X142693448Y-71076271D01*
X142722778Y-71112009D01*
X142806443Y-71268534D01*
X142857963Y-71438373D01*
X142875359Y-71615000D01*
X142857963Y-71791627D01*
X142806443Y-71961466D01*
X142722778Y-72117991D01*
X142693448Y-72153729D01*
X142610186Y-72255186D01*
X142508729Y-72338448D01*
X142472991Y-72367778D01*
X142316466Y-72451443D01*
X142146627Y-72502963D01*
X142080442Y-72509482D01*
X142014260Y-72516000D01*
X141925740Y-72516000D01*
X141859558Y-72509482D01*
X141793373Y-72502963D01*
X141623534Y-72451443D01*
X141467009Y-72367778D01*
X141431271Y-72338448D01*
X141329814Y-72255186D01*
X141246552Y-72153729D01*
X141217222Y-72117991D01*
X141133557Y-71961466D01*
X141082037Y-71791627D01*
X141064641Y-71615000D01*
X141082037Y-71438373D01*
X141133557Y-71268534D01*
X141217222Y-71112009D01*
X141246552Y-71076271D01*
X141329814Y-70974814D01*
X141431271Y-70891552D01*
X141467009Y-70862222D01*
X141623534Y-70778557D01*
X141793373Y-70727037D01*
X141859557Y-70720519D01*
X141925740Y-70714000D01*
X142014260Y-70714000D01*
X142080443Y-70720519D01*
X142080443Y-70720519D01*
G37*
G36*
X128809193Y-70720519D02*
G01*
X128875377Y-70727037D01*
X129045216Y-70778557D01*
X129201741Y-70862222D01*
X129237479Y-70891552D01*
X129338936Y-70974814D01*
X129422198Y-71076271D01*
X129451528Y-71112009D01*
X129535193Y-71268534D01*
X129586713Y-71438373D01*
X129604109Y-71615000D01*
X129586713Y-71791627D01*
X129535193Y-71961466D01*
X129451528Y-72117991D01*
X129422198Y-72153729D01*
X129338936Y-72255186D01*
X129237479Y-72338448D01*
X129201741Y-72367778D01*
X129045216Y-72451443D01*
X128875377Y-72502963D01*
X128809192Y-72509482D01*
X128743010Y-72516000D01*
X128654490Y-72516000D01*
X128588308Y-72509482D01*
X128522123Y-72502963D01*
X128352284Y-72451443D01*
X128195759Y-72367778D01*
X128160021Y-72338448D01*
X128058564Y-72255186D01*
X127975302Y-72153729D01*
X127945972Y-72117991D01*
X127862307Y-71961466D01*
X127810787Y-71791627D01*
X127793391Y-71615000D01*
X127810787Y-71438373D01*
X127862307Y-71268534D01*
X127945972Y-71112009D01*
X127975302Y-71076271D01*
X128058564Y-70974814D01*
X128160021Y-70891552D01*
X128195759Y-70862222D01*
X128352284Y-70778557D01*
X128522123Y-70727037D01*
X128588307Y-70720519D01*
X128654490Y-70714000D01*
X128743010Y-70714000D01*
X128809193Y-70720519D01*
X128809193Y-70720519D01*
G37*
G36*
X137656693Y-70720519D02*
G01*
X137722877Y-70727037D01*
X137892716Y-70778557D01*
X138049241Y-70862222D01*
X138084979Y-70891552D01*
X138186436Y-70974814D01*
X138269698Y-71076271D01*
X138299028Y-71112009D01*
X138382693Y-71268534D01*
X138434213Y-71438373D01*
X138451609Y-71615000D01*
X138434213Y-71791627D01*
X138382693Y-71961466D01*
X138299028Y-72117991D01*
X138269698Y-72153729D01*
X138186436Y-72255186D01*
X138084979Y-72338448D01*
X138049241Y-72367778D01*
X137892716Y-72451443D01*
X137722877Y-72502963D01*
X137656692Y-72509482D01*
X137590510Y-72516000D01*
X137501990Y-72516000D01*
X137435808Y-72509482D01*
X137369623Y-72502963D01*
X137199784Y-72451443D01*
X137043259Y-72367778D01*
X137007521Y-72338448D01*
X136906064Y-72255186D01*
X136822802Y-72153729D01*
X136793472Y-72117991D01*
X136709807Y-71961466D01*
X136658287Y-71791627D01*
X136640891Y-71615000D01*
X136658287Y-71438373D01*
X136709807Y-71268534D01*
X136793472Y-71112009D01*
X136822802Y-71076271D01*
X136906064Y-70974814D01*
X137007521Y-70891552D01*
X137043259Y-70862222D01*
X137199784Y-70778557D01*
X137369623Y-70727037D01*
X137435807Y-70720519D01*
X137501990Y-70714000D01*
X137590510Y-70714000D01*
X137656693Y-70720519D01*
X137656693Y-70720519D01*
G37*
G36*
X124385443Y-70720519D02*
G01*
X124451627Y-70727037D01*
X124621466Y-70778557D01*
X124777991Y-70862222D01*
X124813729Y-70891552D01*
X124915186Y-70974814D01*
X124998448Y-71076271D01*
X125027778Y-71112009D01*
X125111443Y-71268534D01*
X125162963Y-71438373D01*
X125180359Y-71615000D01*
X125162963Y-71791627D01*
X125111443Y-71961466D01*
X125027778Y-72117991D01*
X124998448Y-72153729D01*
X124915186Y-72255186D01*
X124813729Y-72338448D01*
X124777991Y-72367778D01*
X124621466Y-72451443D01*
X124451627Y-72502963D01*
X124385442Y-72509482D01*
X124319260Y-72516000D01*
X124230740Y-72516000D01*
X124164558Y-72509482D01*
X124098373Y-72502963D01*
X123928534Y-72451443D01*
X123772009Y-72367778D01*
X123736271Y-72338448D01*
X123634814Y-72255186D01*
X123551552Y-72153729D01*
X123522222Y-72117991D01*
X123438557Y-71961466D01*
X123387037Y-71791627D01*
X123369641Y-71615000D01*
X123387037Y-71438373D01*
X123438557Y-71268534D01*
X123522222Y-71112009D01*
X123551552Y-71076271D01*
X123634814Y-70974814D01*
X123736271Y-70891552D01*
X123772009Y-70862222D01*
X123928534Y-70778557D01*
X124098373Y-70727037D01*
X124164557Y-70720519D01*
X124230740Y-70714000D01*
X124319260Y-70714000D01*
X124385443Y-70720519D01*
X124385443Y-70720519D01*
G37*
G36*
X149436500Y-71726000D02*
G01*
X148134500Y-71726000D01*
X148134500Y-71024000D01*
X149436500Y-71024000D01*
X149436500Y-71726000D01*
X149436500Y-71726000D01*
G37*
G36*
X152436500Y-71726000D02*
G01*
X151134500Y-71726000D01*
X151134500Y-71024000D01*
X152436500Y-71024000D01*
X152436500Y-71726000D01*
X152436500Y-71726000D01*
G37*
G36*
X149436500Y-70626000D02*
G01*
X148134500Y-70626000D01*
X148134500Y-69924000D01*
X149436500Y-69924000D01*
X149436500Y-70626000D01*
X149436500Y-70626000D01*
G37*
G36*
X152436500Y-70626000D02*
G01*
X151134500Y-70626000D01*
X151134500Y-69924000D01*
X152436500Y-69924000D01*
X152436500Y-70626000D01*
X152436500Y-70626000D01*
G37*
G36*
X138447250Y-69976000D02*
G01*
X136645250Y-69976000D01*
X136645250Y-68174000D01*
X138447250Y-68174000D01*
X138447250Y-69976000D01*
X138447250Y-69976000D01*
G37*
G36*
X134023500Y-69976000D02*
G01*
X132221500Y-69976000D01*
X132221500Y-68174000D01*
X134023500Y-68174000D01*
X134023500Y-69976000D01*
X134023500Y-69976000D01*
G37*
G36*
X129599750Y-69976000D02*
G01*
X127797750Y-69976000D01*
X127797750Y-68174000D01*
X129599750Y-68174000D01*
X129599750Y-69976000D01*
X129599750Y-69976000D01*
G37*
G36*
X125176000Y-69976000D02*
G01*
X123374000Y-69976000D01*
X123374000Y-68174000D01*
X125176000Y-68174000D01*
X125176000Y-69976000D01*
X125176000Y-69976000D01*
G37*
G36*
X142871000Y-69976000D02*
G01*
X141069000Y-69976000D01*
X141069000Y-68174000D01*
X142871000Y-68174000D01*
X142871000Y-69976000D01*
X142871000Y-69976000D01*
G37*
M02*
