G04 #@! TF.GenerationSoftware,KiCad,Pcbnew,(5.1.4-0-10_14)*
G04 #@! TF.CreationDate,2020-05-04T21:59:13+12:00*
G04 #@! TF.ProjectId,Hand Mesurement Device,48616e64-204d-4657-9375-72656d656e74,rev?*
G04 #@! TF.SameCoordinates,Original*
G04 #@! TF.FileFunction,Copper,L2,Bot*
G04 #@! TF.FilePolarity,Positive*
%FSLAX46Y46*%
G04 Gerber Fmt 4.6, Leading zero omitted, Abs format (unit mm)*
G04 Created by KiCad (PCBNEW (5.1.4-0-10_14)) date 2020-05-04 21:59:13*
%MOMM*%
%LPD*%
G04 APERTURE LIST*
%ADD10O,1.700000X1.700000*%
%ADD11R,1.700000X1.700000*%
%ADD12R,1.600000X1.600000*%
%ADD13C,1.600000*%
%ADD14C,0.100000*%
%ADD15C,1.150000*%
%ADD16C,0.950000*%
%ADD17O,1.524000X1.524000*%
%ADD18R,3.800000X2.000000*%
%ADD19R,1.500000X2.000000*%
%ADD20C,1.500000*%
%ADD21C,1.524000*%
%ADD22C,1.200000*%
%ADD23C,0.800000*%
%ADD24C,0.300000*%
%ADD25C,0.500000*%
%ADD26C,0.254000*%
G04 APERTURE END LIST*
D10*
X154970000Y-81130000D03*
X154970000Y-83670000D03*
X154970000Y-86210000D03*
X154970000Y-88750000D03*
X154970000Y-91290000D03*
X154970000Y-93830000D03*
X154970000Y-96370000D03*
X154970000Y-98910000D03*
X154970000Y-101450000D03*
X154970000Y-103990000D03*
X154970000Y-106530000D03*
X154970000Y-109070000D03*
X154970000Y-111610000D03*
D11*
X154970000Y-114150000D03*
X124250000Y-81150000D03*
D10*
X124250000Y-83690000D03*
X124250000Y-86230000D03*
X124250000Y-88770000D03*
X124250000Y-91310000D03*
X124250000Y-93850000D03*
X124250000Y-96390000D03*
X124250000Y-98930000D03*
X124250000Y-101470000D03*
X124250000Y-104010000D03*
X124250000Y-106550000D03*
X124250000Y-109090000D03*
X124250000Y-111630000D03*
X124250000Y-114170000D03*
D12*
X141450000Y-81150000D03*
D13*
X141450000Y-83690000D03*
X141450000Y-86230000D03*
X141450000Y-88770000D03*
X141450000Y-91310000D03*
X141450000Y-93850000D03*
X141450000Y-96390000D03*
X141450000Y-98930000D03*
X141450000Y-101470000D03*
X141450000Y-104010000D03*
X141450000Y-106550000D03*
X141450000Y-109090000D03*
X141450000Y-111630000D03*
X141450000Y-114170000D03*
X149070000Y-114170000D03*
X149070000Y-111630000D03*
X149070000Y-109090000D03*
X149070000Y-106550000D03*
X149070000Y-104010000D03*
X149070000Y-101470000D03*
X149070000Y-98930000D03*
X149070000Y-96390000D03*
X149070000Y-93850000D03*
X149070000Y-91310000D03*
X149070000Y-88770000D03*
X149070000Y-86230000D03*
X149070000Y-83690000D03*
X149070000Y-81150000D03*
D11*
X129400000Y-90700000D03*
D10*
X129400000Y-88160000D03*
X131940000Y-90700000D03*
X131940000Y-88160000D03*
X134480000Y-90700000D03*
X134480000Y-88160000D03*
X137020000Y-90700000D03*
X137020000Y-88160000D03*
D14*
G36*
X135954506Y-115151204D02*
G01*
X135978774Y-115154804D01*
X136002573Y-115160765D01*
X136025672Y-115169030D01*
X136047851Y-115179520D01*
X136068894Y-115192132D01*
X136088600Y-115206747D01*
X136106778Y-115223223D01*
X136123254Y-115241401D01*
X136137869Y-115261107D01*
X136150481Y-115282150D01*
X136160971Y-115304329D01*
X136169236Y-115327428D01*
X136175197Y-115351227D01*
X136178797Y-115375495D01*
X136180001Y-115399999D01*
X136180001Y-116300001D01*
X136178797Y-116324505D01*
X136175197Y-116348773D01*
X136169236Y-116372572D01*
X136160971Y-116395671D01*
X136150481Y-116417850D01*
X136137869Y-116438893D01*
X136123254Y-116458599D01*
X136106778Y-116476777D01*
X136088600Y-116493253D01*
X136068894Y-116507868D01*
X136047851Y-116520480D01*
X136025672Y-116530970D01*
X136002573Y-116539235D01*
X135978774Y-116545196D01*
X135954506Y-116548796D01*
X135930002Y-116550000D01*
X135280000Y-116550000D01*
X135255496Y-116548796D01*
X135231228Y-116545196D01*
X135207429Y-116539235D01*
X135184330Y-116530970D01*
X135162151Y-116520480D01*
X135141108Y-116507868D01*
X135121402Y-116493253D01*
X135103224Y-116476777D01*
X135086748Y-116458599D01*
X135072133Y-116438893D01*
X135059521Y-116417850D01*
X135049031Y-116395671D01*
X135040766Y-116372572D01*
X135034805Y-116348773D01*
X135031205Y-116324505D01*
X135030001Y-116300001D01*
X135030001Y-115399999D01*
X135031205Y-115375495D01*
X135034805Y-115351227D01*
X135040766Y-115327428D01*
X135049031Y-115304329D01*
X135059521Y-115282150D01*
X135072133Y-115261107D01*
X135086748Y-115241401D01*
X135103224Y-115223223D01*
X135121402Y-115206747D01*
X135141108Y-115192132D01*
X135162151Y-115179520D01*
X135184330Y-115169030D01*
X135207429Y-115160765D01*
X135231228Y-115154804D01*
X135255496Y-115151204D01*
X135280000Y-115150000D01*
X135930002Y-115150000D01*
X135954506Y-115151204D01*
X135954506Y-115151204D01*
G37*
D15*
X135605001Y-115850000D03*
D14*
G36*
X138004506Y-115151204D02*
G01*
X138028774Y-115154804D01*
X138052573Y-115160765D01*
X138075672Y-115169030D01*
X138097851Y-115179520D01*
X138118894Y-115192132D01*
X138138600Y-115206747D01*
X138156778Y-115223223D01*
X138173254Y-115241401D01*
X138187869Y-115261107D01*
X138200481Y-115282150D01*
X138210971Y-115304329D01*
X138219236Y-115327428D01*
X138225197Y-115351227D01*
X138228797Y-115375495D01*
X138230001Y-115399999D01*
X138230001Y-116300001D01*
X138228797Y-116324505D01*
X138225197Y-116348773D01*
X138219236Y-116372572D01*
X138210971Y-116395671D01*
X138200481Y-116417850D01*
X138187869Y-116438893D01*
X138173254Y-116458599D01*
X138156778Y-116476777D01*
X138138600Y-116493253D01*
X138118894Y-116507868D01*
X138097851Y-116520480D01*
X138075672Y-116530970D01*
X138052573Y-116539235D01*
X138028774Y-116545196D01*
X138004506Y-116548796D01*
X137980002Y-116550000D01*
X137330000Y-116550000D01*
X137305496Y-116548796D01*
X137281228Y-116545196D01*
X137257429Y-116539235D01*
X137234330Y-116530970D01*
X137212151Y-116520480D01*
X137191108Y-116507868D01*
X137171402Y-116493253D01*
X137153224Y-116476777D01*
X137136748Y-116458599D01*
X137122133Y-116438893D01*
X137109521Y-116417850D01*
X137099031Y-116395671D01*
X137090766Y-116372572D01*
X137084805Y-116348773D01*
X137081205Y-116324505D01*
X137080001Y-116300001D01*
X137080001Y-115399999D01*
X137081205Y-115375495D01*
X137084805Y-115351227D01*
X137090766Y-115327428D01*
X137099031Y-115304329D01*
X137109521Y-115282150D01*
X137122133Y-115261107D01*
X137136748Y-115241401D01*
X137153224Y-115223223D01*
X137171402Y-115206747D01*
X137191108Y-115192132D01*
X137212151Y-115179520D01*
X137234330Y-115169030D01*
X137257429Y-115160765D01*
X137281228Y-115154804D01*
X137305496Y-115151204D01*
X137330000Y-115150000D01*
X137980002Y-115150000D01*
X138004506Y-115151204D01*
X138004506Y-115151204D01*
G37*
D15*
X137655001Y-115850000D03*
D14*
G36*
X135889112Y-95126144D02*
G01*
X135912167Y-95129563D01*
X135934776Y-95135227D01*
X135956720Y-95143079D01*
X135977790Y-95153044D01*
X135997781Y-95165026D01*
X136016501Y-95178910D01*
X136033771Y-95194562D01*
X136049423Y-95211832D01*
X136063307Y-95230552D01*
X136075289Y-95250543D01*
X136085254Y-95271613D01*
X136093106Y-95293557D01*
X136098770Y-95316166D01*
X136102189Y-95339221D01*
X136103333Y-95362500D01*
X136103333Y-95837500D01*
X136102189Y-95860779D01*
X136098770Y-95883834D01*
X136093106Y-95906443D01*
X136085254Y-95928387D01*
X136075289Y-95949457D01*
X136063307Y-95969448D01*
X136049423Y-95988168D01*
X136033771Y-96005438D01*
X136016501Y-96021090D01*
X135997781Y-96034974D01*
X135977790Y-96046956D01*
X135956720Y-96056921D01*
X135934776Y-96064773D01*
X135912167Y-96070437D01*
X135889112Y-96073856D01*
X135865833Y-96075000D01*
X135290833Y-96075000D01*
X135267554Y-96073856D01*
X135244499Y-96070437D01*
X135221890Y-96064773D01*
X135199946Y-96056921D01*
X135178876Y-96046956D01*
X135158885Y-96034974D01*
X135140165Y-96021090D01*
X135122895Y-96005438D01*
X135107243Y-95988168D01*
X135093359Y-95969448D01*
X135081377Y-95949457D01*
X135071412Y-95928387D01*
X135063560Y-95906443D01*
X135057896Y-95883834D01*
X135054477Y-95860779D01*
X135053333Y-95837500D01*
X135053333Y-95362500D01*
X135054477Y-95339221D01*
X135057896Y-95316166D01*
X135063560Y-95293557D01*
X135071412Y-95271613D01*
X135081377Y-95250543D01*
X135093359Y-95230552D01*
X135107243Y-95211832D01*
X135122895Y-95194562D01*
X135140165Y-95178910D01*
X135158885Y-95165026D01*
X135178876Y-95153044D01*
X135199946Y-95143079D01*
X135221890Y-95135227D01*
X135244499Y-95129563D01*
X135267554Y-95126144D01*
X135290833Y-95125000D01*
X135865833Y-95125000D01*
X135889112Y-95126144D01*
X135889112Y-95126144D01*
G37*
D16*
X135578333Y-95600000D03*
D14*
G36*
X137639112Y-95126144D02*
G01*
X137662167Y-95129563D01*
X137684776Y-95135227D01*
X137706720Y-95143079D01*
X137727790Y-95153044D01*
X137747781Y-95165026D01*
X137766501Y-95178910D01*
X137783771Y-95194562D01*
X137799423Y-95211832D01*
X137813307Y-95230552D01*
X137825289Y-95250543D01*
X137835254Y-95271613D01*
X137843106Y-95293557D01*
X137848770Y-95316166D01*
X137852189Y-95339221D01*
X137853333Y-95362500D01*
X137853333Y-95837500D01*
X137852189Y-95860779D01*
X137848770Y-95883834D01*
X137843106Y-95906443D01*
X137835254Y-95928387D01*
X137825289Y-95949457D01*
X137813307Y-95969448D01*
X137799423Y-95988168D01*
X137783771Y-96005438D01*
X137766501Y-96021090D01*
X137747781Y-96034974D01*
X137727790Y-96046956D01*
X137706720Y-96056921D01*
X137684776Y-96064773D01*
X137662167Y-96070437D01*
X137639112Y-96073856D01*
X137615833Y-96075000D01*
X137040833Y-96075000D01*
X137017554Y-96073856D01*
X136994499Y-96070437D01*
X136971890Y-96064773D01*
X136949946Y-96056921D01*
X136928876Y-96046956D01*
X136908885Y-96034974D01*
X136890165Y-96021090D01*
X136872895Y-96005438D01*
X136857243Y-95988168D01*
X136843359Y-95969448D01*
X136831377Y-95949457D01*
X136821412Y-95928387D01*
X136813560Y-95906443D01*
X136807896Y-95883834D01*
X136804477Y-95860779D01*
X136803333Y-95837500D01*
X136803333Y-95362500D01*
X136804477Y-95339221D01*
X136807896Y-95316166D01*
X136813560Y-95293557D01*
X136821412Y-95271613D01*
X136831377Y-95250543D01*
X136843359Y-95230552D01*
X136857243Y-95211832D01*
X136872895Y-95194562D01*
X136890165Y-95178910D01*
X136908885Y-95165026D01*
X136928876Y-95153044D01*
X136949946Y-95143079D01*
X136971890Y-95135227D01*
X136994499Y-95129563D01*
X137017554Y-95126144D01*
X137040833Y-95125000D01*
X137615833Y-95125000D01*
X137639112Y-95126144D01*
X137639112Y-95126144D01*
G37*
D16*
X137328333Y-95600000D03*
D14*
G36*
X137639112Y-105766144D02*
G01*
X137662167Y-105769563D01*
X137684776Y-105775227D01*
X137706720Y-105783079D01*
X137727790Y-105793044D01*
X137747781Y-105805026D01*
X137766501Y-105818910D01*
X137783771Y-105834562D01*
X137799423Y-105851832D01*
X137813307Y-105870552D01*
X137825289Y-105890543D01*
X137835254Y-105911613D01*
X137843106Y-105933557D01*
X137848770Y-105956166D01*
X137852189Y-105979221D01*
X137853333Y-106002500D01*
X137853333Y-106477500D01*
X137852189Y-106500779D01*
X137848770Y-106523834D01*
X137843106Y-106546443D01*
X137835254Y-106568387D01*
X137825289Y-106589457D01*
X137813307Y-106609448D01*
X137799423Y-106628168D01*
X137783771Y-106645438D01*
X137766501Y-106661090D01*
X137747781Y-106674974D01*
X137727790Y-106686956D01*
X137706720Y-106696921D01*
X137684776Y-106704773D01*
X137662167Y-106710437D01*
X137639112Y-106713856D01*
X137615833Y-106715000D01*
X137040833Y-106715000D01*
X137017554Y-106713856D01*
X136994499Y-106710437D01*
X136971890Y-106704773D01*
X136949946Y-106696921D01*
X136928876Y-106686956D01*
X136908885Y-106674974D01*
X136890165Y-106661090D01*
X136872895Y-106645438D01*
X136857243Y-106628168D01*
X136843359Y-106609448D01*
X136831377Y-106589457D01*
X136821412Y-106568387D01*
X136813560Y-106546443D01*
X136807896Y-106523834D01*
X136804477Y-106500779D01*
X136803333Y-106477500D01*
X136803333Y-106002500D01*
X136804477Y-105979221D01*
X136807896Y-105956166D01*
X136813560Y-105933557D01*
X136821412Y-105911613D01*
X136831377Y-105890543D01*
X136843359Y-105870552D01*
X136857243Y-105851832D01*
X136872895Y-105834562D01*
X136890165Y-105818910D01*
X136908885Y-105805026D01*
X136928876Y-105793044D01*
X136949946Y-105783079D01*
X136971890Y-105775227D01*
X136994499Y-105769563D01*
X137017554Y-105766144D01*
X137040833Y-105765000D01*
X137615833Y-105765000D01*
X137639112Y-105766144D01*
X137639112Y-105766144D01*
G37*
D16*
X137328333Y-106240000D03*
D14*
G36*
X135889112Y-105766144D02*
G01*
X135912167Y-105769563D01*
X135934776Y-105775227D01*
X135956720Y-105783079D01*
X135977790Y-105793044D01*
X135997781Y-105805026D01*
X136016501Y-105818910D01*
X136033771Y-105834562D01*
X136049423Y-105851832D01*
X136063307Y-105870552D01*
X136075289Y-105890543D01*
X136085254Y-105911613D01*
X136093106Y-105933557D01*
X136098770Y-105956166D01*
X136102189Y-105979221D01*
X136103333Y-106002500D01*
X136103333Y-106477500D01*
X136102189Y-106500779D01*
X136098770Y-106523834D01*
X136093106Y-106546443D01*
X136085254Y-106568387D01*
X136075289Y-106589457D01*
X136063307Y-106609448D01*
X136049423Y-106628168D01*
X136033771Y-106645438D01*
X136016501Y-106661090D01*
X135997781Y-106674974D01*
X135977790Y-106686956D01*
X135956720Y-106696921D01*
X135934776Y-106704773D01*
X135912167Y-106710437D01*
X135889112Y-106713856D01*
X135865833Y-106715000D01*
X135290833Y-106715000D01*
X135267554Y-106713856D01*
X135244499Y-106710437D01*
X135221890Y-106704773D01*
X135199946Y-106696921D01*
X135178876Y-106686956D01*
X135158885Y-106674974D01*
X135140165Y-106661090D01*
X135122895Y-106645438D01*
X135107243Y-106628168D01*
X135093359Y-106609448D01*
X135081377Y-106589457D01*
X135071412Y-106568387D01*
X135063560Y-106546443D01*
X135057896Y-106523834D01*
X135054477Y-106500779D01*
X135053333Y-106477500D01*
X135053333Y-106002500D01*
X135054477Y-105979221D01*
X135057896Y-105956166D01*
X135063560Y-105933557D01*
X135071412Y-105911613D01*
X135081377Y-105890543D01*
X135093359Y-105870552D01*
X135107243Y-105851832D01*
X135122895Y-105834562D01*
X135140165Y-105818910D01*
X135158885Y-105805026D01*
X135178876Y-105793044D01*
X135199946Y-105783079D01*
X135221890Y-105775227D01*
X135244499Y-105769563D01*
X135267554Y-105766144D01*
X135290833Y-105765000D01*
X135865833Y-105765000D01*
X135889112Y-105766144D01*
X135889112Y-105766144D01*
G37*
D16*
X135578333Y-106240000D03*
D11*
X124275000Y-69075000D03*
D10*
X124275000Y-71615000D03*
X124275000Y-74155000D03*
X128698750Y-74155000D03*
X128698750Y-71615000D03*
D11*
X128698750Y-69075000D03*
X133122500Y-69075000D03*
D10*
X133122500Y-71615000D03*
X133122500Y-74155000D03*
X137546250Y-74155000D03*
X137546250Y-71615000D03*
D11*
X137546250Y-69075000D03*
X141970000Y-69075000D03*
D10*
X141970000Y-71615000D03*
X141970000Y-74155000D03*
D17*
X132952200Y-78428800D03*
X132952200Y-84931200D03*
X128431000Y-78428800D03*
X128431000Y-84931200D03*
D18*
X133205000Y-125675000D03*
D19*
X133205000Y-119375000D03*
X135505000Y-119375000D03*
X130905000Y-119375000D03*
D20*
X136453332Y-103370000D03*
X136453332Y-98490000D03*
D11*
X154980000Y-123235000D03*
D10*
X154980000Y-125775000D03*
D11*
X139610000Y-120590000D03*
D10*
X142150000Y-120590000D03*
X144690000Y-120590000D03*
X147230000Y-120590000D03*
X149770000Y-120590000D03*
D14*
G36*
X129304504Y-115151204D02*
G01*
X129328772Y-115154804D01*
X129352571Y-115160765D01*
X129375670Y-115169030D01*
X129397849Y-115179520D01*
X129418892Y-115192132D01*
X129438598Y-115206747D01*
X129456776Y-115223223D01*
X129473252Y-115241401D01*
X129487867Y-115261107D01*
X129500479Y-115282150D01*
X129510969Y-115304329D01*
X129519234Y-115327428D01*
X129525195Y-115351227D01*
X129528795Y-115375495D01*
X129529999Y-115399999D01*
X129529999Y-116300001D01*
X129528795Y-116324505D01*
X129525195Y-116348773D01*
X129519234Y-116372572D01*
X129510969Y-116395671D01*
X129500479Y-116417850D01*
X129487867Y-116438893D01*
X129473252Y-116458599D01*
X129456776Y-116476777D01*
X129438598Y-116493253D01*
X129418892Y-116507868D01*
X129397849Y-116520480D01*
X129375670Y-116530970D01*
X129352571Y-116539235D01*
X129328772Y-116545196D01*
X129304504Y-116548796D01*
X129280000Y-116550000D01*
X128629998Y-116550000D01*
X128605494Y-116548796D01*
X128581226Y-116545196D01*
X128557427Y-116539235D01*
X128534328Y-116530970D01*
X128512149Y-116520480D01*
X128491106Y-116507868D01*
X128471400Y-116493253D01*
X128453222Y-116476777D01*
X128436746Y-116458599D01*
X128422131Y-116438893D01*
X128409519Y-116417850D01*
X128399029Y-116395671D01*
X128390764Y-116372572D01*
X128384803Y-116348773D01*
X128381203Y-116324505D01*
X128379999Y-116300001D01*
X128379999Y-115399999D01*
X128381203Y-115375495D01*
X128384803Y-115351227D01*
X128390764Y-115327428D01*
X128399029Y-115304329D01*
X128409519Y-115282150D01*
X128422131Y-115261107D01*
X128436746Y-115241401D01*
X128453222Y-115223223D01*
X128471400Y-115206747D01*
X128491106Y-115192132D01*
X128512149Y-115179520D01*
X128534328Y-115169030D01*
X128557427Y-115160765D01*
X128581226Y-115154804D01*
X128605494Y-115151204D01*
X128629998Y-115150000D01*
X129280000Y-115150000D01*
X129304504Y-115151204D01*
X129304504Y-115151204D01*
G37*
D15*
X128954999Y-115850000D03*
D14*
G36*
X131354504Y-115151204D02*
G01*
X131378772Y-115154804D01*
X131402571Y-115160765D01*
X131425670Y-115169030D01*
X131447849Y-115179520D01*
X131468892Y-115192132D01*
X131488598Y-115206747D01*
X131506776Y-115223223D01*
X131523252Y-115241401D01*
X131537867Y-115261107D01*
X131550479Y-115282150D01*
X131560969Y-115304329D01*
X131569234Y-115327428D01*
X131575195Y-115351227D01*
X131578795Y-115375495D01*
X131579999Y-115399999D01*
X131579999Y-116300001D01*
X131578795Y-116324505D01*
X131575195Y-116348773D01*
X131569234Y-116372572D01*
X131560969Y-116395671D01*
X131550479Y-116417850D01*
X131537867Y-116438893D01*
X131523252Y-116458599D01*
X131506776Y-116476777D01*
X131488598Y-116493253D01*
X131468892Y-116507868D01*
X131447849Y-116520480D01*
X131425670Y-116530970D01*
X131402571Y-116539235D01*
X131378772Y-116545196D01*
X131354504Y-116548796D01*
X131330000Y-116550000D01*
X130679998Y-116550000D01*
X130655494Y-116548796D01*
X130631226Y-116545196D01*
X130607427Y-116539235D01*
X130584328Y-116530970D01*
X130562149Y-116520480D01*
X130541106Y-116507868D01*
X130521400Y-116493253D01*
X130503222Y-116476777D01*
X130486746Y-116458599D01*
X130472131Y-116438893D01*
X130459519Y-116417850D01*
X130449029Y-116395671D01*
X130440764Y-116372572D01*
X130434803Y-116348773D01*
X130431203Y-116324505D01*
X130429999Y-116300001D01*
X130429999Y-115399999D01*
X130431203Y-115375495D01*
X130434803Y-115351227D01*
X130440764Y-115327428D01*
X130449029Y-115304329D01*
X130459519Y-115282150D01*
X130472131Y-115261107D01*
X130486746Y-115241401D01*
X130503222Y-115223223D01*
X130521400Y-115206747D01*
X130541106Y-115192132D01*
X130562149Y-115179520D01*
X130584328Y-115169030D01*
X130607427Y-115160765D01*
X130631226Y-115154804D01*
X130655494Y-115151204D01*
X130679998Y-115150000D01*
X131330000Y-115150000D01*
X131354504Y-115151204D01*
X131354504Y-115151204D01*
G37*
D15*
X131004999Y-115850000D03*
D13*
X131768916Y-97200000D03*
D21*
X128368916Y-99200000D03*
X128368916Y-103200000D03*
X131768916Y-105200000D03*
D11*
X139675000Y-126025000D03*
D10*
X142215000Y-126025000D03*
X144755000Y-126025000D03*
X147295000Y-126025000D03*
X149835000Y-126025000D03*
D22*
X127300000Y-115850000D03*
X147675000Y-69075000D03*
X153000000Y-96200000D03*
X137108100Y-78791900D03*
X137824990Y-113875010D03*
X130630927Y-99200000D03*
X132670000Y-115690000D03*
X135610000Y-122320000D03*
D23*
X143875000Y-85775000D03*
X151450001Y-87549999D03*
X152369999Y-95030001D03*
X122900000Y-78600000D03*
X123825000Y-78100000D03*
X144774747Y-113375253D03*
X133975000Y-92200000D03*
X134125000Y-99000000D03*
X133500000Y-99900000D03*
X122299997Y-104400000D03*
X125699990Y-93695697D03*
X146403230Y-96922332D03*
X135606066Y-93800011D03*
X143750011Y-102075000D03*
X126379608Y-95431532D03*
X136349799Y-94468506D03*
X134725000Y-97850000D03*
X135479370Y-91979190D03*
D22*
X136199625Y-112400010D03*
D24*
X135578333Y-97615000D02*
X136453333Y-98490000D01*
X135578333Y-95600000D02*
X135578333Y-97615000D01*
D25*
X129104999Y-115850000D02*
X128479999Y-115850000D01*
X128479999Y-115850000D02*
X127300000Y-115850000D01*
X127300000Y-115850000D02*
X127300000Y-115850000D01*
X137655001Y-106566668D02*
X137328333Y-106240000D01*
X137827405Y-102552595D02*
X140650001Y-99729999D01*
X137827405Y-105740928D02*
X137827405Y-102552595D01*
X140650001Y-99729999D02*
X141450000Y-98930000D01*
X137328333Y-106240000D02*
X137827405Y-105740928D01*
X128431000Y-87181000D02*
X129380000Y-88130000D01*
X128431000Y-84931200D02*
X128431000Y-87181000D01*
X140318630Y-98930000D02*
X137328333Y-95939703D01*
X141450000Y-98930000D02*
X140318630Y-98930000D01*
X137328333Y-95939703D02*
X137328333Y-95600000D01*
X136695001Y-120925001D02*
X137655001Y-119965001D01*
X130905000Y-119815002D02*
X132014999Y-120925001D01*
X137655001Y-116650000D02*
X137655001Y-115850000D01*
X137655001Y-119965001D02*
X137655001Y-116650000D01*
X142800001Y-100280001D02*
X142249999Y-99729999D01*
X142800001Y-114818001D02*
X142800001Y-100280001D01*
X142249999Y-99729999D02*
X141450000Y-98930000D01*
X141768002Y-115850000D02*
X142800001Y-114818001D01*
X137655001Y-115850000D02*
X141768002Y-115850000D01*
X122874999Y-69125001D02*
X122874999Y-75035035D01*
X124275000Y-69075000D02*
X122925000Y-69075000D01*
X128431000Y-80591036D02*
X128431000Y-83853570D01*
X122874999Y-75035035D02*
X128431000Y-80591036D01*
X122925000Y-69075000D02*
X122874999Y-69125001D01*
X128431000Y-83853570D02*
X128431000Y-84931200D01*
X128605927Y-115350928D02*
X129104999Y-115850000D01*
X127056915Y-113801916D02*
X128605927Y-115350928D01*
X127056915Y-98570239D02*
X127056915Y-113801916D01*
X127669001Y-97958153D02*
X127056915Y-98570239D01*
X127669001Y-85693199D02*
X127669001Y-97958153D01*
X128431000Y-84931200D02*
X127669001Y-85693199D01*
X130905000Y-117800001D02*
X128954999Y-115850000D01*
X130905000Y-119375000D02*
X130905000Y-117800001D01*
X147675000Y-69075000D02*
X141970000Y-69075000D01*
X153000000Y-96200000D02*
X153000000Y-97048528D01*
X153007500Y-97056028D02*
X153007500Y-104567500D01*
X153000000Y-97048528D02*
X153007500Y-97056028D01*
X153007500Y-104567500D02*
X154970000Y-106530000D01*
X132014999Y-120925001D02*
X136695001Y-120925001D01*
X139610000Y-117804999D02*
X139610000Y-120590000D01*
X137655001Y-115850000D02*
X139610000Y-117804999D01*
D24*
X135578333Y-104245000D02*
X135578333Y-106240000D01*
X136453333Y-103370000D02*
X135578333Y-104245000D01*
X131004999Y-115050000D02*
X129580917Y-113625918D01*
X131004999Y-115850000D02*
X131004999Y-115050000D01*
X129400000Y-91850000D02*
X129580917Y-92030917D01*
X129400000Y-90700000D02*
X129400000Y-91850000D01*
X129580917Y-92030917D02*
X129580917Y-113625918D01*
X130854999Y-115850000D02*
X131594999Y-116590000D01*
X131594999Y-117514999D02*
X133205000Y-119125000D01*
X133205000Y-119125000D02*
X133205000Y-119375000D01*
X131594999Y-116590000D02*
X131594999Y-117514999D01*
D25*
X137708099Y-79391899D02*
X137741899Y-79391899D01*
X137108100Y-78791900D02*
X137708099Y-79391899D01*
X140650001Y-95590001D02*
X141450000Y-96390000D01*
X139599988Y-81249988D02*
X139599988Y-94539988D01*
X139599988Y-94539988D02*
X140650001Y-95590001D01*
X137741899Y-79391899D02*
X139599988Y-81249988D01*
X135505000Y-115950001D02*
X135605001Y-115850000D01*
X135505000Y-119375000D02*
X135505000Y-115950001D01*
X134650000Y-114894999D02*
X134650000Y-114723538D01*
X135605001Y-115850000D02*
X134650000Y-114894999D01*
X134650000Y-114723538D02*
X134650000Y-113875010D01*
X134650000Y-113875010D02*
X137824990Y-113875010D01*
X137924990Y-113875010D02*
X137924990Y-113875010D01*
X137824990Y-113875010D02*
X137924990Y-113875010D01*
X133250000Y-112475010D02*
X133250000Y-102748528D01*
X130630927Y-100129455D02*
X130630927Y-100048528D01*
X133250000Y-102748528D02*
X130630927Y-100129455D01*
X130630927Y-100048528D02*
X130630927Y-99200000D01*
X134650000Y-113875010D02*
X133250000Y-112475010D01*
X131768916Y-114703925D02*
X131768916Y-105200000D01*
X132645001Y-115580010D02*
X131768916Y-114703925D01*
X132645001Y-115581482D02*
X132645001Y-115580010D01*
X132670000Y-115690000D02*
X132645001Y-115581482D01*
X153630000Y-123235000D02*
X154980000Y-123235000D01*
X153579999Y-123285001D02*
X153630000Y-123235000D01*
X153579999Y-125227003D02*
X153579999Y-123285001D01*
X151382001Y-127425001D02*
X153579999Y-125227003D01*
X135610000Y-122320000D02*
X136209999Y-122919999D01*
X136209999Y-125250001D02*
X138384999Y-127425001D01*
X138384999Y-127425001D02*
X151382001Y-127425001D01*
X136209999Y-122919999D02*
X136209999Y-125250001D01*
D24*
X144190000Y-83690000D02*
X145225000Y-84725000D01*
X141450000Y-83690000D02*
X144190000Y-83690000D01*
X145225000Y-84725000D02*
X145225000Y-98550000D01*
X145225000Y-98550000D02*
X147319988Y-100644988D01*
X147319988Y-100644988D02*
X147319988Y-118724010D01*
X146445001Y-125175001D02*
X147295000Y-126025000D01*
X146029999Y-124759999D02*
X146445001Y-125175001D01*
X146029999Y-120013999D02*
X146029999Y-124759999D01*
X147319988Y-118724010D02*
X146029999Y-120013999D01*
X144675000Y-98750000D02*
X146040001Y-100115001D01*
X144675000Y-85025000D02*
X144675000Y-98750000D01*
X143950000Y-84300000D02*
X144675000Y-85025000D01*
X143380000Y-84300000D02*
X143950000Y-84300000D01*
X141450000Y-86230000D02*
X143380000Y-84300000D01*
X146040001Y-100115001D02*
X146040001Y-110389999D01*
X143450001Y-124720001D02*
X143905001Y-125175001D01*
X143450001Y-120053997D02*
X143450001Y-124720001D01*
X143500012Y-120003986D02*
X143450001Y-120053997D01*
X143905001Y-125175001D02*
X144755000Y-126025000D01*
X143500012Y-112929988D02*
X143500012Y-120003986D01*
X146040001Y-110389999D02*
X143500012Y-112929988D01*
X155546001Y-87549999D02*
X151450001Y-87549999D01*
X157350000Y-89353998D02*
X155546001Y-87549999D01*
X157350000Y-115446002D02*
X157350000Y-89353998D01*
X151450001Y-87549999D02*
X151450001Y-87549999D01*
X141450000Y-88200000D02*
X141450000Y-88770000D01*
X143875000Y-85775000D02*
X141450000Y-88200000D01*
X157350000Y-115446002D02*
X151006001Y-121790001D01*
X148430001Y-121790001D02*
X147230000Y-120590000D01*
X151006001Y-121790001D02*
X148430001Y-121790001D01*
X155406003Y-95030001D02*
X152369999Y-95030001D01*
X153640001Y-117810001D02*
X156270001Y-115180001D01*
X156270001Y-95893999D02*
X155406003Y-95030001D01*
X156270001Y-115180001D02*
X156270001Y-95893999D01*
X153640001Y-117810001D02*
X153640001Y-117829999D01*
X153640001Y-117829999D02*
X151440000Y-120030000D01*
X151440000Y-120030000D02*
X151410000Y-120030000D01*
X151410000Y-120030000D02*
X150770000Y-120670000D01*
X149850000Y-120670000D02*
X149770000Y-120590000D01*
X150770000Y-120670000D02*
X149850000Y-120670000D01*
X125450001Y-92649999D02*
X125099999Y-93000001D01*
X122900000Y-78600000D02*
X123299999Y-78999999D01*
X123299999Y-78999999D02*
X124430001Y-78999999D01*
X125099999Y-93000001D02*
X124250000Y-93850000D01*
X125450001Y-80019999D02*
X125450001Y-92649999D01*
X124430001Y-78999999D02*
X125450001Y-80019999D01*
X140890000Y-109650000D02*
X141450000Y-109090000D01*
X124950000Y-78100000D02*
X123825000Y-78100000D01*
X124250000Y-96390000D02*
X124250000Y-95550011D01*
X124250000Y-95550011D02*
X125118481Y-95550011D01*
X126449991Y-94218501D02*
X126449991Y-79599991D01*
X125118481Y-95550011D02*
X126449991Y-94218501D01*
X126449991Y-79599991D02*
X124950000Y-78100000D01*
X141270000Y-111450000D02*
X141450000Y-111630000D01*
X144774747Y-120505253D02*
X144690000Y-120590000D01*
X144774747Y-113375253D02*
X144774747Y-120505253D01*
X134125000Y-99000000D02*
X134125000Y-99000000D01*
X133725001Y-92449999D02*
X133975000Y-92200000D01*
X134125000Y-99000000D02*
X133725001Y-98600001D01*
X133725001Y-98600001D02*
X133725001Y-92449999D01*
X133500000Y-99900000D02*
X133500000Y-99900000D01*
X132789999Y-89009999D02*
X131940000Y-88160000D01*
X133500000Y-99900000D02*
X133200011Y-99600011D01*
X133200011Y-89420011D02*
X132789999Y-89009999D01*
X133200011Y-99600011D02*
X133200011Y-89420011D01*
X124035000Y-104225000D02*
X124250000Y-104010000D01*
X122689997Y-104010000D02*
X122299997Y-104400000D01*
X124250000Y-104010000D02*
X122689997Y-104010000D01*
X123049999Y-95674001D02*
X123673999Y-95050001D01*
X124250000Y-109090000D02*
X123049999Y-107889999D01*
X124625001Y-95050001D02*
X124826001Y-95050001D01*
X123673999Y-95050001D02*
X124625001Y-95050001D01*
X124911371Y-95050001D02*
X125699990Y-94261382D01*
X124625001Y-95050001D02*
X124911371Y-95050001D01*
X125699990Y-94261382D02*
X125699990Y-93695697D01*
X149070000Y-109090000D02*
X147819999Y-107839999D01*
X146803229Y-97322331D02*
X146403230Y-96922332D01*
X147819999Y-107839999D02*
X147819999Y-98339101D01*
X147819999Y-98339101D02*
X146803229Y-97322331D01*
X123049999Y-107889999D02*
X123014999Y-107889999D01*
X123049999Y-107889999D02*
X123039999Y-107889999D01*
X121549987Y-106399987D02*
X121549987Y-103875013D01*
X123039999Y-107889999D02*
X121549987Y-106399987D01*
X123049999Y-102375001D02*
X123049999Y-95674001D01*
X121549987Y-103875013D02*
X123049999Y-102375001D01*
X136485583Y-92920494D02*
X136006065Y-93400012D01*
X134460000Y-90670000D02*
X135240680Y-90670000D01*
X136006065Y-93400012D02*
X135606066Y-93800011D01*
X136485583Y-91914903D02*
X136485583Y-92920494D01*
X135240680Y-90670000D02*
X136485583Y-91914903D01*
X137000000Y-88130000D02*
X138303343Y-89433343D01*
X138303343Y-95093345D02*
X140849999Y-97640001D01*
X140849999Y-97640001D02*
X142010003Y-97640001D01*
X143750011Y-99380009D02*
X143750011Y-101509315D01*
X143750011Y-101509315D02*
X143750011Y-102075000D01*
X142010003Y-97640001D02*
X143750011Y-99380009D01*
X138303343Y-89433343D02*
X138303343Y-94203343D01*
X138303343Y-94203343D02*
X138303343Y-95093345D01*
X126379608Y-95431532D02*
X125979609Y-95831531D01*
X125979609Y-95831531D02*
X125979609Y-109900391D01*
X125979609Y-109900391D02*
X125099999Y-110780001D01*
X125099999Y-110780001D02*
X124250000Y-111630000D01*
X136915484Y-94468506D02*
X136349799Y-94468506D01*
X138303343Y-94203343D02*
X138038180Y-94468506D01*
X138038180Y-94468506D02*
X136915484Y-94468506D01*
X134325001Y-93133559D02*
X135079371Y-92379189D01*
X135079371Y-92379189D02*
X135479370Y-91979190D01*
X134325001Y-97450001D02*
X134325001Y-93133559D01*
X134725000Y-97850000D02*
X134325001Y-97450001D01*
X149070000Y-83441512D02*
X149070000Y-83690000D01*
X140669999Y-75041511D02*
X149070000Y-83441512D01*
X140669999Y-72915001D02*
X140669999Y-75041511D01*
X141970000Y-71615000D02*
X140669999Y-72915001D01*
X148270001Y-85430001D02*
X149070000Y-86230000D01*
X147919999Y-85079999D02*
X148270001Y-85430001D01*
X140169988Y-75248622D02*
X147919999Y-82998633D01*
X137546250Y-71615000D02*
X140169988Y-74238738D01*
X147919999Y-82998633D02*
X147919999Y-85079999D01*
X140169988Y-74238738D02*
X140169988Y-75248622D01*
X133122500Y-71615000D02*
X136982478Y-75474978D01*
X147419988Y-85515808D02*
X147425022Y-85520842D01*
X148270001Y-87970001D02*
X149070000Y-88770000D01*
X147425022Y-87125022D02*
X148270001Y-87970001D01*
X139689222Y-75474978D02*
X147419990Y-83205748D01*
X136982478Y-75474978D02*
X139689222Y-75474978D01*
X147419990Y-83205748D02*
X147419988Y-85515808D01*
X147425022Y-85520842D02*
X147425022Y-87125022D01*
X133058739Y-75974989D02*
X139482112Y-75974990D01*
X146919979Y-83412859D02*
X146919979Y-85722921D01*
X146925011Y-89165011D02*
X148270001Y-90510001D01*
X146919979Y-85722921D02*
X146925011Y-85727953D01*
X139482112Y-75974990D02*
X146919979Y-83412859D01*
X148270001Y-90510001D02*
X149070000Y-91310000D01*
X146925011Y-85727953D02*
X146925011Y-89165011D01*
X128698750Y-71615000D02*
X133058739Y-75974989D01*
X139275000Y-76475000D02*
X146419968Y-83619970D01*
X129135000Y-76475000D02*
X139275000Y-76475000D01*
X146425000Y-91205000D02*
X149070000Y-93850000D01*
X146419968Y-83619970D02*
X146419968Y-85930032D01*
X146425000Y-85935064D02*
X146425000Y-91205000D01*
X124275000Y-71615000D02*
X129135000Y-76475000D01*
X146419968Y-85930032D02*
X146425000Y-85935064D01*
X145900000Y-92675000D02*
X145900000Y-84500000D01*
X148364999Y-95139999D02*
X145900000Y-92675000D01*
X142550000Y-81150000D02*
X141450000Y-81150000D01*
X153820000Y-114150000D02*
X150320001Y-110650001D01*
X150320001Y-110650001D02*
X150320001Y-95789999D01*
X149670001Y-95139999D02*
X148364999Y-95139999D01*
X145900000Y-84500000D02*
X142550000Y-81150000D01*
X150320001Y-95789999D02*
X149670001Y-95139999D01*
X154970000Y-114150000D02*
X153820000Y-114150000D01*
D25*
X136199625Y-112324625D02*
X136199625Y-112324625D01*
X134200000Y-102567142D02*
X134200000Y-110400385D01*
X134200000Y-110400385D02*
X135599626Y-111800011D01*
X131768916Y-97200000D02*
X131768916Y-98331370D01*
X131768916Y-98331370D02*
X131780929Y-98343383D01*
X131780929Y-98343383D02*
X131780929Y-100148071D01*
X131780929Y-100148071D02*
X134200000Y-102567142D01*
X135599626Y-111800011D02*
X136199625Y-112400010D01*
D26*
G36*
X142715013Y-119222189D02*
G01*
X142654099Y-119193175D01*
X142506890Y-119148524D01*
X142277000Y-119269845D01*
X142277000Y-120463000D01*
X142297000Y-120463000D01*
X142297000Y-120717000D01*
X142277000Y-120717000D01*
X142277000Y-121910155D01*
X142506890Y-122031476D01*
X142654099Y-121986825D01*
X142665001Y-121981632D01*
X142665002Y-124609686D01*
X142506111Y-124561487D01*
X142287950Y-124540000D01*
X142142050Y-124540000D01*
X141923889Y-124561487D01*
X141643966Y-124646401D01*
X141385986Y-124784294D01*
X141159866Y-124969866D01*
X141135393Y-124999687D01*
X141114502Y-124930820D01*
X141055537Y-124820506D01*
X140976185Y-124723815D01*
X140879494Y-124644463D01*
X140769180Y-124585498D01*
X140649482Y-124549188D01*
X140525000Y-124536928D01*
X138825000Y-124536928D01*
X138700518Y-124549188D01*
X138580820Y-124585498D01*
X138470506Y-124644463D01*
X138373815Y-124723815D01*
X138294463Y-124820506D01*
X138235498Y-124930820D01*
X138199188Y-125050518D01*
X138186928Y-125175000D01*
X138186928Y-125975351D01*
X137094999Y-124883423D01*
X137094999Y-122963468D01*
X137099280Y-122919999D01*
X137094999Y-122876530D01*
X137094999Y-122876522D01*
X137082194Y-122746509D01*
X137031588Y-122579686D01*
X136949410Y-122425940D01*
X136866531Y-122324952D01*
X136866529Y-122324950D01*
X136845000Y-122298717D01*
X136845000Y-122198363D01*
X136797540Y-121959764D01*
X136735622Y-121810281D01*
X136738470Y-121810001D01*
X136738478Y-121810001D01*
X136868491Y-121797196D01*
X137035314Y-121746590D01*
X137189060Y-121664412D01*
X137323818Y-121553818D01*
X137351535Y-121520045D01*
X138121928Y-120749653D01*
X138121928Y-121440000D01*
X138134188Y-121564482D01*
X138170498Y-121684180D01*
X138229463Y-121794494D01*
X138308815Y-121891185D01*
X138405506Y-121970537D01*
X138515820Y-122029502D01*
X138635518Y-122065812D01*
X138760000Y-122078072D01*
X140460000Y-122078072D01*
X140584482Y-122065812D01*
X140704180Y-122029502D01*
X140814494Y-121970537D01*
X140911185Y-121891185D01*
X140990537Y-121794494D01*
X141049502Y-121684180D01*
X141073966Y-121603534D01*
X141149731Y-121687588D01*
X141383080Y-121861641D01*
X141645901Y-121986825D01*
X141793110Y-122031476D01*
X142023000Y-121910155D01*
X142023000Y-120717000D01*
X142003000Y-120717000D01*
X142003000Y-120463000D01*
X142023000Y-120463000D01*
X142023000Y-119269845D01*
X141793110Y-119148524D01*
X141645901Y-119193175D01*
X141383080Y-119318359D01*
X141149731Y-119492412D01*
X141073966Y-119576466D01*
X141049502Y-119495820D01*
X140990537Y-119385506D01*
X140911185Y-119288815D01*
X140814494Y-119209463D01*
X140704180Y-119150498D01*
X140584482Y-119114188D01*
X140495000Y-119105375D01*
X140495000Y-117848464D01*
X140499281Y-117804998D01*
X140495000Y-117761532D01*
X140495000Y-117761522D01*
X140482195Y-117631509D01*
X140431589Y-117464686D01*
X140349411Y-117310940D01*
X140238817Y-117176182D01*
X140205050Y-117148470D01*
X139791580Y-116735000D01*
X141724533Y-116735000D01*
X141768002Y-116739281D01*
X141811471Y-116735000D01*
X141811479Y-116735000D01*
X141941492Y-116722195D01*
X142108315Y-116671589D01*
X142262061Y-116589411D01*
X142396819Y-116478817D01*
X142424536Y-116445044D01*
X142715012Y-116154568D01*
X142715013Y-119222189D01*
X142715013Y-119222189D01*
G37*
X142715013Y-119222189D02*
X142654099Y-119193175D01*
X142506890Y-119148524D01*
X142277000Y-119269845D01*
X142277000Y-120463000D01*
X142297000Y-120463000D01*
X142297000Y-120717000D01*
X142277000Y-120717000D01*
X142277000Y-121910155D01*
X142506890Y-122031476D01*
X142654099Y-121986825D01*
X142665001Y-121981632D01*
X142665002Y-124609686D01*
X142506111Y-124561487D01*
X142287950Y-124540000D01*
X142142050Y-124540000D01*
X141923889Y-124561487D01*
X141643966Y-124646401D01*
X141385986Y-124784294D01*
X141159866Y-124969866D01*
X141135393Y-124999687D01*
X141114502Y-124930820D01*
X141055537Y-124820506D01*
X140976185Y-124723815D01*
X140879494Y-124644463D01*
X140769180Y-124585498D01*
X140649482Y-124549188D01*
X140525000Y-124536928D01*
X138825000Y-124536928D01*
X138700518Y-124549188D01*
X138580820Y-124585498D01*
X138470506Y-124644463D01*
X138373815Y-124723815D01*
X138294463Y-124820506D01*
X138235498Y-124930820D01*
X138199188Y-125050518D01*
X138186928Y-125175000D01*
X138186928Y-125975351D01*
X137094999Y-124883423D01*
X137094999Y-122963468D01*
X137099280Y-122919999D01*
X137094999Y-122876530D01*
X137094999Y-122876522D01*
X137082194Y-122746509D01*
X137031588Y-122579686D01*
X136949410Y-122425940D01*
X136866531Y-122324952D01*
X136866529Y-122324950D01*
X136845000Y-122298717D01*
X136845000Y-122198363D01*
X136797540Y-121959764D01*
X136735622Y-121810281D01*
X136738470Y-121810001D01*
X136738478Y-121810001D01*
X136868491Y-121797196D01*
X137035314Y-121746590D01*
X137189060Y-121664412D01*
X137323818Y-121553818D01*
X137351535Y-121520045D01*
X138121928Y-120749653D01*
X138121928Y-121440000D01*
X138134188Y-121564482D01*
X138170498Y-121684180D01*
X138229463Y-121794494D01*
X138308815Y-121891185D01*
X138405506Y-121970537D01*
X138515820Y-122029502D01*
X138635518Y-122065812D01*
X138760000Y-122078072D01*
X140460000Y-122078072D01*
X140584482Y-122065812D01*
X140704180Y-122029502D01*
X140814494Y-121970537D01*
X140911185Y-121891185D01*
X140990537Y-121794494D01*
X141049502Y-121684180D01*
X141073966Y-121603534D01*
X141149731Y-121687588D01*
X141383080Y-121861641D01*
X141645901Y-121986825D01*
X141793110Y-122031476D01*
X142023000Y-121910155D01*
X142023000Y-120717000D01*
X142003000Y-120717000D01*
X142003000Y-120463000D01*
X142023000Y-120463000D01*
X142023000Y-119269845D01*
X141793110Y-119148524D01*
X141645901Y-119193175D01*
X141383080Y-119318359D01*
X141149731Y-119492412D01*
X141073966Y-119576466D01*
X141049502Y-119495820D01*
X140990537Y-119385506D01*
X140911185Y-119288815D01*
X140814494Y-119209463D01*
X140704180Y-119150498D01*
X140584482Y-119114188D01*
X140495000Y-119105375D01*
X140495000Y-117848464D01*
X140499281Y-117804998D01*
X140495000Y-117761532D01*
X140495000Y-117761522D01*
X140482195Y-117631509D01*
X140431589Y-117464686D01*
X140349411Y-117310940D01*
X140238817Y-117176182D01*
X140205050Y-117148470D01*
X139791580Y-116735000D01*
X141724533Y-116735000D01*
X141768002Y-116739281D01*
X141811471Y-116735000D01*
X141811479Y-116735000D01*
X141941492Y-116722195D01*
X142108315Y-116671589D01*
X142262061Y-116589411D01*
X142396819Y-116478817D01*
X142424536Y-116445044D01*
X142715012Y-116154568D01*
X142715013Y-119222189D01*
G36*
X130389063Y-97618574D02*
G01*
X130497236Y-97879727D01*
X130654279Y-98114759D01*
X130854157Y-98314637D01*
X130879666Y-98331681D01*
X130895929Y-98496819D01*
X130895930Y-100104592D01*
X130891648Y-100148071D01*
X130908734Y-100321561D01*
X130959341Y-100488384D01*
X131041519Y-100642130D01*
X131124397Y-100743117D01*
X131124400Y-100743120D01*
X131152113Y-100776888D01*
X131185880Y-100804600D01*
X133315000Y-102933721D01*
X133315001Y-110356906D01*
X133310719Y-110400385D01*
X133327805Y-110573875D01*
X133378412Y-110740698D01*
X133460590Y-110894444D01*
X133543468Y-110995431D01*
X133543471Y-110995434D01*
X133571184Y-111029202D01*
X133604951Y-111056914D01*
X134964625Y-112416589D01*
X134964625Y-112521647D01*
X135012085Y-112760246D01*
X135105182Y-112985002D01*
X135240338Y-113187277D01*
X135412358Y-113359297D01*
X135614633Y-113494453D01*
X135839389Y-113587550D01*
X136077988Y-113635010D01*
X136321262Y-113635010D01*
X136559861Y-113587550D01*
X136784617Y-113494453D01*
X136986892Y-113359297D01*
X137158912Y-113187277D01*
X137294068Y-112985002D01*
X137387165Y-112760246D01*
X137434625Y-112521647D01*
X137434625Y-112278373D01*
X137387165Y-112039774D01*
X137294068Y-111815018D01*
X137158912Y-111612743D01*
X136986892Y-111440723D01*
X136784617Y-111305567D01*
X136559861Y-111212470D01*
X136321262Y-111165010D01*
X136216204Y-111165010D01*
X135085000Y-110033807D01*
X135085000Y-107325626D01*
X135120017Y-107336248D01*
X135290833Y-107353072D01*
X135865833Y-107353072D01*
X136036649Y-107336248D01*
X136200900Y-107286423D01*
X136352275Y-107205512D01*
X136453333Y-107122575D01*
X136554391Y-107205512D01*
X136705766Y-107286423D01*
X136870017Y-107336248D01*
X137040833Y-107353072D01*
X137248863Y-107353072D01*
X137314688Y-107388256D01*
X137481510Y-107438862D01*
X137655000Y-107455949D01*
X137828490Y-107438862D01*
X137995314Y-107388256D01*
X138149059Y-107306078D01*
X138283818Y-107195485D01*
X138394411Y-107060726D01*
X138476589Y-106906981D01*
X138527195Y-106740157D01*
X138544282Y-106566667D01*
X138527195Y-106393177D01*
X138502851Y-106312928D01*
X138566816Y-106234987D01*
X138648994Y-106081241D01*
X138699600Y-105914418D01*
X138712405Y-105784405D01*
X138712405Y-105784395D01*
X138716686Y-105740929D01*
X138712405Y-105697463D01*
X138712405Y-102919173D01*
X140015870Y-101615709D01*
X140070147Y-101888574D01*
X140178320Y-102149727D01*
X140335363Y-102384759D01*
X140535241Y-102584637D01*
X140767759Y-102740000D01*
X140535241Y-102895363D01*
X140335363Y-103095241D01*
X140178320Y-103330273D01*
X140070147Y-103591426D01*
X140015000Y-103868665D01*
X140015000Y-104151335D01*
X140070147Y-104428574D01*
X140178320Y-104689727D01*
X140335363Y-104924759D01*
X140535241Y-105124637D01*
X140767759Y-105280000D01*
X140535241Y-105435363D01*
X140335363Y-105635241D01*
X140178320Y-105870273D01*
X140070147Y-106131426D01*
X140015000Y-106408665D01*
X140015000Y-106691335D01*
X140070147Y-106968574D01*
X140178320Y-107229727D01*
X140335363Y-107464759D01*
X140535241Y-107664637D01*
X140767759Y-107820000D01*
X140535241Y-107975363D01*
X140335363Y-108175241D01*
X140178320Y-108410273D01*
X140070147Y-108671426D01*
X140015000Y-108948665D01*
X140015000Y-109231335D01*
X140070147Y-109508574D01*
X140106490Y-109596315D01*
X140101203Y-109650000D01*
X140116359Y-109803886D01*
X140161246Y-109951859D01*
X140234139Y-110088232D01*
X140332236Y-110207764D01*
X140451768Y-110305861D01*
X140588141Y-110378754D01*
X140692372Y-110410372D01*
X140535241Y-110515363D01*
X140335363Y-110715241D01*
X140178320Y-110950273D01*
X140070147Y-111211426D01*
X140015000Y-111488665D01*
X140015000Y-111771335D01*
X140070147Y-112048574D01*
X140178320Y-112309727D01*
X140335363Y-112544759D01*
X140535241Y-112744637D01*
X140767759Y-112900000D01*
X140535241Y-113055363D01*
X140335363Y-113255241D01*
X140178320Y-113490273D01*
X140070147Y-113751426D01*
X140015000Y-114028665D01*
X140015000Y-114311335D01*
X140070147Y-114588574D01*
X140178320Y-114849727D01*
X140255343Y-114965000D01*
X138749615Y-114965000D01*
X138718406Y-114906613D01*
X138607963Y-114772038D01*
X138473388Y-114661595D01*
X138319852Y-114579528D01*
X138153256Y-114528992D01*
X137980002Y-114511928D01*
X137330000Y-114511928D01*
X137156746Y-114528992D01*
X136990150Y-114579528D01*
X136836614Y-114661595D01*
X136702039Y-114772038D01*
X136696659Y-114778594D01*
X136631186Y-114698815D01*
X136534495Y-114619463D01*
X136424181Y-114560498D01*
X136304483Y-114524188D01*
X136180001Y-114511928D01*
X135890751Y-114515000D01*
X135732001Y-114673750D01*
X135732001Y-115723000D01*
X135752001Y-115723000D01*
X135752001Y-115977000D01*
X135732001Y-115977000D01*
X135732001Y-117026250D01*
X135890751Y-117185000D01*
X136180001Y-117188072D01*
X136304483Y-117175812D01*
X136424181Y-117139502D01*
X136534495Y-117080537D01*
X136631186Y-117001185D01*
X136696659Y-116921406D01*
X136702039Y-116927962D01*
X136770002Y-116983738D01*
X136770002Y-118001576D01*
X136706185Y-117923815D01*
X136609494Y-117844463D01*
X136499180Y-117785498D01*
X136379482Y-117749188D01*
X136255000Y-117736928D01*
X135790750Y-117740000D01*
X135632000Y-117898750D01*
X135632000Y-119248000D01*
X135652000Y-119248000D01*
X135652000Y-119502000D01*
X135632000Y-119502000D01*
X135632000Y-119522000D01*
X135378000Y-119522000D01*
X135378000Y-119502000D01*
X135358000Y-119502000D01*
X135358000Y-119248000D01*
X135378000Y-119248000D01*
X135378000Y-117898750D01*
X135219250Y-117740000D01*
X134755000Y-117736928D01*
X134630518Y-117749188D01*
X134510820Y-117785498D01*
X134400506Y-117844463D01*
X134355000Y-117881809D01*
X134309494Y-117844463D01*
X134199180Y-117785498D01*
X134079482Y-117749188D01*
X133955000Y-117736928D01*
X132927085Y-117736928D01*
X132379999Y-117189842D01*
X132379999Y-116891511D01*
X132548363Y-116925000D01*
X132791637Y-116925000D01*
X133030236Y-116877540D01*
X133254992Y-116784443D01*
X133457267Y-116649287D01*
X133556554Y-116550000D01*
X134391929Y-116550000D01*
X134404189Y-116674482D01*
X134440499Y-116794180D01*
X134499464Y-116904494D01*
X134578816Y-117001185D01*
X134675507Y-117080537D01*
X134785821Y-117139502D01*
X134905519Y-117175812D01*
X135030001Y-117188072D01*
X135319251Y-117185000D01*
X135478001Y-117026250D01*
X135478001Y-115977000D01*
X134553751Y-115977000D01*
X134395001Y-116135750D01*
X134391929Y-116550000D01*
X133556554Y-116550000D01*
X133629287Y-116477267D01*
X133764443Y-116274992D01*
X133857540Y-116050236D01*
X133905000Y-115811637D01*
X133905000Y-115568363D01*
X133857540Y-115329764D01*
X133783080Y-115150000D01*
X134391929Y-115150000D01*
X134395001Y-115564250D01*
X134553751Y-115723000D01*
X135478001Y-115723000D01*
X135478001Y-114673750D01*
X135319251Y-114515000D01*
X135030001Y-114511928D01*
X134905519Y-114524188D01*
X134785821Y-114560498D01*
X134675507Y-114619463D01*
X134578816Y-114698815D01*
X134499464Y-114795506D01*
X134440499Y-114905820D01*
X134404189Y-115025518D01*
X134391929Y-115150000D01*
X133783080Y-115150000D01*
X133764443Y-115105008D01*
X133629287Y-114902733D01*
X133457267Y-114730713D01*
X133254992Y-114595557D01*
X133030236Y-114502460D01*
X132791637Y-114455000D01*
X132771569Y-114455000D01*
X132653916Y-114337347D01*
X132653916Y-106288818D01*
X132659451Y-106285120D01*
X132854036Y-106090535D01*
X133006921Y-105861727D01*
X133112230Y-105607490D01*
X133165916Y-105337592D01*
X133165916Y-105062408D01*
X133112230Y-104792510D01*
X133006921Y-104538273D01*
X132854036Y-104309465D01*
X132659451Y-104114880D01*
X132430643Y-103961995D01*
X132176406Y-103856686D01*
X131906508Y-103803000D01*
X131631324Y-103803000D01*
X131361426Y-103856686D01*
X131107189Y-103961995D01*
X130878381Y-104114880D01*
X130683796Y-104309465D01*
X130530911Y-104538273D01*
X130425602Y-104792510D01*
X130371916Y-105062408D01*
X130371916Y-105337592D01*
X130425602Y-105607490D01*
X130530911Y-105861727D01*
X130683796Y-106090535D01*
X130878381Y-106285120D01*
X130883917Y-106288819D01*
X130883916Y-113818760D01*
X130365917Y-113300761D01*
X130365917Y-97502213D01*
X130389063Y-97618574D01*
X130389063Y-97618574D01*
G37*
X130389063Y-97618574D02*
X130497236Y-97879727D01*
X130654279Y-98114759D01*
X130854157Y-98314637D01*
X130879666Y-98331681D01*
X130895929Y-98496819D01*
X130895930Y-100104592D01*
X130891648Y-100148071D01*
X130908734Y-100321561D01*
X130959341Y-100488384D01*
X131041519Y-100642130D01*
X131124397Y-100743117D01*
X131124400Y-100743120D01*
X131152113Y-100776888D01*
X131185880Y-100804600D01*
X133315000Y-102933721D01*
X133315001Y-110356906D01*
X133310719Y-110400385D01*
X133327805Y-110573875D01*
X133378412Y-110740698D01*
X133460590Y-110894444D01*
X133543468Y-110995431D01*
X133543471Y-110995434D01*
X133571184Y-111029202D01*
X133604951Y-111056914D01*
X134964625Y-112416589D01*
X134964625Y-112521647D01*
X135012085Y-112760246D01*
X135105182Y-112985002D01*
X135240338Y-113187277D01*
X135412358Y-113359297D01*
X135614633Y-113494453D01*
X135839389Y-113587550D01*
X136077988Y-113635010D01*
X136321262Y-113635010D01*
X136559861Y-113587550D01*
X136784617Y-113494453D01*
X136986892Y-113359297D01*
X137158912Y-113187277D01*
X137294068Y-112985002D01*
X137387165Y-112760246D01*
X137434625Y-112521647D01*
X137434625Y-112278373D01*
X137387165Y-112039774D01*
X137294068Y-111815018D01*
X137158912Y-111612743D01*
X136986892Y-111440723D01*
X136784617Y-111305567D01*
X136559861Y-111212470D01*
X136321262Y-111165010D01*
X136216204Y-111165010D01*
X135085000Y-110033807D01*
X135085000Y-107325626D01*
X135120017Y-107336248D01*
X135290833Y-107353072D01*
X135865833Y-107353072D01*
X136036649Y-107336248D01*
X136200900Y-107286423D01*
X136352275Y-107205512D01*
X136453333Y-107122575D01*
X136554391Y-107205512D01*
X136705766Y-107286423D01*
X136870017Y-107336248D01*
X137040833Y-107353072D01*
X137248863Y-107353072D01*
X137314688Y-107388256D01*
X137481510Y-107438862D01*
X137655000Y-107455949D01*
X137828490Y-107438862D01*
X137995314Y-107388256D01*
X138149059Y-107306078D01*
X138283818Y-107195485D01*
X138394411Y-107060726D01*
X138476589Y-106906981D01*
X138527195Y-106740157D01*
X138544282Y-106566667D01*
X138527195Y-106393177D01*
X138502851Y-106312928D01*
X138566816Y-106234987D01*
X138648994Y-106081241D01*
X138699600Y-105914418D01*
X138712405Y-105784405D01*
X138712405Y-105784395D01*
X138716686Y-105740929D01*
X138712405Y-105697463D01*
X138712405Y-102919173D01*
X140015870Y-101615709D01*
X140070147Y-101888574D01*
X140178320Y-102149727D01*
X140335363Y-102384759D01*
X140535241Y-102584637D01*
X140767759Y-102740000D01*
X140535241Y-102895363D01*
X140335363Y-103095241D01*
X140178320Y-103330273D01*
X140070147Y-103591426D01*
X140015000Y-103868665D01*
X140015000Y-104151335D01*
X140070147Y-104428574D01*
X140178320Y-104689727D01*
X140335363Y-104924759D01*
X140535241Y-105124637D01*
X140767759Y-105280000D01*
X140535241Y-105435363D01*
X140335363Y-105635241D01*
X140178320Y-105870273D01*
X140070147Y-106131426D01*
X140015000Y-106408665D01*
X140015000Y-106691335D01*
X140070147Y-106968574D01*
X140178320Y-107229727D01*
X140335363Y-107464759D01*
X140535241Y-107664637D01*
X140767759Y-107820000D01*
X140535241Y-107975363D01*
X140335363Y-108175241D01*
X140178320Y-108410273D01*
X140070147Y-108671426D01*
X140015000Y-108948665D01*
X140015000Y-109231335D01*
X140070147Y-109508574D01*
X140106490Y-109596315D01*
X140101203Y-109650000D01*
X140116359Y-109803886D01*
X140161246Y-109951859D01*
X140234139Y-110088232D01*
X140332236Y-110207764D01*
X140451768Y-110305861D01*
X140588141Y-110378754D01*
X140692372Y-110410372D01*
X140535241Y-110515363D01*
X140335363Y-110715241D01*
X140178320Y-110950273D01*
X140070147Y-111211426D01*
X140015000Y-111488665D01*
X140015000Y-111771335D01*
X140070147Y-112048574D01*
X140178320Y-112309727D01*
X140335363Y-112544759D01*
X140535241Y-112744637D01*
X140767759Y-112900000D01*
X140535241Y-113055363D01*
X140335363Y-113255241D01*
X140178320Y-113490273D01*
X140070147Y-113751426D01*
X140015000Y-114028665D01*
X140015000Y-114311335D01*
X140070147Y-114588574D01*
X140178320Y-114849727D01*
X140255343Y-114965000D01*
X138749615Y-114965000D01*
X138718406Y-114906613D01*
X138607963Y-114772038D01*
X138473388Y-114661595D01*
X138319852Y-114579528D01*
X138153256Y-114528992D01*
X137980002Y-114511928D01*
X137330000Y-114511928D01*
X137156746Y-114528992D01*
X136990150Y-114579528D01*
X136836614Y-114661595D01*
X136702039Y-114772038D01*
X136696659Y-114778594D01*
X136631186Y-114698815D01*
X136534495Y-114619463D01*
X136424181Y-114560498D01*
X136304483Y-114524188D01*
X136180001Y-114511928D01*
X135890751Y-114515000D01*
X135732001Y-114673750D01*
X135732001Y-115723000D01*
X135752001Y-115723000D01*
X135752001Y-115977000D01*
X135732001Y-115977000D01*
X135732001Y-117026250D01*
X135890751Y-117185000D01*
X136180001Y-117188072D01*
X136304483Y-117175812D01*
X136424181Y-117139502D01*
X136534495Y-117080537D01*
X136631186Y-117001185D01*
X136696659Y-116921406D01*
X136702039Y-116927962D01*
X136770002Y-116983738D01*
X136770002Y-118001576D01*
X136706185Y-117923815D01*
X136609494Y-117844463D01*
X136499180Y-117785498D01*
X136379482Y-117749188D01*
X136255000Y-117736928D01*
X135790750Y-117740000D01*
X135632000Y-117898750D01*
X135632000Y-119248000D01*
X135652000Y-119248000D01*
X135652000Y-119502000D01*
X135632000Y-119502000D01*
X135632000Y-119522000D01*
X135378000Y-119522000D01*
X135378000Y-119502000D01*
X135358000Y-119502000D01*
X135358000Y-119248000D01*
X135378000Y-119248000D01*
X135378000Y-117898750D01*
X135219250Y-117740000D01*
X134755000Y-117736928D01*
X134630518Y-117749188D01*
X134510820Y-117785498D01*
X134400506Y-117844463D01*
X134355000Y-117881809D01*
X134309494Y-117844463D01*
X134199180Y-117785498D01*
X134079482Y-117749188D01*
X133955000Y-117736928D01*
X132927085Y-117736928D01*
X132379999Y-117189842D01*
X132379999Y-116891511D01*
X132548363Y-116925000D01*
X132791637Y-116925000D01*
X133030236Y-116877540D01*
X133254992Y-116784443D01*
X133457267Y-116649287D01*
X133556554Y-116550000D01*
X134391929Y-116550000D01*
X134404189Y-116674482D01*
X134440499Y-116794180D01*
X134499464Y-116904494D01*
X134578816Y-117001185D01*
X134675507Y-117080537D01*
X134785821Y-117139502D01*
X134905519Y-117175812D01*
X135030001Y-117188072D01*
X135319251Y-117185000D01*
X135478001Y-117026250D01*
X135478001Y-115977000D01*
X134553751Y-115977000D01*
X134395001Y-116135750D01*
X134391929Y-116550000D01*
X133556554Y-116550000D01*
X133629287Y-116477267D01*
X133764443Y-116274992D01*
X133857540Y-116050236D01*
X133905000Y-115811637D01*
X133905000Y-115568363D01*
X133857540Y-115329764D01*
X133783080Y-115150000D01*
X134391929Y-115150000D01*
X134395001Y-115564250D01*
X134553751Y-115723000D01*
X135478001Y-115723000D01*
X135478001Y-114673750D01*
X135319251Y-114515000D01*
X135030001Y-114511928D01*
X134905519Y-114524188D01*
X134785821Y-114560498D01*
X134675507Y-114619463D01*
X134578816Y-114698815D01*
X134499464Y-114795506D01*
X134440499Y-114905820D01*
X134404189Y-115025518D01*
X134391929Y-115150000D01*
X133783080Y-115150000D01*
X133764443Y-115105008D01*
X133629287Y-114902733D01*
X133457267Y-114730713D01*
X133254992Y-114595557D01*
X133030236Y-114502460D01*
X132791637Y-114455000D01*
X132771569Y-114455000D01*
X132653916Y-114337347D01*
X132653916Y-106288818D01*
X132659451Y-106285120D01*
X132854036Y-106090535D01*
X133006921Y-105861727D01*
X133112230Y-105607490D01*
X133165916Y-105337592D01*
X133165916Y-105062408D01*
X133112230Y-104792510D01*
X133006921Y-104538273D01*
X132854036Y-104309465D01*
X132659451Y-104114880D01*
X132430643Y-103961995D01*
X132176406Y-103856686D01*
X131906508Y-103803000D01*
X131631324Y-103803000D01*
X131361426Y-103856686D01*
X131107189Y-103961995D01*
X130878381Y-104114880D01*
X130683796Y-104309465D01*
X130530911Y-104538273D01*
X130425602Y-104792510D01*
X130371916Y-105062408D01*
X130371916Y-105337592D01*
X130425602Y-105607490D01*
X130530911Y-105861727D01*
X130683796Y-106090535D01*
X130878381Y-106285120D01*
X130883917Y-106288819D01*
X130883916Y-113818760D01*
X130365917Y-113300761D01*
X130365917Y-97502213D01*
X130389063Y-97618574D01*
G36*
X140505567Y-57727949D02*
G01*
X141243741Y-57951006D01*
X141930743Y-58301256D01*
X142544865Y-58767629D01*
X143066697Y-59335386D01*
X143479736Y-59986570D01*
X143770935Y-60700614D01*
X143933081Y-61464334D01*
X143965069Y-61995992D01*
X143965097Y-62004001D01*
X143968010Y-62032686D01*
X143967809Y-62061521D01*
X143968709Y-62070692D01*
X144046741Y-62813113D01*
X144058766Y-62871695D01*
X144069977Y-62930468D01*
X144072641Y-62939290D01*
X144293389Y-63652414D01*
X144316564Y-63707544D01*
X144338978Y-63763023D01*
X144343305Y-63771159D01*
X144698363Y-64427825D01*
X144731808Y-64477409D01*
X144764568Y-64527472D01*
X144770392Y-64534613D01*
X145246235Y-65109808D01*
X145288690Y-65151967D01*
X145330534Y-65194697D01*
X145337634Y-65200571D01*
X145916137Y-65672387D01*
X145965948Y-65705481D01*
X146015320Y-65739287D01*
X146023426Y-65743669D01*
X146682555Y-66094135D01*
X146737896Y-66116944D01*
X146792843Y-66140495D01*
X146801646Y-66143220D01*
X147516294Y-66358984D01*
X147574974Y-66370603D01*
X147633484Y-66383040D01*
X147642649Y-66384003D01*
X148385595Y-66456850D01*
X148385598Y-66456850D01*
X148417581Y-66460000D01*
X155267721Y-66460000D01*
X155753893Y-66507670D01*
X156190498Y-66639489D01*
X156593185Y-66853600D01*
X156946612Y-67141848D01*
X157237327Y-67493261D01*
X157454242Y-67894439D01*
X157589106Y-68330113D01*
X157640001Y-68814353D01*
X157640001Y-88533842D01*
X156181167Y-87075008D01*
X156210706Y-87039014D01*
X156348599Y-86781034D01*
X156433513Y-86501111D01*
X156462185Y-86210000D01*
X156433513Y-85918889D01*
X156348599Y-85638966D01*
X156210706Y-85380986D01*
X156025134Y-85154866D01*
X155799014Y-84969294D01*
X155744209Y-84940000D01*
X155799014Y-84910706D01*
X156025134Y-84725134D01*
X156210706Y-84499014D01*
X156348599Y-84241034D01*
X156433513Y-83961111D01*
X156462185Y-83670000D01*
X156433513Y-83378889D01*
X156348599Y-83098966D01*
X156210706Y-82840986D01*
X156025134Y-82614866D01*
X155799014Y-82429294D01*
X155744209Y-82400000D01*
X155799014Y-82370706D01*
X156025134Y-82185134D01*
X156210706Y-81959014D01*
X156348599Y-81701034D01*
X156433513Y-81421111D01*
X156462185Y-81130000D01*
X156433513Y-80838889D01*
X156348599Y-80558966D01*
X156210706Y-80300986D01*
X156025134Y-80074866D01*
X155799014Y-79889294D01*
X155541034Y-79751401D01*
X155261111Y-79666487D01*
X155042950Y-79645000D01*
X154897050Y-79645000D01*
X154678889Y-79666487D01*
X154398966Y-79751401D01*
X154140986Y-79889294D01*
X153914866Y-80074866D01*
X153729294Y-80300986D01*
X153591401Y-80558966D01*
X153506487Y-80838889D01*
X153477815Y-81130000D01*
X153506487Y-81421111D01*
X153591401Y-81701034D01*
X153729294Y-81959014D01*
X153914866Y-82185134D01*
X154140986Y-82370706D01*
X154195791Y-82400000D01*
X154140986Y-82429294D01*
X153914866Y-82614866D01*
X153729294Y-82840986D01*
X153591401Y-83098966D01*
X153506487Y-83378889D01*
X153477815Y-83670000D01*
X153506487Y-83961111D01*
X153591401Y-84241034D01*
X153729294Y-84499014D01*
X153914866Y-84725134D01*
X154140986Y-84910706D01*
X154195791Y-84940000D01*
X154140986Y-84969294D01*
X153914866Y-85154866D01*
X153729294Y-85380986D01*
X153591401Y-85638966D01*
X153506487Y-85918889D01*
X153477815Y-86210000D01*
X153506487Y-86501111D01*
X153586537Y-86764999D01*
X152128712Y-86764999D01*
X152109775Y-86746062D01*
X151940257Y-86632794D01*
X151751899Y-86554773D01*
X151551940Y-86514999D01*
X151348062Y-86514999D01*
X151148103Y-86554773D01*
X150959745Y-86632794D01*
X150790227Y-86746062D01*
X150646064Y-86890225D01*
X150532796Y-87059743D01*
X150454775Y-87248101D01*
X150415001Y-87448060D01*
X150415001Y-87651938D01*
X150454775Y-87851897D01*
X150532796Y-88040255D01*
X150646064Y-88209773D01*
X150790227Y-88353936D01*
X150959745Y-88467204D01*
X151148103Y-88545225D01*
X151348062Y-88584999D01*
X151551940Y-88584999D01*
X151751899Y-88545225D01*
X151940257Y-88467204D01*
X152109775Y-88353936D01*
X152128712Y-88334999D01*
X153544069Y-88334999D01*
X153506487Y-88458889D01*
X153477815Y-88750000D01*
X153506487Y-89041111D01*
X153591401Y-89321034D01*
X153729294Y-89579014D01*
X153914866Y-89805134D01*
X154140986Y-89990706D01*
X154195791Y-90020000D01*
X154140986Y-90049294D01*
X153914866Y-90234866D01*
X153729294Y-90460986D01*
X153591401Y-90718966D01*
X153506487Y-90998889D01*
X153477815Y-91290000D01*
X153506487Y-91581111D01*
X153591401Y-91861034D01*
X153729294Y-92119014D01*
X153914866Y-92345134D01*
X154140986Y-92530706D01*
X154195791Y-92560000D01*
X154140986Y-92589294D01*
X153914866Y-92774866D01*
X153729294Y-93000986D01*
X153591401Y-93258966D01*
X153506487Y-93538889D01*
X153477815Y-93830000D01*
X153506487Y-94121111D01*
X153544069Y-94245001D01*
X153048710Y-94245001D01*
X153029773Y-94226064D01*
X152860255Y-94112796D01*
X152671897Y-94034775D01*
X152471938Y-93995001D01*
X152268060Y-93995001D01*
X152068101Y-94034775D01*
X151879743Y-94112796D01*
X151710225Y-94226064D01*
X151566062Y-94370227D01*
X151452794Y-94539745D01*
X151374773Y-94728103D01*
X151334999Y-94928062D01*
X151334999Y-95131940D01*
X151374773Y-95331899D01*
X151452794Y-95520257D01*
X151566062Y-95689775D01*
X151710225Y-95833938D01*
X151801489Y-95894919D01*
X151765000Y-96078363D01*
X151765000Y-96321637D01*
X151812460Y-96560236D01*
X151905557Y-96784992D01*
X152040713Y-96987267D01*
X152111674Y-97058228D01*
X152115000Y-97091997D01*
X152115000Y-97092005D01*
X152116988Y-97112188D01*
X152122500Y-97168152D01*
X152122501Y-104524021D01*
X152118219Y-104567500D01*
X152135305Y-104740990D01*
X152185912Y-104907813D01*
X152268090Y-105061559D01*
X152350968Y-105162546D01*
X152350971Y-105162549D01*
X152378684Y-105196317D01*
X152412451Y-105224029D01*
X153499388Y-106310967D01*
X153477815Y-106530000D01*
X153506487Y-106821111D01*
X153591401Y-107101034D01*
X153729294Y-107359014D01*
X153914866Y-107585134D01*
X154140986Y-107770706D01*
X154195791Y-107800000D01*
X154140986Y-107829294D01*
X153914866Y-108014866D01*
X153729294Y-108240986D01*
X153591401Y-108498966D01*
X153506487Y-108778889D01*
X153477815Y-109070000D01*
X153506487Y-109361111D01*
X153591401Y-109641034D01*
X153729294Y-109899014D01*
X153914866Y-110125134D01*
X154140986Y-110310706D01*
X154195791Y-110340000D01*
X154140986Y-110369294D01*
X153914866Y-110554866D01*
X153729294Y-110780986D01*
X153591401Y-111038966D01*
X153506487Y-111318889D01*
X153477815Y-111610000D01*
X153506487Y-111901111D01*
X153591401Y-112181034D01*
X153729294Y-112439014D01*
X153914866Y-112665134D01*
X153944687Y-112689607D01*
X153875820Y-112710498D01*
X153765506Y-112769463D01*
X153668815Y-112848815D01*
X153650856Y-112870698D01*
X151105001Y-110324844D01*
X151105001Y-95828555D01*
X151108798Y-95789999D01*
X151105001Y-95751443D01*
X151105001Y-95751438D01*
X151100319Y-95703898D01*
X151093643Y-95636112D01*
X151048755Y-95488139D01*
X151024018Y-95441859D01*
X150975863Y-95351766D01*
X150877765Y-95232235D01*
X150847811Y-95207652D01*
X150272869Y-94632710D01*
X150341680Y-94529727D01*
X150449853Y-94268574D01*
X150505000Y-93991335D01*
X150505000Y-93708665D01*
X150449853Y-93431426D01*
X150341680Y-93170273D01*
X150184637Y-92935241D01*
X149984759Y-92735363D01*
X149752241Y-92580000D01*
X149984759Y-92424637D01*
X150184637Y-92224759D01*
X150341680Y-91989727D01*
X150449853Y-91728574D01*
X150505000Y-91451335D01*
X150505000Y-91168665D01*
X150449853Y-90891426D01*
X150341680Y-90630273D01*
X150184637Y-90395241D01*
X149984759Y-90195363D01*
X149752241Y-90040000D01*
X149984759Y-89884637D01*
X150184637Y-89684759D01*
X150341680Y-89449727D01*
X150449853Y-89188574D01*
X150505000Y-88911335D01*
X150505000Y-88628665D01*
X150449853Y-88351426D01*
X150341680Y-88090273D01*
X150184637Y-87855241D01*
X149984759Y-87655363D01*
X149752241Y-87500000D01*
X149984759Y-87344637D01*
X150184637Y-87144759D01*
X150341680Y-86909727D01*
X150449853Y-86648574D01*
X150505000Y-86371335D01*
X150505000Y-86088665D01*
X150449853Y-85811426D01*
X150341680Y-85550273D01*
X150184637Y-85315241D01*
X149984759Y-85115363D01*
X149752241Y-84960000D01*
X149984759Y-84804637D01*
X150184637Y-84604759D01*
X150341680Y-84369727D01*
X150449853Y-84108574D01*
X150505000Y-83831335D01*
X150505000Y-83548665D01*
X150449853Y-83271426D01*
X150341680Y-83010273D01*
X150184637Y-82775241D01*
X149984759Y-82575363D01*
X149752241Y-82420000D01*
X149984759Y-82264637D01*
X150184637Y-82064759D01*
X150341680Y-81829727D01*
X150449853Y-81568574D01*
X150505000Y-81291335D01*
X150505000Y-81008665D01*
X150449853Y-80731426D01*
X150341680Y-80470273D01*
X150184637Y-80235241D01*
X149984759Y-80035363D01*
X149749727Y-79878320D01*
X149488574Y-79770147D01*
X149211335Y-79715000D01*
X148928665Y-79715000D01*
X148651426Y-79770147D01*
X148390273Y-79878320D01*
X148155241Y-80035363D01*
X147955363Y-80235241D01*
X147798320Y-80470273D01*
X147690147Y-80731426D01*
X147653634Y-80914988D01*
X142332970Y-75594325D01*
X142601252Y-75499157D01*
X142851355Y-75350178D01*
X143067588Y-75155269D01*
X143241641Y-74921920D01*
X143366825Y-74659099D01*
X143411476Y-74511890D01*
X143290155Y-74282000D01*
X142097000Y-74282000D01*
X142097000Y-74302000D01*
X141843000Y-74302000D01*
X141843000Y-74282000D01*
X141823000Y-74282000D01*
X141823000Y-74028000D01*
X141843000Y-74028000D01*
X141843000Y-74008000D01*
X142097000Y-74008000D01*
X142097000Y-74028000D01*
X143290155Y-74028000D01*
X143411476Y-73798110D01*
X143366825Y-73650901D01*
X143241641Y-73388080D01*
X143067588Y-73154731D01*
X142851355Y-72959822D01*
X142734477Y-72890201D01*
X142799014Y-72855706D01*
X143025134Y-72670134D01*
X143210706Y-72444014D01*
X143348599Y-72186034D01*
X143433513Y-71906111D01*
X143462185Y-71615000D01*
X143433513Y-71323889D01*
X143348599Y-71043966D01*
X143210706Y-70785986D01*
X143025134Y-70559866D01*
X142995313Y-70535393D01*
X143064180Y-70514502D01*
X143174494Y-70455537D01*
X143271185Y-70376185D01*
X143350537Y-70279494D01*
X143409502Y-70169180D01*
X143445812Y-70049482D01*
X143454625Y-69960000D01*
X146813446Y-69960000D01*
X146887733Y-70034287D01*
X147090008Y-70169443D01*
X147314764Y-70262540D01*
X147553363Y-70310000D01*
X147796637Y-70310000D01*
X148035236Y-70262540D01*
X148259992Y-70169443D01*
X148462267Y-70034287D01*
X148634287Y-69862267D01*
X148769443Y-69659992D01*
X148862540Y-69435236D01*
X148910000Y-69196637D01*
X148910000Y-68953363D01*
X148862540Y-68714764D01*
X148769443Y-68490008D01*
X148634287Y-68287733D01*
X148462267Y-68115713D01*
X148259992Y-67980557D01*
X148035236Y-67887460D01*
X147796637Y-67840000D01*
X147553363Y-67840000D01*
X147314764Y-67887460D01*
X147090008Y-67980557D01*
X146887733Y-68115713D01*
X146813446Y-68190000D01*
X143454625Y-68190000D01*
X143445812Y-68100518D01*
X143409502Y-67980820D01*
X143350537Y-67870506D01*
X143271185Y-67773815D01*
X143174494Y-67694463D01*
X143064180Y-67635498D01*
X142944482Y-67599188D01*
X142820000Y-67586928D01*
X141120000Y-67586928D01*
X140995518Y-67599188D01*
X140875820Y-67635498D01*
X140765506Y-67694463D01*
X140668815Y-67773815D01*
X140589463Y-67870506D01*
X140530498Y-67980820D01*
X140494188Y-68100518D01*
X140481928Y-68225000D01*
X140481928Y-69925000D01*
X140494188Y-70049482D01*
X140530498Y-70169180D01*
X140589463Y-70279494D01*
X140668815Y-70376185D01*
X140765506Y-70455537D01*
X140875820Y-70514502D01*
X140944687Y-70535393D01*
X140914866Y-70559866D01*
X140729294Y-70785986D01*
X140591401Y-71043966D01*
X140506487Y-71323889D01*
X140477815Y-71615000D01*
X140506487Y-71906111D01*
X140520974Y-71953869D01*
X140142189Y-72332654D01*
X140112235Y-72357237D01*
X140014137Y-72476769D01*
X139941245Y-72613142D01*
X139896358Y-72761115D01*
X139887944Y-72846537D01*
X138995276Y-71953869D01*
X139009763Y-71906111D01*
X139038435Y-71615000D01*
X139009763Y-71323889D01*
X138924849Y-71043966D01*
X138786956Y-70785986D01*
X138601384Y-70559866D01*
X138571563Y-70535393D01*
X138640430Y-70514502D01*
X138750744Y-70455537D01*
X138847435Y-70376185D01*
X138926787Y-70279494D01*
X138985752Y-70169180D01*
X139022062Y-70049482D01*
X139034322Y-69925000D01*
X139034322Y-68225000D01*
X139022062Y-68100518D01*
X138985752Y-67980820D01*
X138926787Y-67870506D01*
X138847435Y-67773815D01*
X138750744Y-67694463D01*
X138640430Y-67635498D01*
X138520732Y-67599188D01*
X138396250Y-67586928D01*
X136696250Y-67586928D01*
X136571768Y-67599188D01*
X136452070Y-67635498D01*
X136341756Y-67694463D01*
X136245065Y-67773815D01*
X136165713Y-67870506D01*
X136106748Y-67980820D01*
X136070438Y-68100518D01*
X136058178Y-68225000D01*
X136058178Y-69925000D01*
X136070438Y-70049482D01*
X136106748Y-70169180D01*
X136165713Y-70279494D01*
X136245065Y-70376185D01*
X136341756Y-70455537D01*
X136452070Y-70514502D01*
X136520937Y-70535393D01*
X136491116Y-70559866D01*
X136305544Y-70785986D01*
X136167651Y-71043966D01*
X136082737Y-71323889D01*
X136054065Y-71615000D01*
X136082737Y-71906111D01*
X136167651Y-72186034D01*
X136305544Y-72444014D01*
X136491116Y-72670134D01*
X136717236Y-72855706D01*
X136781773Y-72890201D01*
X136664895Y-72959822D01*
X136448662Y-73154731D01*
X136274609Y-73388080D01*
X136187862Y-73570204D01*
X134571526Y-71953869D01*
X134586013Y-71906111D01*
X134614685Y-71615000D01*
X134586013Y-71323889D01*
X134501099Y-71043966D01*
X134363206Y-70785986D01*
X134177634Y-70559866D01*
X134147813Y-70535393D01*
X134216680Y-70514502D01*
X134326994Y-70455537D01*
X134423685Y-70376185D01*
X134503037Y-70279494D01*
X134562002Y-70169180D01*
X134598312Y-70049482D01*
X134610572Y-69925000D01*
X134610572Y-68225000D01*
X134598312Y-68100518D01*
X134562002Y-67980820D01*
X134503037Y-67870506D01*
X134423685Y-67773815D01*
X134326994Y-67694463D01*
X134216680Y-67635498D01*
X134096982Y-67599188D01*
X133972500Y-67586928D01*
X132272500Y-67586928D01*
X132148018Y-67599188D01*
X132028320Y-67635498D01*
X131918006Y-67694463D01*
X131821315Y-67773815D01*
X131741963Y-67870506D01*
X131682998Y-67980820D01*
X131646688Y-68100518D01*
X131634428Y-68225000D01*
X131634428Y-69925000D01*
X131646688Y-70049482D01*
X131682998Y-70169180D01*
X131741963Y-70279494D01*
X131821315Y-70376185D01*
X131918006Y-70455537D01*
X132028320Y-70514502D01*
X132097187Y-70535393D01*
X132067366Y-70559866D01*
X131881794Y-70785986D01*
X131743901Y-71043966D01*
X131658987Y-71323889D01*
X131630315Y-71615000D01*
X131658987Y-71906111D01*
X131743901Y-72186034D01*
X131881794Y-72444014D01*
X132067366Y-72670134D01*
X132293486Y-72855706D01*
X132358023Y-72890201D01*
X132241145Y-72959822D01*
X132024912Y-73154731D01*
X131850859Y-73388080D01*
X131764111Y-73570204D01*
X130147776Y-71953869D01*
X130162263Y-71906111D01*
X130190935Y-71615000D01*
X130162263Y-71323889D01*
X130077349Y-71043966D01*
X129939456Y-70785986D01*
X129753884Y-70559866D01*
X129724063Y-70535393D01*
X129792930Y-70514502D01*
X129903244Y-70455537D01*
X129999935Y-70376185D01*
X130079287Y-70279494D01*
X130138252Y-70169180D01*
X130174562Y-70049482D01*
X130186822Y-69925000D01*
X130186822Y-68225000D01*
X130174562Y-68100518D01*
X130138252Y-67980820D01*
X130079287Y-67870506D01*
X129999935Y-67773815D01*
X129903244Y-67694463D01*
X129792930Y-67635498D01*
X129673232Y-67599188D01*
X129548750Y-67586928D01*
X127848750Y-67586928D01*
X127724268Y-67599188D01*
X127604570Y-67635498D01*
X127494256Y-67694463D01*
X127397565Y-67773815D01*
X127318213Y-67870506D01*
X127259248Y-67980820D01*
X127222938Y-68100518D01*
X127210678Y-68225000D01*
X127210678Y-69925000D01*
X127222938Y-70049482D01*
X127259248Y-70169180D01*
X127318213Y-70279494D01*
X127397565Y-70376185D01*
X127494256Y-70455537D01*
X127604570Y-70514502D01*
X127673437Y-70535393D01*
X127643616Y-70559866D01*
X127458044Y-70785986D01*
X127320151Y-71043966D01*
X127235237Y-71323889D01*
X127206565Y-71615000D01*
X127235237Y-71906111D01*
X127320151Y-72186034D01*
X127458044Y-72444014D01*
X127643616Y-72670134D01*
X127869736Y-72855706D01*
X127934273Y-72890201D01*
X127817395Y-72959822D01*
X127601162Y-73154731D01*
X127427109Y-73388080D01*
X127340362Y-73570204D01*
X125724026Y-71953869D01*
X125738513Y-71906111D01*
X125767185Y-71615000D01*
X125738513Y-71323889D01*
X125653599Y-71043966D01*
X125515706Y-70785986D01*
X125330134Y-70559866D01*
X125300313Y-70535393D01*
X125369180Y-70514502D01*
X125479494Y-70455537D01*
X125576185Y-70376185D01*
X125655537Y-70279494D01*
X125714502Y-70169180D01*
X125750812Y-70049482D01*
X125763072Y-69925000D01*
X125763072Y-68225000D01*
X125750812Y-68100518D01*
X125714502Y-67980820D01*
X125655537Y-67870506D01*
X125576185Y-67773815D01*
X125479494Y-67694463D01*
X125369180Y-67635498D01*
X125249482Y-67599188D01*
X125125000Y-67586928D01*
X123425000Y-67586928D01*
X123300518Y-67599188D01*
X123180820Y-67635498D01*
X123070506Y-67694463D01*
X122973815Y-67773815D01*
X122894463Y-67870506D01*
X122835498Y-67980820D01*
X122799188Y-68100518D01*
X122789482Y-68199065D01*
X122751510Y-68202805D01*
X122584687Y-68253411D01*
X122430941Y-68335589D01*
X122296183Y-68446183D01*
X122273645Y-68473646D01*
X122246182Y-68496184D01*
X122135588Y-68630943D01*
X122053410Y-68784689D01*
X122002804Y-68951512D01*
X121989999Y-69081525D01*
X121989999Y-69081532D01*
X121985718Y-69125001D01*
X121989999Y-69168470D01*
X121990000Y-74991556D01*
X121985718Y-75035035D01*
X122002804Y-75208525D01*
X122053411Y-75375348D01*
X122135589Y-75529094D01*
X122218467Y-75630081D01*
X122218470Y-75630084D01*
X122246183Y-75663852D01*
X122279951Y-75691565D01*
X123664946Y-77076560D01*
X123523102Y-77104774D01*
X123334744Y-77182795D01*
X123165226Y-77296063D01*
X123021063Y-77440226D01*
X122937692Y-77565000D01*
X122798061Y-77565000D01*
X122598102Y-77604774D01*
X122409744Y-77682795D01*
X122240226Y-77796063D01*
X122096063Y-77940226D01*
X121982795Y-78109744D01*
X121904774Y-78298102D01*
X121865000Y-78498061D01*
X121865000Y-78701939D01*
X121904774Y-78901898D01*
X121982795Y-79090256D01*
X122096063Y-79259774D01*
X122240226Y-79403937D01*
X122409744Y-79517205D01*
X122598102Y-79595226D01*
X122798061Y-79635000D01*
X122836347Y-79635000D01*
X122861766Y-79655861D01*
X122998139Y-79728753D01*
X123076945Y-79752658D01*
X123045506Y-79769463D01*
X122948815Y-79848815D01*
X122869463Y-79945506D01*
X122810498Y-80055820D01*
X122774188Y-80175518D01*
X122761928Y-80300000D01*
X122761928Y-82000000D01*
X122774188Y-82124482D01*
X122810498Y-82244180D01*
X122869463Y-82354494D01*
X122948815Y-82451185D01*
X123045506Y-82530537D01*
X123155820Y-82589502D01*
X123224687Y-82610393D01*
X123194866Y-82634866D01*
X123009294Y-82860986D01*
X122871401Y-83118966D01*
X122786487Y-83398889D01*
X122757815Y-83690000D01*
X122786487Y-83981111D01*
X122871401Y-84261034D01*
X123009294Y-84519014D01*
X123194866Y-84745134D01*
X123420986Y-84930706D01*
X123475791Y-84960000D01*
X123420986Y-84989294D01*
X123194866Y-85174866D01*
X123009294Y-85400986D01*
X122871401Y-85658966D01*
X122786487Y-85938889D01*
X122757815Y-86230000D01*
X122786487Y-86521111D01*
X122871401Y-86801034D01*
X123009294Y-87059014D01*
X123194866Y-87285134D01*
X123420986Y-87470706D01*
X123475791Y-87500000D01*
X123420986Y-87529294D01*
X123194866Y-87714866D01*
X123009294Y-87940986D01*
X122871401Y-88198966D01*
X122786487Y-88478889D01*
X122757815Y-88770000D01*
X122786487Y-89061111D01*
X122871401Y-89341034D01*
X123009294Y-89599014D01*
X123194866Y-89825134D01*
X123420986Y-90010706D01*
X123475791Y-90040000D01*
X123420986Y-90069294D01*
X123194866Y-90254866D01*
X123009294Y-90480986D01*
X122871401Y-90738966D01*
X122786487Y-91018889D01*
X122757815Y-91310000D01*
X122786487Y-91601111D01*
X122871401Y-91881034D01*
X123009294Y-92139014D01*
X123194866Y-92365134D01*
X123420986Y-92550706D01*
X123475791Y-92580000D01*
X123420986Y-92609294D01*
X123194866Y-92794866D01*
X123009294Y-93020986D01*
X122871401Y-93278966D01*
X122786487Y-93558889D01*
X122757815Y-93850000D01*
X122786487Y-94141111D01*
X122871401Y-94421034D01*
X122983356Y-94630487D01*
X122522184Y-95091659D01*
X122492236Y-95116237D01*
X122467658Y-95146185D01*
X122467654Y-95146189D01*
X122443461Y-95175669D01*
X122394138Y-95235768D01*
X122371754Y-95277646D01*
X122321245Y-95372142D01*
X122276358Y-95520115D01*
X122261202Y-95674001D01*
X122265000Y-95712564D01*
X122264999Y-102049843D01*
X121610000Y-102704843D01*
X121610000Y-68832279D01*
X121657670Y-68346107D01*
X121789489Y-67909502D01*
X122003600Y-67506815D01*
X122291848Y-67153388D01*
X122643261Y-66862673D01*
X123044439Y-66645758D01*
X123480113Y-66510894D01*
X123963824Y-66460055D01*
X130830010Y-66485113D01*
X130862594Y-66482024D01*
X130886521Y-66482191D01*
X130895692Y-66481291D01*
X131638113Y-66403259D01*
X131696695Y-66391234D01*
X131755468Y-66380023D01*
X131764290Y-66377359D01*
X132477414Y-66156611D01*
X132532544Y-66133436D01*
X132588023Y-66111022D01*
X132596159Y-66106695D01*
X133252825Y-65751637D01*
X133302409Y-65718192D01*
X133352472Y-65685432D01*
X133359613Y-65679608D01*
X133934808Y-65203765D01*
X133976967Y-65161310D01*
X134019697Y-65119466D01*
X134025571Y-65112366D01*
X134497387Y-64533863D01*
X134530481Y-64484052D01*
X134564287Y-64434680D01*
X134568669Y-64426574D01*
X134919135Y-63767445D01*
X134941944Y-63712104D01*
X134965495Y-63657157D01*
X134968220Y-63648354D01*
X135183984Y-62933706D01*
X135195603Y-62875026D01*
X135208040Y-62816516D01*
X135209003Y-62807351D01*
X135281850Y-62064405D01*
X135281850Y-62061584D01*
X135282734Y-62055383D01*
X135315760Y-61663195D01*
X136459193Y-61663195D01*
X136459193Y-62286805D01*
X136580853Y-62898432D01*
X136819498Y-63474572D01*
X137165957Y-63993084D01*
X137606916Y-64434043D01*
X138125428Y-64780502D01*
X138701568Y-65019147D01*
X139313195Y-65140807D01*
X139936805Y-65140807D01*
X140548432Y-65019147D01*
X141124572Y-64780502D01*
X141643084Y-64434043D01*
X142084043Y-63993084D01*
X142430502Y-63474572D01*
X142669147Y-62898432D01*
X142790807Y-62286805D01*
X142790807Y-61663195D01*
X142669147Y-61051568D01*
X142430502Y-60475428D01*
X142084043Y-59956916D01*
X141643084Y-59515957D01*
X141124572Y-59169498D01*
X140548432Y-58930853D01*
X139936805Y-58809193D01*
X139313195Y-58809193D01*
X138701568Y-58930853D01*
X138125428Y-59169498D01*
X137606916Y-59515957D01*
X137165957Y-59956916D01*
X136819498Y-60475428D01*
X136580853Y-61051568D01*
X136459193Y-61663195D01*
X135315760Y-61663195D01*
X135352385Y-61228273D01*
X135552146Y-60483457D01*
X135880646Y-59785786D01*
X136327497Y-59157321D01*
X136878581Y-58617914D01*
X137516476Y-58184622D01*
X138221013Y-57871141D01*
X138969940Y-57687374D01*
X139739561Y-57639136D01*
X140505567Y-57727949D01*
X140505567Y-57727949D01*
G37*
X140505567Y-57727949D02*
X141243741Y-57951006D01*
X141930743Y-58301256D01*
X142544865Y-58767629D01*
X143066697Y-59335386D01*
X143479736Y-59986570D01*
X143770935Y-60700614D01*
X143933081Y-61464334D01*
X143965069Y-61995992D01*
X143965097Y-62004001D01*
X143968010Y-62032686D01*
X143967809Y-62061521D01*
X143968709Y-62070692D01*
X144046741Y-62813113D01*
X144058766Y-62871695D01*
X144069977Y-62930468D01*
X144072641Y-62939290D01*
X144293389Y-63652414D01*
X144316564Y-63707544D01*
X144338978Y-63763023D01*
X144343305Y-63771159D01*
X144698363Y-64427825D01*
X144731808Y-64477409D01*
X144764568Y-64527472D01*
X144770392Y-64534613D01*
X145246235Y-65109808D01*
X145288690Y-65151967D01*
X145330534Y-65194697D01*
X145337634Y-65200571D01*
X145916137Y-65672387D01*
X145965948Y-65705481D01*
X146015320Y-65739287D01*
X146023426Y-65743669D01*
X146682555Y-66094135D01*
X146737896Y-66116944D01*
X146792843Y-66140495D01*
X146801646Y-66143220D01*
X147516294Y-66358984D01*
X147574974Y-66370603D01*
X147633484Y-66383040D01*
X147642649Y-66384003D01*
X148385595Y-66456850D01*
X148385598Y-66456850D01*
X148417581Y-66460000D01*
X155267721Y-66460000D01*
X155753893Y-66507670D01*
X156190498Y-66639489D01*
X156593185Y-66853600D01*
X156946612Y-67141848D01*
X157237327Y-67493261D01*
X157454242Y-67894439D01*
X157589106Y-68330113D01*
X157640001Y-68814353D01*
X157640001Y-88533842D01*
X156181167Y-87075008D01*
X156210706Y-87039014D01*
X156348599Y-86781034D01*
X156433513Y-86501111D01*
X156462185Y-86210000D01*
X156433513Y-85918889D01*
X156348599Y-85638966D01*
X156210706Y-85380986D01*
X156025134Y-85154866D01*
X155799014Y-84969294D01*
X155744209Y-84940000D01*
X155799014Y-84910706D01*
X156025134Y-84725134D01*
X156210706Y-84499014D01*
X156348599Y-84241034D01*
X156433513Y-83961111D01*
X156462185Y-83670000D01*
X156433513Y-83378889D01*
X156348599Y-83098966D01*
X156210706Y-82840986D01*
X156025134Y-82614866D01*
X155799014Y-82429294D01*
X155744209Y-82400000D01*
X155799014Y-82370706D01*
X156025134Y-82185134D01*
X156210706Y-81959014D01*
X156348599Y-81701034D01*
X156433513Y-81421111D01*
X156462185Y-81130000D01*
X156433513Y-80838889D01*
X156348599Y-80558966D01*
X156210706Y-80300986D01*
X156025134Y-80074866D01*
X155799014Y-79889294D01*
X155541034Y-79751401D01*
X155261111Y-79666487D01*
X155042950Y-79645000D01*
X154897050Y-79645000D01*
X154678889Y-79666487D01*
X154398966Y-79751401D01*
X154140986Y-79889294D01*
X153914866Y-80074866D01*
X153729294Y-80300986D01*
X153591401Y-80558966D01*
X153506487Y-80838889D01*
X153477815Y-81130000D01*
X153506487Y-81421111D01*
X153591401Y-81701034D01*
X153729294Y-81959014D01*
X153914866Y-82185134D01*
X154140986Y-82370706D01*
X154195791Y-82400000D01*
X154140986Y-82429294D01*
X153914866Y-82614866D01*
X153729294Y-82840986D01*
X153591401Y-83098966D01*
X153506487Y-83378889D01*
X153477815Y-83670000D01*
X153506487Y-83961111D01*
X153591401Y-84241034D01*
X153729294Y-84499014D01*
X153914866Y-84725134D01*
X154140986Y-84910706D01*
X154195791Y-84940000D01*
X154140986Y-84969294D01*
X153914866Y-85154866D01*
X153729294Y-85380986D01*
X153591401Y-85638966D01*
X153506487Y-85918889D01*
X153477815Y-86210000D01*
X153506487Y-86501111D01*
X153586537Y-86764999D01*
X152128712Y-86764999D01*
X152109775Y-86746062D01*
X151940257Y-86632794D01*
X151751899Y-86554773D01*
X151551940Y-86514999D01*
X151348062Y-86514999D01*
X151148103Y-86554773D01*
X150959745Y-86632794D01*
X150790227Y-86746062D01*
X150646064Y-86890225D01*
X150532796Y-87059743D01*
X150454775Y-87248101D01*
X150415001Y-87448060D01*
X150415001Y-87651938D01*
X150454775Y-87851897D01*
X150532796Y-88040255D01*
X150646064Y-88209773D01*
X150790227Y-88353936D01*
X150959745Y-88467204D01*
X151148103Y-88545225D01*
X151348062Y-88584999D01*
X151551940Y-88584999D01*
X151751899Y-88545225D01*
X151940257Y-88467204D01*
X152109775Y-88353936D01*
X152128712Y-88334999D01*
X153544069Y-88334999D01*
X153506487Y-88458889D01*
X153477815Y-88750000D01*
X153506487Y-89041111D01*
X153591401Y-89321034D01*
X153729294Y-89579014D01*
X153914866Y-89805134D01*
X154140986Y-89990706D01*
X154195791Y-90020000D01*
X154140986Y-90049294D01*
X153914866Y-90234866D01*
X153729294Y-90460986D01*
X153591401Y-90718966D01*
X153506487Y-90998889D01*
X153477815Y-91290000D01*
X153506487Y-91581111D01*
X153591401Y-91861034D01*
X153729294Y-92119014D01*
X153914866Y-92345134D01*
X154140986Y-92530706D01*
X154195791Y-92560000D01*
X154140986Y-92589294D01*
X153914866Y-92774866D01*
X153729294Y-93000986D01*
X153591401Y-93258966D01*
X153506487Y-93538889D01*
X153477815Y-93830000D01*
X153506487Y-94121111D01*
X153544069Y-94245001D01*
X153048710Y-94245001D01*
X153029773Y-94226064D01*
X152860255Y-94112796D01*
X152671897Y-94034775D01*
X152471938Y-93995001D01*
X152268060Y-93995001D01*
X152068101Y-94034775D01*
X151879743Y-94112796D01*
X151710225Y-94226064D01*
X151566062Y-94370227D01*
X151452794Y-94539745D01*
X151374773Y-94728103D01*
X151334999Y-94928062D01*
X151334999Y-95131940D01*
X151374773Y-95331899D01*
X151452794Y-95520257D01*
X151566062Y-95689775D01*
X151710225Y-95833938D01*
X151801489Y-95894919D01*
X151765000Y-96078363D01*
X151765000Y-96321637D01*
X151812460Y-96560236D01*
X151905557Y-96784992D01*
X152040713Y-96987267D01*
X152111674Y-97058228D01*
X152115000Y-97091997D01*
X152115000Y-97092005D01*
X152116988Y-97112188D01*
X152122500Y-97168152D01*
X152122501Y-104524021D01*
X152118219Y-104567500D01*
X152135305Y-104740990D01*
X152185912Y-104907813D01*
X152268090Y-105061559D01*
X152350968Y-105162546D01*
X152350971Y-105162549D01*
X152378684Y-105196317D01*
X152412451Y-105224029D01*
X153499388Y-106310967D01*
X153477815Y-106530000D01*
X153506487Y-106821111D01*
X153591401Y-107101034D01*
X153729294Y-107359014D01*
X153914866Y-107585134D01*
X154140986Y-107770706D01*
X154195791Y-107800000D01*
X154140986Y-107829294D01*
X153914866Y-108014866D01*
X153729294Y-108240986D01*
X153591401Y-108498966D01*
X153506487Y-108778889D01*
X153477815Y-109070000D01*
X153506487Y-109361111D01*
X153591401Y-109641034D01*
X153729294Y-109899014D01*
X153914866Y-110125134D01*
X154140986Y-110310706D01*
X154195791Y-110340000D01*
X154140986Y-110369294D01*
X153914866Y-110554866D01*
X153729294Y-110780986D01*
X153591401Y-111038966D01*
X153506487Y-111318889D01*
X153477815Y-111610000D01*
X153506487Y-111901111D01*
X153591401Y-112181034D01*
X153729294Y-112439014D01*
X153914866Y-112665134D01*
X153944687Y-112689607D01*
X153875820Y-112710498D01*
X153765506Y-112769463D01*
X153668815Y-112848815D01*
X153650856Y-112870698D01*
X151105001Y-110324844D01*
X151105001Y-95828555D01*
X151108798Y-95789999D01*
X151105001Y-95751443D01*
X151105001Y-95751438D01*
X151100319Y-95703898D01*
X151093643Y-95636112D01*
X151048755Y-95488139D01*
X151024018Y-95441859D01*
X150975863Y-95351766D01*
X150877765Y-95232235D01*
X150847811Y-95207652D01*
X150272869Y-94632710D01*
X150341680Y-94529727D01*
X150449853Y-94268574D01*
X150505000Y-93991335D01*
X150505000Y-93708665D01*
X150449853Y-93431426D01*
X150341680Y-93170273D01*
X150184637Y-92935241D01*
X149984759Y-92735363D01*
X149752241Y-92580000D01*
X149984759Y-92424637D01*
X150184637Y-92224759D01*
X150341680Y-91989727D01*
X150449853Y-91728574D01*
X150505000Y-91451335D01*
X150505000Y-91168665D01*
X150449853Y-90891426D01*
X150341680Y-90630273D01*
X150184637Y-90395241D01*
X149984759Y-90195363D01*
X149752241Y-90040000D01*
X149984759Y-89884637D01*
X150184637Y-89684759D01*
X150341680Y-89449727D01*
X150449853Y-89188574D01*
X150505000Y-88911335D01*
X150505000Y-88628665D01*
X150449853Y-88351426D01*
X150341680Y-88090273D01*
X150184637Y-87855241D01*
X149984759Y-87655363D01*
X149752241Y-87500000D01*
X149984759Y-87344637D01*
X150184637Y-87144759D01*
X150341680Y-86909727D01*
X150449853Y-86648574D01*
X150505000Y-86371335D01*
X150505000Y-86088665D01*
X150449853Y-85811426D01*
X150341680Y-85550273D01*
X150184637Y-85315241D01*
X149984759Y-85115363D01*
X149752241Y-84960000D01*
X149984759Y-84804637D01*
X150184637Y-84604759D01*
X150341680Y-84369727D01*
X150449853Y-84108574D01*
X150505000Y-83831335D01*
X150505000Y-83548665D01*
X150449853Y-83271426D01*
X150341680Y-83010273D01*
X150184637Y-82775241D01*
X149984759Y-82575363D01*
X149752241Y-82420000D01*
X149984759Y-82264637D01*
X150184637Y-82064759D01*
X150341680Y-81829727D01*
X150449853Y-81568574D01*
X150505000Y-81291335D01*
X150505000Y-81008665D01*
X150449853Y-80731426D01*
X150341680Y-80470273D01*
X150184637Y-80235241D01*
X149984759Y-80035363D01*
X149749727Y-79878320D01*
X149488574Y-79770147D01*
X149211335Y-79715000D01*
X148928665Y-79715000D01*
X148651426Y-79770147D01*
X148390273Y-79878320D01*
X148155241Y-80035363D01*
X147955363Y-80235241D01*
X147798320Y-80470273D01*
X147690147Y-80731426D01*
X147653634Y-80914988D01*
X142332970Y-75594325D01*
X142601252Y-75499157D01*
X142851355Y-75350178D01*
X143067588Y-75155269D01*
X143241641Y-74921920D01*
X143366825Y-74659099D01*
X143411476Y-74511890D01*
X143290155Y-74282000D01*
X142097000Y-74282000D01*
X142097000Y-74302000D01*
X141843000Y-74302000D01*
X141843000Y-74282000D01*
X141823000Y-74282000D01*
X141823000Y-74028000D01*
X141843000Y-74028000D01*
X141843000Y-74008000D01*
X142097000Y-74008000D01*
X142097000Y-74028000D01*
X143290155Y-74028000D01*
X143411476Y-73798110D01*
X143366825Y-73650901D01*
X143241641Y-73388080D01*
X143067588Y-73154731D01*
X142851355Y-72959822D01*
X142734477Y-72890201D01*
X142799014Y-72855706D01*
X143025134Y-72670134D01*
X143210706Y-72444014D01*
X143348599Y-72186034D01*
X143433513Y-71906111D01*
X143462185Y-71615000D01*
X143433513Y-71323889D01*
X143348599Y-71043966D01*
X143210706Y-70785986D01*
X143025134Y-70559866D01*
X142995313Y-70535393D01*
X143064180Y-70514502D01*
X143174494Y-70455537D01*
X143271185Y-70376185D01*
X143350537Y-70279494D01*
X143409502Y-70169180D01*
X143445812Y-70049482D01*
X143454625Y-69960000D01*
X146813446Y-69960000D01*
X146887733Y-70034287D01*
X147090008Y-70169443D01*
X147314764Y-70262540D01*
X147553363Y-70310000D01*
X147796637Y-70310000D01*
X148035236Y-70262540D01*
X148259992Y-70169443D01*
X148462267Y-70034287D01*
X148634287Y-69862267D01*
X148769443Y-69659992D01*
X148862540Y-69435236D01*
X148910000Y-69196637D01*
X148910000Y-68953363D01*
X148862540Y-68714764D01*
X148769443Y-68490008D01*
X148634287Y-68287733D01*
X148462267Y-68115713D01*
X148259992Y-67980557D01*
X148035236Y-67887460D01*
X147796637Y-67840000D01*
X147553363Y-67840000D01*
X147314764Y-67887460D01*
X147090008Y-67980557D01*
X146887733Y-68115713D01*
X146813446Y-68190000D01*
X143454625Y-68190000D01*
X143445812Y-68100518D01*
X143409502Y-67980820D01*
X143350537Y-67870506D01*
X143271185Y-67773815D01*
X143174494Y-67694463D01*
X143064180Y-67635498D01*
X142944482Y-67599188D01*
X142820000Y-67586928D01*
X141120000Y-67586928D01*
X140995518Y-67599188D01*
X140875820Y-67635498D01*
X140765506Y-67694463D01*
X140668815Y-67773815D01*
X140589463Y-67870506D01*
X140530498Y-67980820D01*
X140494188Y-68100518D01*
X140481928Y-68225000D01*
X140481928Y-69925000D01*
X140494188Y-70049482D01*
X140530498Y-70169180D01*
X140589463Y-70279494D01*
X140668815Y-70376185D01*
X140765506Y-70455537D01*
X140875820Y-70514502D01*
X140944687Y-70535393D01*
X140914866Y-70559866D01*
X140729294Y-70785986D01*
X140591401Y-71043966D01*
X140506487Y-71323889D01*
X140477815Y-71615000D01*
X140506487Y-71906111D01*
X140520974Y-71953869D01*
X140142189Y-72332654D01*
X140112235Y-72357237D01*
X140014137Y-72476769D01*
X139941245Y-72613142D01*
X139896358Y-72761115D01*
X139887944Y-72846537D01*
X138995276Y-71953869D01*
X139009763Y-71906111D01*
X139038435Y-71615000D01*
X139009763Y-71323889D01*
X138924849Y-71043966D01*
X138786956Y-70785986D01*
X138601384Y-70559866D01*
X138571563Y-70535393D01*
X138640430Y-70514502D01*
X138750744Y-70455537D01*
X138847435Y-70376185D01*
X138926787Y-70279494D01*
X138985752Y-70169180D01*
X139022062Y-70049482D01*
X139034322Y-69925000D01*
X139034322Y-68225000D01*
X139022062Y-68100518D01*
X138985752Y-67980820D01*
X138926787Y-67870506D01*
X138847435Y-67773815D01*
X138750744Y-67694463D01*
X138640430Y-67635498D01*
X138520732Y-67599188D01*
X138396250Y-67586928D01*
X136696250Y-67586928D01*
X136571768Y-67599188D01*
X136452070Y-67635498D01*
X136341756Y-67694463D01*
X136245065Y-67773815D01*
X136165713Y-67870506D01*
X136106748Y-67980820D01*
X136070438Y-68100518D01*
X136058178Y-68225000D01*
X136058178Y-69925000D01*
X136070438Y-70049482D01*
X136106748Y-70169180D01*
X136165713Y-70279494D01*
X136245065Y-70376185D01*
X136341756Y-70455537D01*
X136452070Y-70514502D01*
X136520937Y-70535393D01*
X136491116Y-70559866D01*
X136305544Y-70785986D01*
X136167651Y-71043966D01*
X136082737Y-71323889D01*
X136054065Y-71615000D01*
X136082737Y-71906111D01*
X136167651Y-72186034D01*
X136305544Y-72444014D01*
X136491116Y-72670134D01*
X136717236Y-72855706D01*
X136781773Y-72890201D01*
X136664895Y-72959822D01*
X136448662Y-73154731D01*
X136274609Y-73388080D01*
X136187862Y-73570204D01*
X134571526Y-71953869D01*
X134586013Y-71906111D01*
X134614685Y-71615000D01*
X134586013Y-71323889D01*
X134501099Y-71043966D01*
X134363206Y-70785986D01*
X134177634Y-70559866D01*
X134147813Y-70535393D01*
X134216680Y-70514502D01*
X134326994Y-70455537D01*
X134423685Y-70376185D01*
X134503037Y-70279494D01*
X134562002Y-70169180D01*
X134598312Y-70049482D01*
X134610572Y-69925000D01*
X134610572Y-68225000D01*
X134598312Y-68100518D01*
X134562002Y-67980820D01*
X134503037Y-67870506D01*
X134423685Y-67773815D01*
X134326994Y-67694463D01*
X134216680Y-67635498D01*
X134096982Y-67599188D01*
X133972500Y-67586928D01*
X132272500Y-67586928D01*
X132148018Y-67599188D01*
X132028320Y-67635498D01*
X131918006Y-67694463D01*
X131821315Y-67773815D01*
X131741963Y-67870506D01*
X131682998Y-67980820D01*
X131646688Y-68100518D01*
X131634428Y-68225000D01*
X131634428Y-69925000D01*
X131646688Y-70049482D01*
X131682998Y-70169180D01*
X131741963Y-70279494D01*
X131821315Y-70376185D01*
X131918006Y-70455537D01*
X132028320Y-70514502D01*
X132097187Y-70535393D01*
X132067366Y-70559866D01*
X131881794Y-70785986D01*
X131743901Y-71043966D01*
X131658987Y-71323889D01*
X131630315Y-71615000D01*
X131658987Y-71906111D01*
X131743901Y-72186034D01*
X131881794Y-72444014D01*
X132067366Y-72670134D01*
X132293486Y-72855706D01*
X132358023Y-72890201D01*
X132241145Y-72959822D01*
X132024912Y-73154731D01*
X131850859Y-73388080D01*
X131764111Y-73570204D01*
X130147776Y-71953869D01*
X130162263Y-71906111D01*
X130190935Y-71615000D01*
X130162263Y-71323889D01*
X130077349Y-71043966D01*
X129939456Y-70785986D01*
X129753884Y-70559866D01*
X129724063Y-70535393D01*
X129792930Y-70514502D01*
X129903244Y-70455537D01*
X129999935Y-70376185D01*
X130079287Y-70279494D01*
X130138252Y-70169180D01*
X130174562Y-70049482D01*
X130186822Y-69925000D01*
X130186822Y-68225000D01*
X130174562Y-68100518D01*
X130138252Y-67980820D01*
X130079287Y-67870506D01*
X129999935Y-67773815D01*
X129903244Y-67694463D01*
X129792930Y-67635498D01*
X129673232Y-67599188D01*
X129548750Y-67586928D01*
X127848750Y-67586928D01*
X127724268Y-67599188D01*
X127604570Y-67635498D01*
X127494256Y-67694463D01*
X127397565Y-67773815D01*
X127318213Y-67870506D01*
X127259248Y-67980820D01*
X127222938Y-68100518D01*
X127210678Y-68225000D01*
X127210678Y-69925000D01*
X127222938Y-70049482D01*
X127259248Y-70169180D01*
X127318213Y-70279494D01*
X127397565Y-70376185D01*
X127494256Y-70455537D01*
X127604570Y-70514502D01*
X127673437Y-70535393D01*
X127643616Y-70559866D01*
X127458044Y-70785986D01*
X127320151Y-71043966D01*
X127235237Y-71323889D01*
X127206565Y-71615000D01*
X127235237Y-71906111D01*
X127320151Y-72186034D01*
X127458044Y-72444014D01*
X127643616Y-72670134D01*
X127869736Y-72855706D01*
X127934273Y-72890201D01*
X127817395Y-72959822D01*
X127601162Y-73154731D01*
X127427109Y-73388080D01*
X127340362Y-73570204D01*
X125724026Y-71953869D01*
X125738513Y-71906111D01*
X125767185Y-71615000D01*
X125738513Y-71323889D01*
X125653599Y-71043966D01*
X125515706Y-70785986D01*
X125330134Y-70559866D01*
X125300313Y-70535393D01*
X125369180Y-70514502D01*
X125479494Y-70455537D01*
X125576185Y-70376185D01*
X125655537Y-70279494D01*
X125714502Y-70169180D01*
X125750812Y-70049482D01*
X125763072Y-69925000D01*
X125763072Y-68225000D01*
X125750812Y-68100518D01*
X125714502Y-67980820D01*
X125655537Y-67870506D01*
X125576185Y-67773815D01*
X125479494Y-67694463D01*
X125369180Y-67635498D01*
X125249482Y-67599188D01*
X125125000Y-67586928D01*
X123425000Y-67586928D01*
X123300518Y-67599188D01*
X123180820Y-67635498D01*
X123070506Y-67694463D01*
X122973815Y-67773815D01*
X122894463Y-67870506D01*
X122835498Y-67980820D01*
X122799188Y-68100518D01*
X122789482Y-68199065D01*
X122751510Y-68202805D01*
X122584687Y-68253411D01*
X122430941Y-68335589D01*
X122296183Y-68446183D01*
X122273645Y-68473646D01*
X122246182Y-68496184D01*
X122135588Y-68630943D01*
X122053410Y-68784689D01*
X122002804Y-68951512D01*
X121989999Y-69081525D01*
X121989999Y-69081532D01*
X121985718Y-69125001D01*
X121989999Y-69168470D01*
X121990000Y-74991556D01*
X121985718Y-75035035D01*
X122002804Y-75208525D01*
X122053411Y-75375348D01*
X122135589Y-75529094D01*
X122218467Y-75630081D01*
X122218470Y-75630084D01*
X122246183Y-75663852D01*
X122279951Y-75691565D01*
X123664946Y-77076560D01*
X123523102Y-77104774D01*
X123334744Y-77182795D01*
X123165226Y-77296063D01*
X123021063Y-77440226D01*
X122937692Y-77565000D01*
X122798061Y-77565000D01*
X122598102Y-77604774D01*
X122409744Y-77682795D01*
X122240226Y-77796063D01*
X122096063Y-77940226D01*
X121982795Y-78109744D01*
X121904774Y-78298102D01*
X121865000Y-78498061D01*
X121865000Y-78701939D01*
X121904774Y-78901898D01*
X121982795Y-79090256D01*
X122096063Y-79259774D01*
X122240226Y-79403937D01*
X122409744Y-79517205D01*
X122598102Y-79595226D01*
X122798061Y-79635000D01*
X122836347Y-79635000D01*
X122861766Y-79655861D01*
X122998139Y-79728753D01*
X123076945Y-79752658D01*
X123045506Y-79769463D01*
X122948815Y-79848815D01*
X122869463Y-79945506D01*
X122810498Y-80055820D01*
X122774188Y-80175518D01*
X122761928Y-80300000D01*
X122761928Y-82000000D01*
X122774188Y-82124482D01*
X122810498Y-82244180D01*
X122869463Y-82354494D01*
X122948815Y-82451185D01*
X123045506Y-82530537D01*
X123155820Y-82589502D01*
X123224687Y-82610393D01*
X123194866Y-82634866D01*
X123009294Y-82860986D01*
X122871401Y-83118966D01*
X122786487Y-83398889D01*
X122757815Y-83690000D01*
X122786487Y-83981111D01*
X122871401Y-84261034D01*
X123009294Y-84519014D01*
X123194866Y-84745134D01*
X123420986Y-84930706D01*
X123475791Y-84960000D01*
X123420986Y-84989294D01*
X123194866Y-85174866D01*
X123009294Y-85400986D01*
X122871401Y-85658966D01*
X122786487Y-85938889D01*
X122757815Y-86230000D01*
X122786487Y-86521111D01*
X122871401Y-86801034D01*
X123009294Y-87059014D01*
X123194866Y-87285134D01*
X123420986Y-87470706D01*
X123475791Y-87500000D01*
X123420986Y-87529294D01*
X123194866Y-87714866D01*
X123009294Y-87940986D01*
X122871401Y-88198966D01*
X122786487Y-88478889D01*
X122757815Y-88770000D01*
X122786487Y-89061111D01*
X122871401Y-89341034D01*
X123009294Y-89599014D01*
X123194866Y-89825134D01*
X123420986Y-90010706D01*
X123475791Y-90040000D01*
X123420986Y-90069294D01*
X123194866Y-90254866D01*
X123009294Y-90480986D01*
X122871401Y-90738966D01*
X122786487Y-91018889D01*
X122757815Y-91310000D01*
X122786487Y-91601111D01*
X122871401Y-91881034D01*
X123009294Y-92139014D01*
X123194866Y-92365134D01*
X123420986Y-92550706D01*
X123475791Y-92580000D01*
X123420986Y-92609294D01*
X123194866Y-92794866D01*
X123009294Y-93020986D01*
X122871401Y-93278966D01*
X122786487Y-93558889D01*
X122757815Y-93850000D01*
X122786487Y-94141111D01*
X122871401Y-94421034D01*
X122983356Y-94630487D01*
X122522184Y-95091659D01*
X122492236Y-95116237D01*
X122467658Y-95146185D01*
X122467654Y-95146189D01*
X122443461Y-95175669D01*
X122394138Y-95235768D01*
X122371754Y-95277646D01*
X122321245Y-95372142D01*
X122276358Y-95520115D01*
X122261202Y-95674001D01*
X122265000Y-95712564D01*
X122264999Y-102049843D01*
X121610000Y-102704843D01*
X121610000Y-68832279D01*
X121657670Y-68346107D01*
X121789489Y-67909502D01*
X122003600Y-67506815D01*
X122291848Y-67153388D01*
X122643261Y-66862673D01*
X123044439Y-66645758D01*
X123480113Y-66510894D01*
X123963824Y-66460055D01*
X130830010Y-66485113D01*
X130862594Y-66482024D01*
X130886521Y-66482191D01*
X130895692Y-66481291D01*
X131638113Y-66403259D01*
X131696695Y-66391234D01*
X131755468Y-66380023D01*
X131764290Y-66377359D01*
X132477414Y-66156611D01*
X132532544Y-66133436D01*
X132588023Y-66111022D01*
X132596159Y-66106695D01*
X133252825Y-65751637D01*
X133302409Y-65718192D01*
X133352472Y-65685432D01*
X133359613Y-65679608D01*
X133934808Y-65203765D01*
X133976967Y-65161310D01*
X134019697Y-65119466D01*
X134025571Y-65112366D01*
X134497387Y-64533863D01*
X134530481Y-64484052D01*
X134564287Y-64434680D01*
X134568669Y-64426574D01*
X134919135Y-63767445D01*
X134941944Y-63712104D01*
X134965495Y-63657157D01*
X134968220Y-63648354D01*
X135183984Y-62933706D01*
X135195603Y-62875026D01*
X135208040Y-62816516D01*
X135209003Y-62807351D01*
X135281850Y-62064405D01*
X135281850Y-62061584D01*
X135282734Y-62055383D01*
X135315760Y-61663195D01*
X136459193Y-61663195D01*
X136459193Y-62286805D01*
X136580853Y-62898432D01*
X136819498Y-63474572D01*
X137165957Y-63993084D01*
X137606916Y-64434043D01*
X138125428Y-64780502D01*
X138701568Y-65019147D01*
X139313195Y-65140807D01*
X139936805Y-65140807D01*
X140548432Y-65019147D01*
X141124572Y-64780502D01*
X141643084Y-64434043D01*
X142084043Y-63993084D01*
X142430502Y-63474572D01*
X142669147Y-62898432D01*
X142790807Y-62286805D01*
X142790807Y-61663195D01*
X142669147Y-61051568D01*
X142430502Y-60475428D01*
X142084043Y-59956916D01*
X141643084Y-59515957D01*
X141124572Y-59169498D01*
X140548432Y-58930853D01*
X139936805Y-58809193D01*
X139313195Y-58809193D01*
X138701568Y-58930853D01*
X138125428Y-59169498D01*
X137606916Y-59515957D01*
X137165957Y-59956916D01*
X136819498Y-60475428D01*
X136580853Y-61051568D01*
X136459193Y-61663195D01*
X135315760Y-61663195D01*
X135352385Y-61228273D01*
X135552146Y-60483457D01*
X135880646Y-59785786D01*
X136327497Y-59157321D01*
X136878581Y-58617914D01*
X137516476Y-58184622D01*
X138221013Y-57871141D01*
X138969940Y-57687374D01*
X139739561Y-57639136D01*
X140505567Y-57727949D01*
G36*
X155097000Y-101323000D02*
G01*
X155117000Y-101323000D01*
X155117000Y-101577000D01*
X155097000Y-101577000D01*
X155097000Y-103863000D01*
X155117000Y-103863000D01*
X155117000Y-104117000D01*
X155097000Y-104117000D01*
X155097000Y-104137000D01*
X154843000Y-104137000D01*
X154843000Y-104117000D01*
X154823000Y-104117000D01*
X154823000Y-103863000D01*
X154843000Y-103863000D01*
X154843000Y-101577000D01*
X154823000Y-101577000D01*
X154823000Y-101323000D01*
X154843000Y-101323000D01*
X154843000Y-101303000D01*
X155097000Y-101303000D01*
X155097000Y-101323000D01*
X155097000Y-101323000D01*
G37*
X155097000Y-101323000D02*
X155117000Y-101323000D01*
X155117000Y-101577000D01*
X155097000Y-101577000D01*
X155097000Y-103863000D01*
X155117000Y-103863000D01*
X155117000Y-104117000D01*
X155097000Y-104117000D01*
X155097000Y-104137000D01*
X154843000Y-104137000D01*
X154843000Y-104117000D01*
X154823000Y-104117000D01*
X154823000Y-103863000D01*
X154843000Y-103863000D01*
X154843000Y-101577000D01*
X154823000Y-101577000D01*
X154823000Y-101323000D01*
X154843000Y-101323000D01*
X154843000Y-101303000D01*
X155097000Y-101303000D01*
X155097000Y-101323000D01*
G36*
X149263748Y-101455858D02*
G01*
X149249605Y-101470000D01*
X149263748Y-101484143D01*
X149084143Y-101663748D01*
X149070000Y-101649605D01*
X149055858Y-101663748D01*
X148876253Y-101484143D01*
X148890395Y-101470000D01*
X148876253Y-101455858D01*
X149055858Y-101276253D01*
X149070000Y-101290395D01*
X149084143Y-101276253D01*
X149263748Y-101455858D01*
X149263748Y-101455858D01*
G37*
X149263748Y-101455858D02*
X149249605Y-101470000D01*
X149263748Y-101484143D01*
X149084143Y-101663748D01*
X149070000Y-101649605D01*
X149055858Y-101663748D01*
X148876253Y-101484143D01*
X148890395Y-101470000D01*
X148876253Y-101455858D01*
X149055858Y-101276253D01*
X149070000Y-101290395D01*
X149084143Y-101276253D01*
X149263748Y-101455858D01*
G36*
X128562664Y-99185858D02*
G01*
X128548521Y-99200000D01*
X128562664Y-99214143D01*
X128383059Y-99393748D01*
X128368916Y-99379605D01*
X128354774Y-99393748D01*
X128175169Y-99214143D01*
X128189311Y-99200000D01*
X128175169Y-99185858D01*
X128354774Y-99006253D01*
X128368916Y-99020395D01*
X128383059Y-99006253D01*
X128562664Y-99185858D01*
X128562664Y-99185858D01*
G37*
X128562664Y-99185858D02*
X128548521Y-99200000D01*
X128562664Y-99214143D01*
X128383059Y-99393748D01*
X128368916Y-99379605D01*
X128354774Y-99393748D01*
X128175169Y-99214143D01*
X128189311Y-99200000D01*
X128175169Y-99185858D01*
X128354774Y-99006253D01*
X128368916Y-99020395D01*
X128383059Y-99006253D01*
X128562664Y-99185858D01*
G36*
X132172313Y-77261617D02*
G01*
X131959592Y-77436192D01*
X131785017Y-77648913D01*
X131655296Y-77891605D01*
X131575414Y-78154940D01*
X131548441Y-78428800D01*
X131575414Y-78702660D01*
X131655296Y-78965995D01*
X131785017Y-79208687D01*
X131959592Y-79421408D01*
X132172313Y-79595983D01*
X132415005Y-79725704D01*
X132678340Y-79805586D01*
X132883575Y-79825800D01*
X133020825Y-79825800D01*
X133226060Y-79805586D01*
X133489395Y-79725704D01*
X133732087Y-79595983D01*
X133944808Y-79421408D01*
X134119383Y-79208687D01*
X134249104Y-78965995D01*
X134328986Y-78702660D01*
X134355959Y-78428800D01*
X134328986Y-78154940D01*
X134249104Y-77891605D01*
X134119383Y-77648913D01*
X133944808Y-77436192D01*
X133732087Y-77261617D01*
X133729062Y-77260000D01*
X138949844Y-77260000D01*
X141401770Y-79711928D01*
X140650000Y-79711928D01*
X140525518Y-79724188D01*
X140405820Y-79760498D01*
X140295506Y-79819463D01*
X140198815Y-79898815D01*
X140119463Y-79995506D01*
X140060498Y-80105820D01*
X140024188Y-80225518D01*
X140011928Y-80350000D01*
X140011928Y-81950000D01*
X140024188Y-82074482D01*
X140060498Y-82194180D01*
X140119463Y-82304494D01*
X140198815Y-82401185D01*
X140295506Y-82480537D01*
X140405820Y-82539502D01*
X140525518Y-82575812D01*
X140533961Y-82576643D01*
X140335363Y-82775241D01*
X140178320Y-83010273D01*
X140070147Y-83271426D01*
X140015000Y-83548665D01*
X140015000Y-83831335D01*
X140070147Y-84108574D01*
X140178320Y-84369727D01*
X140335363Y-84604759D01*
X140535241Y-84804637D01*
X140767759Y-84960000D01*
X140535241Y-85115363D01*
X140335363Y-85315241D01*
X140178320Y-85550273D01*
X140070147Y-85811426D01*
X140015000Y-86088665D01*
X140015000Y-86371335D01*
X140070147Y-86648574D01*
X140178320Y-86909727D01*
X140335363Y-87144759D01*
X140535241Y-87344637D01*
X140767759Y-87500000D01*
X140535241Y-87655363D01*
X140335363Y-87855241D01*
X140178320Y-88090273D01*
X140070147Y-88351426D01*
X140015000Y-88628665D01*
X140015000Y-88911335D01*
X140070147Y-89188574D01*
X140178320Y-89449727D01*
X140335363Y-89684759D01*
X140535241Y-89884637D01*
X140767759Y-90040000D01*
X140535241Y-90195363D01*
X140335363Y-90395241D01*
X140178320Y-90630273D01*
X140070147Y-90891426D01*
X140015000Y-91168665D01*
X140015000Y-91451335D01*
X140070147Y-91728574D01*
X140178320Y-91989727D01*
X140335363Y-92224759D01*
X140535241Y-92424637D01*
X140767759Y-92580000D01*
X140535241Y-92735363D01*
X140335363Y-92935241D01*
X140178320Y-93170273D01*
X140070147Y-93431426D01*
X140015000Y-93708665D01*
X140015000Y-93991335D01*
X140070147Y-94268574D01*
X140178320Y-94529727D01*
X140335363Y-94764759D01*
X140535241Y-94964637D01*
X140769128Y-95120915D01*
X140708486Y-95153329D01*
X140636903Y-95397298D01*
X141450000Y-96210395D01*
X142263097Y-95397298D01*
X142191514Y-95153329D01*
X142127008Y-95122806D01*
X142129727Y-95121680D01*
X142364759Y-94964637D01*
X142564637Y-94764759D01*
X142721680Y-94529727D01*
X142829853Y-94268574D01*
X142885000Y-93991335D01*
X142885000Y-93708665D01*
X142829853Y-93431426D01*
X142721680Y-93170273D01*
X142564637Y-92935241D01*
X142364759Y-92735363D01*
X142132241Y-92580000D01*
X142364759Y-92424637D01*
X142564637Y-92224759D01*
X142721680Y-91989727D01*
X142829853Y-91728574D01*
X142885000Y-91451335D01*
X142885000Y-91168665D01*
X142829853Y-90891426D01*
X142721680Y-90630273D01*
X142564637Y-90395241D01*
X142364759Y-90195363D01*
X142132241Y-90040000D01*
X142364759Y-89884637D01*
X142564637Y-89684759D01*
X142721680Y-89449727D01*
X142829853Y-89188574D01*
X142885000Y-88911335D01*
X142885000Y-88628665D01*
X142829853Y-88351426D01*
X142721680Y-88090273D01*
X142700933Y-88059224D01*
X143890000Y-86870157D01*
X143890001Y-98409841D01*
X142628686Y-97148527D01*
X142686671Y-97131514D01*
X142807571Y-96876004D01*
X142876300Y-96601816D01*
X142890217Y-96319488D01*
X142848787Y-96039870D01*
X142753603Y-95773708D01*
X142686671Y-95648486D01*
X142442702Y-95576903D01*
X141629605Y-96390000D01*
X141643748Y-96404143D01*
X141464143Y-96583748D01*
X141450000Y-96569605D01*
X141435858Y-96583748D01*
X141256253Y-96404143D01*
X141270395Y-96390000D01*
X140457298Y-95576903D01*
X140213329Y-95648486D01*
X140134737Y-95814582D01*
X139088343Y-94768188D01*
X139088343Y-94241897D01*
X139092140Y-94203344D01*
X139088343Y-94164791D01*
X139088343Y-89471895D01*
X139092140Y-89433342D01*
X139088343Y-89394789D01*
X139088343Y-89394782D01*
X139076984Y-89279456D01*
X139032097Y-89131483D01*
X138959205Y-88995110D01*
X138900752Y-88923886D01*
X138885688Y-88905530D01*
X138885685Y-88905527D01*
X138861107Y-88875579D01*
X138831160Y-88851002D01*
X138471353Y-88491196D01*
X138483513Y-88451111D01*
X138512185Y-88160000D01*
X138483513Y-87868889D01*
X138398599Y-87588966D01*
X138260706Y-87330986D01*
X138075134Y-87104866D01*
X137849014Y-86919294D01*
X137591034Y-86781401D01*
X137311111Y-86696487D01*
X137092950Y-86675000D01*
X136947050Y-86675000D01*
X136728889Y-86696487D01*
X136448966Y-86781401D01*
X136190986Y-86919294D01*
X135964866Y-87104866D01*
X135779294Y-87330986D01*
X135750000Y-87385791D01*
X135720706Y-87330986D01*
X135535134Y-87104866D01*
X135309014Y-86919294D01*
X135051034Y-86781401D01*
X134771111Y-86696487D01*
X134552950Y-86675000D01*
X134407050Y-86675000D01*
X134188889Y-86696487D01*
X133908966Y-86781401D01*
X133650986Y-86919294D01*
X133424866Y-87104866D01*
X133239294Y-87330986D01*
X133210000Y-87385791D01*
X133180706Y-87330986D01*
X132995134Y-87104866D01*
X132769014Y-86919294D01*
X132511034Y-86781401D01*
X132231111Y-86696487D01*
X132012950Y-86675000D01*
X131867050Y-86675000D01*
X131648889Y-86696487D01*
X131368966Y-86781401D01*
X131110986Y-86919294D01*
X130884866Y-87104866D01*
X130699294Y-87330986D01*
X130670000Y-87385791D01*
X130640706Y-87330986D01*
X130455134Y-87104866D01*
X130229014Y-86919294D01*
X129971034Y-86781401D01*
X129691111Y-86696487D01*
X129472950Y-86675000D01*
X129327050Y-86675000D01*
X129316000Y-86676088D01*
X129316000Y-86012119D01*
X129423608Y-85923808D01*
X129598183Y-85711087D01*
X129727904Y-85468395D01*
X129807786Y-85205060D01*
X129834759Y-84931200D01*
X131548441Y-84931200D01*
X131575414Y-85205060D01*
X131655296Y-85468395D01*
X131785017Y-85711087D01*
X131959592Y-85923808D01*
X132172313Y-86098383D01*
X132415005Y-86228104D01*
X132678340Y-86307986D01*
X132883575Y-86328200D01*
X133020825Y-86328200D01*
X133226060Y-86307986D01*
X133489395Y-86228104D01*
X133732087Y-86098383D01*
X133944808Y-85923808D01*
X134119383Y-85711087D01*
X134249104Y-85468395D01*
X134328986Y-85205060D01*
X134355959Y-84931200D01*
X134328986Y-84657340D01*
X134249104Y-84394005D01*
X134119383Y-84151313D01*
X133944808Y-83938592D01*
X133732087Y-83764017D01*
X133489395Y-83634296D01*
X133226060Y-83554414D01*
X133020825Y-83534200D01*
X132883575Y-83534200D01*
X132678340Y-83554414D01*
X132415005Y-83634296D01*
X132172313Y-83764017D01*
X131959592Y-83938592D01*
X131785017Y-84151313D01*
X131655296Y-84394005D01*
X131575414Y-84657340D01*
X131548441Y-84931200D01*
X129834759Y-84931200D01*
X129807786Y-84657340D01*
X129727904Y-84394005D01*
X129598183Y-84151313D01*
X129423608Y-83938592D01*
X129316000Y-83850281D01*
X129316000Y-80634505D01*
X129320281Y-80591036D01*
X129316000Y-80547567D01*
X129316000Y-80547559D01*
X129303195Y-80417546D01*
X129252589Y-80250723D01*
X129170411Y-80096977D01*
X129136634Y-80055820D01*
X129087532Y-79995989D01*
X129087530Y-79995987D01*
X129059817Y-79962219D01*
X129026051Y-79934508D01*
X128852379Y-79760836D01*
X128968195Y-79725704D01*
X129210887Y-79595983D01*
X129423608Y-79421408D01*
X129598183Y-79208687D01*
X129727904Y-78965995D01*
X129807786Y-78702660D01*
X129834759Y-78428800D01*
X129807786Y-78154940D01*
X129727904Y-77891605D01*
X129598183Y-77648913D01*
X129423608Y-77436192D01*
X129210887Y-77261617D01*
X129207862Y-77260000D01*
X132175338Y-77260000D01*
X132172313Y-77261617D01*
X132172313Y-77261617D01*
G37*
X132172313Y-77261617D02*
X131959592Y-77436192D01*
X131785017Y-77648913D01*
X131655296Y-77891605D01*
X131575414Y-78154940D01*
X131548441Y-78428800D01*
X131575414Y-78702660D01*
X131655296Y-78965995D01*
X131785017Y-79208687D01*
X131959592Y-79421408D01*
X132172313Y-79595983D01*
X132415005Y-79725704D01*
X132678340Y-79805586D01*
X132883575Y-79825800D01*
X133020825Y-79825800D01*
X133226060Y-79805586D01*
X133489395Y-79725704D01*
X133732087Y-79595983D01*
X133944808Y-79421408D01*
X134119383Y-79208687D01*
X134249104Y-78965995D01*
X134328986Y-78702660D01*
X134355959Y-78428800D01*
X134328986Y-78154940D01*
X134249104Y-77891605D01*
X134119383Y-77648913D01*
X133944808Y-77436192D01*
X133732087Y-77261617D01*
X133729062Y-77260000D01*
X138949844Y-77260000D01*
X141401770Y-79711928D01*
X140650000Y-79711928D01*
X140525518Y-79724188D01*
X140405820Y-79760498D01*
X140295506Y-79819463D01*
X140198815Y-79898815D01*
X140119463Y-79995506D01*
X140060498Y-80105820D01*
X140024188Y-80225518D01*
X140011928Y-80350000D01*
X140011928Y-81950000D01*
X140024188Y-82074482D01*
X140060498Y-82194180D01*
X140119463Y-82304494D01*
X140198815Y-82401185D01*
X140295506Y-82480537D01*
X140405820Y-82539502D01*
X140525518Y-82575812D01*
X140533961Y-82576643D01*
X140335363Y-82775241D01*
X140178320Y-83010273D01*
X140070147Y-83271426D01*
X140015000Y-83548665D01*
X140015000Y-83831335D01*
X140070147Y-84108574D01*
X140178320Y-84369727D01*
X140335363Y-84604759D01*
X140535241Y-84804637D01*
X140767759Y-84960000D01*
X140535241Y-85115363D01*
X140335363Y-85315241D01*
X140178320Y-85550273D01*
X140070147Y-85811426D01*
X140015000Y-86088665D01*
X140015000Y-86371335D01*
X140070147Y-86648574D01*
X140178320Y-86909727D01*
X140335363Y-87144759D01*
X140535241Y-87344637D01*
X140767759Y-87500000D01*
X140535241Y-87655363D01*
X140335363Y-87855241D01*
X140178320Y-88090273D01*
X140070147Y-88351426D01*
X140015000Y-88628665D01*
X140015000Y-88911335D01*
X140070147Y-89188574D01*
X140178320Y-89449727D01*
X140335363Y-89684759D01*
X140535241Y-89884637D01*
X140767759Y-90040000D01*
X140535241Y-90195363D01*
X140335363Y-90395241D01*
X140178320Y-90630273D01*
X140070147Y-90891426D01*
X140015000Y-91168665D01*
X140015000Y-91451335D01*
X140070147Y-91728574D01*
X140178320Y-91989727D01*
X140335363Y-92224759D01*
X140535241Y-92424637D01*
X140767759Y-92580000D01*
X140535241Y-92735363D01*
X140335363Y-92935241D01*
X140178320Y-93170273D01*
X140070147Y-93431426D01*
X140015000Y-93708665D01*
X140015000Y-93991335D01*
X140070147Y-94268574D01*
X140178320Y-94529727D01*
X140335363Y-94764759D01*
X140535241Y-94964637D01*
X140769128Y-95120915D01*
X140708486Y-95153329D01*
X140636903Y-95397298D01*
X141450000Y-96210395D01*
X142263097Y-95397298D01*
X142191514Y-95153329D01*
X142127008Y-95122806D01*
X142129727Y-95121680D01*
X142364759Y-94964637D01*
X142564637Y-94764759D01*
X142721680Y-94529727D01*
X142829853Y-94268574D01*
X142885000Y-93991335D01*
X142885000Y-93708665D01*
X142829853Y-93431426D01*
X142721680Y-93170273D01*
X142564637Y-92935241D01*
X142364759Y-92735363D01*
X142132241Y-92580000D01*
X142364759Y-92424637D01*
X142564637Y-92224759D01*
X142721680Y-91989727D01*
X142829853Y-91728574D01*
X142885000Y-91451335D01*
X142885000Y-91168665D01*
X142829853Y-90891426D01*
X142721680Y-90630273D01*
X142564637Y-90395241D01*
X142364759Y-90195363D01*
X142132241Y-90040000D01*
X142364759Y-89884637D01*
X142564637Y-89684759D01*
X142721680Y-89449727D01*
X142829853Y-89188574D01*
X142885000Y-88911335D01*
X142885000Y-88628665D01*
X142829853Y-88351426D01*
X142721680Y-88090273D01*
X142700933Y-88059224D01*
X143890000Y-86870157D01*
X143890001Y-98409841D01*
X142628686Y-97148527D01*
X142686671Y-97131514D01*
X142807571Y-96876004D01*
X142876300Y-96601816D01*
X142890217Y-96319488D01*
X142848787Y-96039870D01*
X142753603Y-95773708D01*
X142686671Y-95648486D01*
X142442702Y-95576903D01*
X141629605Y-96390000D01*
X141643748Y-96404143D01*
X141464143Y-96583748D01*
X141450000Y-96569605D01*
X141435858Y-96583748D01*
X141256253Y-96404143D01*
X141270395Y-96390000D01*
X140457298Y-95576903D01*
X140213329Y-95648486D01*
X140134737Y-95814582D01*
X139088343Y-94768188D01*
X139088343Y-94241897D01*
X139092140Y-94203344D01*
X139088343Y-94164791D01*
X139088343Y-89471895D01*
X139092140Y-89433342D01*
X139088343Y-89394789D01*
X139088343Y-89394782D01*
X139076984Y-89279456D01*
X139032097Y-89131483D01*
X138959205Y-88995110D01*
X138900752Y-88923886D01*
X138885688Y-88905530D01*
X138885685Y-88905527D01*
X138861107Y-88875579D01*
X138831160Y-88851002D01*
X138471353Y-88491196D01*
X138483513Y-88451111D01*
X138512185Y-88160000D01*
X138483513Y-87868889D01*
X138398599Y-87588966D01*
X138260706Y-87330986D01*
X138075134Y-87104866D01*
X137849014Y-86919294D01*
X137591034Y-86781401D01*
X137311111Y-86696487D01*
X137092950Y-86675000D01*
X136947050Y-86675000D01*
X136728889Y-86696487D01*
X136448966Y-86781401D01*
X136190986Y-86919294D01*
X135964866Y-87104866D01*
X135779294Y-87330986D01*
X135750000Y-87385791D01*
X135720706Y-87330986D01*
X135535134Y-87104866D01*
X135309014Y-86919294D01*
X135051034Y-86781401D01*
X134771111Y-86696487D01*
X134552950Y-86675000D01*
X134407050Y-86675000D01*
X134188889Y-86696487D01*
X133908966Y-86781401D01*
X133650986Y-86919294D01*
X133424866Y-87104866D01*
X133239294Y-87330986D01*
X133210000Y-87385791D01*
X133180706Y-87330986D01*
X132995134Y-87104866D01*
X132769014Y-86919294D01*
X132511034Y-86781401D01*
X132231111Y-86696487D01*
X132012950Y-86675000D01*
X131867050Y-86675000D01*
X131648889Y-86696487D01*
X131368966Y-86781401D01*
X131110986Y-86919294D01*
X130884866Y-87104866D01*
X130699294Y-87330986D01*
X130670000Y-87385791D01*
X130640706Y-87330986D01*
X130455134Y-87104866D01*
X130229014Y-86919294D01*
X129971034Y-86781401D01*
X129691111Y-86696487D01*
X129472950Y-86675000D01*
X129327050Y-86675000D01*
X129316000Y-86676088D01*
X129316000Y-86012119D01*
X129423608Y-85923808D01*
X129598183Y-85711087D01*
X129727904Y-85468395D01*
X129807786Y-85205060D01*
X129834759Y-84931200D01*
X131548441Y-84931200D01*
X131575414Y-85205060D01*
X131655296Y-85468395D01*
X131785017Y-85711087D01*
X131959592Y-85923808D01*
X132172313Y-86098383D01*
X132415005Y-86228104D01*
X132678340Y-86307986D01*
X132883575Y-86328200D01*
X133020825Y-86328200D01*
X133226060Y-86307986D01*
X133489395Y-86228104D01*
X133732087Y-86098383D01*
X133944808Y-85923808D01*
X134119383Y-85711087D01*
X134249104Y-85468395D01*
X134328986Y-85205060D01*
X134355959Y-84931200D01*
X134328986Y-84657340D01*
X134249104Y-84394005D01*
X134119383Y-84151313D01*
X133944808Y-83938592D01*
X133732087Y-83764017D01*
X133489395Y-83634296D01*
X133226060Y-83554414D01*
X133020825Y-83534200D01*
X132883575Y-83534200D01*
X132678340Y-83554414D01*
X132415005Y-83634296D01*
X132172313Y-83764017D01*
X131959592Y-83938592D01*
X131785017Y-84151313D01*
X131655296Y-84394005D01*
X131575414Y-84657340D01*
X131548441Y-84931200D01*
X129834759Y-84931200D01*
X129807786Y-84657340D01*
X129727904Y-84394005D01*
X129598183Y-84151313D01*
X129423608Y-83938592D01*
X129316000Y-83850281D01*
X129316000Y-80634505D01*
X129320281Y-80591036D01*
X129316000Y-80547567D01*
X129316000Y-80547559D01*
X129303195Y-80417546D01*
X129252589Y-80250723D01*
X129170411Y-80096977D01*
X129136634Y-80055820D01*
X129087532Y-79995989D01*
X129087530Y-79995987D01*
X129059817Y-79962219D01*
X129026051Y-79934508D01*
X128852379Y-79760836D01*
X128968195Y-79725704D01*
X129210887Y-79595983D01*
X129423608Y-79421408D01*
X129598183Y-79208687D01*
X129727904Y-78965995D01*
X129807786Y-78702660D01*
X129834759Y-78428800D01*
X129807786Y-78154940D01*
X129727904Y-77891605D01*
X129598183Y-77648913D01*
X129423608Y-77436192D01*
X129210887Y-77261617D01*
X129207862Y-77260000D01*
X132175338Y-77260000D01*
X132172313Y-77261617D01*
G36*
X124402000Y-74028000D02*
G01*
X124422000Y-74028000D01*
X124422000Y-74282000D01*
X124402000Y-74282000D01*
X124402000Y-74302000D01*
X124148000Y-74302000D01*
X124148000Y-74282000D01*
X124128000Y-74282000D01*
X124128000Y-74028000D01*
X124148000Y-74028000D01*
X124148000Y-74008000D01*
X124402000Y-74008000D01*
X124402000Y-74028000D01*
X124402000Y-74028000D01*
G37*
X124402000Y-74028000D02*
X124422000Y-74028000D01*
X124422000Y-74282000D01*
X124402000Y-74282000D01*
X124402000Y-74302000D01*
X124148000Y-74302000D01*
X124148000Y-74282000D01*
X124128000Y-74282000D01*
X124128000Y-74028000D01*
X124148000Y-74028000D01*
X124148000Y-74008000D01*
X124402000Y-74008000D01*
X124402000Y-74028000D01*
G36*
X137673250Y-74028000D02*
G01*
X137693250Y-74028000D01*
X137693250Y-74282000D01*
X137673250Y-74282000D01*
X137673250Y-74302000D01*
X137419250Y-74302000D01*
X137419250Y-74282000D01*
X137399250Y-74282000D01*
X137399250Y-74028000D01*
X137419250Y-74028000D01*
X137419250Y-74008000D01*
X137673250Y-74008000D01*
X137673250Y-74028000D01*
X137673250Y-74028000D01*
G37*
X137673250Y-74028000D02*
X137693250Y-74028000D01*
X137693250Y-74282000D01*
X137673250Y-74282000D01*
X137673250Y-74302000D01*
X137419250Y-74302000D01*
X137419250Y-74282000D01*
X137399250Y-74282000D01*
X137399250Y-74028000D01*
X137419250Y-74028000D01*
X137419250Y-74008000D01*
X137673250Y-74008000D01*
X137673250Y-74028000D01*
G36*
X133249500Y-74028000D02*
G01*
X133269500Y-74028000D01*
X133269500Y-74282000D01*
X133249500Y-74282000D01*
X133249500Y-74302000D01*
X132995500Y-74302000D01*
X132995500Y-74282000D01*
X132975500Y-74282000D01*
X132975500Y-74028000D01*
X132995500Y-74028000D01*
X132995500Y-74008000D01*
X133249500Y-74008000D01*
X133249500Y-74028000D01*
X133249500Y-74028000D01*
G37*
X133249500Y-74028000D02*
X133269500Y-74028000D01*
X133269500Y-74282000D01*
X133249500Y-74282000D01*
X133249500Y-74302000D01*
X132995500Y-74302000D01*
X132995500Y-74282000D01*
X132975500Y-74282000D01*
X132975500Y-74028000D01*
X132995500Y-74028000D01*
X132995500Y-74008000D01*
X133249500Y-74008000D01*
X133249500Y-74028000D01*
G36*
X128825750Y-74028000D02*
G01*
X128845750Y-74028000D01*
X128845750Y-74282000D01*
X128825750Y-74282000D01*
X128825750Y-74302000D01*
X128571750Y-74302000D01*
X128571750Y-74282000D01*
X128551750Y-74282000D01*
X128551750Y-74028000D01*
X128571750Y-74028000D01*
X128571750Y-74008000D01*
X128825750Y-74008000D01*
X128825750Y-74028000D01*
X128825750Y-74028000D01*
G37*
X128825750Y-74028000D02*
X128845750Y-74028000D01*
X128845750Y-74282000D01*
X128825750Y-74282000D01*
X128825750Y-74302000D01*
X128571750Y-74302000D01*
X128571750Y-74282000D01*
X128551750Y-74282000D01*
X128551750Y-74028000D01*
X128571750Y-74028000D01*
X128571750Y-74008000D01*
X128825750Y-74008000D01*
X128825750Y-74028000D01*
M02*
