G04 #@! TF.GenerationSoftware,KiCad,Pcbnew,(5.1.4-0-10_14)*
G04 #@! TF.CreationDate,2020-05-04T21:59:13+12:00*
G04 #@! TF.ProjectId,Hand Mesurement Device,48616e64-204d-4657-9375-72656d656e74,rev?*
G04 #@! TF.SameCoordinates,Original*
G04 #@! TF.FileFunction,Paste,Top*
G04 #@! TF.FilePolarity,Positive*
%FSLAX46Y46*%
G04 Gerber Fmt 4.6, Leading zero omitted, Abs format (unit mm)*
G04 Created by KiCad (PCBNEW (5.1.4-0-10_14)) date 2020-05-04 21:59:13*
%MOMM*%
%LPD*%
G04 APERTURE LIST*
%ADD10C,0.100000*%
%ADD11C,0.950000*%
%ADD12C,1.150000*%
%ADD13R,1.200000X0.600000*%
%ADD14R,2.200000X1.200000*%
%ADD15R,3.050000X2.750000*%
G04 APERTURE END LIST*
D10*
G36*
X150673279Y-75851144D02*
G01*
X150696334Y-75854563D01*
X150718943Y-75860227D01*
X150740887Y-75868079D01*
X150761957Y-75878044D01*
X150781948Y-75890026D01*
X150800668Y-75903910D01*
X150817938Y-75919562D01*
X150833590Y-75936832D01*
X150847474Y-75955552D01*
X150859456Y-75975543D01*
X150869421Y-75996613D01*
X150877273Y-76018557D01*
X150882937Y-76041166D01*
X150886356Y-76064221D01*
X150887500Y-76087500D01*
X150887500Y-76662500D01*
X150886356Y-76685779D01*
X150882937Y-76708834D01*
X150877273Y-76731443D01*
X150869421Y-76753387D01*
X150859456Y-76774457D01*
X150847474Y-76794448D01*
X150833590Y-76813168D01*
X150817938Y-76830438D01*
X150800668Y-76846090D01*
X150781948Y-76859974D01*
X150761957Y-76871956D01*
X150740887Y-76881921D01*
X150718943Y-76889773D01*
X150696334Y-76895437D01*
X150673279Y-76898856D01*
X150650000Y-76900000D01*
X150175000Y-76900000D01*
X150151721Y-76898856D01*
X150128666Y-76895437D01*
X150106057Y-76889773D01*
X150084113Y-76881921D01*
X150063043Y-76871956D01*
X150043052Y-76859974D01*
X150024332Y-76846090D01*
X150007062Y-76830438D01*
X149991410Y-76813168D01*
X149977526Y-76794448D01*
X149965544Y-76774457D01*
X149955579Y-76753387D01*
X149947727Y-76731443D01*
X149942063Y-76708834D01*
X149938644Y-76685779D01*
X149937500Y-76662500D01*
X149937500Y-76087500D01*
X149938644Y-76064221D01*
X149942063Y-76041166D01*
X149947727Y-76018557D01*
X149955579Y-75996613D01*
X149965544Y-75975543D01*
X149977526Y-75955552D01*
X149991410Y-75936832D01*
X150007062Y-75919562D01*
X150024332Y-75903910D01*
X150043052Y-75890026D01*
X150063043Y-75878044D01*
X150084113Y-75868079D01*
X150106057Y-75860227D01*
X150128666Y-75854563D01*
X150151721Y-75851144D01*
X150175000Y-75850000D01*
X150650000Y-75850000D01*
X150673279Y-75851144D01*
X150673279Y-75851144D01*
G37*
D11*
X150412500Y-76375000D03*
D10*
G36*
X150673279Y-74101144D02*
G01*
X150696334Y-74104563D01*
X150718943Y-74110227D01*
X150740887Y-74118079D01*
X150761957Y-74128044D01*
X150781948Y-74140026D01*
X150800668Y-74153910D01*
X150817938Y-74169562D01*
X150833590Y-74186832D01*
X150847474Y-74205552D01*
X150859456Y-74225543D01*
X150869421Y-74246613D01*
X150877273Y-74268557D01*
X150882937Y-74291166D01*
X150886356Y-74314221D01*
X150887500Y-74337500D01*
X150887500Y-74912500D01*
X150886356Y-74935779D01*
X150882937Y-74958834D01*
X150877273Y-74981443D01*
X150869421Y-75003387D01*
X150859456Y-75024457D01*
X150847474Y-75044448D01*
X150833590Y-75063168D01*
X150817938Y-75080438D01*
X150800668Y-75096090D01*
X150781948Y-75109974D01*
X150761957Y-75121956D01*
X150740887Y-75131921D01*
X150718943Y-75139773D01*
X150696334Y-75145437D01*
X150673279Y-75148856D01*
X150650000Y-75150000D01*
X150175000Y-75150000D01*
X150151721Y-75148856D01*
X150128666Y-75145437D01*
X150106057Y-75139773D01*
X150084113Y-75131921D01*
X150063043Y-75121956D01*
X150043052Y-75109974D01*
X150024332Y-75096090D01*
X150007062Y-75080438D01*
X149991410Y-75063168D01*
X149977526Y-75044448D01*
X149965544Y-75024457D01*
X149955579Y-75003387D01*
X149947727Y-74981443D01*
X149942063Y-74958834D01*
X149938644Y-74935779D01*
X149937500Y-74912500D01*
X149937500Y-74337500D01*
X149938644Y-74314221D01*
X149942063Y-74291166D01*
X149947727Y-74268557D01*
X149955579Y-74246613D01*
X149965544Y-74225543D01*
X149977526Y-74205552D01*
X149991410Y-74186832D01*
X150007062Y-74169562D01*
X150024332Y-74153910D01*
X150043052Y-74140026D01*
X150063043Y-74128044D01*
X150084113Y-74118079D01*
X150106057Y-74110227D01*
X150128666Y-74104563D01*
X150151721Y-74101144D01*
X150175000Y-74100000D01*
X150650000Y-74100000D01*
X150673279Y-74101144D01*
X150673279Y-74101144D01*
G37*
D11*
X150412500Y-74625000D03*
D10*
G36*
X134105779Y-116946144D02*
G01*
X134128834Y-116949563D01*
X134151443Y-116955227D01*
X134173387Y-116963079D01*
X134194457Y-116973044D01*
X134214448Y-116985026D01*
X134233168Y-116998910D01*
X134250438Y-117014562D01*
X134266090Y-117031832D01*
X134279974Y-117050552D01*
X134291956Y-117070543D01*
X134301921Y-117091613D01*
X134309773Y-117113557D01*
X134315437Y-117136166D01*
X134318856Y-117159221D01*
X134320000Y-117182500D01*
X134320000Y-117657500D01*
X134318856Y-117680779D01*
X134315437Y-117703834D01*
X134309773Y-117726443D01*
X134301921Y-117748387D01*
X134291956Y-117769457D01*
X134279974Y-117789448D01*
X134266090Y-117808168D01*
X134250438Y-117825438D01*
X134233168Y-117841090D01*
X134214448Y-117854974D01*
X134194457Y-117866956D01*
X134173387Y-117876921D01*
X134151443Y-117884773D01*
X134128834Y-117890437D01*
X134105779Y-117893856D01*
X134082500Y-117895000D01*
X133507500Y-117895000D01*
X133484221Y-117893856D01*
X133461166Y-117890437D01*
X133438557Y-117884773D01*
X133416613Y-117876921D01*
X133395543Y-117866956D01*
X133375552Y-117854974D01*
X133356832Y-117841090D01*
X133339562Y-117825438D01*
X133323910Y-117808168D01*
X133310026Y-117789448D01*
X133298044Y-117769457D01*
X133288079Y-117748387D01*
X133280227Y-117726443D01*
X133274563Y-117703834D01*
X133271144Y-117680779D01*
X133270000Y-117657500D01*
X133270000Y-117182500D01*
X133271144Y-117159221D01*
X133274563Y-117136166D01*
X133280227Y-117113557D01*
X133288079Y-117091613D01*
X133298044Y-117070543D01*
X133310026Y-117050552D01*
X133323910Y-117031832D01*
X133339562Y-117014562D01*
X133356832Y-116998910D01*
X133375552Y-116985026D01*
X133395543Y-116973044D01*
X133416613Y-116963079D01*
X133438557Y-116955227D01*
X133461166Y-116949563D01*
X133484221Y-116946144D01*
X133507500Y-116945000D01*
X134082500Y-116945000D01*
X134105779Y-116946144D01*
X134105779Y-116946144D01*
G37*
D11*
X133795000Y-117420000D03*
D10*
G36*
X135855779Y-116946144D02*
G01*
X135878834Y-116949563D01*
X135901443Y-116955227D01*
X135923387Y-116963079D01*
X135944457Y-116973044D01*
X135964448Y-116985026D01*
X135983168Y-116998910D01*
X136000438Y-117014562D01*
X136016090Y-117031832D01*
X136029974Y-117050552D01*
X136041956Y-117070543D01*
X136051921Y-117091613D01*
X136059773Y-117113557D01*
X136065437Y-117136166D01*
X136068856Y-117159221D01*
X136070000Y-117182500D01*
X136070000Y-117657500D01*
X136068856Y-117680779D01*
X136065437Y-117703834D01*
X136059773Y-117726443D01*
X136051921Y-117748387D01*
X136041956Y-117769457D01*
X136029974Y-117789448D01*
X136016090Y-117808168D01*
X136000438Y-117825438D01*
X135983168Y-117841090D01*
X135964448Y-117854974D01*
X135944457Y-117866956D01*
X135923387Y-117876921D01*
X135901443Y-117884773D01*
X135878834Y-117890437D01*
X135855779Y-117893856D01*
X135832500Y-117895000D01*
X135257500Y-117895000D01*
X135234221Y-117893856D01*
X135211166Y-117890437D01*
X135188557Y-117884773D01*
X135166613Y-117876921D01*
X135145543Y-117866956D01*
X135125552Y-117854974D01*
X135106832Y-117841090D01*
X135089562Y-117825438D01*
X135073910Y-117808168D01*
X135060026Y-117789448D01*
X135048044Y-117769457D01*
X135038079Y-117748387D01*
X135030227Y-117726443D01*
X135024563Y-117703834D01*
X135021144Y-117680779D01*
X135020000Y-117657500D01*
X135020000Y-117182500D01*
X135021144Y-117159221D01*
X135024563Y-117136166D01*
X135030227Y-117113557D01*
X135038079Y-117091613D01*
X135048044Y-117070543D01*
X135060026Y-117050552D01*
X135073910Y-117031832D01*
X135089562Y-117014562D01*
X135106832Y-116998910D01*
X135125552Y-116985026D01*
X135145543Y-116973044D01*
X135166613Y-116963079D01*
X135188557Y-116955227D01*
X135211166Y-116949563D01*
X135234221Y-116946144D01*
X135257500Y-116945000D01*
X135832500Y-116945000D01*
X135855779Y-116946144D01*
X135855779Y-116946144D01*
G37*
D11*
X135545000Y-117420000D03*
D10*
G36*
X137368879Y-82051144D02*
G01*
X137391934Y-82054563D01*
X137414543Y-82060227D01*
X137436487Y-82068079D01*
X137457557Y-82078044D01*
X137477548Y-82090026D01*
X137496268Y-82103910D01*
X137513538Y-82119562D01*
X137529190Y-82136832D01*
X137543074Y-82155552D01*
X137555056Y-82175543D01*
X137565021Y-82196613D01*
X137572873Y-82218557D01*
X137578537Y-82241166D01*
X137581956Y-82264221D01*
X137583100Y-82287500D01*
X137583100Y-82862500D01*
X137581956Y-82885779D01*
X137578537Y-82908834D01*
X137572873Y-82931443D01*
X137565021Y-82953387D01*
X137555056Y-82974457D01*
X137543074Y-82994448D01*
X137529190Y-83013168D01*
X137513538Y-83030438D01*
X137496268Y-83046090D01*
X137477548Y-83059974D01*
X137457557Y-83071956D01*
X137436487Y-83081921D01*
X137414543Y-83089773D01*
X137391934Y-83095437D01*
X137368879Y-83098856D01*
X137345600Y-83100000D01*
X136870600Y-83100000D01*
X136847321Y-83098856D01*
X136824266Y-83095437D01*
X136801657Y-83089773D01*
X136779713Y-83081921D01*
X136758643Y-83071956D01*
X136738652Y-83059974D01*
X136719932Y-83046090D01*
X136702662Y-83030438D01*
X136687010Y-83013168D01*
X136673126Y-82994448D01*
X136661144Y-82974457D01*
X136651179Y-82953387D01*
X136643327Y-82931443D01*
X136637663Y-82908834D01*
X136634244Y-82885779D01*
X136633100Y-82862500D01*
X136633100Y-82287500D01*
X136634244Y-82264221D01*
X136637663Y-82241166D01*
X136643327Y-82218557D01*
X136651179Y-82196613D01*
X136661144Y-82175543D01*
X136673126Y-82155552D01*
X136687010Y-82136832D01*
X136702662Y-82119562D01*
X136719932Y-82103910D01*
X136738652Y-82090026D01*
X136758643Y-82078044D01*
X136779713Y-82068079D01*
X136801657Y-82060227D01*
X136824266Y-82054563D01*
X136847321Y-82051144D01*
X136870600Y-82050000D01*
X137345600Y-82050000D01*
X137368879Y-82051144D01*
X137368879Y-82051144D01*
G37*
D11*
X137108100Y-82575000D03*
D10*
G36*
X137368879Y-80301144D02*
G01*
X137391934Y-80304563D01*
X137414543Y-80310227D01*
X137436487Y-80318079D01*
X137457557Y-80328044D01*
X137477548Y-80340026D01*
X137496268Y-80353910D01*
X137513538Y-80369562D01*
X137529190Y-80386832D01*
X137543074Y-80405552D01*
X137555056Y-80425543D01*
X137565021Y-80446613D01*
X137572873Y-80468557D01*
X137578537Y-80491166D01*
X137581956Y-80514221D01*
X137583100Y-80537500D01*
X137583100Y-81112500D01*
X137581956Y-81135779D01*
X137578537Y-81158834D01*
X137572873Y-81181443D01*
X137565021Y-81203387D01*
X137555056Y-81224457D01*
X137543074Y-81244448D01*
X137529190Y-81263168D01*
X137513538Y-81280438D01*
X137496268Y-81296090D01*
X137477548Y-81309974D01*
X137457557Y-81321956D01*
X137436487Y-81331921D01*
X137414543Y-81339773D01*
X137391934Y-81345437D01*
X137368879Y-81348856D01*
X137345600Y-81350000D01*
X136870600Y-81350000D01*
X136847321Y-81348856D01*
X136824266Y-81345437D01*
X136801657Y-81339773D01*
X136779713Y-81331921D01*
X136758643Y-81321956D01*
X136738652Y-81309974D01*
X136719932Y-81296090D01*
X136702662Y-81280438D01*
X136687010Y-81263168D01*
X136673126Y-81244448D01*
X136661144Y-81224457D01*
X136651179Y-81203387D01*
X136643327Y-81181443D01*
X136637663Y-81158834D01*
X136634244Y-81135779D01*
X136633100Y-81112500D01*
X136633100Y-80537500D01*
X136634244Y-80514221D01*
X136637663Y-80491166D01*
X136643327Y-80468557D01*
X136651179Y-80446613D01*
X136661144Y-80425543D01*
X136673126Y-80405552D01*
X136687010Y-80386832D01*
X136702662Y-80369562D01*
X136719932Y-80353910D01*
X136738652Y-80340026D01*
X136758643Y-80328044D01*
X136779713Y-80318079D01*
X136801657Y-80310227D01*
X136824266Y-80304563D01*
X136847321Y-80301144D01*
X136870600Y-80300000D01*
X137345600Y-80300000D01*
X137368879Y-80301144D01*
X137368879Y-80301144D01*
G37*
D11*
X137108100Y-80825000D03*
D10*
G36*
X152435779Y-74101144D02*
G01*
X152458834Y-74104563D01*
X152481443Y-74110227D01*
X152503387Y-74118079D01*
X152524457Y-74128044D01*
X152544448Y-74140026D01*
X152563168Y-74153910D01*
X152580438Y-74169562D01*
X152596090Y-74186832D01*
X152609974Y-74205552D01*
X152621956Y-74225543D01*
X152631921Y-74246613D01*
X152639773Y-74268557D01*
X152645437Y-74291166D01*
X152648856Y-74314221D01*
X152650000Y-74337500D01*
X152650000Y-74912500D01*
X152648856Y-74935779D01*
X152645437Y-74958834D01*
X152639773Y-74981443D01*
X152631921Y-75003387D01*
X152621956Y-75024457D01*
X152609974Y-75044448D01*
X152596090Y-75063168D01*
X152580438Y-75080438D01*
X152563168Y-75096090D01*
X152544448Y-75109974D01*
X152524457Y-75121956D01*
X152503387Y-75131921D01*
X152481443Y-75139773D01*
X152458834Y-75145437D01*
X152435779Y-75148856D01*
X152412500Y-75150000D01*
X151937500Y-75150000D01*
X151914221Y-75148856D01*
X151891166Y-75145437D01*
X151868557Y-75139773D01*
X151846613Y-75131921D01*
X151825543Y-75121956D01*
X151805552Y-75109974D01*
X151786832Y-75096090D01*
X151769562Y-75080438D01*
X151753910Y-75063168D01*
X151740026Y-75044448D01*
X151728044Y-75024457D01*
X151718079Y-75003387D01*
X151710227Y-74981443D01*
X151704563Y-74958834D01*
X151701144Y-74935779D01*
X151700000Y-74912500D01*
X151700000Y-74337500D01*
X151701144Y-74314221D01*
X151704563Y-74291166D01*
X151710227Y-74268557D01*
X151718079Y-74246613D01*
X151728044Y-74225543D01*
X151740026Y-74205552D01*
X151753910Y-74186832D01*
X151769562Y-74169562D01*
X151786832Y-74153910D01*
X151805552Y-74140026D01*
X151825543Y-74128044D01*
X151846613Y-74118079D01*
X151868557Y-74110227D01*
X151891166Y-74104563D01*
X151914221Y-74101144D01*
X151937500Y-74100000D01*
X152412500Y-74100000D01*
X152435779Y-74101144D01*
X152435779Y-74101144D01*
G37*
D11*
X152175000Y-74625000D03*
D10*
G36*
X152435779Y-75851144D02*
G01*
X152458834Y-75854563D01*
X152481443Y-75860227D01*
X152503387Y-75868079D01*
X152524457Y-75878044D01*
X152544448Y-75890026D01*
X152563168Y-75903910D01*
X152580438Y-75919562D01*
X152596090Y-75936832D01*
X152609974Y-75955552D01*
X152621956Y-75975543D01*
X152631921Y-75996613D01*
X152639773Y-76018557D01*
X152645437Y-76041166D01*
X152648856Y-76064221D01*
X152650000Y-76087500D01*
X152650000Y-76662500D01*
X152648856Y-76685779D01*
X152645437Y-76708834D01*
X152639773Y-76731443D01*
X152631921Y-76753387D01*
X152621956Y-76774457D01*
X152609974Y-76794448D01*
X152596090Y-76813168D01*
X152580438Y-76830438D01*
X152563168Y-76846090D01*
X152544448Y-76859974D01*
X152524457Y-76871956D01*
X152503387Y-76881921D01*
X152481443Y-76889773D01*
X152458834Y-76895437D01*
X152435779Y-76898856D01*
X152412500Y-76900000D01*
X151937500Y-76900000D01*
X151914221Y-76898856D01*
X151891166Y-76895437D01*
X151868557Y-76889773D01*
X151846613Y-76881921D01*
X151825543Y-76871956D01*
X151805552Y-76859974D01*
X151786832Y-76846090D01*
X151769562Y-76830438D01*
X151753910Y-76813168D01*
X151740026Y-76794448D01*
X151728044Y-76774457D01*
X151718079Y-76753387D01*
X151710227Y-76731443D01*
X151704563Y-76708834D01*
X151701144Y-76685779D01*
X151700000Y-76662500D01*
X151700000Y-76087500D01*
X151701144Y-76064221D01*
X151704563Y-76041166D01*
X151710227Y-76018557D01*
X151718079Y-75996613D01*
X151728044Y-75975543D01*
X151740026Y-75955552D01*
X151753910Y-75936832D01*
X151769562Y-75919562D01*
X151786832Y-75903910D01*
X151805552Y-75890026D01*
X151825543Y-75878044D01*
X151846613Y-75868079D01*
X151868557Y-75860227D01*
X151891166Y-75854563D01*
X151914221Y-75851144D01*
X151937500Y-75850000D01*
X152412500Y-75850000D01*
X152435779Y-75851144D01*
X152435779Y-75851144D01*
G37*
D11*
X152175000Y-76375000D03*
D10*
G36*
X148910779Y-75851144D02*
G01*
X148933834Y-75854563D01*
X148956443Y-75860227D01*
X148978387Y-75868079D01*
X148999457Y-75878044D01*
X149019448Y-75890026D01*
X149038168Y-75903910D01*
X149055438Y-75919562D01*
X149071090Y-75936832D01*
X149084974Y-75955552D01*
X149096956Y-75975543D01*
X149106921Y-75996613D01*
X149114773Y-76018557D01*
X149120437Y-76041166D01*
X149123856Y-76064221D01*
X149125000Y-76087500D01*
X149125000Y-76662500D01*
X149123856Y-76685779D01*
X149120437Y-76708834D01*
X149114773Y-76731443D01*
X149106921Y-76753387D01*
X149096956Y-76774457D01*
X149084974Y-76794448D01*
X149071090Y-76813168D01*
X149055438Y-76830438D01*
X149038168Y-76846090D01*
X149019448Y-76859974D01*
X148999457Y-76871956D01*
X148978387Y-76881921D01*
X148956443Y-76889773D01*
X148933834Y-76895437D01*
X148910779Y-76898856D01*
X148887500Y-76900000D01*
X148412500Y-76900000D01*
X148389221Y-76898856D01*
X148366166Y-76895437D01*
X148343557Y-76889773D01*
X148321613Y-76881921D01*
X148300543Y-76871956D01*
X148280552Y-76859974D01*
X148261832Y-76846090D01*
X148244562Y-76830438D01*
X148228910Y-76813168D01*
X148215026Y-76794448D01*
X148203044Y-76774457D01*
X148193079Y-76753387D01*
X148185227Y-76731443D01*
X148179563Y-76708834D01*
X148176144Y-76685779D01*
X148175000Y-76662500D01*
X148175000Y-76087500D01*
X148176144Y-76064221D01*
X148179563Y-76041166D01*
X148185227Y-76018557D01*
X148193079Y-75996613D01*
X148203044Y-75975543D01*
X148215026Y-75955552D01*
X148228910Y-75936832D01*
X148244562Y-75919562D01*
X148261832Y-75903910D01*
X148280552Y-75890026D01*
X148300543Y-75878044D01*
X148321613Y-75868079D01*
X148343557Y-75860227D01*
X148366166Y-75854563D01*
X148389221Y-75851144D01*
X148412500Y-75850000D01*
X148887500Y-75850000D01*
X148910779Y-75851144D01*
X148910779Y-75851144D01*
G37*
D11*
X148650000Y-76375000D03*
D10*
G36*
X148910779Y-74101144D02*
G01*
X148933834Y-74104563D01*
X148956443Y-74110227D01*
X148978387Y-74118079D01*
X148999457Y-74128044D01*
X149019448Y-74140026D01*
X149038168Y-74153910D01*
X149055438Y-74169562D01*
X149071090Y-74186832D01*
X149084974Y-74205552D01*
X149096956Y-74225543D01*
X149106921Y-74246613D01*
X149114773Y-74268557D01*
X149120437Y-74291166D01*
X149123856Y-74314221D01*
X149125000Y-74337500D01*
X149125000Y-74912500D01*
X149123856Y-74935779D01*
X149120437Y-74958834D01*
X149114773Y-74981443D01*
X149106921Y-75003387D01*
X149096956Y-75024457D01*
X149084974Y-75044448D01*
X149071090Y-75063168D01*
X149055438Y-75080438D01*
X149038168Y-75096090D01*
X149019448Y-75109974D01*
X148999457Y-75121956D01*
X148978387Y-75131921D01*
X148956443Y-75139773D01*
X148933834Y-75145437D01*
X148910779Y-75148856D01*
X148887500Y-75150000D01*
X148412500Y-75150000D01*
X148389221Y-75148856D01*
X148366166Y-75145437D01*
X148343557Y-75139773D01*
X148321613Y-75131921D01*
X148300543Y-75121956D01*
X148280552Y-75109974D01*
X148261832Y-75096090D01*
X148244562Y-75080438D01*
X148228910Y-75063168D01*
X148215026Y-75044448D01*
X148203044Y-75024457D01*
X148193079Y-75003387D01*
X148185227Y-74981443D01*
X148179563Y-74958834D01*
X148176144Y-74935779D01*
X148175000Y-74912500D01*
X148175000Y-74337500D01*
X148176144Y-74314221D01*
X148179563Y-74291166D01*
X148185227Y-74268557D01*
X148193079Y-74246613D01*
X148203044Y-74225543D01*
X148215026Y-74205552D01*
X148228910Y-74186832D01*
X148244562Y-74169562D01*
X148261832Y-74153910D01*
X148280552Y-74140026D01*
X148300543Y-74128044D01*
X148321613Y-74118079D01*
X148343557Y-74110227D01*
X148366166Y-74104563D01*
X148389221Y-74101144D01*
X148412500Y-74100000D01*
X148887500Y-74100000D01*
X148910779Y-74101144D01*
X148910779Y-74101144D01*
G37*
D11*
X148650000Y-74625000D03*
D10*
G36*
X135844505Y-126101204D02*
G01*
X135868773Y-126104804D01*
X135892572Y-126110765D01*
X135915671Y-126119030D01*
X135937850Y-126129520D01*
X135958893Y-126142132D01*
X135978599Y-126156747D01*
X135996777Y-126173223D01*
X136013253Y-126191401D01*
X136027868Y-126211107D01*
X136040480Y-126232150D01*
X136050970Y-126254329D01*
X136059235Y-126277428D01*
X136065196Y-126301227D01*
X136068796Y-126325495D01*
X136070000Y-126349999D01*
X136070000Y-127250001D01*
X136068796Y-127274505D01*
X136065196Y-127298773D01*
X136059235Y-127322572D01*
X136050970Y-127345671D01*
X136040480Y-127367850D01*
X136027868Y-127388893D01*
X136013253Y-127408599D01*
X135996777Y-127426777D01*
X135978599Y-127443253D01*
X135958893Y-127457868D01*
X135937850Y-127470480D01*
X135915671Y-127480970D01*
X135892572Y-127489235D01*
X135868773Y-127495196D01*
X135844505Y-127498796D01*
X135820001Y-127500000D01*
X135169999Y-127500000D01*
X135145495Y-127498796D01*
X135121227Y-127495196D01*
X135097428Y-127489235D01*
X135074329Y-127480970D01*
X135052150Y-127470480D01*
X135031107Y-127457868D01*
X135011401Y-127443253D01*
X134993223Y-127426777D01*
X134976747Y-127408599D01*
X134962132Y-127388893D01*
X134949520Y-127367850D01*
X134939030Y-127345671D01*
X134930765Y-127322572D01*
X134924804Y-127298773D01*
X134921204Y-127274505D01*
X134920000Y-127250001D01*
X134920000Y-126349999D01*
X134921204Y-126325495D01*
X134924804Y-126301227D01*
X134930765Y-126277428D01*
X134939030Y-126254329D01*
X134949520Y-126232150D01*
X134962132Y-126211107D01*
X134976747Y-126191401D01*
X134993223Y-126173223D01*
X135011401Y-126156747D01*
X135031107Y-126142132D01*
X135052150Y-126129520D01*
X135074329Y-126119030D01*
X135097428Y-126110765D01*
X135121227Y-126104804D01*
X135145495Y-126101204D01*
X135169999Y-126100000D01*
X135820001Y-126100000D01*
X135844505Y-126101204D01*
X135844505Y-126101204D01*
G37*
D12*
X135495000Y-126800000D03*
D10*
G36*
X133794505Y-126101204D02*
G01*
X133818773Y-126104804D01*
X133842572Y-126110765D01*
X133865671Y-126119030D01*
X133887850Y-126129520D01*
X133908893Y-126142132D01*
X133928599Y-126156747D01*
X133946777Y-126173223D01*
X133963253Y-126191401D01*
X133977868Y-126211107D01*
X133990480Y-126232150D01*
X134000970Y-126254329D01*
X134009235Y-126277428D01*
X134015196Y-126301227D01*
X134018796Y-126325495D01*
X134020000Y-126349999D01*
X134020000Y-127250001D01*
X134018796Y-127274505D01*
X134015196Y-127298773D01*
X134009235Y-127322572D01*
X134000970Y-127345671D01*
X133990480Y-127367850D01*
X133977868Y-127388893D01*
X133963253Y-127408599D01*
X133946777Y-127426777D01*
X133928599Y-127443253D01*
X133908893Y-127457868D01*
X133887850Y-127470480D01*
X133865671Y-127480970D01*
X133842572Y-127489235D01*
X133818773Y-127495196D01*
X133794505Y-127498796D01*
X133770001Y-127500000D01*
X133119999Y-127500000D01*
X133095495Y-127498796D01*
X133071227Y-127495196D01*
X133047428Y-127489235D01*
X133024329Y-127480970D01*
X133002150Y-127470480D01*
X132981107Y-127457868D01*
X132961401Y-127443253D01*
X132943223Y-127426777D01*
X132926747Y-127408599D01*
X132912132Y-127388893D01*
X132899520Y-127367850D01*
X132889030Y-127345671D01*
X132880765Y-127322572D01*
X132874804Y-127298773D01*
X132871204Y-127274505D01*
X132870000Y-127250001D01*
X132870000Y-126349999D01*
X132871204Y-126325495D01*
X132874804Y-126301227D01*
X132880765Y-126277428D01*
X132889030Y-126254329D01*
X132899520Y-126232150D01*
X132912132Y-126211107D01*
X132926747Y-126191401D01*
X132943223Y-126173223D01*
X132961401Y-126156747D01*
X132981107Y-126142132D01*
X133002150Y-126129520D01*
X133024329Y-126119030D01*
X133047428Y-126110765D01*
X133071227Y-126104804D01*
X133095495Y-126101204D01*
X133119999Y-126100000D01*
X133770001Y-126100000D01*
X133794505Y-126101204D01*
X133794505Y-126101204D01*
G37*
D12*
X133445000Y-126800000D03*
D13*
X148785500Y-70275000D03*
X148785500Y-71375000D03*
X148785500Y-72475000D03*
X151785500Y-70275000D03*
X151785500Y-72475000D03*
X151785500Y-71375000D03*
D10*
G36*
X152035779Y-96576144D02*
G01*
X152058834Y-96579563D01*
X152081443Y-96585227D01*
X152103387Y-96593079D01*
X152124457Y-96603044D01*
X152144448Y-96615026D01*
X152163168Y-96628910D01*
X152180438Y-96644562D01*
X152196090Y-96661832D01*
X152209974Y-96680552D01*
X152221956Y-96700543D01*
X152231921Y-96721613D01*
X152239773Y-96743557D01*
X152245437Y-96766166D01*
X152248856Y-96789221D01*
X152250000Y-96812500D01*
X152250000Y-97387500D01*
X152248856Y-97410779D01*
X152245437Y-97433834D01*
X152239773Y-97456443D01*
X152231921Y-97478387D01*
X152221956Y-97499457D01*
X152209974Y-97519448D01*
X152196090Y-97538168D01*
X152180438Y-97555438D01*
X152163168Y-97571090D01*
X152144448Y-97584974D01*
X152124457Y-97596956D01*
X152103387Y-97606921D01*
X152081443Y-97614773D01*
X152058834Y-97620437D01*
X152035779Y-97623856D01*
X152012500Y-97625000D01*
X151537500Y-97625000D01*
X151514221Y-97623856D01*
X151491166Y-97620437D01*
X151468557Y-97614773D01*
X151446613Y-97606921D01*
X151425543Y-97596956D01*
X151405552Y-97584974D01*
X151386832Y-97571090D01*
X151369562Y-97555438D01*
X151353910Y-97538168D01*
X151340026Y-97519448D01*
X151328044Y-97499457D01*
X151318079Y-97478387D01*
X151310227Y-97456443D01*
X151304563Y-97433834D01*
X151301144Y-97410779D01*
X151300000Y-97387500D01*
X151300000Y-96812500D01*
X151301144Y-96789221D01*
X151304563Y-96766166D01*
X151310227Y-96743557D01*
X151318079Y-96721613D01*
X151328044Y-96700543D01*
X151340026Y-96680552D01*
X151353910Y-96661832D01*
X151369562Y-96644562D01*
X151386832Y-96628910D01*
X151405552Y-96615026D01*
X151425543Y-96603044D01*
X151446613Y-96593079D01*
X151468557Y-96585227D01*
X151491166Y-96579563D01*
X151514221Y-96576144D01*
X151537500Y-96575000D01*
X152012500Y-96575000D01*
X152035779Y-96576144D01*
X152035779Y-96576144D01*
G37*
D11*
X151775000Y-97100000D03*
D10*
G36*
X152035779Y-98326144D02*
G01*
X152058834Y-98329563D01*
X152081443Y-98335227D01*
X152103387Y-98343079D01*
X152124457Y-98353044D01*
X152144448Y-98365026D01*
X152163168Y-98378910D01*
X152180438Y-98394562D01*
X152196090Y-98411832D01*
X152209974Y-98430552D01*
X152221956Y-98450543D01*
X152231921Y-98471613D01*
X152239773Y-98493557D01*
X152245437Y-98516166D01*
X152248856Y-98539221D01*
X152250000Y-98562500D01*
X152250000Y-99137500D01*
X152248856Y-99160779D01*
X152245437Y-99183834D01*
X152239773Y-99206443D01*
X152231921Y-99228387D01*
X152221956Y-99249457D01*
X152209974Y-99269448D01*
X152196090Y-99288168D01*
X152180438Y-99305438D01*
X152163168Y-99321090D01*
X152144448Y-99334974D01*
X152124457Y-99346956D01*
X152103387Y-99356921D01*
X152081443Y-99364773D01*
X152058834Y-99370437D01*
X152035779Y-99373856D01*
X152012500Y-99375000D01*
X151537500Y-99375000D01*
X151514221Y-99373856D01*
X151491166Y-99370437D01*
X151468557Y-99364773D01*
X151446613Y-99356921D01*
X151425543Y-99346956D01*
X151405552Y-99334974D01*
X151386832Y-99321090D01*
X151369562Y-99305438D01*
X151353910Y-99288168D01*
X151340026Y-99269448D01*
X151328044Y-99249457D01*
X151318079Y-99228387D01*
X151310227Y-99206443D01*
X151304563Y-99183834D01*
X151301144Y-99160779D01*
X151300000Y-99137500D01*
X151300000Y-98562500D01*
X151301144Y-98539221D01*
X151304563Y-98516166D01*
X151310227Y-98493557D01*
X151318079Y-98471613D01*
X151328044Y-98450543D01*
X151340026Y-98430552D01*
X151353910Y-98411832D01*
X151369562Y-98394562D01*
X151386832Y-98378910D01*
X151405552Y-98365026D01*
X151425543Y-98353044D01*
X151446613Y-98343079D01*
X151468557Y-98335227D01*
X151491166Y-98329563D01*
X151514221Y-98326144D01*
X151537500Y-98325000D01*
X152012500Y-98325000D01*
X152035779Y-98326144D01*
X152035779Y-98326144D01*
G37*
D11*
X151775000Y-98850000D03*
D14*
X134970000Y-124350000D03*
X134970000Y-119790000D03*
D15*
X126995000Y-120545000D03*
X130345000Y-123595000D03*
X126995000Y-123595000D03*
X130345000Y-120545000D03*
M02*
