G04 #@! TF.GenerationSoftware,KiCad,Pcbnew,(5.1.4-0-10_14)*
G04 #@! TF.CreationDate,2020-05-04T21:59:13+12:00*
G04 #@! TF.ProjectId,Hand Mesurement Device,48616e64-204d-4657-9375-72656d656e74,rev?*
G04 #@! TF.SameCoordinates,Original*
G04 #@! TF.FileFunction,Paste,Bot*
G04 #@! TF.FilePolarity,Positive*
%FSLAX46Y46*%
G04 Gerber Fmt 4.6, Leading zero omitted, Abs format (unit mm)*
G04 Created by KiCad (PCBNEW (5.1.4-0-10_14)) date 2020-05-04 21:59:13*
%MOMM*%
%LPD*%
G04 APERTURE LIST*
%ADD10C,0.100000*%
%ADD11C,1.150000*%
%ADD12C,0.950000*%
%ADD13R,3.800000X2.000000*%
%ADD14R,1.500000X2.000000*%
G04 APERTURE END LIST*
D10*
G36*
X135954506Y-115151204D02*
G01*
X135978774Y-115154804D01*
X136002573Y-115160765D01*
X136025672Y-115169030D01*
X136047851Y-115179520D01*
X136068894Y-115192132D01*
X136088600Y-115206747D01*
X136106778Y-115223223D01*
X136123254Y-115241401D01*
X136137869Y-115261107D01*
X136150481Y-115282150D01*
X136160971Y-115304329D01*
X136169236Y-115327428D01*
X136175197Y-115351227D01*
X136178797Y-115375495D01*
X136180001Y-115399999D01*
X136180001Y-116300001D01*
X136178797Y-116324505D01*
X136175197Y-116348773D01*
X136169236Y-116372572D01*
X136160971Y-116395671D01*
X136150481Y-116417850D01*
X136137869Y-116438893D01*
X136123254Y-116458599D01*
X136106778Y-116476777D01*
X136088600Y-116493253D01*
X136068894Y-116507868D01*
X136047851Y-116520480D01*
X136025672Y-116530970D01*
X136002573Y-116539235D01*
X135978774Y-116545196D01*
X135954506Y-116548796D01*
X135930002Y-116550000D01*
X135280000Y-116550000D01*
X135255496Y-116548796D01*
X135231228Y-116545196D01*
X135207429Y-116539235D01*
X135184330Y-116530970D01*
X135162151Y-116520480D01*
X135141108Y-116507868D01*
X135121402Y-116493253D01*
X135103224Y-116476777D01*
X135086748Y-116458599D01*
X135072133Y-116438893D01*
X135059521Y-116417850D01*
X135049031Y-116395671D01*
X135040766Y-116372572D01*
X135034805Y-116348773D01*
X135031205Y-116324505D01*
X135030001Y-116300001D01*
X135030001Y-115399999D01*
X135031205Y-115375495D01*
X135034805Y-115351227D01*
X135040766Y-115327428D01*
X135049031Y-115304329D01*
X135059521Y-115282150D01*
X135072133Y-115261107D01*
X135086748Y-115241401D01*
X135103224Y-115223223D01*
X135121402Y-115206747D01*
X135141108Y-115192132D01*
X135162151Y-115179520D01*
X135184330Y-115169030D01*
X135207429Y-115160765D01*
X135231228Y-115154804D01*
X135255496Y-115151204D01*
X135280000Y-115150000D01*
X135930002Y-115150000D01*
X135954506Y-115151204D01*
X135954506Y-115151204D01*
G37*
D11*
X135605001Y-115850000D03*
D10*
G36*
X138004506Y-115151204D02*
G01*
X138028774Y-115154804D01*
X138052573Y-115160765D01*
X138075672Y-115169030D01*
X138097851Y-115179520D01*
X138118894Y-115192132D01*
X138138600Y-115206747D01*
X138156778Y-115223223D01*
X138173254Y-115241401D01*
X138187869Y-115261107D01*
X138200481Y-115282150D01*
X138210971Y-115304329D01*
X138219236Y-115327428D01*
X138225197Y-115351227D01*
X138228797Y-115375495D01*
X138230001Y-115399999D01*
X138230001Y-116300001D01*
X138228797Y-116324505D01*
X138225197Y-116348773D01*
X138219236Y-116372572D01*
X138210971Y-116395671D01*
X138200481Y-116417850D01*
X138187869Y-116438893D01*
X138173254Y-116458599D01*
X138156778Y-116476777D01*
X138138600Y-116493253D01*
X138118894Y-116507868D01*
X138097851Y-116520480D01*
X138075672Y-116530970D01*
X138052573Y-116539235D01*
X138028774Y-116545196D01*
X138004506Y-116548796D01*
X137980002Y-116550000D01*
X137330000Y-116550000D01*
X137305496Y-116548796D01*
X137281228Y-116545196D01*
X137257429Y-116539235D01*
X137234330Y-116530970D01*
X137212151Y-116520480D01*
X137191108Y-116507868D01*
X137171402Y-116493253D01*
X137153224Y-116476777D01*
X137136748Y-116458599D01*
X137122133Y-116438893D01*
X137109521Y-116417850D01*
X137099031Y-116395671D01*
X137090766Y-116372572D01*
X137084805Y-116348773D01*
X137081205Y-116324505D01*
X137080001Y-116300001D01*
X137080001Y-115399999D01*
X137081205Y-115375495D01*
X137084805Y-115351227D01*
X137090766Y-115327428D01*
X137099031Y-115304329D01*
X137109521Y-115282150D01*
X137122133Y-115261107D01*
X137136748Y-115241401D01*
X137153224Y-115223223D01*
X137171402Y-115206747D01*
X137191108Y-115192132D01*
X137212151Y-115179520D01*
X137234330Y-115169030D01*
X137257429Y-115160765D01*
X137281228Y-115154804D01*
X137305496Y-115151204D01*
X137330000Y-115150000D01*
X137980002Y-115150000D01*
X138004506Y-115151204D01*
X138004506Y-115151204D01*
G37*
D11*
X137655001Y-115850000D03*
D10*
G36*
X135889112Y-95126144D02*
G01*
X135912167Y-95129563D01*
X135934776Y-95135227D01*
X135956720Y-95143079D01*
X135977790Y-95153044D01*
X135997781Y-95165026D01*
X136016501Y-95178910D01*
X136033771Y-95194562D01*
X136049423Y-95211832D01*
X136063307Y-95230552D01*
X136075289Y-95250543D01*
X136085254Y-95271613D01*
X136093106Y-95293557D01*
X136098770Y-95316166D01*
X136102189Y-95339221D01*
X136103333Y-95362500D01*
X136103333Y-95837500D01*
X136102189Y-95860779D01*
X136098770Y-95883834D01*
X136093106Y-95906443D01*
X136085254Y-95928387D01*
X136075289Y-95949457D01*
X136063307Y-95969448D01*
X136049423Y-95988168D01*
X136033771Y-96005438D01*
X136016501Y-96021090D01*
X135997781Y-96034974D01*
X135977790Y-96046956D01*
X135956720Y-96056921D01*
X135934776Y-96064773D01*
X135912167Y-96070437D01*
X135889112Y-96073856D01*
X135865833Y-96075000D01*
X135290833Y-96075000D01*
X135267554Y-96073856D01*
X135244499Y-96070437D01*
X135221890Y-96064773D01*
X135199946Y-96056921D01*
X135178876Y-96046956D01*
X135158885Y-96034974D01*
X135140165Y-96021090D01*
X135122895Y-96005438D01*
X135107243Y-95988168D01*
X135093359Y-95969448D01*
X135081377Y-95949457D01*
X135071412Y-95928387D01*
X135063560Y-95906443D01*
X135057896Y-95883834D01*
X135054477Y-95860779D01*
X135053333Y-95837500D01*
X135053333Y-95362500D01*
X135054477Y-95339221D01*
X135057896Y-95316166D01*
X135063560Y-95293557D01*
X135071412Y-95271613D01*
X135081377Y-95250543D01*
X135093359Y-95230552D01*
X135107243Y-95211832D01*
X135122895Y-95194562D01*
X135140165Y-95178910D01*
X135158885Y-95165026D01*
X135178876Y-95153044D01*
X135199946Y-95143079D01*
X135221890Y-95135227D01*
X135244499Y-95129563D01*
X135267554Y-95126144D01*
X135290833Y-95125000D01*
X135865833Y-95125000D01*
X135889112Y-95126144D01*
X135889112Y-95126144D01*
G37*
D12*
X135578333Y-95600000D03*
D10*
G36*
X137639112Y-95126144D02*
G01*
X137662167Y-95129563D01*
X137684776Y-95135227D01*
X137706720Y-95143079D01*
X137727790Y-95153044D01*
X137747781Y-95165026D01*
X137766501Y-95178910D01*
X137783771Y-95194562D01*
X137799423Y-95211832D01*
X137813307Y-95230552D01*
X137825289Y-95250543D01*
X137835254Y-95271613D01*
X137843106Y-95293557D01*
X137848770Y-95316166D01*
X137852189Y-95339221D01*
X137853333Y-95362500D01*
X137853333Y-95837500D01*
X137852189Y-95860779D01*
X137848770Y-95883834D01*
X137843106Y-95906443D01*
X137835254Y-95928387D01*
X137825289Y-95949457D01*
X137813307Y-95969448D01*
X137799423Y-95988168D01*
X137783771Y-96005438D01*
X137766501Y-96021090D01*
X137747781Y-96034974D01*
X137727790Y-96046956D01*
X137706720Y-96056921D01*
X137684776Y-96064773D01*
X137662167Y-96070437D01*
X137639112Y-96073856D01*
X137615833Y-96075000D01*
X137040833Y-96075000D01*
X137017554Y-96073856D01*
X136994499Y-96070437D01*
X136971890Y-96064773D01*
X136949946Y-96056921D01*
X136928876Y-96046956D01*
X136908885Y-96034974D01*
X136890165Y-96021090D01*
X136872895Y-96005438D01*
X136857243Y-95988168D01*
X136843359Y-95969448D01*
X136831377Y-95949457D01*
X136821412Y-95928387D01*
X136813560Y-95906443D01*
X136807896Y-95883834D01*
X136804477Y-95860779D01*
X136803333Y-95837500D01*
X136803333Y-95362500D01*
X136804477Y-95339221D01*
X136807896Y-95316166D01*
X136813560Y-95293557D01*
X136821412Y-95271613D01*
X136831377Y-95250543D01*
X136843359Y-95230552D01*
X136857243Y-95211832D01*
X136872895Y-95194562D01*
X136890165Y-95178910D01*
X136908885Y-95165026D01*
X136928876Y-95153044D01*
X136949946Y-95143079D01*
X136971890Y-95135227D01*
X136994499Y-95129563D01*
X137017554Y-95126144D01*
X137040833Y-95125000D01*
X137615833Y-95125000D01*
X137639112Y-95126144D01*
X137639112Y-95126144D01*
G37*
D12*
X137328333Y-95600000D03*
D10*
G36*
X137639112Y-105766144D02*
G01*
X137662167Y-105769563D01*
X137684776Y-105775227D01*
X137706720Y-105783079D01*
X137727790Y-105793044D01*
X137747781Y-105805026D01*
X137766501Y-105818910D01*
X137783771Y-105834562D01*
X137799423Y-105851832D01*
X137813307Y-105870552D01*
X137825289Y-105890543D01*
X137835254Y-105911613D01*
X137843106Y-105933557D01*
X137848770Y-105956166D01*
X137852189Y-105979221D01*
X137853333Y-106002500D01*
X137853333Y-106477500D01*
X137852189Y-106500779D01*
X137848770Y-106523834D01*
X137843106Y-106546443D01*
X137835254Y-106568387D01*
X137825289Y-106589457D01*
X137813307Y-106609448D01*
X137799423Y-106628168D01*
X137783771Y-106645438D01*
X137766501Y-106661090D01*
X137747781Y-106674974D01*
X137727790Y-106686956D01*
X137706720Y-106696921D01*
X137684776Y-106704773D01*
X137662167Y-106710437D01*
X137639112Y-106713856D01*
X137615833Y-106715000D01*
X137040833Y-106715000D01*
X137017554Y-106713856D01*
X136994499Y-106710437D01*
X136971890Y-106704773D01*
X136949946Y-106696921D01*
X136928876Y-106686956D01*
X136908885Y-106674974D01*
X136890165Y-106661090D01*
X136872895Y-106645438D01*
X136857243Y-106628168D01*
X136843359Y-106609448D01*
X136831377Y-106589457D01*
X136821412Y-106568387D01*
X136813560Y-106546443D01*
X136807896Y-106523834D01*
X136804477Y-106500779D01*
X136803333Y-106477500D01*
X136803333Y-106002500D01*
X136804477Y-105979221D01*
X136807896Y-105956166D01*
X136813560Y-105933557D01*
X136821412Y-105911613D01*
X136831377Y-105890543D01*
X136843359Y-105870552D01*
X136857243Y-105851832D01*
X136872895Y-105834562D01*
X136890165Y-105818910D01*
X136908885Y-105805026D01*
X136928876Y-105793044D01*
X136949946Y-105783079D01*
X136971890Y-105775227D01*
X136994499Y-105769563D01*
X137017554Y-105766144D01*
X137040833Y-105765000D01*
X137615833Y-105765000D01*
X137639112Y-105766144D01*
X137639112Y-105766144D01*
G37*
D12*
X137328333Y-106240000D03*
D10*
G36*
X135889112Y-105766144D02*
G01*
X135912167Y-105769563D01*
X135934776Y-105775227D01*
X135956720Y-105783079D01*
X135977790Y-105793044D01*
X135997781Y-105805026D01*
X136016501Y-105818910D01*
X136033771Y-105834562D01*
X136049423Y-105851832D01*
X136063307Y-105870552D01*
X136075289Y-105890543D01*
X136085254Y-105911613D01*
X136093106Y-105933557D01*
X136098770Y-105956166D01*
X136102189Y-105979221D01*
X136103333Y-106002500D01*
X136103333Y-106477500D01*
X136102189Y-106500779D01*
X136098770Y-106523834D01*
X136093106Y-106546443D01*
X136085254Y-106568387D01*
X136075289Y-106589457D01*
X136063307Y-106609448D01*
X136049423Y-106628168D01*
X136033771Y-106645438D01*
X136016501Y-106661090D01*
X135997781Y-106674974D01*
X135977790Y-106686956D01*
X135956720Y-106696921D01*
X135934776Y-106704773D01*
X135912167Y-106710437D01*
X135889112Y-106713856D01*
X135865833Y-106715000D01*
X135290833Y-106715000D01*
X135267554Y-106713856D01*
X135244499Y-106710437D01*
X135221890Y-106704773D01*
X135199946Y-106696921D01*
X135178876Y-106686956D01*
X135158885Y-106674974D01*
X135140165Y-106661090D01*
X135122895Y-106645438D01*
X135107243Y-106628168D01*
X135093359Y-106609448D01*
X135081377Y-106589457D01*
X135071412Y-106568387D01*
X135063560Y-106546443D01*
X135057896Y-106523834D01*
X135054477Y-106500779D01*
X135053333Y-106477500D01*
X135053333Y-106002500D01*
X135054477Y-105979221D01*
X135057896Y-105956166D01*
X135063560Y-105933557D01*
X135071412Y-105911613D01*
X135081377Y-105890543D01*
X135093359Y-105870552D01*
X135107243Y-105851832D01*
X135122895Y-105834562D01*
X135140165Y-105818910D01*
X135158885Y-105805026D01*
X135178876Y-105793044D01*
X135199946Y-105783079D01*
X135221890Y-105775227D01*
X135244499Y-105769563D01*
X135267554Y-105766144D01*
X135290833Y-105765000D01*
X135865833Y-105765000D01*
X135889112Y-105766144D01*
X135889112Y-105766144D01*
G37*
D12*
X135578333Y-106240000D03*
D13*
X133205000Y-125675000D03*
D14*
X133205000Y-119375000D03*
X135505000Y-119375000D03*
X130905000Y-119375000D03*
D10*
G36*
X129304504Y-115151204D02*
G01*
X129328772Y-115154804D01*
X129352571Y-115160765D01*
X129375670Y-115169030D01*
X129397849Y-115179520D01*
X129418892Y-115192132D01*
X129438598Y-115206747D01*
X129456776Y-115223223D01*
X129473252Y-115241401D01*
X129487867Y-115261107D01*
X129500479Y-115282150D01*
X129510969Y-115304329D01*
X129519234Y-115327428D01*
X129525195Y-115351227D01*
X129528795Y-115375495D01*
X129529999Y-115399999D01*
X129529999Y-116300001D01*
X129528795Y-116324505D01*
X129525195Y-116348773D01*
X129519234Y-116372572D01*
X129510969Y-116395671D01*
X129500479Y-116417850D01*
X129487867Y-116438893D01*
X129473252Y-116458599D01*
X129456776Y-116476777D01*
X129438598Y-116493253D01*
X129418892Y-116507868D01*
X129397849Y-116520480D01*
X129375670Y-116530970D01*
X129352571Y-116539235D01*
X129328772Y-116545196D01*
X129304504Y-116548796D01*
X129280000Y-116550000D01*
X128629998Y-116550000D01*
X128605494Y-116548796D01*
X128581226Y-116545196D01*
X128557427Y-116539235D01*
X128534328Y-116530970D01*
X128512149Y-116520480D01*
X128491106Y-116507868D01*
X128471400Y-116493253D01*
X128453222Y-116476777D01*
X128436746Y-116458599D01*
X128422131Y-116438893D01*
X128409519Y-116417850D01*
X128399029Y-116395671D01*
X128390764Y-116372572D01*
X128384803Y-116348773D01*
X128381203Y-116324505D01*
X128379999Y-116300001D01*
X128379999Y-115399999D01*
X128381203Y-115375495D01*
X128384803Y-115351227D01*
X128390764Y-115327428D01*
X128399029Y-115304329D01*
X128409519Y-115282150D01*
X128422131Y-115261107D01*
X128436746Y-115241401D01*
X128453222Y-115223223D01*
X128471400Y-115206747D01*
X128491106Y-115192132D01*
X128512149Y-115179520D01*
X128534328Y-115169030D01*
X128557427Y-115160765D01*
X128581226Y-115154804D01*
X128605494Y-115151204D01*
X128629998Y-115150000D01*
X129280000Y-115150000D01*
X129304504Y-115151204D01*
X129304504Y-115151204D01*
G37*
D11*
X128954999Y-115850000D03*
D10*
G36*
X131354504Y-115151204D02*
G01*
X131378772Y-115154804D01*
X131402571Y-115160765D01*
X131425670Y-115169030D01*
X131447849Y-115179520D01*
X131468892Y-115192132D01*
X131488598Y-115206747D01*
X131506776Y-115223223D01*
X131523252Y-115241401D01*
X131537867Y-115261107D01*
X131550479Y-115282150D01*
X131560969Y-115304329D01*
X131569234Y-115327428D01*
X131575195Y-115351227D01*
X131578795Y-115375495D01*
X131579999Y-115399999D01*
X131579999Y-116300001D01*
X131578795Y-116324505D01*
X131575195Y-116348773D01*
X131569234Y-116372572D01*
X131560969Y-116395671D01*
X131550479Y-116417850D01*
X131537867Y-116438893D01*
X131523252Y-116458599D01*
X131506776Y-116476777D01*
X131488598Y-116493253D01*
X131468892Y-116507868D01*
X131447849Y-116520480D01*
X131425670Y-116530970D01*
X131402571Y-116539235D01*
X131378772Y-116545196D01*
X131354504Y-116548796D01*
X131330000Y-116550000D01*
X130679998Y-116550000D01*
X130655494Y-116548796D01*
X130631226Y-116545196D01*
X130607427Y-116539235D01*
X130584328Y-116530970D01*
X130562149Y-116520480D01*
X130541106Y-116507868D01*
X130521400Y-116493253D01*
X130503222Y-116476777D01*
X130486746Y-116458599D01*
X130472131Y-116438893D01*
X130459519Y-116417850D01*
X130449029Y-116395671D01*
X130440764Y-116372572D01*
X130434803Y-116348773D01*
X130431203Y-116324505D01*
X130429999Y-116300001D01*
X130429999Y-115399999D01*
X130431203Y-115375495D01*
X130434803Y-115351227D01*
X130440764Y-115327428D01*
X130449029Y-115304329D01*
X130459519Y-115282150D01*
X130472131Y-115261107D01*
X130486746Y-115241401D01*
X130503222Y-115223223D01*
X130521400Y-115206747D01*
X130541106Y-115192132D01*
X130562149Y-115179520D01*
X130584328Y-115169030D01*
X130607427Y-115160765D01*
X130631226Y-115154804D01*
X130655494Y-115151204D01*
X130679998Y-115150000D01*
X131330000Y-115150000D01*
X131354504Y-115151204D01*
X131354504Y-115151204D01*
G37*
D11*
X131004999Y-115850000D03*
M02*
