M48
; DRILL file {KiCad (5.1.4-0-10_14)} date Monday, 04 May 2020 at 09:59:31 pm
; FORMAT={-:-/ absolute / inch / decimal}
; #@! TF.CreationDate,2020-05-04T21:59:31+12:00
; #@! TF.GenerationSoftware,Kicad,Pcbnew,(5.1.4-0-10_14)
; #@! TF.FileFunction,Plated,1,2,PTH
FMAT,2
INCH
T1C0.0157
T2C0.0236
T3C0.0300
T4C0.0315
T5C0.0354
T6C0.0394
T7C0.0400
%
G90
G05
T1
X4.815Y-4.1102
X4.8386Y-3.0945
X4.875Y-3.0748
X4.9488Y-3.6888
X4.9756Y-3.7571
X5.2559Y-3.9331
X5.2746Y-3.6299
X5.2805Y-3.8976
X5.3041Y-3.8524
X5.3338Y-3.6212
X5.3388Y-3.6929
X5.3681Y-3.7192
X5.6594Y-4.0187
X5.6644Y-3.377
X5.6998Y-4.4636
X5.7639Y-3.8158
X5.9626Y-3.4469
X5.9988Y-3.7413
T2
X5.0118Y-4.561
X5.1429Y-3.9055
X5.2232Y-4.5547
X5.339Y-4.8157
X5.3622Y-4.4252
X5.398Y-3.102
X5.4262Y-4.4833
X5.814Y-2.7195
X6.0236Y-3.7874
T3
X5.0539Y-3.9055
X5.0539Y-4.063
X5.1878Y-4.1417
T4
X5.3722Y-3.8776
X5.3722Y-4.0697
T5
X5.1878Y-3.8268
T6
X5.5689Y-3.1949
X5.5689Y-3.2949
X5.5689Y-3.3949
X5.5689Y-3.4949
X5.5689Y-3.5949
X5.5689Y-3.6949
X5.5689Y-3.7949
X5.5689Y-3.8949
X5.5689Y-3.9949
X6.1012Y-3.1941
X6.1012Y-3.2941
X6.1012Y-3.3941
X6.1012Y-3.4941
X6.1012Y-3.5941
X6.1012Y-3.6941
X6.1012Y-3.7941
X6.1012Y-3.8941
X6.1012Y-3.9941
X6.1012Y-4.0941
X6.1012Y-4.1941
X6.1012Y-4.2941
X6.1016Y-4.9518
X5.4965Y-4.7476
X5.5965Y-4.7476
X5.6965Y-4.7476
X5.7965Y-4.7476
X5.8965Y-4.7476
X6.1012Y-4.3941
X6.1012Y-4.4941
X6.1016Y-4.8518
X5.241Y-2.7195
X5.241Y-2.8195
X5.241Y-2.9195
X5.4152Y-2.7195
X5.4152Y-2.8195
X5.4152Y-2.9195
X5.0945Y-3.4709
X5.0945Y-3.5709
X5.1945Y-3.4709
X5.1945Y-3.5709
X5.2945Y-3.4709
X5.2945Y-3.5709
X5.3945Y-3.4709
X5.3945Y-3.5709
X5.5689Y-4.0949
X5.5689Y-4.1949
X5.5689Y-4.2949
X5.5689Y-4.3949
X5.5689Y-4.4949
X5.8689Y-3.1949
X5.8689Y-3.2949
X5.8689Y-3.3949
X5.8689Y-3.4949
X5.8689Y-3.5949
X5.8689Y-3.6949
X5.8689Y-3.7949
X5.8689Y-3.8949
X5.8689Y-3.9949
X5.8689Y-4.0949
X5.8689Y-4.1949
X5.8689Y-4.2949
X5.8689Y-4.3949
X5.8689Y-4.4949
X5.5894Y-2.7195
X5.5894Y-2.8195
X5.5894Y-2.9195
X4.8917Y-3.1949
X4.8917Y-3.2949
X4.8917Y-3.3949
X4.8917Y-3.4949
X4.8917Y-3.5949
X4.8917Y-3.6949
X4.8917Y-3.7949
X4.8917Y-3.8949
X4.8917Y-3.9949
X4.8917Y-4.0949
X4.8917Y-4.1949
X4.8917Y-4.2949
X4.8917Y-4.3949
X5.0669Y-2.7195
X4.8917Y-4.4949
X4.8927Y-2.7195
X4.8927Y-2.8195
X4.8927Y-2.9195
X5.0669Y-2.8195
X5.0669Y-2.9195
X5.499Y-4.9616
X5.599Y-4.9616
X5.699Y-4.9616
X5.799Y-4.9616
X5.899Y-4.9616
T7
X5.0563Y-3.0877
X5.0563Y-3.3437
X5.2343Y-3.0877
X5.2343Y-3.3437
T0
M30
