G04 #@! TF.GenerationSoftware,KiCad,Pcbnew,(5.1.4-0-10_14)*
G04 #@! TF.CreationDate,2020-05-04T21:58:41+12:00*
G04 #@! TF.ProjectId,Robotic hand v2,526f626f-7469-4632-9068-616e64207632,rev?*
G04 #@! TF.SameCoordinates,Original*
G04 #@! TF.FileFunction,Copper,L2,Bot*
G04 #@! TF.FilePolarity,Positive*
%FSLAX46Y46*%
G04 Gerber Fmt 4.6, Leading zero omitted, Abs format (unit mm)*
G04 Created by KiCad (PCBNEW (5.1.4-0-10_14)) date 2020-05-04 21:58:41*
%MOMM*%
%LPD*%
G04 APERTURE LIST*
%ADD10R,1.600000X1.600000*%
%ADD11O,1.600000X1.600000*%
%ADD12R,1.700000X1.700000*%
%ADD13O,1.700000X1.700000*%
%ADD14C,0.500000*%
%ADD15C,0.100000*%
%ADD16R,1.000000X1.500000*%
%ADD17C,1.600000*%
%ADD18R,3.000000X3.000000*%
%ADD19C,3.000000*%
%ADD20R,1.980000X3.960000*%
%ADD21O,1.980000X3.960000*%
%ADD22R,1.800000X1.800000*%
%ADD23C,1.800000*%
%ADD24R,2.200000X2.200000*%
%ADD25O,2.200000X2.200000*%
%ADD26C,0.800000*%
%ADD27C,0.250000*%
%ADD28C,0.500000*%
%ADD29C,1.500000*%
%ADD30C,0.400000*%
G04 APERTURE END LIST*
D10*
X136700000Y-79000000D03*
D11*
X103680000Y-94240000D03*
X134160000Y-79000000D03*
X106220000Y-94240000D03*
X131620000Y-79000000D03*
X108760000Y-94240000D03*
X129080000Y-79000000D03*
X111300000Y-94240000D03*
X126540000Y-79000000D03*
X113840000Y-94240000D03*
X124000000Y-79000000D03*
X116380000Y-94240000D03*
X121460000Y-79000000D03*
X118920000Y-94240000D03*
X118920000Y-79000000D03*
X121460000Y-94240000D03*
X116380000Y-79000000D03*
X124000000Y-94240000D03*
X113840000Y-79000000D03*
X126540000Y-94240000D03*
X111300000Y-79000000D03*
X129080000Y-94240000D03*
X108760000Y-79000000D03*
X131620000Y-94240000D03*
X106220000Y-79000000D03*
X134160000Y-94240000D03*
X103680000Y-79000000D03*
X136700000Y-94240000D03*
X101140000Y-79000000D03*
X101140000Y-94240000D03*
D12*
X118817000Y-103913500D03*
D13*
X118817000Y-106453500D03*
X118817000Y-108993500D03*
X118817000Y-111533500D03*
X118817000Y-114073500D03*
X118817000Y-116613500D03*
X176983000Y-106453500D03*
D12*
X176983000Y-103913500D03*
D13*
X176983000Y-116613500D03*
X176983000Y-114073500D03*
X176983000Y-111533500D03*
X176983000Y-108993500D03*
D12*
X144600000Y-90300000D03*
D13*
X147140000Y-90300000D03*
X149680000Y-90300000D03*
X152220000Y-90300000D03*
X154760000Y-90300000D03*
D14*
X167750000Y-103700000D03*
D15*
G36*
X168300000Y-104450000D02*
G01*
X167750000Y-104450000D01*
X167750000Y-104449398D01*
X167725466Y-104449398D01*
X167676635Y-104444588D01*
X167628510Y-104435016D01*
X167581555Y-104420772D01*
X167536222Y-104401995D01*
X167492949Y-104378864D01*
X167452150Y-104351604D01*
X167414221Y-104320476D01*
X167379524Y-104285779D01*
X167348396Y-104247850D01*
X167321136Y-104207051D01*
X167298005Y-104163778D01*
X167279228Y-104118445D01*
X167264984Y-104071490D01*
X167255412Y-104023365D01*
X167250602Y-103974534D01*
X167250602Y-103950000D01*
X167250000Y-103950000D01*
X167250000Y-103450000D01*
X167250602Y-103450000D01*
X167250602Y-103425466D01*
X167255412Y-103376635D01*
X167264984Y-103328510D01*
X167279228Y-103281555D01*
X167298005Y-103236222D01*
X167321136Y-103192949D01*
X167348396Y-103152150D01*
X167379524Y-103114221D01*
X167414221Y-103079524D01*
X167452150Y-103048396D01*
X167492949Y-103021136D01*
X167536222Y-102998005D01*
X167581555Y-102979228D01*
X167628510Y-102964984D01*
X167676635Y-102955412D01*
X167725466Y-102950602D01*
X167750000Y-102950602D01*
X167750000Y-102950000D01*
X168300000Y-102950000D01*
X168300000Y-104450000D01*
X168300000Y-104450000D01*
G37*
D14*
X170350000Y-103700000D03*
D15*
G36*
X170350000Y-102950602D02*
G01*
X170374534Y-102950602D01*
X170423365Y-102955412D01*
X170471490Y-102964984D01*
X170518445Y-102979228D01*
X170563778Y-102998005D01*
X170607051Y-103021136D01*
X170647850Y-103048396D01*
X170685779Y-103079524D01*
X170720476Y-103114221D01*
X170751604Y-103152150D01*
X170778864Y-103192949D01*
X170801995Y-103236222D01*
X170820772Y-103281555D01*
X170835016Y-103328510D01*
X170844588Y-103376635D01*
X170849398Y-103425466D01*
X170849398Y-103450000D01*
X170850000Y-103450000D01*
X170850000Y-103950000D01*
X170849398Y-103950000D01*
X170849398Y-103974534D01*
X170844588Y-104023365D01*
X170835016Y-104071490D01*
X170820772Y-104118445D01*
X170801995Y-104163778D01*
X170778864Y-104207051D01*
X170751604Y-104247850D01*
X170720476Y-104285779D01*
X170685779Y-104320476D01*
X170647850Y-104351604D01*
X170607051Y-104378864D01*
X170563778Y-104401995D01*
X170518445Y-104420772D01*
X170471490Y-104435016D01*
X170423365Y-104444588D01*
X170374534Y-104449398D01*
X170350000Y-104449398D01*
X170350000Y-104450000D01*
X169800000Y-104450000D01*
X169800000Y-102950000D01*
X170350000Y-102950000D01*
X170350000Y-102950602D01*
X170350000Y-102950602D01*
G37*
D16*
X169050000Y-103700000D03*
D14*
X167750000Y-100750000D03*
D15*
G36*
X168300000Y-101500000D02*
G01*
X167750000Y-101500000D01*
X167750000Y-101499398D01*
X167725466Y-101499398D01*
X167676635Y-101494588D01*
X167628510Y-101485016D01*
X167581555Y-101470772D01*
X167536222Y-101451995D01*
X167492949Y-101428864D01*
X167452150Y-101401604D01*
X167414221Y-101370476D01*
X167379524Y-101335779D01*
X167348396Y-101297850D01*
X167321136Y-101257051D01*
X167298005Y-101213778D01*
X167279228Y-101168445D01*
X167264984Y-101121490D01*
X167255412Y-101073365D01*
X167250602Y-101024534D01*
X167250602Y-101000000D01*
X167250000Y-101000000D01*
X167250000Y-100500000D01*
X167250602Y-100500000D01*
X167250602Y-100475466D01*
X167255412Y-100426635D01*
X167264984Y-100378510D01*
X167279228Y-100331555D01*
X167298005Y-100286222D01*
X167321136Y-100242949D01*
X167348396Y-100202150D01*
X167379524Y-100164221D01*
X167414221Y-100129524D01*
X167452150Y-100098396D01*
X167492949Y-100071136D01*
X167536222Y-100048005D01*
X167581555Y-100029228D01*
X167628510Y-100014984D01*
X167676635Y-100005412D01*
X167725466Y-100000602D01*
X167750000Y-100000602D01*
X167750000Y-100000000D01*
X168300000Y-100000000D01*
X168300000Y-101500000D01*
X168300000Y-101500000D01*
G37*
D14*
X170350000Y-100750000D03*
D15*
G36*
X170350000Y-100000602D02*
G01*
X170374534Y-100000602D01*
X170423365Y-100005412D01*
X170471490Y-100014984D01*
X170518445Y-100029228D01*
X170563778Y-100048005D01*
X170607051Y-100071136D01*
X170647850Y-100098396D01*
X170685779Y-100129524D01*
X170720476Y-100164221D01*
X170751604Y-100202150D01*
X170778864Y-100242949D01*
X170801995Y-100286222D01*
X170820772Y-100331555D01*
X170835016Y-100378510D01*
X170844588Y-100426635D01*
X170849398Y-100475466D01*
X170849398Y-100500000D01*
X170850000Y-100500000D01*
X170850000Y-101000000D01*
X170849398Y-101000000D01*
X170849398Y-101024534D01*
X170844588Y-101073365D01*
X170835016Y-101121490D01*
X170820772Y-101168445D01*
X170801995Y-101213778D01*
X170778864Y-101257051D01*
X170751604Y-101297850D01*
X170720476Y-101335779D01*
X170685779Y-101370476D01*
X170647850Y-101401604D01*
X170607051Y-101428864D01*
X170563778Y-101451995D01*
X170518445Y-101470772D01*
X170471490Y-101485016D01*
X170423365Y-101494588D01*
X170374534Y-101499398D01*
X170350000Y-101499398D01*
X170350000Y-101500000D01*
X169800000Y-101500000D01*
X169800000Y-100000000D01*
X170350000Y-100000000D01*
X170350000Y-100000602D01*
X170350000Y-100000602D01*
G37*
D16*
X169050000Y-100750000D03*
D17*
X111950000Y-112350000D03*
D11*
X111950000Y-119970000D03*
D18*
X102370000Y-118900000D03*
D19*
X107450000Y-118900000D03*
D20*
X101800000Y-103600000D03*
D21*
X106800000Y-103600000D03*
D13*
X169648500Y-108485500D03*
X169648500Y-111025500D03*
X169648500Y-113565500D03*
X169648500Y-116105500D03*
X169648500Y-118645500D03*
D12*
X169648500Y-121185500D03*
X178640000Y-90400000D03*
D13*
X176100000Y-90400000D03*
X178640000Y-87860000D03*
X176100000Y-87860000D03*
X178640000Y-85320000D03*
X176100000Y-85320000D03*
X178640000Y-82780000D03*
X176100000Y-82780000D03*
D22*
X104150000Y-112350000D03*
D23*
X106690000Y-112350000D03*
D12*
X145875000Y-86600000D03*
D13*
X148415000Y-86600000D03*
X150955000Y-86600000D03*
X153495000Y-86600000D03*
D24*
X137150000Y-98900000D03*
D25*
X126990000Y-98900000D03*
D26*
X110900000Y-96850000D03*
X113100000Y-101950000D03*
X167750000Y-98950000D03*
X173064489Y-98935511D03*
X166250000Y-103700000D03*
X173067305Y-97867305D03*
D27*
X157350022Y-84048609D02*
X164975012Y-91673599D01*
X164975012Y-91673599D02*
X164975012Y-92310008D01*
X170350000Y-97684998D02*
X170350000Y-100752408D01*
X157350022Y-84048609D02*
X157348609Y-84048609D01*
X152300000Y-79000000D02*
X136700000Y-79000000D01*
X157348609Y-84048609D02*
X152300000Y-79000000D01*
X164975012Y-92310008D02*
X170350000Y-97684998D01*
X166274999Y-102624999D02*
X170051927Y-102624999D01*
X170051927Y-102624999D02*
X170350000Y-102923072D01*
X134160000Y-79000000D02*
X135285001Y-80125001D01*
X170350000Y-102923072D02*
X170350000Y-103700000D01*
X135285001Y-80125001D02*
X152788591Y-80125001D01*
X164525001Y-91859999D02*
X164525001Y-100875001D01*
X152788591Y-80125001D02*
X157162209Y-84498620D01*
X164525001Y-100875001D02*
X166274999Y-102624999D01*
X157162209Y-84498620D02*
X157163622Y-84498620D01*
X157163622Y-84498620D02*
X164525001Y-91859999D01*
D28*
X180040001Y-84180001D02*
X180040001Y-91690001D01*
X180040001Y-91690001D02*
X179530002Y-92200000D01*
X178640000Y-82780000D02*
X180040001Y-84180001D01*
D27*
X109885001Y-95835001D02*
X110900000Y-96850000D01*
X109885001Y-82665001D02*
X109885001Y-95835001D01*
X106220000Y-79000000D02*
X109885001Y-82665001D01*
X153495000Y-86600000D02*
X151769988Y-84874988D01*
X128285012Y-84874988D02*
X119719999Y-93440001D01*
X151769988Y-84874988D02*
X128285012Y-84874988D01*
X119719999Y-93440001D02*
X118920000Y-94240000D01*
X117641999Y-108429499D02*
X117641999Y-110358499D01*
X117641999Y-110358499D02*
X118817000Y-111533500D01*
X119381001Y-107628501D02*
X118442997Y-107628501D01*
X121762001Y-105247501D02*
X119381001Y-107628501D01*
X121762001Y-97082001D02*
X121762001Y-105247501D01*
X118442997Y-107628501D02*
X117641999Y-108429499D01*
X118920000Y-94240000D02*
X121762001Y-97082001D01*
X122259999Y-93440001D02*
X121460000Y-94240000D01*
X130375001Y-85324999D02*
X122259999Y-93440001D01*
X149679999Y-85324999D02*
X130375001Y-85324999D01*
X150955000Y-86600000D02*
X149679999Y-85324999D01*
X122259999Y-95039999D02*
X122259999Y-105550501D01*
X121460000Y-94240000D02*
X122259999Y-95039999D01*
X122259999Y-105550501D02*
X119666999Y-108143501D01*
X119666999Y-108143501D02*
X118817000Y-108993500D01*
D28*
X118817000Y-114073500D02*
X118817000Y-116613500D01*
X107450000Y-118900000D02*
X107450000Y-119000000D01*
X107450000Y-119000000D02*
X108420000Y-119970000D01*
D29*
X108420000Y-119970000D02*
X111950000Y-119970000D01*
X118817000Y-116613500D02*
X115306500Y-116613500D01*
X115306500Y-116613500D02*
X111950000Y-119970000D01*
D28*
X126990000Y-98900000D02*
X126990000Y-105900500D01*
X126990000Y-105900500D02*
X118817000Y-114073500D01*
X145875000Y-86600000D02*
X136720000Y-86600000D01*
X136720000Y-86600000D02*
X129080000Y-94240000D01*
X147140000Y-90300000D02*
X147140000Y-87865000D01*
X147140000Y-87865000D02*
X145875000Y-86600000D01*
X101800000Y-118330000D02*
X102370000Y-118900000D01*
D29*
X101800000Y-103600000D02*
X101800000Y-118330000D01*
D27*
X128115012Y-80575012D02*
X127339999Y-79799999D01*
X127339999Y-79799999D02*
X126540000Y-79000000D01*
X150897834Y-80575012D02*
X128115012Y-80575012D01*
X155609999Y-85287177D02*
X150897834Y-80575012D01*
X154760000Y-90300000D02*
X155609999Y-89450001D01*
X155609999Y-89450001D02*
X155609999Y-85287177D01*
X122259999Y-79799999D02*
X121460000Y-79000000D01*
X123485023Y-81025023D02*
X122259999Y-79799999D01*
X150711434Y-81025023D02*
X123485023Y-81025023D01*
X155120012Y-85433601D02*
X150711434Y-81025023D01*
X155120012Y-87399988D02*
X155120012Y-85433601D01*
X152220000Y-90300000D02*
X155120012Y-87399988D01*
X119719999Y-79799999D02*
X118920000Y-79000000D01*
X154670001Y-85620001D02*
X150525034Y-81475034D01*
X149680000Y-90300000D02*
X152204999Y-87775001D01*
X121395034Y-81475034D02*
X119719999Y-79799999D01*
X154670001Y-87164001D02*
X154670001Y-85620001D01*
X150525034Y-81475034D02*
X121395034Y-81475034D01*
X152204999Y-87775001D02*
X154059001Y-87775001D01*
X154059001Y-87775001D02*
X154670001Y-87164001D01*
X113100000Y-101950000D02*
X113100000Y-104850000D01*
X114703500Y-106453500D02*
X118817000Y-106453500D01*
X113100000Y-104850000D02*
X114703500Y-106453500D01*
X108760000Y-79000000D02*
X111010000Y-76750000D01*
X175133413Y-76750000D02*
X181183413Y-82800000D01*
X111010000Y-76750000D02*
X175133413Y-76750000D01*
X181183413Y-82800000D02*
X181183413Y-92137608D01*
X174385511Y-98935511D02*
X173064489Y-98935511D01*
X181183413Y-92137608D02*
X174385511Y-98935511D01*
X173064489Y-98935511D02*
X173064489Y-98935511D01*
X167750000Y-98950000D02*
X167750000Y-100750000D01*
X112975012Y-77324988D02*
X175071990Y-77324988D01*
X111300000Y-79000000D02*
X112975012Y-77324988D01*
X175071990Y-77324988D02*
X180715011Y-82968008D01*
X180715011Y-82968008D02*
X180715010Y-91969600D01*
X174817305Y-97867305D02*
X173067305Y-97867305D01*
X180715010Y-91969600D02*
X174817305Y-97867305D01*
X173067305Y-97867305D02*
X173067305Y-97867305D01*
X166250000Y-103700000D02*
X167750000Y-103700000D01*
X141512498Y-108485500D02*
X169648500Y-108485500D01*
X127854999Y-93889997D02*
X127854999Y-94828001D01*
X127080001Y-93114999D02*
X127854999Y-93889997D01*
X125125001Y-93114999D02*
X127080001Y-93114999D01*
X127854999Y-94828001D02*
X141512498Y-108485500D01*
X124000000Y-94240000D02*
X125125001Y-93114999D01*
X151532502Y-121185500D02*
X168548500Y-121185500D01*
X125740001Y-95392999D02*
X151532502Y-121185500D01*
X168548500Y-121185500D02*
X169648500Y-121185500D01*
X125740001Y-95039999D02*
X125740001Y-95392999D01*
X126540000Y-94240000D02*
X125740001Y-95039999D01*
X174824999Y-89124999D02*
X174824999Y-78761409D01*
X176100000Y-90400000D02*
X174824999Y-89124999D01*
X125225001Y-77774999D02*
X124799999Y-78200001D01*
X174824999Y-78761409D02*
X173838589Y-77774999D01*
X173838589Y-77774999D02*
X125225001Y-77774999D01*
X124799999Y-78200001D02*
X124000000Y-79000000D01*
X172100000Y-116194000D02*
X169648500Y-118645500D01*
X172100000Y-104036662D02*
X172100000Y-116194000D01*
X170063338Y-102000000D02*
X172100000Y-104036662D01*
X169840364Y-102000000D02*
X170063338Y-102000000D01*
X169050000Y-100750000D02*
X169050000Y-101209636D01*
X169050000Y-101209636D02*
X169840364Y-102000000D01*
X170923501Y-114830499D02*
X170923501Y-107423501D01*
X169648500Y-116105500D02*
X170923501Y-114830499D01*
X169050000Y-105550000D02*
X169050000Y-103700000D01*
X170923501Y-107423501D02*
X169050000Y-105550000D01*
D30*
G36*
X180836766Y-71989146D02*
G01*
X181353083Y-72145032D01*
X181829287Y-72398234D01*
X182247247Y-72739113D01*
X182591035Y-73154681D01*
X182847555Y-73629105D01*
X183007042Y-74144325D01*
X183067001Y-74714795D01*
X183067000Y-124664147D01*
X183010854Y-125236766D01*
X182854970Y-125753078D01*
X182601765Y-126229290D01*
X182260887Y-126647247D01*
X181845322Y-126991033D01*
X181370897Y-127247554D01*
X180855674Y-127407042D01*
X180285215Y-127467000D01*
X100335853Y-127467000D01*
X99763234Y-127410854D01*
X99246922Y-127254970D01*
X98770710Y-127001765D01*
X98352753Y-126660887D01*
X98008967Y-126245322D01*
X97752446Y-125770897D01*
X97592958Y-125255674D01*
X97533000Y-124685215D01*
X97533000Y-124528176D01*
X98555441Y-124528176D01*
X98555441Y-124871824D01*
X98622484Y-125208869D01*
X98753992Y-125526358D01*
X98944913Y-125812091D01*
X99187909Y-126055087D01*
X99473642Y-126246008D01*
X99791131Y-126377516D01*
X100128176Y-126444559D01*
X100471824Y-126444559D01*
X100808869Y-126377516D01*
X101126358Y-126246008D01*
X101412091Y-126055087D01*
X101655087Y-125812091D01*
X101846008Y-125526358D01*
X101977516Y-125208869D01*
X102044559Y-124871824D01*
X102044559Y-124528176D01*
X178555441Y-124528176D01*
X178555441Y-124871824D01*
X178622484Y-125208869D01*
X178753992Y-125526358D01*
X178944913Y-125812091D01*
X179187909Y-126055087D01*
X179473642Y-126246008D01*
X179791131Y-126377516D01*
X180128176Y-126444559D01*
X180471824Y-126444559D01*
X180808869Y-126377516D01*
X181126358Y-126246008D01*
X181412091Y-126055087D01*
X181655087Y-125812091D01*
X181846008Y-125526358D01*
X181977516Y-125208869D01*
X182044559Y-124871824D01*
X182044559Y-124528176D01*
X181977516Y-124191131D01*
X181846008Y-123873642D01*
X181655087Y-123587909D01*
X181412091Y-123344913D01*
X181126358Y-123153992D01*
X180808869Y-123022484D01*
X180471824Y-122955441D01*
X180128176Y-122955441D01*
X179791131Y-123022484D01*
X179473642Y-123153992D01*
X179187909Y-123344913D01*
X178944913Y-123587909D01*
X178753992Y-123873642D01*
X178622484Y-124191131D01*
X178555441Y-124528176D01*
X102044559Y-124528176D01*
X101977516Y-124191131D01*
X101846008Y-123873642D01*
X101655087Y-123587909D01*
X101412091Y-123344913D01*
X101126358Y-123153992D01*
X100808869Y-123022484D01*
X100471824Y-122955441D01*
X100128176Y-122955441D01*
X99791131Y-123022484D01*
X99473642Y-123153992D01*
X99187909Y-123344913D01*
X98944913Y-123587909D01*
X98753992Y-123873642D01*
X98622484Y-124191131D01*
X98555441Y-124528176D01*
X97533000Y-124528176D01*
X97533000Y-101620000D01*
X100098575Y-101620000D01*
X100098575Y-105580000D01*
X100112245Y-105718792D01*
X100152729Y-105852251D01*
X100218472Y-105975247D01*
X100306947Y-106083053D01*
X100342000Y-106111821D01*
X100342001Y-116927344D01*
X100278472Y-117004753D01*
X100212729Y-117127749D01*
X100172245Y-117261208D01*
X100158575Y-117400000D01*
X100158575Y-120400000D01*
X100172245Y-120538792D01*
X100212729Y-120672251D01*
X100278472Y-120795247D01*
X100366947Y-120903053D01*
X100474753Y-120991528D01*
X100597749Y-121057271D01*
X100731208Y-121097755D01*
X100870000Y-121111425D01*
X103870000Y-121111425D01*
X104008792Y-121097755D01*
X104142251Y-121057271D01*
X104265247Y-120991528D01*
X104373053Y-120903053D01*
X104461528Y-120795247D01*
X104527271Y-120672251D01*
X104567755Y-120538792D01*
X104581425Y-120400000D01*
X104581425Y-120381367D01*
X106045000Y-120381367D01*
X106189963Y-120726162D01*
X106570441Y-120936893D01*
X106984719Y-121069348D01*
X107416878Y-121118437D01*
X107850310Y-121082272D01*
X108268359Y-120962243D01*
X108654958Y-120762963D01*
X108710037Y-120726162D01*
X108855000Y-120381367D01*
X107450000Y-118976368D01*
X106045000Y-120381367D01*
X104581425Y-120381367D01*
X104581425Y-118866878D01*
X105231563Y-118866878D01*
X105267728Y-119300310D01*
X105387757Y-119718359D01*
X105587037Y-120104958D01*
X105623838Y-120160037D01*
X105968633Y-120305000D01*
X107373632Y-118900000D01*
X107526368Y-118900000D01*
X108931367Y-120305000D01*
X109040571Y-120259087D01*
X110469967Y-120259087D01*
X110554803Y-120542272D01*
X110693256Y-120803465D01*
X110880005Y-121032629D01*
X111107873Y-121220957D01*
X111368104Y-121361211D01*
X111650697Y-121448002D01*
X111660913Y-121450031D01*
X111896000Y-121299904D01*
X111896000Y-120024000D01*
X112004000Y-120024000D01*
X112004000Y-121299904D01*
X112239087Y-121450031D01*
X112249303Y-121448002D01*
X112531896Y-121361211D01*
X112792127Y-121220957D01*
X113019995Y-121032629D01*
X113206744Y-120803465D01*
X113345197Y-120542272D01*
X113430033Y-120259087D01*
X113280035Y-120024000D01*
X112004000Y-120024000D01*
X111896000Y-120024000D01*
X110619965Y-120024000D01*
X110469967Y-120259087D01*
X109040571Y-120259087D01*
X109276162Y-120160037D01*
X109486893Y-119779559D01*
X109518432Y-119680913D01*
X110469967Y-119680913D01*
X110619965Y-119916000D01*
X111896000Y-119916000D01*
X111896000Y-118640096D01*
X112004000Y-118640096D01*
X112004000Y-119916000D01*
X113280035Y-119916000D01*
X113430033Y-119680913D01*
X113345197Y-119397728D01*
X113206744Y-119136535D01*
X113019995Y-118907371D01*
X112792127Y-118719043D01*
X112531896Y-118578789D01*
X112249303Y-118491998D01*
X112239087Y-118489969D01*
X112004000Y-118640096D01*
X111896000Y-118640096D01*
X111660913Y-118489969D01*
X111650697Y-118491998D01*
X111368104Y-118578789D01*
X111107873Y-118719043D01*
X110880005Y-118907371D01*
X110693256Y-119136535D01*
X110554803Y-119397728D01*
X110469967Y-119680913D01*
X109518432Y-119680913D01*
X109619348Y-119365281D01*
X109668437Y-118933122D01*
X109632272Y-118499690D01*
X109512243Y-118081641D01*
X109312963Y-117695042D01*
X109276162Y-117639963D01*
X108931367Y-117495000D01*
X107526368Y-118900000D01*
X107373632Y-118900000D01*
X105968633Y-117495000D01*
X105623838Y-117639963D01*
X105413107Y-118020441D01*
X105280652Y-118434719D01*
X105231563Y-118866878D01*
X104581425Y-118866878D01*
X104581425Y-117418633D01*
X106045000Y-117418633D01*
X107450000Y-118823632D01*
X108855000Y-117418633D01*
X108710037Y-117073838D01*
X108414973Y-116910414D01*
X117287554Y-116910414D01*
X117290350Y-116924482D01*
X117380354Y-117216341D01*
X117525567Y-117485033D01*
X117720409Y-117720233D01*
X117957393Y-117912902D01*
X118227411Y-118055635D01*
X118520086Y-118142948D01*
X118762998Y-117993567D01*
X118762998Y-118011550D01*
X118488447Y-118286101D01*
X118263224Y-118623171D01*
X118108088Y-118997703D01*
X118029000Y-119395305D01*
X118029000Y-119800695D01*
X118108088Y-120198297D01*
X118263224Y-120572829D01*
X118488447Y-120909899D01*
X118775101Y-121196553D01*
X119112171Y-121421776D01*
X119486703Y-121576912D01*
X119884305Y-121656000D01*
X120289695Y-121656000D01*
X120687297Y-121576912D01*
X121061829Y-121421776D01*
X121398899Y-121196553D01*
X121685553Y-120909899D01*
X121910776Y-120572829D01*
X122065912Y-120198297D01*
X122145000Y-119800695D01*
X122145000Y-119395305D01*
X122065912Y-118997703D01*
X121910776Y-118623171D01*
X121685553Y-118286101D01*
X121398899Y-117999447D01*
X121061829Y-117774224D01*
X120687297Y-117619088D01*
X120289695Y-117540000D01*
X120062898Y-117540000D01*
X120108433Y-117485033D01*
X120253646Y-117216341D01*
X120343650Y-116924482D01*
X120346446Y-116910414D01*
X120196944Y-116667500D01*
X118871000Y-116667500D01*
X118871000Y-116687500D01*
X118763000Y-116687500D01*
X118763000Y-116667500D01*
X117437056Y-116667500D01*
X117287554Y-116910414D01*
X108414973Y-116910414D01*
X108329559Y-116863107D01*
X107915281Y-116730652D01*
X107483122Y-116681563D01*
X107049690Y-116717728D01*
X106631641Y-116837757D01*
X106245042Y-117037037D01*
X106189963Y-117073838D01*
X106045000Y-117418633D01*
X104581425Y-117418633D01*
X104581425Y-117400000D01*
X104567755Y-117261208D01*
X104527271Y-117127749D01*
X104461528Y-117004753D01*
X104373053Y-116896947D01*
X104265247Y-116808472D01*
X104142251Y-116742729D01*
X104008792Y-116702245D01*
X103870000Y-116688575D01*
X103258000Y-116688575D01*
X103258000Y-114370414D01*
X117287554Y-114370414D01*
X117290350Y-114384482D01*
X117380354Y-114676341D01*
X117525567Y-114945033D01*
X117720409Y-115180233D01*
X117921228Y-115343500D01*
X117720409Y-115506767D01*
X117525567Y-115741967D01*
X117380354Y-116010659D01*
X117290350Y-116302518D01*
X117287554Y-116316586D01*
X117437056Y-116559500D01*
X118763000Y-116559500D01*
X118763000Y-114127500D01*
X118871000Y-114127500D01*
X118871000Y-116559500D01*
X120196944Y-116559500D01*
X120346446Y-116316586D01*
X120343650Y-116302518D01*
X120253646Y-116010659D01*
X120108433Y-115741967D01*
X119913591Y-115506767D01*
X119712772Y-115343500D01*
X119913591Y-115180233D01*
X120108433Y-114945033D01*
X120253646Y-114676341D01*
X120343650Y-114384482D01*
X120346446Y-114370414D01*
X120196944Y-114127500D01*
X118871000Y-114127500D01*
X118763000Y-114127500D01*
X117437056Y-114127500D01*
X117287554Y-114370414D01*
X103258000Y-114370414D01*
X103258000Y-113961425D01*
X105050000Y-113961425D01*
X105188792Y-113947755D01*
X105322251Y-113907271D01*
X105445247Y-113841528D01*
X105553053Y-113753053D01*
X105641528Y-113645247D01*
X105665903Y-113599645D01*
X105928327Y-113774991D01*
X106220964Y-113896205D01*
X106531626Y-113958000D01*
X106848374Y-113958000D01*
X107159036Y-113896205D01*
X107451673Y-113774991D01*
X107715040Y-113599015D01*
X107939015Y-113375040D01*
X108114991Y-113111673D01*
X108236205Y-112819036D01*
X108298000Y-112508374D01*
X108298000Y-112201475D01*
X110442000Y-112201475D01*
X110442000Y-112498525D01*
X110499951Y-112789868D01*
X110613627Y-113064306D01*
X110778660Y-113311294D01*
X110988706Y-113521340D01*
X111235694Y-113686373D01*
X111510132Y-113800049D01*
X111801475Y-113858000D01*
X112098525Y-113858000D01*
X112389868Y-113800049D01*
X112664306Y-113686373D01*
X112911294Y-113521340D01*
X113121340Y-113311294D01*
X113286373Y-113064306D01*
X113400049Y-112789868D01*
X113458000Y-112498525D01*
X113458000Y-112201475D01*
X113400049Y-111910132D01*
X113286373Y-111635694D01*
X113121340Y-111388706D01*
X112911294Y-111178660D01*
X112664306Y-111013627D01*
X112389868Y-110899951D01*
X112098525Y-110842000D01*
X111801475Y-110842000D01*
X111510132Y-110899951D01*
X111235694Y-111013627D01*
X110988706Y-111178660D01*
X110778660Y-111388706D01*
X110613627Y-111635694D01*
X110499951Y-111910132D01*
X110442000Y-112201475D01*
X108298000Y-112201475D01*
X108298000Y-112191626D01*
X108236205Y-111880964D01*
X108114991Y-111588327D01*
X107939015Y-111324960D01*
X107715040Y-111100985D01*
X107451673Y-110925009D01*
X107159036Y-110803795D01*
X106848374Y-110742000D01*
X106531626Y-110742000D01*
X106220964Y-110803795D01*
X105928327Y-110925009D01*
X105665903Y-111100355D01*
X105641528Y-111054753D01*
X105553053Y-110946947D01*
X105445247Y-110858472D01*
X105322251Y-110792729D01*
X105188792Y-110752245D01*
X105050000Y-110738575D01*
X103258000Y-110738575D01*
X103258000Y-106111821D01*
X103293053Y-106083053D01*
X103381528Y-105975247D01*
X103447271Y-105852251D01*
X103487755Y-105718792D01*
X103501425Y-105580000D01*
X103501425Y-102526592D01*
X105102000Y-102526592D01*
X105102001Y-104673409D01*
X105126570Y-104922866D01*
X105223664Y-105242940D01*
X105381335Y-105537922D01*
X105593525Y-105796476D01*
X105852079Y-106008666D01*
X106147061Y-106166337D01*
X106467135Y-106263431D01*
X106800000Y-106296215D01*
X107132866Y-106263431D01*
X107452940Y-106166337D01*
X107747922Y-106008666D01*
X108006476Y-105796476D01*
X108218666Y-105537922D01*
X108376337Y-105242940D01*
X108473431Y-104922866D01*
X108498000Y-104673409D01*
X108498000Y-102526591D01*
X108473431Y-102277134D01*
X108376337Y-101957060D01*
X108218666Y-101662078D01*
X108006476Y-101403524D01*
X107747921Y-101191334D01*
X107452939Y-101033663D01*
X107132865Y-100936569D01*
X106800000Y-100903785D01*
X106467134Y-100936569D01*
X106147060Y-101033663D01*
X105852078Y-101191334D01*
X105593524Y-101403524D01*
X105381334Y-101662079D01*
X105223663Y-101957061D01*
X105126569Y-102277135D01*
X105102000Y-102526592D01*
X103501425Y-102526592D01*
X103501425Y-101620000D01*
X103487755Y-101481208D01*
X103447271Y-101347749D01*
X103381528Y-101224753D01*
X103293053Y-101116947D01*
X103185247Y-101028472D01*
X103062251Y-100962729D01*
X102928792Y-100922245D01*
X102790000Y-100908575D01*
X100810000Y-100908575D01*
X100671208Y-100922245D01*
X100537749Y-100962729D01*
X100414753Y-101028472D01*
X100306947Y-101116947D01*
X100218472Y-101224753D01*
X100152729Y-101347749D01*
X100112245Y-101481208D01*
X100098575Y-101620000D01*
X97533000Y-101620000D01*
X97533000Y-79000000D01*
X99624704Y-79000000D01*
X99653820Y-79295620D01*
X99740049Y-79579879D01*
X99880077Y-79841853D01*
X100068524Y-80071476D01*
X100298147Y-80259923D01*
X100560121Y-80399951D01*
X100844380Y-80486180D01*
X101065922Y-80508000D01*
X101214078Y-80508000D01*
X101435620Y-80486180D01*
X101719879Y-80399951D01*
X101981853Y-80259923D01*
X102211476Y-80071476D01*
X102399923Y-79841853D01*
X102410000Y-79823000D01*
X102420077Y-79841853D01*
X102608524Y-80071476D01*
X102838147Y-80259923D01*
X103100121Y-80399951D01*
X103384380Y-80486180D01*
X103605922Y-80508000D01*
X103754078Y-80508000D01*
X103975620Y-80486180D01*
X104259879Y-80399951D01*
X104521853Y-80259923D01*
X104751476Y-80071476D01*
X104939923Y-79841853D01*
X104950000Y-79823000D01*
X104960077Y-79841853D01*
X105148524Y-80071476D01*
X105378147Y-80259923D01*
X105640121Y-80399951D01*
X105924380Y-80486180D01*
X106145922Y-80508000D01*
X106294078Y-80508000D01*
X106515620Y-80486180D01*
X106525227Y-80483266D01*
X109052001Y-83010041D01*
X109052002Y-92753464D01*
X108834078Y-92732000D01*
X108685922Y-92732000D01*
X108464380Y-92753820D01*
X108180121Y-92840049D01*
X107918147Y-92980077D01*
X107688524Y-93168524D01*
X107500077Y-93398147D01*
X107490000Y-93417000D01*
X107479923Y-93398147D01*
X107291476Y-93168524D01*
X107061853Y-92980077D01*
X106799879Y-92840049D01*
X106515620Y-92753820D01*
X106294078Y-92732000D01*
X106145922Y-92732000D01*
X105924380Y-92753820D01*
X105640121Y-92840049D01*
X105378147Y-92980077D01*
X105148524Y-93168524D01*
X104960077Y-93398147D01*
X104950000Y-93417000D01*
X104939923Y-93398147D01*
X104751476Y-93168524D01*
X104521853Y-92980077D01*
X104259879Y-92840049D01*
X103975620Y-92753820D01*
X103754078Y-92732000D01*
X103605922Y-92732000D01*
X103384380Y-92753820D01*
X103100121Y-92840049D01*
X102838147Y-92980077D01*
X102608524Y-93168524D01*
X102420077Y-93398147D01*
X102410000Y-93417000D01*
X102399923Y-93398147D01*
X102211476Y-93168524D01*
X101981853Y-92980077D01*
X101719879Y-92840049D01*
X101435620Y-92753820D01*
X101214078Y-92732000D01*
X101065922Y-92732000D01*
X100844380Y-92753820D01*
X100560121Y-92840049D01*
X100298147Y-92980077D01*
X100068524Y-93168524D01*
X99880077Y-93398147D01*
X99740049Y-93660121D01*
X99653820Y-93944380D01*
X99624704Y-94240000D01*
X99653820Y-94535620D01*
X99740049Y-94819879D01*
X99880077Y-95081853D01*
X100068524Y-95311476D01*
X100298147Y-95499923D01*
X100560121Y-95639951D01*
X100844380Y-95726180D01*
X101065922Y-95748000D01*
X101214078Y-95748000D01*
X101435620Y-95726180D01*
X101719879Y-95639951D01*
X101981853Y-95499923D01*
X102211476Y-95311476D01*
X102399923Y-95081853D01*
X102410000Y-95063000D01*
X102420077Y-95081853D01*
X102608524Y-95311476D01*
X102838147Y-95499923D01*
X103100121Y-95639951D01*
X103384380Y-95726180D01*
X103605922Y-95748000D01*
X103754078Y-95748000D01*
X103975620Y-95726180D01*
X104259879Y-95639951D01*
X104521853Y-95499923D01*
X104751476Y-95311476D01*
X104939923Y-95081853D01*
X104950000Y-95063000D01*
X104960077Y-95081853D01*
X105148524Y-95311476D01*
X105378147Y-95499923D01*
X105640121Y-95639951D01*
X105924380Y-95726180D01*
X106145922Y-95748000D01*
X106294078Y-95748000D01*
X106515620Y-95726180D01*
X106799879Y-95639951D01*
X107061853Y-95499923D01*
X107291476Y-95311476D01*
X107479923Y-95081853D01*
X107490000Y-95063000D01*
X107500077Y-95081853D01*
X107688524Y-95311476D01*
X107918147Y-95499923D01*
X108180121Y-95639951D01*
X108464380Y-95726180D01*
X108685922Y-95748000D01*
X108834078Y-95748000D01*
X109052002Y-95726536D01*
X109052002Y-95794076D01*
X109047971Y-95835001D01*
X109064055Y-95998297D01*
X109111686Y-96155318D01*
X109159607Y-96244971D01*
X109189037Y-96300030D01*
X109293132Y-96426871D01*
X109324917Y-96452956D01*
X109792000Y-96920039D01*
X109792000Y-96959128D01*
X109834580Y-97173192D01*
X109918103Y-97374835D01*
X110039360Y-97556309D01*
X110193691Y-97710640D01*
X110375165Y-97831897D01*
X110576808Y-97915420D01*
X110790872Y-97958000D01*
X111009128Y-97958000D01*
X111223192Y-97915420D01*
X111424835Y-97831897D01*
X111606309Y-97710640D01*
X111760640Y-97556309D01*
X111881897Y-97374835D01*
X111965420Y-97173192D01*
X112008000Y-96959128D01*
X112008000Y-96740872D01*
X111965420Y-96526808D01*
X111881897Y-96325165D01*
X111760640Y-96143691D01*
X111606309Y-95989360D01*
X111424835Y-95868103D01*
X111223192Y-95784580D01*
X111009128Y-95742000D01*
X110970039Y-95742000D01*
X110932378Y-95704338D01*
X111004380Y-95726180D01*
X111225922Y-95748000D01*
X111374078Y-95748000D01*
X111595620Y-95726180D01*
X111879879Y-95639951D01*
X112141853Y-95499923D01*
X112371476Y-95311476D01*
X112559923Y-95081853D01*
X112570000Y-95063000D01*
X112580077Y-95081853D01*
X112768524Y-95311476D01*
X112998147Y-95499923D01*
X113260121Y-95639951D01*
X113544380Y-95726180D01*
X113765922Y-95748000D01*
X113914078Y-95748000D01*
X114135620Y-95726180D01*
X114419879Y-95639951D01*
X114681853Y-95499923D01*
X114911476Y-95311476D01*
X115099923Y-95081853D01*
X115110000Y-95063000D01*
X115120077Y-95081853D01*
X115308524Y-95311476D01*
X115538147Y-95499923D01*
X115800121Y-95639951D01*
X116084380Y-95726180D01*
X116305922Y-95748000D01*
X116454078Y-95748000D01*
X116675620Y-95726180D01*
X116959879Y-95639951D01*
X117221853Y-95499923D01*
X117451476Y-95311476D01*
X117639923Y-95081853D01*
X117650000Y-95063000D01*
X117660077Y-95081853D01*
X117848524Y-95311476D01*
X118078147Y-95499923D01*
X118340121Y-95639951D01*
X118624380Y-95726180D01*
X118845922Y-95748000D01*
X118994078Y-95748000D01*
X119215620Y-95726180D01*
X119225227Y-95723266D01*
X120929001Y-97427041D01*
X120929001Y-98923205D01*
X120687297Y-98823088D01*
X120289695Y-98744000D01*
X119884305Y-98744000D01*
X119486703Y-98823088D01*
X119112171Y-98978224D01*
X118775101Y-99203447D01*
X118488447Y-99490101D01*
X118263224Y-99827171D01*
X118108088Y-100201703D01*
X118029000Y-100599305D01*
X118029000Y-101004695D01*
X118108088Y-101402297D01*
X118263224Y-101776829D01*
X118488447Y-102113899D01*
X118726623Y-102352075D01*
X117967000Y-102352075D01*
X117828208Y-102365745D01*
X117694749Y-102406229D01*
X117571753Y-102471972D01*
X117463947Y-102560447D01*
X117375472Y-102668253D01*
X117309729Y-102791249D01*
X117269245Y-102924708D01*
X117255575Y-103063500D01*
X117255575Y-104763500D01*
X117269245Y-104902292D01*
X117309729Y-105035751D01*
X117375472Y-105158747D01*
X117463947Y-105266553D01*
X117571753Y-105355028D01*
X117662979Y-105403789D01*
X117515303Y-105583734D01*
X117495651Y-105620500D01*
X115048540Y-105620500D01*
X113933000Y-104504961D01*
X113933000Y-102683949D01*
X113960640Y-102656309D01*
X114081897Y-102474835D01*
X114165420Y-102273192D01*
X114208000Y-102059128D01*
X114208000Y-101840872D01*
X114165420Y-101626808D01*
X114081897Y-101425165D01*
X113960640Y-101243691D01*
X113806309Y-101089360D01*
X113624835Y-100968103D01*
X113423192Y-100884580D01*
X113209128Y-100842000D01*
X112990872Y-100842000D01*
X112776808Y-100884580D01*
X112575165Y-100968103D01*
X112393691Y-101089360D01*
X112239360Y-101243691D01*
X112118103Y-101425165D01*
X112034580Y-101626808D01*
X111992000Y-101840872D01*
X111992000Y-102059128D01*
X112034580Y-102273192D01*
X112118103Y-102474835D01*
X112239360Y-102656309D01*
X112267000Y-102683949D01*
X112267001Y-104809075D01*
X112262970Y-104850000D01*
X112279054Y-105013296D01*
X112326685Y-105170317D01*
X112326686Y-105170318D01*
X112404036Y-105315029D01*
X112508131Y-105441870D01*
X112539916Y-105467955D01*
X114085544Y-107013584D01*
X114111630Y-107045370D01*
X114238471Y-107149465D01*
X114383182Y-107226815D01*
X114540204Y-107274447D01*
X114662582Y-107286500D01*
X114662584Y-107286500D01*
X114703499Y-107290530D01*
X114744415Y-107286500D01*
X117495651Y-107286500D01*
X117515303Y-107323266D01*
X117540045Y-107353414D01*
X117081920Y-107811539D01*
X117050129Y-107837629D01*
X116946034Y-107964471D01*
X116868684Y-108109182D01*
X116821052Y-108266204D01*
X116815537Y-108322203D01*
X116804969Y-108429499D01*
X116808999Y-108470415D01*
X116809000Y-110317574D01*
X116804969Y-110358499D01*
X116821053Y-110521795D01*
X116868684Y-110678816D01*
X116935487Y-110803795D01*
X116946035Y-110823528D01*
X117050130Y-110950369D01*
X117081915Y-110976454D01*
X117293645Y-111188184D01*
X117281543Y-111228079D01*
X117251462Y-111533500D01*
X117281543Y-111838921D01*
X117370631Y-112132605D01*
X117515303Y-112403266D01*
X117709997Y-112640503D01*
X117914890Y-112808653D01*
X117720409Y-112966767D01*
X117525567Y-113201967D01*
X117380354Y-113470659D01*
X117290350Y-113762518D01*
X117287554Y-113776586D01*
X117437056Y-114019500D01*
X118763000Y-114019500D01*
X118763000Y-113999500D01*
X118871000Y-113999500D01*
X118871000Y-114019500D01*
X120196944Y-114019500D01*
X120346446Y-113776586D01*
X120343650Y-113762518D01*
X120253646Y-113470659D01*
X120108433Y-113201967D01*
X119913591Y-112966767D01*
X119719110Y-112808653D01*
X119924003Y-112640503D01*
X120118697Y-112403266D01*
X120263369Y-112132605D01*
X120352457Y-111838921D01*
X120382538Y-111533500D01*
X120352457Y-111228079D01*
X120263369Y-110934395D01*
X120118697Y-110663734D01*
X119924003Y-110426497D01*
X119725389Y-110263500D01*
X119924003Y-110100503D01*
X120118697Y-109863266D01*
X120263369Y-109592605D01*
X120352457Y-109298921D01*
X120382538Y-108993500D01*
X120352457Y-108688079D01*
X120340355Y-108648184D01*
X122820083Y-106168457D01*
X122851869Y-106142371D01*
X122912536Y-106068448D01*
X122955964Y-106015531D01*
X123033314Y-105870819D01*
X123038296Y-105854395D01*
X123080946Y-105713797D01*
X123092999Y-105591419D01*
X123092999Y-105591417D01*
X123097029Y-105550501D01*
X123092999Y-105509586D01*
X123092999Y-99236042D01*
X125213504Y-99236042D01*
X125220133Y-99269372D01*
X125326201Y-99607559D01*
X125496208Y-99918555D01*
X125723621Y-100190408D01*
X125999700Y-100412672D01*
X126313836Y-100576804D01*
X126653957Y-100676498D01*
X126936000Y-100530195D01*
X126936000Y-98954000D01*
X125359894Y-98954000D01*
X125213504Y-99236042D01*
X123092999Y-99236042D01*
X123092999Y-95446457D01*
X123158147Y-95499923D01*
X123420121Y-95639951D01*
X123704380Y-95726180D01*
X123925922Y-95748000D01*
X124074078Y-95748000D01*
X124295620Y-95726180D01*
X124579879Y-95639951D01*
X124841853Y-95499923D01*
X124908144Y-95445520D01*
X124919054Y-95556295D01*
X124966686Y-95713317D01*
X125044036Y-95858028D01*
X125148131Y-95984869D01*
X125179921Y-96010958D01*
X126374405Y-97205442D01*
X126313836Y-97223196D01*
X125999700Y-97387328D01*
X125723621Y-97609592D01*
X125496208Y-97881445D01*
X125326201Y-98192441D01*
X125220133Y-98530628D01*
X125213504Y-98563958D01*
X125359894Y-98846000D01*
X126936000Y-98846000D01*
X126936000Y-98826000D01*
X127044000Y-98826000D01*
X127044000Y-98846000D01*
X127064000Y-98846000D01*
X127064000Y-98954000D01*
X127044000Y-98954000D01*
X127044000Y-100530195D01*
X127326043Y-100676498D01*
X127666164Y-100576804D01*
X127980300Y-100412672D01*
X128256379Y-100190408D01*
X128483792Y-99918555D01*
X128653799Y-99607559D01*
X128683100Y-99514137D01*
X150914546Y-121745584D01*
X150940632Y-121777370D01*
X151006270Y-121831237D01*
X151067472Y-121881465D01*
X151212184Y-121958815D01*
X151369206Y-122006447D01*
X151491584Y-122018500D01*
X151491586Y-122018500D01*
X151532502Y-122022530D01*
X151573417Y-122018500D01*
X168087075Y-122018500D01*
X168087075Y-122035500D01*
X168100745Y-122174292D01*
X168141229Y-122307751D01*
X168206972Y-122430747D01*
X168295447Y-122538553D01*
X168403253Y-122627028D01*
X168526249Y-122692771D01*
X168659708Y-122733255D01*
X168798500Y-122746925D01*
X170498500Y-122746925D01*
X170637292Y-122733255D01*
X170770751Y-122692771D01*
X170893747Y-122627028D01*
X171001553Y-122538553D01*
X171090028Y-122430747D01*
X171155771Y-122307751D01*
X171196255Y-122174292D01*
X171209925Y-122035500D01*
X171209925Y-120335500D01*
X171196255Y-120196708D01*
X171155771Y-120063249D01*
X171090028Y-119940253D01*
X171001553Y-119832447D01*
X170893747Y-119743972D01*
X170802521Y-119695211D01*
X170950197Y-119515266D01*
X171094869Y-119244605D01*
X171183957Y-118950921D01*
X171214038Y-118645500D01*
X171183957Y-118340079D01*
X171171855Y-118300184D01*
X172660084Y-116811956D01*
X172691870Y-116785870D01*
X172760499Y-116702245D01*
X172795965Y-116659030D01*
X172843269Y-116570529D01*
X172873315Y-116514318D01*
X172920947Y-116357296D01*
X172933000Y-116234918D01*
X172937030Y-116194000D01*
X172933000Y-116153082D01*
X172933000Y-104077577D01*
X172937030Y-104036661D01*
X172933000Y-103995744D01*
X172920947Y-103873366D01*
X172873315Y-103716344D01*
X172795965Y-103571633D01*
X172691870Y-103444792D01*
X172660085Y-103418707D01*
X171148658Y-101907280D01*
X171170251Y-101889559D01*
X171239559Y-101820251D01*
X171328034Y-101712445D01*
X171382490Y-101630946D01*
X171448234Y-101507946D01*
X171485743Y-101417390D01*
X171526226Y-101283934D01*
X171545348Y-101187801D01*
X171559018Y-101049009D01*
X171559018Y-101024449D01*
X171561426Y-101000000D01*
X171561426Y-100500000D01*
X171559018Y-100475551D01*
X171559018Y-100450991D01*
X171545348Y-100312199D01*
X171526226Y-100216066D01*
X171485743Y-100082610D01*
X171448234Y-99992054D01*
X171382490Y-99869054D01*
X171328034Y-99787555D01*
X171239559Y-99679749D01*
X171183000Y-99623190D01*
X171183000Y-97725913D01*
X171187030Y-97684997D01*
X171174355Y-97556309D01*
X171170947Y-97521702D01*
X171123315Y-97364680D01*
X171045965Y-97219969D01*
X170941870Y-97093128D01*
X170910086Y-97067044D01*
X165808012Y-91964969D01*
X165808012Y-91714514D01*
X165812042Y-91673598D01*
X165803949Y-91591433D01*
X165795959Y-91510303D01*
X165748327Y-91353281D01*
X165670977Y-91208570D01*
X165566882Y-91081729D01*
X165535098Y-91055645D01*
X157967982Y-83488530D01*
X157941892Y-83456739D01*
X157902227Y-83424187D01*
X153086038Y-78607999D01*
X173493550Y-78607999D01*
X173992000Y-79106450D01*
X173991999Y-89084084D01*
X173987969Y-89124999D01*
X173991999Y-89165914D01*
X173991999Y-89165916D01*
X174004052Y-89288294D01*
X174051684Y-89445316D01*
X174129034Y-89590027D01*
X174233129Y-89716869D01*
X174264920Y-89742959D01*
X174576645Y-90054684D01*
X174564543Y-90094579D01*
X174534462Y-90400000D01*
X174564543Y-90705421D01*
X174653631Y-90999105D01*
X174798303Y-91269766D01*
X174992997Y-91507003D01*
X175230234Y-91701697D01*
X175500895Y-91846369D01*
X175794579Y-91935457D01*
X176023465Y-91958000D01*
X176176535Y-91958000D01*
X176405421Y-91935457D01*
X176699105Y-91846369D01*
X176969766Y-91701697D01*
X177149711Y-91554021D01*
X177198472Y-91645247D01*
X177286947Y-91753053D01*
X177394753Y-91841528D01*
X177517749Y-91907271D01*
X177651208Y-91947755D01*
X177790000Y-91961425D01*
X178601266Y-91961425D01*
X178585864Y-92012199D01*
X178567367Y-92200000D01*
X178585864Y-92387801D01*
X178640644Y-92568384D01*
X178729601Y-92734811D01*
X178748604Y-92757966D01*
X174472266Y-97034305D01*
X173801254Y-97034305D01*
X173773614Y-97006665D01*
X173592140Y-96885408D01*
X173390497Y-96801885D01*
X173176433Y-96759305D01*
X172958177Y-96759305D01*
X172744113Y-96801885D01*
X172542470Y-96885408D01*
X172360996Y-97006665D01*
X172206665Y-97160996D01*
X172085408Y-97342470D01*
X172001885Y-97544113D01*
X171959305Y-97758177D01*
X171959305Y-97976433D01*
X172001885Y-98190497D01*
X172085408Y-98392140D01*
X172090193Y-98399301D01*
X172082592Y-98410676D01*
X171999069Y-98612319D01*
X171956489Y-98826383D01*
X171956489Y-99044639D01*
X171999069Y-99258703D01*
X172082592Y-99460346D01*
X172203849Y-99641820D01*
X172358180Y-99796151D01*
X172539654Y-99917408D01*
X172741297Y-100000931D01*
X172955361Y-100043511D01*
X173173617Y-100043511D01*
X173387681Y-100000931D01*
X173589324Y-99917408D01*
X173770798Y-99796151D01*
X173798438Y-99768511D01*
X173928419Y-99768511D01*
X173889224Y-99827171D01*
X173734088Y-100201703D01*
X173655000Y-100599305D01*
X173655000Y-101004695D01*
X173734088Y-101402297D01*
X173889224Y-101776829D01*
X174114447Y-102113899D01*
X174401101Y-102400553D01*
X174738171Y-102625776D01*
X175112703Y-102780912D01*
X175458028Y-102849601D01*
X175435245Y-102924708D01*
X175421575Y-103063500D01*
X175421575Y-104763500D01*
X175435245Y-104902292D01*
X175475729Y-105035751D01*
X175541472Y-105158747D01*
X175629947Y-105266553D01*
X175737753Y-105355028D01*
X175828979Y-105403789D01*
X175681303Y-105583734D01*
X175536631Y-105854395D01*
X175447543Y-106148079D01*
X175417462Y-106453500D01*
X175447543Y-106758921D01*
X175536631Y-107052605D01*
X175681303Y-107323266D01*
X175875997Y-107560503D01*
X176074611Y-107723500D01*
X175875997Y-107886497D01*
X175681303Y-108123734D01*
X175536631Y-108394395D01*
X175447543Y-108688079D01*
X175417462Y-108993500D01*
X175447543Y-109298921D01*
X175536631Y-109592605D01*
X175681303Y-109863266D01*
X175875997Y-110100503D01*
X176074611Y-110263500D01*
X175875997Y-110426497D01*
X175681303Y-110663734D01*
X175536631Y-110934395D01*
X175447543Y-111228079D01*
X175417462Y-111533500D01*
X175447543Y-111838921D01*
X175536631Y-112132605D01*
X175681303Y-112403266D01*
X175875997Y-112640503D01*
X176074611Y-112803500D01*
X175875997Y-112966497D01*
X175681303Y-113203734D01*
X175536631Y-113474395D01*
X175447543Y-113768079D01*
X175417462Y-114073500D01*
X175447543Y-114378921D01*
X175536631Y-114672605D01*
X175681303Y-114943266D01*
X175875997Y-115180503D01*
X176074611Y-115343500D01*
X175875997Y-115506497D01*
X175681303Y-115743734D01*
X175536631Y-116014395D01*
X175447543Y-116308079D01*
X175417462Y-116613500D01*
X175447543Y-116918921D01*
X175536631Y-117212605D01*
X175681303Y-117483266D01*
X175779976Y-117603500D01*
X175510305Y-117603500D01*
X175112703Y-117682588D01*
X174738171Y-117837724D01*
X174401101Y-118062947D01*
X174114447Y-118349601D01*
X173889224Y-118686671D01*
X173734088Y-119061203D01*
X173655000Y-119458805D01*
X173655000Y-119864195D01*
X173734088Y-120261797D01*
X173889224Y-120636329D01*
X174114447Y-120973399D01*
X174401101Y-121260053D01*
X174738171Y-121485276D01*
X175112703Y-121640412D01*
X175510305Y-121719500D01*
X175915695Y-121719500D01*
X176313297Y-121640412D01*
X176687829Y-121485276D01*
X177024899Y-121260053D01*
X177311553Y-120973399D01*
X177536776Y-120636329D01*
X177691912Y-120261797D01*
X177771000Y-119864195D01*
X177771000Y-119458805D01*
X177691912Y-119061203D01*
X177536776Y-118686671D01*
X177311553Y-118349601D01*
X177126825Y-118164873D01*
X177288421Y-118148957D01*
X177582105Y-118059869D01*
X177852766Y-117915197D01*
X178090003Y-117720503D01*
X178284697Y-117483266D01*
X178429369Y-117212605D01*
X178518457Y-116918921D01*
X178548538Y-116613500D01*
X178518457Y-116308079D01*
X178429369Y-116014395D01*
X178284697Y-115743734D01*
X178090003Y-115506497D01*
X177891389Y-115343500D01*
X178090003Y-115180503D01*
X178284697Y-114943266D01*
X178429369Y-114672605D01*
X178518457Y-114378921D01*
X178548538Y-114073500D01*
X178518457Y-113768079D01*
X178429369Y-113474395D01*
X178284697Y-113203734D01*
X178090003Y-112966497D01*
X177891389Y-112803500D01*
X178090003Y-112640503D01*
X178284697Y-112403266D01*
X178429369Y-112132605D01*
X178518457Y-111838921D01*
X178548538Y-111533500D01*
X178518457Y-111228079D01*
X178429369Y-110934395D01*
X178284697Y-110663734D01*
X178090003Y-110426497D01*
X177891389Y-110263500D01*
X178090003Y-110100503D01*
X178284697Y-109863266D01*
X178429369Y-109592605D01*
X178518457Y-109298921D01*
X178548538Y-108993500D01*
X178518457Y-108688079D01*
X178429369Y-108394395D01*
X178284697Y-108123734D01*
X178090003Y-107886497D01*
X177891389Y-107723500D01*
X178090003Y-107560503D01*
X178284697Y-107323266D01*
X178429369Y-107052605D01*
X178518457Y-106758921D01*
X178548538Y-106453500D01*
X178518457Y-106148079D01*
X178429369Y-105854395D01*
X178284697Y-105583734D01*
X178137021Y-105403789D01*
X178228247Y-105355028D01*
X178336053Y-105266553D01*
X178424528Y-105158747D01*
X178490271Y-105035751D01*
X178530755Y-104902292D01*
X178544425Y-104763500D01*
X178544425Y-103063500D01*
X178530755Y-102924708D01*
X178490271Y-102791249D01*
X178424528Y-102668253D01*
X178336053Y-102560447D01*
X178228247Y-102471972D01*
X178105251Y-102406229D01*
X177971792Y-102365745D01*
X177833000Y-102352075D01*
X177073377Y-102352075D01*
X177311553Y-102113899D01*
X177536776Y-101776829D01*
X177691912Y-101402297D01*
X177771000Y-101004695D01*
X177771000Y-100599305D01*
X177691912Y-100201703D01*
X177536776Y-99827171D01*
X177311553Y-99490101D01*
X177024899Y-99203447D01*
X176687829Y-98978224D01*
X176313297Y-98823088D01*
X175915695Y-98744000D01*
X175755061Y-98744000D01*
X181743497Y-92755564D01*
X181775283Y-92729478D01*
X181879378Y-92602637D01*
X181956728Y-92457926D01*
X182004360Y-92300904D01*
X182016413Y-92178526D01*
X182016413Y-92178524D01*
X182020443Y-92137608D01*
X182016413Y-92096693D01*
X182016413Y-82840915D01*
X182020443Y-82799999D01*
X182016413Y-82759082D01*
X182004360Y-82636704D01*
X181956728Y-82479682D01*
X181879378Y-82334971D01*
X181775283Y-82208130D01*
X181743499Y-82182046D01*
X175751373Y-76189921D01*
X175725283Y-76158130D01*
X175598442Y-76054035D01*
X175453731Y-75976685D01*
X175296709Y-75929053D01*
X175174331Y-75917000D01*
X175174328Y-75917000D01*
X175133413Y-75912970D01*
X175092498Y-75917000D01*
X111050918Y-75917000D01*
X111010000Y-75912970D01*
X110846703Y-75929053D01*
X110768193Y-75952869D01*
X110689682Y-75976685D01*
X110617327Y-76015360D01*
X110544970Y-76054035D01*
X110483768Y-76104263D01*
X110418130Y-76158130D01*
X110392044Y-76189916D01*
X109065227Y-77516734D01*
X109055620Y-77513820D01*
X108834078Y-77492000D01*
X108685922Y-77492000D01*
X108464380Y-77513820D01*
X108180121Y-77600049D01*
X107918147Y-77740077D01*
X107688524Y-77928524D01*
X107500077Y-78158147D01*
X107490000Y-78177000D01*
X107479923Y-78158147D01*
X107291476Y-77928524D01*
X107061853Y-77740077D01*
X106799879Y-77600049D01*
X106515620Y-77513820D01*
X106294078Y-77492000D01*
X106145922Y-77492000D01*
X105924380Y-77513820D01*
X105640121Y-77600049D01*
X105378147Y-77740077D01*
X105148524Y-77928524D01*
X104960077Y-78158147D01*
X104950000Y-78177000D01*
X104939923Y-78158147D01*
X104751476Y-77928524D01*
X104521853Y-77740077D01*
X104259879Y-77600049D01*
X103975620Y-77513820D01*
X103754078Y-77492000D01*
X103605922Y-77492000D01*
X103384380Y-77513820D01*
X103100121Y-77600049D01*
X102838147Y-77740077D01*
X102608524Y-77928524D01*
X102420077Y-78158147D01*
X102410000Y-78177000D01*
X102399923Y-78158147D01*
X102211476Y-77928524D01*
X101981853Y-77740077D01*
X101719879Y-77600049D01*
X101435620Y-77513820D01*
X101214078Y-77492000D01*
X101065922Y-77492000D01*
X100844380Y-77513820D01*
X100560121Y-77600049D01*
X100298147Y-77740077D01*
X100068524Y-77928524D01*
X99880077Y-78158147D01*
X99740049Y-78420121D01*
X99653820Y-78704380D01*
X99624704Y-79000000D01*
X97533000Y-79000000D01*
X97533000Y-74735853D01*
X97553362Y-74528176D01*
X98555441Y-74528176D01*
X98555441Y-74871824D01*
X98622484Y-75208869D01*
X98753992Y-75526358D01*
X98944913Y-75812091D01*
X99187909Y-76055087D01*
X99473642Y-76246008D01*
X99791131Y-76377516D01*
X100128176Y-76444559D01*
X100471824Y-76444559D01*
X100808869Y-76377516D01*
X101126358Y-76246008D01*
X101412091Y-76055087D01*
X101655087Y-75812091D01*
X101846008Y-75526358D01*
X101977516Y-75208869D01*
X102044559Y-74871824D01*
X102044559Y-74528176D01*
X178555441Y-74528176D01*
X178555441Y-74871824D01*
X178622484Y-75208869D01*
X178753992Y-75526358D01*
X178944913Y-75812091D01*
X179187909Y-76055087D01*
X179473642Y-76246008D01*
X179791131Y-76377516D01*
X180128176Y-76444559D01*
X180471824Y-76444559D01*
X180808869Y-76377516D01*
X181126358Y-76246008D01*
X181412091Y-76055087D01*
X181655087Y-75812091D01*
X181846008Y-75526358D01*
X181977516Y-75208869D01*
X182044559Y-74871824D01*
X182044559Y-74528176D01*
X181977516Y-74191131D01*
X181846008Y-73873642D01*
X181655087Y-73587909D01*
X181412091Y-73344913D01*
X181126358Y-73153992D01*
X180808869Y-73022484D01*
X180471824Y-72955441D01*
X180128176Y-72955441D01*
X179791131Y-73022484D01*
X179473642Y-73153992D01*
X179187909Y-73344913D01*
X178944913Y-73587909D01*
X178753992Y-73873642D01*
X178622484Y-74191131D01*
X178555441Y-74528176D01*
X102044559Y-74528176D01*
X101977516Y-74191131D01*
X101846008Y-73873642D01*
X101655087Y-73587909D01*
X101412091Y-73344913D01*
X101126358Y-73153992D01*
X100808869Y-73022484D01*
X100471824Y-72955441D01*
X100128176Y-72955441D01*
X99791131Y-73022484D01*
X99473642Y-73153992D01*
X99187909Y-73344913D01*
X98944913Y-73587909D01*
X98753992Y-73873642D01*
X98622484Y-74191131D01*
X98555441Y-74528176D01*
X97553362Y-74528176D01*
X97589146Y-74163234D01*
X97745032Y-73646917D01*
X97998234Y-73170713D01*
X98339113Y-72752753D01*
X98754681Y-72408965D01*
X99229105Y-72152445D01*
X99744325Y-71992958D01*
X100314785Y-71933000D01*
X180264147Y-71933000D01*
X180836766Y-71989146D01*
X180836766Y-71989146D01*
G37*
X180836766Y-71989146D02*
X181353083Y-72145032D01*
X181829287Y-72398234D01*
X182247247Y-72739113D01*
X182591035Y-73154681D01*
X182847555Y-73629105D01*
X183007042Y-74144325D01*
X183067001Y-74714795D01*
X183067000Y-124664147D01*
X183010854Y-125236766D01*
X182854970Y-125753078D01*
X182601765Y-126229290D01*
X182260887Y-126647247D01*
X181845322Y-126991033D01*
X181370897Y-127247554D01*
X180855674Y-127407042D01*
X180285215Y-127467000D01*
X100335853Y-127467000D01*
X99763234Y-127410854D01*
X99246922Y-127254970D01*
X98770710Y-127001765D01*
X98352753Y-126660887D01*
X98008967Y-126245322D01*
X97752446Y-125770897D01*
X97592958Y-125255674D01*
X97533000Y-124685215D01*
X97533000Y-124528176D01*
X98555441Y-124528176D01*
X98555441Y-124871824D01*
X98622484Y-125208869D01*
X98753992Y-125526358D01*
X98944913Y-125812091D01*
X99187909Y-126055087D01*
X99473642Y-126246008D01*
X99791131Y-126377516D01*
X100128176Y-126444559D01*
X100471824Y-126444559D01*
X100808869Y-126377516D01*
X101126358Y-126246008D01*
X101412091Y-126055087D01*
X101655087Y-125812091D01*
X101846008Y-125526358D01*
X101977516Y-125208869D01*
X102044559Y-124871824D01*
X102044559Y-124528176D01*
X178555441Y-124528176D01*
X178555441Y-124871824D01*
X178622484Y-125208869D01*
X178753992Y-125526358D01*
X178944913Y-125812091D01*
X179187909Y-126055087D01*
X179473642Y-126246008D01*
X179791131Y-126377516D01*
X180128176Y-126444559D01*
X180471824Y-126444559D01*
X180808869Y-126377516D01*
X181126358Y-126246008D01*
X181412091Y-126055087D01*
X181655087Y-125812091D01*
X181846008Y-125526358D01*
X181977516Y-125208869D01*
X182044559Y-124871824D01*
X182044559Y-124528176D01*
X181977516Y-124191131D01*
X181846008Y-123873642D01*
X181655087Y-123587909D01*
X181412091Y-123344913D01*
X181126358Y-123153992D01*
X180808869Y-123022484D01*
X180471824Y-122955441D01*
X180128176Y-122955441D01*
X179791131Y-123022484D01*
X179473642Y-123153992D01*
X179187909Y-123344913D01*
X178944913Y-123587909D01*
X178753992Y-123873642D01*
X178622484Y-124191131D01*
X178555441Y-124528176D01*
X102044559Y-124528176D01*
X101977516Y-124191131D01*
X101846008Y-123873642D01*
X101655087Y-123587909D01*
X101412091Y-123344913D01*
X101126358Y-123153992D01*
X100808869Y-123022484D01*
X100471824Y-122955441D01*
X100128176Y-122955441D01*
X99791131Y-123022484D01*
X99473642Y-123153992D01*
X99187909Y-123344913D01*
X98944913Y-123587909D01*
X98753992Y-123873642D01*
X98622484Y-124191131D01*
X98555441Y-124528176D01*
X97533000Y-124528176D01*
X97533000Y-101620000D01*
X100098575Y-101620000D01*
X100098575Y-105580000D01*
X100112245Y-105718792D01*
X100152729Y-105852251D01*
X100218472Y-105975247D01*
X100306947Y-106083053D01*
X100342000Y-106111821D01*
X100342001Y-116927344D01*
X100278472Y-117004753D01*
X100212729Y-117127749D01*
X100172245Y-117261208D01*
X100158575Y-117400000D01*
X100158575Y-120400000D01*
X100172245Y-120538792D01*
X100212729Y-120672251D01*
X100278472Y-120795247D01*
X100366947Y-120903053D01*
X100474753Y-120991528D01*
X100597749Y-121057271D01*
X100731208Y-121097755D01*
X100870000Y-121111425D01*
X103870000Y-121111425D01*
X104008792Y-121097755D01*
X104142251Y-121057271D01*
X104265247Y-120991528D01*
X104373053Y-120903053D01*
X104461528Y-120795247D01*
X104527271Y-120672251D01*
X104567755Y-120538792D01*
X104581425Y-120400000D01*
X104581425Y-120381367D01*
X106045000Y-120381367D01*
X106189963Y-120726162D01*
X106570441Y-120936893D01*
X106984719Y-121069348D01*
X107416878Y-121118437D01*
X107850310Y-121082272D01*
X108268359Y-120962243D01*
X108654958Y-120762963D01*
X108710037Y-120726162D01*
X108855000Y-120381367D01*
X107450000Y-118976368D01*
X106045000Y-120381367D01*
X104581425Y-120381367D01*
X104581425Y-118866878D01*
X105231563Y-118866878D01*
X105267728Y-119300310D01*
X105387757Y-119718359D01*
X105587037Y-120104958D01*
X105623838Y-120160037D01*
X105968633Y-120305000D01*
X107373632Y-118900000D01*
X107526368Y-118900000D01*
X108931367Y-120305000D01*
X109040571Y-120259087D01*
X110469967Y-120259087D01*
X110554803Y-120542272D01*
X110693256Y-120803465D01*
X110880005Y-121032629D01*
X111107873Y-121220957D01*
X111368104Y-121361211D01*
X111650697Y-121448002D01*
X111660913Y-121450031D01*
X111896000Y-121299904D01*
X111896000Y-120024000D01*
X112004000Y-120024000D01*
X112004000Y-121299904D01*
X112239087Y-121450031D01*
X112249303Y-121448002D01*
X112531896Y-121361211D01*
X112792127Y-121220957D01*
X113019995Y-121032629D01*
X113206744Y-120803465D01*
X113345197Y-120542272D01*
X113430033Y-120259087D01*
X113280035Y-120024000D01*
X112004000Y-120024000D01*
X111896000Y-120024000D01*
X110619965Y-120024000D01*
X110469967Y-120259087D01*
X109040571Y-120259087D01*
X109276162Y-120160037D01*
X109486893Y-119779559D01*
X109518432Y-119680913D01*
X110469967Y-119680913D01*
X110619965Y-119916000D01*
X111896000Y-119916000D01*
X111896000Y-118640096D01*
X112004000Y-118640096D01*
X112004000Y-119916000D01*
X113280035Y-119916000D01*
X113430033Y-119680913D01*
X113345197Y-119397728D01*
X113206744Y-119136535D01*
X113019995Y-118907371D01*
X112792127Y-118719043D01*
X112531896Y-118578789D01*
X112249303Y-118491998D01*
X112239087Y-118489969D01*
X112004000Y-118640096D01*
X111896000Y-118640096D01*
X111660913Y-118489969D01*
X111650697Y-118491998D01*
X111368104Y-118578789D01*
X111107873Y-118719043D01*
X110880005Y-118907371D01*
X110693256Y-119136535D01*
X110554803Y-119397728D01*
X110469967Y-119680913D01*
X109518432Y-119680913D01*
X109619348Y-119365281D01*
X109668437Y-118933122D01*
X109632272Y-118499690D01*
X109512243Y-118081641D01*
X109312963Y-117695042D01*
X109276162Y-117639963D01*
X108931367Y-117495000D01*
X107526368Y-118900000D01*
X107373632Y-118900000D01*
X105968633Y-117495000D01*
X105623838Y-117639963D01*
X105413107Y-118020441D01*
X105280652Y-118434719D01*
X105231563Y-118866878D01*
X104581425Y-118866878D01*
X104581425Y-117418633D01*
X106045000Y-117418633D01*
X107450000Y-118823632D01*
X108855000Y-117418633D01*
X108710037Y-117073838D01*
X108414973Y-116910414D01*
X117287554Y-116910414D01*
X117290350Y-116924482D01*
X117380354Y-117216341D01*
X117525567Y-117485033D01*
X117720409Y-117720233D01*
X117957393Y-117912902D01*
X118227411Y-118055635D01*
X118520086Y-118142948D01*
X118762998Y-117993567D01*
X118762998Y-118011550D01*
X118488447Y-118286101D01*
X118263224Y-118623171D01*
X118108088Y-118997703D01*
X118029000Y-119395305D01*
X118029000Y-119800695D01*
X118108088Y-120198297D01*
X118263224Y-120572829D01*
X118488447Y-120909899D01*
X118775101Y-121196553D01*
X119112171Y-121421776D01*
X119486703Y-121576912D01*
X119884305Y-121656000D01*
X120289695Y-121656000D01*
X120687297Y-121576912D01*
X121061829Y-121421776D01*
X121398899Y-121196553D01*
X121685553Y-120909899D01*
X121910776Y-120572829D01*
X122065912Y-120198297D01*
X122145000Y-119800695D01*
X122145000Y-119395305D01*
X122065912Y-118997703D01*
X121910776Y-118623171D01*
X121685553Y-118286101D01*
X121398899Y-117999447D01*
X121061829Y-117774224D01*
X120687297Y-117619088D01*
X120289695Y-117540000D01*
X120062898Y-117540000D01*
X120108433Y-117485033D01*
X120253646Y-117216341D01*
X120343650Y-116924482D01*
X120346446Y-116910414D01*
X120196944Y-116667500D01*
X118871000Y-116667500D01*
X118871000Y-116687500D01*
X118763000Y-116687500D01*
X118763000Y-116667500D01*
X117437056Y-116667500D01*
X117287554Y-116910414D01*
X108414973Y-116910414D01*
X108329559Y-116863107D01*
X107915281Y-116730652D01*
X107483122Y-116681563D01*
X107049690Y-116717728D01*
X106631641Y-116837757D01*
X106245042Y-117037037D01*
X106189963Y-117073838D01*
X106045000Y-117418633D01*
X104581425Y-117418633D01*
X104581425Y-117400000D01*
X104567755Y-117261208D01*
X104527271Y-117127749D01*
X104461528Y-117004753D01*
X104373053Y-116896947D01*
X104265247Y-116808472D01*
X104142251Y-116742729D01*
X104008792Y-116702245D01*
X103870000Y-116688575D01*
X103258000Y-116688575D01*
X103258000Y-114370414D01*
X117287554Y-114370414D01*
X117290350Y-114384482D01*
X117380354Y-114676341D01*
X117525567Y-114945033D01*
X117720409Y-115180233D01*
X117921228Y-115343500D01*
X117720409Y-115506767D01*
X117525567Y-115741967D01*
X117380354Y-116010659D01*
X117290350Y-116302518D01*
X117287554Y-116316586D01*
X117437056Y-116559500D01*
X118763000Y-116559500D01*
X118763000Y-114127500D01*
X118871000Y-114127500D01*
X118871000Y-116559500D01*
X120196944Y-116559500D01*
X120346446Y-116316586D01*
X120343650Y-116302518D01*
X120253646Y-116010659D01*
X120108433Y-115741967D01*
X119913591Y-115506767D01*
X119712772Y-115343500D01*
X119913591Y-115180233D01*
X120108433Y-114945033D01*
X120253646Y-114676341D01*
X120343650Y-114384482D01*
X120346446Y-114370414D01*
X120196944Y-114127500D01*
X118871000Y-114127500D01*
X118763000Y-114127500D01*
X117437056Y-114127500D01*
X117287554Y-114370414D01*
X103258000Y-114370414D01*
X103258000Y-113961425D01*
X105050000Y-113961425D01*
X105188792Y-113947755D01*
X105322251Y-113907271D01*
X105445247Y-113841528D01*
X105553053Y-113753053D01*
X105641528Y-113645247D01*
X105665903Y-113599645D01*
X105928327Y-113774991D01*
X106220964Y-113896205D01*
X106531626Y-113958000D01*
X106848374Y-113958000D01*
X107159036Y-113896205D01*
X107451673Y-113774991D01*
X107715040Y-113599015D01*
X107939015Y-113375040D01*
X108114991Y-113111673D01*
X108236205Y-112819036D01*
X108298000Y-112508374D01*
X108298000Y-112201475D01*
X110442000Y-112201475D01*
X110442000Y-112498525D01*
X110499951Y-112789868D01*
X110613627Y-113064306D01*
X110778660Y-113311294D01*
X110988706Y-113521340D01*
X111235694Y-113686373D01*
X111510132Y-113800049D01*
X111801475Y-113858000D01*
X112098525Y-113858000D01*
X112389868Y-113800049D01*
X112664306Y-113686373D01*
X112911294Y-113521340D01*
X113121340Y-113311294D01*
X113286373Y-113064306D01*
X113400049Y-112789868D01*
X113458000Y-112498525D01*
X113458000Y-112201475D01*
X113400049Y-111910132D01*
X113286373Y-111635694D01*
X113121340Y-111388706D01*
X112911294Y-111178660D01*
X112664306Y-111013627D01*
X112389868Y-110899951D01*
X112098525Y-110842000D01*
X111801475Y-110842000D01*
X111510132Y-110899951D01*
X111235694Y-111013627D01*
X110988706Y-111178660D01*
X110778660Y-111388706D01*
X110613627Y-111635694D01*
X110499951Y-111910132D01*
X110442000Y-112201475D01*
X108298000Y-112201475D01*
X108298000Y-112191626D01*
X108236205Y-111880964D01*
X108114991Y-111588327D01*
X107939015Y-111324960D01*
X107715040Y-111100985D01*
X107451673Y-110925009D01*
X107159036Y-110803795D01*
X106848374Y-110742000D01*
X106531626Y-110742000D01*
X106220964Y-110803795D01*
X105928327Y-110925009D01*
X105665903Y-111100355D01*
X105641528Y-111054753D01*
X105553053Y-110946947D01*
X105445247Y-110858472D01*
X105322251Y-110792729D01*
X105188792Y-110752245D01*
X105050000Y-110738575D01*
X103258000Y-110738575D01*
X103258000Y-106111821D01*
X103293053Y-106083053D01*
X103381528Y-105975247D01*
X103447271Y-105852251D01*
X103487755Y-105718792D01*
X103501425Y-105580000D01*
X103501425Y-102526592D01*
X105102000Y-102526592D01*
X105102001Y-104673409D01*
X105126570Y-104922866D01*
X105223664Y-105242940D01*
X105381335Y-105537922D01*
X105593525Y-105796476D01*
X105852079Y-106008666D01*
X106147061Y-106166337D01*
X106467135Y-106263431D01*
X106800000Y-106296215D01*
X107132866Y-106263431D01*
X107452940Y-106166337D01*
X107747922Y-106008666D01*
X108006476Y-105796476D01*
X108218666Y-105537922D01*
X108376337Y-105242940D01*
X108473431Y-104922866D01*
X108498000Y-104673409D01*
X108498000Y-102526591D01*
X108473431Y-102277134D01*
X108376337Y-101957060D01*
X108218666Y-101662078D01*
X108006476Y-101403524D01*
X107747921Y-101191334D01*
X107452939Y-101033663D01*
X107132865Y-100936569D01*
X106800000Y-100903785D01*
X106467134Y-100936569D01*
X106147060Y-101033663D01*
X105852078Y-101191334D01*
X105593524Y-101403524D01*
X105381334Y-101662079D01*
X105223663Y-101957061D01*
X105126569Y-102277135D01*
X105102000Y-102526592D01*
X103501425Y-102526592D01*
X103501425Y-101620000D01*
X103487755Y-101481208D01*
X103447271Y-101347749D01*
X103381528Y-101224753D01*
X103293053Y-101116947D01*
X103185247Y-101028472D01*
X103062251Y-100962729D01*
X102928792Y-100922245D01*
X102790000Y-100908575D01*
X100810000Y-100908575D01*
X100671208Y-100922245D01*
X100537749Y-100962729D01*
X100414753Y-101028472D01*
X100306947Y-101116947D01*
X100218472Y-101224753D01*
X100152729Y-101347749D01*
X100112245Y-101481208D01*
X100098575Y-101620000D01*
X97533000Y-101620000D01*
X97533000Y-79000000D01*
X99624704Y-79000000D01*
X99653820Y-79295620D01*
X99740049Y-79579879D01*
X99880077Y-79841853D01*
X100068524Y-80071476D01*
X100298147Y-80259923D01*
X100560121Y-80399951D01*
X100844380Y-80486180D01*
X101065922Y-80508000D01*
X101214078Y-80508000D01*
X101435620Y-80486180D01*
X101719879Y-80399951D01*
X101981853Y-80259923D01*
X102211476Y-80071476D01*
X102399923Y-79841853D01*
X102410000Y-79823000D01*
X102420077Y-79841853D01*
X102608524Y-80071476D01*
X102838147Y-80259923D01*
X103100121Y-80399951D01*
X103384380Y-80486180D01*
X103605922Y-80508000D01*
X103754078Y-80508000D01*
X103975620Y-80486180D01*
X104259879Y-80399951D01*
X104521853Y-80259923D01*
X104751476Y-80071476D01*
X104939923Y-79841853D01*
X104950000Y-79823000D01*
X104960077Y-79841853D01*
X105148524Y-80071476D01*
X105378147Y-80259923D01*
X105640121Y-80399951D01*
X105924380Y-80486180D01*
X106145922Y-80508000D01*
X106294078Y-80508000D01*
X106515620Y-80486180D01*
X106525227Y-80483266D01*
X109052001Y-83010041D01*
X109052002Y-92753464D01*
X108834078Y-92732000D01*
X108685922Y-92732000D01*
X108464380Y-92753820D01*
X108180121Y-92840049D01*
X107918147Y-92980077D01*
X107688524Y-93168524D01*
X107500077Y-93398147D01*
X107490000Y-93417000D01*
X107479923Y-93398147D01*
X107291476Y-93168524D01*
X107061853Y-92980077D01*
X106799879Y-92840049D01*
X106515620Y-92753820D01*
X106294078Y-92732000D01*
X106145922Y-92732000D01*
X105924380Y-92753820D01*
X105640121Y-92840049D01*
X105378147Y-92980077D01*
X105148524Y-93168524D01*
X104960077Y-93398147D01*
X104950000Y-93417000D01*
X104939923Y-93398147D01*
X104751476Y-93168524D01*
X104521853Y-92980077D01*
X104259879Y-92840049D01*
X103975620Y-92753820D01*
X103754078Y-92732000D01*
X103605922Y-92732000D01*
X103384380Y-92753820D01*
X103100121Y-92840049D01*
X102838147Y-92980077D01*
X102608524Y-93168524D01*
X102420077Y-93398147D01*
X102410000Y-93417000D01*
X102399923Y-93398147D01*
X102211476Y-93168524D01*
X101981853Y-92980077D01*
X101719879Y-92840049D01*
X101435620Y-92753820D01*
X101214078Y-92732000D01*
X101065922Y-92732000D01*
X100844380Y-92753820D01*
X100560121Y-92840049D01*
X100298147Y-92980077D01*
X100068524Y-93168524D01*
X99880077Y-93398147D01*
X99740049Y-93660121D01*
X99653820Y-93944380D01*
X99624704Y-94240000D01*
X99653820Y-94535620D01*
X99740049Y-94819879D01*
X99880077Y-95081853D01*
X100068524Y-95311476D01*
X100298147Y-95499923D01*
X100560121Y-95639951D01*
X100844380Y-95726180D01*
X101065922Y-95748000D01*
X101214078Y-95748000D01*
X101435620Y-95726180D01*
X101719879Y-95639951D01*
X101981853Y-95499923D01*
X102211476Y-95311476D01*
X102399923Y-95081853D01*
X102410000Y-95063000D01*
X102420077Y-95081853D01*
X102608524Y-95311476D01*
X102838147Y-95499923D01*
X103100121Y-95639951D01*
X103384380Y-95726180D01*
X103605922Y-95748000D01*
X103754078Y-95748000D01*
X103975620Y-95726180D01*
X104259879Y-95639951D01*
X104521853Y-95499923D01*
X104751476Y-95311476D01*
X104939923Y-95081853D01*
X104950000Y-95063000D01*
X104960077Y-95081853D01*
X105148524Y-95311476D01*
X105378147Y-95499923D01*
X105640121Y-95639951D01*
X105924380Y-95726180D01*
X106145922Y-95748000D01*
X106294078Y-95748000D01*
X106515620Y-95726180D01*
X106799879Y-95639951D01*
X107061853Y-95499923D01*
X107291476Y-95311476D01*
X107479923Y-95081853D01*
X107490000Y-95063000D01*
X107500077Y-95081853D01*
X107688524Y-95311476D01*
X107918147Y-95499923D01*
X108180121Y-95639951D01*
X108464380Y-95726180D01*
X108685922Y-95748000D01*
X108834078Y-95748000D01*
X109052002Y-95726536D01*
X109052002Y-95794076D01*
X109047971Y-95835001D01*
X109064055Y-95998297D01*
X109111686Y-96155318D01*
X109159607Y-96244971D01*
X109189037Y-96300030D01*
X109293132Y-96426871D01*
X109324917Y-96452956D01*
X109792000Y-96920039D01*
X109792000Y-96959128D01*
X109834580Y-97173192D01*
X109918103Y-97374835D01*
X110039360Y-97556309D01*
X110193691Y-97710640D01*
X110375165Y-97831897D01*
X110576808Y-97915420D01*
X110790872Y-97958000D01*
X111009128Y-97958000D01*
X111223192Y-97915420D01*
X111424835Y-97831897D01*
X111606309Y-97710640D01*
X111760640Y-97556309D01*
X111881897Y-97374835D01*
X111965420Y-97173192D01*
X112008000Y-96959128D01*
X112008000Y-96740872D01*
X111965420Y-96526808D01*
X111881897Y-96325165D01*
X111760640Y-96143691D01*
X111606309Y-95989360D01*
X111424835Y-95868103D01*
X111223192Y-95784580D01*
X111009128Y-95742000D01*
X110970039Y-95742000D01*
X110932378Y-95704338D01*
X111004380Y-95726180D01*
X111225922Y-95748000D01*
X111374078Y-95748000D01*
X111595620Y-95726180D01*
X111879879Y-95639951D01*
X112141853Y-95499923D01*
X112371476Y-95311476D01*
X112559923Y-95081853D01*
X112570000Y-95063000D01*
X112580077Y-95081853D01*
X112768524Y-95311476D01*
X112998147Y-95499923D01*
X113260121Y-95639951D01*
X113544380Y-95726180D01*
X113765922Y-95748000D01*
X113914078Y-95748000D01*
X114135620Y-95726180D01*
X114419879Y-95639951D01*
X114681853Y-95499923D01*
X114911476Y-95311476D01*
X115099923Y-95081853D01*
X115110000Y-95063000D01*
X115120077Y-95081853D01*
X115308524Y-95311476D01*
X115538147Y-95499923D01*
X115800121Y-95639951D01*
X116084380Y-95726180D01*
X116305922Y-95748000D01*
X116454078Y-95748000D01*
X116675620Y-95726180D01*
X116959879Y-95639951D01*
X117221853Y-95499923D01*
X117451476Y-95311476D01*
X117639923Y-95081853D01*
X117650000Y-95063000D01*
X117660077Y-95081853D01*
X117848524Y-95311476D01*
X118078147Y-95499923D01*
X118340121Y-95639951D01*
X118624380Y-95726180D01*
X118845922Y-95748000D01*
X118994078Y-95748000D01*
X119215620Y-95726180D01*
X119225227Y-95723266D01*
X120929001Y-97427041D01*
X120929001Y-98923205D01*
X120687297Y-98823088D01*
X120289695Y-98744000D01*
X119884305Y-98744000D01*
X119486703Y-98823088D01*
X119112171Y-98978224D01*
X118775101Y-99203447D01*
X118488447Y-99490101D01*
X118263224Y-99827171D01*
X118108088Y-100201703D01*
X118029000Y-100599305D01*
X118029000Y-101004695D01*
X118108088Y-101402297D01*
X118263224Y-101776829D01*
X118488447Y-102113899D01*
X118726623Y-102352075D01*
X117967000Y-102352075D01*
X117828208Y-102365745D01*
X117694749Y-102406229D01*
X117571753Y-102471972D01*
X117463947Y-102560447D01*
X117375472Y-102668253D01*
X117309729Y-102791249D01*
X117269245Y-102924708D01*
X117255575Y-103063500D01*
X117255575Y-104763500D01*
X117269245Y-104902292D01*
X117309729Y-105035751D01*
X117375472Y-105158747D01*
X117463947Y-105266553D01*
X117571753Y-105355028D01*
X117662979Y-105403789D01*
X117515303Y-105583734D01*
X117495651Y-105620500D01*
X115048540Y-105620500D01*
X113933000Y-104504961D01*
X113933000Y-102683949D01*
X113960640Y-102656309D01*
X114081897Y-102474835D01*
X114165420Y-102273192D01*
X114208000Y-102059128D01*
X114208000Y-101840872D01*
X114165420Y-101626808D01*
X114081897Y-101425165D01*
X113960640Y-101243691D01*
X113806309Y-101089360D01*
X113624835Y-100968103D01*
X113423192Y-100884580D01*
X113209128Y-100842000D01*
X112990872Y-100842000D01*
X112776808Y-100884580D01*
X112575165Y-100968103D01*
X112393691Y-101089360D01*
X112239360Y-101243691D01*
X112118103Y-101425165D01*
X112034580Y-101626808D01*
X111992000Y-101840872D01*
X111992000Y-102059128D01*
X112034580Y-102273192D01*
X112118103Y-102474835D01*
X112239360Y-102656309D01*
X112267000Y-102683949D01*
X112267001Y-104809075D01*
X112262970Y-104850000D01*
X112279054Y-105013296D01*
X112326685Y-105170317D01*
X112326686Y-105170318D01*
X112404036Y-105315029D01*
X112508131Y-105441870D01*
X112539916Y-105467955D01*
X114085544Y-107013584D01*
X114111630Y-107045370D01*
X114238471Y-107149465D01*
X114383182Y-107226815D01*
X114540204Y-107274447D01*
X114662582Y-107286500D01*
X114662584Y-107286500D01*
X114703499Y-107290530D01*
X114744415Y-107286500D01*
X117495651Y-107286500D01*
X117515303Y-107323266D01*
X117540045Y-107353414D01*
X117081920Y-107811539D01*
X117050129Y-107837629D01*
X116946034Y-107964471D01*
X116868684Y-108109182D01*
X116821052Y-108266204D01*
X116815537Y-108322203D01*
X116804969Y-108429499D01*
X116808999Y-108470415D01*
X116809000Y-110317574D01*
X116804969Y-110358499D01*
X116821053Y-110521795D01*
X116868684Y-110678816D01*
X116935487Y-110803795D01*
X116946035Y-110823528D01*
X117050130Y-110950369D01*
X117081915Y-110976454D01*
X117293645Y-111188184D01*
X117281543Y-111228079D01*
X117251462Y-111533500D01*
X117281543Y-111838921D01*
X117370631Y-112132605D01*
X117515303Y-112403266D01*
X117709997Y-112640503D01*
X117914890Y-112808653D01*
X117720409Y-112966767D01*
X117525567Y-113201967D01*
X117380354Y-113470659D01*
X117290350Y-113762518D01*
X117287554Y-113776586D01*
X117437056Y-114019500D01*
X118763000Y-114019500D01*
X118763000Y-113999500D01*
X118871000Y-113999500D01*
X118871000Y-114019500D01*
X120196944Y-114019500D01*
X120346446Y-113776586D01*
X120343650Y-113762518D01*
X120253646Y-113470659D01*
X120108433Y-113201967D01*
X119913591Y-112966767D01*
X119719110Y-112808653D01*
X119924003Y-112640503D01*
X120118697Y-112403266D01*
X120263369Y-112132605D01*
X120352457Y-111838921D01*
X120382538Y-111533500D01*
X120352457Y-111228079D01*
X120263369Y-110934395D01*
X120118697Y-110663734D01*
X119924003Y-110426497D01*
X119725389Y-110263500D01*
X119924003Y-110100503D01*
X120118697Y-109863266D01*
X120263369Y-109592605D01*
X120352457Y-109298921D01*
X120382538Y-108993500D01*
X120352457Y-108688079D01*
X120340355Y-108648184D01*
X122820083Y-106168457D01*
X122851869Y-106142371D01*
X122912536Y-106068448D01*
X122955964Y-106015531D01*
X123033314Y-105870819D01*
X123038296Y-105854395D01*
X123080946Y-105713797D01*
X123092999Y-105591419D01*
X123092999Y-105591417D01*
X123097029Y-105550501D01*
X123092999Y-105509586D01*
X123092999Y-99236042D01*
X125213504Y-99236042D01*
X125220133Y-99269372D01*
X125326201Y-99607559D01*
X125496208Y-99918555D01*
X125723621Y-100190408D01*
X125999700Y-100412672D01*
X126313836Y-100576804D01*
X126653957Y-100676498D01*
X126936000Y-100530195D01*
X126936000Y-98954000D01*
X125359894Y-98954000D01*
X125213504Y-99236042D01*
X123092999Y-99236042D01*
X123092999Y-95446457D01*
X123158147Y-95499923D01*
X123420121Y-95639951D01*
X123704380Y-95726180D01*
X123925922Y-95748000D01*
X124074078Y-95748000D01*
X124295620Y-95726180D01*
X124579879Y-95639951D01*
X124841853Y-95499923D01*
X124908144Y-95445520D01*
X124919054Y-95556295D01*
X124966686Y-95713317D01*
X125044036Y-95858028D01*
X125148131Y-95984869D01*
X125179921Y-96010958D01*
X126374405Y-97205442D01*
X126313836Y-97223196D01*
X125999700Y-97387328D01*
X125723621Y-97609592D01*
X125496208Y-97881445D01*
X125326201Y-98192441D01*
X125220133Y-98530628D01*
X125213504Y-98563958D01*
X125359894Y-98846000D01*
X126936000Y-98846000D01*
X126936000Y-98826000D01*
X127044000Y-98826000D01*
X127044000Y-98846000D01*
X127064000Y-98846000D01*
X127064000Y-98954000D01*
X127044000Y-98954000D01*
X127044000Y-100530195D01*
X127326043Y-100676498D01*
X127666164Y-100576804D01*
X127980300Y-100412672D01*
X128256379Y-100190408D01*
X128483792Y-99918555D01*
X128653799Y-99607559D01*
X128683100Y-99514137D01*
X150914546Y-121745584D01*
X150940632Y-121777370D01*
X151006270Y-121831237D01*
X151067472Y-121881465D01*
X151212184Y-121958815D01*
X151369206Y-122006447D01*
X151491584Y-122018500D01*
X151491586Y-122018500D01*
X151532502Y-122022530D01*
X151573417Y-122018500D01*
X168087075Y-122018500D01*
X168087075Y-122035500D01*
X168100745Y-122174292D01*
X168141229Y-122307751D01*
X168206972Y-122430747D01*
X168295447Y-122538553D01*
X168403253Y-122627028D01*
X168526249Y-122692771D01*
X168659708Y-122733255D01*
X168798500Y-122746925D01*
X170498500Y-122746925D01*
X170637292Y-122733255D01*
X170770751Y-122692771D01*
X170893747Y-122627028D01*
X171001553Y-122538553D01*
X171090028Y-122430747D01*
X171155771Y-122307751D01*
X171196255Y-122174292D01*
X171209925Y-122035500D01*
X171209925Y-120335500D01*
X171196255Y-120196708D01*
X171155771Y-120063249D01*
X171090028Y-119940253D01*
X171001553Y-119832447D01*
X170893747Y-119743972D01*
X170802521Y-119695211D01*
X170950197Y-119515266D01*
X171094869Y-119244605D01*
X171183957Y-118950921D01*
X171214038Y-118645500D01*
X171183957Y-118340079D01*
X171171855Y-118300184D01*
X172660084Y-116811956D01*
X172691870Y-116785870D01*
X172760499Y-116702245D01*
X172795965Y-116659030D01*
X172843269Y-116570529D01*
X172873315Y-116514318D01*
X172920947Y-116357296D01*
X172933000Y-116234918D01*
X172937030Y-116194000D01*
X172933000Y-116153082D01*
X172933000Y-104077577D01*
X172937030Y-104036661D01*
X172933000Y-103995744D01*
X172920947Y-103873366D01*
X172873315Y-103716344D01*
X172795965Y-103571633D01*
X172691870Y-103444792D01*
X172660085Y-103418707D01*
X171148658Y-101907280D01*
X171170251Y-101889559D01*
X171239559Y-101820251D01*
X171328034Y-101712445D01*
X171382490Y-101630946D01*
X171448234Y-101507946D01*
X171485743Y-101417390D01*
X171526226Y-101283934D01*
X171545348Y-101187801D01*
X171559018Y-101049009D01*
X171559018Y-101024449D01*
X171561426Y-101000000D01*
X171561426Y-100500000D01*
X171559018Y-100475551D01*
X171559018Y-100450991D01*
X171545348Y-100312199D01*
X171526226Y-100216066D01*
X171485743Y-100082610D01*
X171448234Y-99992054D01*
X171382490Y-99869054D01*
X171328034Y-99787555D01*
X171239559Y-99679749D01*
X171183000Y-99623190D01*
X171183000Y-97725913D01*
X171187030Y-97684997D01*
X171174355Y-97556309D01*
X171170947Y-97521702D01*
X171123315Y-97364680D01*
X171045965Y-97219969D01*
X170941870Y-97093128D01*
X170910086Y-97067044D01*
X165808012Y-91964969D01*
X165808012Y-91714514D01*
X165812042Y-91673598D01*
X165803949Y-91591433D01*
X165795959Y-91510303D01*
X165748327Y-91353281D01*
X165670977Y-91208570D01*
X165566882Y-91081729D01*
X165535098Y-91055645D01*
X157967982Y-83488530D01*
X157941892Y-83456739D01*
X157902227Y-83424187D01*
X153086038Y-78607999D01*
X173493550Y-78607999D01*
X173992000Y-79106450D01*
X173991999Y-89084084D01*
X173987969Y-89124999D01*
X173991999Y-89165914D01*
X173991999Y-89165916D01*
X174004052Y-89288294D01*
X174051684Y-89445316D01*
X174129034Y-89590027D01*
X174233129Y-89716869D01*
X174264920Y-89742959D01*
X174576645Y-90054684D01*
X174564543Y-90094579D01*
X174534462Y-90400000D01*
X174564543Y-90705421D01*
X174653631Y-90999105D01*
X174798303Y-91269766D01*
X174992997Y-91507003D01*
X175230234Y-91701697D01*
X175500895Y-91846369D01*
X175794579Y-91935457D01*
X176023465Y-91958000D01*
X176176535Y-91958000D01*
X176405421Y-91935457D01*
X176699105Y-91846369D01*
X176969766Y-91701697D01*
X177149711Y-91554021D01*
X177198472Y-91645247D01*
X177286947Y-91753053D01*
X177394753Y-91841528D01*
X177517749Y-91907271D01*
X177651208Y-91947755D01*
X177790000Y-91961425D01*
X178601266Y-91961425D01*
X178585864Y-92012199D01*
X178567367Y-92200000D01*
X178585864Y-92387801D01*
X178640644Y-92568384D01*
X178729601Y-92734811D01*
X178748604Y-92757966D01*
X174472266Y-97034305D01*
X173801254Y-97034305D01*
X173773614Y-97006665D01*
X173592140Y-96885408D01*
X173390497Y-96801885D01*
X173176433Y-96759305D01*
X172958177Y-96759305D01*
X172744113Y-96801885D01*
X172542470Y-96885408D01*
X172360996Y-97006665D01*
X172206665Y-97160996D01*
X172085408Y-97342470D01*
X172001885Y-97544113D01*
X171959305Y-97758177D01*
X171959305Y-97976433D01*
X172001885Y-98190497D01*
X172085408Y-98392140D01*
X172090193Y-98399301D01*
X172082592Y-98410676D01*
X171999069Y-98612319D01*
X171956489Y-98826383D01*
X171956489Y-99044639D01*
X171999069Y-99258703D01*
X172082592Y-99460346D01*
X172203849Y-99641820D01*
X172358180Y-99796151D01*
X172539654Y-99917408D01*
X172741297Y-100000931D01*
X172955361Y-100043511D01*
X173173617Y-100043511D01*
X173387681Y-100000931D01*
X173589324Y-99917408D01*
X173770798Y-99796151D01*
X173798438Y-99768511D01*
X173928419Y-99768511D01*
X173889224Y-99827171D01*
X173734088Y-100201703D01*
X173655000Y-100599305D01*
X173655000Y-101004695D01*
X173734088Y-101402297D01*
X173889224Y-101776829D01*
X174114447Y-102113899D01*
X174401101Y-102400553D01*
X174738171Y-102625776D01*
X175112703Y-102780912D01*
X175458028Y-102849601D01*
X175435245Y-102924708D01*
X175421575Y-103063500D01*
X175421575Y-104763500D01*
X175435245Y-104902292D01*
X175475729Y-105035751D01*
X175541472Y-105158747D01*
X175629947Y-105266553D01*
X175737753Y-105355028D01*
X175828979Y-105403789D01*
X175681303Y-105583734D01*
X175536631Y-105854395D01*
X175447543Y-106148079D01*
X175417462Y-106453500D01*
X175447543Y-106758921D01*
X175536631Y-107052605D01*
X175681303Y-107323266D01*
X175875997Y-107560503D01*
X176074611Y-107723500D01*
X175875997Y-107886497D01*
X175681303Y-108123734D01*
X175536631Y-108394395D01*
X175447543Y-108688079D01*
X175417462Y-108993500D01*
X175447543Y-109298921D01*
X175536631Y-109592605D01*
X175681303Y-109863266D01*
X175875997Y-110100503D01*
X176074611Y-110263500D01*
X175875997Y-110426497D01*
X175681303Y-110663734D01*
X175536631Y-110934395D01*
X175447543Y-111228079D01*
X175417462Y-111533500D01*
X175447543Y-111838921D01*
X175536631Y-112132605D01*
X175681303Y-112403266D01*
X175875997Y-112640503D01*
X176074611Y-112803500D01*
X175875997Y-112966497D01*
X175681303Y-113203734D01*
X175536631Y-113474395D01*
X175447543Y-113768079D01*
X175417462Y-114073500D01*
X175447543Y-114378921D01*
X175536631Y-114672605D01*
X175681303Y-114943266D01*
X175875997Y-115180503D01*
X176074611Y-115343500D01*
X175875997Y-115506497D01*
X175681303Y-115743734D01*
X175536631Y-116014395D01*
X175447543Y-116308079D01*
X175417462Y-116613500D01*
X175447543Y-116918921D01*
X175536631Y-117212605D01*
X175681303Y-117483266D01*
X175779976Y-117603500D01*
X175510305Y-117603500D01*
X175112703Y-117682588D01*
X174738171Y-117837724D01*
X174401101Y-118062947D01*
X174114447Y-118349601D01*
X173889224Y-118686671D01*
X173734088Y-119061203D01*
X173655000Y-119458805D01*
X173655000Y-119864195D01*
X173734088Y-120261797D01*
X173889224Y-120636329D01*
X174114447Y-120973399D01*
X174401101Y-121260053D01*
X174738171Y-121485276D01*
X175112703Y-121640412D01*
X175510305Y-121719500D01*
X175915695Y-121719500D01*
X176313297Y-121640412D01*
X176687829Y-121485276D01*
X177024899Y-121260053D01*
X177311553Y-120973399D01*
X177536776Y-120636329D01*
X177691912Y-120261797D01*
X177771000Y-119864195D01*
X177771000Y-119458805D01*
X177691912Y-119061203D01*
X177536776Y-118686671D01*
X177311553Y-118349601D01*
X177126825Y-118164873D01*
X177288421Y-118148957D01*
X177582105Y-118059869D01*
X177852766Y-117915197D01*
X178090003Y-117720503D01*
X178284697Y-117483266D01*
X178429369Y-117212605D01*
X178518457Y-116918921D01*
X178548538Y-116613500D01*
X178518457Y-116308079D01*
X178429369Y-116014395D01*
X178284697Y-115743734D01*
X178090003Y-115506497D01*
X177891389Y-115343500D01*
X178090003Y-115180503D01*
X178284697Y-114943266D01*
X178429369Y-114672605D01*
X178518457Y-114378921D01*
X178548538Y-114073500D01*
X178518457Y-113768079D01*
X178429369Y-113474395D01*
X178284697Y-113203734D01*
X178090003Y-112966497D01*
X177891389Y-112803500D01*
X178090003Y-112640503D01*
X178284697Y-112403266D01*
X178429369Y-112132605D01*
X178518457Y-111838921D01*
X178548538Y-111533500D01*
X178518457Y-111228079D01*
X178429369Y-110934395D01*
X178284697Y-110663734D01*
X178090003Y-110426497D01*
X177891389Y-110263500D01*
X178090003Y-110100503D01*
X178284697Y-109863266D01*
X178429369Y-109592605D01*
X178518457Y-109298921D01*
X178548538Y-108993500D01*
X178518457Y-108688079D01*
X178429369Y-108394395D01*
X178284697Y-108123734D01*
X178090003Y-107886497D01*
X177891389Y-107723500D01*
X178090003Y-107560503D01*
X178284697Y-107323266D01*
X178429369Y-107052605D01*
X178518457Y-106758921D01*
X178548538Y-106453500D01*
X178518457Y-106148079D01*
X178429369Y-105854395D01*
X178284697Y-105583734D01*
X178137021Y-105403789D01*
X178228247Y-105355028D01*
X178336053Y-105266553D01*
X178424528Y-105158747D01*
X178490271Y-105035751D01*
X178530755Y-104902292D01*
X178544425Y-104763500D01*
X178544425Y-103063500D01*
X178530755Y-102924708D01*
X178490271Y-102791249D01*
X178424528Y-102668253D01*
X178336053Y-102560447D01*
X178228247Y-102471972D01*
X178105251Y-102406229D01*
X177971792Y-102365745D01*
X177833000Y-102352075D01*
X177073377Y-102352075D01*
X177311553Y-102113899D01*
X177536776Y-101776829D01*
X177691912Y-101402297D01*
X177771000Y-101004695D01*
X177771000Y-100599305D01*
X177691912Y-100201703D01*
X177536776Y-99827171D01*
X177311553Y-99490101D01*
X177024899Y-99203447D01*
X176687829Y-98978224D01*
X176313297Y-98823088D01*
X175915695Y-98744000D01*
X175755061Y-98744000D01*
X181743497Y-92755564D01*
X181775283Y-92729478D01*
X181879378Y-92602637D01*
X181956728Y-92457926D01*
X182004360Y-92300904D01*
X182016413Y-92178526D01*
X182016413Y-92178524D01*
X182020443Y-92137608D01*
X182016413Y-92096693D01*
X182016413Y-82840915D01*
X182020443Y-82799999D01*
X182016413Y-82759082D01*
X182004360Y-82636704D01*
X181956728Y-82479682D01*
X181879378Y-82334971D01*
X181775283Y-82208130D01*
X181743499Y-82182046D01*
X175751373Y-76189921D01*
X175725283Y-76158130D01*
X175598442Y-76054035D01*
X175453731Y-75976685D01*
X175296709Y-75929053D01*
X175174331Y-75917000D01*
X175174328Y-75917000D01*
X175133413Y-75912970D01*
X175092498Y-75917000D01*
X111050918Y-75917000D01*
X111010000Y-75912970D01*
X110846703Y-75929053D01*
X110768193Y-75952869D01*
X110689682Y-75976685D01*
X110617327Y-76015360D01*
X110544970Y-76054035D01*
X110483768Y-76104263D01*
X110418130Y-76158130D01*
X110392044Y-76189916D01*
X109065227Y-77516734D01*
X109055620Y-77513820D01*
X108834078Y-77492000D01*
X108685922Y-77492000D01*
X108464380Y-77513820D01*
X108180121Y-77600049D01*
X107918147Y-77740077D01*
X107688524Y-77928524D01*
X107500077Y-78158147D01*
X107490000Y-78177000D01*
X107479923Y-78158147D01*
X107291476Y-77928524D01*
X107061853Y-77740077D01*
X106799879Y-77600049D01*
X106515620Y-77513820D01*
X106294078Y-77492000D01*
X106145922Y-77492000D01*
X105924380Y-77513820D01*
X105640121Y-77600049D01*
X105378147Y-77740077D01*
X105148524Y-77928524D01*
X104960077Y-78158147D01*
X104950000Y-78177000D01*
X104939923Y-78158147D01*
X104751476Y-77928524D01*
X104521853Y-77740077D01*
X104259879Y-77600049D01*
X103975620Y-77513820D01*
X103754078Y-77492000D01*
X103605922Y-77492000D01*
X103384380Y-77513820D01*
X103100121Y-77600049D01*
X102838147Y-77740077D01*
X102608524Y-77928524D01*
X102420077Y-78158147D01*
X102410000Y-78177000D01*
X102399923Y-78158147D01*
X102211476Y-77928524D01*
X101981853Y-77740077D01*
X101719879Y-77600049D01*
X101435620Y-77513820D01*
X101214078Y-77492000D01*
X101065922Y-77492000D01*
X100844380Y-77513820D01*
X100560121Y-77600049D01*
X100298147Y-77740077D01*
X100068524Y-77928524D01*
X99880077Y-78158147D01*
X99740049Y-78420121D01*
X99653820Y-78704380D01*
X99624704Y-79000000D01*
X97533000Y-79000000D01*
X97533000Y-74735853D01*
X97553362Y-74528176D01*
X98555441Y-74528176D01*
X98555441Y-74871824D01*
X98622484Y-75208869D01*
X98753992Y-75526358D01*
X98944913Y-75812091D01*
X99187909Y-76055087D01*
X99473642Y-76246008D01*
X99791131Y-76377516D01*
X100128176Y-76444559D01*
X100471824Y-76444559D01*
X100808869Y-76377516D01*
X101126358Y-76246008D01*
X101412091Y-76055087D01*
X101655087Y-75812091D01*
X101846008Y-75526358D01*
X101977516Y-75208869D01*
X102044559Y-74871824D01*
X102044559Y-74528176D01*
X178555441Y-74528176D01*
X178555441Y-74871824D01*
X178622484Y-75208869D01*
X178753992Y-75526358D01*
X178944913Y-75812091D01*
X179187909Y-76055087D01*
X179473642Y-76246008D01*
X179791131Y-76377516D01*
X180128176Y-76444559D01*
X180471824Y-76444559D01*
X180808869Y-76377516D01*
X181126358Y-76246008D01*
X181412091Y-76055087D01*
X181655087Y-75812091D01*
X181846008Y-75526358D01*
X181977516Y-75208869D01*
X182044559Y-74871824D01*
X182044559Y-74528176D01*
X181977516Y-74191131D01*
X181846008Y-73873642D01*
X181655087Y-73587909D01*
X181412091Y-73344913D01*
X181126358Y-73153992D01*
X180808869Y-73022484D01*
X180471824Y-72955441D01*
X180128176Y-72955441D01*
X179791131Y-73022484D01*
X179473642Y-73153992D01*
X179187909Y-73344913D01*
X178944913Y-73587909D01*
X178753992Y-73873642D01*
X178622484Y-74191131D01*
X178555441Y-74528176D01*
X102044559Y-74528176D01*
X101977516Y-74191131D01*
X101846008Y-73873642D01*
X101655087Y-73587909D01*
X101412091Y-73344913D01*
X101126358Y-73153992D01*
X100808869Y-73022484D01*
X100471824Y-72955441D01*
X100128176Y-72955441D01*
X99791131Y-73022484D01*
X99473642Y-73153992D01*
X99187909Y-73344913D01*
X98944913Y-73587909D01*
X98753992Y-73873642D01*
X98622484Y-74191131D01*
X98555441Y-74528176D01*
X97553362Y-74528176D01*
X97589146Y-74163234D01*
X97745032Y-73646917D01*
X97998234Y-73170713D01*
X98339113Y-72752753D01*
X98754681Y-72408965D01*
X99229105Y-72152445D01*
X99744325Y-71992958D01*
X100314785Y-71933000D01*
X180264147Y-71933000D01*
X180836766Y-71989146D01*
G36*
X140894542Y-109045584D02*
G01*
X140920628Y-109077370D01*
X141047469Y-109181465D01*
X141192180Y-109258815D01*
X141349202Y-109306447D01*
X141471580Y-109318500D01*
X141471582Y-109318500D01*
X141512497Y-109322530D01*
X141553413Y-109318500D01*
X168327151Y-109318500D01*
X168346803Y-109355266D01*
X168541497Y-109592503D01*
X168746390Y-109760653D01*
X168551909Y-109918767D01*
X168357067Y-110153967D01*
X168211854Y-110422659D01*
X168121850Y-110714518D01*
X168119054Y-110728586D01*
X168268556Y-110971500D01*
X169594500Y-110971500D01*
X169594500Y-110951500D01*
X169702500Y-110951500D01*
X169702500Y-110971500D01*
X169722500Y-110971500D01*
X169722500Y-111079500D01*
X169702500Y-111079500D01*
X169702500Y-111099500D01*
X169594500Y-111099500D01*
X169594500Y-111079500D01*
X168268556Y-111079500D01*
X168119054Y-111322414D01*
X168121850Y-111336482D01*
X168211854Y-111628341D01*
X168357067Y-111897033D01*
X168551909Y-112132233D01*
X168746390Y-112290347D01*
X168541497Y-112458497D01*
X168346803Y-112695734D01*
X168202131Y-112966395D01*
X168113043Y-113260079D01*
X168082962Y-113565500D01*
X168113043Y-113870921D01*
X168202131Y-114164605D01*
X168346803Y-114435266D01*
X168541497Y-114672503D01*
X168740111Y-114835500D01*
X168541497Y-114998497D01*
X168346803Y-115235734D01*
X168202131Y-115506395D01*
X168113043Y-115800079D01*
X168082962Y-116105500D01*
X168113043Y-116410921D01*
X168202131Y-116704605D01*
X168346803Y-116975266D01*
X168541497Y-117212503D01*
X168740111Y-117375500D01*
X168541497Y-117538497D01*
X168346803Y-117775734D01*
X168202131Y-118046395D01*
X168113043Y-118340079D01*
X168082962Y-118645500D01*
X168113043Y-118950921D01*
X168202131Y-119244605D01*
X168346803Y-119515266D01*
X168494479Y-119695211D01*
X168403253Y-119743972D01*
X168295447Y-119832447D01*
X168206972Y-119940253D01*
X168141229Y-120063249D01*
X168100745Y-120196708D01*
X168087075Y-120335500D01*
X168087075Y-120352500D01*
X151877542Y-120352500D01*
X127149278Y-95624237D01*
X127360367Y-95511408D01*
X140894542Y-109045584D01*
X140894542Y-109045584D01*
G37*
X140894542Y-109045584D02*
X140920628Y-109077370D01*
X141047469Y-109181465D01*
X141192180Y-109258815D01*
X141349202Y-109306447D01*
X141471580Y-109318500D01*
X141471582Y-109318500D01*
X141512497Y-109322530D01*
X141553413Y-109318500D01*
X168327151Y-109318500D01*
X168346803Y-109355266D01*
X168541497Y-109592503D01*
X168746390Y-109760653D01*
X168551909Y-109918767D01*
X168357067Y-110153967D01*
X168211854Y-110422659D01*
X168121850Y-110714518D01*
X168119054Y-110728586D01*
X168268556Y-110971500D01*
X169594500Y-110971500D01*
X169594500Y-110951500D01*
X169702500Y-110951500D01*
X169702500Y-110971500D01*
X169722500Y-110971500D01*
X169722500Y-111079500D01*
X169702500Y-111079500D01*
X169702500Y-111099500D01*
X169594500Y-111099500D01*
X169594500Y-111079500D01*
X168268556Y-111079500D01*
X168119054Y-111322414D01*
X168121850Y-111336482D01*
X168211854Y-111628341D01*
X168357067Y-111897033D01*
X168551909Y-112132233D01*
X168746390Y-112290347D01*
X168541497Y-112458497D01*
X168346803Y-112695734D01*
X168202131Y-112966395D01*
X168113043Y-113260079D01*
X168082962Y-113565500D01*
X168113043Y-113870921D01*
X168202131Y-114164605D01*
X168346803Y-114435266D01*
X168541497Y-114672503D01*
X168740111Y-114835500D01*
X168541497Y-114998497D01*
X168346803Y-115235734D01*
X168202131Y-115506395D01*
X168113043Y-115800079D01*
X168082962Y-116105500D01*
X168113043Y-116410921D01*
X168202131Y-116704605D01*
X168346803Y-116975266D01*
X168541497Y-117212503D01*
X168740111Y-117375500D01*
X168541497Y-117538497D01*
X168346803Y-117775734D01*
X168202131Y-118046395D01*
X168113043Y-118340079D01*
X168082962Y-118645500D01*
X168113043Y-118950921D01*
X168202131Y-119244605D01*
X168346803Y-119515266D01*
X168494479Y-119695211D01*
X168403253Y-119743972D01*
X168295447Y-119832447D01*
X168206972Y-119940253D01*
X168141229Y-120063249D01*
X168100745Y-120196708D01*
X168087075Y-120335500D01*
X168087075Y-120352500D01*
X151877542Y-120352500D01*
X127149278Y-95624237D01*
X127360367Y-95511408D01*
X140894542Y-109045584D01*
G36*
X156544253Y-85058704D02*
G01*
X156570339Y-85090490D01*
X156610010Y-85123047D01*
X163692001Y-92205039D01*
X163692002Y-100834076D01*
X163687971Y-100875001D01*
X163704055Y-101038297D01*
X163751686Y-101195318D01*
X163799053Y-101283934D01*
X163829037Y-101340030D01*
X163933132Y-101466871D01*
X163964917Y-101492956D01*
X165427506Y-102955545D01*
X165389360Y-102993691D01*
X165268103Y-103175165D01*
X165184580Y-103376808D01*
X165142000Y-103590872D01*
X165142000Y-103809128D01*
X165184580Y-104023192D01*
X165268103Y-104224835D01*
X165389360Y-104406309D01*
X165543691Y-104560640D01*
X165725165Y-104681897D01*
X165926808Y-104765420D01*
X166140872Y-104808000D01*
X166359128Y-104808000D01*
X166573192Y-104765420D01*
X166774835Y-104681897D01*
X166783292Y-104676246D01*
X166860441Y-104770251D01*
X166929749Y-104839559D01*
X167037555Y-104928034D01*
X167119054Y-104982490D01*
X167242054Y-105048234D01*
X167332610Y-105085743D01*
X167466066Y-105126226D01*
X167562199Y-105145348D01*
X167700991Y-105159018D01*
X167725551Y-105159018D01*
X167750000Y-105161426D01*
X168217000Y-105161426D01*
X168217000Y-105509084D01*
X168212970Y-105550000D01*
X168217000Y-105590915D01*
X168217000Y-105590917D01*
X168229053Y-105713295D01*
X168276685Y-105870317D01*
X168354035Y-106015028D01*
X168458130Y-106141870D01*
X168489921Y-106167960D01*
X169288546Y-106966585D01*
X169049395Y-107039131D01*
X168778734Y-107183803D01*
X168541497Y-107378497D01*
X168346803Y-107615734D01*
X168327151Y-107652500D01*
X141857538Y-107652500D01*
X132005038Y-97800000D01*
X135338575Y-97800000D01*
X135338575Y-100000000D01*
X135352245Y-100138792D01*
X135392729Y-100272251D01*
X135458472Y-100395247D01*
X135546947Y-100503053D01*
X135654753Y-100591528D01*
X135777749Y-100657271D01*
X135911208Y-100697755D01*
X136050000Y-100711425D01*
X138250000Y-100711425D01*
X138388792Y-100697755D01*
X138522251Y-100657271D01*
X138645247Y-100591528D01*
X138753053Y-100503053D01*
X138841528Y-100395247D01*
X138907271Y-100272251D01*
X138947755Y-100138792D01*
X138961425Y-100000000D01*
X138961425Y-97800000D01*
X138947755Y-97661208D01*
X138907271Y-97527749D01*
X138841528Y-97404753D01*
X138753053Y-97296947D01*
X138645247Y-97208472D01*
X138522251Y-97142729D01*
X138388792Y-97102245D01*
X138250000Y-97088575D01*
X136050000Y-97088575D01*
X135911208Y-97102245D01*
X135777749Y-97142729D01*
X135654753Y-97208472D01*
X135546947Y-97296947D01*
X135458472Y-97404753D01*
X135392729Y-97527749D01*
X135352245Y-97661208D01*
X135338575Y-97800000D01*
X132005038Y-97800000D01*
X129775188Y-95570151D01*
X129922127Y-95490957D01*
X130149995Y-95302629D01*
X130336744Y-95073465D01*
X130346130Y-95055759D01*
X130360077Y-95081853D01*
X130548524Y-95311476D01*
X130778147Y-95499923D01*
X131040121Y-95639951D01*
X131324380Y-95726180D01*
X131545922Y-95748000D01*
X131694078Y-95748000D01*
X131915620Y-95726180D01*
X132199879Y-95639951D01*
X132461853Y-95499923D01*
X132691476Y-95311476D01*
X132879923Y-95081853D01*
X132890000Y-95063000D01*
X132900077Y-95081853D01*
X133088524Y-95311476D01*
X133318147Y-95499923D01*
X133580121Y-95639951D01*
X133864380Y-95726180D01*
X134085922Y-95748000D01*
X134234078Y-95748000D01*
X134455620Y-95726180D01*
X134739879Y-95639951D01*
X135001853Y-95499923D01*
X135231476Y-95311476D01*
X135419923Y-95081853D01*
X135430000Y-95063000D01*
X135440077Y-95081853D01*
X135628524Y-95311476D01*
X135858147Y-95499923D01*
X136120121Y-95639951D01*
X136404380Y-95726180D01*
X136625922Y-95748000D01*
X136774078Y-95748000D01*
X136995620Y-95726180D01*
X137279879Y-95639951D01*
X137541853Y-95499923D01*
X137771476Y-95311476D01*
X137959923Y-95081853D01*
X138099951Y-94819879D01*
X138186180Y-94535620D01*
X138215296Y-94240000D01*
X138186180Y-93944380D01*
X138099951Y-93660121D01*
X137959923Y-93398147D01*
X137771476Y-93168524D01*
X137541853Y-92980077D01*
X137279879Y-92840049D01*
X136995620Y-92753820D01*
X136774078Y-92732000D01*
X136625922Y-92732000D01*
X136404380Y-92753820D01*
X136120121Y-92840049D01*
X135858147Y-92980077D01*
X135628524Y-93168524D01*
X135440077Y-93398147D01*
X135430000Y-93417000D01*
X135419923Y-93398147D01*
X135231476Y-93168524D01*
X135001853Y-92980077D01*
X134739879Y-92840049D01*
X134455620Y-92753820D01*
X134234078Y-92732000D01*
X134085922Y-92732000D01*
X133864380Y-92753820D01*
X133580121Y-92840049D01*
X133318147Y-92980077D01*
X133088524Y-93168524D01*
X132900077Y-93398147D01*
X132890000Y-93417000D01*
X132879923Y-93398147D01*
X132691476Y-93168524D01*
X132461853Y-92980077D01*
X132199879Y-92840049D01*
X131915620Y-92753820D01*
X131694078Y-92732000D01*
X131545922Y-92732000D01*
X131324380Y-92753820D01*
X131040121Y-92840049D01*
X130778147Y-92980077D01*
X130548524Y-93168524D01*
X130360077Y-93398147D01*
X130346130Y-93424241D01*
X130336744Y-93406535D01*
X130149995Y-93177371D01*
X129922127Y-92989043D01*
X129661896Y-92848789D01*
X129379303Y-92761998D01*
X129369087Y-92759969D01*
X129134000Y-92910096D01*
X129134000Y-94186000D01*
X129154000Y-94186000D01*
X129154000Y-94294000D01*
X129134000Y-94294000D01*
X129134000Y-94314000D01*
X129026000Y-94314000D01*
X129026000Y-94294000D01*
X129006000Y-94294000D01*
X129006000Y-94186000D01*
X129026000Y-94186000D01*
X129026000Y-92910096D01*
X128790913Y-92759969D01*
X128780697Y-92761998D01*
X128498104Y-92848789D01*
X128237873Y-92989043D01*
X128179954Y-93036912D01*
X127697961Y-92554920D01*
X127671871Y-92523129D01*
X127545030Y-92419034D01*
X127400319Y-92341684D01*
X127243297Y-92294052D01*
X127120919Y-92281999D01*
X127120916Y-92281999D01*
X127080001Y-92277969D01*
X127039086Y-92281999D01*
X125165916Y-92281999D01*
X125125001Y-92277969D01*
X125084085Y-92281999D01*
X125084083Y-92281999D01*
X124961705Y-92294052D01*
X124804683Y-92341684D01*
X124659971Y-92419034D01*
X124598769Y-92469262D01*
X124533131Y-92523129D01*
X124507045Y-92554915D01*
X124305226Y-92756734D01*
X124295620Y-92753820D01*
X124139587Y-92738452D01*
X127428039Y-89450000D01*
X143038575Y-89450000D01*
X143038575Y-91150000D01*
X143052245Y-91288792D01*
X143092729Y-91422251D01*
X143158472Y-91545247D01*
X143246947Y-91653053D01*
X143354753Y-91741528D01*
X143477749Y-91807271D01*
X143611208Y-91847755D01*
X143750000Y-91861425D01*
X145450000Y-91861425D01*
X145588792Y-91847755D01*
X145722251Y-91807271D01*
X145845247Y-91741528D01*
X145953053Y-91653053D01*
X146041528Y-91545247D01*
X146094065Y-91446957D01*
X146268467Y-91591433D01*
X146537159Y-91736646D01*
X146829018Y-91826650D01*
X146843086Y-91829446D01*
X147086000Y-91679944D01*
X147086000Y-90354000D01*
X147066000Y-90354000D01*
X147066000Y-90246000D01*
X147086000Y-90246000D01*
X147086000Y-88920056D01*
X146843086Y-88770554D01*
X146829018Y-88773350D01*
X146537159Y-88863354D01*
X146268467Y-89008567D01*
X146094065Y-89153043D01*
X146041528Y-89054753D01*
X145953053Y-88946947D01*
X145845247Y-88858472D01*
X145722251Y-88792729D01*
X145588792Y-88752245D01*
X145450000Y-88738575D01*
X143750000Y-88738575D01*
X143611208Y-88752245D01*
X143477749Y-88792729D01*
X143354753Y-88858472D01*
X143246947Y-88946947D01*
X143158472Y-89054753D01*
X143092729Y-89177749D01*
X143052245Y-89311208D01*
X143038575Y-89450000D01*
X127428039Y-89450000D01*
X129428039Y-87450000D01*
X144313574Y-87450000D01*
X144327244Y-87588792D01*
X144367728Y-87722251D01*
X144433471Y-87845247D01*
X144521946Y-87953054D01*
X144629753Y-88041529D01*
X144752749Y-88107272D01*
X144886208Y-88147756D01*
X145025000Y-88161426D01*
X145644000Y-88158000D01*
X145821000Y-87981000D01*
X145821000Y-86654000D01*
X144494000Y-86654000D01*
X144317000Y-86831000D01*
X144313574Y-87450000D01*
X129428039Y-87450000D01*
X130720041Y-86157999D01*
X144315832Y-86157999D01*
X144317000Y-86369000D01*
X144494000Y-86546000D01*
X145821000Y-86546000D01*
X145821000Y-86526000D01*
X145929000Y-86526000D01*
X145929000Y-86546000D01*
X145949000Y-86546000D01*
X145949000Y-86654000D01*
X145929000Y-86654000D01*
X145929000Y-87981000D01*
X146106000Y-88158000D01*
X146725000Y-88161426D01*
X146863792Y-88147756D01*
X146997251Y-88107272D01*
X147120247Y-88041529D01*
X147228054Y-87953054D01*
X147316529Y-87845247D01*
X147365290Y-87754022D01*
X147545234Y-87901697D01*
X147815895Y-88046369D01*
X148109579Y-88135457D01*
X148338465Y-88158000D01*
X148491535Y-88158000D01*
X148720421Y-88135457D01*
X149014105Y-88046369D01*
X149284766Y-87901697D01*
X149522003Y-87707003D01*
X149685000Y-87508389D01*
X149847997Y-87707003D01*
X150085234Y-87901697D01*
X150355895Y-88046369D01*
X150649579Y-88135457D01*
X150664986Y-88136974D01*
X150025316Y-88776645D01*
X149985421Y-88764543D01*
X149756535Y-88742000D01*
X149603465Y-88742000D01*
X149374579Y-88764543D01*
X149080895Y-88853631D01*
X148810234Y-88998303D01*
X148572997Y-89192997D01*
X148404847Y-89397890D01*
X148246733Y-89203409D01*
X148011533Y-89008567D01*
X147742841Y-88863354D01*
X147450982Y-88773350D01*
X147436914Y-88770554D01*
X147194000Y-88920056D01*
X147194000Y-90246000D01*
X147214000Y-90246000D01*
X147214000Y-90354000D01*
X147194000Y-90354000D01*
X147194000Y-91679944D01*
X147436914Y-91829446D01*
X147450982Y-91826650D01*
X147742841Y-91736646D01*
X148011533Y-91591433D01*
X148246733Y-91396591D01*
X148404847Y-91202110D01*
X148572997Y-91407003D01*
X148810234Y-91601697D01*
X149080895Y-91746369D01*
X149374579Y-91835457D01*
X149603465Y-91858000D01*
X149756535Y-91858000D01*
X149985421Y-91835457D01*
X150279105Y-91746369D01*
X150549766Y-91601697D01*
X150787003Y-91407003D01*
X150950000Y-91208389D01*
X151112997Y-91407003D01*
X151350234Y-91601697D01*
X151620895Y-91746369D01*
X151914579Y-91835457D01*
X152143465Y-91858000D01*
X152296535Y-91858000D01*
X152525421Y-91835457D01*
X152819105Y-91746369D01*
X153089766Y-91601697D01*
X153327003Y-91407003D01*
X153490000Y-91208389D01*
X153652997Y-91407003D01*
X153890234Y-91601697D01*
X154160895Y-91746369D01*
X154454579Y-91835457D01*
X154683465Y-91858000D01*
X154836535Y-91858000D01*
X155065421Y-91835457D01*
X155359105Y-91746369D01*
X155629766Y-91601697D01*
X155867003Y-91407003D01*
X156061697Y-91169766D01*
X156206369Y-90899105D01*
X156295457Y-90605421D01*
X156325538Y-90300000D01*
X156295457Y-89994579D01*
X156280674Y-89945846D01*
X156305964Y-89915030D01*
X156383314Y-89770319D01*
X156430946Y-89613297D01*
X156442999Y-89490919D01*
X156442999Y-89490917D01*
X156447029Y-89450002D01*
X156442999Y-89409086D01*
X156442999Y-85328092D01*
X156447029Y-85287177D01*
X156440314Y-85219000D01*
X156430946Y-85123881D01*
X156383314Y-84966859D01*
X156360425Y-84924036D01*
X156305964Y-84822147D01*
X156298036Y-84812487D01*
X156544253Y-85058704D01*
X156544253Y-85058704D01*
G37*
X156544253Y-85058704D02*
X156570339Y-85090490D01*
X156610010Y-85123047D01*
X163692001Y-92205039D01*
X163692002Y-100834076D01*
X163687971Y-100875001D01*
X163704055Y-101038297D01*
X163751686Y-101195318D01*
X163799053Y-101283934D01*
X163829037Y-101340030D01*
X163933132Y-101466871D01*
X163964917Y-101492956D01*
X165427506Y-102955545D01*
X165389360Y-102993691D01*
X165268103Y-103175165D01*
X165184580Y-103376808D01*
X165142000Y-103590872D01*
X165142000Y-103809128D01*
X165184580Y-104023192D01*
X165268103Y-104224835D01*
X165389360Y-104406309D01*
X165543691Y-104560640D01*
X165725165Y-104681897D01*
X165926808Y-104765420D01*
X166140872Y-104808000D01*
X166359128Y-104808000D01*
X166573192Y-104765420D01*
X166774835Y-104681897D01*
X166783292Y-104676246D01*
X166860441Y-104770251D01*
X166929749Y-104839559D01*
X167037555Y-104928034D01*
X167119054Y-104982490D01*
X167242054Y-105048234D01*
X167332610Y-105085743D01*
X167466066Y-105126226D01*
X167562199Y-105145348D01*
X167700991Y-105159018D01*
X167725551Y-105159018D01*
X167750000Y-105161426D01*
X168217000Y-105161426D01*
X168217000Y-105509084D01*
X168212970Y-105550000D01*
X168217000Y-105590915D01*
X168217000Y-105590917D01*
X168229053Y-105713295D01*
X168276685Y-105870317D01*
X168354035Y-106015028D01*
X168458130Y-106141870D01*
X168489921Y-106167960D01*
X169288546Y-106966585D01*
X169049395Y-107039131D01*
X168778734Y-107183803D01*
X168541497Y-107378497D01*
X168346803Y-107615734D01*
X168327151Y-107652500D01*
X141857538Y-107652500D01*
X132005038Y-97800000D01*
X135338575Y-97800000D01*
X135338575Y-100000000D01*
X135352245Y-100138792D01*
X135392729Y-100272251D01*
X135458472Y-100395247D01*
X135546947Y-100503053D01*
X135654753Y-100591528D01*
X135777749Y-100657271D01*
X135911208Y-100697755D01*
X136050000Y-100711425D01*
X138250000Y-100711425D01*
X138388792Y-100697755D01*
X138522251Y-100657271D01*
X138645247Y-100591528D01*
X138753053Y-100503053D01*
X138841528Y-100395247D01*
X138907271Y-100272251D01*
X138947755Y-100138792D01*
X138961425Y-100000000D01*
X138961425Y-97800000D01*
X138947755Y-97661208D01*
X138907271Y-97527749D01*
X138841528Y-97404753D01*
X138753053Y-97296947D01*
X138645247Y-97208472D01*
X138522251Y-97142729D01*
X138388792Y-97102245D01*
X138250000Y-97088575D01*
X136050000Y-97088575D01*
X135911208Y-97102245D01*
X135777749Y-97142729D01*
X135654753Y-97208472D01*
X135546947Y-97296947D01*
X135458472Y-97404753D01*
X135392729Y-97527749D01*
X135352245Y-97661208D01*
X135338575Y-97800000D01*
X132005038Y-97800000D01*
X129775188Y-95570151D01*
X129922127Y-95490957D01*
X130149995Y-95302629D01*
X130336744Y-95073465D01*
X130346130Y-95055759D01*
X130360077Y-95081853D01*
X130548524Y-95311476D01*
X130778147Y-95499923D01*
X131040121Y-95639951D01*
X131324380Y-95726180D01*
X131545922Y-95748000D01*
X131694078Y-95748000D01*
X131915620Y-95726180D01*
X132199879Y-95639951D01*
X132461853Y-95499923D01*
X132691476Y-95311476D01*
X132879923Y-95081853D01*
X132890000Y-95063000D01*
X132900077Y-95081853D01*
X133088524Y-95311476D01*
X133318147Y-95499923D01*
X133580121Y-95639951D01*
X133864380Y-95726180D01*
X134085922Y-95748000D01*
X134234078Y-95748000D01*
X134455620Y-95726180D01*
X134739879Y-95639951D01*
X135001853Y-95499923D01*
X135231476Y-95311476D01*
X135419923Y-95081853D01*
X135430000Y-95063000D01*
X135440077Y-95081853D01*
X135628524Y-95311476D01*
X135858147Y-95499923D01*
X136120121Y-95639951D01*
X136404380Y-95726180D01*
X136625922Y-95748000D01*
X136774078Y-95748000D01*
X136995620Y-95726180D01*
X137279879Y-95639951D01*
X137541853Y-95499923D01*
X137771476Y-95311476D01*
X137959923Y-95081853D01*
X138099951Y-94819879D01*
X138186180Y-94535620D01*
X138215296Y-94240000D01*
X138186180Y-93944380D01*
X138099951Y-93660121D01*
X137959923Y-93398147D01*
X137771476Y-93168524D01*
X137541853Y-92980077D01*
X137279879Y-92840049D01*
X136995620Y-92753820D01*
X136774078Y-92732000D01*
X136625922Y-92732000D01*
X136404380Y-92753820D01*
X136120121Y-92840049D01*
X135858147Y-92980077D01*
X135628524Y-93168524D01*
X135440077Y-93398147D01*
X135430000Y-93417000D01*
X135419923Y-93398147D01*
X135231476Y-93168524D01*
X135001853Y-92980077D01*
X134739879Y-92840049D01*
X134455620Y-92753820D01*
X134234078Y-92732000D01*
X134085922Y-92732000D01*
X133864380Y-92753820D01*
X133580121Y-92840049D01*
X133318147Y-92980077D01*
X133088524Y-93168524D01*
X132900077Y-93398147D01*
X132890000Y-93417000D01*
X132879923Y-93398147D01*
X132691476Y-93168524D01*
X132461853Y-92980077D01*
X132199879Y-92840049D01*
X131915620Y-92753820D01*
X131694078Y-92732000D01*
X131545922Y-92732000D01*
X131324380Y-92753820D01*
X131040121Y-92840049D01*
X130778147Y-92980077D01*
X130548524Y-93168524D01*
X130360077Y-93398147D01*
X130346130Y-93424241D01*
X130336744Y-93406535D01*
X130149995Y-93177371D01*
X129922127Y-92989043D01*
X129661896Y-92848789D01*
X129379303Y-92761998D01*
X129369087Y-92759969D01*
X129134000Y-92910096D01*
X129134000Y-94186000D01*
X129154000Y-94186000D01*
X129154000Y-94294000D01*
X129134000Y-94294000D01*
X129134000Y-94314000D01*
X129026000Y-94314000D01*
X129026000Y-94294000D01*
X129006000Y-94294000D01*
X129006000Y-94186000D01*
X129026000Y-94186000D01*
X129026000Y-92910096D01*
X128790913Y-92759969D01*
X128780697Y-92761998D01*
X128498104Y-92848789D01*
X128237873Y-92989043D01*
X128179954Y-93036912D01*
X127697961Y-92554920D01*
X127671871Y-92523129D01*
X127545030Y-92419034D01*
X127400319Y-92341684D01*
X127243297Y-92294052D01*
X127120919Y-92281999D01*
X127120916Y-92281999D01*
X127080001Y-92277969D01*
X127039086Y-92281999D01*
X125165916Y-92281999D01*
X125125001Y-92277969D01*
X125084085Y-92281999D01*
X125084083Y-92281999D01*
X124961705Y-92294052D01*
X124804683Y-92341684D01*
X124659971Y-92419034D01*
X124598769Y-92469262D01*
X124533131Y-92523129D01*
X124507045Y-92554915D01*
X124305226Y-92756734D01*
X124295620Y-92753820D01*
X124139587Y-92738452D01*
X127428039Y-89450000D01*
X143038575Y-89450000D01*
X143038575Y-91150000D01*
X143052245Y-91288792D01*
X143092729Y-91422251D01*
X143158472Y-91545247D01*
X143246947Y-91653053D01*
X143354753Y-91741528D01*
X143477749Y-91807271D01*
X143611208Y-91847755D01*
X143750000Y-91861425D01*
X145450000Y-91861425D01*
X145588792Y-91847755D01*
X145722251Y-91807271D01*
X145845247Y-91741528D01*
X145953053Y-91653053D01*
X146041528Y-91545247D01*
X146094065Y-91446957D01*
X146268467Y-91591433D01*
X146537159Y-91736646D01*
X146829018Y-91826650D01*
X146843086Y-91829446D01*
X147086000Y-91679944D01*
X147086000Y-90354000D01*
X147066000Y-90354000D01*
X147066000Y-90246000D01*
X147086000Y-90246000D01*
X147086000Y-88920056D01*
X146843086Y-88770554D01*
X146829018Y-88773350D01*
X146537159Y-88863354D01*
X146268467Y-89008567D01*
X146094065Y-89153043D01*
X146041528Y-89054753D01*
X145953053Y-88946947D01*
X145845247Y-88858472D01*
X145722251Y-88792729D01*
X145588792Y-88752245D01*
X145450000Y-88738575D01*
X143750000Y-88738575D01*
X143611208Y-88752245D01*
X143477749Y-88792729D01*
X143354753Y-88858472D01*
X143246947Y-88946947D01*
X143158472Y-89054753D01*
X143092729Y-89177749D01*
X143052245Y-89311208D01*
X143038575Y-89450000D01*
X127428039Y-89450000D01*
X129428039Y-87450000D01*
X144313574Y-87450000D01*
X144327244Y-87588792D01*
X144367728Y-87722251D01*
X144433471Y-87845247D01*
X144521946Y-87953054D01*
X144629753Y-88041529D01*
X144752749Y-88107272D01*
X144886208Y-88147756D01*
X145025000Y-88161426D01*
X145644000Y-88158000D01*
X145821000Y-87981000D01*
X145821000Y-86654000D01*
X144494000Y-86654000D01*
X144317000Y-86831000D01*
X144313574Y-87450000D01*
X129428039Y-87450000D01*
X130720041Y-86157999D01*
X144315832Y-86157999D01*
X144317000Y-86369000D01*
X144494000Y-86546000D01*
X145821000Y-86546000D01*
X145821000Y-86526000D01*
X145929000Y-86526000D01*
X145929000Y-86546000D01*
X145949000Y-86546000D01*
X145949000Y-86654000D01*
X145929000Y-86654000D01*
X145929000Y-87981000D01*
X146106000Y-88158000D01*
X146725000Y-88161426D01*
X146863792Y-88147756D01*
X146997251Y-88107272D01*
X147120247Y-88041529D01*
X147228054Y-87953054D01*
X147316529Y-87845247D01*
X147365290Y-87754022D01*
X147545234Y-87901697D01*
X147815895Y-88046369D01*
X148109579Y-88135457D01*
X148338465Y-88158000D01*
X148491535Y-88158000D01*
X148720421Y-88135457D01*
X149014105Y-88046369D01*
X149284766Y-87901697D01*
X149522003Y-87707003D01*
X149685000Y-87508389D01*
X149847997Y-87707003D01*
X150085234Y-87901697D01*
X150355895Y-88046369D01*
X150649579Y-88135457D01*
X150664986Y-88136974D01*
X150025316Y-88776645D01*
X149985421Y-88764543D01*
X149756535Y-88742000D01*
X149603465Y-88742000D01*
X149374579Y-88764543D01*
X149080895Y-88853631D01*
X148810234Y-88998303D01*
X148572997Y-89192997D01*
X148404847Y-89397890D01*
X148246733Y-89203409D01*
X148011533Y-89008567D01*
X147742841Y-88863354D01*
X147450982Y-88773350D01*
X147436914Y-88770554D01*
X147194000Y-88920056D01*
X147194000Y-90246000D01*
X147214000Y-90246000D01*
X147214000Y-90354000D01*
X147194000Y-90354000D01*
X147194000Y-91679944D01*
X147436914Y-91829446D01*
X147450982Y-91826650D01*
X147742841Y-91736646D01*
X148011533Y-91591433D01*
X148246733Y-91396591D01*
X148404847Y-91202110D01*
X148572997Y-91407003D01*
X148810234Y-91601697D01*
X149080895Y-91746369D01*
X149374579Y-91835457D01*
X149603465Y-91858000D01*
X149756535Y-91858000D01*
X149985421Y-91835457D01*
X150279105Y-91746369D01*
X150549766Y-91601697D01*
X150787003Y-91407003D01*
X150950000Y-91208389D01*
X151112997Y-91407003D01*
X151350234Y-91601697D01*
X151620895Y-91746369D01*
X151914579Y-91835457D01*
X152143465Y-91858000D01*
X152296535Y-91858000D01*
X152525421Y-91835457D01*
X152819105Y-91746369D01*
X153089766Y-91601697D01*
X153327003Y-91407003D01*
X153490000Y-91208389D01*
X153652997Y-91407003D01*
X153890234Y-91601697D01*
X154160895Y-91746369D01*
X154454579Y-91835457D01*
X154683465Y-91858000D01*
X154836535Y-91858000D01*
X155065421Y-91835457D01*
X155359105Y-91746369D01*
X155629766Y-91601697D01*
X155867003Y-91407003D01*
X156061697Y-91169766D01*
X156206369Y-90899105D01*
X156295457Y-90605421D01*
X156325538Y-90300000D01*
X156295457Y-89994579D01*
X156280674Y-89945846D01*
X156305964Y-89915030D01*
X156383314Y-89770319D01*
X156430946Y-89613297D01*
X156442999Y-89490919D01*
X156442999Y-89490917D01*
X156447029Y-89450002D01*
X156442999Y-89409086D01*
X156442999Y-85328092D01*
X156447029Y-85287177D01*
X156440314Y-85219000D01*
X156430946Y-85123881D01*
X156383314Y-84966859D01*
X156360425Y-84924036D01*
X156305964Y-84822147D01*
X156298036Y-84812487D01*
X156544253Y-85058704D01*
M02*
