M48
; DRILL file {KiCad (5.1.4-0-10_14)} date Monday, 04 May 2020 at 09:58:44 pm
; FORMAT={-:-/ absolute / inch / decimal}
; #@! TF.CreationDate,2020-05-04T21:58:44+12:00
; #@! TF.GenerationSoftware,Kicad,Pcbnew,(5.1.4-0-10_14)
; #@! TF.FileFunction,Plated,1,2,PTH
FMAT,2
INCH
T1C0.0157
T2C0.0315
T3C0.0354
T4C0.0394
T5C0.0433
T6C0.0520
T7C0.0598
%
G90
G05
T1
X4.3661Y-3.813
X4.4528Y-4.0138
X6.5453Y-4.0827
X6.6043Y-3.8957
X6.8136Y-3.8951
X6.8137Y-3.853
T2
X3.9819Y-3.1102
X3.9819Y-3.7102
X4.0819Y-3.1102
X4.0819Y-3.7102
X4.1819Y-3.1102
X4.1819Y-3.7102
X4.2819Y-3.1102
X4.2819Y-3.7102
X4.3819Y-3.1102
X4.3819Y-3.7102
X4.4819Y-3.1102
X4.4819Y-3.7102
X4.5819Y-3.1102
X4.5819Y-3.7102
X4.6819Y-3.1102
X4.6819Y-3.7102
X4.7819Y-3.1102
X4.7819Y-3.7102
X4.8819Y-3.1102
X4.8819Y-3.7102
X4.9819Y-3.1102
X4.9819Y-3.7102
X5.0819Y-3.1102
X5.1819Y-3.1102
X5.1819Y-3.7102
X5.2819Y-3.1102
X5.2819Y-3.7102
X5.3819Y-3.1102
X5.3819Y-3.7102
X4.4075Y-4.4232
X5.0819Y-3.7102
X4.4075Y-4.7232
T3
X4.1004Y-4.4232
X4.2004Y-4.4232
T4
X6.6791Y-4.2711
X6.6791Y-4.3711
X6.6791Y-4.4711
X6.6791Y-4.5711
X6.6791Y-4.6711
X6.6791Y-4.7711
X5.7431Y-3.4094
X5.8431Y-3.4094
X5.9431Y-3.4094
X6.0431Y-3.4094
X4.6778Y-4.0911
X4.6778Y-4.1911
X4.6778Y-4.2911
X4.6778Y-4.3911
X6.0929Y-3.5551
X5.6929Y-3.5551
X5.7929Y-3.5551
X5.8929Y-3.5551
X5.9929Y-3.5551
X4.6778Y-4.4911
X4.6778Y-4.5911
X6.9678Y-4.0911
X6.9678Y-4.1911
X6.9678Y-4.2911
X6.9678Y-4.3911
X6.9678Y-4.4911
X6.9678Y-4.5911
X6.9331Y-3.2591
X6.9331Y-3.3591
X6.9331Y-3.4591
X6.9331Y-3.5591
X7.0331Y-3.2591
X7.0331Y-3.3591
X7.0331Y-3.4591
X7.0331Y-3.5591
T5
X4.9996Y-3.8937
X5.3996Y-3.8937
T6
X4.0079Y-4.0787
X4.2047Y-4.0787
T7
X4.0303Y-4.6811
X4.2303Y-4.6811
T0
M30
