G04 #@! TF.GenerationSoftware,KiCad,Pcbnew,(5.1.4-0-10_14)*
G04 #@! TF.CreationDate,2020-05-04T21:58:41+12:00*
G04 #@! TF.ProjectId,Robotic hand v2,526f626f-7469-4632-9068-616e64207632,rev?*
G04 #@! TF.SameCoordinates,Original*
G04 #@! TF.FileFunction,Copper,L1,Top*
G04 #@! TF.FilePolarity,Positive*
%FSLAX46Y46*%
G04 Gerber Fmt 4.6, Leading zero omitted, Abs format (unit mm)*
G04 Created by KiCad (PCBNEW (5.1.4-0-10_14)) date 2020-05-04 21:58:41*
%MOMM*%
%LPD*%
G04 APERTURE LIST*
%ADD10R,1.600000X1.600000*%
%ADD11O,1.600000X1.600000*%
%ADD12R,1.700000X1.700000*%
%ADD13O,1.700000X1.700000*%
%ADD14C,1.600000*%
%ADD15R,3.000000X3.000000*%
%ADD16C,3.000000*%
%ADD17R,1.980000X3.960000*%
%ADD18O,1.980000X3.960000*%
%ADD19R,1.800000X1.800000*%
%ADD20C,1.800000*%
%ADD21C,0.500000*%
%ADD22C,0.100000*%
%ADD23R,1.500000X2.200000*%
%ADD24R,3.800000X2.200000*%
%ADD25R,2.200000X2.200000*%
%ADD26O,2.200000X2.200000*%
%ADD27R,1.200000X0.600000*%
%ADD28C,0.950000*%
%ADD29C,1.150000*%
%ADD30C,0.800000*%
%ADD31C,0.300000*%
%ADD32C,0.500000*%
%ADD33C,1.500000*%
%ADD34C,0.250000*%
%ADD35C,1.000000*%
G04 APERTURE END LIST*
D10*
X136700000Y-79000000D03*
D11*
X103680000Y-94240000D03*
X134160000Y-79000000D03*
X106220000Y-94240000D03*
X131620000Y-79000000D03*
X108760000Y-94240000D03*
X129080000Y-79000000D03*
X111300000Y-94240000D03*
X126540000Y-79000000D03*
X113840000Y-94240000D03*
X124000000Y-79000000D03*
X116380000Y-94240000D03*
X121460000Y-79000000D03*
X118920000Y-94240000D03*
X118920000Y-79000000D03*
X121460000Y-94240000D03*
X116380000Y-79000000D03*
X124000000Y-94240000D03*
X113840000Y-79000000D03*
X126540000Y-94240000D03*
X111300000Y-79000000D03*
X129080000Y-94240000D03*
X108760000Y-79000000D03*
X131620000Y-94240000D03*
X106220000Y-79000000D03*
X134160000Y-94240000D03*
X103680000Y-79000000D03*
X136700000Y-94240000D03*
X101140000Y-79000000D03*
X101140000Y-94240000D03*
D12*
X118817000Y-103913500D03*
D13*
X118817000Y-106453500D03*
X118817000Y-108993500D03*
X118817000Y-111533500D03*
X118817000Y-114073500D03*
X118817000Y-116613500D03*
X176983000Y-106453500D03*
D12*
X176983000Y-103913500D03*
D13*
X176983000Y-116613500D03*
X176983000Y-114073500D03*
X176983000Y-111533500D03*
X176983000Y-108993500D03*
D12*
X144600000Y-90300000D03*
D13*
X147140000Y-90300000D03*
X149680000Y-90300000D03*
X152220000Y-90300000D03*
X154760000Y-90300000D03*
D14*
X111950000Y-112350000D03*
D11*
X111950000Y-119970000D03*
D15*
X102370000Y-118900000D03*
D16*
X107450000Y-118900000D03*
D17*
X101800000Y-103600000D03*
D18*
X106800000Y-103600000D03*
D13*
X169648500Y-108485500D03*
X169648500Y-111025500D03*
X169648500Y-113565500D03*
X169648500Y-116105500D03*
X169648500Y-118645500D03*
D12*
X169648500Y-121185500D03*
X178640000Y-90400000D03*
D13*
X176100000Y-90400000D03*
X178640000Y-87860000D03*
X176100000Y-87860000D03*
X178640000Y-85320000D03*
X176100000Y-85320000D03*
X178640000Y-82780000D03*
X176100000Y-82780000D03*
D19*
X104150000Y-112350000D03*
D20*
X106690000Y-112350000D03*
D21*
X113100000Y-98900000D03*
D22*
G36*
X112350000Y-99400000D02*
G01*
X112350000Y-98900000D01*
X112350602Y-98900000D01*
X112350602Y-98875466D01*
X112355412Y-98826635D01*
X112364984Y-98778510D01*
X112379228Y-98731555D01*
X112398005Y-98686222D01*
X112421136Y-98642949D01*
X112448396Y-98602150D01*
X112479524Y-98564221D01*
X112514221Y-98529524D01*
X112552150Y-98498396D01*
X112592949Y-98471136D01*
X112636222Y-98448005D01*
X112681555Y-98429228D01*
X112728510Y-98414984D01*
X112776635Y-98405412D01*
X112825466Y-98400602D01*
X112850000Y-98400602D01*
X112850000Y-98400000D01*
X113350000Y-98400000D01*
X113350000Y-98400602D01*
X113374534Y-98400602D01*
X113423365Y-98405412D01*
X113471490Y-98414984D01*
X113518445Y-98429228D01*
X113563778Y-98448005D01*
X113607051Y-98471136D01*
X113647850Y-98498396D01*
X113685779Y-98529524D01*
X113720476Y-98564221D01*
X113751604Y-98602150D01*
X113778864Y-98642949D01*
X113801995Y-98686222D01*
X113820772Y-98731555D01*
X113835016Y-98778510D01*
X113844588Y-98826635D01*
X113849398Y-98875466D01*
X113849398Y-98900000D01*
X113850000Y-98900000D01*
X113850000Y-99400000D01*
X112350000Y-99400000D01*
X112350000Y-99400000D01*
G37*
D21*
X113100000Y-100200000D03*
D22*
G36*
X113849398Y-100200000D02*
G01*
X113849398Y-100224534D01*
X113844588Y-100273365D01*
X113835016Y-100321490D01*
X113820772Y-100368445D01*
X113801995Y-100413778D01*
X113778864Y-100457051D01*
X113751604Y-100497850D01*
X113720476Y-100535779D01*
X113685779Y-100570476D01*
X113647850Y-100601604D01*
X113607051Y-100628864D01*
X113563778Y-100651995D01*
X113518445Y-100670772D01*
X113471490Y-100685016D01*
X113423365Y-100694588D01*
X113374534Y-100699398D01*
X113350000Y-100699398D01*
X113350000Y-100700000D01*
X112850000Y-100700000D01*
X112850000Y-100699398D01*
X112825466Y-100699398D01*
X112776635Y-100694588D01*
X112728510Y-100685016D01*
X112681555Y-100670772D01*
X112636222Y-100651995D01*
X112592949Y-100628864D01*
X112552150Y-100601604D01*
X112514221Y-100570476D01*
X112479524Y-100535779D01*
X112448396Y-100497850D01*
X112421136Y-100457051D01*
X112398005Y-100413778D01*
X112379228Y-100368445D01*
X112364984Y-100321490D01*
X112355412Y-100273365D01*
X112350602Y-100224534D01*
X112350602Y-100200000D01*
X112350000Y-100200000D01*
X112350000Y-99700000D01*
X113850000Y-99700000D01*
X113850000Y-100200000D01*
X113849398Y-100200000D01*
X113849398Y-100200000D01*
G37*
D23*
X168100000Y-85070000D03*
X165800000Y-85070000D03*
X163500000Y-85070000D03*
D24*
X165800000Y-78770000D03*
D12*
X145875000Y-86600000D03*
D13*
X148415000Y-86600000D03*
X150955000Y-86600000D03*
X153495000Y-86600000D03*
D25*
X137150000Y-98900000D03*
D26*
X126990000Y-98900000D03*
D27*
X151364500Y-80750000D03*
X151364500Y-79650000D03*
X151364500Y-78550000D03*
X148364500Y-80750000D03*
X148364500Y-78550000D03*
X148364500Y-79650000D03*
D22*
G36*
X109010779Y-88951144D02*
G01*
X109033834Y-88954563D01*
X109056443Y-88960227D01*
X109078387Y-88968079D01*
X109099457Y-88978044D01*
X109119448Y-88990026D01*
X109138168Y-89003910D01*
X109155438Y-89019562D01*
X109171090Y-89036832D01*
X109184974Y-89055552D01*
X109196956Y-89075543D01*
X109206921Y-89096613D01*
X109214773Y-89118557D01*
X109220437Y-89141166D01*
X109223856Y-89164221D01*
X109225000Y-89187500D01*
X109225000Y-89762500D01*
X109223856Y-89785779D01*
X109220437Y-89808834D01*
X109214773Y-89831443D01*
X109206921Y-89853387D01*
X109196956Y-89874457D01*
X109184974Y-89894448D01*
X109171090Y-89913168D01*
X109155438Y-89930438D01*
X109138168Y-89946090D01*
X109119448Y-89959974D01*
X109099457Y-89971956D01*
X109078387Y-89981921D01*
X109056443Y-89989773D01*
X109033834Y-89995437D01*
X109010779Y-89998856D01*
X108987500Y-90000000D01*
X108512500Y-90000000D01*
X108489221Y-89998856D01*
X108466166Y-89995437D01*
X108443557Y-89989773D01*
X108421613Y-89981921D01*
X108400543Y-89971956D01*
X108380552Y-89959974D01*
X108361832Y-89946090D01*
X108344562Y-89930438D01*
X108328910Y-89913168D01*
X108315026Y-89894448D01*
X108303044Y-89874457D01*
X108293079Y-89853387D01*
X108285227Y-89831443D01*
X108279563Y-89808834D01*
X108276144Y-89785779D01*
X108275000Y-89762500D01*
X108275000Y-89187500D01*
X108276144Y-89164221D01*
X108279563Y-89141166D01*
X108285227Y-89118557D01*
X108293079Y-89096613D01*
X108303044Y-89075543D01*
X108315026Y-89055552D01*
X108328910Y-89036832D01*
X108344562Y-89019562D01*
X108361832Y-89003910D01*
X108380552Y-88990026D01*
X108400543Y-88978044D01*
X108421613Y-88968079D01*
X108443557Y-88960227D01*
X108466166Y-88954563D01*
X108489221Y-88951144D01*
X108512500Y-88950000D01*
X108987500Y-88950000D01*
X109010779Y-88951144D01*
X109010779Y-88951144D01*
G37*
D28*
X108750000Y-89475000D03*
D22*
G36*
X109010779Y-90701144D02*
G01*
X109033834Y-90704563D01*
X109056443Y-90710227D01*
X109078387Y-90718079D01*
X109099457Y-90728044D01*
X109119448Y-90740026D01*
X109138168Y-90753910D01*
X109155438Y-90769562D01*
X109171090Y-90786832D01*
X109184974Y-90805552D01*
X109196956Y-90825543D01*
X109206921Y-90846613D01*
X109214773Y-90868557D01*
X109220437Y-90891166D01*
X109223856Y-90914221D01*
X109225000Y-90937500D01*
X109225000Y-91512500D01*
X109223856Y-91535779D01*
X109220437Y-91558834D01*
X109214773Y-91581443D01*
X109206921Y-91603387D01*
X109196956Y-91624457D01*
X109184974Y-91644448D01*
X109171090Y-91663168D01*
X109155438Y-91680438D01*
X109138168Y-91696090D01*
X109119448Y-91709974D01*
X109099457Y-91721956D01*
X109078387Y-91731921D01*
X109056443Y-91739773D01*
X109033834Y-91745437D01*
X109010779Y-91748856D01*
X108987500Y-91750000D01*
X108512500Y-91750000D01*
X108489221Y-91748856D01*
X108466166Y-91745437D01*
X108443557Y-91739773D01*
X108421613Y-91731921D01*
X108400543Y-91721956D01*
X108380552Y-91709974D01*
X108361832Y-91696090D01*
X108344562Y-91680438D01*
X108328910Y-91663168D01*
X108315026Y-91644448D01*
X108303044Y-91624457D01*
X108293079Y-91603387D01*
X108285227Y-91581443D01*
X108279563Y-91558834D01*
X108276144Y-91535779D01*
X108275000Y-91512500D01*
X108275000Y-90937500D01*
X108276144Y-90914221D01*
X108279563Y-90891166D01*
X108285227Y-90868557D01*
X108293079Y-90846613D01*
X108303044Y-90825543D01*
X108315026Y-90805552D01*
X108328910Y-90786832D01*
X108344562Y-90769562D01*
X108361832Y-90753910D01*
X108380552Y-90740026D01*
X108400543Y-90728044D01*
X108421613Y-90718079D01*
X108443557Y-90710227D01*
X108466166Y-90704563D01*
X108489221Y-90701144D01*
X108512500Y-90700000D01*
X108987500Y-90700000D01*
X109010779Y-90701144D01*
X109010779Y-90701144D01*
G37*
D28*
X108750000Y-91225000D03*
D22*
G36*
X111560779Y-90701144D02*
G01*
X111583834Y-90704563D01*
X111606443Y-90710227D01*
X111628387Y-90718079D01*
X111649457Y-90728044D01*
X111669448Y-90740026D01*
X111688168Y-90753910D01*
X111705438Y-90769562D01*
X111721090Y-90786832D01*
X111734974Y-90805552D01*
X111746956Y-90825543D01*
X111756921Y-90846613D01*
X111764773Y-90868557D01*
X111770437Y-90891166D01*
X111773856Y-90914221D01*
X111775000Y-90937500D01*
X111775000Y-91512500D01*
X111773856Y-91535779D01*
X111770437Y-91558834D01*
X111764773Y-91581443D01*
X111756921Y-91603387D01*
X111746956Y-91624457D01*
X111734974Y-91644448D01*
X111721090Y-91663168D01*
X111705438Y-91680438D01*
X111688168Y-91696090D01*
X111669448Y-91709974D01*
X111649457Y-91721956D01*
X111628387Y-91731921D01*
X111606443Y-91739773D01*
X111583834Y-91745437D01*
X111560779Y-91748856D01*
X111537500Y-91750000D01*
X111062500Y-91750000D01*
X111039221Y-91748856D01*
X111016166Y-91745437D01*
X110993557Y-91739773D01*
X110971613Y-91731921D01*
X110950543Y-91721956D01*
X110930552Y-91709974D01*
X110911832Y-91696090D01*
X110894562Y-91680438D01*
X110878910Y-91663168D01*
X110865026Y-91644448D01*
X110853044Y-91624457D01*
X110843079Y-91603387D01*
X110835227Y-91581443D01*
X110829563Y-91558834D01*
X110826144Y-91535779D01*
X110825000Y-91512500D01*
X110825000Y-90937500D01*
X110826144Y-90914221D01*
X110829563Y-90891166D01*
X110835227Y-90868557D01*
X110843079Y-90846613D01*
X110853044Y-90825543D01*
X110865026Y-90805552D01*
X110878910Y-90786832D01*
X110894562Y-90769562D01*
X110911832Y-90753910D01*
X110930552Y-90740026D01*
X110950543Y-90728044D01*
X110971613Y-90718079D01*
X110993557Y-90710227D01*
X111016166Y-90704563D01*
X111039221Y-90701144D01*
X111062500Y-90700000D01*
X111537500Y-90700000D01*
X111560779Y-90701144D01*
X111560779Y-90701144D01*
G37*
D28*
X111300000Y-91225000D03*
D22*
G36*
X111560779Y-88951144D02*
G01*
X111583834Y-88954563D01*
X111606443Y-88960227D01*
X111628387Y-88968079D01*
X111649457Y-88978044D01*
X111669448Y-88990026D01*
X111688168Y-89003910D01*
X111705438Y-89019562D01*
X111721090Y-89036832D01*
X111734974Y-89055552D01*
X111746956Y-89075543D01*
X111756921Y-89096613D01*
X111764773Y-89118557D01*
X111770437Y-89141166D01*
X111773856Y-89164221D01*
X111775000Y-89187500D01*
X111775000Y-89762500D01*
X111773856Y-89785779D01*
X111770437Y-89808834D01*
X111764773Y-89831443D01*
X111756921Y-89853387D01*
X111746956Y-89874457D01*
X111734974Y-89894448D01*
X111721090Y-89913168D01*
X111705438Y-89930438D01*
X111688168Y-89946090D01*
X111669448Y-89959974D01*
X111649457Y-89971956D01*
X111628387Y-89981921D01*
X111606443Y-89989773D01*
X111583834Y-89995437D01*
X111560779Y-89998856D01*
X111537500Y-90000000D01*
X111062500Y-90000000D01*
X111039221Y-89998856D01*
X111016166Y-89995437D01*
X110993557Y-89989773D01*
X110971613Y-89981921D01*
X110950543Y-89971956D01*
X110930552Y-89959974D01*
X110911832Y-89946090D01*
X110894562Y-89930438D01*
X110878910Y-89913168D01*
X110865026Y-89894448D01*
X110853044Y-89874457D01*
X110843079Y-89853387D01*
X110835227Y-89831443D01*
X110829563Y-89808834D01*
X110826144Y-89785779D01*
X110825000Y-89762500D01*
X110825000Y-89187500D01*
X110826144Y-89164221D01*
X110829563Y-89141166D01*
X110835227Y-89118557D01*
X110843079Y-89096613D01*
X110853044Y-89075543D01*
X110865026Y-89055552D01*
X110878910Y-89036832D01*
X110894562Y-89019562D01*
X110911832Y-89003910D01*
X110930552Y-88990026D01*
X110950543Y-88978044D01*
X110971613Y-88968079D01*
X110993557Y-88960227D01*
X111016166Y-88954563D01*
X111039221Y-88951144D01*
X111062500Y-88950000D01*
X111537500Y-88950000D01*
X111560779Y-88951144D01*
X111560779Y-88951144D01*
G37*
D28*
X111300000Y-89475000D03*
D22*
G36*
X114110779Y-88951144D02*
G01*
X114133834Y-88954563D01*
X114156443Y-88960227D01*
X114178387Y-88968079D01*
X114199457Y-88978044D01*
X114219448Y-88990026D01*
X114238168Y-89003910D01*
X114255438Y-89019562D01*
X114271090Y-89036832D01*
X114284974Y-89055552D01*
X114296956Y-89075543D01*
X114306921Y-89096613D01*
X114314773Y-89118557D01*
X114320437Y-89141166D01*
X114323856Y-89164221D01*
X114325000Y-89187500D01*
X114325000Y-89762500D01*
X114323856Y-89785779D01*
X114320437Y-89808834D01*
X114314773Y-89831443D01*
X114306921Y-89853387D01*
X114296956Y-89874457D01*
X114284974Y-89894448D01*
X114271090Y-89913168D01*
X114255438Y-89930438D01*
X114238168Y-89946090D01*
X114219448Y-89959974D01*
X114199457Y-89971956D01*
X114178387Y-89981921D01*
X114156443Y-89989773D01*
X114133834Y-89995437D01*
X114110779Y-89998856D01*
X114087500Y-90000000D01*
X113612500Y-90000000D01*
X113589221Y-89998856D01*
X113566166Y-89995437D01*
X113543557Y-89989773D01*
X113521613Y-89981921D01*
X113500543Y-89971956D01*
X113480552Y-89959974D01*
X113461832Y-89946090D01*
X113444562Y-89930438D01*
X113428910Y-89913168D01*
X113415026Y-89894448D01*
X113403044Y-89874457D01*
X113393079Y-89853387D01*
X113385227Y-89831443D01*
X113379563Y-89808834D01*
X113376144Y-89785779D01*
X113375000Y-89762500D01*
X113375000Y-89187500D01*
X113376144Y-89164221D01*
X113379563Y-89141166D01*
X113385227Y-89118557D01*
X113393079Y-89096613D01*
X113403044Y-89075543D01*
X113415026Y-89055552D01*
X113428910Y-89036832D01*
X113444562Y-89019562D01*
X113461832Y-89003910D01*
X113480552Y-88990026D01*
X113500543Y-88978044D01*
X113521613Y-88968079D01*
X113543557Y-88960227D01*
X113566166Y-88954563D01*
X113589221Y-88951144D01*
X113612500Y-88950000D01*
X114087500Y-88950000D01*
X114110779Y-88951144D01*
X114110779Y-88951144D01*
G37*
D28*
X113850000Y-89475000D03*
D22*
G36*
X114110779Y-90701144D02*
G01*
X114133834Y-90704563D01*
X114156443Y-90710227D01*
X114178387Y-90718079D01*
X114199457Y-90728044D01*
X114219448Y-90740026D01*
X114238168Y-90753910D01*
X114255438Y-90769562D01*
X114271090Y-90786832D01*
X114284974Y-90805552D01*
X114296956Y-90825543D01*
X114306921Y-90846613D01*
X114314773Y-90868557D01*
X114320437Y-90891166D01*
X114323856Y-90914221D01*
X114325000Y-90937500D01*
X114325000Y-91512500D01*
X114323856Y-91535779D01*
X114320437Y-91558834D01*
X114314773Y-91581443D01*
X114306921Y-91603387D01*
X114296956Y-91624457D01*
X114284974Y-91644448D01*
X114271090Y-91663168D01*
X114255438Y-91680438D01*
X114238168Y-91696090D01*
X114219448Y-91709974D01*
X114199457Y-91721956D01*
X114178387Y-91731921D01*
X114156443Y-91739773D01*
X114133834Y-91745437D01*
X114110779Y-91748856D01*
X114087500Y-91750000D01*
X113612500Y-91750000D01*
X113589221Y-91748856D01*
X113566166Y-91745437D01*
X113543557Y-91739773D01*
X113521613Y-91731921D01*
X113500543Y-91721956D01*
X113480552Y-91709974D01*
X113461832Y-91696090D01*
X113444562Y-91680438D01*
X113428910Y-91663168D01*
X113415026Y-91644448D01*
X113403044Y-91624457D01*
X113393079Y-91603387D01*
X113385227Y-91581443D01*
X113379563Y-91558834D01*
X113376144Y-91535779D01*
X113375000Y-91512500D01*
X113375000Y-90937500D01*
X113376144Y-90914221D01*
X113379563Y-90891166D01*
X113385227Y-90868557D01*
X113393079Y-90846613D01*
X113403044Y-90825543D01*
X113415026Y-90805552D01*
X113428910Y-90786832D01*
X113444562Y-90769562D01*
X113461832Y-90753910D01*
X113480552Y-90740026D01*
X113500543Y-90728044D01*
X113521613Y-90718079D01*
X113543557Y-90710227D01*
X113566166Y-90704563D01*
X113589221Y-90701144D01*
X113612500Y-90700000D01*
X114087500Y-90700000D01*
X114110779Y-90701144D01*
X114110779Y-90701144D01*
G37*
D28*
X113850000Y-91225000D03*
D22*
G36*
X167624505Y-87701204D02*
G01*
X167648773Y-87704804D01*
X167672572Y-87710765D01*
X167695671Y-87719030D01*
X167717850Y-87729520D01*
X167738893Y-87742132D01*
X167758599Y-87756747D01*
X167776777Y-87773223D01*
X167793253Y-87791401D01*
X167807868Y-87811107D01*
X167820480Y-87832150D01*
X167830970Y-87854329D01*
X167839235Y-87877428D01*
X167845196Y-87901227D01*
X167848796Y-87925495D01*
X167850000Y-87949999D01*
X167850000Y-88600001D01*
X167848796Y-88624505D01*
X167845196Y-88648773D01*
X167839235Y-88672572D01*
X167830970Y-88695671D01*
X167820480Y-88717850D01*
X167807868Y-88738893D01*
X167793253Y-88758599D01*
X167776777Y-88776777D01*
X167758599Y-88793253D01*
X167738893Y-88807868D01*
X167717850Y-88820480D01*
X167695671Y-88830970D01*
X167672572Y-88839235D01*
X167648773Y-88845196D01*
X167624505Y-88848796D01*
X167600001Y-88850000D01*
X166699999Y-88850000D01*
X166675495Y-88848796D01*
X166651227Y-88845196D01*
X166627428Y-88839235D01*
X166604329Y-88830970D01*
X166582150Y-88820480D01*
X166561107Y-88807868D01*
X166541401Y-88793253D01*
X166523223Y-88776777D01*
X166506747Y-88758599D01*
X166492132Y-88738893D01*
X166479520Y-88717850D01*
X166469030Y-88695671D01*
X166460765Y-88672572D01*
X166454804Y-88648773D01*
X166451204Y-88624505D01*
X166450000Y-88600001D01*
X166450000Y-87949999D01*
X166451204Y-87925495D01*
X166454804Y-87901227D01*
X166460765Y-87877428D01*
X166469030Y-87854329D01*
X166479520Y-87832150D01*
X166492132Y-87811107D01*
X166506747Y-87791401D01*
X166523223Y-87773223D01*
X166541401Y-87756747D01*
X166561107Y-87742132D01*
X166582150Y-87729520D01*
X166604329Y-87719030D01*
X166627428Y-87710765D01*
X166651227Y-87704804D01*
X166675495Y-87701204D01*
X166699999Y-87700000D01*
X167600001Y-87700000D01*
X167624505Y-87701204D01*
X167624505Y-87701204D01*
G37*
D29*
X167150000Y-88275000D03*
D22*
G36*
X167624505Y-89751204D02*
G01*
X167648773Y-89754804D01*
X167672572Y-89760765D01*
X167695671Y-89769030D01*
X167717850Y-89779520D01*
X167738893Y-89792132D01*
X167758599Y-89806747D01*
X167776777Y-89823223D01*
X167793253Y-89841401D01*
X167807868Y-89861107D01*
X167820480Y-89882150D01*
X167830970Y-89904329D01*
X167839235Y-89927428D01*
X167845196Y-89951227D01*
X167848796Y-89975495D01*
X167850000Y-89999999D01*
X167850000Y-90650001D01*
X167848796Y-90674505D01*
X167845196Y-90698773D01*
X167839235Y-90722572D01*
X167830970Y-90745671D01*
X167820480Y-90767850D01*
X167807868Y-90788893D01*
X167793253Y-90808599D01*
X167776777Y-90826777D01*
X167758599Y-90843253D01*
X167738893Y-90857868D01*
X167717850Y-90870480D01*
X167695671Y-90880970D01*
X167672572Y-90889235D01*
X167648773Y-90895196D01*
X167624505Y-90898796D01*
X167600001Y-90900000D01*
X166699999Y-90900000D01*
X166675495Y-90898796D01*
X166651227Y-90895196D01*
X166627428Y-90889235D01*
X166604329Y-90880970D01*
X166582150Y-90870480D01*
X166561107Y-90857868D01*
X166541401Y-90843253D01*
X166523223Y-90826777D01*
X166506747Y-90808599D01*
X166492132Y-90788893D01*
X166479520Y-90767850D01*
X166469030Y-90745671D01*
X166460765Y-90722572D01*
X166454804Y-90698773D01*
X166451204Y-90674505D01*
X166450000Y-90650001D01*
X166450000Y-89999999D01*
X166451204Y-89975495D01*
X166454804Y-89951227D01*
X166460765Y-89927428D01*
X166469030Y-89904329D01*
X166479520Y-89882150D01*
X166492132Y-89861107D01*
X166506747Y-89841401D01*
X166523223Y-89823223D01*
X166541401Y-89806747D01*
X166561107Y-89792132D01*
X166582150Y-89779520D01*
X166604329Y-89769030D01*
X166627428Y-89760765D01*
X166651227Y-89754804D01*
X166675495Y-89751204D01*
X166699999Y-89750000D01*
X167600001Y-89750000D01*
X167624505Y-89751204D01*
X167624505Y-89751204D01*
G37*
D29*
X167150000Y-90325000D03*
D22*
G36*
X165024505Y-87701204D02*
G01*
X165048773Y-87704804D01*
X165072572Y-87710765D01*
X165095671Y-87719030D01*
X165117850Y-87729520D01*
X165138893Y-87742132D01*
X165158599Y-87756747D01*
X165176777Y-87773223D01*
X165193253Y-87791401D01*
X165207868Y-87811107D01*
X165220480Y-87832150D01*
X165230970Y-87854329D01*
X165239235Y-87877428D01*
X165245196Y-87901227D01*
X165248796Y-87925495D01*
X165250000Y-87949999D01*
X165250000Y-88600001D01*
X165248796Y-88624505D01*
X165245196Y-88648773D01*
X165239235Y-88672572D01*
X165230970Y-88695671D01*
X165220480Y-88717850D01*
X165207868Y-88738893D01*
X165193253Y-88758599D01*
X165176777Y-88776777D01*
X165158599Y-88793253D01*
X165138893Y-88807868D01*
X165117850Y-88820480D01*
X165095671Y-88830970D01*
X165072572Y-88839235D01*
X165048773Y-88845196D01*
X165024505Y-88848796D01*
X165000001Y-88850000D01*
X164099999Y-88850000D01*
X164075495Y-88848796D01*
X164051227Y-88845196D01*
X164027428Y-88839235D01*
X164004329Y-88830970D01*
X163982150Y-88820480D01*
X163961107Y-88807868D01*
X163941401Y-88793253D01*
X163923223Y-88776777D01*
X163906747Y-88758599D01*
X163892132Y-88738893D01*
X163879520Y-88717850D01*
X163869030Y-88695671D01*
X163860765Y-88672572D01*
X163854804Y-88648773D01*
X163851204Y-88624505D01*
X163850000Y-88600001D01*
X163850000Y-87949999D01*
X163851204Y-87925495D01*
X163854804Y-87901227D01*
X163860765Y-87877428D01*
X163869030Y-87854329D01*
X163879520Y-87832150D01*
X163892132Y-87811107D01*
X163906747Y-87791401D01*
X163923223Y-87773223D01*
X163941401Y-87756747D01*
X163961107Y-87742132D01*
X163982150Y-87729520D01*
X164004329Y-87719030D01*
X164027428Y-87710765D01*
X164051227Y-87704804D01*
X164075495Y-87701204D01*
X164099999Y-87700000D01*
X165000001Y-87700000D01*
X165024505Y-87701204D01*
X165024505Y-87701204D01*
G37*
D29*
X164550000Y-88275000D03*
D22*
G36*
X165024505Y-89751204D02*
G01*
X165048773Y-89754804D01*
X165072572Y-89760765D01*
X165095671Y-89769030D01*
X165117850Y-89779520D01*
X165138893Y-89792132D01*
X165158599Y-89806747D01*
X165176777Y-89823223D01*
X165193253Y-89841401D01*
X165207868Y-89861107D01*
X165220480Y-89882150D01*
X165230970Y-89904329D01*
X165239235Y-89927428D01*
X165245196Y-89951227D01*
X165248796Y-89975495D01*
X165250000Y-89999999D01*
X165250000Y-90650001D01*
X165248796Y-90674505D01*
X165245196Y-90698773D01*
X165239235Y-90722572D01*
X165230970Y-90745671D01*
X165220480Y-90767850D01*
X165207868Y-90788893D01*
X165193253Y-90808599D01*
X165176777Y-90826777D01*
X165158599Y-90843253D01*
X165138893Y-90857868D01*
X165117850Y-90870480D01*
X165095671Y-90880970D01*
X165072572Y-90889235D01*
X165048773Y-90895196D01*
X165024505Y-90898796D01*
X165000001Y-90900000D01*
X164099999Y-90900000D01*
X164075495Y-90898796D01*
X164051227Y-90895196D01*
X164027428Y-90889235D01*
X164004329Y-90880970D01*
X163982150Y-90870480D01*
X163961107Y-90857868D01*
X163941401Y-90843253D01*
X163923223Y-90826777D01*
X163906747Y-90808599D01*
X163892132Y-90788893D01*
X163879520Y-90767850D01*
X163869030Y-90745671D01*
X163860765Y-90722572D01*
X163854804Y-90698773D01*
X163851204Y-90674505D01*
X163850000Y-90650001D01*
X163850000Y-89999999D01*
X163851204Y-89975495D01*
X163854804Y-89951227D01*
X163860765Y-89927428D01*
X163869030Y-89904329D01*
X163879520Y-89882150D01*
X163892132Y-89861107D01*
X163906747Y-89841401D01*
X163923223Y-89823223D01*
X163941401Y-89806747D01*
X163961107Y-89792132D01*
X163982150Y-89779520D01*
X164004329Y-89769030D01*
X164027428Y-89760765D01*
X164051227Y-89754804D01*
X164075495Y-89751204D01*
X164099999Y-89750000D01*
X165000001Y-89750000D01*
X165024505Y-89751204D01*
X165024505Y-89751204D01*
G37*
D29*
X164550000Y-90325000D03*
D30*
X110900000Y-96850000D03*
X113100000Y-101950000D03*
X167750000Y-98950000D03*
X173064489Y-98935511D03*
X166250000Y-103700000D03*
X173067305Y-97867305D03*
D31*
X174897919Y-82780000D02*
X174877919Y-82800000D01*
X176100000Y-82780000D02*
X174897919Y-82780000D01*
X165800000Y-84720000D02*
X165800000Y-85070000D01*
X167720000Y-82800000D02*
X165800000Y-84720000D01*
X174877919Y-82800000D02*
X167720000Y-82800000D01*
X165800000Y-87025000D02*
X164550000Y-88275000D01*
X165800000Y-85070000D02*
X165800000Y-87025000D01*
D32*
X118503500Y-103600000D02*
X118817000Y-103913500D01*
D33*
X106800000Y-103600000D02*
X118503500Y-103600000D01*
D32*
X105310000Y-103600000D02*
X104150000Y-104760000D01*
X104150000Y-110950000D02*
X104150000Y-112350000D01*
X104150000Y-104760000D02*
X104150000Y-110950000D01*
X106800000Y-103600000D02*
X105310000Y-103600000D01*
X124486500Y-103913500D02*
X134160000Y-94240000D01*
X118817000Y-103913500D02*
X124486500Y-103913500D01*
X134160000Y-99100002D02*
X141000000Y-105500000D01*
X134160000Y-94240000D02*
X134160000Y-99100002D01*
X138100000Y-90300000D02*
X144600000Y-90300000D01*
X134160000Y-94240000D02*
X138100000Y-90300000D01*
X144650001Y-88899999D02*
X146115001Y-88899999D01*
X147565001Y-87449999D02*
X148415000Y-86600000D01*
X146115001Y-88899999D02*
X147565001Y-87449999D01*
X144600000Y-88950000D02*
X144650001Y-88899999D01*
X144600000Y-90300000D02*
X144600000Y-88950000D01*
X149945000Y-85070000D02*
X163500000Y-85070000D01*
X148415000Y-86600000D02*
X149945000Y-85070000D01*
X177790001Y-81930001D02*
X178640000Y-82780000D01*
X177239999Y-81379999D02*
X177790001Y-81930001D01*
X166840001Y-81379999D02*
X177239999Y-81379999D01*
X163500000Y-84720000D02*
X166840001Y-81379999D01*
X163500000Y-85070000D02*
X163500000Y-84720000D01*
X141000000Y-105500000D02*
X141000000Y-105550000D01*
X149015500Y-113565500D02*
X169648500Y-113565500D01*
X141000000Y-105550000D02*
X149015500Y-113565500D01*
X151064500Y-80750000D02*
X151364500Y-80750000D01*
X148415000Y-83399500D02*
X151064500Y-80750000D01*
X148415000Y-86600000D02*
X148415000Y-83399500D01*
X151364500Y-78550000D02*
X151364500Y-80750000D01*
X151064500Y-78550000D02*
X150164499Y-77649999D01*
X130430001Y-77649999D02*
X129879999Y-78200001D01*
X129879999Y-78200001D02*
X129080000Y-79000000D01*
X150164499Y-77649999D02*
X130430001Y-77649999D01*
X151364500Y-78550000D02*
X151064500Y-78550000D01*
X167150000Y-90325000D02*
X164550000Y-90325000D01*
X163299990Y-86500010D02*
X163500000Y-86300000D01*
X163750000Y-90325000D02*
X163299990Y-89874990D01*
X164550000Y-90325000D02*
X163750000Y-90325000D01*
X163500000Y-86300000D02*
X163500000Y-85070000D01*
X163299990Y-89874990D02*
X163299990Y-86500010D01*
D34*
X113100000Y-98900000D02*
X111050000Y-96850000D01*
X111050000Y-96850000D02*
X110900000Y-96850000D01*
X110900000Y-96850000D02*
X110900000Y-96850000D01*
D32*
X129080000Y-94240000D02*
X126990000Y-96330000D01*
X126990000Y-96330000D02*
X126990000Y-98900000D01*
X168100000Y-87325000D02*
X167150000Y-88275000D01*
X168100000Y-85070000D02*
X168100000Y-87325000D01*
X165300000Y-97950000D02*
X165300000Y-106677000D01*
X165300000Y-106677000D02*
X169648500Y-111025500D01*
X169750000Y-85470000D02*
X169750000Y-93500000D01*
X169750000Y-93500000D02*
X165300000Y-97950000D01*
X168100000Y-85070000D02*
X169350000Y-85070000D01*
X169350000Y-85070000D02*
X169750000Y-85470000D01*
X150340000Y-93500000D02*
X169750000Y-93500000D01*
X147140000Y-90300000D02*
X150340000Y-93500000D01*
D34*
X177464999Y-86495001D02*
X176100000Y-87860000D01*
X180815022Y-81801430D02*
X180815022Y-84848567D01*
X180815022Y-84848567D02*
X179168588Y-86495001D01*
X106235023Y-76444977D02*
X106235023Y-76439977D01*
X174988559Y-75974967D02*
X180815022Y-81801430D01*
X106235023Y-76439977D02*
X106700033Y-75974967D01*
X106700033Y-75974967D02*
X174988559Y-75974967D01*
X179168588Y-86495001D02*
X177464999Y-86495001D01*
X103680000Y-79000000D02*
X106235023Y-76444977D01*
X179740000Y-90400000D02*
X178640000Y-90400000D01*
X181265035Y-88874965D02*
X179740000Y-90400000D01*
X181265035Y-81615032D02*
X181265035Y-88874965D01*
X104625044Y-75524956D02*
X175174959Y-75524956D01*
X104155034Y-75994966D02*
X104625044Y-75524956D01*
X175174959Y-75524956D02*
X181265035Y-81615032D01*
X104145034Y-75994966D02*
X104155034Y-75994966D01*
X101140000Y-79000000D02*
X104145034Y-75994966D01*
X181715046Y-81415046D02*
X175374945Y-75074945D01*
X181715046Y-89609956D02*
X181715046Y-81415046D01*
X177464999Y-91510001D02*
X177529999Y-91575001D01*
X177529999Y-91575001D02*
X179750001Y-91575001D01*
X178640000Y-87860000D02*
X177464999Y-89035001D01*
X177464999Y-89035001D02*
X177464999Y-91510001D01*
X179750001Y-91575001D02*
X181715046Y-89609956D01*
X102975055Y-75074945D02*
X129700055Y-75074945D01*
X100014999Y-93114999D02*
X100014999Y-78035001D01*
X100014999Y-78035001D02*
X102975055Y-75074945D01*
X101140000Y-94240000D02*
X100014999Y-93114999D01*
X129700055Y-75074945D02*
X129504802Y-75074945D01*
X175374945Y-75074945D02*
X129700055Y-75074945D01*
X107962792Y-112350000D02*
X111950000Y-112350000D01*
X106690000Y-112350000D02*
X107962792Y-112350000D01*
X129780392Y-77344999D02*
X118671411Y-77344999D01*
X114639999Y-79799999D02*
X113840000Y-79000000D01*
X177275001Y-84144999D02*
X179095768Y-84144999D01*
X118671411Y-77344999D02*
X117505001Y-78511409D01*
X114965001Y-80125001D02*
X114639999Y-79799999D01*
X116920001Y-80125001D02*
X114965001Y-80125001D01*
X176100000Y-85320000D02*
X177275001Y-84144999D01*
X179095768Y-84144999D02*
X179915000Y-83325767D01*
X174715758Y-76974988D02*
X130150403Y-76974988D01*
X117505001Y-78511409D02*
X117505001Y-79540001D01*
X117505001Y-79540001D02*
X116920001Y-80125001D01*
X179915000Y-83325767D02*
X179915000Y-82174230D01*
X179915000Y-82174230D02*
X174715758Y-76974988D01*
X130150403Y-76974988D02*
X129780392Y-77344999D01*
X180365011Y-83594989D02*
X178640000Y-85320000D01*
X180365011Y-81987830D02*
X180365011Y-83594989D01*
X174802159Y-76424978D02*
X180365011Y-81987830D01*
X118925022Y-76424978D02*
X174802159Y-76424978D01*
X118485012Y-76864988D02*
X118925022Y-76424978D01*
X118485012Y-76894988D02*
X118485012Y-76864988D01*
X116380000Y-79000000D02*
X118485012Y-76894988D01*
X113100000Y-100200000D02*
X113100000Y-101950000D01*
X137150000Y-94690000D02*
X136700000Y-94240000D01*
X137150000Y-98900000D02*
X137150000Y-94690000D01*
X167764489Y-98935511D02*
X167750000Y-98950000D01*
X173064489Y-98935511D02*
X167764489Y-98935511D01*
X173067305Y-97867305D02*
X167632695Y-97867305D01*
X166250000Y-99250000D02*
X166250000Y-103700000D01*
X167632695Y-97867305D02*
X166250000Y-99250000D01*
X108750000Y-93789991D02*
X108760000Y-93789991D01*
X108750000Y-91225000D02*
X108750000Y-93789991D01*
X111300000Y-91225000D02*
X111300000Y-93789991D01*
X113850000Y-94230000D02*
X113840000Y-94240000D01*
X113850000Y-91225000D02*
X113850000Y-94230000D01*
X113850000Y-89475000D02*
X118675000Y-84650000D01*
X147514500Y-80750000D02*
X148364500Y-80750000D01*
X143614500Y-84650000D02*
X147514500Y-80750000D01*
X118675000Y-84650000D02*
X143614500Y-84650000D01*
X108750000Y-89475000D02*
X115325009Y-82899991D01*
X115325009Y-82899991D02*
X143164509Y-82899991D01*
X143164509Y-82899991D02*
X147514500Y-78550000D01*
X147514500Y-78550000D02*
X148364500Y-78550000D01*
X111300000Y-89475000D02*
X111875000Y-89475000D01*
X111875000Y-89475000D02*
X117650000Y-83700000D01*
X117650000Y-83700000D02*
X143464500Y-83700000D01*
X143464500Y-83700000D02*
X147514500Y-79650000D01*
X147514500Y-79650000D02*
X148364500Y-79650000D01*
D35*
G36*
X180778214Y-72284843D02*
G01*
X181238212Y-72423725D01*
X181662477Y-72649311D01*
X182034842Y-72953003D01*
X182341129Y-73323240D01*
X182569669Y-73745917D01*
X182711759Y-74204938D01*
X182767001Y-74730522D01*
X182767001Y-80979812D01*
X182766866Y-80979367D01*
X182661659Y-80782539D01*
X182555554Y-80653250D01*
X182555553Y-80653249D01*
X182520074Y-80610018D01*
X182476843Y-80574539D01*
X176401075Y-74498771D01*
X178256886Y-74498771D01*
X178256886Y-74901229D01*
X178335401Y-75295954D01*
X178489416Y-75667778D01*
X178713010Y-76002409D01*
X178997591Y-76286990D01*
X179332222Y-76510584D01*
X179704046Y-76664599D01*
X180098771Y-76743114D01*
X180501229Y-76743114D01*
X180895954Y-76664599D01*
X181267778Y-76510584D01*
X181602409Y-76286990D01*
X181886990Y-76002409D01*
X182110584Y-75667778D01*
X182264599Y-75295954D01*
X182343114Y-74901229D01*
X182343114Y-74498771D01*
X182264599Y-74104046D01*
X182110584Y-73732222D01*
X181886990Y-73397591D01*
X181602409Y-73113010D01*
X181267778Y-72889416D01*
X180895954Y-72735401D01*
X180501229Y-72656886D01*
X180098771Y-72656886D01*
X179704046Y-72735401D01*
X179332222Y-72889416D01*
X178997591Y-73113010D01*
X178713010Y-73397591D01*
X178489416Y-73732222D01*
X178335401Y-74104046D01*
X178256886Y-74498771D01*
X176401075Y-74498771D01*
X176215456Y-74313153D01*
X176179973Y-74269917D01*
X176007452Y-74128332D01*
X175810623Y-74023125D01*
X175597052Y-73958339D01*
X175430604Y-73941945D01*
X175430596Y-73941945D01*
X175374945Y-73936464D01*
X175319294Y-73941945D01*
X103030705Y-73941945D01*
X102975054Y-73936464D01*
X102919403Y-73941945D01*
X102919396Y-73941945D01*
X102752948Y-73958339D01*
X102539377Y-74023125D01*
X102342548Y-74128332D01*
X102279691Y-74179918D01*
X102264599Y-74104046D01*
X102110584Y-73732222D01*
X101886990Y-73397591D01*
X101602409Y-73113010D01*
X101267778Y-72889416D01*
X100895954Y-72735401D01*
X100501229Y-72656886D01*
X100098771Y-72656886D01*
X99704046Y-72735401D01*
X99332222Y-72889416D01*
X98997591Y-73113010D01*
X98713010Y-73397591D01*
X98489416Y-73732222D01*
X98335401Y-74104046D01*
X98256886Y-74498771D01*
X98256886Y-74901229D01*
X98335401Y-75295954D01*
X98489416Y-75667778D01*
X98713010Y-76002409D01*
X98997591Y-76286990D01*
X99332222Y-76510584D01*
X99704046Y-76664599D01*
X99769982Y-76677714D01*
X99253202Y-77194494D01*
X99209972Y-77229973D01*
X99174493Y-77273204D01*
X99174491Y-77273206D01*
X99068386Y-77402495D01*
X98963180Y-77599323D01*
X98898393Y-77812895D01*
X98876518Y-78035001D01*
X98882000Y-78090662D01*
X98881999Y-93059348D01*
X98876518Y-93114999D01*
X98881999Y-93170650D01*
X98881999Y-93170657D01*
X98898393Y-93337105D01*
X98963179Y-93550676D01*
X99068386Y-93747506D01*
X99209971Y-93920027D01*
X99253207Y-93955510D01*
X99342479Y-94044782D01*
X99323252Y-94240000D01*
X99358160Y-94594430D01*
X99461544Y-94935239D01*
X99629429Y-95249331D01*
X99855365Y-95524635D01*
X100130669Y-95750571D01*
X100444761Y-95918456D01*
X100785570Y-96021840D01*
X101051179Y-96048000D01*
X101228821Y-96048000D01*
X101494430Y-96021840D01*
X101835239Y-95918456D01*
X102149331Y-95750571D01*
X102410000Y-95536646D01*
X102670669Y-95750571D01*
X102984761Y-95918456D01*
X103325570Y-96021840D01*
X103591179Y-96048000D01*
X103768821Y-96048000D01*
X104034430Y-96021840D01*
X104375239Y-95918456D01*
X104689331Y-95750571D01*
X104950000Y-95536646D01*
X105210669Y-95750571D01*
X105524761Y-95918456D01*
X105865570Y-96021840D01*
X106131179Y-96048000D01*
X106308821Y-96048000D01*
X106574430Y-96021840D01*
X106915239Y-95918456D01*
X107229331Y-95750571D01*
X107490000Y-95536646D01*
X107750669Y-95750571D01*
X108064761Y-95918456D01*
X108405570Y-96021840D01*
X108671179Y-96048000D01*
X108848821Y-96048000D01*
X109114430Y-96021840D01*
X109455239Y-95918456D01*
X109769331Y-95750571D01*
X110030000Y-95536646D01*
X110165192Y-95647595D01*
X110002452Y-95756335D01*
X109806335Y-95952452D01*
X109652246Y-96183062D01*
X109546108Y-96439301D01*
X109492000Y-96711324D01*
X109492000Y-96988676D01*
X109546108Y-97260699D01*
X109652246Y-97516938D01*
X109806335Y-97747548D01*
X110002452Y-97943665D01*
X110233062Y-98097754D01*
X110489301Y-98203892D01*
X110761324Y-98258000D01*
X110855697Y-98258000D01*
X111349318Y-98751621D01*
X111339531Y-98850991D01*
X111339531Y-98875551D01*
X111337123Y-98900000D01*
X111337123Y-99400000D01*
X111351897Y-99550000D01*
X111337123Y-99700000D01*
X111337123Y-100200000D01*
X111339531Y-100224449D01*
X111339531Y-100249009D01*
X111358993Y-100446611D01*
X111378115Y-100542744D01*
X111435752Y-100732749D01*
X111473261Y-100823305D01*
X111566863Y-100998423D01*
X111621319Y-101079922D01*
X111747283Y-101233409D01*
X111816591Y-101302717D01*
X111837124Y-101319568D01*
X111746108Y-101539301D01*
X111692000Y-101811324D01*
X111692000Y-102088676D01*
X111746108Y-102360699D01*
X111852246Y-102616938D01*
X112006335Y-102847548D01*
X112202452Y-103043665D01*
X112433062Y-103197754D01*
X112689301Y-103303892D01*
X112961324Y-103358000D01*
X113238676Y-103358000D01*
X113510699Y-103303892D01*
X113766938Y-103197754D01*
X113967862Y-103063500D01*
X116954123Y-103063500D01*
X116959000Y-103656500D01*
X117211000Y-103908500D01*
X118812000Y-103908500D01*
X118812000Y-103888500D01*
X118822000Y-103888500D01*
X118822000Y-103908500D01*
X120423000Y-103908500D01*
X120675000Y-103656500D01*
X120679673Y-103088306D01*
X120774803Y-103069383D01*
X121203932Y-102891632D01*
X121590137Y-102633578D01*
X121918578Y-102305137D01*
X122176632Y-101918932D01*
X122354383Y-101489803D01*
X122445000Y-101034243D01*
X122445000Y-100569757D01*
X122354383Y-100114197D01*
X122176632Y-99685068D01*
X121918578Y-99298863D01*
X121590137Y-98970422D01*
X121203932Y-98712368D01*
X120774803Y-98534617D01*
X120319243Y-98444000D01*
X119854757Y-98444000D01*
X119399197Y-98534617D01*
X118970068Y-98712368D01*
X118583863Y-98970422D01*
X118255422Y-99298863D01*
X117997368Y-99685068D01*
X117819617Y-100114197D01*
X117729000Y-100569757D01*
X117729000Y-101034243D01*
X117819617Y-101489803D01*
X117997368Y-101918932D01*
X118086015Y-102051602D01*
X117967000Y-102050623D01*
X117769397Y-102070085D01*
X117579389Y-102127724D01*
X117404276Y-102221324D01*
X117250788Y-102347288D01*
X117124824Y-102500776D01*
X117031224Y-102675889D01*
X116973585Y-102865897D01*
X116954123Y-103063500D01*
X113967862Y-103063500D01*
X113997548Y-103043665D01*
X114193665Y-102847548D01*
X114347754Y-102616938D01*
X114453892Y-102360699D01*
X114508000Y-102088676D01*
X114508000Y-101811324D01*
X114453892Y-101539301D01*
X114362876Y-101319568D01*
X114383409Y-101302717D01*
X114452717Y-101233409D01*
X114578681Y-101079922D01*
X114633137Y-100998423D01*
X114726739Y-100823305D01*
X114764248Y-100732749D01*
X114821885Y-100542744D01*
X114841007Y-100446611D01*
X114860469Y-100249009D01*
X114860469Y-100224449D01*
X114862877Y-100200000D01*
X114862877Y-99700000D01*
X114848103Y-99550000D01*
X114862877Y-99400000D01*
X114862877Y-98900000D01*
X114860469Y-98875551D01*
X114860469Y-98850991D01*
X114841007Y-98653389D01*
X114821885Y-98557256D01*
X114764248Y-98367251D01*
X114726739Y-98276695D01*
X114633137Y-98101577D01*
X114578681Y-98020078D01*
X114452717Y-97866591D01*
X114383409Y-97797283D01*
X114229922Y-97671319D01*
X114148423Y-97616863D01*
X113973305Y-97523261D01*
X113882749Y-97485752D01*
X113692744Y-97428115D01*
X113596611Y-97408993D01*
X113399009Y-97389531D01*
X113374449Y-97389531D01*
X113350000Y-97387123D01*
X113189426Y-97387123D01*
X112256943Y-96454640D01*
X112253892Y-96439301D01*
X112147754Y-96183062D01*
X111993665Y-95952452D01*
X111967948Y-95926735D01*
X111995239Y-95918456D01*
X112309331Y-95750571D01*
X112570000Y-95536646D01*
X112830669Y-95750571D01*
X113144761Y-95918456D01*
X113485570Y-96021840D01*
X113751179Y-96048000D01*
X113928821Y-96048000D01*
X114194430Y-96021840D01*
X114535239Y-95918456D01*
X114849331Y-95750571D01*
X115110000Y-95536646D01*
X115370669Y-95750571D01*
X115684761Y-95918456D01*
X116025570Y-96021840D01*
X116291179Y-96048000D01*
X116468821Y-96048000D01*
X116734430Y-96021840D01*
X117075239Y-95918456D01*
X117389331Y-95750571D01*
X117650000Y-95536646D01*
X117910669Y-95750571D01*
X118224761Y-95918456D01*
X118565570Y-96021840D01*
X118831179Y-96048000D01*
X119008821Y-96048000D01*
X119274430Y-96021840D01*
X119615239Y-95918456D01*
X119929331Y-95750571D01*
X120190000Y-95536646D01*
X120450669Y-95750571D01*
X120764761Y-95918456D01*
X121105570Y-96021840D01*
X121371179Y-96048000D01*
X121548821Y-96048000D01*
X121814430Y-96021840D01*
X122155239Y-95918456D01*
X122469331Y-95750571D01*
X122730000Y-95536646D01*
X122990669Y-95750571D01*
X123304761Y-95918456D01*
X123645570Y-96021840D01*
X123911179Y-96048000D01*
X124088821Y-96048000D01*
X124354430Y-96021840D01*
X124695239Y-95918456D01*
X125009331Y-95750571D01*
X125270000Y-95536646D01*
X125530669Y-95750571D01*
X125806448Y-95897977D01*
X125750203Y-96083390D01*
X125725914Y-96330000D01*
X125732000Y-96391793D01*
X125732000Y-97205414D01*
X125492207Y-97402207D01*
X125228782Y-97723192D01*
X125033039Y-98089400D01*
X124912502Y-98486760D01*
X124871801Y-98900000D01*
X124912502Y-99313240D01*
X125033039Y-99710600D01*
X125228782Y-100076808D01*
X125492207Y-100397793D01*
X125813192Y-100661218D01*
X126179400Y-100856961D01*
X126576760Y-100977498D01*
X126886449Y-101008000D01*
X127093551Y-101008000D01*
X127403240Y-100977498D01*
X127800600Y-100856961D01*
X128166808Y-100661218D01*
X128487793Y-100397793D01*
X128751218Y-100076808D01*
X128946961Y-99710600D01*
X129067498Y-99313240D01*
X129108199Y-98900000D01*
X129067498Y-98486760D01*
X128946961Y-98089400D01*
X128751218Y-97723192D01*
X128487793Y-97402207D01*
X128248000Y-97205414D01*
X128248000Y-96851079D01*
X129051080Y-96048000D01*
X129168821Y-96048000D01*
X129434430Y-96021840D01*
X129775239Y-95918456D01*
X130089331Y-95750571D01*
X130350000Y-95536646D01*
X130610669Y-95750571D01*
X130924761Y-95918456D01*
X131265570Y-96021840D01*
X131531179Y-96048000D01*
X131708821Y-96048000D01*
X131974430Y-96021840D01*
X132315239Y-95918456D01*
X132629331Y-95750571D01*
X132900422Y-95528092D01*
X133101334Y-95705635D01*
X133407607Y-95884009D01*
X133742794Y-95999204D01*
X133872229Y-96024951D01*
X134155000Y-95795992D01*
X134155000Y-94245000D01*
X134135000Y-94245000D01*
X134135000Y-94235000D01*
X134155000Y-94235000D01*
X134155000Y-92684008D01*
X134165000Y-92684008D01*
X134165000Y-94235000D01*
X134185000Y-94235000D01*
X134185000Y-94245000D01*
X134165000Y-94245000D01*
X134165000Y-95795992D01*
X134447771Y-96024951D01*
X134577206Y-95999204D01*
X134912393Y-95884009D01*
X135218666Y-95705635D01*
X135419578Y-95528092D01*
X135690669Y-95750571D01*
X136004761Y-95918456D01*
X136017001Y-95922169D01*
X136017001Y-96790373D01*
X135852397Y-96806585D01*
X135662389Y-96864224D01*
X135487276Y-96957824D01*
X135333788Y-97083788D01*
X135207824Y-97237276D01*
X135114224Y-97412389D01*
X135056585Y-97602397D01*
X135037123Y-97800000D01*
X135037123Y-100000000D01*
X135056585Y-100197603D01*
X135114224Y-100387611D01*
X135207824Y-100562724D01*
X135333788Y-100716212D01*
X135487276Y-100842176D01*
X135662389Y-100935776D01*
X135852397Y-100993415D01*
X136050000Y-101012877D01*
X138250000Y-101012877D01*
X138447603Y-100993415D01*
X138637611Y-100935776D01*
X138812724Y-100842176D01*
X138966212Y-100716212D01*
X139092176Y-100562724D01*
X139185776Y-100387611D01*
X139243415Y-100197603D01*
X139262877Y-100000000D01*
X139262877Y-97800000D01*
X139243415Y-97602397D01*
X139185776Y-97412389D01*
X139092176Y-97237276D01*
X138966212Y-97083788D01*
X138812724Y-96957824D01*
X138637611Y-96864224D01*
X138447603Y-96806585D01*
X138283000Y-96790373D01*
X138283000Y-95113825D01*
X138378456Y-94935239D01*
X138481840Y-94594430D01*
X138516748Y-94240000D01*
X138481840Y-93885570D01*
X138378456Y-93544761D01*
X138210571Y-93230669D01*
X137984635Y-92955365D01*
X137709331Y-92729429D01*
X137395239Y-92561544D01*
X137054430Y-92458160D01*
X136788821Y-92432000D01*
X136611179Y-92432000D01*
X136345570Y-92458160D01*
X136004761Y-92561544D01*
X135690669Y-92729429D01*
X135419578Y-92951908D01*
X135218666Y-92774365D01*
X134912393Y-92595991D01*
X134577206Y-92480796D01*
X134447771Y-92455049D01*
X134165000Y-92684008D01*
X134155000Y-92684008D01*
X133872229Y-92455049D01*
X133742794Y-92480796D01*
X133407607Y-92595991D01*
X133101334Y-92774365D01*
X132900422Y-92951908D01*
X132629331Y-92729429D01*
X132315239Y-92561544D01*
X131974430Y-92458160D01*
X131708821Y-92432000D01*
X131531179Y-92432000D01*
X131265570Y-92458160D01*
X130924761Y-92561544D01*
X130610669Y-92729429D01*
X130350000Y-92943354D01*
X130089331Y-92729429D01*
X129775239Y-92561544D01*
X129434430Y-92458160D01*
X129168821Y-92432000D01*
X128991179Y-92432000D01*
X128725570Y-92458160D01*
X128384761Y-92561544D01*
X128070669Y-92729429D01*
X127810000Y-92943354D01*
X127549331Y-92729429D01*
X127235239Y-92561544D01*
X126894430Y-92458160D01*
X126628821Y-92432000D01*
X126451179Y-92432000D01*
X126185570Y-92458160D01*
X125844761Y-92561544D01*
X125530669Y-92729429D01*
X125270000Y-92943354D01*
X125009331Y-92729429D01*
X124695239Y-92561544D01*
X124354430Y-92458160D01*
X124088821Y-92432000D01*
X123911179Y-92432000D01*
X123645570Y-92458160D01*
X123304761Y-92561544D01*
X122990669Y-92729429D01*
X122730000Y-92943354D01*
X122469331Y-92729429D01*
X122155239Y-92561544D01*
X121814430Y-92458160D01*
X121548821Y-92432000D01*
X121371179Y-92432000D01*
X121105570Y-92458160D01*
X120764761Y-92561544D01*
X120450669Y-92729429D01*
X120190000Y-92943354D01*
X119929331Y-92729429D01*
X119615239Y-92561544D01*
X119274430Y-92458160D01*
X119008821Y-92432000D01*
X118831179Y-92432000D01*
X118565570Y-92458160D01*
X118224761Y-92561544D01*
X117910669Y-92729429D01*
X117650000Y-92943354D01*
X117389331Y-92729429D01*
X117075239Y-92561544D01*
X116734430Y-92458160D01*
X116468821Y-92432000D01*
X116291179Y-92432000D01*
X116025570Y-92458160D01*
X115684761Y-92561544D01*
X115370669Y-92729429D01*
X115110000Y-92943354D01*
X114983000Y-92839128D01*
X114983000Y-92382820D01*
X115127150Y-92207172D01*
X115242698Y-91990999D01*
X115313851Y-91756436D01*
X115337877Y-91512500D01*
X115337877Y-91150000D01*
X142737123Y-91150000D01*
X142756585Y-91347603D01*
X142814224Y-91537611D01*
X142907824Y-91712724D01*
X143033788Y-91866212D01*
X143187276Y-91992176D01*
X143362389Y-92085776D01*
X143552397Y-92143415D01*
X143750000Y-92162877D01*
X144343000Y-92158000D01*
X144595000Y-91906000D01*
X144595000Y-90305000D01*
X142994000Y-90305000D01*
X142742000Y-90557000D01*
X142737123Y-91150000D01*
X115337877Y-91150000D01*
X115337877Y-90937500D01*
X115313851Y-90693564D01*
X115242698Y-90459001D01*
X115184435Y-90350000D01*
X115242698Y-90240999D01*
X115313851Y-90006436D01*
X115337877Y-89762500D01*
X115337877Y-89589426D01*
X115477303Y-89450000D01*
X142737123Y-89450000D01*
X142742000Y-90043000D01*
X142994000Y-90295000D01*
X144595000Y-90295000D01*
X144595000Y-88694000D01*
X144343000Y-88442000D01*
X143750000Y-88437123D01*
X143552397Y-88456585D01*
X143362389Y-88514224D01*
X143187276Y-88607824D01*
X143033788Y-88733788D01*
X142907824Y-88887276D01*
X142814224Y-89062389D01*
X142756585Y-89252397D01*
X142737123Y-89450000D01*
X115477303Y-89450000D01*
X119144304Y-85783000D01*
X143558849Y-85783000D01*
X143614500Y-85788481D01*
X143670151Y-85783000D01*
X143670159Y-85783000D01*
X143836607Y-85766606D01*
X144015842Y-85712236D01*
X144012123Y-85750000D01*
X144012123Y-87450000D01*
X144031585Y-87647603D01*
X144089224Y-87837611D01*
X144182824Y-88012724D01*
X144308788Y-88166212D01*
X144462276Y-88292176D01*
X144637389Y-88385776D01*
X144827397Y-88443415D01*
X144853058Y-88445942D01*
X144605000Y-88694000D01*
X144605000Y-90295000D01*
X144625000Y-90295000D01*
X144625000Y-90305000D01*
X144605000Y-90305000D01*
X144605000Y-91906000D01*
X144857000Y-92158000D01*
X145450000Y-92162877D01*
X145647603Y-92143415D01*
X145837611Y-92085776D01*
X146012724Y-91992176D01*
X146151416Y-91878355D01*
X146425534Y-92024874D01*
X146775768Y-92131116D01*
X147048724Y-92158000D01*
X147218920Y-92158000D01*
X149406765Y-94345846D01*
X149446156Y-94393844D01*
X149637711Y-94551049D01*
X149856255Y-94667863D01*
X150093389Y-94739797D01*
X150278208Y-94758000D01*
X150278209Y-94758000D01*
X150339999Y-94764086D01*
X150401789Y-94758000D01*
X166712920Y-94758000D01*
X164454164Y-97016757D01*
X164406156Y-97056156D01*
X164257516Y-97237276D01*
X164248951Y-97247712D01*
X164132137Y-97466256D01*
X164060203Y-97703390D01*
X164035914Y-97950000D01*
X164042000Y-98011792D01*
X164042001Y-106615198D01*
X164035914Y-106677000D01*
X164060203Y-106923610D01*
X164132137Y-107160744D01*
X164189801Y-107268626D01*
X164248952Y-107379289D01*
X164406157Y-107570844D01*
X164454160Y-107610239D01*
X167789392Y-110945473D01*
X167781510Y-111025500D01*
X167817384Y-111389732D01*
X167923626Y-111739966D01*
X168096155Y-112062744D01*
X168294898Y-112304914D01*
X168142413Y-112477444D01*
X167959083Y-112792174D01*
X167840676Y-113136622D01*
X167814164Y-113269907D01*
X168042508Y-113560500D01*
X169643500Y-113560500D01*
X169643500Y-113540500D01*
X169653500Y-113540500D01*
X169653500Y-113560500D01*
X171254492Y-113560500D01*
X171482836Y-113269907D01*
X171456324Y-113136622D01*
X171337917Y-112792174D01*
X171154587Y-112477444D01*
X171002102Y-112304914D01*
X171200845Y-112062744D01*
X171373374Y-111739966D01*
X171479616Y-111389732D01*
X171515490Y-111025500D01*
X171479616Y-110661268D01*
X171373374Y-110311034D01*
X171200845Y-109988256D01*
X171009827Y-109755500D01*
X171200845Y-109522744D01*
X171373374Y-109199966D01*
X171479616Y-108849732D01*
X171515490Y-108485500D01*
X171479616Y-108121268D01*
X171373374Y-107771034D01*
X171200845Y-107448256D01*
X170968661Y-107165339D01*
X170685744Y-106933155D01*
X170362966Y-106760626D01*
X170012732Y-106654384D01*
X169739776Y-106627500D01*
X169557224Y-106627500D01*
X169284268Y-106654384D01*
X168934034Y-106760626D01*
X168611256Y-106933155D01*
X168328339Y-107165339D01*
X168096155Y-107448256D01*
X168010529Y-107608450D01*
X166558000Y-106155921D01*
X166558000Y-105074320D01*
X166660699Y-105053892D01*
X166916938Y-104947754D01*
X167147548Y-104793665D01*
X167343665Y-104597548D01*
X167497754Y-104366938D01*
X167603892Y-104110699D01*
X167658000Y-103838676D01*
X167658000Y-103561324D01*
X167603892Y-103289301D01*
X167497754Y-103033062D01*
X167383000Y-102861321D01*
X167383000Y-100312584D01*
X167611324Y-100358000D01*
X167888676Y-100358000D01*
X168160699Y-100303892D01*
X168416938Y-100197754D01*
X168610363Y-100068511D01*
X172225810Y-100068511D01*
X172397551Y-100183265D01*
X172653790Y-100289403D01*
X172925813Y-100343511D01*
X173203165Y-100343511D01*
X173408112Y-100302745D01*
X173355000Y-100569757D01*
X173355000Y-101034243D01*
X173445617Y-101489803D01*
X173623368Y-101918932D01*
X173881422Y-102305137D01*
X174209863Y-102633578D01*
X174596068Y-102891632D01*
X175025197Y-103069383D01*
X175120123Y-103088265D01*
X175120123Y-104763500D01*
X175139585Y-104961103D01*
X175197224Y-105151111D01*
X175290824Y-105326224D01*
X175404645Y-105464916D01*
X175258126Y-105739034D01*
X175151884Y-106089268D01*
X175116010Y-106453500D01*
X175151884Y-106817732D01*
X175258126Y-107167966D01*
X175430655Y-107490744D01*
X175621673Y-107723500D01*
X175430655Y-107956256D01*
X175258126Y-108279034D01*
X175151884Y-108629268D01*
X175116010Y-108993500D01*
X175151884Y-109357732D01*
X175258126Y-109707966D01*
X175430655Y-110030744D01*
X175621673Y-110263500D01*
X175430655Y-110496256D01*
X175258126Y-110819034D01*
X175151884Y-111169268D01*
X175116010Y-111533500D01*
X175151884Y-111897732D01*
X175258126Y-112247966D01*
X175430655Y-112570744D01*
X175621673Y-112803500D01*
X175430655Y-113036256D01*
X175258126Y-113359034D01*
X175151884Y-113709268D01*
X175116010Y-114073500D01*
X175151884Y-114437732D01*
X175258126Y-114787966D01*
X175430655Y-115110744D01*
X175621673Y-115343500D01*
X175430655Y-115576256D01*
X175258126Y-115899034D01*
X175151884Y-116249268D01*
X175116010Y-116613500D01*
X175151884Y-116977732D01*
X175258126Y-117327966D01*
X175267701Y-117345880D01*
X175025197Y-117394117D01*
X174596068Y-117571868D01*
X174209863Y-117829922D01*
X173881422Y-118158363D01*
X173623368Y-118544568D01*
X173445617Y-118973697D01*
X173355000Y-119429257D01*
X173355000Y-119893743D01*
X173445617Y-120349303D01*
X173623368Y-120778432D01*
X173881422Y-121164637D01*
X174209863Y-121493078D01*
X174596068Y-121751132D01*
X175025197Y-121928883D01*
X175480757Y-122019500D01*
X175945243Y-122019500D01*
X176400803Y-121928883D01*
X176829932Y-121751132D01*
X177216137Y-121493078D01*
X177544578Y-121164637D01*
X177802632Y-120778432D01*
X177980383Y-120349303D01*
X178071000Y-119893743D01*
X178071000Y-119429257D01*
X177980383Y-118973697D01*
X177802632Y-118544568D01*
X177670353Y-118346599D01*
X177697466Y-118338374D01*
X178020244Y-118165845D01*
X178303161Y-117933661D01*
X178535345Y-117650744D01*
X178707874Y-117327966D01*
X178814116Y-116977732D01*
X178849990Y-116613500D01*
X178814116Y-116249268D01*
X178707874Y-115899034D01*
X178535345Y-115576256D01*
X178344327Y-115343500D01*
X178535345Y-115110744D01*
X178707874Y-114787966D01*
X178814116Y-114437732D01*
X178849990Y-114073500D01*
X178814116Y-113709268D01*
X178707874Y-113359034D01*
X178535345Y-113036256D01*
X178344327Y-112803500D01*
X178535345Y-112570744D01*
X178707874Y-112247966D01*
X178814116Y-111897732D01*
X178849990Y-111533500D01*
X178814116Y-111169268D01*
X178707874Y-110819034D01*
X178535345Y-110496256D01*
X178344327Y-110263500D01*
X178535345Y-110030744D01*
X178707874Y-109707966D01*
X178814116Y-109357732D01*
X178849990Y-108993500D01*
X178814116Y-108629268D01*
X178707874Y-108279034D01*
X178535345Y-107956256D01*
X178344327Y-107723500D01*
X178535345Y-107490744D01*
X178707874Y-107167966D01*
X178814116Y-106817732D01*
X178849990Y-106453500D01*
X178814116Y-106089268D01*
X178707874Y-105739034D01*
X178561355Y-105464916D01*
X178675176Y-105326224D01*
X178768776Y-105151111D01*
X178826415Y-104961103D01*
X178845877Y-104763500D01*
X178845877Y-103063500D01*
X178826415Y-102865897D01*
X178768776Y-102675889D01*
X178675176Y-102500776D01*
X178549212Y-102347288D01*
X178395724Y-102221324D01*
X178220611Y-102127724D01*
X178030603Y-102070085D01*
X177833000Y-102050623D01*
X177714639Y-102050623D01*
X177802632Y-101918932D01*
X177980383Y-101489803D01*
X178071000Y-101034243D01*
X178071000Y-100569757D01*
X177980383Y-100114197D01*
X177802632Y-99685068D01*
X177544578Y-99298863D01*
X177216137Y-98970422D01*
X176829932Y-98712368D01*
X176400803Y-98534617D01*
X175945243Y-98444000D01*
X175480757Y-98444000D01*
X175025197Y-98534617D01*
X174596068Y-98712368D01*
X174472156Y-98795163D01*
X174418381Y-98524812D01*
X174368673Y-98404807D01*
X174421197Y-98278004D01*
X174475305Y-98005981D01*
X174475305Y-97728629D01*
X174421197Y-97456606D01*
X174315059Y-97200367D01*
X174160970Y-96969757D01*
X173964853Y-96773640D01*
X173734243Y-96619551D01*
X173478004Y-96513413D01*
X173205981Y-96459305D01*
X172928629Y-96459305D01*
X172656606Y-96513413D01*
X172400367Y-96619551D01*
X172228626Y-96734305D01*
X168294775Y-96734305D01*
X170595848Y-94433233D01*
X170643844Y-94393844D01*
X170801049Y-94202289D01*
X170917863Y-93983745D01*
X170989797Y-93746611D01*
X171014086Y-93500000D01*
X171008000Y-93438208D01*
X171008000Y-85531789D01*
X171014086Y-85469999D01*
X171008000Y-85408208D01*
X170989797Y-85223389D01*
X170917863Y-84986255D01*
X170801049Y-84767711D01*
X170643844Y-84576156D01*
X170595841Y-84536761D01*
X170283243Y-84224164D01*
X170243844Y-84176156D01*
X170052289Y-84018951D01*
X169938258Y-83958000D01*
X174663170Y-83958000D01*
X174738673Y-84050000D01*
X174547655Y-84282756D01*
X174375126Y-84605534D01*
X174268884Y-84955768D01*
X174233010Y-85320000D01*
X174268884Y-85684232D01*
X174375126Y-86034466D01*
X174547655Y-86357244D01*
X174738673Y-86590000D01*
X174547655Y-86822756D01*
X174375126Y-87145534D01*
X174268884Y-87495768D01*
X174233010Y-87860000D01*
X174268884Y-88224232D01*
X174375126Y-88574466D01*
X174547655Y-88897244D01*
X174738673Y-89130000D01*
X174547655Y-89362756D01*
X174375126Y-89685534D01*
X174268884Y-90035768D01*
X174233010Y-90400000D01*
X174268884Y-90764232D01*
X174375126Y-91114466D01*
X174547655Y-91437244D01*
X174779839Y-91720161D01*
X175062756Y-91952345D01*
X175385534Y-92124874D01*
X175735768Y-92231116D01*
X176008724Y-92258000D01*
X176191276Y-92258000D01*
X176464232Y-92231116D01*
X176565816Y-92200301D01*
X176617172Y-92262877D01*
X176659972Y-92315029D01*
X176695670Y-92344326D01*
X176724971Y-92380029D01*
X176897492Y-92521614D01*
X177094321Y-92626821D01*
X177307892Y-92691607D01*
X177474340Y-92708001D01*
X177474348Y-92708001D01*
X177529999Y-92713482D01*
X177585650Y-92708001D01*
X179694350Y-92708001D01*
X179750001Y-92713482D01*
X179805652Y-92708001D01*
X179805660Y-92708001D01*
X179972108Y-92691607D01*
X180185679Y-92626821D01*
X180382508Y-92521614D01*
X180555029Y-92380029D01*
X180590512Y-92336793D01*
X182476843Y-90450463D01*
X182520074Y-90414984D01*
X182661659Y-90242463D01*
X182766866Y-90045634D01*
X182767001Y-90045190D01*
X182767000Y-124649477D01*
X182715157Y-125178214D01*
X182576275Y-125638212D01*
X182350690Y-126062475D01*
X182046995Y-126434844D01*
X181676758Y-126741130D01*
X181254083Y-126969669D01*
X180795062Y-127111759D01*
X180269488Y-127167000D01*
X100350523Y-127167000D01*
X99821786Y-127115157D01*
X99361788Y-126976275D01*
X98937525Y-126750690D01*
X98565156Y-126446995D01*
X98258870Y-126076758D01*
X98030331Y-125654083D01*
X97888241Y-125195062D01*
X97833000Y-124669488D01*
X97833000Y-124498771D01*
X98256886Y-124498771D01*
X98256886Y-124901229D01*
X98335401Y-125295954D01*
X98489416Y-125667778D01*
X98713010Y-126002409D01*
X98997591Y-126286990D01*
X99332222Y-126510584D01*
X99704046Y-126664599D01*
X100098771Y-126743114D01*
X100501229Y-126743114D01*
X100895954Y-126664599D01*
X101267778Y-126510584D01*
X101602409Y-126286990D01*
X101886990Y-126002409D01*
X102110584Y-125667778D01*
X102264599Y-125295954D01*
X102343114Y-124901229D01*
X102343114Y-124498771D01*
X178256886Y-124498771D01*
X178256886Y-124901229D01*
X178335401Y-125295954D01*
X178489416Y-125667778D01*
X178713010Y-126002409D01*
X178997591Y-126286990D01*
X179332222Y-126510584D01*
X179704046Y-126664599D01*
X180098771Y-126743114D01*
X180501229Y-126743114D01*
X180895954Y-126664599D01*
X181267778Y-126510584D01*
X181602409Y-126286990D01*
X181886990Y-126002409D01*
X182110584Y-125667778D01*
X182264599Y-125295954D01*
X182343114Y-124901229D01*
X182343114Y-124498771D01*
X182264599Y-124104046D01*
X182110584Y-123732222D01*
X181886990Y-123397591D01*
X181602409Y-123113010D01*
X181267778Y-122889416D01*
X180895954Y-122735401D01*
X180501229Y-122656886D01*
X180098771Y-122656886D01*
X179704046Y-122735401D01*
X179332222Y-122889416D01*
X178997591Y-123113010D01*
X178713010Y-123397591D01*
X178489416Y-123732222D01*
X178335401Y-124104046D01*
X178256886Y-124498771D01*
X102343114Y-124498771D01*
X102264599Y-124104046D01*
X102110584Y-123732222D01*
X101886990Y-123397591D01*
X101602409Y-123113010D01*
X101267778Y-122889416D01*
X100895954Y-122735401D01*
X100501229Y-122656886D01*
X100098771Y-122656886D01*
X99704046Y-122735401D01*
X99332222Y-122889416D01*
X98997591Y-123113010D01*
X98713010Y-123397591D01*
X98489416Y-123732222D01*
X98335401Y-124104046D01*
X98256886Y-124498771D01*
X97833000Y-124498771D01*
X97833000Y-117400000D01*
X99857123Y-117400000D01*
X99857123Y-120400000D01*
X99876585Y-120597603D01*
X99934224Y-120787611D01*
X100027824Y-120962724D01*
X100153788Y-121116212D01*
X100307276Y-121242176D01*
X100482389Y-121335776D01*
X100672397Y-121393415D01*
X100870000Y-121412877D01*
X103870000Y-121412877D01*
X104067603Y-121393415D01*
X104257611Y-121335776D01*
X104432724Y-121242176D01*
X104586212Y-121116212D01*
X104712176Y-120962724D01*
X104805776Y-120787611D01*
X104863415Y-120597603D01*
X104882877Y-120400000D01*
X104882877Y-118652984D01*
X104942000Y-118652984D01*
X104942000Y-119147016D01*
X105038381Y-119631557D01*
X105227439Y-120087983D01*
X105501909Y-120498757D01*
X105851243Y-120848091D01*
X106262017Y-121122561D01*
X106718443Y-121311619D01*
X107202984Y-121408000D01*
X107697016Y-121408000D01*
X108181557Y-121311619D01*
X108637983Y-121122561D01*
X109048757Y-120848091D01*
X109398091Y-120498757D01*
X109672561Y-120087983D01*
X109721431Y-119970000D01*
X110133252Y-119970000D01*
X110168160Y-120324430D01*
X110271544Y-120665239D01*
X110439429Y-120979331D01*
X110665365Y-121254635D01*
X110940669Y-121480571D01*
X111254761Y-121648456D01*
X111595570Y-121751840D01*
X111861179Y-121778000D01*
X112038821Y-121778000D01*
X112304430Y-121751840D01*
X112645239Y-121648456D01*
X112959331Y-121480571D01*
X113234635Y-121254635D01*
X113460571Y-120979331D01*
X113628456Y-120665239D01*
X113731840Y-120324430D01*
X113766748Y-119970000D01*
X113731840Y-119615570D01*
X113628456Y-119274761D01*
X113460571Y-118960669D01*
X113234635Y-118685365D01*
X112959331Y-118459429D01*
X112645239Y-118291544D01*
X112304430Y-118188160D01*
X112038821Y-118162000D01*
X111861179Y-118162000D01*
X111595570Y-118188160D01*
X111254761Y-118291544D01*
X110940669Y-118459429D01*
X110665365Y-118685365D01*
X110439429Y-118960669D01*
X110271544Y-119274761D01*
X110168160Y-119615570D01*
X110133252Y-119970000D01*
X109721431Y-119970000D01*
X109861619Y-119631557D01*
X109958000Y-119147016D01*
X109958000Y-118652984D01*
X109861619Y-118168443D01*
X109672561Y-117712017D01*
X109398091Y-117301243D01*
X109048757Y-116951909D01*
X108637983Y-116677439D01*
X108181557Y-116488381D01*
X107697016Y-116392000D01*
X107202984Y-116392000D01*
X106718443Y-116488381D01*
X106262017Y-116677439D01*
X105851243Y-116951909D01*
X105501909Y-117301243D01*
X105227439Y-117712017D01*
X105038381Y-118168443D01*
X104942000Y-118652984D01*
X104882877Y-118652984D01*
X104882877Y-117400000D01*
X104863415Y-117202397D01*
X104805776Y-117012389D01*
X104712176Y-116837276D01*
X104586212Y-116683788D01*
X104432724Y-116557824D01*
X104257611Y-116464224D01*
X104067603Y-116406585D01*
X103870000Y-116387123D01*
X100870000Y-116387123D01*
X100672397Y-116406585D01*
X100482389Y-116464224D01*
X100307276Y-116557824D01*
X100153788Y-116683788D01*
X100027824Y-116837276D01*
X99934224Y-117012389D01*
X99876585Y-117202397D01*
X99857123Y-117400000D01*
X97833000Y-117400000D01*
X97833000Y-113250000D01*
X102237123Y-113250000D01*
X102256585Y-113447603D01*
X102314224Y-113637611D01*
X102407824Y-113812724D01*
X102533788Y-113966212D01*
X102687276Y-114092176D01*
X102862389Y-114185776D01*
X103052397Y-114243415D01*
X103250000Y-114262877D01*
X103893000Y-114258000D01*
X104145000Y-114006000D01*
X104145000Y-112355000D01*
X102494000Y-112355000D01*
X102242000Y-112607000D01*
X102237123Y-113250000D01*
X97833000Y-113250000D01*
X97833000Y-111450000D01*
X102237123Y-111450000D01*
X102242000Y-112093000D01*
X102494000Y-112345000D01*
X104145000Y-112345000D01*
X104145000Y-110694000D01*
X104155000Y-110694000D01*
X104155000Y-112345000D01*
X104175000Y-112345000D01*
X104175000Y-112355000D01*
X104155000Y-112355000D01*
X104155000Y-114006000D01*
X104407000Y-114258000D01*
X105050000Y-114262877D01*
X105247603Y-114243415D01*
X105437611Y-114185776D01*
X105612724Y-114092176D01*
X105725063Y-113999982D01*
X105786223Y-114040848D01*
X106133457Y-114184677D01*
X106502078Y-114258000D01*
X106877922Y-114258000D01*
X107246543Y-114184677D01*
X107593777Y-114040848D01*
X107906279Y-113832040D01*
X108172040Y-113566279D01*
X108227685Y-113483000D01*
X110532583Y-113483000D01*
X110545635Y-113502533D01*
X110797467Y-113754365D01*
X111093591Y-113952229D01*
X111422626Y-114088519D01*
X111771928Y-114158000D01*
X112128072Y-114158000D01*
X112477374Y-114088519D01*
X112806409Y-113952229D01*
X113102533Y-113754365D01*
X113354365Y-113502533D01*
X113552229Y-113206409D01*
X113688519Y-112877374D01*
X113758000Y-112528072D01*
X113758000Y-112171928D01*
X113688519Y-111822626D01*
X113552229Y-111493591D01*
X113354365Y-111197467D01*
X113102533Y-110945635D01*
X112806409Y-110747771D01*
X112477374Y-110611481D01*
X112128072Y-110542000D01*
X111771928Y-110542000D01*
X111422626Y-110611481D01*
X111093591Y-110747771D01*
X110797467Y-110945635D01*
X110545635Y-111197467D01*
X110532583Y-111217000D01*
X108227685Y-111217000D01*
X108172040Y-111133721D01*
X107906279Y-110867960D01*
X107593777Y-110659152D01*
X107246543Y-110515323D01*
X106877922Y-110442000D01*
X106502078Y-110442000D01*
X106133457Y-110515323D01*
X105786223Y-110659152D01*
X105725063Y-110700018D01*
X105612724Y-110607824D01*
X105437611Y-110514224D01*
X105247603Y-110456585D01*
X105050000Y-110437123D01*
X104407000Y-110442000D01*
X104155000Y-110694000D01*
X104145000Y-110694000D01*
X103893000Y-110442000D01*
X103250000Y-110437123D01*
X103052397Y-110456585D01*
X102862389Y-110514224D01*
X102687276Y-110607824D01*
X102533788Y-110733788D01*
X102407824Y-110887276D01*
X102314224Y-111062389D01*
X102256585Y-111252397D01*
X102237123Y-111450000D01*
X97833000Y-111450000D01*
X97833000Y-101620000D01*
X99797123Y-101620000D01*
X99797123Y-105580000D01*
X99816585Y-105777603D01*
X99874224Y-105967611D01*
X99967824Y-106142724D01*
X100093788Y-106296212D01*
X100247276Y-106422176D01*
X100422389Y-106515776D01*
X100612397Y-106573415D01*
X100810000Y-106592877D01*
X102790000Y-106592877D01*
X102987603Y-106573415D01*
X103177611Y-106515776D01*
X103352724Y-106422176D01*
X103506212Y-106296212D01*
X103632176Y-106142724D01*
X103725776Y-105967611D01*
X103783415Y-105777603D01*
X103802877Y-105580000D01*
X103802877Y-103605000D01*
X104802000Y-103605000D01*
X104802000Y-104595000D01*
X104841366Y-104984694D01*
X104956002Y-105359221D01*
X105141501Y-105704187D01*
X105390736Y-106006335D01*
X105694128Y-106254054D01*
X106040018Y-106437825D01*
X106415114Y-106550585D01*
X106482506Y-106562613D01*
X106795000Y-106335993D01*
X106795000Y-103605000D01*
X106805000Y-103605000D01*
X106805000Y-106335993D01*
X107117494Y-106562613D01*
X107184886Y-106550585D01*
X107507839Y-106453500D01*
X116950010Y-106453500D01*
X116985884Y-106817732D01*
X117092126Y-107167966D01*
X117264655Y-107490744D01*
X117455673Y-107723500D01*
X117264655Y-107956256D01*
X117092126Y-108279034D01*
X116985884Y-108629268D01*
X116950010Y-108993500D01*
X116985884Y-109357732D01*
X117092126Y-109707966D01*
X117264655Y-110030744D01*
X117455673Y-110263500D01*
X117264655Y-110496256D01*
X117092126Y-110819034D01*
X116985884Y-111169268D01*
X116950010Y-111533500D01*
X116985884Y-111897732D01*
X117092126Y-112247966D01*
X117264655Y-112570744D01*
X117455673Y-112803500D01*
X117264655Y-113036256D01*
X117092126Y-113359034D01*
X116985884Y-113709268D01*
X116950010Y-114073500D01*
X116985884Y-114437732D01*
X117092126Y-114787966D01*
X117264655Y-115110744D01*
X117455673Y-115343500D01*
X117264655Y-115576256D01*
X117092126Y-115899034D01*
X116985884Y-116249268D01*
X116950010Y-116613500D01*
X116985884Y-116977732D01*
X117092126Y-117327966D01*
X117264655Y-117650744D01*
X117496839Y-117933661D01*
X117779756Y-118165845D01*
X118095298Y-118334506D01*
X117997368Y-118481068D01*
X117819617Y-118910197D01*
X117729000Y-119365757D01*
X117729000Y-119830243D01*
X117819617Y-120285803D01*
X117997368Y-120714932D01*
X118255422Y-121101137D01*
X118583863Y-121429578D01*
X118970068Y-121687632D01*
X119399197Y-121865383D01*
X119854757Y-121956000D01*
X120319243Y-121956000D01*
X120774803Y-121865383D01*
X121203932Y-121687632D01*
X121590137Y-121429578D01*
X121918578Y-121101137D01*
X122176632Y-120714932D01*
X122354383Y-120285803D01*
X122445000Y-119830243D01*
X122445000Y-119365757D01*
X122354383Y-118910197D01*
X122176632Y-118481068D01*
X121918578Y-118094863D01*
X121590137Y-117766422D01*
X121203932Y-117508368D01*
X120774803Y-117330617D01*
X120554371Y-117286770D01*
X120648116Y-116977732D01*
X120683990Y-116613500D01*
X120648116Y-116249268D01*
X120604505Y-116105500D01*
X167781510Y-116105500D01*
X167817384Y-116469732D01*
X167923626Y-116819966D01*
X168096155Y-117142744D01*
X168287173Y-117375500D01*
X168096155Y-117608256D01*
X167923626Y-117931034D01*
X167817384Y-118281268D01*
X167781510Y-118645500D01*
X167817384Y-119009732D01*
X167923626Y-119359966D01*
X168070145Y-119634084D01*
X167956324Y-119772776D01*
X167862724Y-119947889D01*
X167805085Y-120137897D01*
X167785623Y-120335500D01*
X167785623Y-122035500D01*
X167805085Y-122233103D01*
X167862724Y-122423111D01*
X167956324Y-122598224D01*
X168082288Y-122751712D01*
X168235776Y-122877676D01*
X168410889Y-122971276D01*
X168600897Y-123028915D01*
X168798500Y-123048377D01*
X170498500Y-123048377D01*
X170696103Y-123028915D01*
X170886111Y-122971276D01*
X171061224Y-122877676D01*
X171214712Y-122751712D01*
X171340676Y-122598224D01*
X171434276Y-122423111D01*
X171491915Y-122233103D01*
X171511377Y-122035500D01*
X171511377Y-120335500D01*
X171491915Y-120137897D01*
X171434276Y-119947889D01*
X171340676Y-119772776D01*
X171226855Y-119634084D01*
X171373374Y-119359966D01*
X171479616Y-119009732D01*
X171515490Y-118645500D01*
X171479616Y-118281268D01*
X171373374Y-117931034D01*
X171200845Y-117608256D01*
X171009827Y-117375500D01*
X171200845Y-117142744D01*
X171373374Y-116819966D01*
X171479616Y-116469732D01*
X171515490Y-116105500D01*
X171479616Y-115741268D01*
X171373374Y-115391034D01*
X171200845Y-115068256D01*
X171002102Y-114826086D01*
X171154587Y-114653556D01*
X171337917Y-114338826D01*
X171456324Y-113994378D01*
X171482836Y-113861093D01*
X171254492Y-113570500D01*
X169653500Y-113570500D01*
X169653500Y-113590500D01*
X169643500Y-113590500D01*
X169643500Y-113570500D01*
X168042508Y-113570500D01*
X167814164Y-113861093D01*
X167840676Y-113994378D01*
X167959083Y-114338826D01*
X168142413Y-114653556D01*
X168294898Y-114826086D01*
X168096155Y-115068256D01*
X167923626Y-115391034D01*
X167817384Y-115741268D01*
X167781510Y-116105500D01*
X120604505Y-116105500D01*
X120541874Y-115899034D01*
X120369345Y-115576256D01*
X120178327Y-115343500D01*
X120369345Y-115110744D01*
X120541874Y-114787966D01*
X120648116Y-114437732D01*
X120683990Y-114073500D01*
X120648116Y-113709268D01*
X120541874Y-113359034D01*
X120369345Y-113036256D01*
X120178327Y-112803500D01*
X120369345Y-112570744D01*
X120541874Y-112247966D01*
X120648116Y-111897732D01*
X120683990Y-111533500D01*
X120648116Y-111169268D01*
X120541874Y-110819034D01*
X120369345Y-110496256D01*
X120178327Y-110263500D01*
X120369345Y-110030744D01*
X120541874Y-109707966D01*
X120648116Y-109357732D01*
X120683990Y-108993500D01*
X120648116Y-108629268D01*
X120541874Y-108279034D01*
X120369345Y-107956256D01*
X120178327Y-107723500D01*
X120369345Y-107490744D01*
X120541874Y-107167966D01*
X120648116Y-106817732D01*
X120683990Y-106453500D01*
X120648116Y-106089268D01*
X120541874Y-105739034D01*
X120395355Y-105464916D01*
X120509176Y-105326224D01*
X120602776Y-105151111D01*
X120660415Y-104961103D01*
X120679877Y-104763500D01*
X120675000Y-104170500D01*
X120423000Y-103918500D01*
X118822000Y-103918500D01*
X118822000Y-103938500D01*
X118812000Y-103938500D01*
X118812000Y-103918500D01*
X117211000Y-103918500D01*
X116959000Y-104170500D01*
X116954123Y-104763500D01*
X116973585Y-104961103D01*
X117031224Y-105151111D01*
X117124824Y-105326224D01*
X117238645Y-105464916D01*
X117092126Y-105739034D01*
X116985884Y-106089268D01*
X116950010Y-106453500D01*
X107507839Y-106453500D01*
X107559982Y-106437825D01*
X107905872Y-106254054D01*
X108209264Y-106006335D01*
X108458499Y-105704187D01*
X108643998Y-105359221D01*
X108758634Y-104984694D01*
X108798000Y-104595000D01*
X108798000Y-103605000D01*
X106805000Y-103605000D01*
X106795000Y-103605000D01*
X104802000Y-103605000D01*
X103802877Y-103605000D01*
X103802877Y-102605000D01*
X104802000Y-102605000D01*
X104802000Y-103595000D01*
X106795000Y-103595000D01*
X106795000Y-100864007D01*
X106805000Y-100864007D01*
X106805000Y-103595000D01*
X108798000Y-103595000D01*
X108798000Y-102605000D01*
X108758634Y-102215306D01*
X108643998Y-101840779D01*
X108458499Y-101495813D01*
X108209264Y-101193665D01*
X107905872Y-100945946D01*
X107559982Y-100762175D01*
X107184886Y-100649415D01*
X107117494Y-100637387D01*
X106805000Y-100864007D01*
X106795000Y-100864007D01*
X106482506Y-100637387D01*
X106415114Y-100649415D01*
X106040018Y-100762175D01*
X105694128Y-100945946D01*
X105390736Y-101193665D01*
X105141501Y-101495813D01*
X104956002Y-101840779D01*
X104841366Y-102215306D01*
X104802000Y-102605000D01*
X103802877Y-102605000D01*
X103802877Y-101620000D01*
X103783415Y-101422397D01*
X103725776Y-101232389D01*
X103632176Y-101057276D01*
X103506212Y-100903788D01*
X103352724Y-100777824D01*
X103177611Y-100684224D01*
X102987603Y-100626585D01*
X102790000Y-100607123D01*
X100810000Y-100607123D01*
X100612397Y-100626585D01*
X100422389Y-100684224D01*
X100247276Y-100777824D01*
X100093788Y-100903788D01*
X99967824Y-101057276D01*
X99874224Y-101232389D01*
X99816585Y-101422397D01*
X99797123Y-101620000D01*
X97833000Y-101620000D01*
X97833000Y-74750523D01*
X97884843Y-74221786D01*
X98023725Y-73761788D01*
X98249311Y-73337523D01*
X98553003Y-72965158D01*
X98923240Y-72658871D01*
X99345917Y-72430331D01*
X99804938Y-72288241D01*
X100330512Y-72233000D01*
X180249477Y-72233000D01*
X180778214Y-72284843D01*
X180778214Y-72284843D01*
G37*
X180778214Y-72284843D02*
X181238212Y-72423725D01*
X181662477Y-72649311D01*
X182034842Y-72953003D01*
X182341129Y-73323240D01*
X182569669Y-73745917D01*
X182711759Y-74204938D01*
X182767001Y-74730522D01*
X182767001Y-80979812D01*
X182766866Y-80979367D01*
X182661659Y-80782539D01*
X182555554Y-80653250D01*
X182555553Y-80653249D01*
X182520074Y-80610018D01*
X182476843Y-80574539D01*
X176401075Y-74498771D01*
X178256886Y-74498771D01*
X178256886Y-74901229D01*
X178335401Y-75295954D01*
X178489416Y-75667778D01*
X178713010Y-76002409D01*
X178997591Y-76286990D01*
X179332222Y-76510584D01*
X179704046Y-76664599D01*
X180098771Y-76743114D01*
X180501229Y-76743114D01*
X180895954Y-76664599D01*
X181267778Y-76510584D01*
X181602409Y-76286990D01*
X181886990Y-76002409D01*
X182110584Y-75667778D01*
X182264599Y-75295954D01*
X182343114Y-74901229D01*
X182343114Y-74498771D01*
X182264599Y-74104046D01*
X182110584Y-73732222D01*
X181886990Y-73397591D01*
X181602409Y-73113010D01*
X181267778Y-72889416D01*
X180895954Y-72735401D01*
X180501229Y-72656886D01*
X180098771Y-72656886D01*
X179704046Y-72735401D01*
X179332222Y-72889416D01*
X178997591Y-73113010D01*
X178713010Y-73397591D01*
X178489416Y-73732222D01*
X178335401Y-74104046D01*
X178256886Y-74498771D01*
X176401075Y-74498771D01*
X176215456Y-74313153D01*
X176179973Y-74269917D01*
X176007452Y-74128332D01*
X175810623Y-74023125D01*
X175597052Y-73958339D01*
X175430604Y-73941945D01*
X175430596Y-73941945D01*
X175374945Y-73936464D01*
X175319294Y-73941945D01*
X103030705Y-73941945D01*
X102975054Y-73936464D01*
X102919403Y-73941945D01*
X102919396Y-73941945D01*
X102752948Y-73958339D01*
X102539377Y-74023125D01*
X102342548Y-74128332D01*
X102279691Y-74179918D01*
X102264599Y-74104046D01*
X102110584Y-73732222D01*
X101886990Y-73397591D01*
X101602409Y-73113010D01*
X101267778Y-72889416D01*
X100895954Y-72735401D01*
X100501229Y-72656886D01*
X100098771Y-72656886D01*
X99704046Y-72735401D01*
X99332222Y-72889416D01*
X98997591Y-73113010D01*
X98713010Y-73397591D01*
X98489416Y-73732222D01*
X98335401Y-74104046D01*
X98256886Y-74498771D01*
X98256886Y-74901229D01*
X98335401Y-75295954D01*
X98489416Y-75667778D01*
X98713010Y-76002409D01*
X98997591Y-76286990D01*
X99332222Y-76510584D01*
X99704046Y-76664599D01*
X99769982Y-76677714D01*
X99253202Y-77194494D01*
X99209972Y-77229973D01*
X99174493Y-77273204D01*
X99174491Y-77273206D01*
X99068386Y-77402495D01*
X98963180Y-77599323D01*
X98898393Y-77812895D01*
X98876518Y-78035001D01*
X98882000Y-78090662D01*
X98881999Y-93059348D01*
X98876518Y-93114999D01*
X98881999Y-93170650D01*
X98881999Y-93170657D01*
X98898393Y-93337105D01*
X98963179Y-93550676D01*
X99068386Y-93747506D01*
X99209971Y-93920027D01*
X99253207Y-93955510D01*
X99342479Y-94044782D01*
X99323252Y-94240000D01*
X99358160Y-94594430D01*
X99461544Y-94935239D01*
X99629429Y-95249331D01*
X99855365Y-95524635D01*
X100130669Y-95750571D01*
X100444761Y-95918456D01*
X100785570Y-96021840D01*
X101051179Y-96048000D01*
X101228821Y-96048000D01*
X101494430Y-96021840D01*
X101835239Y-95918456D01*
X102149331Y-95750571D01*
X102410000Y-95536646D01*
X102670669Y-95750571D01*
X102984761Y-95918456D01*
X103325570Y-96021840D01*
X103591179Y-96048000D01*
X103768821Y-96048000D01*
X104034430Y-96021840D01*
X104375239Y-95918456D01*
X104689331Y-95750571D01*
X104950000Y-95536646D01*
X105210669Y-95750571D01*
X105524761Y-95918456D01*
X105865570Y-96021840D01*
X106131179Y-96048000D01*
X106308821Y-96048000D01*
X106574430Y-96021840D01*
X106915239Y-95918456D01*
X107229331Y-95750571D01*
X107490000Y-95536646D01*
X107750669Y-95750571D01*
X108064761Y-95918456D01*
X108405570Y-96021840D01*
X108671179Y-96048000D01*
X108848821Y-96048000D01*
X109114430Y-96021840D01*
X109455239Y-95918456D01*
X109769331Y-95750571D01*
X110030000Y-95536646D01*
X110165192Y-95647595D01*
X110002452Y-95756335D01*
X109806335Y-95952452D01*
X109652246Y-96183062D01*
X109546108Y-96439301D01*
X109492000Y-96711324D01*
X109492000Y-96988676D01*
X109546108Y-97260699D01*
X109652246Y-97516938D01*
X109806335Y-97747548D01*
X110002452Y-97943665D01*
X110233062Y-98097754D01*
X110489301Y-98203892D01*
X110761324Y-98258000D01*
X110855697Y-98258000D01*
X111349318Y-98751621D01*
X111339531Y-98850991D01*
X111339531Y-98875551D01*
X111337123Y-98900000D01*
X111337123Y-99400000D01*
X111351897Y-99550000D01*
X111337123Y-99700000D01*
X111337123Y-100200000D01*
X111339531Y-100224449D01*
X111339531Y-100249009D01*
X111358993Y-100446611D01*
X111378115Y-100542744D01*
X111435752Y-100732749D01*
X111473261Y-100823305D01*
X111566863Y-100998423D01*
X111621319Y-101079922D01*
X111747283Y-101233409D01*
X111816591Y-101302717D01*
X111837124Y-101319568D01*
X111746108Y-101539301D01*
X111692000Y-101811324D01*
X111692000Y-102088676D01*
X111746108Y-102360699D01*
X111852246Y-102616938D01*
X112006335Y-102847548D01*
X112202452Y-103043665D01*
X112433062Y-103197754D01*
X112689301Y-103303892D01*
X112961324Y-103358000D01*
X113238676Y-103358000D01*
X113510699Y-103303892D01*
X113766938Y-103197754D01*
X113967862Y-103063500D01*
X116954123Y-103063500D01*
X116959000Y-103656500D01*
X117211000Y-103908500D01*
X118812000Y-103908500D01*
X118812000Y-103888500D01*
X118822000Y-103888500D01*
X118822000Y-103908500D01*
X120423000Y-103908500D01*
X120675000Y-103656500D01*
X120679673Y-103088306D01*
X120774803Y-103069383D01*
X121203932Y-102891632D01*
X121590137Y-102633578D01*
X121918578Y-102305137D01*
X122176632Y-101918932D01*
X122354383Y-101489803D01*
X122445000Y-101034243D01*
X122445000Y-100569757D01*
X122354383Y-100114197D01*
X122176632Y-99685068D01*
X121918578Y-99298863D01*
X121590137Y-98970422D01*
X121203932Y-98712368D01*
X120774803Y-98534617D01*
X120319243Y-98444000D01*
X119854757Y-98444000D01*
X119399197Y-98534617D01*
X118970068Y-98712368D01*
X118583863Y-98970422D01*
X118255422Y-99298863D01*
X117997368Y-99685068D01*
X117819617Y-100114197D01*
X117729000Y-100569757D01*
X117729000Y-101034243D01*
X117819617Y-101489803D01*
X117997368Y-101918932D01*
X118086015Y-102051602D01*
X117967000Y-102050623D01*
X117769397Y-102070085D01*
X117579389Y-102127724D01*
X117404276Y-102221324D01*
X117250788Y-102347288D01*
X117124824Y-102500776D01*
X117031224Y-102675889D01*
X116973585Y-102865897D01*
X116954123Y-103063500D01*
X113967862Y-103063500D01*
X113997548Y-103043665D01*
X114193665Y-102847548D01*
X114347754Y-102616938D01*
X114453892Y-102360699D01*
X114508000Y-102088676D01*
X114508000Y-101811324D01*
X114453892Y-101539301D01*
X114362876Y-101319568D01*
X114383409Y-101302717D01*
X114452717Y-101233409D01*
X114578681Y-101079922D01*
X114633137Y-100998423D01*
X114726739Y-100823305D01*
X114764248Y-100732749D01*
X114821885Y-100542744D01*
X114841007Y-100446611D01*
X114860469Y-100249009D01*
X114860469Y-100224449D01*
X114862877Y-100200000D01*
X114862877Y-99700000D01*
X114848103Y-99550000D01*
X114862877Y-99400000D01*
X114862877Y-98900000D01*
X114860469Y-98875551D01*
X114860469Y-98850991D01*
X114841007Y-98653389D01*
X114821885Y-98557256D01*
X114764248Y-98367251D01*
X114726739Y-98276695D01*
X114633137Y-98101577D01*
X114578681Y-98020078D01*
X114452717Y-97866591D01*
X114383409Y-97797283D01*
X114229922Y-97671319D01*
X114148423Y-97616863D01*
X113973305Y-97523261D01*
X113882749Y-97485752D01*
X113692744Y-97428115D01*
X113596611Y-97408993D01*
X113399009Y-97389531D01*
X113374449Y-97389531D01*
X113350000Y-97387123D01*
X113189426Y-97387123D01*
X112256943Y-96454640D01*
X112253892Y-96439301D01*
X112147754Y-96183062D01*
X111993665Y-95952452D01*
X111967948Y-95926735D01*
X111995239Y-95918456D01*
X112309331Y-95750571D01*
X112570000Y-95536646D01*
X112830669Y-95750571D01*
X113144761Y-95918456D01*
X113485570Y-96021840D01*
X113751179Y-96048000D01*
X113928821Y-96048000D01*
X114194430Y-96021840D01*
X114535239Y-95918456D01*
X114849331Y-95750571D01*
X115110000Y-95536646D01*
X115370669Y-95750571D01*
X115684761Y-95918456D01*
X116025570Y-96021840D01*
X116291179Y-96048000D01*
X116468821Y-96048000D01*
X116734430Y-96021840D01*
X117075239Y-95918456D01*
X117389331Y-95750571D01*
X117650000Y-95536646D01*
X117910669Y-95750571D01*
X118224761Y-95918456D01*
X118565570Y-96021840D01*
X118831179Y-96048000D01*
X119008821Y-96048000D01*
X119274430Y-96021840D01*
X119615239Y-95918456D01*
X119929331Y-95750571D01*
X120190000Y-95536646D01*
X120450669Y-95750571D01*
X120764761Y-95918456D01*
X121105570Y-96021840D01*
X121371179Y-96048000D01*
X121548821Y-96048000D01*
X121814430Y-96021840D01*
X122155239Y-95918456D01*
X122469331Y-95750571D01*
X122730000Y-95536646D01*
X122990669Y-95750571D01*
X123304761Y-95918456D01*
X123645570Y-96021840D01*
X123911179Y-96048000D01*
X124088821Y-96048000D01*
X124354430Y-96021840D01*
X124695239Y-95918456D01*
X125009331Y-95750571D01*
X125270000Y-95536646D01*
X125530669Y-95750571D01*
X125806448Y-95897977D01*
X125750203Y-96083390D01*
X125725914Y-96330000D01*
X125732000Y-96391793D01*
X125732000Y-97205414D01*
X125492207Y-97402207D01*
X125228782Y-97723192D01*
X125033039Y-98089400D01*
X124912502Y-98486760D01*
X124871801Y-98900000D01*
X124912502Y-99313240D01*
X125033039Y-99710600D01*
X125228782Y-100076808D01*
X125492207Y-100397793D01*
X125813192Y-100661218D01*
X126179400Y-100856961D01*
X126576760Y-100977498D01*
X126886449Y-101008000D01*
X127093551Y-101008000D01*
X127403240Y-100977498D01*
X127800600Y-100856961D01*
X128166808Y-100661218D01*
X128487793Y-100397793D01*
X128751218Y-100076808D01*
X128946961Y-99710600D01*
X129067498Y-99313240D01*
X129108199Y-98900000D01*
X129067498Y-98486760D01*
X128946961Y-98089400D01*
X128751218Y-97723192D01*
X128487793Y-97402207D01*
X128248000Y-97205414D01*
X128248000Y-96851079D01*
X129051080Y-96048000D01*
X129168821Y-96048000D01*
X129434430Y-96021840D01*
X129775239Y-95918456D01*
X130089331Y-95750571D01*
X130350000Y-95536646D01*
X130610669Y-95750571D01*
X130924761Y-95918456D01*
X131265570Y-96021840D01*
X131531179Y-96048000D01*
X131708821Y-96048000D01*
X131974430Y-96021840D01*
X132315239Y-95918456D01*
X132629331Y-95750571D01*
X132900422Y-95528092D01*
X133101334Y-95705635D01*
X133407607Y-95884009D01*
X133742794Y-95999204D01*
X133872229Y-96024951D01*
X134155000Y-95795992D01*
X134155000Y-94245000D01*
X134135000Y-94245000D01*
X134135000Y-94235000D01*
X134155000Y-94235000D01*
X134155000Y-92684008D01*
X134165000Y-92684008D01*
X134165000Y-94235000D01*
X134185000Y-94235000D01*
X134185000Y-94245000D01*
X134165000Y-94245000D01*
X134165000Y-95795992D01*
X134447771Y-96024951D01*
X134577206Y-95999204D01*
X134912393Y-95884009D01*
X135218666Y-95705635D01*
X135419578Y-95528092D01*
X135690669Y-95750571D01*
X136004761Y-95918456D01*
X136017001Y-95922169D01*
X136017001Y-96790373D01*
X135852397Y-96806585D01*
X135662389Y-96864224D01*
X135487276Y-96957824D01*
X135333788Y-97083788D01*
X135207824Y-97237276D01*
X135114224Y-97412389D01*
X135056585Y-97602397D01*
X135037123Y-97800000D01*
X135037123Y-100000000D01*
X135056585Y-100197603D01*
X135114224Y-100387611D01*
X135207824Y-100562724D01*
X135333788Y-100716212D01*
X135487276Y-100842176D01*
X135662389Y-100935776D01*
X135852397Y-100993415D01*
X136050000Y-101012877D01*
X138250000Y-101012877D01*
X138447603Y-100993415D01*
X138637611Y-100935776D01*
X138812724Y-100842176D01*
X138966212Y-100716212D01*
X139092176Y-100562724D01*
X139185776Y-100387611D01*
X139243415Y-100197603D01*
X139262877Y-100000000D01*
X139262877Y-97800000D01*
X139243415Y-97602397D01*
X139185776Y-97412389D01*
X139092176Y-97237276D01*
X138966212Y-97083788D01*
X138812724Y-96957824D01*
X138637611Y-96864224D01*
X138447603Y-96806585D01*
X138283000Y-96790373D01*
X138283000Y-95113825D01*
X138378456Y-94935239D01*
X138481840Y-94594430D01*
X138516748Y-94240000D01*
X138481840Y-93885570D01*
X138378456Y-93544761D01*
X138210571Y-93230669D01*
X137984635Y-92955365D01*
X137709331Y-92729429D01*
X137395239Y-92561544D01*
X137054430Y-92458160D01*
X136788821Y-92432000D01*
X136611179Y-92432000D01*
X136345570Y-92458160D01*
X136004761Y-92561544D01*
X135690669Y-92729429D01*
X135419578Y-92951908D01*
X135218666Y-92774365D01*
X134912393Y-92595991D01*
X134577206Y-92480796D01*
X134447771Y-92455049D01*
X134165000Y-92684008D01*
X134155000Y-92684008D01*
X133872229Y-92455049D01*
X133742794Y-92480796D01*
X133407607Y-92595991D01*
X133101334Y-92774365D01*
X132900422Y-92951908D01*
X132629331Y-92729429D01*
X132315239Y-92561544D01*
X131974430Y-92458160D01*
X131708821Y-92432000D01*
X131531179Y-92432000D01*
X131265570Y-92458160D01*
X130924761Y-92561544D01*
X130610669Y-92729429D01*
X130350000Y-92943354D01*
X130089331Y-92729429D01*
X129775239Y-92561544D01*
X129434430Y-92458160D01*
X129168821Y-92432000D01*
X128991179Y-92432000D01*
X128725570Y-92458160D01*
X128384761Y-92561544D01*
X128070669Y-92729429D01*
X127810000Y-92943354D01*
X127549331Y-92729429D01*
X127235239Y-92561544D01*
X126894430Y-92458160D01*
X126628821Y-92432000D01*
X126451179Y-92432000D01*
X126185570Y-92458160D01*
X125844761Y-92561544D01*
X125530669Y-92729429D01*
X125270000Y-92943354D01*
X125009331Y-92729429D01*
X124695239Y-92561544D01*
X124354430Y-92458160D01*
X124088821Y-92432000D01*
X123911179Y-92432000D01*
X123645570Y-92458160D01*
X123304761Y-92561544D01*
X122990669Y-92729429D01*
X122730000Y-92943354D01*
X122469331Y-92729429D01*
X122155239Y-92561544D01*
X121814430Y-92458160D01*
X121548821Y-92432000D01*
X121371179Y-92432000D01*
X121105570Y-92458160D01*
X120764761Y-92561544D01*
X120450669Y-92729429D01*
X120190000Y-92943354D01*
X119929331Y-92729429D01*
X119615239Y-92561544D01*
X119274430Y-92458160D01*
X119008821Y-92432000D01*
X118831179Y-92432000D01*
X118565570Y-92458160D01*
X118224761Y-92561544D01*
X117910669Y-92729429D01*
X117650000Y-92943354D01*
X117389331Y-92729429D01*
X117075239Y-92561544D01*
X116734430Y-92458160D01*
X116468821Y-92432000D01*
X116291179Y-92432000D01*
X116025570Y-92458160D01*
X115684761Y-92561544D01*
X115370669Y-92729429D01*
X115110000Y-92943354D01*
X114983000Y-92839128D01*
X114983000Y-92382820D01*
X115127150Y-92207172D01*
X115242698Y-91990999D01*
X115313851Y-91756436D01*
X115337877Y-91512500D01*
X115337877Y-91150000D01*
X142737123Y-91150000D01*
X142756585Y-91347603D01*
X142814224Y-91537611D01*
X142907824Y-91712724D01*
X143033788Y-91866212D01*
X143187276Y-91992176D01*
X143362389Y-92085776D01*
X143552397Y-92143415D01*
X143750000Y-92162877D01*
X144343000Y-92158000D01*
X144595000Y-91906000D01*
X144595000Y-90305000D01*
X142994000Y-90305000D01*
X142742000Y-90557000D01*
X142737123Y-91150000D01*
X115337877Y-91150000D01*
X115337877Y-90937500D01*
X115313851Y-90693564D01*
X115242698Y-90459001D01*
X115184435Y-90350000D01*
X115242698Y-90240999D01*
X115313851Y-90006436D01*
X115337877Y-89762500D01*
X115337877Y-89589426D01*
X115477303Y-89450000D01*
X142737123Y-89450000D01*
X142742000Y-90043000D01*
X142994000Y-90295000D01*
X144595000Y-90295000D01*
X144595000Y-88694000D01*
X144343000Y-88442000D01*
X143750000Y-88437123D01*
X143552397Y-88456585D01*
X143362389Y-88514224D01*
X143187276Y-88607824D01*
X143033788Y-88733788D01*
X142907824Y-88887276D01*
X142814224Y-89062389D01*
X142756585Y-89252397D01*
X142737123Y-89450000D01*
X115477303Y-89450000D01*
X119144304Y-85783000D01*
X143558849Y-85783000D01*
X143614500Y-85788481D01*
X143670151Y-85783000D01*
X143670159Y-85783000D01*
X143836607Y-85766606D01*
X144015842Y-85712236D01*
X144012123Y-85750000D01*
X144012123Y-87450000D01*
X144031585Y-87647603D01*
X144089224Y-87837611D01*
X144182824Y-88012724D01*
X144308788Y-88166212D01*
X144462276Y-88292176D01*
X144637389Y-88385776D01*
X144827397Y-88443415D01*
X144853058Y-88445942D01*
X144605000Y-88694000D01*
X144605000Y-90295000D01*
X144625000Y-90295000D01*
X144625000Y-90305000D01*
X144605000Y-90305000D01*
X144605000Y-91906000D01*
X144857000Y-92158000D01*
X145450000Y-92162877D01*
X145647603Y-92143415D01*
X145837611Y-92085776D01*
X146012724Y-91992176D01*
X146151416Y-91878355D01*
X146425534Y-92024874D01*
X146775768Y-92131116D01*
X147048724Y-92158000D01*
X147218920Y-92158000D01*
X149406765Y-94345846D01*
X149446156Y-94393844D01*
X149637711Y-94551049D01*
X149856255Y-94667863D01*
X150093389Y-94739797D01*
X150278208Y-94758000D01*
X150278209Y-94758000D01*
X150339999Y-94764086D01*
X150401789Y-94758000D01*
X166712920Y-94758000D01*
X164454164Y-97016757D01*
X164406156Y-97056156D01*
X164257516Y-97237276D01*
X164248951Y-97247712D01*
X164132137Y-97466256D01*
X164060203Y-97703390D01*
X164035914Y-97950000D01*
X164042000Y-98011792D01*
X164042001Y-106615198D01*
X164035914Y-106677000D01*
X164060203Y-106923610D01*
X164132137Y-107160744D01*
X164189801Y-107268626D01*
X164248952Y-107379289D01*
X164406157Y-107570844D01*
X164454160Y-107610239D01*
X167789392Y-110945473D01*
X167781510Y-111025500D01*
X167817384Y-111389732D01*
X167923626Y-111739966D01*
X168096155Y-112062744D01*
X168294898Y-112304914D01*
X168142413Y-112477444D01*
X167959083Y-112792174D01*
X167840676Y-113136622D01*
X167814164Y-113269907D01*
X168042508Y-113560500D01*
X169643500Y-113560500D01*
X169643500Y-113540500D01*
X169653500Y-113540500D01*
X169653500Y-113560500D01*
X171254492Y-113560500D01*
X171482836Y-113269907D01*
X171456324Y-113136622D01*
X171337917Y-112792174D01*
X171154587Y-112477444D01*
X171002102Y-112304914D01*
X171200845Y-112062744D01*
X171373374Y-111739966D01*
X171479616Y-111389732D01*
X171515490Y-111025500D01*
X171479616Y-110661268D01*
X171373374Y-110311034D01*
X171200845Y-109988256D01*
X171009827Y-109755500D01*
X171200845Y-109522744D01*
X171373374Y-109199966D01*
X171479616Y-108849732D01*
X171515490Y-108485500D01*
X171479616Y-108121268D01*
X171373374Y-107771034D01*
X171200845Y-107448256D01*
X170968661Y-107165339D01*
X170685744Y-106933155D01*
X170362966Y-106760626D01*
X170012732Y-106654384D01*
X169739776Y-106627500D01*
X169557224Y-106627500D01*
X169284268Y-106654384D01*
X168934034Y-106760626D01*
X168611256Y-106933155D01*
X168328339Y-107165339D01*
X168096155Y-107448256D01*
X168010529Y-107608450D01*
X166558000Y-106155921D01*
X166558000Y-105074320D01*
X166660699Y-105053892D01*
X166916938Y-104947754D01*
X167147548Y-104793665D01*
X167343665Y-104597548D01*
X167497754Y-104366938D01*
X167603892Y-104110699D01*
X167658000Y-103838676D01*
X167658000Y-103561324D01*
X167603892Y-103289301D01*
X167497754Y-103033062D01*
X167383000Y-102861321D01*
X167383000Y-100312584D01*
X167611324Y-100358000D01*
X167888676Y-100358000D01*
X168160699Y-100303892D01*
X168416938Y-100197754D01*
X168610363Y-100068511D01*
X172225810Y-100068511D01*
X172397551Y-100183265D01*
X172653790Y-100289403D01*
X172925813Y-100343511D01*
X173203165Y-100343511D01*
X173408112Y-100302745D01*
X173355000Y-100569757D01*
X173355000Y-101034243D01*
X173445617Y-101489803D01*
X173623368Y-101918932D01*
X173881422Y-102305137D01*
X174209863Y-102633578D01*
X174596068Y-102891632D01*
X175025197Y-103069383D01*
X175120123Y-103088265D01*
X175120123Y-104763500D01*
X175139585Y-104961103D01*
X175197224Y-105151111D01*
X175290824Y-105326224D01*
X175404645Y-105464916D01*
X175258126Y-105739034D01*
X175151884Y-106089268D01*
X175116010Y-106453500D01*
X175151884Y-106817732D01*
X175258126Y-107167966D01*
X175430655Y-107490744D01*
X175621673Y-107723500D01*
X175430655Y-107956256D01*
X175258126Y-108279034D01*
X175151884Y-108629268D01*
X175116010Y-108993500D01*
X175151884Y-109357732D01*
X175258126Y-109707966D01*
X175430655Y-110030744D01*
X175621673Y-110263500D01*
X175430655Y-110496256D01*
X175258126Y-110819034D01*
X175151884Y-111169268D01*
X175116010Y-111533500D01*
X175151884Y-111897732D01*
X175258126Y-112247966D01*
X175430655Y-112570744D01*
X175621673Y-112803500D01*
X175430655Y-113036256D01*
X175258126Y-113359034D01*
X175151884Y-113709268D01*
X175116010Y-114073500D01*
X175151884Y-114437732D01*
X175258126Y-114787966D01*
X175430655Y-115110744D01*
X175621673Y-115343500D01*
X175430655Y-115576256D01*
X175258126Y-115899034D01*
X175151884Y-116249268D01*
X175116010Y-116613500D01*
X175151884Y-116977732D01*
X175258126Y-117327966D01*
X175267701Y-117345880D01*
X175025197Y-117394117D01*
X174596068Y-117571868D01*
X174209863Y-117829922D01*
X173881422Y-118158363D01*
X173623368Y-118544568D01*
X173445617Y-118973697D01*
X173355000Y-119429257D01*
X173355000Y-119893743D01*
X173445617Y-120349303D01*
X173623368Y-120778432D01*
X173881422Y-121164637D01*
X174209863Y-121493078D01*
X174596068Y-121751132D01*
X175025197Y-121928883D01*
X175480757Y-122019500D01*
X175945243Y-122019500D01*
X176400803Y-121928883D01*
X176829932Y-121751132D01*
X177216137Y-121493078D01*
X177544578Y-121164637D01*
X177802632Y-120778432D01*
X177980383Y-120349303D01*
X178071000Y-119893743D01*
X178071000Y-119429257D01*
X177980383Y-118973697D01*
X177802632Y-118544568D01*
X177670353Y-118346599D01*
X177697466Y-118338374D01*
X178020244Y-118165845D01*
X178303161Y-117933661D01*
X178535345Y-117650744D01*
X178707874Y-117327966D01*
X178814116Y-116977732D01*
X178849990Y-116613500D01*
X178814116Y-116249268D01*
X178707874Y-115899034D01*
X178535345Y-115576256D01*
X178344327Y-115343500D01*
X178535345Y-115110744D01*
X178707874Y-114787966D01*
X178814116Y-114437732D01*
X178849990Y-114073500D01*
X178814116Y-113709268D01*
X178707874Y-113359034D01*
X178535345Y-113036256D01*
X178344327Y-112803500D01*
X178535345Y-112570744D01*
X178707874Y-112247966D01*
X178814116Y-111897732D01*
X178849990Y-111533500D01*
X178814116Y-111169268D01*
X178707874Y-110819034D01*
X178535345Y-110496256D01*
X178344327Y-110263500D01*
X178535345Y-110030744D01*
X178707874Y-109707966D01*
X178814116Y-109357732D01*
X178849990Y-108993500D01*
X178814116Y-108629268D01*
X178707874Y-108279034D01*
X178535345Y-107956256D01*
X178344327Y-107723500D01*
X178535345Y-107490744D01*
X178707874Y-107167966D01*
X178814116Y-106817732D01*
X178849990Y-106453500D01*
X178814116Y-106089268D01*
X178707874Y-105739034D01*
X178561355Y-105464916D01*
X178675176Y-105326224D01*
X178768776Y-105151111D01*
X178826415Y-104961103D01*
X178845877Y-104763500D01*
X178845877Y-103063500D01*
X178826415Y-102865897D01*
X178768776Y-102675889D01*
X178675176Y-102500776D01*
X178549212Y-102347288D01*
X178395724Y-102221324D01*
X178220611Y-102127724D01*
X178030603Y-102070085D01*
X177833000Y-102050623D01*
X177714639Y-102050623D01*
X177802632Y-101918932D01*
X177980383Y-101489803D01*
X178071000Y-101034243D01*
X178071000Y-100569757D01*
X177980383Y-100114197D01*
X177802632Y-99685068D01*
X177544578Y-99298863D01*
X177216137Y-98970422D01*
X176829932Y-98712368D01*
X176400803Y-98534617D01*
X175945243Y-98444000D01*
X175480757Y-98444000D01*
X175025197Y-98534617D01*
X174596068Y-98712368D01*
X174472156Y-98795163D01*
X174418381Y-98524812D01*
X174368673Y-98404807D01*
X174421197Y-98278004D01*
X174475305Y-98005981D01*
X174475305Y-97728629D01*
X174421197Y-97456606D01*
X174315059Y-97200367D01*
X174160970Y-96969757D01*
X173964853Y-96773640D01*
X173734243Y-96619551D01*
X173478004Y-96513413D01*
X173205981Y-96459305D01*
X172928629Y-96459305D01*
X172656606Y-96513413D01*
X172400367Y-96619551D01*
X172228626Y-96734305D01*
X168294775Y-96734305D01*
X170595848Y-94433233D01*
X170643844Y-94393844D01*
X170801049Y-94202289D01*
X170917863Y-93983745D01*
X170989797Y-93746611D01*
X171014086Y-93500000D01*
X171008000Y-93438208D01*
X171008000Y-85531789D01*
X171014086Y-85469999D01*
X171008000Y-85408208D01*
X170989797Y-85223389D01*
X170917863Y-84986255D01*
X170801049Y-84767711D01*
X170643844Y-84576156D01*
X170595841Y-84536761D01*
X170283243Y-84224164D01*
X170243844Y-84176156D01*
X170052289Y-84018951D01*
X169938258Y-83958000D01*
X174663170Y-83958000D01*
X174738673Y-84050000D01*
X174547655Y-84282756D01*
X174375126Y-84605534D01*
X174268884Y-84955768D01*
X174233010Y-85320000D01*
X174268884Y-85684232D01*
X174375126Y-86034466D01*
X174547655Y-86357244D01*
X174738673Y-86590000D01*
X174547655Y-86822756D01*
X174375126Y-87145534D01*
X174268884Y-87495768D01*
X174233010Y-87860000D01*
X174268884Y-88224232D01*
X174375126Y-88574466D01*
X174547655Y-88897244D01*
X174738673Y-89130000D01*
X174547655Y-89362756D01*
X174375126Y-89685534D01*
X174268884Y-90035768D01*
X174233010Y-90400000D01*
X174268884Y-90764232D01*
X174375126Y-91114466D01*
X174547655Y-91437244D01*
X174779839Y-91720161D01*
X175062756Y-91952345D01*
X175385534Y-92124874D01*
X175735768Y-92231116D01*
X176008724Y-92258000D01*
X176191276Y-92258000D01*
X176464232Y-92231116D01*
X176565816Y-92200301D01*
X176617172Y-92262877D01*
X176659972Y-92315029D01*
X176695670Y-92344326D01*
X176724971Y-92380029D01*
X176897492Y-92521614D01*
X177094321Y-92626821D01*
X177307892Y-92691607D01*
X177474340Y-92708001D01*
X177474348Y-92708001D01*
X177529999Y-92713482D01*
X177585650Y-92708001D01*
X179694350Y-92708001D01*
X179750001Y-92713482D01*
X179805652Y-92708001D01*
X179805660Y-92708001D01*
X179972108Y-92691607D01*
X180185679Y-92626821D01*
X180382508Y-92521614D01*
X180555029Y-92380029D01*
X180590512Y-92336793D01*
X182476843Y-90450463D01*
X182520074Y-90414984D01*
X182661659Y-90242463D01*
X182766866Y-90045634D01*
X182767001Y-90045190D01*
X182767000Y-124649477D01*
X182715157Y-125178214D01*
X182576275Y-125638212D01*
X182350690Y-126062475D01*
X182046995Y-126434844D01*
X181676758Y-126741130D01*
X181254083Y-126969669D01*
X180795062Y-127111759D01*
X180269488Y-127167000D01*
X100350523Y-127167000D01*
X99821786Y-127115157D01*
X99361788Y-126976275D01*
X98937525Y-126750690D01*
X98565156Y-126446995D01*
X98258870Y-126076758D01*
X98030331Y-125654083D01*
X97888241Y-125195062D01*
X97833000Y-124669488D01*
X97833000Y-124498771D01*
X98256886Y-124498771D01*
X98256886Y-124901229D01*
X98335401Y-125295954D01*
X98489416Y-125667778D01*
X98713010Y-126002409D01*
X98997591Y-126286990D01*
X99332222Y-126510584D01*
X99704046Y-126664599D01*
X100098771Y-126743114D01*
X100501229Y-126743114D01*
X100895954Y-126664599D01*
X101267778Y-126510584D01*
X101602409Y-126286990D01*
X101886990Y-126002409D01*
X102110584Y-125667778D01*
X102264599Y-125295954D01*
X102343114Y-124901229D01*
X102343114Y-124498771D01*
X178256886Y-124498771D01*
X178256886Y-124901229D01*
X178335401Y-125295954D01*
X178489416Y-125667778D01*
X178713010Y-126002409D01*
X178997591Y-126286990D01*
X179332222Y-126510584D01*
X179704046Y-126664599D01*
X180098771Y-126743114D01*
X180501229Y-126743114D01*
X180895954Y-126664599D01*
X181267778Y-126510584D01*
X181602409Y-126286990D01*
X181886990Y-126002409D01*
X182110584Y-125667778D01*
X182264599Y-125295954D01*
X182343114Y-124901229D01*
X182343114Y-124498771D01*
X182264599Y-124104046D01*
X182110584Y-123732222D01*
X181886990Y-123397591D01*
X181602409Y-123113010D01*
X181267778Y-122889416D01*
X180895954Y-122735401D01*
X180501229Y-122656886D01*
X180098771Y-122656886D01*
X179704046Y-122735401D01*
X179332222Y-122889416D01*
X178997591Y-123113010D01*
X178713010Y-123397591D01*
X178489416Y-123732222D01*
X178335401Y-124104046D01*
X178256886Y-124498771D01*
X102343114Y-124498771D01*
X102264599Y-124104046D01*
X102110584Y-123732222D01*
X101886990Y-123397591D01*
X101602409Y-123113010D01*
X101267778Y-122889416D01*
X100895954Y-122735401D01*
X100501229Y-122656886D01*
X100098771Y-122656886D01*
X99704046Y-122735401D01*
X99332222Y-122889416D01*
X98997591Y-123113010D01*
X98713010Y-123397591D01*
X98489416Y-123732222D01*
X98335401Y-124104046D01*
X98256886Y-124498771D01*
X97833000Y-124498771D01*
X97833000Y-117400000D01*
X99857123Y-117400000D01*
X99857123Y-120400000D01*
X99876585Y-120597603D01*
X99934224Y-120787611D01*
X100027824Y-120962724D01*
X100153788Y-121116212D01*
X100307276Y-121242176D01*
X100482389Y-121335776D01*
X100672397Y-121393415D01*
X100870000Y-121412877D01*
X103870000Y-121412877D01*
X104067603Y-121393415D01*
X104257611Y-121335776D01*
X104432724Y-121242176D01*
X104586212Y-121116212D01*
X104712176Y-120962724D01*
X104805776Y-120787611D01*
X104863415Y-120597603D01*
X104882877Y-120400000D01*
X104882877Y-118652984D01*
X104942000Y-118652984D01*
X104942000Y-119147016D01*
X105038381Y-119631557D01*
X105227439Y-120087983D01*
X105501909Y-120498757D01*
X105851243Y-120848091D01*
X106262017Y-121122561D01*
X106718443Y-121311619D01*
X107202984Y-121408000D01*
X107697016Y-121408000D01*
X108181557Y-121311619D01*
X108637983Y-121122561D01*
X109048757Y-120848091D01*
X109398091Y-120498757D01*
X109672561Y-120087983D01*
X109721431Y-119970000D01*
X110133252Y-119970000D01*
X110168160Y-120324430D01*
X110271544Y-120665239D01*
X110439429Y-120979331D01*
X110665365Y-121254635D01*
X110940669Y-121480571D01*
X111254761Y-121648456D01*
X111595570Y-121751840D01*
X111861179Y-121778000D01*
X112038821Y-121778000D01*
X112304430Y-121751840D01*
X112645239Y-121648456D01*
X112959331Y-121480571D01*
X113234635Y-121254635D01*
X113460571Y-120979331D01*
X113628456Y-120665239D01*
X113731840Y-120324430D01*
X113766748Y-119970000D01*
X113731840Y-119615570D01*
X113628456Y-119274761D01*
X113460571Y-118960669D01*
X113234635Y-118685365D01*
X112959331Y-118459429D01*
X112645239Y-118291544D01*
X112304430Y-118188160D01*
X112038821Y-118162000D01*
X111861179Y-118162000D01*
X111595570Y-118188160D01*
X111254761Y-118291544D01*
X110940669Y-118459429D01*
X110665365Y-118685365D01*
X110439429Y-118960669D01*
X110271544Y-119274761D01*
X110168160Y-119615570D01*
X110133252Y-119970000D01*
X109721431Y-119970000D01*
X109861619Y-119631557D01*
X109958000Y-119147016D01*
X109958000Y-118652984D01*
X109861619Y-118168443D01*
X109672561Y-117712017D01*
X109398091Y-117301243D01*
X109048757Y-116951909D01*
X108637983Y-116677439D01*
X108181557Y-116488381D01*
X107697016Y-116392000D01*
X107202984Y-116392000D01*
X106718443Y-116488381D01*
X106262017Y-116677439D01*
X105851243Y-116951909D01*
X105501909Y-117301243D01*
X105227439Y-117712017D01*
X105038381Y-118168443D01*
X104942000Y-118652984D01*
X104882877Y-118652984D01*
X104882877Y-117400000D01*
X104863415Y-117202397D01*
X104805776Y-117012389D01*
X104712176Y-116837276D01*
X104586212Y-116683788D01*
X104432724Y-116557824D01*
X104257611Y-116464224D01*
X104067603Y-116406585D01*
X103870000Y-116387123D01*
X100870000Y-116387123D01*
X100672397Y-116406585D01*
X100482389Y-116464224D01*
X100307276Y-116557824D01*
X100153788Y-116683788D01*
X100027824Y-116837276D01*
X99934224Y-117012389D01*
X99876585Y-117202397D01*
X99857123Y-117400000D01*
X97833000Y-117400000D01*
X97833000Y-113250000D01*
X102237123Y-113250000D01*
X102256585Y-113447603D01*
X102314224Y-113637611D01*
X102407824Y-113812724D01*
X102533788Y-113966212D01*
X102687276Y-114092176D01*
X102862389Y-114185776D01*
X103052397Y-114243415D01*
X103250000Y-114262877D01*
X103893000Y-114258000D01*
X104145000Y-114006000D01*
X104145000Y-112355000D01*
X102494000Y-112355000D01*
X102242000Y-112607000D01*
X102237123Y-113250000D01*
X97833000Y-113250000D01*
X97833000Y-111450000D01*
X102237123Y-111450000D01*
X102242000Y-112093000D01*
X102494000Y-112345000D01*
X104145000Y-112345000D01*
X104145000Y-110694000D01*
X104155000Y-110694000D01*
X104155000Y-112345000D01*
X104175000Y-112345000D01*
X104175000Y-112355000D01*
X104155000Y-112355000D01*
X104155000Y-114006000D01*
X104407000Y-114258000D01*
X105050000Y-114262877D01*
X105247603Y-114243415D01*
X105437611Y-114185776D01*
X105612724Y-114092176D01*
X105725063Y-113999982D01*
X105786223Y-114040848D01*
X106133457Y-114184677D01*
X106502078Y-114258000D01*
X106877922Y-114258000D01*
X107246543Y-114184677D01*
X107593777Y-114040848D01*
X107906279Y-113832040D01*
X108172040Y-113566279D01*
X108227685Y-113483000D01*
X110532583Y-113483000D01*
X110545635Y-113502533D01*
X110797467Y-113754365D01*
X111093591Y-113952229D01*
X111422626Y-114088519D01*
X111771928Y-114158000D01*
X112128072Y-114158000D01*
X112477374Y-114088519D01*
X112806409Y-113952229D01*
X113102533Y-113754365D01*
X113354365Y-113502533D01*
X113552229Y-113206409D01*
X113688519Y-112877374D01*
X113758000Y-112528072D01*
X113758000Y-112171928D01*
X113688519Y-111822626D01*
X113552229Y-111493591D01*
X113354365Y-111197467D01*
X113102533Y-110945635D01*
X112806409Y-110747771D01*
X112477374Y-110611481D01*
X112128072Y-110542000D01*
X111771928Y-110542000D01*
X111422626Y-110611481D01*
X111093591Y-110747771D01*
X110797467Y-110945635D01*
X110545635Y-111197467D01*
X110532583Y-111217000D01*
X108227685Y-111217000D01*
X108172040Y-111133721D01*
X107906279Y-110867960D01*
X107593777Y-110659152D01*
X107246543Y-110515323D01*
X106877922Y-110442000D01*
X106502078Y-110442000D01*
X106133457Y-110515323D01*
X105786223Y-110659152D01*
X105725063Y-110700018D01*
X105612724Y-110607824D01*
X105437611Y-110514224D01*
X105247603Y-110456585D01*
X105050000Y-110437123D01*
X104407000Y-110442000D01*
X104155000Y-110694000D01*
X104145000Y-110694000D01*
X103893000Y-110442000D01*
X103250000Y-110437123D01*
X103052397Y-110456585D01*
X102862389Y-110514224D01*
X102687276Y-110607824D01*
X102533788Y-110733788D01*
X102407824Y-110887276D01*
X102314224Y-111062389D01*
X102256585Y-111252397D01*
X102237123Y-111450000D01*
X97833000Y-111450000D01*
X97833000Y-101620000D01*
X99797123Y-101620000D01*
X99797123Y-105580000D01*
X99816585Y-105777603D01*
X99874224Y-105967611D01*
X99967824Y-106142724D01*
X100093788Y-106296212D01*
X100247276Y-106422176D01*
X100422389Y-106515776D01*
X100612397Y-106573415D01*
X100810000Y-106592877D01*
X102790000Y-106592877D01*
X102987603Y-106573415D01*
X103177611Y-106515776D01*
X103352724Y-106422176D01*
X103506212Y-106296212D01*
X103632176Y-106142724D01*
X103725776Y-105967611D01*
X103783415Y-105777603D01*
X103802877Y-105580000D01*
X103802877Y-103605000D01*
X104802000Y-103605000D01*
X104802000Y-104595000D01*
X104841366Y-104984694D01*
X104956002Y-105359221D01*
X105141501Y-105704187D01*
X105390736Y-106006335D01*
X105694128Y-106254054D01*
X106040018Y-106437825D01*
X106415114Y-106550585D01*
X106482506Y-106562613D01*
X106795000Y-106335993D01*
X106795000Y-103605000D01*
X106805000Y-103605000D01*
X106805000Y-106335993D01*
X107117494Y-106562613D01*
X107184886Y-106550585D01*
X107507839Y-106453500D01*
X116950010Y-106453500D01*
X116985884Y-106817732D01*
X117092126Y-107167966D01*
X117264655Y-107490744D01*
X117455673Y-107723500D01*
X117264655Y-107956256D01*
X117092126Y-108279034D01*
X116985884Y-108629268D01*
X116950010Y-108993500D01*
X116985884Y-109357732D01*
X117092126Y-109707966D01*
X117264655Y-110030744D01*
X117455673Y-110263500D01*
X117264655Y-110496256D01*
X117092126Y-110819034D01*
X116985884Y-111169268D01*
X116950010Y-111533500D01*
X116985884Y-111897732D01*
X117092126Y-112247966D01*
X117264655Y-112570744D01*
X117455673Y-112803500D01*
X117264655Y-113036256D01*
X117092126Y-113359034D01*
X116985884Y-113709268D01*
X116950010Y-114073500D01*
X116985884Y-114437732D01*
X117092126Y-114787966D01*
X117264655Y-115110744D01*
X117455673Y-115343500D01*
X117264655Y-115576256D01*
X117092126Y-115899034D01*
X116985884Y-116249268D01*
X116950010Y-116613500D01*
X116985884Y-116977732D01*
X117092126Y-117327966D01*
X117264655Y-117650744D01*
X117496839Y-117933661D01*
X117779756Y-118165845D01*
X118095298Y-118334506D01*
X117997368Y-118481068D01*
X117819617Y-118910197D01*
X117729000Y-119365757D01*
X117729000Y-119830243D01*
X117819617Y-120285803D01*
X117997368Y-120714932D01*
X118255422Y-121101137D01*
X118583863Y-121429578D01*
X118970068Y-121687632D01*
X119399197Y-121865383D01*
X119854757Y-121956000D01*
X120319243Y-121956000D01*
X120774803Y-121865383D01*
X121203932Y-121687632D01*
X121590137Y-121429578D01*
X121918578Y-121101137D01*
X122176632Y-120714932D01*
X122354383Y-120285803D01*
X122445000Y-119830243D01*
X122445000Y-119365757D01*
X122354383Y-118910197D01*
X122176632Y-118481068D01*
X121918578Y-118094863D01*
X121590137Y-117766422D01*
X121203932Y-117508368D01*
X120774803Y-117330617D01*
X120554371Y-117286770D01*
X120648116Y-116977732D01*
X120683990Y-116613500D01*
X120648116Y-116249268D01*
X120604505Y-116105500D01*
X167781510Y-116105500D01*
X167817384Y-116469732D01*
X167923626Y-116819966D01*
X168096155Y-117142744D01*
X168287173Y-117375500D01*
X168096155Y-117608256D01*
X167923626Y-117931034D01*
X167817384Y-118281268D01*
X167781510Y-118645500D01*
X167817384Y-119009732D01*
X167923626Y-119359966D01*
X168070145Y-119634084D01*
X167956324Y-119772776D01*
X167862724Y-119947889D01*
X167805085Y-120137897D01*
X167785623Y-120335500D01*
X167785623Y-122035500D01*
X167805085Y-122233103D01*
X167862724Y-122423111D01*
X167956324Y-122598224D01*
X168082288Y-122751712D01*
X168235776Y-122877676D01*
X168410889Y-122971276D01*
X168600897Y-123028915D01*
X168798500Y-123048377D01*
X170498500Y-123048377D01*
X170696103Y-123028915D01*
X170886111Y-122971276D01*
X171061224Y-122877676D01*
X171214712Y-122751712D01*
X171340676Y-122598224D01*
X171434276Y-122423111D01*
X171491915Y-122233103D01*
X171511377Y-122035500D01*
X171511377Y-120335500D01*
X171491915Y-120137897D01*
X171434276Y-119947889D01*
X171340676Y-119772776D01*
X171226855Y-119634084D01*
X171373374Y-119359966D01*
X171479616Y-119009732D01*
X171515490Y-118645500D01*
X171479616Y-118281268D01*
X171373374Y-117931034D01*
X171200845Y-117608256D01*
X171009827Y-117375500D01*
X171200845Y-117142744D01*
X171373374Y-116819966D01*
X171479616Y-116469732D01*
X171515490Y-116105500D01*
X171479616Y-115741268D01*
X171373374Y-115391034D01*
X171200845Y-115068256D01*
X171002102Y-114826086D01*
X171154587Y-114653556D01*
X171337917Y-114338826D01*
X171456324Y-113994378D01*
X171482836Y-113861093D01*
X171254492Y-113570500D01*
X169653500Y-113570500D01*
X169653500Y-113590500D01*
X169643500Y-113590500D01*
X169643500Y-113570500D01*
X168042508Y-113570500D01*
X167814164Y-113861093D01*
X167840676Y-113994378D01*
X167959083Y-114338826D01*
X168142413Y-114653556D01*
X168294898Y-114826086D01*
X168096155Y-115068256D01*
X167923626Y-115391034D01*
X167817384Y-115741268D01*
X167781510Y-116105500D01*
X120604505Y-116105500D01*
X120541874Y-115899034D01*
X120369345Y-115576256D01*
X120178327Y-115343500D01*
X120369345Y-115110744D01*
X120541874Y-114787966D01*
X120648116Y-114437732D01*
X120683990Y-114073500D01*
X120648116Y-113709268D01*
X120541874Y-113359034D01*
X120369345Y-113036256D01*
X120178327Y-112803500D01*
X120369345Y-112570744D01*
X120541874Y-112247966D01*
X120648116Y-111897732D01*
X120683990Y-111533500D01*
X120648116Y-111169268D01*
X120541874Y-110819034D01*
X120369345Y-110496256D01*
X120178327Y-110263500D01*
X120369345Y-110030744D01*
X120541874Y-109707966D01*
X120648116Y-109357732D01*
X120683990Y-108993500D01*
X120648116Y-108629268D01*
X120541874Y-108279034D01*
X120369345Y-107956256D01*
X120178327Y-107723500D01*
X120369345Y-107490744D01*
X120541874Y-107167966D01*
X120648116Y-106817732D01*
X120683990Y-106453500D01*
X120648116Y-106089268D01*
X120541874Y-105739034D01*
X120395355Y-105464916D01*
X120509176Y-105326224D01*
X120602776Y-105151111D01*
X120660415Y-104961103D01*
X120679877Y-104763500D01*
X120675000Y-104170500D01*
X120423000Y-103918500D01*
X118822000Y-103918500D01*
X118822000Y-103938500D01*
X118812000Y-103938500D01*
X118812000Y-103918500D01*
X117211000Y-103918500D01*
X116959000Y-104170500D01*
X116954123Y-104763500D01*
X116973585Y-104961103D01*
X117031224Y-105151111D01*
X117124824Y-105326224D01*
X117238645Y-105464916D01*
X117092126Y-105739034D01*
X116985884Y-106089268D01*
X116950010Y-106453500D01*
X107507839Y-106453500D01*
X107559982Y-106437825D01*
X107905872Y-106254054D01*
X108209264Y-106006335D01*
X108458499Y-105704187D01*
X108643998Y-105359221D01*
X108758634Y-104984694D01*
X108798000Y-104595000D01*
X108798000Y-103605000D01*
X106805000Y-103605000D01*
X106795000Y-103605000D01*
X104802000Y-103605000D01*
X103802877Y-103605000D01*
X103802877Y-102605000D01*
X104802000Y-102605000D01*
X104802000Y-103595000D01*
X106795000Y-103595000D01*
X106795000Y-100864007D01*
X106805000Y-100864007D01*
X106805000Y-103595000D01*
X108798000Y-103595000D01*
X108798000Y-102605000D01*
X108758634Y-102215306D01*
X108643998Y-101840779D01*
X108458499Y-101495813D01*
X108209264Y-101193665D01*
X107905872Y-100945946D01*
X107559982Y-100762175D01*
X107184886Y-100649415D01*
X107117494Y-100637387D01*
X106805000Y-100864007D01*
X106795000Y-100864007D01*
X106482506Y-100637387D01*
X106415114Y-100649415D01*
X106040018Y-100762175D01*
X105694128Y-100945946D01*
X105390736Y-101193665D01*
X105141501Y-101495813D01*
X104956002Y-101840779D01*
X104841366Y-102215306D01*
X104802000Y-102605000D01*
X103802877Y-102605000D01*
X103802877Y-101620000D01*
X103783415Y-101422397D01*
X103725776Y-101232389D01*
X103632176Y-101057276D01*
X103506212Y-100903788D01*
X103352724Y-100777824D01*
X103177611Y-100684224D01*
X102987603Y-100626585D01*
X102790000Y-100607123D01*
X100810000Y-100607123D01*
X100612397Y-100626585D01*
X100422389Y-100684224D01*
X100247276Y-100777824D01*
X100093788Y-100903788D01*
X99967824Y-101057276D01*
X99874224Y-101232389D01*
X99816585Y-101422397D01*
X99797123Y-101620000D01*
X97833000Y-101620000D01*
X97833000Y-74750523D01*
X97884843Y-74221786D01*
X98023725Y-73761788D01*
X98249311Y-73337523D01*
X98553003Y-72965158D01*
X98923240Y-72658871D01*
X99345917Y-72430331D01*
X99804938Y-72288241D01*
X100330512Y-72233000D01*
X180249477Y-72233000D01*
X180778214Y-72284843D01*
G36*
X142695206Y-81766991D02*
G01*
X115380660Y-81766991D01*
X115325009Y-81761510D01*
X115269358Y-81766991D01*
X115269350Y-81766991D01*
X115102902Y-81783385D01*
X114889331Y-81848171D01*
X114694850Y-81952123D01*
X114692502Y-81953378D01*
X114607015Y-82023536D01*
X114519981Y-82094963D01*
X114484502Y-82138194D01*
X108685574Y-87937123D01*
X108512500Y-87937123D01*
X108268564Y-87961149D01*
X108034001Y-88032302D01*
X107817828Y-88147850D01*
X107628350Y-88303350D01*
X107472850Y-88492828D01*
X107357302Y-88709001D01*
X107286149Y-88943564D01*
X107262123Y-89187500D01*
X107262123Y-89762500D01*
X107286149Y-90006436D01*
X107357302Y-90240999D01*
X107415565Y-90350000D01*
X107357302Y-90459001D01*
X107286149Y-90693564D01*
X107262123Y-90937500D01*
X107262123Y-91512500D01*
X107286149Y-91756436D01*
X107357302Y-91990999D01*
X107472850Y-92207172D01*
X107617000Y-92382820D01*
X107617001Y-92839128D01*
X107490000Y-92943354D01*
X107229331Y-92729429D01*
X106915239Y-92561544D01*
X106574430Y-92458160D01*
X106308821Y-92432000D01*
X106131179Y-92432000D01*
X105865570Y-92458160D01*
X105524761Y-92561544D01*
X105210669Y-92729429D01*
X104950000Y-92943354D01*
X104689331Y-92729429D01*
X104375239Y-92561544D01*
X104034430Y-92458160D01*
X103768821Y-92432000D01*
X103591179Y-92432000D01*
X103325570Y-92458160D01*
X102984761Y-92561544D01*
X102670669Y-92729429D01*
X102410000Y-92943354D01*
X102149331Y-92729429D01*
X101835239Y-92561544D01*
X101494430Y-92458160D01*
X101228821Y-92432000D01*
X101147999Y-92432000D01*
X101147999Y-80808000D01*
X101228821Y-80808000D01*
X101494430Y-80781840D01*
X101835239Y-80678456D01*
X102149331Y-80510571D01*
X102410000Y-80296646D01*
X102670669Y-80510571D01*
X102984761Y-80678456D01*
X103325570Y-80781840D01*
X103591179Y-80808000D01*
X103768821Y-80808000D01*
X104034430Y-80781840D01*
X104375239Y-80678456D01*
X104689331Y-80510571D01*
X104950000Y-80296646D01*
X105210669Y-80510571D01*
X105524761Y-80678456D01*
X105865570Y-80781840D01*
X106131179Y-80808000D01*
X106308821Y-80808000D01*
X106574430Y-80781840D01*
X106915239Y-80678456D01*
X107229331Y-80510571D01*
X107490000Y-80296646D01*
X107750669Y-80510571D01*
X108064761Y-80678456D01*
X108405570Y-80781840D01*
X108671179Y-80808000D01*
X108848821Y-80808000D01*
X109114430Y-80781840D01*
X109455239Y-80678456D01*
X109769331Y-80510571D01*
X110030000Y-80296646D01*
X110290669Y-80510571D01*
X110604761Y-80678456D01*
X110945570Y-80781840D01*
X111211179Y-80808000D01*
X111388821Y-80808000D01*
X111654430Y-80781840D01*
X111995239Y-80678456D01*
X112309331Y-80510571D01*
X112570000Y-80296646D01*
X112830669Y-80510571D01*
X113144761Y-80678456D01*
X113485570Y-80781840D01*
X113751179Y-80808000D01*
X113928821Y-80808000D01*
X114035218Y-80797521D01*
X114124490Y-80886793D01*
X114159973Y-80930029D01*
X114332494Y-81071614D01*
X114529323Y-81176821D01*
X114742894Y-81241607D01*
X114909342Y-81258001D01*
X114909349Y-81258001D01*
X114965000Y-81263482D01*
X115020651Y-81258001D01*
X116864350Y-81258001D01*
X116920001Y-81263482D01*
X116975652Y-81258001D01*
X116975660Y-81258001D01*
X117142108Y-81241607D01*
X117355679Y-81176821D01*
X117552508Y-81071614D01*
X117725029Y-80930029D01*
X117760512Y-80886793D01*
X118057990Y-80589315D01*
X118224761Y-80678456D01*
X118565570Y-80781840D01*
X118831179Y-80808000D01*
X119008821Y-80808000D01*
X119274430Y-80781840D01*
X119615239Y-80678456D01*
X119929331Y-80510571D01*
X120190000Y-80296646D01*
X120450669Y-80510571D01*
X120764761Y-80678456D01*
X121105570Y-80781840D01*
X121371179Y-80808000D01*
X121548821Y-80808000D01*
X121814430Y-80781840D01*
X122155239Y-80678456D01*
X122469331Y-80510571D01*
X122730000Y-80296646D01*
X122990669Y-80510571D01*
X123304761Y-80678456D01*
X123645570Y-80781840D01*
X123911179Y-80808000D01*
X124088821Y-80808000D01*
X124354430Y-80781840D01*
X124695239Y-80678456D01*
X125009331Y-80510571D01*
X125270000Y-80296646D01*
X125530669Y-80510571D01*
X125844761Y-80678456D01*
X126185570Y-80781840D01*
X126451179Y-80808000D01*
X126628821Y-80808000D01*
X126894430Y-80781840D01*
X127235239Y-80678456D01*
X127549331Y-80510571D01*
X127820422Y-80288092D01*
X128021334Y-80465635D01*
X128327607Y-80644009D01*
X128662794Y-80759204D01*
X128792229Y-80784951D01*
X129075000Y-80555992D01*
X129075000Y-79005000D01*
X129055000Y-79005000D01*
X129055000Y-78995000D01*
X129075000Y-78995000D01*
X129075000Y-78975000D01*
X129085000Y-78975000D01*
X129085000Y-78995000D01*
X129105000Y-78995000D01*
X129105000Y-79005000D01*
X129085000Y-79005000D01*
X129085000Y-80555992D01*
X129367771Y-80784951D01*
X129497206Y-80759204D01*
X129832393Y-80644009D01*
X130138666Y-80465635D01*
X130339578Y-80288092D01*
X130610669Y-80510571D01*
X130924761Y-80678456D01*
X131265570Y-80781840D01*
X131531179Y-80808000D01*
X131708821Y-80808000D01*
X131974430Y-80781840D01*
X132315239Y-80678456D01*
X132629331Y-80510571D01*
X132890000Y-80296646D01*
X133150669Y-80510571D01*
X133464761Y-80678456D01*
X133805570Y-80781840D01*
X134071179Y-80808000D01*
X134248821Y-80808000D01*
X134514430Y-80781840D01*
X134855239Y-80678456D01*
X135169331Y-80510571D01*
X135175203Y-80505752D01*
X135183788Y-80516212D01*
X135337276Y-80642176D01*
X135512389Y-80735776D01*
X135702397Y-80793415D01*
X135900000Y-80812877D01*
X137500000Y-80812877D01*
X137697603Y-80793415D01*
X137887611Y-80735776D01*
X138062724Y-80642176D01*
X138216212Y-80516212D01*
X138342176Y-80362724D01*
X138435776Y-80187611D01*
X138493415Y-79997603D01*
X138512877Y-79800000D01*
X138512877Y-78200000D01*
X138503815Y-78107988D01*
X146354208Y-78107988D01*
X142695206Y-81766991D01*
X142695206Y-81766991D01*
G37*
X142695206Y-81766991D02*
X115380660Y-81766991D01*
X115325009Y-81761510D01*
X115269358Y-81766991D01*
X115269350Y-81766991D01*
X115102902Y-81783385D01*
X114889331Y-81848171D01*
X114694850Y-81952123D01*
X114692502Y-81953378D01*
X114607015Y-82023536D01*
X114519981Y-82094963D01*
X114484502Y-82138194D01*
X108685574Y-87937123D01*
X108512500Y-87937123D01*
X108268564Y-87961149D01*
X108034001Y-88032302D01*
X107817828Y-88147850D01*
X107628350Y-88303350D01*
X107472850Y-88492828D01*
X107357302Y-88709001D01*
X107286149Y-88943564D01*
X107262123Y-89187500D01*
X107262123Y-89762500D01*
X107286149Y-90006436D01*
X107357302Y-90240999D01*
X107415565Y-90350000D01*
X107357302Y-90459001D01*
X107286149Y-90693564D01*
X107262123Y-90937500D01*
X107262123Y-91512500D01*
X107286149Y-91756436D01*
X107357302Y-91990999D01*
X107472850Y-92207172D01*
X107617000Y-92382820D01*
X107617001Y-92839128D01*
X107490000Y-92943354D01*
X107229331Y-92729429D01*
X106915239Y-92561544D01*
X106574430Y-92458160D01*
X106308821Y-92432000D01*
X106131179Y-92432000D01*
X105865570Y-92458160D01*
X105524761Y-92561544D01*
X105210669Y-92729429D01*
X104950000Y-92943354D01*
X104689331Y-92729429D01*
X104375239Y-92561544D01*
X104034430Y-92458160D01*
X103768821Y-92432000D01*
X103591179Y-92432000D01*
X103325570Y-92458160D01*
X102984761Y-92561544D01*
X102670669Y-92729429D01*
X102410000Y-92943354D01*
X102149331Y-92729429D01*
X101835239Y-92561544D01*
X101494430Y-92458160D01*
X101228821Y-92432000D01*
X101147999Y-92432000D01*
X101147999Y-80808000D01*
X101228821Y-80808000D01*
X101494430Y-80781840D01*
X101835239Y-80678456D01*
X102149331Y-80510571D01*
X102410000Y-80296646D01*
X102670669Y-80510571D01*
X102984761Y-80678456D01*
X103325570Y-80781840D01*
X103591179Y-80808000D01*
X103768821Y-80808000D01*
X104034430Y-80781840D01*
X104375239Y-80678456D01*
X104689331Y-80510571D01*
X104950000Y-80296646D01*
X105210669Y-80510571D01*
X105524761Y-80678456D01*
X105865570Y-80781840D01*
X106131179Y-80808000D01*
X106308821Y-80808000D01*
X106574430Y-80781840D01*
X106915239Y-80678456D01*
X107229331Y-80510571D01*
X107490000Y-80296646D01*
X107750669Y-80510571D01*
X108064761Y-80678456D01*
X108405570Y-80781840D01*
X108671179Y-80808000D01*
X108848821Y-80808000D01*
X109114430Y-80781840D01*
X109455239Y-80678456D01*
X109769331Y-80510571D01*
X110030000Y-80296646D01*
X110290669Y-80510571D01*
X110604761Y-80678456D01*
X110945570Y-80781840D01*
X111211179Y-80808000D01*
X111388821Y-80808000D01*
X111654430Y-80781840D01*
X111995239Y-80678456D01*
X112309331Y-80510571D01*
X112570000Y-80296646D01*
X112830669Y-80510571D01*
X113144761Y-80678456D01*
X113485570Y-80781840D01*
X113751179Y-80808000D01*
X113928821Y-80808000D01*
X114035218Y-80797521D01*
X114124490Y-80886793D01*
X114159973Y-80930029D01*
X114332494Y-81071614D01*
X114529323Y-81176821D01*
X114742894Y-81241607D01*
X114909342Y-81258001D01*
X114909349Y-81258001D01*
X114965000Y-81263482D01*
X115020651Y-81258001D01*
X116864350Y-81258001D01*
X116920001Y-81263482D01*
X116975652Y-81258001D01*
X116975660Y-81258001D01*
X117142108Y-81241607D01*
X117355679Y-81176821D01*
X117552508Y-81071614D01*
X117725029Y-80930029D01*
X117760512Y-80886793D01*
X118057990Y-80589315D01*
X118224761Y-80678456D01*
X118565570Y-80781840D01*
X118831179Y-80808000D01*
X119008821Y-80808000D01*
X119274430Y-80781840D01*
X119615239Y-80678456D01*
X119929331Y-80510571D01*
X120190000Y-80296646D01*
X120450669Y-80510571D01*
X120764761Y-80678456D01*
X121105570Y-80781840D01*
X121371179Y-80808000D01*
X121548821Y-80808000D01*
X121814430Y-80781840D01*
X122155239Y-80678456D01*
X122469331Y-80510571D01*
X122730000Y-80296646D01*
X122990669Y-80510571D01*
X123304761Y-80678456D01*
X123645570Y-80781840D01*
X123911179Y-80808000D01*
X124088821Y-80808000D01*
X124354430Y-80781840D01*
X124695239Y-80678456D01*
X125009331Y-80510571D01*
X125270000Y-80296646D01*
X125530669Y-80510571D01*
X125844761Y-80678456D01*
X126185570Y-80781840D01*
X126451179Y-80808000D01*
X126628821Y-80808000D01*
X126894430Y-80781840D01*
X127235239Y-80678456D01*
X127549331Y-80510571D01*
X127820422Y-80288092D01*
X128021334Y-80465635D01*
X128327607Y-80644009D01*
X128662794Y-80759204D01*
X128792229Y-80784951D01*
X129075000Y-80555992D01*
X129075000Y-79005000D01*
X129055000Y-79005000D01*
X129055000Y-78995000D01*
X129075000Y-78995000D01*
X129075000Y-78975000D01*
X129085000Y-78975000D01*
X129085000Y-78995000D01*
X129105000Y-78995000D01*
X129105000Y-79005000D01*
X129085000Y-79005000D01*
X129085000Y-80555992D01*
X129367771Y-80784951D01*
X129497206Y-80759204D01*
X129832393Y-80644009D01*
X130138666Y-80465635D01*
X130339578Y-80288092D01*
X130610669Y-80510571D01*
X130924761Y-80678456D01*
X131265570Y-80781840D01*
X131531179Y-80808000D01*
X131708821Y-80808000D01*
X131974430Y-80781840D01*
X132315239Y-80678456D01*
X132629331Y-80510571D01*
X132890000Y-80296646D01*
X133150669Y-80510571D01*
X133464761Y-80678456D01*
X133805570Y-80781840D01*
X134071179Y-80808000D01*
X134248821Y-80808000D01*
X134514430Y-80781840D01*
X134855239Y-80678456D01*
X135169331Y-80510571D01*
X135175203Y-80505752D01*
X135183788Y-80516212D01*
X135337276Y-80642176D01*
X135512389Y-80735776D01*
X135702397Y-80793415D01*
X135900000Y-80812877D01*
X137500000Y-80812877D01*
X137697603Y-80793415D01*
X137887611Y-80735776D01*
X138062724Y-80642176D01*
X138216212Y-80516212D01*
X138342176Y-80362724D01*
X138435776Y-80187611D01*
X138493415Y-79997603D01*
X138512877Y-79800000D01*
X138512877Y-78200000D01*
X138503815Y-78107988D01*
X146354208Y-78107988D01*
X142695206Y-81766991D01*
G36*
X162887123Y-79870000D02*
G01*
X162906585Y-80067603D01*
X162964224Y-80257611D01*
X163057824Y-80432724D01*
X163183788Y-80586212D01*
X163337276Y-80712176D01*
X163512389Y-80805776D01*
X163702397Y-80863415D01*
X163900000Y-80882877D01*
X167700000Y-80882877D01*
X167897603Y-80863415D01*
X168087611Y-80805776D01*
X168262724Y-80712176D01*
X168416212Y-80586212D01*
X168542176Y-80432724D01*
X168635776Y-80257611D01*
X168693415Y-80067603D01*
X168712877Y-79870000D01*
X168712877Y-78107988D01*
X174246455Y-78107988D01*
X177478670Y-81340204D01*
X177375121Y-81419028D01*
X177373150Y-81421258D01*
X177137244Y-81227655D01*
X176814466Y-81055126D01*
X176464232Y-80948884D01*
X176191276Y-80922000D01*
X176008724Y-80922000D01*
X175735768Y-80948884D01*
X175385534Y-81055126D01*
X175062756Y-81227655D01*
X174779839Y-81459839D01*
X174630343Y-81642000D01*
X167776886Y-81642000D01*
X167719999Y-81636397D01*
X167663112Y-81642000D01*
X167663111Y-81642000D01*
X167492992Y-81658755D01*
X167274708Y-81724971D01*
X167073537Y-81832499D01*
X166897208Y-81977208D01*
X166860944Y-82021396D01*
X165925218Y-82957123D01*
X165050000Y-82957123D01*
X164852397Y-82976585D01*
X164662389Y-83034224D01*
X164650000Y-83040846D01*
X164637611Y-83034224D01*
X164447603Y-82976585D01*
X164250000Y-82957123D01*
X163757000Y-82962000D01*
X163505000Y-83214000D01*
X163505000Y-85065000D01*
X163525000Y-85065000D01*
X163525000Y-85075000D01*
X163505000Y-85075000D01*
X163505000Y-85095000D01*
X163495000Y-85095000D01*
X163495000Y-85075000D01*
X161994000Y-85075000D01*
X161742000Y-85327000D01*
X161737123Y-86170000D01*
X161756585Y-86367603D01*
X161814224Y-86557611D01*
X161907824Y-86732724D01*
X162033788Y-86886212D01*
X162187276Y-87012176D01*
X162362389Y-87105776D01*
X162552397Y-87163415D01*
X162750000Y-87182877D01*
X163106611Y-87179349D01*
X163049956Y-87248383D01*
X162933254Y-87466717D01*
X162861389Y-87703624D01*
X162837123Y-87949999D01*
X162837123Y-88600001D01*
X162861389Y-88846376D01*
X162933254Y-89083283D01*
X162998332Y-89205035D01*
X162914224Y-89362389D01*
X162856585Y-89552397D01*
X162837123Y-89750000D01*
X162842000Y-90068000D01*
X163094000Y-90320000D01*
X164545000Y-90320000D01*
X164545000Y-90300000D01*
X164555000Y-90300000D01*
X164555000Y-90320000D01*
X167145000Y-90320000D01*
X167145000Y-90300000D01*
X167155000Y-90300000D01*
X167155000Y-90320000D01*
X167175000Y-90320000D01*
X167175000Y-90330000D01*
X167155000Y-90330000D01*
X167155000Y-91656000D01*
X167407000Y-91908000D01*
X167850000Y-91912877D01*
X168047603Y-91893415D01*
X168237611Y-91835776D01*
X168412724Y-91742176D01*
X168492001Y-91677115D01*
X168492001Y-92242000D01*
X150861081Y-92242000D01*
X150557051Y-91937970D01*
X150717244Y-91852345D01*
X150950000Y-91661327D01*
X151182756Y-91852345D01*
X151505534Y-92024874D01*
X151855768Y-92131116D01*
X152128724Y-92158000D01*
X152311276Y-92158000D01*
X152584232Y-92131116D01*
X152934466Y-92024874D01*
X153257244Y-91852345D01*
X153490000Y-91661327D01*
X153722756Y-91852345D01*
X154045534Y-92024874D01*
X154395768Y-92131116D01*
X154668724Y-92158000D01*
X154851276Y-92158000D01*
X155124232Y-92131116D01*
X155474466Y-92024874D01*
X155797244Y-91852345D01*
X156080161Y-91620161D01*
X156312345Y-91337244D01*
X156484874Y-91014466D01*
X156519596Y-90900000D01*
X162837123Y-90900000D01*
X162856585Y-91097603D01*
X162914224Y-91287611D01*
X163007824Y-91462724D01*
X163133788Y-91616212D01*
X163287276Y-91742176D01*
X163462389Y-91835776D01*
X163652397Y-91893415D01*
X163850000Y-91912877D01*
X164293000Y-91908000D01*
X164545000Y-91656000D01*
X164545000Y-90330000D01*
X164555000Y-90330000D01*
X164555000Y-91656000D01*
X164807000Y-91908000D01*
X165250000Y-91912877D01*
X165447603Y-91893415D01*
X165637611Y-91835776D01*
X165812724Y-91742176D01*
X165850000Y-91711584D01*
X165887276Y-91742176D01*
X166062389Y-91835776D01*
X166252397Y-91893415D01*
X166450000Y-91912877D01*
X166893000Y-91908000D01*
X167145000Y-91656000D01*
X167145000Y-90330000D01*
X164555000Y-90330000D01*
X164545000Y-90330000D01*
X163094000Y-90330000D01*
X162842000Y-90582000D01*
X162837123Y-90900000D01*
X156519596Y-90900000D01*
X156591116Y-90664232D01*
X156626990Y-90300000D01*
X156591116Y-89935768D01*
X156484874Y-89585534D01*
X156312345Y-89262756D01*
X156080161Y-88979839D01*
X155797244Y-88747655D01*
X155474466Y-88575126D01*
X155124232Y-88468884D01*
X154851276Y-88442000D01*
X154668724Y-88442000D01*
X154395768Y-88468884D01*
X154045534Y-88575126D01*
X153722756Y-88747655D01*
X153490000Y-88938673D01*
X153257244Y-88747655D01*
X152934466Y-88575126D01*
X152584232Y-88468884D01*
X152311276Y-88442000D01*
X152128724Y-88442000D01*
X151855768Y-88468884D01*
X151505534Y-88575126D01*
X151182756Y-88747655D01*
X150950000Y-88938673D01*
X150717244Y-88747655D01*
X150394466Y-88575126D01*
X150044232Y-88468884D01*
X149771276Y-88442000D01*
X149588724Y-88442000D01*
X149315768Y-88468884D01*
X148965534Y-88575126D01*
X148642756Y-88747655D01*
X148410000Y-88938673D01*
X148177244Y-88747655D01*
X147854466Y-88575126D01*
X147504232Y-88468884D01*
X147231276Y-88442000D01*
X147048724Y-88442000D01*
X146775768Y-88468884D01*
X146425534Y-88575126D01*
X146151416Y-88721645D01*
X146012724Y-88607824D01*
X145837611Y-88514224D01*
X145668345Y-88462877D01*
X146725000Y-88462877D01*
X146922603Y-88443415D01*
X147112611Y-88385776D01*
X147287724Y-88292176D01*
X147436625Y-88169976D01*
X147641674Y-88289417D01*
X147986122Y-88407824D01*
X148119407Y-88434336D01*
X148410000Y-88205992D01*
X148410000Y-86605000D01*
X148390000Y-86605000D01*
X148390000Y-86595000D01*
X148410000Y-86595000D01*
X148410000Y-84994008D01*
X148420000Y-84994008D01*
X148420000Y-86595000D01*
X148440000Y-86595000D01*
X148440000Y-86605000D01*
X148420000Y-86605000D01*
X148420000Y-88205992D01*
X148710593Y-88434336D01*
X148843878Y-88407824D01*
X149188326Y-88289417D01*
X149503056Y-88106087D01*
X149675586Y-87953602D01*
X149917756Y-88152345D01*
X150240534Y-88324874D01*
X150590768Y-88431116D01*
X150863724Y-88458000D01*
X151046276Y-88458000D01*
X151319232Y-88431116D01*
X151669466Y-88324874D01*
X151992244Y-88152345D01*
X152225000Y-87961327D01*
X152457756Y-88152345D01*
X152780534Y-88324874D01*
X153130768Y-88431116D01*
X153403724Y-88458000D01*
X153586276Y-88458000D01*
X153859232Y-88431116D01*
X154209466Y-88324874D01*
X154532244Y-88152345D01*
X154815161Y-87920161D01*
X155047345Y-87637244D01*
X155219874Y-87314466D01*
X155326116Y-86964232D01*
X155361990Y-86600000D01*
X155326116Y-86235768D01*
X155219874Y-85885534D01*
X155047345Y-85562756D01*
X154815161Y-85279839D01*
X154532244Y-85047655D01*
X154209466Y-84875126D01*
X153859232Y-84768884D01*
X153586276Y-84742000D01*
X153403724Y-84742000D01*
X153130768Y-84768884D01*
X152780534Y-84875126D01*
X152457756Y-85047655D01*
X152225000Y-85238673D01*
X151992244Y-85047655D01*
X151669466Y-84875126D01*
X151319232Y-84768884D01*
X151046276Y-84742000D01*
X150863724Y-84742000D01*
X150590768Y-84768884D01*
X150240534Y-84875126D01*
X149917756Y-85047655D01*
X149675586Y-85246398D01*
X149503056Y-85093913D01*
X149188326Y-84910583D01*
X148843878Y-84792176D01*
X148710593Y-84765664D01*
X148420000Y-84994008D01*
X148410000Y-84994008D01*
X148119407Y-84765664D01*
X147986122Y-84792176D01*
X147641674Y-84910583D01*
X147436625Y-85030024D01*
X147287724Y-84907824D01*
X147112611Y-84814224D01*
X146922603Y-84756585D01*
X146725000Y-84737123D01*
X145129680Y-84737123D01*
X145896803Y-83970000D01*
X161737123Y-83970000D01*
X161742000Y-84813000D01*
X161994000Y-85065000D01*
X163495000Y-85065000D01*
X163495000Y-83214000D01*
X163243000Y-82962000D01*
X162750000Y-82957123D01*
X162552397Y-82976585D01*
X162362389Y-83034224D01*
X162187276Y-83127824D01*
X162033788Y-83253788D01*
X161907824Y-83407276D01*
X161814224Y-83582389D01*
X161756585Y-83772397D01*
X161737123Y-83970000D01*
X145896803Y-83970000D01*
X147803927Y-82062877D01*
X148964500Y-82062877D01*
X149162103Y-82043415D01*
X149352111Y-81985776D01*
X149527224Y-81892176D01*
X149680712Y-81766212D01*
X149806676Y-81612724D01*
X149864500Y-81504543D01*
X149922324Y-81612724D01*
X150048288Y-81766212D01*
X150201776Y-81892176D01*
X150376889Y-81985776D01*
X150566897Y-82043415D01*
X150764500Y-82062877D01*
X151107500Y-82058000D01*
X151359500Y-81806000D01*
X151359500Y-78525000D01*
X151369500Y-78525000D01*
X151369500Y-81806000D01*
X151621500Y-82058000D01*
X151964500Y-82062877D01*
X152162103Y-82043415D01*
X152352111Y-81985776D01*
X152527224Y-81892176D01*
X152680712Y-81766212D01*
X152806676Y-81612724D01*
X152900276Y-81437611D01*
X152957915Y-81247603D01*
X152977377Y-81050000D01*
X152972500Y-81002000D01*
X152720500Y-80750000D01*
X152972500Y-80498000D01*
X152977377Y-80450000D01*
X152957915Y-80252397D01*
X152942020Y-80200000D01*
X152957915Y-80147603D01*
X152977377Y-79950000D01*
X152972500Y-79902000D01*
X152720500Y-79650000D01*
X152972500Y-79398000D01*
X152977377Y-79350000D01*
X152957915Y-79152397D01*
X152942020Y-79100000D01*
X152957915Y-79047603D01*
X152977377Y-78850000D01*
X152972500Y-78802000D01*
X152720500Y-78550000D01*
X152972500Y-78298000D01*
X152977377Y-78250000D01*
X152963390Y-78107988D01*
X162887123Y-78107988D01*
X162887123Y-79870000D01*
X162887123Y-79870000D01*
G37*
X162887123Y-79870000D02*
X162906585Y-80067603D01*
X162964224Y-80257611D01*
X163057824Y-80432724D01*
X163183788Y-80586212D01*
X163337276Y-80712176D01*
X163512389Y-80805776D01*
X163702397Y-80863415D01*
X163900000Y-80882877D01*
X167700000Y-80882877D01*
X167897603Y-80863415D01*
X168087611Y-80805776D01*
X168262724Y-80712176D01*
X168416212Y-80586212D01*
X168542176Y-80432724D01*
X168635776Y-80257611D01*
X168693415Y-80067603D01*
X168712877Y-79870000D01*
X168712877Y-78107988D01*
X174246455Y-78107988D01*
X177478670Y-81340204D01*
X177375121Y-81419028D01*
X177373150Y-81421258D01*
X177137244Y-81227655D01*
X176814466Y-81055126D01*
X176464232Y-80948884D01*
X176191276Y-80922000D01*
X176008724Y-80922000D01*
X175735768Y-80948884D01*
X175385534Y-81055126D01*
X175062756Y-81227655D01*
X174779839Y-81459839D01*
X174630343Y-81642000D01*
X167776886Y-81642000D01*
X167719999Y-81636397D01*
X167663112Y-81642000D01*
X167663111Y-81642000D01*
X167492992Y-81658755D01*
X167274708Y-81724971D01*
X167073537Y-81832499D01*
X166897208Y-81977208D01*
X166860944Y-82021396D01*
X165925218Y-82957123D01*
X165050000Y-82957123D01*
X164852397Y-82976585D01*
X164662389Y-83034224D01*
X164650000Y-83040846D01*
X164637611Y-83034224D01*
X164447603Y-82976585D01*
X164250000Y-82957123D01*
X163757000Y-82962000D01*
X163505000Y-83214000D01*
X163505000Y-85065000D01*
X163525000Y-85065000D01*
X163525000Y-85075000D01*
X163505000Y-85075000D01*
X163505000Y-85095000D01*
X163495000Y-85095000D01*
X163495000Y-85075000D01*
X161994000Y-85075000D01*
X161742000Y-85327000D01*
X161737123Y-86170000D01*
X161756585Y-86367603D01*
X161814224Y-86557611D01*
X161907824Y-86732724D01*
X162033788Y-86886212D01*
X162187276Y-87012176D01*
X162362389Y-87105776D01*
X162552397Y-87163415D01*
X162750000Y-87182877D01*
X163106611Y-87179349D01*
X163049956Y-87248383D01*
X162933254Y-87466717D01*
X162861389Y-87703624D01*
X162837123Y-87949999D01*
X162837123Y-88600001D01*
X162861389Y-88846376D01*
X162933254Y-89083283D01*
X162998332Y-89205035D01*
X162914224Y-89362389D01*
X162856585Y-89552397D01*
X162837123Y-89750000D01*
X162842000Y-90068000D01*
X163094000Y-90320000D01*
X164545000Y-90320000D01*
X164545000Y-90300000D01*
X164555000Y-90300000D01*
X164555000Y-90320000D01*
X167145000Y-90320000D01*
X167145000Y-90300000D01*
X167155000Y-90300000D01*
X167155000Y-90320000D01*
X167175000Y-90320000D01*
X167175000Y-90330000D01*
X167155000Y-90330000D01*
X167155000Y-91656000D01*
X167407000Y-91908000D01*
X167850000Y-91912877D01*
X168047603Y-91893415D01*
X168237611Y-91835776D01*
X168412724Y-91742176D01*
X168492001Y-91677115D01*
X168492001Y-92242000D01*
X150861081Y-92242000D01*
X150557051Y-91937970D01*
X150717244Y-91852345D01*
X150950000Y-91661327D01*
X151182756Y-91852345D01*
X151505534Y-92024874D01*
X151855768Y-92131116D01*
X152128724Y-92158000D01*
X152311276Y-92158000D01*
X152584232Y-92131116D01*
X152934466Y-92024874D01*
X153257244Y-91852345D01*
X153490000Y-91661327D01*
X153722756Y-91852345D01*
X154045534Y-92024874D01*
X154395768Y-92131116D01*
X154668724Y-92158000D01*
X154851276Y-92158000D01*
X155124232Y-92131116D01*
X155474466Y-92024874D01*
X155797244Y-91852345D01*
X156080161Y-91620161D01*
X156312345Y-91337244D01*
X156484874Y-91014466D01*
X156519596Y-90900000D01*
X162837123Y-90900000D01*
X162856585Y-91097603D01*
X162914224Y-91287611D01*
X163007824Y-91462724D01*
X163133788Y-91616212D01*
X163287276Y-91742176D01*
X163462389Y-91835776D01*
X163652397Y-91893415D01*
X163850000Y-91912877D01*
X164293000Y-91908000D01*
X164545000Y-91656000D01*
X164545000Y-90330000D01*
X164555000Y-90330000D01*
X164555000Y-91656000D01*
X164807000Y-91908000D01*
X165250000Y-91912877D01*
X165447603Y-91893415D01*
X165637611Y-91835776D01*
X165812724Y-91742176D01*
X165850000Y-91711584D01*
X165887276Y-91742176D01*
X166062389Y-91835776D01*
X166252397Y-91893415D01*
X166450000Y-91912877D01*
X166893000Y-91908000D01*
X167145000Y-91656000D01*
X167145000Y-90330000D01*
X164555000Y-90330000D01*
X164545000Y-90330000D01*
X163094000Y-90330000D01*
X162842000Y-90582000D01*
X162837123Y-90900000D01*
X156519596Y-90900000D01*
X156591116Y-90664232D01*
X156626990Y-90300000D01*
X156591116Y-89935768D01*
X156484874Y-89585534D01*
X156312345Y-89262756D01*
X156080161Y-88979839D01*
X155797244Y-88747655D01*
X155474466Y-88575126D01*
X155124232Y-88468884D01*
X154851276Y-88442000D01*
X154668724Y-88442000D01*
X154395768Y-88468884D01*
X154045534Y-88575126D01*
X153722756Y-88747655D01*
X153490000Y-88938673D01*
X153257244Y-88747655D01*
X152934466Y-88575126D01*
X152584232Y-88468884D01*
X152311276Y-88442000D01*
X152128724Y-88442000D01*
X151855768Y-88468884D01*
X151505534Y-88575126D01*
X151182756Y-88747655D01*
X150950000Y-88938673D01*
X150717244Y-88747655D01*
X150394466Y-88575126D01*
X150044232Y-88468884D01*
X149771276Y-88442000D01*
X149588724Y-88442000D01*
X149315768Y-88468884D01*
X148965534Y-88575126D01*
X148642756Y-88747655D01*
X148410000Y-88938673D01*
X148177244Y-88747655D01*
X147854466Y-88575126D01*
X147504232Y-88468884D01*
X147231276Y-88442000D01*
X147048724Y-88442000D01*
X146775768Y-88468884D01*
X146425534Y-88575126D01*
X146151416Y-88721645D01*
X146012724Y-88607824D01*
X145837611Y-88514224D01*
X145668345Y-88462877D01*
X146725000Y-88462877D01*
X146922603Y-88443415D01*
X147112611Y-88385776D01*
X147287724Y-88292176D01*
X147436625Y-88169976D01*
X147641674Y-88289417D01*
X147986122Y-88407824D01*
X148119407Y-88434336D01*
X148410000Y-88205992D01*
X148410000Y-86605000D01*
X148390000Y-86605000D01*
X148390000Y-86595000D01*
X148410000Y-86595000D01*
X148410000Y-84994008D01*
X148420000Y-84994008D01*
X148420000Y-86595000D01*
X148440000Y-86595000D01*
X148440000Y-86605000D01*
X148420000Y-86605000D01*
X148420000Y-88205992D01*
X148710593Y-88434336D01*
X148843878Y-88407824D01*
X149188326Y-88289417D01*
X149503056Y-88106087D01*
X149675586Y-87953602D01*
X149917756Y-88152345D01*
X150240534Y-88324874D01*
X150590768Y-88431116D01*
X150863724Y-88458000D01*
X151046276Y-88458000D01*
X151319232Y-88431116D01*
X151669466Y-88324874D01*
X151992244Y-88152345D01*
X152225000Y-87961327D01*
X152457756Y-88152345D01*
X152780534Y-88324874D01*
X153130768Y-88431116D01*
X153403724Y-88458000D01*
X153586276Y-88458000D01*
X153859232Y-88431116D01*
X154209466Y-88324874D01*
X154532244Y-88152345D01*
X154815161Y-87920161D01*
X155047345Y-87637244D01*
X155219874Y-87314466D01*
X155326116Y-86964232D01*
X155361990Y-86600000D01*
X155326116Y-86235768D01*
X155219874Y-85885534D01*
X155047345Y-85562756D01*
X154815161Y-85279839D01*
X154532244Y-85047655D01*
X154209466Y-84875126D01*
X153859232Y-84768884D01*
X153586276Y-84742000D01*
X153403724Y-84742000D01*
X153130768Y-84768884D01*
X152780534Y-84875126D01*
X152457756Y-85047655D01*
X152225000Y-85238673D01*
X151992244Y-85047655D01*
X151669466Y-84875126D01*
X151319232Y-84768884D01*
X151046276Y-84742000D01*
X150863724Y-84742000D01*
X150590768Y-84768884D01*
X150240534Y-84875126D01*
X149917756Y-85047655D01*
X149675586Y-85246398D01*
X149503056Y-85093913D01*
X149188326Y-84910583D01*
X148843878Y-84792176D01*
X148710593Y-84765664D01*
X148420000Y-84994008D01*
X148410000Y-84994008D01*
X148119407Y-84765664D01*
X147986122Y-84792176D01*
X147641674Y-84910583D01*
X147436625Y-85030024D01*
X147287724Y-84907824D01*
X147112611Y-84814224D01*
X146922603Y-84756585D01*
X146725000Y-84737123D01*
X145129680Y-84737123D01*
X145896803Y-83970000D01*
X161737123Y-83970000D01*
X161742000Y-84813000D01*
X161994000Y-85065000D01*
X163495000Y-85065000D01*
X163495000Y-83214000D01*
X163243000Y-82962000D01*
X162750000Y-82957123D01*
X162552397Y-82976585D01*
X162362389Y-83034224D01*
X162187276Y-83127824D01*
X162033788Y-83253788D01*
X161907824Y-83407276D01*
X161814224Y-83582389D01*
X161756585Y-83772397D01*
X161737123Y-83970000D01*
X145896803Y-83970000D01*
X147803927Y-82062877D01*
X148964500Y-82062877D01*
X149162103Y-82043415D01*
X149352111Y-81985776D01*
X149527224Y-81892176D01*
X149680712Y-81766212D01*
X149806676Y-81612724D01*
X149864500Y-81504543D01*
X149922324Y-81612724D01*
X150048288Y-81766212D01*
X150201776Y-81892176D01*
X150376889Y-81985776D01*
X150566897Y-82043415D01*
X150764500Y-82062877D01*
X151107500Y-82058000D01*
X151359500Y-81806000D01*
X151359500Y-78525000D01*
X151369500Y-78525000D01*
X151369500Y-81806000D01*
X151621500Y-82058000D01*
X151964500Y-82062877D01*
X152162103Y-82043415D01*
X152352111Y-81985776D01*
X152527224Y-81892176D01*
X152680712Y-81766212D01*
X152806676Y-81612724D01*
X152900276Y-81437611D01*
X152957915Y-81247603D01*
X152977377Y-81050000D01*
X152972500Y-81002000D01*
X152720500Y-80750000D01*
X152972500Y-80498000D01*
X152977377Y-80450000D01*
X152957915Y-80252397D01*
X152942020Y-80200000D01*
X152957915Y-80147603D01*
X152977377Y-79950000D01*
X152972500Y-79902000D01*
X152720500Y-79650000D01*
X152972500Y-79398000D01*
X152977377Y-79350000D01*
X152957915Y-79152397D01*
X152942020Y-79100000D01*
X152957915Y-79047603D01*
X152977377Y-78850000D01*
X152972500Y-78802000D01*
X152720500Y-78550000D01*
X152972500Y-78298000D01*
X152977377Y-78250000D01*
X152963390Y-78107988D01*
X162887123Y-78107988D01*
X162887123Y-79870000D01*
G36*
X178645000Y-82775000D02*
G01*
X178665000Y-82775000D01*
X178665000Y-82785000D01*
X178645000Y-82785000D01*
X178645000Y-82805000D01*
X178635000Y-82805000D01*
X178635000Y-82785000D01*
X178615000Y-82785000D01*
X178615000Y-82775000D01*
X178635000Y-82775000D01*
X178635000Y-82755000D01*
X178645000Y-82755000D01*
X178645000Y-82775000D01*
X178645000Y-82775000D01*
G37*
X178645000Y-82775000D02*
X178665000Y-82775000D01*
X178665000Y-82785000D01*
X178645000Y-82785000D01*
X178645000Y-82805000D01*
X178635000Y-82805000D01*
X178635000Y-82785000D01*
X178615000Y-82785000D01*
X178615000Y-82775000D01*
X178635000Y-82775000D01*
X178635000Y-82755000D01*
X178645000Y-82755000D01*
X178645000Y-82775000D01*
G36*
X149977377Y-78581123D02*
G01*
X149977377Y-78555002D01*
X150003498Y-78555002D01*
X149977377Y-78581123D01*
X149977377Y-78581123D01*
G37*
X149977377Y-78581123D02*
X149977377Y-78555002D01*
X150003498Y-78555002D01*
X149977377Y-78581123D01*
G36*
X150003498Y-78544998D02*
G01*
X149977377Y-78544998D01*
X149977377Y-78518877D01*
X150003498Y-78544998D01*
X150003498Y-78544998D01*
G37*
X150003498Y-78544998D02*
X149977377Y-78544998D01*
X149977377Y-78518877D01*
X150003498Y-78544998D01*
M02*
