G04 #@! TF.GenerationSoftware,KiCad,Pcbnew,(5.1.4-0-10_14)*
G04 #@! TF.CreationDate,2020-05-04T21:58:41+12:00*
G04 #@! TF.ProjectId,Robotic hand v2,526f626f-7469-4632-9068-616e64207632,rev?*
G04 #@! TF.SameCoordinates,Original*
G04 #@! TF.FileFunction,Soldermask,Top*
G04 #@! TF.FilePolarity,Negative*
%FSLAX46Y46*%
G04 Gerber Fmt 4.6, Leading zero omitted, Abs format (unit mm)*
G04 Created by KiCad (PCBNEW (5.1.4-0-10_14)) date 2020-05-04 21:58:41*
%MOMM*%
%LPD*%
G04 APERTURE LIST*
%ADD10C,0.100000*%
G04 APERTURE END LIST*
D10*
G36*
X170549500Y-122086500D02*
G01*
X168747500Y-122086500D01*
X168747500Y-120284500D01*
X170549500Y-120284500D01*
X170549500Y-122086500D01*
X170549500Y-122086500D01*
G37*
G36*
X176031433Y-118296393D02*
G01*
X176121657Y-118314339D01*
X176223321Y-118356450D01*
X176376621Y-118419949D01*
X176417990Y-118447591D01*
X176606086Y-118573272D01*
X176801228Y-118768414D01*
X176903675Y-118921737D01*
X176954551Y-118997879D01*
X176977283Y-119052760D01*
X177060161Y-119252843D01*
X177066694Y-119285686D01*
X177114000Y-119523512D01*
X177114000Y-119799488D01*
X177113266Y-119803177D01*
X177060161Y-120070157D01*
X177032547Y-120136823D01*
X176954551Y-120325121D01*
X176954550Y-120325122D01*
X176801228Y-120554586D01*
X176606086Y-120749728D01*
X176452763Y-120852175D01*
X176376621Y-120903051D01*
X176227267Y-120964915D01*
X176121657Y-121008661D01*
X176031433Y-121026607D01*
X175850988Y-121062500D01*
X175575012Y-121062500D01*
X175394567Y-121026607D01*
X175304343Y-121008661D01*
X175198733Y-120964915D01*
X175049379Y-120903051D01*
X174973237Y-120852175D01*
X174819914Y-120749728D01*
X174624772Y-120554586D01*
X174471450Y-120325122D01*
X174471449Y-120325121D01*
X174393453Y-120136823D01*
X174365839Y-120070157D01*
X174312734Y-119803177D01*
X174312000Y-119799488D01*
X174312000Y-119523512D01*
X174359306Y-119285686D01*
X174365839Y-119252843D01*
X174448717Y-119052760D01*
X174471449Y-118997879D01*
X174522325Y-118921737D01*
X174624772Y-118768414D01*
X174819914Y-118573272D01*
X175008010Y-118447591D01*
X175049379Y-118419949D01*
X175202679Y-118356450D01*
X175304343Y-118314339D01*
X175394567Y-118296393D01*
X175575012Y-118260500D01*
X175850988Y-118260500D01*
X176031433Y-118296393D01*
X176031433Y-118296393D01*
G37*
G36*
X120405433Y-118232893D02*
G01*
X120495657Y-118250839D01*
X120518980Y-118260500D01*
X120750621Y-118356449D01*
X120750622Y-118356450D01*
X120980086Y-118509772D01*
X121175228Y-118704914D01*
X121253545Y-118822125D01*
X121328551Y-118934379D01*
X121377586Y-119052760D01*
X121430281Y-119179975D01*
X121434161Y-119189344D01*
X121488000Y-119460012D01*
X121488000Y-119735988D01*
X121474635Y-119803177D01*
X121434161Y-120006657D01*
X121407858Y-120070157D01*
X121328551Y-120261621D01*
X121313264Y-120284500D01*
X121175228Y-120491086D01*
X120980086Y-120686228D01*
X120885051Y-120749728D01*
X120750621Y-120839551D01*
X120601267Y-120901415D01*
X120495657Y-120945161D01*
X120405433Y-120963107D01*
X120224988Y-120999000D01*
X119949012Y-120999000D01*
X119768567Y-120963107D01*
X119678343Y-120945161D01*
X119572733Y-120901415D01*
X119423379Y-120839551D01*
X119288949Y-120749728D01*
X119193914Y-120686228D01*
X118998772Y-120491086D01*
X118860736Y-120284500D01*
X118845449Y-120261621D01*
X118766142Y-120070157D01*
X118739839Y-120006657D01*
X118699365Y-119803177D01*
X118686000Y-119735988D01*
X118686000Y-119460012D01*
X118739839Y-119189344D01*
X118743720Y-119179975D01*
X118796414Y-119052760D01*
X118845449Y-118934379D01*
X118920455Y-118822125D01*
X118998772Y-118704914D01*
X119193914Y-118509772D01*
X119423378Y-118356450D01*
X119423379Y-118356449D01*
X119655020Y-118260500D01*
X119678343Y-118250839D01*
X119768567Y-118232893D01*
X119949012Y-118197000D01*
X120224988Y-118197000D01*
X120405433Y-118232893D01*
X120405433Y-118232893D01*
G37*
G36*
X112116823Y-119131313D02*
G01*
X112277242Y-119179976D01*
X112409906Y-119250886D01*
X112425078Y-119258996D01*
X112554659Y-119365341D01*
X112661004Y-119494922D01*
X112661005Y-119494924D01*
X112740024Y-119642758D01*
X112788687Y-119803177D01*
X112805117Y-119970000D01*
X112788687Y-120136823D01*
X112740024Y-120297242D01*
X112669114Y-120429906D01*
X112661004Y-120445078D01*
X112554659Y-120574659D01*
X112425078Y-120681004D01*
X112409906Y-120689114D01*
X112277242Y-120760024D01*
X112116823Y-120808687D01*
X111991804Y-120821000D01*
X111908196Y-120821000D01*
X111783177Y-120808687D01*
X111622758Y-120760024D01*
X111490094Y-120689114D01*
X111474922Y-120681004D01*
X111345341Y-120574659D01*
X111238996Y-120445078D01*
X111230886Y-120429906D01*
X111159976Y-120297242D01*
X111111313Y-120136823D01*
X111094883Y-119970000D01*
X111111313Y-119803177D01*
X111159976Y-119642758D01*
X111238995Y-119494924D01*
X111238996Y-119494922D01*
X111345341Y-119365341D01*
X111474922Y-119258996D01*
X111490094Y-119250886D01*
X111622758Y-119179976D01*
X111783177Y-119131313D01*
X111908196Y-119119000D01*
X111991804Y-119119000D01*
X112116823Y-119131313D01*
X112116823Y-119131313D01*
G37*
G36*
X107689623Y-117366278D02*
G01*
X107902410Y-117408604D01*
X108184674Y-117525521D01*
X108438705Y-117695259D01*
X108654741Y-117911295D01*
X108824479Y-118165326D01*
X108941396Y-118447590D01*
X109001000Y-118747240D01*
X109001000Y-119052760D01*
X108941396Y-119352410D01*
X108824479Y-119634674D01*
X108654741Y-119888705D01*
X108438705Y-120104741D01*
X108184674Y-120274479D01*
X107902410Y-120391396D01*
X107752585Y-120421198D01*
X107602761Y-120451000D01*
X107297239Y-120451000D01*
X107147415Y-120421198D01*
X106997590Y-120391396D01*
X106715326Y-120274479D01*
X106461295Y-120104741D01*
X106245259Y-119888705D01*
X106075521Y-119634674D01*
X105958604Y-119352410D01*
X105899000Y-119052760D01*
X105899000Y-118747240D01*
X105958604Y-118447590D01*
X106075521Y-118165326D01*
X106245259Y-117911295D01*
X106461295Y-117695259D01*
X106715326Y-117525521D01*
X106997590Y-117408604D01*
X107210377Y-117366278D01*
X107297239Y-117349000D01*
X107602761Y-117349000D01*
X107689623Y-117366278D01*
X107689623Y-117366278D01*
G37*
G36*
X103921000Y-120451000D02*
G01*
X100819000Y-120451000D01*
X100819000Y-117349000D01*
X103921000Y-117349000D01*
X103921000Y-120451000D01*
X103921000Y-120451000D01*
G37*
G36*
X169758943Y-117751019D02*
G01*
X169825127Y-117757537D01*
X169994966Y-117809057D01*
X170151491Y-117892722D01*
X170174122Y-117911295D01*
X170288686Y-118005314D01*
X170371948Y-118106771D01*
X170401278Y-118142509D01*
X170484943Y-118299034D01*
X170536463Y-118468873D01*
X170553859Y-118645500D01*
X170536463Y-118822127D01*
X170484943Y-118991966D01*
X170401278Y-119148491D01*
X170375439Y-119179976D01*
X170288686Y-119285686D01*
X170207381Y-119352410D01*
X170151491Y-119398278D01*
X169994966Y-119481943D01*
X169825127Y-119533463D01*
X169758943Y-119539981D01*
X169692760Y-119546500D01*
X169604240Y-119546500D01*
X169538057Y-119539981D01*
X169471873Y-119533463D01*
X169302034Y-119481943D01*
X169145509Y-119398278D01*
X169089619Y-119352410D01*
X169008314Y-119285686D01*
X168921561Y-119179976D01*
X168895722Y-119148491D01*
X168812057Y-118991966D01*
X168760537Y-118822127D01*
X168743141Y-118645500D01*
X168760537Y-118468873D01*
X168812057Y-118299034D01*
X168895722Y-118142509D01*
X168925052Y-118106771D01*
X169008314Y-118005314D01*
X169122878Y-117911295D01*
X169145509Y-117892722D01*
X169302034Y-117809057D01*
X169471873Y-117757537D01*
X169538057Y-117751019D01*
X169604240Y-117744500D01*
X169692760Y-117744500D01*
X169758943Y-117751019D01*
X169758943Y-117751019D01*
G37*
G36*
X177093442Y-115719018D02*
G01*
X177159627Y-115725537D01*
X177329466Y-115777057D01*
X177485991Y-115860722D01*
X177521729Y-115890052D01*
X177623186Y-115973314D01*
X177706448Y-116074771D01*
X177735778Y-116110509D01*
X177819443Y-116267034D01*
X177870963Y-116436873D01*
X177888359Y-116613500D01*
X177870963Y-116790127D01*
X177819443Y-116959966D01*
X177735778Y-117116491D01*
X177706448Y-117152229D01*
X177623186Y-117253686D01*
X177521729Y-117336948D01*
X177485991Y-117366278D01*
X177329466Y-117449943D01*
X177159627Y-117501463D01*
X177093442Y-117507982D01*
X177027260Y-117514500D01*
X176938740Y-117514500D01*
X176872558Y-117507982D01*
X176806373Y-117501463D01*
X176636534Y-117449943D01*
X176480009Y-117366278D01*
X176444271Y-117336948D01*
X176342814Y-117253686D01*
X176259552Y-117152229D01*
X176230222Y-117116491D01*
X176146557Y-116959966D01*
X176095037Y-116790127D01*
X176077641Y-116613500D01*
X176095037Y-116436873D01*
X176146557Y-116267034D01*
X176230222Y-116110509D01*
X176259552Y-116074771D01*
X176342814Y-115973314D01*
X176444271Y-115890052D01*
X176480009Y-115860722D01*
X176636534Y-115777057D01*
X176806373Y-115725537D01*
X176872558Y-115719018D01*
X176938740Y-115712500D01*
X177027260Y-115712500D01*
X177093442Y-115719018D01*
X177093442Y-115719018D01*
G37*
G36*
X118927442Y-115719018D02*
G01*
X118993627Y-115725537D01*
X119163466Y-115777057D01*
X119319991Y-115860722D01*
X119355729Y-115890052D01*
X119457186Y-115973314D01*
X119540448Y-116074771D01*
X119569778Y-116110509D01*
X119653443Y-116267034D01*
X119704963Y-116436873D01*
X119722359Y-116613500D01*
X119704963Y-116790127D01*
X119653443Y-116959966D01*
X119569778Y-117116491D01*
X119540448Y-117152229D01*
X119457186Y-117253686D01*
X119355729Y-117336948D01*
X119319991Y-117366278D01*
X119163466Y-117449943D01*
X118993627Y-117501463D01*
X118927442Y-117507982D01*
X118861260Y-117514500D01*
X118772740Y-117514500D01*
X118706558Y-117507982D01*
X118640373Y-117501463D01*
X118470534Y-117449943D01*
X118314009Y-117366278D01*
X118278271Y-117336948D01*
X118176814Y-117253686D01*
X118093552Y-117152229D01*
X118064222Y-117116491D01*
X117980557Y-116959966D01*
X117929037Y-116790127D01*
X117911641Y-116613500D01*
X117929037Y-116436873D01*
X117980557Y-116267034D01*
X118064222Y-116110509D01*
X118093552Y-116074771D01*
X118176814Y-115973314D01*
X118278271Y-115890052D01*
X118314009Y-115860722D01*
X118470534Y-115777057D01*
X118640373Y-115725537D01*
X118706558Y-115719018D01*
X118772740Y-115712500D01*
X118861260Y-115712500D01*
X118927442Y-115719018D01*
X118927442Y-115719018D01*
G37*
G36*
X169758942Y-115211018D02*
G01*
X169825127Y-115217537D01*
X169994966Y-115269057D01*
X170151491Y-115352722D01*
X170187229Y-115382052D01*
X170288686Y-115465314D01*
X170371948Y-115566771D01*
X170401278Y-115602509D01*
X170484943Y-115759034D01*
X170536463Y-115928873D01*
X170553859Y-116105500D01*
X170536463Y-116282127D01*
X170484943Y-116451966D01*
X170401278Y-116608491D01*
X170397167Y-116613500D01*
X170288686Y-116745686D01*
X170187229Y-116828948D01*
X170151491Y-116858278D01*
X169994966Y-116941943D01*
X169825127Y-116993463D01*
X169758943Y-116999981D01*
X169692760Y-117006500D01*
X169604240Y-117006500D01*
X169538057Y-116999981D01*
X169471873Y-116993463D01*
X169302034Y-116941943D01*
X169145509Y-116858278D01*
X169109771Y-116828948D01*
X169008314Y-116745686D01*
X168899833Y-116613500D01*
X168895722Y-116608491D01*
X168812057Y-116451966D01*
X168760537Y-116282127D01*
X168743141Y-116105500D01*
X168760537Y-115928873D01*
X168812057Y-115759034D01*
X168895722Y-115602509D01*
X168925052Y-115566771D01*
X169008314Y-115465314D01*
X169109771Y-115382052D01*
X169145509Y-115352722D01*
X169302034Y-115269057D01*
X169471873Y-115217537D01*
X169538058Y-115211018D01*
X169604240Y-115204500D01*
X169692760Y-115204500D01*
X169758942Y-115211018D01*
X169758942Y-115211018D01*
G37*
G36*
X177093443Y-113179019D02*
G01*
X177159627Y-113185537D01*
X177329466Y-113237057D01*
X177485991Y-113320722D01*
X177521729Y-113350052D01*
X177623186Y-113433314D01*
X177706448Y-113534771D01*
X177735778Y-113570509D01*
X177819443Y-113727034D01*
X177870963Y-113896873D01*
X177888359Y-114073500D01*
X177870963Y-114250127D01*
X177819443Y-114419966D01*
X177735778Y-114576491D01*
X177706448Y-114612229D01*
X177623186Y-114713686D01*
X177521729Y-114796948D01*
X177485991Y-114826278D01*
X177329466Y-114909943D01*
X177159627Y-114961463D01*
X177093443Y-114967981D01*
X177027260Y-114974500D01*
X176938740Y-114974500D01*
X176872557Y-114967981D01*
X176806373Y-114961463D01*
X176636534Y-114909943D01*
X176480009Y-114826278D01*
X176444271Y-114796948D01*
X176342814Y-114713686D01*
X176259552Y-114612229D01*
X176230222Y-114576491D01*
X176146557Y-114419966D01*
X176095037Y-114250127D01*
X176077641Y-114073500D01*
X176095037Y-113896873D01*
X176146557Y-113727034D01*
X176230222Y-113570509D01*
X176259552Y-113534771D01*
X176342814Y-113433314D01*
X176444271Y-113350052D01*
X176480009Y-113320722D01*
X176636534Y-113237057D01*
X176806373Y-113185537D01*
X176872557Y-113179019D01*
X176938740Y-113172500D01*
X177027260Y-113172500D01*
X177093443Y-113179019D01*
X177093443Y-113179019D01*
G37*
G36*
X118927443Y-113179019D02*
G01*
X118993627Y-113185537D01*
X119163466Y-113237057D01*
X119319991Y-113320722D01*
X119355729Y-113350052D01*
X119457186Y-113433314D01*
X119540448Y-113534771D01*
X119569778Y-113570509D01*
X119653443Y-113727034D01*
X119704963Y-113896873D01*
X119722359Y-114073500D01*
X119704963Y-114250127D01*
X119653443Y-114419966D01*
X119569778Y-114576491D01*
X119540448Y-114612229D01*
X119457186Y-114713686D01*
X119355729Y-114796948D01*
X119319991Y-114826278D01*
X119163466Y-114909943D01*
X118993627Y-114961463D01*
X118927443Y-114967981D01*
X118861260Y-114974500D01*
X118772740Y-114974500D01*
X118706557Y-114967981D01*
X118640373Y-114961463D01*
X118470534Y-114909943D01*
X118314009Y-114826278D01*
X118278271Y-114796948D01*
X118176814Y-114713686D01*
X118093552Y-114612229D01*
X118064222Y-114576491D01*
X117980557Y-114419966D01*
X117929037Y-114250127D01*
X117911641Y-114073500D01*
X117929037Y-113896873D01*
X117980557Y-113727034D01*
X118064222Y-113570509D01*
X118093552Y-113534771D01*
X118176814Y-113433314D01*
X118278271Y-113350052D01*
X118314009Y-113320722D01*
X118470534Y-113237057D01*
X118640373Y-113185537D01*
X118706557Y-113179019D01*
X118772740Y-113172500D01*
X118861260Y-113172500D01*
X118927443Y-113179019D01*
X118927443Y-113179019D01*
G37*
G36*
X169758942Y-112671018D02*
G01*
X169825127Y-112677537D01*
X169994966Y-112729057D01*
X170151491Y-112812722D01*
X170187229Y-112842052D01*
X170288686Y-112925314D01*
X170359018Y-113011015D01*
X170401278Y-113062509D01*
X170484943Y-113219034D01*
X170536463Y-113388873D01*
X170553859Y-113565500D01*
X170536463Y-113742127D01*
X170484943Y-113911966D01*
X170401278Y-114068491D01*
X170397167Y-114073500D01*
X170288686Y-114205686D01*
X170187229Y-114288948D01*
X170151491Y-114318278D01*
X169994966Y-114401943D01*
X169825127Y-114453463D01*
X169758942Y-114459982D01*
X169692760Y-114466500D01*
X169604240Y-114466500D01*
X169538058Y-114459982D01*
X169471873Y-114453463D01*
X169302034Y-114401943D01*
X169145509Y-114318278D01*
X169109771Y-114288948D01*
X169008314Y-114205686D01*
X168899833Y-114073500D01*
X168895722Y-114068491D01*
X168812057Y-113911966D01*
X168760537Y-113742127D01*
X168743141Y-113565500D01*
X168760537Y-113388873D01*
X168812057Y-113219034D01*
X168895722Y-113062509D01*
X168937982Y-113011015D01*
X169008314Y-112925314D01*
X169109771Y-112842052D01*
X169145509Y-112812722D01*
X169302034Y-112729057D01*
X169471873Y-112677537D01*
X169538058Y-112671018D01*
X169604240Y-112664500D01*
X169692760Y-112664500D01*
X169758942Y-112671018D01*
X169758942Y-112671018D01*
G37*
G36*
X105101000Y-113301000D02*
G01*
X103199000Y-113301000D01*
X103199000Y-111399000D01*
X105101000Y-111399000D01*
X105101000Y-113301000D01*
X105101000Y-113301000D01*
G37*
G36*
X106967395Y-111435546D02*
G01*
X107140466Y-111507234D01*
X107140467Y-111507235D01*
X107296227Y-111611310D01*
X107428690Y-111743773D01*
X107471284Y-111807520D01*
X107532766Y-111899534D01*
X107604454Y-112072605D01*
X107641000Y-112256333D01*
X107641000Y-112443667D01*
X107604454Y-112627395D01*
X107532766Y-112800466D01*
X107532765Y-112800467D01*
X107428690Y-112956227D01*
X107296227Y-113088690D01*
X107273092Y-113104148D01*
X107140466Y-113192766D01*
X106967395Y-113264454D01*
X106783667Y-113301000D01*
X106596333Y-113301000D01*
X106412605Y-113264454D01*
X106239534Y-113192766D01*
X106106908Y-113104148D01*
X106083773Y-113088690D01*
X105951310Y-112956227D01*
X105847235Y-112800467D01*
X105847234Y-112800466D01*
X105775546Y-112627395D01*
X105739000Y-112443667D01*
X105739000Y-112256333D01*
X105775546Y-112072605D01*
X105847234Y-111899534D01*
X105908716Y-111807520D01*
X105951310Y-111743773D01*
X106083773Y-111611310D01*
X106239533Y-111507235D01*
X106239534Y-111507234D01*
X106412605Y-111435546D01*
X106596333Y-111399000D01*
X106783667Y-111399000D01*
X106967395Y-111435546D01*
X106967395Y-111435546D01*
G37*
G36*
X112198228Y-111531703D02*
G01*
X112353100Y-111595853D01*
X112492481Y-111688985D01*
X112611015Y-111807519D01*
X112704147Y-111946900D01*
X112768297Y-112101772D01*
X112801000Y-112266184D01*
X112801000Y-112433816D01*
X112768297Y-112598228D01*
X112704147Y-112753100D01*
X112611015Y-112892481D01*
X112492481Y-113011015D01*
X112353100Y-113104147D01*
X112198228Y-113168297D01*
X112033816Y-113201000D01*
X111866184Y-113201000D01*
X111701772Y-113168297D01*
X111546900Y-113104147D01*
X111407519Y-113011015D01*
X111288985Y-112892481D01*
X111195853Y-112753100D01*
X111131703Y-112598228D01*
X111099000Y-112433816D01*
X111099000Y-112266184D01*
X111131703Y-112101772D01*
X111195853Y-111946900D01*
X111288985Y-111807519D01*
X111407519Y-111688985D01*
X111546900Y-111595853D01*
X111701772Y-111531703D01*
X111866184Y-111499000D01*
X112033816Y-111499000D01*
X112198228Y-111531703D01*
X112198228Y-111531703D01*
G37*
G36*
X177093442Y-110639018D02*
G01*
X177159627Y-110645537D01*
X177329466Y-110697057D01*
X177485991Y-110780722D01*
X177521729Y-110810052D01*
X177623186Y-110893314D01*
X177706448Y-110994771D01*
X177735778Y-111030509D01*
X177819443Y-111187034D01*
X177870963Y-111356873D01*
X177888359Y-111533500D01*
X177870963Y-111710127D01*
X177819443Y-111879966D01*
X177735778Y-112036491D01*
X177706448Y-112072229D01*
X177623186Y-112173686D01*
X177522479Y-112256333D01*
X177485991Y-112286278D01*
X177329466Y-112369943D01*
X177159627Y-112421463D01*
X177093443Y-112427981D01*
X177027260Y-112434500D01*
X176938740Y-112434500D01*
X176872557Y-112427981D01*
X176806373Y-112421463D01*
X176636534Y-112369943D01*
X176480009Y-112286278D01*
X176443521Y-112256333D01*
X176342814Y-112173686D01*
X176259552Y-112072229D01*
X176230222Y-112036491D01*
X176146557Y-111879966D01*
X176095037Y-111710127D01*
X176077641Y-111533500D01*
X176095037Y-111356873D01*
X176146557Y-111187034D01*
X176230222Y-111030509D01*
X176259552Y-110994771D01*
X176342814Y-110893314D01*
X176444271Y-110810052D01*
X176480009Y-110780722D01*
X176636534Y-110697057D01*
X176806373Y-110645537D01*
X176872558Y-110639018D01*
X176938740Y-110632500D01*
X177027260Y-110632500D01*
X177093442Y-110639018D01*
X177093442Y-110639018D01*
G37*
G36*
X118927442Y-110639018D02*
G01*
X118993627Y-110645537D01*
X119163466Y-110697057D01*
X119319991Y-110780722D01*
X119355729Y-110810052D01*
X119457186Y-110893314D01*
X119540448Y-110994771D01*
X119569778Y-111030509D01*
X119653443Y-111187034D01*
X119704963Y-111356873D01*
X119722359Y-111533500D01*
X119704963Y-111710127D01*
X119653443Y-111879966D01*
X119569778Y-112036491D01*
X119540448Y-112072229D01*
X119457186Y-112173686D01*
X119356479Y-112256333D01*
X119319991Y-112286278D01*
X119163466Y-112369943D01*
X118993627Y-112421463D01*
X118927443Y-112427981D01*
X118861260Y-112434500D01*
X118772740Y-112434500D01*
X118706557Y-112427981D01*
X118640373Y-112421463D01*
X118470534Y-112369943D01*
X118314009Y-112286278D01*
X118277521Y-112256333D01*
X118176814Y-112173686D01*
X118093552Y-112072229D01*
X118064222Y-112036491D01*
X117980557Y-111879966D01*
X117929037Y-111710127D01*
X117911641Y-111533500D01*
X117929037Y-111356873D01*
X117980557Y-111187034D01*
X118064222Y-111030509D01*
X118093552Y-110994771D01*
X118176814Y-110893314D01*
X118278271Y-110810052D01*
X118314009Y-110780722D01*
X118470534Y-110697057D01*
X118640373Y-110645537D01*
X118706558Y-110639018D01*
X118772740Y-110632500D01*
X118861260Y-110632500D01*
X118927442Y-110639018D01*
X118927442Y-110639018D01*
G37*
G36*
X169758943Y-110131019D02*
G01*
X169825127Y-110137537D01*
X169994966Y-110189057D01*
X170151491Y-110272722D01*
X170187229Y-110302052D01*
X170288686Y-110385314D01*
X170371948Y-110486771D01*
X170401278Y-110522509D01*
X170484943Y-110679034D01*
X170536463Y-110848873D01*
X170553859Y-111025500D01*
X170536463Y-111202127D01*
X170484943Y-111371966D01*
X170401278Y-111528491D01*
X170398640Y-111531705D01*
X170288686Y-111665686D01*
X170193535Y-111743773D01*
X170151491Y-111778278D01*
X169994966Y-111861943D01*
X169825127Y-111913463D01*
X169758942Y-111919982D01*
X169692760Y-111926500D01*
X169604240Y-111926500D01*
X169538058Y-111919982D01*
X169471873Y-111913463D01*
X169302034Y-111861943D01*
X169145509Y-111778278D01*
X169103465Y-111743773D01*
X169008314Y-111665686D01*
X168898360Y-111531705D01*
X168895722Y-111528491D01*
X168812057Y-111371966D01*
X168760537Y-111202127D01*
X168743141Y-111025500D01*
X168760537Y-110848873D01*
X168812057Y-110679034D01*
X168895722Y-110522509D01*
X168925052Y-110486771D01*
X169008314Y-110385314D01*
X169109771Y-110302052D01*
X169145509Y-110272722D01*
X169302034Y-110189057D01*
X169471873Y-110137537D01*
X169538057Y-110131019D01*
X169604240Y-110124500D01*
X169692760Y-110124500D01*
X169758943Y-110131019D01*
X169758943Y-110131019D01*
G37*
G36*
X118927442Y-108099018D02*
G01*
X118993627Y-108105537D01*
X119163466Y-108157057D01*
X119319991Y-108240722D01*
X119355729Y-108270052D01*
X119457186Y-108353314D01*
X119540448Y-108454771D01*
X119569778Y-108490509D01*
X119653443Y-108647034D01*
X119704963Y-108816873D01*
X119722359Y-108993500D01*
X119704963Y-109170127D01*
X119653443Y-109339966D01*
X119569778Y-109496491D01*
X119540448Y-109532229D01*
X119457186Y-109633686D01*
X119355729Y-109716948D01*
X119319991Y-109746278D01*
X119163466Y-109829943D01*
X118993627Y-109881463D01*
X118927442Y-109887982D01*
X118861260Y-109894500D01*
X118772740Y-109894500D01*
X118706558Y-109887982D01*
X118640373Y-109881463D01*
X118470534Y-109829943D01*
X118314009Y-109746278D01*
X118278271Y-109716948D01*
X118176814Y-109633686D01*
X118093552Y-109532229D01*
X118064222Y-109496491D01*
X117980557Y-109339966D01*
X117929037Y-109170127D01*
X117911641Y-108993500D01*
X117929037Y-108816873D01*
X117980557Y-108647034D01*
X118064222Y-108490509D01*
X118093552Y-108454771D01*
X118176814Y-108353314D01*
X118278271Y-108270052D01*
X118314009Y-108240722D01*
X118470534Y-108157057D01*
X118640373Y-108105537D01*
X118706558Y-108099018D01*
X118772740Y-108092500D01*
X118861260Y-108092500D01*
X118927442Y-108099018D01*
X118927442Y-108099018D01*
G37*
G36*
X177093442Y-108099018D02*
G01*
X177159627Y-108105537D01*
X177329466Y-108157057D01*
X177485991Y-108240722D01*
X177521729Y-108270052D01*
X177623186Y-108353314D01*
X177706448Y-108454771D01*
X177735778Y-108490509D01*
X177819443Y-108647034D01*
X177870963Y-108816873D01*
X177888359Y-108993500D01*
X177870963Y-109170127D01*
X177819443Y-109339966D01*
X177735778Y-109496491D01*
X177706448Y-109532229D01*
X177623186Y-109633686D01*
X177521729Y-109716948D01*
X177485991Y-109746278D01*
X177329466Y-109829943D01*
X177159627Y-109881463D01*
X177093442Y-109887982D01*
X177027260Y-109894500D01*
X176938740Y-109894500D01*
X176872558Y-109887982D01*
X176806373Y-109881463D01*
X176636534Y-109829943D01*
X176480009Y-109746278D01*
X176444271Y-109716948D01*
X176342814Y-109633686D01*
X176259552Y-109532229D01*
X176230222Y-109496491D01*
X176146557Y-109339966D01*
X176095037Y-109170127D01*
X176077641Y-108993500D01*
X176095037Y-108816873D01*
X176146557Y-108647034D01*
X176230222Y-108490509D01*
X176259552Y-108454771D01*
X176342814Y-108353314D01*
X176444271Y-108270052D01*
X176480009Y-108240722D01*
X176636534Y-108157057D01*
X176806373Y-108105537D01*
X176872558Y-108099018D01*
X176938740Y-108092500D01*
X177027260Y-108092500D01*
X177093442Y-108099018D01*
X177093442Y-108099018D01*
G37*
G36*
X169758943Y-107591019D02*
G01*
X169825127Y-107597537D01*
X169994966Y-107649057D01*
X170151491Y-107732722D01*
X170187229Y-107762052D01*
X170288686Y-107845314D01*
X170371948Y-107946771D01*
X170401278Y-107982509D01*
X170484943Y-108139034D01*
X170536463Y-108308873D01*
X170553859Y-108485500D01*
X170536463Y-108662127D01*
X170484943Y-108831966D01*
X170401278Y-108988491D01*
X170397167Y-108993500D01*
X170288686Y-109125686D01*
X170187229Y-109208948D01*
X170151491Y-109238278D01*
X169994966Y-109321943D01*
X169825127Y-109373463D01*
X169758942Y-109379982D01*
X169692760Y-109386500D01*
X169604240Y-109386500D01*
X169538058Y-109379982D01*
X169471873Y-109373463D01*
X169302034Y-109321943D01*
X169145509Y-109238278D01*
X169109771Y-109208948D01*
X169008314Y-109125686D01*
X168899833Y-108993500D01*
X168895722Y-108988491D01*
X168812057Y-108831966D01*
X168760537Y-108662127D01*
X168743141Y-108485500D01*
X168760537Y-108308873D01*
X168812057Y-108139034D01*
X168895722Y-107982509D01*
X168925052Y-107946771D01*
X169008314Y-107845314D01*
X169109771Y-107762052D01*
X169145509Y-107732722D01*
X169302034Y-107649057D01*
X169471873Y-107597537D01*
X169538057Y-107591019D01*
X169604240Y-107584500D01*
X169692760Y-107584500D01*
X169758943Y-107591019D01*
X169758943Y-107591019D01*
G37*
G36*
X118900958Y-105556410D02*
G01*
X118993627Y-105565537D01*
X119163466Y-105617057D01*
X119319991Y-105700722D01*
X119355729Y-105730052D01*
X119457186Y-105813314D01*
X119540448Y-105914771D01*
X119569778Y-105950509D01*
X119653443Y-106107034D01*
X119704963Y-106276873D01*
X119722359Y-106453500D01*
X119704963Y-106630127D01*
X119653443Y-106799966D01*
X119569778Y-106956491D01*
X119540448Y-106992229D01*
X119457186Y-107093686D01*
X119355729Y-107176948D01*
X119319991Y-107206278D01*
X119163466Y-107289943D01*
X118993627Y-107341463D01*
X118927442Y-107347982D01*
X118861260Y-107354500D01*
X118772740Y-107354500D01*
X118706558Y-107347982D01*
X118640373Y-107341463D01*
X118470534Y-107289943D01*
X118314009Y-107206278D01*
X118278271Y-107176948D01*
X118176814Y-107093686D01*
X118093552Y-106992229D01*
X118064222Y-106956491D01*
X117980557Y-106799966D01*
X117929037Y-106630127D01*
X117911641Y-106453500D01*
X117929037Y-106276873D01*
X117980557Y-106107034D01*
X118064222Y-105950509D01*
X118093552Y-105914771D01*
X118176814Y-105813314D01*
X118278271Y-105730052D01*
X118314009Y-105700722D01*
X118470534Y-105617057D01*
X118640373Y-105565537D01*
X118733042Y-105556410D01*
X118772740Y-105552500D01*
X118861260Y-105552500D01*
X118900958Y-105556410D01*
X118900958Y-105556410D01*
G37*
G36*
X177066958Y-105556410D02*
G01*
X177159627Y-105565537D01*
X177329466Y-105617057D01*
X177485991Y-105700722D01*
X177521729Y-105730052D01*
X177623186Y-105813314D01*
X177706448Y-105914771D01*
X177735778Y-105950509D01*
X177819443Y-106107034D01*
X177870963Y-106276873D01*
X177888359Y-106453500D01*
X177870963Y-106630127D01*
X177819443Y-106799966D01*
X177735778Y-106956491D01*
X177706448Y-106992229D01*
X177623186Y-107093686D01*
X177521729Y-107176948D01*
X177485991Y-107206278D01*
X177329466Y-107289943D01*
X177159627Y-107341463D01*
X177093442Y-107347982D01*
X177027260Y-107354500D01*
X176938740Y-107354500D01*
X176872558Y-107347982D01*
X176806373Y-107341463D01*
X176636534Y-107289943D01*
X176480009Y-107206278D01*
X176444271Y-107176948D01*
X176342814Y-107093686D01*
X176259552Y-106992229D01*
X176230222Y-106956491D01*
X176146557Y-106799966D01*
X176095037Y-106630127D01*
X176077641Y-106453500D01*
X176095037Y-106276873D01*
X176146557Y-106107034D01*
X176230222Y-105950509D01*
X176259552Y-105914771D01*
X176342814Y-105813314D01*
X176444271Y-105730052D01*
X176480009Y-105700722D01*
X176636534Y-105617057D01*
X176806373Y-105565537D01*
X176899042Y-105556410D01*
X176938740Y-105552500D01*
X177027260Y-105552500D01*
X177066958Y-105556410D01*
X177066958Y-105556410D01*
G37*
G36*
X107004071Y-101584063D02*
G01*
X107200300Y-101643589D01*
X107381146Y-101740253D01*
X107422437Y-101774140D01*
X107539660Y-101870340D01*
X107669748Y-102028855D01*
X107677603Y-102043551D01*
X107766411Y-102209699D01*
X107825937Y-102405928D01*
X107841000Y-102558868D01*
X107841000Y-104641132D01*
X107825937Y-104794072D01*
X107819740Y-104814500D01*
X107766410Y-104990303D01*
X107669748Y-105171145D01*
X107539660Y-105329660D01*
X107381145Y-105459748D01*
X107207618Y-105552500D01*
X107200301Y-105556411D01*
X107004072Y-105615937D01*
X106800000Y-105636036D01*
X106595929Y-105615937D01*
X106399700Y-105556411D01*
X106392383Y-105552500D01*
X106218856Y-105459748D01*
X106060341Y-105329660D01*
X105930253Y-105171145D01*
X105833591Y-104990303D01*
X105780261Y-104814500D01*
X105774064Y-104794072D01*
X105759001Y-104641132D01*
X105759000Y-102558869D01*
X105774063Y-102405929D01*
X105833589Y-102209700D01*
X105930253Y-102028854D01*
X105964140Y-101987563D01*
X106060340Y-101870340D01*
X106218855Y-101740252D01*
X106399697Y-101643590D01*
X106399699Y-101643589D01*
X106595928Y-101584063D01*
X106800000Y-101563964D01*
X107004071Y-101584063D01*
X107004071Y-101584063D01*
G37*
G36*
X102841000Y-105631000D02*
G01*
X100759000Y-105631000D01*
X100759000Y-101569000D01*
X102841000Y-101569000D01*
X102841000Y-105631000D01*
X102841000Y-105631000D01*
G37*
G36*
X119718000Y-104814500D02*
G01*
X117916000Y-104814500D01*
X117916000Y-103012500D01*
X119718000Y-103012500D01*
X119718000Y-104814500D01*
X119718000Y-104814500D01*
G37*
G36*
X177884000Y-104814500D02*
G01*
X176082000Y-104814500D01*
X176082000Y-103012500D01*
X177884000Y-103012500D01*
X177884000Y-104814500D01*
X177884000Y-104814500D01*
G37*
G36*
X120402137Y-99436237D02*
G01*
X120495657Y-99454839D01*
X120601267Y-99498585D01*
X120750621Y-99560449D01*
X120789280Y-99586280D01*
X120980086Y-99713772D01*
X121175228Y-99908914D01*
X121259038Y-100034346D01*
X121328551Y-100138379D01*
X121364203Y-100224450D01*
X121422319Y-100364753D01*
X121434161Y-100393344D01*
X121488000Y-100664012D01*
X121488000Y-100939988D01*
X121434161Y-101210656D01*
X121328551Y-101465621D01*
X121328550Y-101465622D01*
X121175228Y-101695086D01*
X120980086Y-101890228D01*
X120826763Y-101992675D01*
X120750621Y-102043551D01*
X120601267Y-102105415D01*
X120495657Y-102149161D01*
X120405433Y-102167107D01*
X120224988Y-102203000D01*
X119949012Y-102203000D01*
X119768567Y-102167107D01*
X119678343Y-102149161D01*
X119572733Y-102105415D01*
X119423379Y-102043551D01*
X119347237Y-101992675D01*
X119193914Y-101890228D01*
X118998772Y-101695086D01*
X118845450Y-101465622D01*
X118845449Y-101465621D01*
X118739839Y-101210656D01*
X118686000Y-100939988D01*
X118686000Y-100664012D01*
X118739839Y-100393344D01*
X118751682Y-100364753D01*
X118809797Y-100224450D01*
X118845449Y-100138379D01*
X118914962Y-100034346D01*
X118998772Y-99908914D01*
X119193914Y-99713772D01*
X119384720Y-99586280D01*
X119423379Y-99560449D01*
X119572733Y-99498585D01*
X119678343Y-99454839D01*
X119771863Y-99436237D01*
X119949012Y-99401000D01*
X120224988Y-99401000D01*
X120402137Y-99436237D01*
X120402137Y-99436237D01*
G37*
G36*
X176028137Y-99436237D02*
G01*
X176121657Y-99454839D01*
X176227267Y-99498585D01*
X176376621Y-99560449D01*
X176415280Y-99586280D01*
X176606086Y-99713772D01*
X176801228Y-99908914D01*
X176885038Y-100034346D01*
X176954551Y-100138379D01*
X176990203Y-100224450D01*
X177048319Y-100364753D01*
X177060161Y-100393344D01*
X177114000Y-100664012D01*
X177114000Y-100939988D01*
X177060161Y-101210656D01*
X176954551Y-101465621D01*
X176954550Y-101465622D01*
X176801228Y-101695086D01*
X176606086Y-101890228D01*
X176452763Y-101992675D01*
X176376621Y-102043551D01*
X176227267Y-102105415D01*
X176121657Y-102149161D01*
X176031433Y-102167107D01*
X175850988Y-102203000D01*
X175575012Y-102203000D01*
X175394567Y-102167107D01*
X175304343Y-102149161D01*
X175198733Y-102105415D01*
X175049379Y-102043551D01*
X174973237Y-101992675D01*
X174819914Y-101890228D01*
X174624772Y-101695086D01*
X174471450Y-101465622D01*
X174471449Y-101465621D01*
X174365839Y-101210656D01*
X174312000Y-100939988D01*
X174312000Y-100664012D01*
X174365839Y-100393344D01*
X174377682Y-100364753D01*
X174435797Y-100224450D01*
X174471449Y-100138379D01*
X174540962Y-100034346D01*
X174624772Y-99908914D01*
X174819914Y-99713772D01*
X175010720Y-99586280D01*
X175049379Y-99560449D01*
X175198733Y-99498585D01*
X175304343Y-99454839D01*
X175397863Y-99436237D01*
X175575012Y-99401000D01*
X175850988Y-99401000D01*
X176028137Y-99436237D01*
X176028137Y-99436237D01*
G37*
G36*
X113362199Y-98349954D02*
G01*
X113374450Y-98350556D01*
X113392869Y-98350556D01*
X113415149Y-98352750D01*
X113499233Y-98369476D01*
X113520660Y-98375976D01*
X113599858Y-98408780D01*
X113605303Y-98411691D01*
X113605309Y-98411693D01*
X113614169Y-98416429D01*
X113614173Y-98416432D01*
X113619614Y-98419340D01*
X113690899Y-98466971D01*
X113708204Y-98481172D01*
X113768828Y-98541796D01*
X113783029Y-98559101D01*
X113830660Y-98630386D01*
X113833568Y-98635827D01*
X113833571Y-98635831D01*
X113838307Y-98644691D01*
X113838309Y-98644697D01*
X113841220Y-98650142D01*
X113874024Y-98729340D01*
X113880524Y-98750767D01*
X113897250Y-98834851D01*
X113899444Y-98857131D01*
X113899444Y-98875550D01*
X113900046Y-98887801D01*
X113901852Y-98906139D01*
X113901852Y-99393860D01*
X113900263Y-99409999D01*
X113897348Y-99419608D01*
X113892610Y-99428472D01*
X113886237Y-99436237D01*
X113873794Y-99446448D01*
X113863425Y-99453378D01*
X113846098Y-99470705D01*
X113832485Y-99491080D01*
X113823109Y-99513720D01*
X113818329Y-99537753D01*
X113818330Y-99562257D01*
X113823112Y-99586290D01*
X113832490Y-99608929D01*
X113846105Y-99629302D01*
X113863432Y-99646629D01*
X113873802Y-99653558D01*
X113886237Y-99663763D01*
X113892610Y-99671528D01*
X113897348Y-99680392D01*
X113900263Y-99690001D01*
X113901852Y-99706140D01*
X113901852Y-100193862D01*
X113900046Y-100212199D01*
X113899444Y-100224450D01*
X113899444Y-100242869D01*
X113897250Y-100265149D01*
X113880524Y-100349233D01*
X113874024Y-100370660D01*
X113841220Y-100449858D01*
X113838309Y-100455303D01*
X113838307Y-100455309D01*
X113833571Y-100464169D01*
X113833568Y-100464173D01*
X113830660Y-100469614D01*
X113783029Y-100540899D01*
X113768828Y-100558204D01*
X113708204Y-100618828D01*
X113690899Y-100633029D01*
X113619614Y-100680660D01*
X113614173Y-100683568D01*
X113614169Y-100683571D01*
X113605309Y-100688307D01*
X113605303Y-100688309D01*
X113599858Y-100691220D01*
X113520660Y-100724024D01*
X113499233Y-100730524D01*
X113415149Y-100747250D01*
X113392869Y-100749444D01*
X113374450Y-100749444D01*
X113362199Y-100750046D01*
X113343862Y-100751852D01*
X112856138Y-100751852D01*
X112837801Y-100750046D01*
X112825550Y-100749444D01*
X112807131Y-100749444D01*
X112784851Y-100747250D01*
X112700767Y-100730524D01*
X112679340Y-100724024D01*
X112600142Y-100691220D01*
X112594697Y-100688309D01*
X112594691Y-100688307D01*
X112585831Y-100683571D01*
X112585827Y-100683568D01*
X112580386Y-100680660D01*
X112509101Y-100633029D01*
X112491796Y-100618828D01*
X112431172Y-100558204D01*
X112416971Y-100540899D01*
X112369340Y-100469614D01*
X112366432Y-100464173D01*
X112366429Y-100464169D01*
X112361693Y-100455309D01*
X112361691Y-100455303D01*
X112358780Y-100449858D01*
X112325976Y-100370660D01*
X112319476Y-100349233D01*
X112302750Y-100265149D01*
X112300556Y-100242869D01*
X112300556Y-100224450D01*
X112299954Y-100212199D01*
X112298148Y-100193862D01*
X112298148Y-99706140D01*
X112299737Y-99690001D01*
X112302652Y-99680392D01*
X112307390Y-99671528D01*
X112313763Y-99663763D01*
X112326206Y-99653552D01*
X112336575Y-99646622D01*
X112353902Y-99629295D01*
X112367515Y-99608920D01*
X112376891Y-99586280D01*
X112381671Y-99562247D01*
X112381670Y-99537743D01*
X112376888Y-99513710D01*
X112367510Y-99491071D01*
X112353895Y-99470698D01*
X112336568Y-99453371D01*
X112326198Y-99446442D01*
X112313763Y-99436237D01*
X112307390Y-99428472D01*
X112302652Y-99419608D01*
X112299737Y-99409999D01*
X112298148Y-99393860D01*
X112298148Y-98906139D01*
X112299954Y-98887801D01*
X112300556Y-98875550D01*
X112300556Y-98857131D01*
X112302750Y-98834851D01*
X112319476Y-98750767D01*
X112325976Y-98729340D01*
X112358780Y-98650142D01*
X112361691Y-98644697D01*
X112361693Y-98644691D01*
X112366429Y-98635831D01*
X112366432Y-98635827D01*
X112369340Y-98630386D01*
X112416971Y-98559101D01*
X112431172Y-98541796D01*
X112491796Y-98481172D01*
X112509101Y-98466971D01*
X112580386Y-98419340D01*
X112585827Y-98416432D01*
X112585831Y-98416429D01*
X112594691Y-98411693D01*
X112594697Y-98411691D01*
X112600142Y-98408780D01*
X112679340Y-98375976D01*
X112700767Y-98369476D01*
X112784851Y-98352750D01*
X112807131Y-98350556D01*
X112825550Y-98350556D01*
X112837801Y-98349954D01*
X112856139Y-98348148D01*
X113343861Y-98348148D01*
X113362199Y-98349954D01*
X113362199Y-98349954D01*
G37*
G36*
X127159271Y-97760103D02*
G01*
X127215635Y-97765654D01*
X127432600Y-97831470D01*
X127432602Y-97831471D01*
X127632555Y-97938347D01*
X127807818Y-98082182D01*
X127951653Y-98257445D01*
X128015008Y-98375976D01*
X128058530Y-98457400D01*
X128124346Y-98674365D01*
X128130342Y-98735247D01*
X128146569Y-98900000D01*
X128124346Y-99125634D01*
X128058529Y-99342602D01*
X127951653Y-99542555D01*
X127807818Y-99717818D01*
X127632555Y-99861653D01*
X127432602Y-99968529D01*
X127432600Y-99968530D01*
X127215635Y-100034346D01*
X127159271Y-100039897D01*
X127046545Y-100051000D01*
X126933455Y-100051000D01*
X126820729Y-100039897D01*
X126764365Y-100034346D01*
X126547400Y-99968530D01*
X126547398Y-99968529D01*
X126347445Y-99861653D01*
X126172182Y-99717818D01*
X126028347Y-99542555D01*
X125921471Y-99342602D01*
X125855654Y-99125634D01*
X125833431Y-98900000D01*
X125849658Y-98735247D01*
X125855654Y-98674365D01*
X125921470Y-98457400D01*
X125964992Y-98375976D01*
X126028347Y-98257445D01*
X126172182Y-98082182D01*
X126347445Y-97938347D01*
X126547398Y-97831471D01*
X126547400Y-97831470D01*
X126764365Y-97765654D01*
X126820729Y-97760103D01*
X126933455Y-97749000D01*
X127046545Y-97749000D01*
X127159271Y-97760103D01*
X127159271Y-97760103D01*
G37*
G36*
X138301000Y-100051000D02*
G01*
X135999000Y-100051000D01*
X135999000Y-97749000D01*
X138301000Y-97749000D01*
X138301000Y-100051000D01*
X138301000Y-100051000D01*
G37*
G36*
X124166823Y-93401313D02*
G01*
X124327242Y-93449976D01*
X124459906Y-93520886D01*
X124475078Y-93528996D01*
X124604659Y-93635341D01*
X124711004Y-93764922D01*
X124711005Y-93764924D01*
X124790024Y-93912758D01*
X124838687Y-94073177D01*
X124855117Y-94240000D01*
X124838687Y-94406823D01*
X124790024Y-94567242D01*
X124719114Y-94699906D01*
X124711004Y-94715078D01*
X124604659Y-94844659D01*
X124475078Y-94951004D01*
X124475076Y-94951005D01*
X124327242Y-95030024D01*
X124166823Y-95078687D01*
X124041804Y-95091000D01*
X123958196Y-95091000D01*
X123833177Y-95078687D01*
X123672758Y-95030024D01*
X123524924Y-94951005D01*
X123524922Y-94951004D01*
X123395341Y-94844659D01*
X123288996Y-94715078D01*
X123280886Y-94699906D01*
X123209976Y-94567242D01*
X123161313Y-94406823D01*
X123144883Y-94240000D01*
X123161313Y-94073177D01*
X123209976Y-93912758D01*
X123288995Y-93764924D01*
X123288996Y-93764922D01*
X123395341Y-93635341D01*
X123524922Y-93528996D01*
X123540094Y-93520886D01*
X123672758Y-93449976D01*
X123833177Y-93401313D01*
X123958196Y-93389000D01*
X124041804Y-93389000D01*
X124166823Y-93401313D01*
X124166823Y-93401313D01*
G37*
G36*
X114006823Y-93401313D02*
G01*
X114167242Y-93449976D01*
X114299906Y-93520886D01*
X114315078Y-93528996D01*
X114444659Y-93635341D01*
X114551004Y-93764922D01*
X114551005Y-93764924D01*
X114630024Y-93912758D01*
X114678687Y-94073177D01*
X114695117Y-94240000D01*
X114678687Y-94406823D01*
X114630024Y-94567242D01*
X114559114Y-94699906D01*
X114551004Y-94715078D01*
X114444659Y-94844659D01*
X114315078Y-94951004D01*
X114315076Y-94951005D01*
X114167242Y-95030024D01*
X114006823Y-95078687D01*
X113881804Y-95091000D01*
X113798196Y-95091000D01*
X113673177Y-95078687D01*
X113512758Y-95030024D01*
X113364924Y-94951005D01*
X113364922Y-94951004D01*
X113235341Y-94844659D01*
X113128996Y-94715078D01*
X113120886Y-94699906D01*
X113049976Y-94567242D01*
X113001313Y-94406823D01*
X112984883Y-94240000D01*
X113001313Y-94073177D01*
X113049976Y-93912758D01*
X113128995Y-93764924D01*
X113128996Y-93764922D01*
X113235341Y-93635341D01*
X113364922Y-93528996D01*
X113380094Y-93520886D01*
X113512758Y-93449976D01*
X113673177Y-93401313D01*
X113798196Y-93389000D01*
X113881804Y-93389000D01*
X114006823Y-93401313D01*
X114006823Y-93401313D01*
G37*
G36*
X121626823Y-93401313D02*
G01*
X121787242Y-93449976D01*
X121919906Y-93520886D01*
X121935078Y-93528996D01*
X122064659Y-93635341D01*
X122171004Y-93764922D01*
X122171005Y-93764924D01*
X122250024Y-93912758D01*
X122298687Y-94073177D01*
X122315117Y-94240000D01*
X122298687Y-94406823D01*
X122250024Y-94567242D01*
X122179114Y-94699906D01*
X122171004Y-94715078D01*
X122064659Y-94844659D01*
X121935078Y-94951004D01*
X121935076Y-94951005D01*
X121787242Y-95030024D01*
X121626823Y-95078687D01*
X121501804Y-95091000D01*
X121418196Y-95091000D01*
X121293177Y-95078687D01*
X121132758Y-95030024D01*
X120984924Y-94951005D01*
X120984922Y-94951004D01*
X120855341Y-94844659D01*
X120748996Y-94715078D01*
X120740886Y-94699906D01*
X120669976Y-94567242D01*
X120621313Y-94406823D01*
X120604883Y-94240000D01*
X120621313Y-94073177D01*
X120669976Y-93912758D01*
X120748995Y-93764924D01*
X120748996Y-93764922D01*
X120855341Y-93635341D01*
X120984922Y-93528996D01*
X121000094Y-93520886D01*
X121132758Y-93449976D01*
X121293177Y-93401313D01*
X121418196Y-93389000D01*
X121501804Y-93389000D01*
X121626823Y-93401313D01*
X121626823Y-93401313D01*
G37*
G36*
X126706823Y-93401313D02*
G01*
X126867242Y-93449976D01*
X126999906Y-93520886D01*
X127015078Y-93528996D01*
X127144659Y-93635341D01*
X127251004Y-93764922D01*
X127251005Y-93764924D01*
X127330024Y-93912758D01*
X127378687Y-94073177D01*
X127395117Y-94240000D01*
X127378687Y-94406823D01*
X127330024Y-94567242D01*
X127259114Y-94699906D01*
X127251004Y-94715078D01*
X127144659Y-94844659D01*
X127015078Y-94951004D01*
X127015076Y-94951005D01*
X126867242Y-95030024D01*
X126706823Y-95078687D01*
X126581804Y-95091000D01*
X126498196Y-95091000D01*
X126373177Y-95078687D01*
X126212758Y-95030024D01*
X126064924Y-94951005D01*
X126064922Y-94951004D01*
X125935341Y-94844659D01*
X125828996Y-94715078D01*
X125820886Y-94699906D01*
X125749976Y-94567242D01*
X125701313Y-94406823D01*
X125684883Y-94240000D01*
X125701313Y-94073177D01*
X125749976Y-93912758D01*
X125828995Y-93764924D01*
X125828996Y-93764922D01*
X125935341Y-93635341D01*
X126064922Y-93528996D01*
X126080094Y-93520886D01*
X126212758Y-93449976D01*
X126373177Y-93401313D01*
X126498196Y-93389000D01*
X126581804Y-93389000D01*
X126706823Y-93401313D01*
X126706823Y-93401313D01*
G37*
G36*
X119086823Y-93401313D02*
G01*
X119247242Y-93449976D01*
X119379906Y-93520886D01*
X119395078Y-93528996D01*
X119524659Y-93635341D01*
X119631004Y-93764922D01*
X119631005Y-93764924D01*
X119710024Y-93912758D01*
X119758687Y-94073177D01*
X119775117Y-94240000D01*
X119758687Y-94406823D01*
X119710024Y-94567242D01*
X119639114Y-94699906D01*
X119631004Y-94715078D01*
X119524659Y-94844659D01*
X119395078Y-94951004D01*
X119395076Y-94951005D01*
X119247242Y-95030024D01*
X119086823Y-95078687D01*
X118961804Y-95091000D01*
X118878196Y-95091000D01*
X118753177Y-95078687D01*
X118592758Y-95030024D01*
X118444924Y-94951005D01*
X118444922Y-94951004D01*
X118315341Y-94844659D01*
X118208996Y-94715078D01*
X118200886Y-94699906D01*
X118129976Y-94567242D01*
X118081313Y-94406823D01*
X118064883Y-94240000D01*
X118081313Y-94073177D01*
X118129976Y-93912758D01*
X118208995Y-93764924D01*
X118208996Y-93764922D01*
X118315341Y-93635341D01*
X118444922Y-93528996D01*
X118460094Y-93520886D01*
X118592758Y-93449976D01*
X118753177Y-93401313D01*
X118878196Y-93389000D01*
X118961804Y-93389000D01*
X119086823Y-93401313D01*
X119086823Y-93401313D01*
G37*
G36*
X129246823Y-93401313D02*
G01*
X129407242Y-93449976D01*
X129539906Y-93520886D01*
X129555078Y-93528996D01*
X129684659Y-93635341D01*
X129791004Y-93764922D01*
X129791005Y-93764924D01*
X129870024Y-93912758D01*
X129918687Y-94073177D01*
X129935117Y-94240000D01*
X129918687Y-94406823D01*
X129870024Y-94567242D01*
X129799114Y-94699906D01*
X129791004Y-94715078D01*
X129684659Y-94844659D01*
X129555078Y-94951004D01*
X129555076Y-94951005D01*
X129407242Y-95030024D01*
X129246823Y-95078687D01*
X129121804Y-95091000D01*
X129038196Y-95091000D01*
X128913177Y-95078687D01*
X128752758Y-95030024D01*
X128604924Y-94951005D01*
X128604922Y-94951004D01*
X128475341Y-94844659D01*
X128368996Y-94715078D01*
X128360886Y-94699906D01*
X128289976Y-94567242D01*
X128241313Y-94406823D01*
X128224883Y-94240000D01*
X128241313Y-94073177D01*
X128289976Y-93912758D01*
X128368995Y-93764924D01*
X128368996Y-93764922D01*
X128475341Y-93635341D01*
X128604922Y-93528996D01*
X128620094Y-93520886D01*
X128752758Y-93449976D01*
X128913177Y-93401313D01*
X129038196Y-93389000D01*
X129121804Y-93389000D01*
X129246823Y-93401313D01*
X129246823Y-93401313D01*
G37*
G36*
X116546823Y-93401313D02*
G01*
X116707242Y-93449976D01*
X116839906Y-93520886D01*
X116855078Y-93528996D01*
X116984659Y-93635341D01*
X117091004Y-93764922D01*
X117091005Y-93764924D01*
X117170024Y-93912758D01*
X117218687Y-94073177D01*
X117235117Y-94240000D01*
X117218687Y-94406823D01*
X117170024Y-94567242D01*
X117099114Y-94699906D01*
X117091004Y-94715078D01*
X116984659Y-94844659D01*
X116855078Y-94951004D01*
X116855076Y-94951005D01*
X116707242Y-95030024D01*
X116546823Y-95078687D01*
X116421804Y-95091000D01*
X116338196Y-95091000D01*
X116213177Y-95078687D01*
X116052758Y-95030024D01*
X115904924Y-94951005D01*
X115904922Y-94951004D01*
X115775341Y-94844659D01*
X115668996Y-94715078D01*
X115660886Y-94699906D01*
X115589976Y-94567242D01*
X115541313Y-94406823D01*
X115524883Y-94240000D01*
X115541313Y-94073177D01*
X115589976Y-93912758D01*
X115668995Y-93764924D01*
X115668996Y-93764922D01*
X115775341Y-93635341D01*
X115904922Y-93528996D01*
X115920094Y-93520886D01*
X116052758Y-93449976D01*
X116213177Y-93401313D01*
X116338196Y-93389000D01*
X116421804Y-93389000D01*
X116546823Y-93401313D01*
X116546823Y-93401313D01*
G37*
G36*
X131786823Y-93401313D02*
G01*
X131947242Y-93449976D01*
X132079906Y-93520886D01*
X132095078Y-93528996D01*
X132224659Y-93635341D01*
X132331004Y-93764922D01*
X132331005Y-93764924D01*
X132410024Y-93912758D01*
X132458687Y-94073177D01*
X132475117Y-94240000D01*
X132458687Y-94406823D01*
X132410024Y-94567242D01*
X132339114Y-94699906D01*
X132331004Y-94715078D01*
X132224659Y-94844659D01*
X132095078Y-94951004D01*
X132095076Y-94951005D01*
X131947242Y-95030024D01*
X131786823Y-95078687D01*
X131661804Y-95091000D01*
X131578196Y-95091000D01*
X131453177Y-95078687D01*
X131292758Y-95030024D01*
X131144924Y-94951005D01*
X131144922Y-94951004D01*
X131015341Y-94844659D01*
X130908996Y-94715078D01*
X130900886Y-94699906D01*
X130829976Y-94567242D01*
X130781313Y-94406823D01*
X130764883Y-94240000D01*
X130781313Y-94073177D01*
X130829976Y-93912758D01*
X130908995Y-93764924D01*
X130908996Y-93764922D01*
X131015341Y-93635341D01*
X131144922Y-93528996D01*
X131160094Y-93520886D01*
X131292758Y-93449976D01*
X131453177Y-93401313D01*
X131578196Y-93389000D01*
X131661804Y-93389000D01*
X131786823Y-93401313D01*
X131786823Y-93401313D01*
G37*
G36*
X134326823Y-93401313D02*
G01*
X134487242Y-93449976D01*
X134619906Y-93520886D01*
X134635078Y-93528996D01*
X134764659Y-93635341D01*
X134871004Y-93764922D01*
X134871005Y-93764924D01*
X134950024Y-93912758D01*
X134998687Y-94073177D01*
X135015117Y-94240000D01*
X134998687Y-94406823D01*
X134950024Y-94567242D01*
X134879114Y-94699906D01*
X134871004Y-94715078D01*
X134764659Y-94844659D01*
X134635078Y-94951004D01*
X134635076Y-94951005D01*
X134487242Y-95030024D01*
X134326823Y-95078687D01*
X134201804Y-95091000D01*
X134118196Y-95091000D01*
X133993177Y-95078687D01*
X133832758Y-95030024D01*
X133684924Y-94951005D01*
X133684922Y-94951004D01*
X133555341Y-94844659D01*
X133448996Y-94715078D01*
X133440886Y-94699906D01*
X133369976Y-94567242D01*
X133321313Y-94406823D01*
X133304883Y-94240000D01*
X133321313Y-94073177D01*
X133369976Y-93912758D01*
X133448995Y-93764924D01*
X133448996Y-93764922D01*
X133555341Y-93635341D01*
X133684922Y-93528996D01*
X133700094Y-93520886D01*
X133832758Y-93449976D01*
X133993177Y-93401313D01*
X134118196Y-93389000D01*
X134201804Y-93389000D01*
X134326823Y-93401313D01*
X134326823Y-93401313D01*
G37*
G36*
X111466823Y-93401313D02*
G01*
X111627242Y-93449976D01*
X111759906Y-93520886D01*
X111775078Y-93528996D01*
X111904659Y-93635341D01*
X112011004Y-93764922D01*
X112011005Y-93764924D01*
X112090024Y-93912758D01*
X112138687Y-94073177D01*
X112155117Y-94240000D01*
X112138687Y-94406823D01*
X112090024Y-94567242D01*
X112019114Y-94699906D01*
X112011004Y-94715078D01*
X111904659Y-94844659D01*
X111775078Y-94951004D01*
X111775076Y-94951005D01*
X111627242Y-95030024D01*
X111466823Y-95078687D01*
X111341804Y-95091000D01*
X111258196Y-95091000D01*
X111133177Y-95078687D01*
X110972758Y-95030024D01*
X110824924Y-94951005D01*
X110824922Y-94951004D01*
X110695341Y-94844659D01*
X110588996Y-94715078D01*
X110580886Y-94699906D01*
X110509976Y-94567242D01*
X110461313Y-94406823D01*
X110444883Y-94240000D01*
X110461313Y-94073177D01*
X110509976Y-93912758D01*
X110588995Y-93764924D01*
X110588996Y-93764922D01*
X110695341Y-93635341D01*
X110824922Y-93528996D01*
X110840094Y-93520886D01*
X110972758Y-93449976D01*
X111133177Y-93401313D01*
X111258196Y-93389000D01*
X111341804Y-93389000D01*
X111466823Y-93401313D01*
X111466823Y-93401313D01*
G37*
G36*
X136866823Y-93401313D02*
G01*
X137027242Y-93449976D01*
X137159906Y-93520886D01*
X137175078Y-93528996D01*
X137304659Y-93635341D01*
X137411004Y-93764922D01*
X137411005Y-93764924D01*
X137490024Y-93912758D01*
X137538687Y-94073177D01*
X137555117Y-94240000D01*
X137538687Y-94406823D01*
X137490024Y-94567242D01*
X137419114Y-94699906D01*
X137411004Y-94715078D01*
X137304659Y-94844659D01*
X137175078Y-94951004D01*
X137175076Y-94951005D01*
X137027242Y-95030024D01*
X136866823Y-95078687D01*
X136741804Y-95091000D01*
X136658196Y-95091000D01*
X136533177Y-95078687D01*
X136372758Y-95030024D01*
X136224924Y-94951005D01*
X136224922Y-94951004D01*
X136095341Y-94844659D01*
X135988996Y-94715078D01*
X135980886Y-94699906D01*
X135909976Y-94567242D01*
X135861313Y-94406823D01*
X135844883Y-94240000D01*
X135861313Y-94073177D01*
X135909976Y-93912758D01*
X135988995Y-93764924D01*
X135988996Y-93764922D01*
X136095341Y-93635341D01*
X136224922Y-93528996D01*
X136240094Y-93520886D01*
X136372758Y-93449976D01*
X136533177Y-93401313D01*
X136658196Y-93389000D01*
X136741804Y-93389000D01*
X136866823Y-93401313D01*
X136866823Y-93401313D01*
G37*
G36*
X108926823Y-93401313D02*
G01*
X109087242Y-93449976D01*
X109219906Y-93520886D01*
X109235078Y-93528996D01*
X109364659Y-93635341D01*
X109471004Y-93764922D01*
X109471005Y-93764924D01*
X109550024Y-93912758D01*
X109598687Y-94073177D01*
X109615117Y-94240000D01*
X109598687Y-94406823D01*
X109550024Y-94567242D01*
X109479114Y-94699906D01*
X109471004Y-94715078D01*
X109364659Y-94844659D01*
X109235078Y-94951004D01*
X109235076Y-94951005D01*
X109087242Y-95030024D01*
X108926823Y-95078687D01*
X108801804Y-95091000D01*
X108718196Y-95091000D01*
X108593177Y-95078687D01*
X108432758Y-95030024D01*
X108284924Y-94951005D01*
X108284922Y-94951004D01*
X108155341Y-94844659D01*
X108048996Y-94715078D01*
X108040886Y-94699906D01*
X107969976Y-94567242D01*
X107921313Y-94406823D01*
X107904883Y-94240000D01*
X107921313Y-94073177D01*
X107969976Y-93912758D01*
X108048995Y-93764924D01*
X108048996Y-93764922D01*
X108155341Y-93635341D01*
X108284922Y-93528996D01*
X108300094Y-93520886D01*
X108432758Y-93449976D01*
X108593177Y-93401313D01*
X108718196Y-93389000D01*
X108801804Y-93389000D01*
X108926823Y-93401313D01*
X108926823Y-93401313D01*
G37*
G36*
X101306823Y-93401313D02*
G01*
X101467242Y-93449976D01*
X101599906Y-93520886D01*
X101615078Y-93528996D01*
X101744659Y-93635341D01*
X101851004Y-93764922D01*
X101851005Y-93764924D01*
X101930024Y-93912758D01*
X101978687Y-94073177D01*
X101995117Y-94240000D01*
X101978687Y-94406823D01*
X101930024Y-94567242D01*
X101859114Y-94699906D01*
X101851004Y-94715078D01*
X101744659Y-94844659D01*
X101615078Y-94951004D01*
X101615076Y-94951005D01*
X101467242Y-95030024D01*
X101306823Y-95078687D01*
X101181804Y-95091000D01*
X101098196Y-95091000D01*
X100973177Y-95078687D01*
X100812758Y-95030024D01*
X100664924Y-94951005D01*
X100664922Y-94951004D01*
X100535341Y-94844659D01*
X100428996Y-94715078D01*
X100420886Y-94699906D01*
X100349976Y-94567242D01*
X100301313Y-94406823D01*
X100284883Y-94240000D01*
X100301313Y-94073177D01*
X100349976Y-93912758D01*
X100428995Y-93764924D01*
X100428996Y-93764922D01*
X100535341Y-93635341D01*
X100664922Y-93528996D01*
X100680094Y-93520886D01*
X100812758Y-93449976D01*
X100973177Y-93401313D01*
X101098196Y-93389000D01*
X101181804Y-93389000D01*
X101306823Y-93401313D01*
X101306823Y-93401313D01*
G37*
G36*
X106386823Y-93401313D02*
G01*
X106547242Y-93449976D01*
X106679906Y-93520886D01*
X106695078Y-93528996D01*
X106824659Y-93635341D01*
X106931004Y-93764922D01*
X106931005Y-93764924D01*
X107010024Y-93912758D01*
X107058687Y-94073177D01*
X107075117Y-94240000D01*
X107058687Y-94406823D01*
X107010024Y-94567242D01*
X106939114Y-94699906D01*
X106931004Y-94715078D01*
X106824659Y-94844659D01*
X106695078Y-94951004D01*
X106695076Y-94951005D01*
X106547242Y-95030024D01*
X106386823Y-95078687D01*
X106261804Y-95091000D01*
X106178196Y-95091000D01*
X106053177Y-95078687D01*
X105892758Y-95030024D01*
X105744924Y-94951005D01*
X105744922Y-94951004D01*
X105615341Y-94844659D01*
X105508996Y-94715078D01*
X105500886Y-94699906D01*
X105429976Y-94567242D01*
X105381313Y-94406823D01*
X105364883Y-94240000D01*
X105381313Y-94073177D01*
X105429976Y-93912758D01*
X105508995Y-93764924D01*
X105508996Y-93764922D01*
X105615341Y-93635341D01*
X105744922Y-93528996D01*
X105760094Y-93520886D01*
X105892758Y-93449976D01*
X106053177Y-93401313D01*
X106178196Y-93389000D01*
X106261804Y-93389000D01*
X106386823Y-93401313D01*
X106386823Y-93401313D01*
G37*
G36*
X103846823Y-93401313D02*
G01*
X104007242Y-93449976D01*
X104139906Y-93520886D01*
X104155078Y-93528996D01*
X104284659Y-93635341D01*
X104391004Y-93764922D01*
X104391005Y-93764924D01*
X104470024Y-93912758D01*
X104518687Y-94073177D01*
X104535117Y-94240000D01*
X104518687Y-94406823D01*
X104470024Y-94567242D01*
X104399114Y-94699906D01*
X104391004Y-94715078D01*
X104284659Y-94844659D01*
X104155078Y-94951004D01*
X104155076Y-94951005D01*
X104007242Y-95030024D01*
X103846823Y-95078687D01*
X103721804Y-95091000D01*
X103638196Y-95091000D01*
X103513177Y-95078687D01*
X103352758Y-95030024D01*
X103204924Y-94951005D01*
X103204922Y-94951004D01*
X103075341Y-94844659D01*
X102968996Y-94715078D01*
X102960886Y-94699906D01*
X102889976Y-94567242D01*
X102841313Y-94406823D01*
X102824883Y-94240000D01*
X102841313Y-94073177D01*
X102889976Y-93912758D01*
X102968995Y-93764924D01*
X102968996Y-93764922D01*
X103075341Y-93635341D01*
X103204922Y-93528996D01*
X103220094Y-93520886D01*
X103352758Y-93449976D01*
X103513177Y-93401313D01*
X103638196Y-93389000D01*
X103721804Y-93389000D01*
X103846823Y-93401313D01*
X103846823Y-93401313D01*
G37*
G36*
X114214499Y-90653445D02*
G01*
X114251995Y-90664820D01*
X114286554Y-90683292D01*
X114316847Y-90708153D01*
X114341708Y-90738446D01*
X114360180Y-90773005D01*
X114371555Y-90810501D01*
X114376000Y-90855638D01*
X114376000Y-91594362D01*
X114371555Y-91639499D01*
X114360180Y-91676995D01*
X114341708Y-91711554D01*
X114316847Y-91741847D01*
X114286554Y-91766708D01*
X114251995Y-91785180D01*
X114214499Y-91796555D01*
X114169362Y-91801000D01*
X113530638Y-91801000D01*
X113485501Y-91796555D01*
X113448005Y-91785180D01*
X113413446Y-91766708D01*
X113383153Y-91741847D01*
X113358292Y-91711554D01*
X113339820Y-91676995D01*
X113328445Y-91639499D01*
X113324000Y-91594362D01*
X113324000Y-90855638D01*
X113328445Y-90810501D01*
X113339820Y-90773005D01*
X113358292Y-90738446D01*
X113383153Y-90708153D01*
X113413446Y-90683292D01*
X113448005Y-90664820D01*
X113485501Y-90653445D01*
X113530638Y-90649000D01*
X114169362Y-90649000D01*
X114214499Y-90653445D01*
X114214499Y-90653445D01*
G37*
G36*
X111664499Y-90653445D02*
G01*
X111701995Y-90664820D01*
X111736554Y-90683292D01*
X111766847Y-90708153D01*
X111791708Y-90738446D01*
X111810180Y-90773005D01*
X111821555Y-90810501D01*
X111826000Y-90855638D01*
X111826000Y-91594362D01*
X111821555Y-91639499D01*
X111810180Y-91676995D01*
X111791708Y-91711554D01*
X111766847Y-91741847D01*
X111736554Y-91766708D01*
X111701995Y-91785180D01*
X111664499Y-91796555D01*
X111619362Y-91801000D01*
X110980638Y-91801000D01*
X110935501Y-91796555D01*
X110898005Y-91785180D01*
X110863446Y-91766708D01*
X110833153Y-91741847D01*
X110808292Y-91711554D01*
X110789820Y-91676995D01*
X110778445Y-91639499D01*
X110774000Y-91594362D01*
X110774000Y-90855638D01*
X110778445Y-90810501D01*
X110789820Y-90773005D01*
X110808292Y-90738446D01*
X110833153Y-90708153D01*
X110863446Y-90683292D01*
X110898005Y-90664820D01*
X110935501Y-90653445D01*
X110980638Y-90649000D01*
X111619362Y-90649000D01*
X111664499Y-90653445D01*
X111664499Y-90653445D01*
G37*
G36*
X109114499Y-90653445D02*
G01*
X109151995Y-90664820D01*
X109186554Y-90683292D01*
X109216847Y-90708153D01*
X109241708Y-90738446D01*
X109260180Y-90773005D01*
X109271555Y-90810501D01*
X109276000Y-90855638D01*
X109276000Y-91594362D01*
X109271555Y-91639499D01*
X109260180Y-91676995D01*
X109241708Y-91711554D01*
X109216847Y-91741847D01*
X109186554Y-91766708D01*
X109151995Y-91785180D01*
X109114499Y-91796555D01*
X109069362Y-91801000D01*
X108430638Y-91801000D01*
X108385501Y-91796555D01*
X108348005Y-91785180D01*
X108313446Y-91766708D01*
X108283153Y-91741847D01*
X108258292Y-91711554D01*
X108239820Y-91676995D01*
X108228445Y-91639499D01*
X108224000Y-91594362D01*
X108224000Y-90855638D01*
X108228445Y-90810501D01*
X108239820Y-90773005D01*
X108258292Y-90738446D01*
X108283153Y-90708153D01*
X108313446Y-90683292D01*
X108348005Y-90664820D01*
X108385501Y-90653445D01*
X108430638Y-90649000D01*
X109069362Y-90649000D01*
X109114499Y-90653445D01*
X109114499Y-90653445D01*
G37*
G36*
X179541000Y-91301000D02*
G01*
X177739000Y-91301000D01*
X177739000Y-89499000D01*
X179541000Y-89499000D01*
X179541000Y-91301000D01*
X179541000Y-91301000D01*
G37*
G36*
X176210443Y-89505519D02*
G01*
X176276627Y-89512037D01*
X176446466Y-89563557D01*
X176602991Y-89647222D01*
X176638729Y-89676552D01*
X176740186Y-89759814D01*
X176823448Y-89861271D01*
X176852778Y-89897009D01*
X176936443Y-90053534D01*
X176987963Y-90223373D01*
X177005359Y-90400000D01*
X176987963Y-90576627D01*
X176936443Y-90746466D01*
X176936442Y-90746468D01*
X176916924Y-90782983D01*
X176852778Y-90902991D01*
X176845384Y-90912000D01*
X176740186Y-91040186D01*
X176638729Y-91123448D01*
X176602991Y-91152778D01*
X176446466Y-91236443D01*
X176276627Y-91287963D01*
X176210442Y-91294482D01*
X176144260Y-91301000D01*
X176055740Y-91301000D01*
X175989558Y-91294482D01*
X175923373Y-91287963D01*
X175753534Y-91236443D01*
X175597009Y-91152778D01*
X175561271Y-91123448D01*
X175459814Y-91040186D01*
X175354616Y-90912000D01*
X175347222Y-90902991D01*
X175283076Y-90782983D01*
X175263558Y-90746468D01*
X175263557Y-90746466D01*
X175212037Y-90576627D01*
X175194641Y-90400000D01*
X175212037Y-90223373D01*
X175263557Y-90053534D01*
X175347222Y-89897009D01*
X175376552Y-89861271D01*
X175459814Y-89759814D01*
X175561271Y-89676552D01*
X175597009Y-89647222D01*
X175753534Y-89563557D01*
X175923373Y-89512037D01*
X175989557Y-89505519D01*
X176055740Y-89499000D01*
X176144260Y-89499000D01*
X176210443Y-89505519D01*
X176210443Y-89505519D01*
G37*
G36*
X145501000Y-91201000D02*
G01*
X143699000Y-91201000D01*
X143699000Y-89399000D01*
X145501000Y-89399000D01*
X145501000Y-91201000D01*
X145501000Y-91201000D01*
G37*
G36*
X147250442Y-89405518D02*
G01*
X147316627Y-89412037D01*
X147486466Y-89463557D01*
X147642991Y-89547222D01*
X147662895Y-89563557D01*
X147780186Y-89659814D01*
X147849988Y-89744869D01*
X147892778Y-89797009D01*
X147892779Y-89797011D01*
X147962258Y-89926995D01*
X147976443Y-89953534D01*
X148027963Y-90123373D01*
X148045359Y-90300000D01*
X148027963Y-90476627D01*
X147976443Y-90646466D01*
X147892778Y-90802991D01*
X147870581Y-90830038D01*
X147780186Y-90940186D01*
X147678729Y-91023448D01*
X147642991Y-91052778D01*
X147486466Y-91136443D01*
X147316627Y-91187963D01*
X147250443Y-91194481D01*
X147184260Y-91201000D01*
X147095740Y-91201000D01*
X147029557Y-91194481D01*
X146963373Y-91187963D01*
X146793534Y-91136443D01*
X146637009Y-91052778D01*
X146601271Y-91023448D01*
X146499814Y-90940186D01*
X146409419Y-90830038D01*
X146387222Y-90802991D01*
X146303557Y-90646466D01*
X146252037Y-90476627D01*
X146234641Y-90300000D01*
X146252037Y-90123373D01*
X146303557Y-89953534D01*
X146317743Y-89926995D01*
X146387221Y-89797011D01*
X146387222Y-89797009D01*
X146430012Y-89744869D01*
X146499814Y-89659814D01*
X146617105Y-89563557D01*
X146637009Y-89547222D01*
X146793534Y-89463557D01*
X146963373Y-89412037D01*
X147029558Y-89405518D01*
X147095740Y-89399000D01*
X147184260Y-89399000D01*
X147250442Y-89405518D01*
X147250442Y-89405518D01*
G37*
G36*
X149790442Y-89405518D02*
G01*
X149856627Y-89412037D01*
X150026466Y-89463557D01*
X150182991Y-89547222D01*
X150202895Y-89563557D01*
X150320186Y-89659814D01*
X150389988Y-89744869D01*
X150432778Y-89797009D01*
X150432779Y-89797011D01*
X150502258Y-89926995D01*
X150516443Y-89953534D01*
X150567963Y-90123373D01*
X150585359Y-90300000D01*
X150567963Y-90476627D01*
X150516443Y-90646466D01*
X150432778Y-90802991D01*
X150410581Y-90830038D01*
X150320186Y-90940186D01*
X150218729Y-91023448D01*
X150182991Y-91052778D01*
X150026466Y-91136443D01*
X149856627Y-91187963D01*
X149790443Y-91194481D01*
X149724260Y-91201000D01*
X149635740Y-91201000D01*
X149569557Y-91194481D01*
X149503373Y-91187963D01*
X149333534Y-91136443D01*
X149177009Y-91052778D01*
X149141271Y-91023448D01*
X149039814Y-90940186D01*
X148949419Y-90830038D01*
X148927222Y-90802991D01*
X148843557Y-90646466D01*
X148792037Y-90476627D01*
X148774641Y-90300000D01*
X148792037Y-90123373D01*
X148843557Y-89953534D01*
X148857743Y-89926995D01*
X148927221Y-89797011D01*
X148927222Y-89797009D01*
X148970012Y-89744869D01*
X149039814Y-89659814D01*
X149157105Y-89563557D01*
X149177009Y-89547222D01*
X149333534Y-89463557D01*
X149503373Y-89412037D01*
X149569558Y-89405518D01*
X149635740Y-89399000D01*
X149724260Y-89399000D01*
X149790442Y-89405518D01*
X149790442Y-89405518D01*
G37*
G36*
X152330442Y-89405518D02*
G01*
X152396627Y-89412037D01*
X152566466Y-89463557D01*
X152722991Y-89547222D01*
X152742895Y-89563557D01*
X152860186Y-89659814D01*
X152929988Y-89744869D01*
X152972778Y-89797009D01*
X152972779Y-89797011D01*
X153042258Y-89926995D01*
X153056443Y-89953534D01*
X153107963Y-90123373D01*
X153125359Y-90300000D01*
X153107963Y-90476627D01*
X153056443Y-90646466D01*
X152972778Y-90802991D01*
X152950581Y-90830038D01*
X152860186Y-90940186D01*
X152758729Y-91023448D01*
X152722991Y-91052778D01*
X152566466Y-91136443D01*
X152396627Y-91187963D01*
X152330443Y-91194481D01*
X152264260Y-91201000D01*
X152175740Y-91201000D01*
X152109557Y-91194481D01*
X152043373Y-91187963D01*
X151873534Y-91136443D01*
X151717009Y-91052778D01*
X151681271Y-91023448D01*
X151579814Y-90940186D01*
X151489419Y-90830038D01*
X151467222Y-90802991D01*
X151383557Y-90646466D01*
X151332037Y-90476627D01*
X151314641Y-90300000D01*
X151332037Y-90123373D01*
X151383557Y-89953534D01*
X151397743Y-89926995D01*
X151467221Y-89797011D01*
X151467222Y-89797009D01*
X151510012Y-89744869D01*
X151579814Y-89659814D01*
X151697105Y-89563557D01*
X151717009Y-89547222D01*
X151873534Y-89463557D01*
X152043373Y-89412037D01*
X152109558Y-89405518D01*
X152175740Y-89399000D01*
X152264260Y-89399000D01*
X152330442Y-89405518D01*
X152330442Y-89405518D01*
G37*
G36*
X154870442Y-89405518D02*
G01*
X154936627Y-89412037D01*
X155106466Y-89463557D01*
X155262991Y-89547222D01*
X155282895Y-89563557D01*
X155400186Y-89659814D01*
X155469988Y-89744869D01*
X155512778Y-89797009D01*
X155512779Y-89797011D01*
X155582258Y-89926995D01*
X155596443Y-89953534D01*
X155647963Y-90123373D01*
X155665359Y-90300000D01*
X155647963Y-90476627D01*
X155596443Y-90646466D01*
X155512778Y-90802991D01*
X155490581Y-90830038D01*
X155400186Y-90940186D01*
X155298729Y-91023448D01*
X155262991Y-91052778D01*
X155106466Y-91136443D01*
X154936627Y-91187963D01*
X154870443Y-91194481D01*
X154804260Y-91201000D01*
X154715740Y-91201000D01*
X154649557Y-91194481D01*
X154583373Y-91187963D01*
X154413534Y-91136443D01*
X154257009Y-91052778D01*
X154221271Y-91023448D01*
X154119814Y-90940186D01*
X154029419Y-90830038D01*
X154007222Y-90802991D01*
X153923557Y-90646466D01*
X153872037Y-90476627D01*
X153854641Y-90300000D01*
X153872037Y-90123373D01*
X153923557Y-89953534D01*
X153937743Y-89926995D01*
X154007221Y-89797011D01*
X154007222Y-89797009D01*
X154050012Y-89744869D01*
X154119814Y-89659814D01*
X154237105Y-89563557D01*
X154257009Y-89547222D01*
X154413534Y-89463557D01*
X154583373Y-89412037D01*
X154649558Y-89405518D01*
X154715740Y-89399000D01*
X154804260Y-89399000D01*
X154870442Y-89405518D01*
X154870442Y-89405518D01*
G37*
G36*
X165138674Y-89703465D02*
G01*
X165176367Y-89714899D01*
X165211103Y-89733466D01*
X165241548Y-89758452D01*
X165266534Y-89788897D01*
X165285101Y-89823633D01*
X165296535Y-89861326D01*
X165301000Y-89906661D01*
X165301000Y-90743339D01*
X165296535Y-90788674D01*
X165285101Y-90826367D01*
X165266534Y-90861103D01*
X165241548Y-90891548D01*
X165211103Y-90916534D01*
X165176367Y-90935101D01*
X165138674Y-90946535D01*
X165093339Y-90951000D01*
X164006661Y-90951000D01*
X163961326Y-90946535D01*
X163923633Y-90935101D01*
X163888897Y-90916534D01*
X163858452Y-90891548D01*
X163833466Y-90861103D01*
X163814899Y-90826367D01*
X163803465Y-90788674D01*
X163799000Y-90743339D01*
X163799000Y-89906661D01*
X163803465Y-89861326D01*
X163814899Y-89823633D01*
X163833466Y-89788897D01*
X163858452Y-89758452D01*
X163888897Y-89733466D01*
X163923633Y-89714899D01*
X163961326Y-89703465D01*
X164006661Y-89699000D01*
X165093339Y-89699000D01*
X165138674Y-89703465D01*
X165138674Y-89703465D01*
G37*
G36*
X167738674Y-89703465D02*
G01*
X167776367Y-89714899D01*
X167811103Y-89733466D01*
X167841548Y-89758452D01*
X167866534Y-89788897D01*
X167885101Y-89823633D01*
X167896535Y-89861326D01*
X167901000Y-89906661D01*
X167901000Y-90743339D01*
X167896535Y-90788674D01*
X167885101Y-90826367D01*
X167866534Y-90861103D01*
X167841548Y-90891548D01*
X167811103Y-90916534D01*
X167776367Y-90935101D01*
X167738674Y-90946535D01*
X167693339Y-90951000D01*
X166606661Y-90951000D01*
X166561326Y-90946535D01*
X166523633Y-90935101D01*
X166488897Y-90916534D01*
X166458452Y-90891548D01*
X166433466Y-90861103D01*
X166414899Y-90826367D01*
X166403465Y-90788674D01*
X166399000Y-90743339D01*
X166399000Y-89906661D01*
X166403465Y-89861326D01*
X166414899Y-89823633D01*
X166433466Y-89788897D01*
X166458452Y-89758452D01*
X166488897Y-89733466D01*
X166523633Y-89714899D01*
X166561326Y-89703465D01*
X166606661Y-89699000D01*
X167693339Y-89699000D01*
X167738674Y-89703465D01*
X167738674Y-89703465D01*
G37*
G36*
X114214499Y-88903445D02*
G01*
X114251995Y-88914820D01*
X114286554Y-88933292D01*
X114316847Y-88958153D01*
X114341708Y-88988446D01*
X114360180Y-89023005D01*
X114371555Y-89060501D01*
X114376000Y-89105638D01*
X114376000Y-89844362D01*
X114371555Y-89889499D01*
X114360180Y-89926995D01*
X114341708Y-89961554D01*
X114316847Y-89991847D01*
X114286554Y-90016708D01*
X114251995Y-90035180D01*
X114214499Y-90046555D01*
X114169362Y-90051000D01*
X113530638Y-90051000D01*
X113485501Y-90046555D01*
X113448005Y-90035180D01*
X113413446Y-90016708D01*
X113383153Y-89991847D01*
X113358292Y-89961554D01*
X113339820Y-89926995D01*
X113328445Y-89889499D01*
X113324000Y-89844362D01*
X113324000Y-89105638D01*
X113328445Y-89060501D01*
X113339820Y-89023005D01*
X113358292Y-88988446D01*
X113383153Y-88958153D01*
X113413446Y-88933292D01*
X113448005Y-88914820D01*
X113485501Y-88903445D01*
X113530638Y-88899000D01*
X114169362Y-88899000D01*
X114214499Y-88903445D01*
X114214499Y-88903445D01*
G37*
G36*
X111664499Y-88903445D02*
G01*
X111701995Y-88914820D01*
X111736554Y-88933292D01*
X111766847Y-88958153D01*
X111791708Y-88988446D01*
X111810180Y-89023005D01*
X111821555Y-89060501D01*
X111826000Y-89105638D01*
X111826000Y-89844362D01*
X111821555Y-89889499D01*
X111810180Y-89926995D01*
X111791708Y-89961554D01*
X111766847Y-89991847D01*
X111736554Y-90016708D01*
X111701995Y-90035180D01*
X111664499Y-90046555D01*
X111619362Y-90051000D01*
X110980638Y-90051000D01*
X110935501Y-90046555D01*
X110898005Y-90035180D01*
X110863446Y-90016708D01*
X110833153Y-89991847D01*
X110808292Y-89961554D01*
X110789820Y-89926995D01*
X110778445Y-89889499D01*
X110774000Y-89844362D01*
X110774000Y-89105638D01*
X110778445Y-89060501D01*
X110789820Y-89023005D01*
X110808292Y-88988446D01*
X110833153Y-88958153D01*
X110863446Y-88933292D01*
X110898005Y-88914820D01*
X110935501Y-88903445D01*
X110980638Y-88899000D01*
X111619362Y-88899000D01*
X111664499Y-88903445D01*
X111664499Y-88903445D01*
G37*
G36*
X109114499Y-88903445D02*
G01*
X109151995Y-88914820D01*
X109186554Y-88933292D01*
X109216847Y-88958153D01*
X109241708Y-88988446D01*
X109260180Y-89023005D01*
X109271555Y-89060501D01*
X109276000Y-89105638D01*
X109276000Y-89844362D01*
X109271555Y-89889499D01*
X109260180Y-89926995D01*
X109241708Y-89961554D01*
X109216847Y-89991847D01*
X109186554Y-90016708D01*
X109151995Y-90035180D01*
X109114499Y-90046555D01*
X109069362Y-90051000D01*
X108430638Y-90051000D01*
X108385501Y-90046555D01*
X108348005Y-90035180D01*
X108313446Y-90016708D01*
X108283153Y-89991847D01*
X108258292Y-89961554D01*
X108239820Y-89926995D01*
X108228445Y-89889499D01*
X108224000Y-89844362D01*
X108224000Y-89105638D01*
X108228445Y-89060501D01*
X108239820Y-89023005D01*
X108258292Y-88988446D01*
X108283153Y-88958153D01*
X108313446Y-88933292D01*
X108348005Y-88914820D01*
X108385501Y-88903445D01*
X108430638Y-88899000D01*
X109069362Y-88899000D01*
X109114499Y-88903445D01*
X109114499Y-88903445D01*
G37*
G36*
X167738674Y-87653465D02*
G01*
X167776367Y-87664899D01*
X167811103Y-87683466D01*
X167841548Y-87708452D01*
X167866534Y-87738897D01*
X167885101Y-87773633D01*
X167896535Y-87811326D01*
X167901000Y-87856661D01*
X167901000Y-88693339D01*
X167896535Y-88738674D01*
X167885101Y-88776367D01*
X167866534Y-88811103D01*
X167841548Y-88841548D01*
X167811103Y-88866534D01*
X167776367Y-88885101D01*
X167738674Y-88896535D01*
X167693339Y-88901000D01*
X166606661Y-88901000D01*
X166561326Y-88896535D01*
X166523633Y-88885101D01*
X166488897Y-88866534D01*
X166458452Y-88841548D01*
X166433466Y-88811103D01*
X166414899Y-88776367D01*
X166403465Y-88738674D01*
X166399000Y-88693339D01*
X166399000Y-87856661D01*
X166403465Y-87811326D01*
X166414899Y-87773633D01*
X166433466Y-87738897D01*
X166458452Y-87708452D01*
X166488897Y-87683466D01*
X166523633Y-87664899D01*
X166561326Y-87653465D01*
X166606661Y-87649000D01*
X167693339Y-87649000D01*
X167738674Y-87653465D01*
X167738674Y-87653465D01*
G37*
G36*
X165138674Y-87653465D02*
G01*
X165176367Y-87664899D01*
X165211103Y-87683466D01*
X165241548Y-87708452D01*
X165266534Y-87738897D01*
X165285101Y-87773633D01*
X165296535Y-87811326D01*
X165301000Y-87856661D01*
X165301000Y-88693339D01*
X165296535Y-88738674D01*
X165285101Y-88776367D01*
X165266534Y-88811103D01*
X165241548Y-88841548D01*
X165211103Y-88866534D01*
X165176367Y-88885101D01*
X165138674Y-88896535D01*
X165093339Y-88901000D01*
X164006661Y-88901000D01*
X163961326Y-88896535D01*
X163923633Y-88885101D01*
X163888897Y-88866534D01*
X163858452Y-88841548D01*
X163833466Y-88811103D01*
X163814899Y-88776367D01*
X163803465Y-88738674D01*
X163799000Y-88693339D01*
X163799000Y-87856661D01*
X163803465Y-87811326D01*
X163814899Y-87773633D01*
X163833466Y-87738897D01*
X163858452Y-87708452D01*
X163888897Y-87683466D01*
X163923633Y-87664899D01*
X163961326Y-87653465D01*
X164006661Y-87649000D01*
X165093339Y-87649000D01*
X165138674Y-87653465D01*
X165138674Y-87653465D01*
G37*
G36*
X176210442Y-86965518D02*
G01*
X176276627Y-86972037D01*
X176446466Y-87023557D01*
X176602991Y-87107222D01*
X176638729Y-87136552D01*
X176740186Y-87219814D01*
X176823448Y-87321271D01*
X176852778Y-87357009D01*
X176936443Y-87513534D01*
X176987963Y-87683373D01*
X177005359Y-87860000D01*
X176987963Y-88036627D01*
X176936443Y-88206466D01*
X176852778Y-88362991D01*
X176823448Y-88398729D01*
X176740186Y-88500186D01*
X176638729Y-88583448D01*
X176602991Y-88612778D01*
X176446466Y-88696443D01*
X176276627Y-88747963D01*
X176210443Y-88754481D01*
X176144260Y-88761000D01*
X176055740Y-88761000D01*
X175989557Y-88754481D01*
X175923373Y-88747963D01*
X175753534Y-88696443D01*
X175597009Y-88612778D01*
X175561271Y-88583448D01*
X175459814Y-88500186D01*
X175376552Y-88398729D01*
X175347222Y-88362991D01*
X175263557Y-88206466D01*
X175212037Y-88036627D01*
X175194641Y-87860000D01*
X175212037Y-87683373D01*
X175263557Y-87513534D01*
X175347222Y-87357009D01*
X175376552Y-87321271D01*
X175459814Y-87219814D01*
X175561271Y-87136552D01*
X175597009Y-87107222D01*
X175753534Y-87023557D01*
X175923373Y-86972037D01*
X175989558Y-86965518D01*
X176055740Y-86959000D01*
X176144260Y-86959000D01*
X176210442Y-86965518D01*
X176210442Y-86965518D01*
G37*
G36*
X178750442Y-86965518D02*
G01*
X178816627Y-86972037D01*
X178986466Y-87023557D01*
X179142991Y-87107222D01*
X179178729Y-87136552D01*
X179280186Y-87219814D01*
X179363448Y-87321271D01*
X179392778Y-87357009D01*
X179476443Y-87513534D01*
X179527963Y-87683373D01*
X179545359Y-87860000D01*
X179527963Y-88036627D01*
X179476443Y-88206466D01*
X179392778Y-88362991D01*
X179363448Y-88398729D01*
X179280186Y-88500186D01*
X179178729Y-88583448D01*
X179142991Y-88612778D01*
X178986466Y-88696443D01*
X178816627Y-88747963D01*
X178750443Y-88754481D01*
X178684260Y-88761000D01*
X178595740Y-88761000D01*
X178529557Y-88754481D01*
X178463373Y-88747963D01*
X178293534Y-88696443D01*
X178137009Y-88612778D01*
X178101271Y-88583448D01*
X177999814Y-88500186D01*
X177916552Y-88398729D01*
X177887222Y-88362991D01*
X177803557Y-88206466D01*
X177752037Y-88036627D01*
X177734641Y-87860000D01*
X177752037Y-87683373D01*
X177803557Y-87513534D01*
X177887222Y-87357009D01*
X177916552Y-87321271D01*
X177999814Y-87219814D01*
X178101271Y-87136552D01*
X178137009Y-87107222D01*
X178293534Y-87023557D01*
X178463373Y-86972037D01*
X178529558Y-86965518D01*
X178595740Y-86959000D01*
X178684260Y-86959000D01*
X178750442Y-86965518D01*
X178750442Y-86965518D01*
G37*
G36*
X153605442Y-85705518D02*
G01*
X153671627Y-85712037D01*
X153841466Y-85763557D01*
X153997991Y-85847222D01*
X154033729Y-85876552D01*
X154135186Y-85959814D01*
X154218448Y-86061271D01*
X154247778Y-86097009D01*
X154331443Y-86253534D01*
X154382963Y-86423373D01*
X154400359Y-86600000D01*
X154382963Y-86776627D01*
X154331443Y-86946466D01*
X154247778Y-87102991D01*
X154218448Y-87138729D01*
X154135186Y-87240186D01*
X154033729Y-87323448D01*
X153997991Y-87352778D01*
X153841466Y-87436443D01*
X153671627Y-87487963D01*
X153605442Y-87494482D01*
X153539260Y-87501000D01*
X153450740Y-87501000D01*
X153384558Y-87494482D01*
X153318373Y-87487963D01*
X153148534Y-87436443D01*
X152992009Y-87352778D01*
X152956271Y-87323448D01*
X152854814Y-87240186D01*
X152771552Y-87138729D01*
X152742222Y-87102991D01*
X152658557Y-86946466D01*
X152607037Y-86776627D01*
X152589641Y-86600000D01*
X152607037Y-86423373D01*
X152658557Y-86253534D01*
X152742222Y-86097009D01*
X152771552Y-86061271D01*
X152854814Y-85959814D01*
X152956271Y-85876552D01*
X152992009Y-85847222D01*
X153148534Y-85763557D01*
X153318373Y-85712037D01*
X153384558Y-85705518D01*
X153450740Y-85699000D01*
X153539260Y-85699000D01*
X153605442Y-85705518D01*
X153605442Y-85705518D01*
G37*
G36*
X151065442Y-85705518D02*
G01*
X151131627Y-85712037D01*
X151301466Y-85763557D01*
X151457991Y-85847222D01*
X151493729Y-85876552D01*
X151595186Y-85959814D01*
X151678448Y-86061271D01*
X151707778Y-86097009D01*
X151791443Y-86253534D01*
X151842963Y-86423373D01*
X151860359Y-86600000D01*
X151842963Y-86776627D01*
X151791443Y-86946466D01*
X151707778Y-87102991D01*
X151678448Y-87138729D01*
X151595186Y-87240186D01*
X151493729Y-87323448D01*
X151457991Y-87352778D01*
X151301466Y-87436443D01*
X151131627Y-87487963D01*
X151065442Y-87494482D01*
X150999260Y-87501000D01*
X150910740Y-87501000D01*
X150844558Y-87494482D01*
X150778373Y-87487963D01*
X150608534Y-87436443D01*
X150452009Y-87352778D01*
X150416271Y-87323448D01*
X150314814Y-87240186D01*
X150231552Y-87138729D01*
X150202222Y-87102991D01*
X150118557Y-86946466D01*
X150067037Y-86776627D01*
X150049641Y-86600000D01*
X150067037Y-86423373D01*
X150118557Y-86253534D01*
X150202222Y-86097009D01*
X150231552Y-86061271D01*
X150314814Y-85959814D01*
X150416271Y-85876552D01*
X150452009Y-85847222D01*
X150608534Y-85763557D01*
X150778373Y-85712037D01*
X150844558Y-85705518D01*
X150910740Y-85699000D01*
X150999260Y-85699000D01*
X151065442Y-85705518D01*
X151065442Y-85705518D01*
G37*
G36*
X148525442Y-85705518D02*
G01*
X148591627Y-85712037D01*
X148761466Y-85763557D01*
X148917991Y-85847222D01*
X148953729Y-85876552D01*
X149055186Y-85959814D01*
X149138448Y-86061271D01*
X149167778Y-86097009D01*
X149251443Y-86253534D01*
X149302963Y-86423373D01*
X149320359Y-86600000D01*
X149302963Y-86776627D01*
X149251443Y-86946466D01*
X149167778Y-87102991D01*
X149138448Y-87138729D01*
X149055186Y-87240186D01*
X148953729Y-87323448D01*
X148917991Y-87352778D01*
X148761466Y-87436443D01*
X148591627Y-87487963D01*
X148525442Y-87494482D01*
X148459260Y-87501000D01*
X148370740Y-87501000D01*
X148304558Y-87494482D01*
X148238373Y-87487963D01*
X148068534Y-87436443D01*
X147912009Y-87352778D01*
X147876271Y-87323448D01*
X147774814Y-87240186D01*
X147691552Y-87138729D01*
X147662222Y-87102991D01*
X147578557Y-86946466D01*
X147527037Y-86776627D01*
X147509641Y-86600000D01*
X147527037Y-86423373D01*
X147578557Y-86253534D01*
X147662222Y-86097009D01*
X147691552Y-86061271D01*
X147774814Y-85959814D01*
X147876271Y-85876552D01*
X147912009Y-85847222D01*
X148068534Y-85763557D01*
X148238373Y-85712037D01*
X148304558Y-85705518D01*
X148370740Y-85699000D01*
X148459260Y-85699000D01*
X148525442Y-85705518D01*
X148525442Y-85705518D01*
G37*
G36*
X146776000Y-87501000D02*
G01*
X144974000Y-87501000D01*
X144974000Y-85699000D01*
X146776000Y-85699000D01*
X146776000Y-87501000D01*
X146776000Y-87501000D01*
G37*
G36*
X176210443Y-84425519D02*
G01*
X176276627Y-84432037D01*
X176446466Y-84483557D01*
X176602991Y-84567222D01*
X176638729Y-84596552D01*
X176740186Y-84679814D01*
X176823448Y-84781271D01*
X176852778Y-84817009D01*
X176936443Y-84973534D01*
X176987963Y-85143373D01*
X177005359Y-85320000D01*
X176987963Y-85496627D01*
X176936443Y-85666466D01*
X176852778Y-85822991D01*
X176832893Y-85847221D01*
X176740186Y-85960186D01*
X176638729Y-86043448D01*
X176602991Y-86072778D01*
X176446466Y-86156443D01*
X176276627Y-86207963D01*
X176210442Y-86214482D01*
X176144260Y-86221000D01*
X176055740Y-86221000D01*
X175989558Y-86214482D01*
X175923373Y-86207963D01*
X175753534Y-86156443D01*
X175597009Y-86072778D01*
X175561271Y-86043448D01*
X175459814Y-85960186D01*
X175367107Y-85847221D01*
X175347222Y-85822991D01*
X175263557Y-85666466D01*
X175212037Y-85496627D01*
X175194641Y-85320000D01*
X175212037Y-85143373D01*
X175263557Y-84973534D01*
X175347222Y-84817009D01*
X175376552Y-84781271D01*
X175459814Y-84679814D01*
X175561271Y-84596552D01*
X175597009Y-84567222D01*
X175753534Y-84483557D01*
X175923373Y-84432037D01*
X175989557Y-84425519D01*
X176055740Y-84419000D01*
X176144260Y-84419000D01*
X176210443Y-84425519D01*
X176210443Y-84425519D01*
G37*
G36*
X164301000Y-86221000D02*
G01*
X162699000Y-86221000D01*
X162699000Y-83919000D01*
X164301000Y-83919000D01*
X164301000Y-86221000D01*
X164301000Y-86221000D01*
G37*
G36*
X166601000Y-86221000D02*
G01*
X164999000Y-86221000D01*
X164999000Y-83919000D01*
X166601000Y-83919000D01*
X166601000Y-86221000D01*
X166601000Y-86221000D01*
G37*
G36*
X168901000Y-86221000D02*
G01*
X167299000Y-86221000D01*
X167299000Y-83919000D01*
X168901000Y-83919000D01*
X168901000Y-86221000D01*
X168901000Y-86221000D01*
G37*
G36*
X178750443Y-84425519D02*
G01*
X178816627Y-84432037D01*
X178986466Y-84483557D01*
X179142991Y-84567222D01*
X179178729Y-84596552D01*
X179280186Y-84679814D01*
X179363448Y-84781271D01*
X179392778Y-84817009D01*
X179476443Y-84973534D01*
X179527963Y-85143373D01*
X179545359Y-85320000D01*
X179527963Y-85496627D01*
X179476443Y-85666466D01*
X179392778Y-85822991D01*
X179372893Y-85847221D01*
X179280186Y-85960186D01*
X179178729Y-86043448D01*
X179142991Y-86072778D01*
X178986466Y-86156443D01*
X178816627Y-86207963D01*
X178750442Y-86214482D01*
X178684260Y-86221000D01*
X178595740Y-86221000D01*
X178529558Y-86214482D01*
X178463373Y-86207963D01*
X178293534Y-86156443D01*
X178137009Y-86072778D01*
X178101271Y-86043448D01*
X177999814Y-85960186D01*
X177907107Y-85847221D01*
X177887222Y-85822991D01*
X177803557Y-85666466D01*
X177752037Y-85496627D01*
X177734641Y-85320000D01*
X177752037Y-85143373D01*
X177803557Y-84973534D01*
X177887222Y-84817009D01*
X177916552Y-84781271D01*
X177999814Y-84679814D01*
X178101271Y-84596552D01*
X178137009Y-84567222D01*
X178293534Y-84483557D01*
X178463373Y-84432037D01*
X178529557Y-84425519D01*
X178595740Y-84419000D01*
X178684260Y-84419000D01*
X178750443Y-84425519D01*
X178750443Y-84425519D01*
G37*
G36*
X176210442Y-81885518D02*
G01*
X176276627Y-81892037D01*
X176446466Y-81943557D01*
X176602991Y-82027222D01*
X176638729Y-82056552D01*
X176740186Y-82139814D01*
X176823448Y-82241271D01*
X176852778Y-82277009D01*
X176936443Y-82433534D01*
X176987963Y-82603373D01*
X177005359Y-82780000D01*
X176987963Y-82956627D01*
X176936443Y-83126466D01*
X176852778Y-83282991D01*
X176823448Y-83318729D01*
X176740186Y-83420186D01*
X176638729Y-83503448D01*
X176602991Y-83532778D01*
X176446466Y-83616443D01*
X176276627Y-83667963D01*
X176210442Y-83674482D01*
X176144260Y-83681000D01*
X176055740Y-83681000D01*
X175989558Y-83674482D01*
X175923373Y-83667963D01*
X175753534Y-83616443D01*
X175597009Y-83532778D01*
X175561271Y-83503448D01*
X175459814Y-83420186D01*
X175376552Y-83318729D01*
X175347222Y-83282991D01*
X175263557Y-83126466D01*
X175212037Y-82956627D01*
X175194641Y-82780000D01*
X175212037Y-82603373D01*
X175263557Y-82433534D01*
X175347222Y-82277009D01*
X175376552Y-82241271D01*
X175459814Y-82139814D01*
X175561271Y-82056552D01*
X175597009Y-82027222D01*
X175753534Y-81943557D01*
X175923373Y-81892037D01*
X175989558Y-81885518D01*
X176055740Y-81879000D01*
X176144260Y-81879000D01*
X176210442Y-81885518D01*
X176210442Y-81885518D01*
G37*
G36*
X178750442Y-81885518D02*
G01*
X178816627Y-81892037D01*
X178986466Y-81943557D01*
X179142991Y-82027222D01*
X179178729Y-82056552D01*
X179280186Y-82139814D01*
X179363448Y-82241271D01*
X179392778Y-82277009D01*
X179476443Y-82433534D01*
X179527963Y-82603373D01*
X179545359Y-82780000D01*
X179527963Y-82956627D01*
X179476443Y-83126466D01*
X179392778Y-83282991D01*
X179363448Y-83318729D01*
X179280186Y-83420186D01*
X179178729Y-83503448D01*
X179142991Y-83532778D01*
X178986466Y-83616443D01*
X178816627Y-83667963D01*
X178750442Y-83674482D01*
X178684260Y-83681000D01*
X178595740Y-83681000D01*
X178529558Y-83674482D01*
X178463373Y-83667963D01*
X178293534Y-83616443D01*
X178137009Y-83532778D01*
X178101271Y-83503448D01*
X177999814Y-83420186D01*
X177916552Y-83318729D01*
X177887222Y-83282991D01*
X177803557Y-83126466D01*
X177752037Y-82956627D01*
X177734641Y-82780000D01*
X177752037Y-82603373D01*
X177803557Y-82433534D01*
X177887222Y-82277009D01*
X177916552Y-82241271D01*
X177999814Y-82139814D01*
X178101271Y-82056552D01*
X178137009Y-82027222D01*
X178293534Y-81943557D01*
X178463373Y-81892037D01*
X178529558Y-81885518D01*
X178595740Y-81879000D01*
X178684260Y-81879000D01*
X178750442Y-81885518D01*
X178750442Y-81885518D01*
G37*
G36*
X149015500Y-81101000D02*
G01*
X147713500Y-81101000D01*
X147713500Y-80399000D01*
X149015500Y-80399000D01*
X149015500Y-81101000D01*
X149015500Y-81101000D01*
G37*
G36*
X152015500Y-81101000D02*
G01*
X150713500Y-81101000D01*
X150713500Y-80399000D01*
X152015500Y-80399000D01*
X152015500Y-81101000D01*
X152015500Y-81101000D01*
G37*
G36*
X152015500Y-80001000D02*
G01*
X150713500Y-80001000D01*
X150713500Y-79299000D01*
X152015500Y-79299000D01*
X152015500Y-80001000D01*
X152015500Y-80001000D01*
G37*
G36*
X149015500Y-80001000D02*
G01*
X147713500Y-80001000D01*
X147713500Y-79299000D01*
X149015500Y-79299000D01*
X149015500Y-80001000D01*
X149015500Y-80001000D01*
G37*
G36*
X167751000Y-79921000D02*
G01*
X163849000Y-79921000D01*
X163849000Y-77619000D01*
X167751000Y-77619000D01*
X167751000Y-79921000D01*
X167751000Y-79921000D01*
G37*
G36*
X114006823Y-78161313D02*
G01*
X114167242Y-78209976D01*
X114299906Y-78280886D01*
X114315078Y-78288996D01*
X114444659Y-78395341D01*
X114551004Y-78524922D01*
X114551005Y-78524924D01*
X114630024Y-78672758D01*
X114678687Y-78833177D01*
X114695117Y-79000000D01*
X114678687Y-79166823D01*
X114630024Y-79327242D01*
X114559114Y-79459906D01*
X114551004Y-79475078D01*
X114444659Y-79604659D01*
X114315078Y-79711004D01*
X114315076Y-79711005D01*
X114167242Y-79790024D01*
X114006823Y-79838687D01*
X113881804Y-79851000D01*
X113798196Y-79851000D01*
X113673177Y-79838687D01*
X113512758Y-79790024D01*
X113364924Y-79711005D01*
X113364922Y-79711004D01*
X113235341Y-79604659D01*
X113128996Y-79475078D01*
X113120886Y-79459906D01*
X113049976Y-79327242D01*
X113001313Y-79166823D01*
X112984883Y-79000000D01*
X113001313Y-78833177D01*
X113049976Y-78672758D01*
X113128995Y-78524924D01*
X113128996Y-78524922D01*
X113235341Y-78395341D01*
X113364922Y-78288996D01*
X113380094Y-78280886D01*
X113512758Y-78209976D01*
X113673177Y-78161313D01*
X113798196Y-78149000D01*
X113881804Y-78149000D01*
X114006823Y-78161313D01*
X114006823Y-78161313D01*
G37*
G36*
X137551000Y-79851000D02*
G01*
X135849000Y-79851000D01*
X135849000Y-78149000D01*
X137551000Y-78149000D01*
X137551000Y-79851000D01*
X137551000Y-79851000D01*
G37*
G36*
X134326823Y-78161313D02*
G01*
X134487242Y-78209976D01*
X134619906Y-78280886D01*
X134635078Y-78288996D01*
X134764659Y-78395341D01*
X134871004Y-78524922D01*
X134871005Y-78524924D01*
X134950024Y-78672758D01*
X134998687Y-78833177D01*
X135015117Y-79000000D01*
X134998687Y-79166823D01*
X134950024Y-79327242D01*
X134879114Y-79459906D01*
X134871004Y-79475078D01*
X134764659Y-79604659D01*
X134635078Y-79711004D01*
X134635076Y-79711005D01*
X134487242Y-79790024D01*
X134326823Y-79838687D01*
X134201804Y-79851000D01*
X134118196Y-79851000D01*
X133993177Y-79838687D01*
X133832758Y-79790024D01*
X133684924Y-79711005D01*
X133684922Y-79711004D01*
X133555341Y-79604659D01*
X133448996Y-79475078D01*
X133440886Y-79459906D01*
X133369976Y-79327242D01*
X133321313Y-79166823D01*
X133304883Y-79000000D01*
X133321313Y-78833177D01*
X133369976Y-78672758D01*
X133448995Y-78524924D01*
X133448996Y-78524922D01*
X133555341Y-78395341D01*
X133684922Y-78288996D01*
X133700094Y-78280886D01*
X133832758Y-78209976D01*
X133993177Y-78161313D01*
X134118196Y-78149000D01*
X134201804Y-78149000D01*
X134326823Y-78161313D01*
X134326823Y-78161313D01*
G37*
G36*
X131786823Y-78161313D02*
G01*
X131947242Y-78209976D01*
X132079906Y-78280886D01*
X132095078Y-78288996D01*
X132224659Y-78395341D01*
X132331004Y-78524922D01*
X132331005Y-78524924D01*
X132410024Y-78672758D01*
X132458687Y-78833177D01*
X132475117Y-79000000D01*
X132458687Y-79166823D01*
X132410024Y-79327242D01*
X132339114Y-79459906D01*
X132331004Y-79475078D01*
X132224659Y-79604659D01*
X132095078Y-79711004D01*
X132095076Y-79711005D01*
X131947242Y-79790024D01*
X131786823Y-79838687D01*
X131661804Y-79851000D01*
X131578196Y-79851000D01*
X131453177Y-79838687D01*
X131292758Y-79790024D01*
X131144924Y-79711005D01*
X131144922Y-79711004D01*
X131015341Y-79604659D01*
X130908996Y-79475078D01*
X130900886Y-79459906D01*
X130829976Y-79327242D01*
X130781313Y-79166823D01*
X130764883Y-79000000D01*
X130781313Y-78833177D01*
X130829976Y-78672758D01*
X130908995Y-78524924D01*
X130908996Y-78524922D01*
X131015341Y-78395341D01*
X131144922Y-78288996D01*
X131160094Y-78280886D01*
X131292758Y-78209976D01*
X131453177Y-78161313D01*
X131578196Y-78149000D01*
X131661804Y-78149000D01*
X131786823Y-78161313D01*
X131786823Y-78161313D01*
G37*
G36*
X129246823Y-78161313D02*
G01*
X129407242Y-78209976D01*
X129539906Y-78280886D01*
X129555078Y-78288996D01*
X129684659Y-78395341D01*
X129791004Y-78524922D01*
X129791005Y-78524924D01*
X129870024Y-78672758D01*
X129918687Y-78833177D01*
X129935117Y-79000000D01*
X129918687Y-79166823D01*
X129870024Y-79327242D01*
X129799114Y-79459906D01*
X129791004Y-79475078D01*
X129684659Y-79604659D01*
X129555078Y-79711004D01*
X129555076Y-79711005D01*
X129407242Y-79790024D01*
X129246823Y-79838687D01*
X129121804Y-79851000D01*
X129038196Y-79851000D01*
X128913177Y-79838687D01*
X128752758Y-79790024D01*
X128604924Y-79711005D01*
X128604922Y-79711004D01*
X128475341Y-79604659D01*
X128368996Y-79475078D01*
X128360886Y-79459906D01*
X128289976Y-79327242D01*
X128241313Y-79166823D01*
X128224883Y-79000000D01*
X128241313Y-78833177D01*
X128289976Y-78672758D01*
X128368995Y-78524924D01*
X128368996Y-78524922D01*
X128475341Y-78395341D01*
X128604922Y-78288996D01*
X128620094Y-78280886D01*
X128752758Y-78209976D01*
X128913177Y-78161313D01*
X129038196Y-78149000D01*
X129121804Y-78149000D01*
X129246823Y-78161313D01*
X129246823Y-78161313D01*
G37*
G36*
X126706823Y-78161313D02*
G01*
X126867242Y-78209976D01*
X126999906Y-78280886D01*
X127015078Y-78288996D01*
X127144659Y-78395341D01*
X127251004Y-78524922D01*
X127251005Y-78524924D01*
X127330024Y-78672758D01*
X127378687Y-78833177D01*
X127395117Y-79000000D01*
X127378687Y-79166823D01*
X127330024Y-79327242D01*
X127259114Y-79459906D01*
X127251004Y-79475078D01*
X127144659Y-79604659D01*
X127015078Y-79711004D01*
X127015076Y-79711005D01*
X126867242Y-79790024D01*
X126706823Y-79838687D01*
X126581804Y-79851000D01*
X126498196Y-79851000D01*
X126373177Y-79838687D01*
X126212758Y-79790024D01*
X126064924Y-79711005D01*
X126064922Y-79711004D01*
X125935341Y-79604659D01*
X125828996Y-79475078D01*
X125820886Y-79459906D01*
X125749976Y-79327242D01*
X125701313Y-79166823D01*
X125684883Y-79000000D01*
X125701313Y-78833177D01*
X125749976Y-78672758D01*
X125828995Y-78524924D01*
X125828996Y-78524922D01*
X125935341Y-78395341D01*
X126064922Y-78288996D01*
X126080094Y-78280886D01*
X126212758Y-78209976D01*
X126373177Y-78161313D01*
X126498196Y-78149000D01*
X126581804Y-78149000D01*
X126706823Y-78161313D01*
X126706823Y-78161313D01*
G37*
G36*
X124166823Y-78161313D02*
G01*
X124327242Y-78209976D01*
X124459906Y-78280886D01*
X124475078Y-78288996D01*
X124604659Y-78395341D01*
X124711004Y-78524922D01*
X124711005Y-78524924D01*
X124790024Y-78672758D01*
X124838687Y-78833177D01*
X124855117Y-79000000D01*
X124838687Y-79166823D01*
X124790024Y-79327242D01*
X124719114Y-79459906D01*
X124711004Y-79475078D01*
X124604659Y-79604659D01*
X124475078Y-79711004D01*
X124475076Y-79711005D01*
X124327242Y-79790024D01*
X124166823Y-79838687D01*
X124041804Y-79851000D01*
X123958196Y-79851000D01*
X123833177Y-79838687D01*
X123672758Y-79790024D01*
X123524924Y-79711005D01*
X123524922Y-79711004D01*
X123395341Y-79604659D01*
X123288996Y-79475078D01*
X123280886Y-79459906D01*
X123209976Y-79327242D01*
X123161313Y-79166823D01*
X123144883Y-79000000D01*
X123161313Y-78833177D01*
X123209976Y-78672758D01*
X123288995Y-78524924D01*
X123288996Y-78524922D01*
X123395341Y-78395341D01*
X123524922Y-78288996D01*
X123540094Y-78280886D01*
X123672758Y-78209976D01*
X123833177Y-78161313D01*
X123958196Y-78149000D01*
X124041804Y-78149000D01*
X124166823Y-78161313D01*
X124166823Y-78161313D01*
G37*
G36*
X121626823Y-78161313D02*
G01*
X121787242Y-78209976D01*
X121919906Y-78280886D01*
X121935078Y-78288996D01*
X122064659Y-78395341D01*
X122171004Y-78524922D01*
X122171005Y-78524924D01*
X122250024Y-78672758D01*
X122298687Y-78833177D01*
X122315117Y-79000000D01*
X122298687Y-79166823D01*
X122250024Y-79327242D01*
X122179114Y-79459906D01*
X122171004Y-79475078D01*
X122064659Y-79604659D01*
X121935078Y-79711004D01*
X121935076Y-79711005D01*
X121787242Y-79790024D01*
X121626823Y-79838687D01*
X121501804Y-79851000D01*
X121418196Y-79851000D01*
X121293177Y-79838687D01*
X121132758Y-79790024D01*
X120984924Y-79711005D01*
X120984922Y-79711004D01*
X120855341Y-79604659D01*
X120748996Y-79475078D01*
X120740886Y-79459906D01*
X120669976Y-79327242D01*
X120621313Y-79166823D01*
X120604883Y-79000000D01*
X120621313Y-78833177D01*
X120669976Y-78672758D01*
X120748995Y-78524924D01*
X120748996Y-78524922D01*
X120855341Y-78395341D01*
X120984922Y-78288996D01*
X121000094Y-78280886D01*
X121132758Y-78209976D01*
X121293177Y-78161313D01*
X121418196Y-78149000D01*
X121501804Y-78149000D01*
X121626823Y-78161313D01*
X121626823Y-78161313D01*
G37*
G36*
X119086823Y-78161313D02*
G01*
X119247242Y-78209976D01*
X119379906Y-78280886D01*
X119395078Y-78288996D01*
X119524659Y-78395341D01*
X119631004Y-78524922D01*
X119631005Y-78524924D01*
X119710024Y-78672758D01*
X119758687Y-78833177D01*
X119775117Y-79000000D01*
X119758687Y-79166823D01*
X119710024Y-79327242D01*
X119639114Y-79459906D01*
X119631004Y-79475078D01*
X119524659Y-79604659D01*
X119395078Y-79711004D01*
X119395076Y-79711005D01*
X119247242Y-79790024D01*
X119086823Y-79838687D01*
X118961804Y-79851000D01*
X118878196Y-79851000D01*
X118753177Y-79838687D01*
X118592758Y-79790024D01*
X118444924Y-79711005D01*
X118444922Y-79711004D01*
X118315341Y-79604659D01*
X118208996Y-79475078D01*
X118200886Y-79459906D01*
X118129976Y-79327242D01*
X118081313Y-79166823D01*
X118064883Y-79000000D01*
X118081313Y-78833177D01*
X118129976Y-78672758D01*
X118208995Y-78524924D01*
X118208996Y-78524922D01*
X118315341Y-78395341D01*
X118444922Y-78288996D01*
X118460094Y-78280886D01*
X118592758Y-78209976D01*
X118753177Y-78161313D01*
X118878196Y-78149000D01*
X118961804Y-78149000D01*
X119086823Y-78161313D01*
X119086823Y-78161313D01*
G37*
G36*
X116546823Y-78161313D02*
G01*
X116707242Y-78209976D01*
X116839906Y-78280886D01*
X116855078Y-78288996D01*
X116984659Y-78395341D01*
X117091004Y-78524922D01*
X117091005Y-78524924D01*
X117170024Y-78672758D01*
X117218687Y-78833177D01*
X117235117Y-79000000D01*
X117218687Y-79166823D01*
X117170024Y-79327242D01*
X117099114Y-79459906D01*
X117091004Y-79475078D01*
X116984659Y-79604659D01*
X116855078Y-79711004D01*
X116855076Y-79711005D01*
X116707242Y-79790024D01*
X116546823Y-79838687D01*
X116421804Y-79851000D01*
X116338196Y-79851000D01*
X116213177Y-79838687D01*
X116052758Y-79790024D01*
X115904924Y-79711005D01*
X115904922Y-79711004D01*
X115775341Y-79604659D01*
X115668996Y-79475078D01*
X115660886Y-79459906D01*
X115589976Y-79327242D01*
X115541313Y-79166823D01*
X115524883Y-79000000D01*
X115541313Y-78833177D01*
X115589976Y-78672758D01*
X115668995Y-78524924D01*
X115668996Y-78524922D01*
X115775341Y-78395341D01*
X115904922Y-78288996D01*
X115920094Y-78280886D01*
X116052758Y-78209976D01*
X116213177Y-78161313D01*
X116338196Y-78149000D01*
X116421804Y-78149000D01*
X116546823Y-78161313D01*
X116546823Y-78161313D01*
G37*
G36*
X111466823Y-78161313D02*
G01*
X111627242Y-78209976D01*
X111759906Y-78280886D01*
X111775078Y-78288996D01*
X111904659Y-78395341D01*
X112011004Y-78524922D01*
X112011005Y-78524924D01*
X112090024Y-78672758D01*
X112138687Y-78833177D01*
X112155117Y-79000000D01*
X112138687Y-79166823D01*
X112090024Y-79327242D01*
X112019114Y-79459906D01*
X112011004Y-79475078D01*
X111904659Y-79604659D01*
X111775078Y-79711004D01*
X111775076Y-79711005D01*
X111627242Y-79790024D01*
X111466823Y-79838687D01*
X111341804Y-79851000D01*
X111258196Y-79851000D01*
X111133177Y-79838687D01*
X110972758Y-79790024D01*
X110824924Y-79711005D01*
X110824922Y-79711004D01*
X110695341Y-79604659D01*
X110588996Y-79475078D01*
X110580886Y-79459906D01*
X110509976Y-79327242D01*
X110461313Y-79166823D01*
X110444883Y-79000000D01*
X110461313Y-78833177D01*
X110509976Y-78672758D01*
X110588995Y-78524924D01*
X110588996Y-78524922D01*
X110695341Y-78395341D01*
X110824922Y-78288996D01*
X110840094Y-78280886D01*
X110972758Y-78209976D01*
X111133177Y-78161313D01*
X111258196Y-78149000D01*
X111341804Y-78149000D01*
X111466823Y-78161313D01*
X111466823Y-78161313D01*
G37*
G36*
X108926823Y-78161313D02*
G01*
X109087242Y-78209976D01*
X109219906Y-78280886D01*
X109235078Y-78288996D01*
X109364659Y-78395341D01*
X109471004Y-78524922D01*
X109471005Y-78524924D01*
X109550024Y-78672758D01*
X109598687Y-78833177D01*
X109615117Y-79000000D01*
X109598687Y-79166823D01*
X109550024Y-79327242D01*
X109479114Y-79459906D01*
X109471004Y-79475078D01*
X109364659Y-79604659D01*
X109235078Y-79711004D01*
X109235076Y-79711005D01*
X109087242Y-79790024D01*
X108926823Y-79838687D01*
X108801804Y-79851000D01*
X108718196Y-79851000D01*
X108593177Y-79838687D01*
X108432758Y-79790024D01*
X108284924Y-79711005D01*
X108284922Y-79711004D01*
X108155341Y-79604659D01*
X108048996Y-79475078D01*
X108040886Y-79459906D01*
X107969976Y-79327242D01*
X107921313Y-79166823D01*
X107904883Y-79000000D01*
X107921313Y-78833177D01*
X107969976Y-78672758D01*
X108048995Y-78524924D01*
X108048996Y-78524922D01*
X108155341Y-78395341D01*
X108284922Y-78288996D01*
X108300094Y-78280886D01*
X108432758Y-78209976D01*
X108593177Y-78161313D01*
X108718196Y-78149000D01*
X108801804Y-78149000D01*
X108926823Y-78161313D01*
X108926823Y-78161313D01*
G37*
G36*
X106386823Y-78161313D02*
G01*
X106547242Y-78209976D01*
X106679906Y-78280886D01*
X106695078Y-78288996D01*
X106824659Y-78395341D01*
X106931004Y-78524922D01*
X106931005Y-78524924D01*
X107010024Y-78672758D01*
X107058687Y-78833177D01*
X107075117Y-79000000D01*
X107058687Y-79166823D01*
X107010024Y-79327242D01*
X106939114Y-79459906D01*
X106931004Y-79475078D01*
X106824659Y-79604659D01*
X106695078Y-79711004D01*
X106695076Y-79711005D01*
X106547242Y-79790024D01*
X106386823Y-79838687D01*
X106261804Y-79851000D01*
X106178196Y-79851000D01*
X106053177Y-79838687D01*
X105892758Y-79790024D01*
X105744924Y-79711005D01*
X105744922Y-79711004D01*
X105615341Y-79604659D01*
X105508996Y-79475078D01*
X105500886Y-79459906D01*
X105429976Y-79327242D01*
X105381313Y-79166823D01*
X105364883Y-79000000D01*
X105381313Y-78833177D01*
X105429976Y-78672758D01*
X105508995Y-78524924D01*
X105508996Y-78524922D01*
X105615341Y-78395341D01*
X105744922Y-78288996D01*
X105760094Y-78280886D01*
X105892758Y-78209976D01*
X106053177Y-78161313D01*
X106178196Y-78149000D01*
X106261804Y-78149000D01*
X106386823Y-78161313D01*
X106386823Y-78161313D01*
G37*
G36*
X103846823Y-78161313D02*
G01*
X104007242Y-78209976D01*
X104139906Y-78280886D01*
X104155078Y-78288996D01*
X104284659Y-78395341D01*
X104391004Y-78524922D01*
X104391005Y-78524924D01*
X104470024Y-78672758D01*
X104518687Y-78833177D01*
X104535117Y-79000000D01*
X104518687Y-79166823D01*
X104470024Y-79327242D01*
X104399114Y-79459906D01*
X104391004Y-79475078D01*
X104284659Y-79604659D01*
X104155078Y-79711004D01*
X104155076Y-79711005D01*
X104007242Y-79790024D01*
X103846823Y-79838687D01*
X103721804Y-79851000D01*
X103638196Y-79851000D01*
X103513177Y-79838687D01*
X103352758Y-79790024D01*
X103204924Y-79711005D01*
X103204922Y-79711004D01*
X103075341Y-79604659D01*
X102968996Y-79475078D01*
X102960886Y-79459906D01*
X102889976Y-79327242D01*
X102841313Y-79166823D01*
X102824883Y-79000000D01*
X102841313Y-78833177D01*
X102889976Y-78672758D01*
X102968995Y-78524924D01*
X102968996Y-78524922D01*
X103075341Y-78395341D01*
X103204922Y-78288996D01*
X103220094Y-78280886D01*
X103352758Y-78209976D01*
X103513177Y-78161313D01*
X103638196Y-78149000D01*
X103721804Y-78149000D01*
X103846823Y-78161313D01*
X103846823Y-78161313D01*
G37*
G36*
X101306823Y-78161313D02*
G01*
X101467242Y-78209976D01*
X101599906Y-78280886D01*
X101615078Y-78288996D01*
X101744659Y-78395341D01*
X101851004Y-78524922D01*
X101851005Y-78524924D01*
X101930024Y-78672758D01*
X101978687Y-78833177D01*
X101995117Y-79000000D01*
X101978687Y-79166823D01*
X101930024Y-79327242D01*
X101859114Y-79459906D01*
X101851004Y-79475078D01*
X101744659Y-79604659D01*
X101615078Y-79711004D01*
X101615076Y-79711005D01*
X101467242Y-79790024D01*
X101306823Y-79838687D01*
X101181804Y-79851000D01*
X101098196Y-79851000D01*
X100973177Y-79838687D01*
X100812758Y-79790024D01*
X100664924Y-79711005D01*
X100664922Y-79711004D01*
X100535341Y-79604659D01*
X100428996Y-79475078D01*
X100420886Y-79459906D01*
X100349976Y-79327242D01*
X100301313Y-79166823D01*
X100284883Y-79000000D01*
X100301313Y-78833177D01*
X100349976Y-78672758D01*
X100428995Y-78524924D01*
X100428996Y-78524922D01*
X100535341Y-78395341D01*
X100664922Y-78288996D01*
X100680094Y-78280886D01*
X100812758Y-78209976D01*
X100973177Y-78161313D01*
X101098196Y-78149000D01*
X101181804Y-78149000D01*
X101306823Y-78161313D01*
X101306823Y-78161313D01*
G37*
G36*
X149015500Y-78901000D02*
G01*
X147713500Y-78901000D01*
X147713500Y-78199000D01*
X149015500Y-78199000D01*
X149015500Y-78901000D01*
X149015500Y-78901000D01*
G37*
G36*
X152015500Y-78901000D02*
G01*
X150713500Y-78901000D01*
X150713500Y-78199000D01*
X152015500Y-78199000D01*
X152015500Y-78901000D01*
X152015500Y-78901000D01*
G37*
M02*
