G04 #@! TF.GenerationSoftware,KiCad,Pcbnew,(5.1.4-0-10_14)*
G04 #@! TF.CreationDate,2020-05-04T21:58:41+12:00*
G04 #@! TF.ProjectId,Robotic hand v2,526f626f-7469-4632-9068-616e64207632,rev?*
G04 #@! TF.SameCoordinates,Original*
G04 #@! TF.FileFunction,Paste,Top*
G04 #@! TF.FilePolarity,Positive*
%FSLAX46Y46*%
G04 Gerber Fmt 4.6, Leading zero omitted, Abs format (unit mm)*
G04 Created by KiCad (PCBNEW (5.1.4-0-10_14)) date 2020-05-04 21:58:41*
%MOMM*%
%LPD*%
G04 APERTURE LIST*
%ADD10R,1.500000X2.200000*%
%ADD11R,3.800000X2.200000*%
%ADD12R,1.200000X0.600000*%
%ADD13C,0.100000*%
%ADD14C,0.950000*%
%ADD15C,1.150000*%
G04 APERTURE END LIST*
D10*
X168100000Y-85070000D03*
X165800000Y-85070000D03*
X163500000Y-85070000D03*
D11*
X165800000Y-78770000D03*
D12*
X151364500Y-80750000D03*
X151364500Y-79650000D03*
X151364500Y-78550000D03*
X148364500Y-80750000D03*
X148364500Y-78550000D03*
X148364500Y-79650000D03*
D13*
G36*
X109010779Y-88951144D02*
G01*
X109033834Y-88954563D01*
X109056443Y-88960227D01*
X109078387Y-88968079D01*
X109099457Y-88978044D01*
X109119448Y-88990026D01*
X109138168Y-89003910D01*
X109155438Y-89019562D01*
X109171090Y-89036832D01*
X109184974Y-89055552D01*
X109196956Y-89075543D01*
X109206921Y-89096613D01*
X109214773Y-89118557D01*
X109220437Y-89141166D01*
X109223856Y-89164221D01*
X109225000Y-89187500D01*
X109225000Y-89762500D01*
X109223856Y-89785779D01*
X109220437Y-89808834D01*
X109214773Y-89831443D01*
X109206921Y-89853387D01*
X109196956Y-89874457D01*
X109184974Y-89894448D01*
X109171090Y-89913168D01*
X109155438Y-89930438D01*
X109138168Y-89946090D01*
X109119448Y-89959974D01*
X109099457Y-89971956D01*
X109078387Y-89981921D01*
X109056443Y-89989773D01*
X109033834Y-89995437D01*
X109010779Y-89998856D01*
X108987500Y-90000000D01*
X108512500Y-90000000D01*
X108489221Y-89998856D01*
X108466166Y-89995437D01*
X108443557Y-89989773D01*
X108421613Y-89981921D01*
X108400543Y-89971956D01*
X108380552Y-89959974D01*
X108361832Y-89946090D01*
X108344562Y-89930438D01*
X108328910Y-89913168D01*
X108315026Y-89894448D01*
X108303044Y-89874457D01*
X108293079Y-89853387D01*
X108285227Y-89831443D01*
X108279563Y-89808834D01*
X108276144Y-89785779D01*
X108275000Y-89762500D01*
X108275000Y-89187500D01*
X108276144Y-89164221D01*
X108279563Y-89141166D01*
X108285227Y-89118557D01*
X108293079Y-89096613D01*
X108303044Y-89075543D01*
X108315026Y-89055552D01*
X108328910Y-89036832D01*
X108344562Y-89019562D01*
X108361832Y-89003910D01*
X108380552Y-88990026D01*
X108400543Y-88978044D01*
X108421613Y-88968079D01*
X108443557Y-88960227D01*
X108466166Y-88954563D01*
X108489221Y-88951144D01*
X108512500Y-88950000D01*
X108987500Y-88950000D01*
X109010779Y-88951144D01*
X109010779Y-88951144D01*
G37*
D14*
X108750000Y-89475000D03*
D13*
G36*
X109010779Y-90701144D02*
G01*
X109033834Y-90704563D01*
X109056443Y-90710227D01*
X109078387Y-90718079D01*
X109099457Y-90728044D01*
X109119448Y-90740026D01*
X109138168Y-90753910D01*
X109155438Y-90769562D01*
X109171090Y-90786832D01*
X109184974Y-90805552D01*
X109196956Y-90825543D01*
X109206921Y-90846613D01*
X109214773Y-90868557D01*
X109220437Y-90891166D01*
X109223856Y-90914221D01*
X109225000Y-90937500D01*
X109225000Y-91512500D01*
X109223856Y-91535779D01*
X109220437Y-91558834D01*
X109214773Y-91581443D01*
X109206921Y-91603387D01*
X109196956Y-91624457D01*
X109184974Y-91644448D01*
X109171090Y-91663168D01*
X109155438Y-91680438D01*
X109138168Y-91696090D01*
X109119448Y-91709974D01*
X109099457Y-91721956D01*
X109078387Y-91731921D01*
X109056443Y-91739773D01*
X109033834Y-91745437D01*
X109010779Y-91748856D01*
X108987500Y-91750000D01*
X108512500Y-91750000D01*
X108489221Y-91748856D01*
X108466166Y-91745437D01*
X108443557Y-91739773D01*
X108421613Y-91731921D01*
X108400543Y-91721956D01*
X108380552Y-91709974D01*
X108361832Y-91696090D01*
X108344562Y-91680438D01*
X108328910Y-91663168D01*
X108315026Y-91644448D01*
X108303044Y-91624457D01*
X108293079Y-91603387D01*
X108285227Y-91581443D01*
X108279563Y-91558834D01*
X108276144Y-91535779D01*
X108275000Y-91512500D01*
X108275000Y-90937500D01*
X108276144Y-90914221D01*
X108279563Y-90891166D01*
X108285227Y-90868557D01*
X108293079Y-90846613D01*
X108303044Y-90825543D01*
X108315026Y-90805552D01*
X108328910Y-90786832D01*
X108344562Y-90769562D01*
X108361832Y-90753910D01*
X108380552Y-90740026D01*
X108400543Y-90728044D01*
X108421613Y-90718079D01*
X108443557Y-90710227D01*
X108466166Y-90704563D01*
X108489221Y-90701144D01*
X108512500Y-90700000D01*
X108987500Y-90700000D01*
X109010779Y-90701144D01*
X109010779Y-90701144D01*
G37*
D14*
X108750000Y-91225000D03*
D13*
G36*
X111560779Y-90701144D02*
G01*
X111583834Y-90704563D01*
X111606443Y-90710227D01*
X111628387Y-90718079D01*
X111649457Y-90728044D01*
X111669448Y-90740026D01*
X111688168Y-90753910D01*
X111705438Y-90769562D01*
X111721090Y-90786832D01*
X111734974Y-90805552D01*
X111746956Y-90825543D01*
X111756921Y-90846613D01*
X111764773Y-90868557D01*
X111770437Y-90891166D01*
X111773856Y-90914221D01*
X111775000Y-90937500D01*
X111775000Y-91512500D01*
X111773856Y-91535779D01*
X111770437Y-91558834D01*
X111764773Y-91581443D01*
X111756921Y-91603387D01*
X111746956Y-91624457D01*
X111734974Y-91644448D01*
X111721090Y-91663168D01*
X111705438Y-91680438D01*
X111688168Y-91696090D01*
X111669448Y-91709974D01*
X111649457Y-91721956D01*
X111628387Y-91731921D01*
X111606443Y-91739773D01*
X111583834Y-91745437D01*
X111560779Y-91748856D01*
X111537500Y-91750000D01*
X111062500Y-91750000D01*
X111039221Y-91748856D01*
X111016166Y-91745437D01*
X110993557Y-91739773D01*
X110971613Y-91731921D01*
X110950543Y-91721956D01*
X110930552Y-91709974D01*
X110911832Y-91696090D01*
X110894562Y-91680438D01*
X110878910Y-91663168D01*
X110865026Y-91644448D01*
X110853044Y-91624457D01*
X110843079Y-91603387D01*
X110835227Y-91581443D01*
X110829563Y-91558834D01*
X110826144Y-91535779D01*
X110825000Y-91512500D01*
X110825000Y-90937500D01*
X110826144Y-90914221D01*
X110829563Y-90891166D01*
X110835227Y-90868557D01*
X110843079Y-90846613D01*
X110853044Y-90825543D01*
X110865026Y-90805552D01*
X110878910Y-90786832D01*
X110894562Y-90769562D01*
X110911832Y-90753910D01*
X110930552Y-90740026D01*
X110950543Y-90728044D01*
X110971613Y-90718079D01*
X110993557Y-90710227D01*
X111016166Y-90704563D01*
X111039221Y-90701144D01*
X111062500Y-90700000D01*
X111537500Y-90700000D01*
X111560779Y-90701144D01*
X111560779Y-90701144D01*
G37*
D14*
X111300000Y-91225000D03*
D13*
G36*
X111560779Y-88951144D02*
G01*
X111583834Y-88954563D01*
X111606443Y-88960227D01*
X111628387Y-88968079D01*
X111649457Y-88978044D01*
X111669448Y-88990026D01*
X111688168Y-89003910D01*
X111705438Y-89019562D01*
X111721090Y-89036832D01*
X111734974Y-89055552D01*
X111746956Y-89075543D01*
X111756921Y-89096613D01*
X111764773Y-89118557D01*
X111770437Y-89141166D01*
X111773856Y-89164221D01*
X111775000Y-89187500D01*
X111775000Y-89762500D01*
X111773856Y-89785779D01*
X111770437Y-89808834D01*
X111764773Y-89831443D01*
X111756921Y-89853387D01*
X111746956Y-89874457D01*
X111734974Y-89894448D01*
X111721090Y-89913168D01*
X111705438Y-89930438D01*
X111688168Y-89946090D01*
X111669448Y-89959974D01*
X111649457Y-89971956D01*
X111628387Y-89981921D01*
X111606443Y-89989773D01*
X111583834Y-89995437D01*
X111560779Y-89998856D01*
X111537500Y-90000000D01*
X111062500Y-90000000D01*
X111039221Y-89998856D01*
X111016166Y-89995437D01*
X110993557Y-89989773D01*
X110971613Y-89981921D01*
X110950543Y-89971956D01*
X110930552Y-89959974D01*
X110911832Y-89946090D01*
X110894562Y-89930438D01*
X110878910Y-89913168D01*
X110865026Y-89894448D01*
X110853044Y-89874457D01*
X110843079Y-89853387D01*
X110835227Y-89831443D01*
X110829563Y-89808834D01*
X110826144Y-89785779D01*
X110825000Y-89762500D01*
X110825000Y-89187500D01*
X110826144Y-89164221D01*
X110829563Y-89141166D01*
X110835227Y-89118557D01*
X110843079Y-89096613D01*
X110853044Y-89075543D01*
X110865026Y-89055552D01*
X110878910Y-89036832D01*
X110894562Y-89019562D01*
X110911832Y-89003910D01*
X110930552Y-88990026D01*
X110950543Y-88978044D01*
X110971613Y-88968079D01*
X110993557Y-88960227D01*
X111016166Y-88954563D01*
X111039221Y-88951144D01*
X111062500Y-88950000D01*
X111537500Y-88950000D01*
X111560779Y-88951144D01*
X111560779Y-88951144D01*
G37*
D14*
X111300000Y-89475000D03*
D13*
G36*
X114110779Y-88951144D02*
G01*
X114133834Y-88954563D01*
X114156443Y-88960227D01*
X114178387Y-88968079D01*
X114199457Y-88978044D01*
X114219448Y-88990026D01*
X114238168Y-89003910D01*
X114255438Y-89019562D01*
X114271090Y-89036832D01*
X114284974Y-89055552D01*
X114296956Y-89075543D01*
X114306921Y-89096613D01*
X114314773Y-89118557D01*
X114320437Y-89141166D01*
X114323856Y-89164221D01*
X114325000Y-89187500D01*
X114325000Y-89762500D01*
X114323856Y-89785779D01*
X114320437Y-89808834D01*
X114314773Y-89831443D01*
X114306921Y-89853387D01*
X114296956Y-89874457D01*
X114284974Y-89894448D01*
X114271090Y-89913168D01*
X114255438Y-89930438D01*
X114238168Y-89946090D01*
X114219448Y-89959974D01*
X114199457Y-89971956D01*
X114178387Y-89981921D01*
X114156443Y-89989773D01*
X114133834Y-89995437D01*
X114110779Y-89998856D01*
X114087500Y-90000000D01*
X113612500Y-90000000D01*
X113589221Y-89998856D01*
X113566166Y-89995437D01*
X113543557Y-89989773D01*
X113521613Y-89981921D01*
X113500543Y-89971956D01*
X113480552Y-89959974D01*
X113461832Y-89946090D01*
X113444562Y-89930438D01*
X113428910Y-89913168D01*
X113415026Y-89894448D01*
X113403044Y-89874457D01*
X113393079Y-89853387D01*
X113385227Y-89831443D01*
X113379563Y-89808834D01*
X113376144Y-89785779D01*
X113375000Y-89762500D01*
X113375000Y-89187500D01*
X113376144Y-89164221D01*
X113379563Y-89141166D01*
X113385227Y-89118557D01*
X113393079Y-89096613D01*
X113403044Y-89075543D01*
X113415026Y-89055552D01*
X113428910Y-89036832D01*
X113444562Y-89019562D01*
X113461832Y-89003910D01*
X113480552Y-88990026D01*
X113500543Y-88978044D01*
X113521613Y-88968079D01*
X113543557Y-88960227D01*
X113566166Y-88954563D01*
X113589221Y-88951144D01*
X113612500Y-88950000D01*
X114087500Y-88950000D01*
X114110779Y-88951144D01*
X114110779Y-88951144D01*
G37*
D14*
X113850000Y-89475000D03*
D13*
G36*
X114110779Y-90701144D02*
G01*
X114133834Y-90704563D01*
X114156443Y-90710227D01*
X114178387Y-90718079D01*
X114199457Y-90728044D01*
X114219448Y-90740026D01*
X114238168Y-90753910D01*
X114255438Y-90769562D01*
X114271090Y-90786832D01*
X114284974Y-90805552D01*
X114296956Y-90825543D01*
X114306921Y-90846613D01*
X114314773Y-90868557D01*
X114320437Y-90891166D01*
X114323856Y-90914221D01*
X114325000Y-90937500D01*
X114325000Y-91512500D01*
X114323856Y-91535779D01*
X114320437Y-91558834D01*
X114314773Y-91581443D01*
X114306921Y-91603387D01*
X114296956Y-91624457D01*
X114284974Y-91644448D01*
X114271090Y-91663168D01*
X114255438Y-91680438D01*
X114238168Y-91696090D01*
X114219448Y-91709974D01*
X114199457Y-91721956D01*
X114178387Y-91731921D01*
X114156443Y-91739773D01*
X114133834Y-91745437D01*
X114110779Y-91748856D01*
X114087500Y-91750000D01*
X113612500Y-91750000D01*
X113589221Y-91748856D01*
X113566166Y-91745437D01*
X113543557Y-91739773D01*
X113521613Y-91731921D01*
X113500543Y-91721956D01*
X113480552Y-91709974D01*
X113461832Y-91696090D01*
X113444562Y-91680438D01*
X113428910Y-91663168D01*
X113415026Y-91644448D01*
X113403044Y-91624457D01*
X113393079Y-91603387D01*
X113385227Y-91581443D01*
X113379563Y-91558834D01*
X113376144Y-91535779D01*
X113375000Y-91512500D01*
X113375000Y-90937500D01*
X113376144Y-90914221D01*
X113379563Y-90891166D01*
X113385227Y-90868557D01*
X113393079Y-90846613D01*
X113403044Y-90825543D01*
X113415026Y-90805552D01*
X113428910Y-90786832D01*
X113444562Y-90769562D01*
X113461832Y-90753910D01*
X113480552Y-90740026D01*
X113500543Y-90728044D01*
X113521613Y-90718079D01*
X113543557Y-90710227D01*
X113566166Y-90704563D01*
X113589221Y-90701144D01*
X113612500Y-90700000D01*
X114087500Y-90700000D01*
X114110779Y-90701144D01*
X114110779Y-90701144D01*
G37*
D14*
X113850000Y-91225000D03*
D13*
G36*
X167624505Y-87701204D02*
G01*
X167648773Y-87704804D01*
X167672572Y-87710765D01*
X167695671Y-87719030D01*
X167717850Y-87729520D01*
X167738893Y-87742132D01*
X167758599Y-87756747D01*
X167776777Y-87773223D01*
X167793253Y-87791401D01*
X167807868Y-87811107D01*
X167820480Y-87832150D01*
X167830970Y-87854329D01*
X167839235Y-87877428D01*
X167845196Y-87901227D01*
X167848796Y-87925495D01*
X167850000Y-87949999D01*
X167850000Y-88600001D01*
X167848796Y-88624505D01*
X167845196Y-88648773D01*
X167839235Y-88672572D01*
X167830970Y-88695671D01*
X167820480Y-88717850D01*
X167807868Y-88738893D01*
X167793253Y-88758599D01*
X167776777Y-88776777D01*
X167758599Y-88793253D01*
X167738893Y-88807868D01*
X167717850Y-88820480D01*
X167695671Y-88830970D01*
X167672572Y-88839235D01*
X167648773Y-88845196D01*
X167624505Y-88848796D01*
X167600001Y-88850000D01*
X166699999Y-88850000D01*
X166675495Y-88848796D01*
X166651227Y-88845196D01*
X166627428Y-88839235D01*
X166604329Y-88830970D01*
X166582150Y-88820480D01*
X166561107Y-88807868D01*
X166541401Y-88793253D01*
X166523223Y-88776777D01*
X166506747Y-88758599D01*
X166492132Y-88738893D01*
X166479520Y-88717850D01*
X166469030Y-88695671D01*
X166460765Y-88672572D01*
X166454804Y-88648773D01*
X166451204Y-88624505D01*
X166450000Y-88600001D01*
X166450000Y-87949999D01*
X166451204Y-87925495D01*
X166454804Y-87901227D01*
X166460765Y-87877428D01*
X166469030Y-87854329D01*
X166479520Y-87832150D01*
X166492132Y-87811107D01*
X166506747Y-87791401D01*
X166523223Y-87773223D01*
X166541401Y-87756747D01*
X166561107Y-87742132D01*
X166582150Y-87729520D01*
X166604329Y-87719030D01*
X166627428Y-87710765D01*
X166651227Y-87704804D01*
X166675495Y-87701204D01*
X166699999Y-87700000D01*
X167600001Y-87700000D01*
X167624505Y-87701204D01*
X167624505Y-87701204D01*
G37*
D15*
X167150000Y-88275000D03*
D13*
G36*
X167624505Y-89751204D02*
G01*
X167648773Y-89754804D01*
X167672572Y-89760765D01*
X167695671Y-89769030D01*
X167717850Y-89779520D01*
X167738893Y-89792132D01*
X167758599Y-89806747D01*
X167776777Y-89823223D01*
X167793253Y-89841401D01*
X167807868Y-89861107D01*
X167820480Y-89882150D01*
X167830970Y-89904329D01*
X167839235Y-89927428D01*
X167845196Y-89951227D01*
X167848796Y-89975495D01*
X167850000Y-89999999D01*
X167850000Y-90650001D01*
X167848796Y-90674505D01*
X167845196Y-90698773D01*
X167839235Y-90722572D01*
X167830970Y-90745671D01*
X167820480Y-90767850D01*
X167807868Y-90788893D01*
X167793253Y-90808599D01*
X167776777Y-90826777D01*
X167758599Y-90843253D01*
X167738893Y-90857868D01*
X167717850Y-90870480D01*
X167695671Y-90880970D01*
X167672572Y-90889235D01*
X167648773Y-90895196D01*
X167624505Y-90898796D01*
X167600001Y-90900000D01*
X166699999Y-90900000D01*
X166675495Y-90898796D01*
X166651227Y-90895196D01*
X166627428Y-90889235D01*
X166604329Y-90880970D01*
X166582150Y-90870480D01*
X166561107Y-90857868D01*
X166541401Y-90843253D01*
X166523223Y-90826777D01*
X166506747Y-90808599D01*
X166492132Y-90788893D01*
X166479520Y-90767850D01*
X166469030Y-90745671D01*
X166460765Y-90722572D01*
X166454804Y-90698773D01*
X166451204Y-90674505D01*
X166450000Y-90650001D01*
X166450000Y-89999999D01*
X166451204Y-89975495D01*
X166454804Y-89951227D01*
X166460765Y-89927428D01*
X166469030Y-89904329D01*
X166479520Y-89882150D01*
X166492132Y-89861107D01*
X166506747Y-89841401D01*
X166523223Y-89823223D01*
X166541401Y-89806747D01*
X166561107Y-89792132D01*
X166582150Y-89779520D01*
X166604329Y-89769030D01*
X166627428Y-89760765D01*
X166651227Y-89754804D01*
X166675495Y-89751204D01*
X166699999Y-89750000D01*
X167600001Y-89750000D01*
X167624505Y-89751204D01*
X167624505Y-89751204D01*
G37*
D15*
X167150000Y-90325000D03*
D13*
G36*
X165024505Y-87701204D02*
G01*
X165048773Y-87704804D01*
X165072572Y-87710765D01*
X165095671Y-87719030D01*
X165117850Y-87729520D01*
X165138893Y-87742132D01*
X165158599Y-87756747D01*
X165176777Y-87773223D01*
X165193253Y-87791401D01*
X165207868Y-87811107D01*
X165220480Y-87832150D01*
X165230970Y-87854329D01*
X165239235Y-87877428D01*
X165245196Y-87901227D01*
X165248796Y-87925495D01*
X165250000Y-87949999D01*
X165250000Y-88600001D01*
X165248796Y-88624505D01*
X165245196Y-88648773D01*
X165239235Y-88672572D01*
X165230970Y-88695671D01*
X165220480Y-88717850D01*
X165207868Y-88738893D01*
X165193253Y-88758599D01*
X165176777Y-88776777D01*
X165158599Y-88793253D01*
X165138893Y-88807868D01*
X165117850Y-88820480D01*
X165095671Y-88830970D01*
X165072572Y-88839235D01*
X165048773Y-88845196D01*
X165024505Y-88848796D01*
X165000001Y-88850000D01*
X164099999Y-88850000D01*
X164075495Y-88848796D01*
X164051227Y-88845196D01*
X164027428Y-88839235D01*
X164004329Y-88830970D01*
X163982150Y-88820480D01*
X163961107Y-88807868D01*
X163941401Y-88793253D01*
X163923223Y-88776777D01*
X163906747Y-88758599D01*
X163892132Y-88738893D01*
X163879520Y-88717850D01*
X163869030Y-88695671D01*
X163860765Y-88672572D01*
X163854804Y-88648773D01*
X163851204Y-88624505D01*
X163850000Y-88600001D01*
X163850000Y-87949999D01*
X163851204Y-87925495D01*
X163854804Y-87901227D01*
X163860765Y-87877428D01*
X163869030Y-87854329D01*
X163879520Y-87832150D01*
X163892132Y-87811107D01*
X163906747Y-87791401D01*
X163923223Y-87773223D01*
X163941401Y-87756747D01*
X163961107Y-87742132D01*
X163982150Y-87729520D01*
X164004329Y-87719030D01*
X164027428Y-87710765D01*
X164051227Y-87704804D01*
X164075495Y-87701204D01*
X164099999Y-87700000D01*
X165000001Y-87700000D01*
X165024505Y-87701204D01*
X165024505Y-87701204D01*
G37*
D15*
X164550000Y-88275000D03*
D13*
G36*
X165024505Y-89751204D02*
G01*
X165048773Y-89754804D01*
X165072572Y-89760765D01*
X165095671Y-89769030D01*
X165117850Y-89779520D01*
X165138893Y-89792132D01*
X165158599Y-89806747D01*
X165176777Y-89823223D01*
X165193253Y-89841401D01*
X165207868Y-89861107D01*
X165220480Y-89882150D01*
X165230970Y-89904329D01*
X165239235Y-89927428D01*
X165245196Y-89951227D01*
X165248796Y-89975495D01*
X165250000Y-89999999D01*
X165250000Y-90650001D01*
X165248796Y-90674505D01*
X165245196Y-90698773D01*
X165239235Y-90722572D01*
X165230970Y-90745671D01*
X165220480Y-90767850D01*
X165207868Y-90788893D01*
X165193253Y-90808599D01*
X165176777Y-90826777D01*
X165158599Y-90843253D01*
X165138893Y-90857868D01*
X165117850Y-90870480D01*
X165095671Y-90880970D01*
X165072572Y-90889235D01*
X165048773Y-90895196D01*
X165024505Y-90898796D01*
X165000001Y-90900000D01*
X164099999Y-90900000D01*
X164075495Y-90898796D01*
X164051227Y-90895196D01*
X164027428Y-90889235D01*
X164004329Y-90880970D01*
X163982150Y-90870480D01*
X163961107Y-90857868D01*
X163941401Y-90843253D01*
X163923223Y-90826777D01*
X163906747Y-90808599D01*
X163892132Y-90788893D01*
X163879520Y-90767850D01*
X163869030Y-90745671D01*
X163860765Y-90722572D01*
X163854804Y-90698773D01*
X163851204Y-90674505D01*
X163850000Y-90650001D01*
X163850000Y-89999999D01*
X163851204Y-89975495D01*
X163854804Y-89951227D01*
X163860765Y-89927428D01*
X163869030Y-89904329D01*
X163879520Y-89882150D01*
X163892132Y-89861107D01*
X163906747Y-89841401D01*
X163923223Y-89823223D01*
X163941401Y-89806747D01*
X163961107Y-89792132D01*
X163982150Y-89779520D01*
X164004329Y-89769030D01*
X164027428Y-89760765D01*
X164051227Y-89754804D01*
X164075495Y-89751204D01*
X164099999Y-89750000D01*
X165000001Y-89750000D01*
X165024505Y-89751204D01*
X165024505Y-89751204D01*
G37*
D15*
X164550000Y-90325000D03*
M02*
