G04 #@! TF.GenerationSoftware,KiCad,Pcbnew,(5.1.4-0-10_14)*
G04 #@! TF.CreationDate,2020-05-04T21:58:41+12:00*
G04 #@! TF.ProjectId,Robotic hand v2,526f626f-7469-4632-9068-616e64207632,rev?*
G04 #@! TF.SameCoordinates,Original*
G04 #@! TF.FileFunction,Legend,Top*
G04 #@! TF.FilePolarity,Positive*
%FSLAX46Y46*%
G04 Gerber Fmt 4.6, Leading zero omitted, Abs format (unit mm)*
G04 Created by KiCad (PCBNEW (5.1.4-0-10_14)) date 2020-05-04 21:58:41*
%MOMM*%
%LPD*%
G04 APERTURE LIST*
%ADD10C,0.150000*%
%ADD11C,0.120000*%
%ADD12C,0.300000*%
%ADD13C,0.100000*%
%ADD14C,0.075000*%
G04 APERTURE END LIST*
D10*
X157715238Y-126672380D02*
X157715238Y-125672380D01*
X157953333Y-125672380D01*
X158096190Y-125720000D01*
X158191428Y-125815238D01*
X158239047Y-125910476D01*
X158286666Y-126100952D01*
X158286666Y-126243809D01*
X158239047Y-126434285D01*
X158191428Y-126529523D01*
X158096190Y-126624761D01*
X157953333Y-126672380D01*
X157715238Y-126672380D01*
X159096190Y-126624761D02*
X159000952Y-126672380D01*
X158810476Y-126672380D01*
X158715238Y-126624761D01*
X158667619Y-126529523D01*
X158667619Y-126148571D01*
X158715238Y-126053333D01*
X158810476Y-126005714D01*
X159000952Y-126005714D01*
X159096190Y-126053333D01*
X159143809Y-126148571D01*
X159143809Y-126243809D01*
X158667619Y-126339047D01*
X159524761Y-126624761D02*
X159620000Y-126672380D01*
X159810476Y-126672380D01*
X159905714Y-126624761D01*
X159953333Y-126529523D01*
X159953333Y-126481904D01*
X159905714Y-126386666D01*
X159810476Y-126339047D01*
X159667619Y-126339047D01*
X159572380Y-126291428D01*
X159524761Y-126196190D01*
X159524761Y-126148571D01*
X159572380Y-126053333D01*
X159667619Y-126005714D01*
X159810476Y-126005714D01*
X159905714Y-126053333D01*
X160381904Y-126672380D02*
X160381904Y-126005714D01*
X160381904Y-125672380D02*
X160334285Y-125720000D01*
X160381904Y-125767619D01*
X160429523Y-125720000D01*
X160381904Y-125672380D01*
X160381904Y-125767619D01*
X161286666Y-126005714D02*
X161286666Y-126815238D01*
X161239047Y-126910476D01*
X161191428Y-126958095D01*
X161096190Y-127005714D01*
X160953333Y-127005714D01*
X160858095Y-126958095D01*
X161286666Y-126624761D02*
X161191428Y-126672380D01*
X161000952Y-126672380D01*
X160905714Y-126624761D01*
X160858095Y-126577142D01*
X160810476Y-126481904D01*
X160810476Y-126196190D01*
X160858095Y-126100952D01*
X160905714Y-126053333D01*
X161000952Y-126005714D01*
X161191428Y-126005714D01*
X161286666Y-126053333D01*
X161762857Y-126005714D02*
X161762857Y-126672380D01*
X161762857Y-126100952D02*
X161810476Y-126053333D01*
X161905714Y-126005714D01*
X162048571Y-126005714D01*
X162143809Y-126053333D01*
X162191428Y-126148571D01*
X162191428Y-126672380D01*
X163048571Y-126624761D02*
X162953333Y-126672380D01*
X162762857Y-126672380D01*
X162667619Y-126624761D01*
X162620000Y-126529523D01*
X162620000Y-126148571D01*
X162667619Y-126053333D01*
X162762857Y-126005714D01*
X162953333Y-126005714D01*
X163048571Y-126053333D01*
X163096190Y-126148571D01*
X163096190Y-126243809D01*
X162620000Y-126339047D01*
X163953333Y-126672380D02*
X163953333Y-125672380D01*
X163953333Y-126624761D02*
X163858095Y-126672380D01*
X163667619Y-126672380D01*
X163572380Y-126624761D01*
X163524761Y-126577142D01*
X163477142Y-126481904D01*
X163477142Y-126196190D01*
X163524761Y-126100952D01*
X163572380Y-126053333D01*
X163667619Y-126005714D01*
X163858095Y-126005714D01*
X163953333Y-126053333D01*
X165524761Y-126148571D02*
X165667619Y-126196190D01*
X165715238Y-126243809D01*
X165762857Y-126339047D01*
X165762857Y-126481904D01*
X165715238Y-126577142D01*
X165667619Y-126624761D01*
X165572380Y-126672380D01*
X165191428Y-126672380D01*
X165191428Y-125672380D01*
X165524761Y-125672380D01*
X165620000Y-125720000D01*
X165667619Y-125767619D01*
X165715238Y-125862857D01*
X165715238Y-125958095D01*
X165667619Y-126053333D01*
X165620000Y-126100952D01*
X165524761Y-126148571D01*
X165191428Y-126148571D01*
X166096190Y-126005714D02*
X166334285Y-126672380D01*
X166572380Y-126005714D02*
X166334285Y-126672380D01*
X166239047Y-126910476D01*
X166191428Y-126958095D01*
X166096190Y-127005714D01*
X168000952Y-125672380D02*
X168000952Y-126386666D01*
X167953333Y-126529523D01*
X167858095Y-126624761D01*
X167715238Y-126672380D01*
X167620000Y-126672380D01*
X168620000Y-126672380D02*
X168524761Y-126624761D01*
X168477142Y-126577142D01*
X168429523Y-126481904D01*
X168429523Y-126196190D01*
X168477142Y-126100952D01*
X168524761Y-126053333D01*
X168620000Y-126005714D01*
X168762857Y-126005714D01*
X168858095Y-126053333D01*
X168905714Y-126100952D01*
X168953333Y-126196190D01*
X168953333Y-126481904D01*
X168905714Y-126577142D01*
X168858095Y-126624761D01*
X168762857Y-126672380D01*
X168620000Y-126672380D01*
X169334285Y-126624761D02*
X169429523Y-126672380D01*
X169620000Y-126672380D01*
X169715238Y-126624761D01*
X169762857Y-126529523D01*
X169762857Y-126481904D01*
X169715238Y-126386666D01*
X169620000Y-126339047D01*
X169477142Y-126339047D01*
X169381904Y-126291428D01*
X169334285Y-126196190D01*
X169334285Y-126148571D01*
X169381904Y-126053333D01*
X169477142Y-126005714D01*
X169620000Y-126005714D01*
X169715238Y-126053333D01*
X170191428Y-126672380D02*
X170191428Y-125672380D01*
X170620000Y-126672380D02*
X170620000Y-126148571D01*
X170572380Y-126053333D01*
X170477142Y-126005714D01*
X170334285Y-126005714D01*
X170239047Y-126053333D01*
X170191428Y-126100952D01*
X171524761Y-126005714D02*
X171524761Y-126672380D01*
X171096190Y-126005714D02*
X171096190Y-126529523D01*
X171143809Y-126624761D01*
X171239047Y-126672380D01*
X171381904Y-126672380D01*
X171477142Y-126624761D01*
X171524761Y-126577142D01*
X172429523Y-126672380D02*
X172429523Y-126148571D01*
X172381904Y-126053333D01*
X172286666Y-126005714D01*
X172096190Y-126005714D01*
X172000952Y-126053333D01*
X172429523Y-126624761D02*
X172334285Y-126672380D01*
X172096190Y-126672380D01*
X172000952Y-126624761D01*
X171953333Y-126529523D01*
X171953333Y-126434285D01*
X172000952Y-126339047D01*
X172096190Y-126291428D01*
X172334285Y-126291428D01*
X172429523Y-126243809D01*
X174000952Y-126148571D02*
X174143809Y-126196190D01*
X174191428Y-126243809D01*
X174239047Y-126339047D01*
X174239047Y-126481904D01*
X174191428Y-126577142D01*
X174143809Y-126624761D01*
X174048571Y-126672380D01*
X173667619Y-126672380D01*
X173667619Y-125672380D01*
X174000952Y-125672380D01*
X174096190Y-125720000D01*
X174143809Y-125767619D01*
X174191428Y-125862857D01*
X174191428Y-125958095D01*
X174143809Y-126053333D01*
X174096190Y-126100952D01*
X174000952Y-126148571D01*
X173667619Y-126148571D01*
X174667619Y-126672380D02*
X174667619Y-126005714D01*
X174667619Y-126196190D02*
X174715238Y-126100952D01*
X174762857Y-126053333D01*
X174858095Y-126005714D01*
X174953333Y-126005714D01*
X175429523Y-126672380D02*
X175334285Y-126624761D01*
X175286666Y-126577142D01*
X175239047Y-126481904D01*
X175239047Y-126196190D01*
X175286666Y-126100952D01*
X175334285Y-126053333D01*
X175429523Y-126005714D01*
X175572380Y-126005714D01*
X175667619Y-126053333D01*
X175715238Y-126100952D01*
X175762857Y-126196190D01*
X175762857Y-126481904D01*
X175715238Y-126577142D01*
X175667619Y-126624761D01*
X175572380Y-126672380D01*
X175429523Y-126672380D01*
X176096190Y-126005714D02*
X176286666Y-126672380D01*
X176477142Y-126196190D01*
X176667619Y-126672380D01*
X176858095Y-126005714D01*
X177239047Y-126005714D02*
X177239047Y-126672380D01*
X177239047Y-126100952D02*
X177286666Y-126053333D01*
X177381904Y-126005714D01*
X177524761Y-126005714D01*
X177620000Y-126053333D01*
X177667619Y-126148571D01*
X177667619Y-126672380D01*
X178524761Y-126624761D02*
X178429523Y-126672380D01*
X178239047Y-126672380D01*
X178143809Y-126624761D01*
X178096190Y-126529523D01*
X178096190Y-126148571D01*
X178143809Y-126053333D01*
X178239047Y-126005714D01*
X178429523Y-126005714D01*
X178524761Y-126053333D01*
X178572380Y-126148571D01*
X178572380Y-126243809D01*
X178096190Y-126339047D01*
D11*
X163250000Y-92050000D02*
X163250000Y-90600000D01*
X164025000Y-92050000D02*
X163250000Y-92050000D01*
X168475000Y-92050000D02*
X168475000Y-90625000D01*
X167800000Y-92050000D02*
X168475000Y-92050000D01*
D10*
X149207142Y-77252380D02*
X148730952Y-77252380D01*
X148730952Y-76252380D01*
X149540476Y-76728571D02*
X149873809Y-76728571D01*
X150016666Y-77252380D02*
X149540476Y-77252380D01*
X149540476Y-76252380D01*
X150016666Y-76252380D01*
X150445238Y-77252380D02*
X150445238Y-76252380D01*
X150683333Y-76252380D01*
X150826190Y-76300000D01*
X150921428Y-76395238D01*
X150969047Y-76490476D01*
X151016666Y-76680952D01*
X151016666Y-76823809D01*
X150969047Y-77014285D01*
X150921428Y-77109523D01*
X150826190Y-77204761D01*
X150683333Y-77252380D01*
X150445238Y-77252380D01*
D11*
X107750000Y-88700000D02*
X107750000Y-89100000D01*
X106150000Y-88700000D02*
X107750000Y-88700000D01*
X106150000Y-88050000D02*
X106150000Y-88700000D01*
X114850000Y-87950000D02*
X114850000Y-89150000D01*
X110550000Y-88000000D02*
X110550000Y-89200000D01*
D10*
X152752380Y-93764404D02*
X151752380Y-93764404D01*
X151752380Y-93526309D01*
X151800000Y-93383452D01*
X151895238Y-93288214D01*
X151990476Y-93240595D01*
X152180952Y-93192976D01*
X152323809Y-93192976D01*
X152514285Y-93240595D01*
X152609523Y-93288214D01*
X152704761Y-93383452D01*
X152752380Y-93526309D01*
X152752380Y-93764404D01*
X151752380Y-92907261D02*
X151752380Y-92335833D01*
X152752380Y-92621547D02*
X151752380Y-92621547D01*
X114176190Y-116102380D02*
X114509523Y-117102380D01*
X114842857Y-116102380D01*
X115176190Y-117102380D02*
X115176190Y-116435714D01*
X115176190Y-116102380D02*
X115128571Y-116150000D01*
X115176190Y-116197619D01*
X115223809Y-116150000D01*
X115176190Y-116102380D01*
X115176190Y-116197619D01*
X115652380Y-116435714D02*
X115652380Y-117102380D01*
X115652380Y-116530952D02*
X115700000Y-116483333D01*
X115795238Y-116435714D01*
X115938095Y-116435714D01*
X116033333Y-116483333D01*
X116080952Y-116578571D01*
X116080952Y-117102380D01*
X115257142Y-113552380D02*
X114780952Y-113552380D01*
X114733333Y-114028571D01*
X114780952Y-113980952D01*
X114876190Y-113933333D01*
X115114285Y-113933333D01*
X115209523Y-113980952D01*
X115257142Y-114028571D01*
X115304761Y-114123809D01*
X115304761Y-114361904D01*
X115257142Y-114457142D01*
X115209523Y-114504761D01*
X115114285Y-114552380D01*
X114876190Y-114552380D01*
X114780952Y-114504761D01*
X114733333Y-114457142D01*
X115638095Y-113885714D02*
X115876190Y-114552380D01*
X116114285Y-113885714D01*
X113685714Y-111954761D02*
X113828571Y-112002380D01*
X114066666Y-112002380D01*
X114161904Y-111954761D01*
X114209523Y-111907142D01*
X114257142Y-111811904D01*
X114257142Y-111716666D01*
X114209523Y-111621428D01*
X114161904Y-111573809D01*
X114066666Y-111526190D01*
X113876190Y-111478571D01*
X113780952Y-111430952D01*
X113733333Y-111383333D01*
X113685714Y-111288095D01*
X113685714Y-111192857D01*
X113733333Y-111097619D01*
X113780952Y-111050000D01*
X113876190Y-111002380D01*
X114114285Y-111002380D01*
X114257142Y-111050000D01*
X114685714Y-112002380D02*
X114685714Y-111002380D01*
X114923809Y-111002380D01*
X115066666Y-111050000D01*
X115161904Y-111145238D01*
X115209523Y-111240476D01*
X115257142Y-111430952D01*
X115257142Y-111573809D01*
X115209523Y-111764285D01*
X115161904Y-111859523D01*
X115066666Y-111954761D01*
X114923809Y-112002380D01*
X114685714Y-112002380D01*
X115638095Y-111716666D02*
X116114285Y-111716666D01*
X115542857Y-112002380D02*
X115876190Y-111002380D01*
X116209523Y-112002380D01*
X113809523Y-109454761D02*
X113952380Y-109502380D01*
X114190476Y-109502380D01*
X114285714Y-109454761D01*
X114333333Y-109407142D01*
X114380952Y-109311904D01*
X114380952Y-109216666D01*
X114333333Y-109121428D01*
X114285714Y-109073809D01*
X114190476Y-109026190D01*
X114000000Y-108978571D01*
X113904761Y-108930952D01*
X113857142Y-108883333D01*
X113809523Y-108788095D01*
X113809523Y-108692857D01*
X113857142Y-108597619D01*
X113904761Y-108550000D01*
X114000000Y-108502380D01*
X114238095Y-108502380D01*
X114380952Y-108550000D01*
X115380952Y-109407142D02*
X115333333Y-109454761D01*
X115190476Y-109502380D01*
X115095238Y-109502380D01*
X114952380Y-109454761D01*
X114857142Y-109359523D01*
X114809523Y-109264285D01*
X114761904Y-109073809D01*
X114761904Y-108930952D01*
X114809523Y-108740476D01*
X114857142Y-108645238D01*
X114952380Y-108550000D01*
X115095238Y-108502380D01*
X115190476Y-108502380D01*
X115333333Y-108550000D01*
X115380952Y-108597619D01*
X116285714Y-109502380D02*
X115809523Y-109502380D01*
X115809523Y-108502380D01*
X114702380Y-105852380D02*
X114892857Y-105852380D01*
X114988095Y-105900000D01*
X115083333Y-105995238D01*
X115130952Y-106185714D01*
X115130952Y-106519047D01*
X115083333Y-106709523D01*
X114988095Y-106804761D01*
X114892857Y-106852380D01*
X114702380Y-106852380D01*
X114607142Y-106804761D01*
X114511904Y-106709523D01*
X114464285Y-106519047D01*
X114464285Y-106185714D01*
X114511904Y-105995238D01*
X114607142Y-105900000D01*
X114702380Y-105852380D01*
X115559523Y-106328571D02*
X115892857Y-106328571D01*
X116035714Y-106852380D02*
X115559523Y-106852380D01*
X115559523Y-105852380D01*
X116035714Y-105852380D01*
X114088095Y-103450000D02*
X113992857Y-103402380D01*
X113850000Y-103402380D01*
X113707142Y-103450000D01*
X113611904Y-103545238D01*
X113564285Y-103640476D01*
X113516666Y-103830952D01*
X113516666Y-103973809D01*
X113564285Y-104164285D01*
X113611904Y-104259523D01*
X113707142Y-104354761D01*
X113850000Y-104402380D01*
X113945238Y-104402380D01*
X114088095Y-104354761D01*
X114135714Y-104307142D01*
X114135714Y-103973809D01*
X113945238Y-103973809D01*
X114564285Y-104402380D02*
X114564285Y-103402380D01*
X115135714Y-104402380D01*
X115135714Y-103402380D01*
X115611904Y-104402380D02*
X115611904Y-103402380D01*
X115850000Y-103402380D01*
X115992857Y-103450000D01*
X116088095Y-103545238D01*
X116135714Y-103640476D01*
X116183333Y-103830952D01*
X116183333Y-103973809D01*
X116135714Y-104164285D01*
X116088095Y-104259523D01*
X115992857Y-104354761D01*
X115850000Y-104402380D01*
X115611904Y-104402380D01*
X153904761Y-84514285D02*
X153952380Y-84371428D01*
X153952380Y-84133333D01*
X153904761Y-84038095D01*
X153857142Y-83990476D01*
X153761904Y-83942857D01*
X153666666Y-83942857D01*
X153571428Y-83990476D01*
X153523809Y-84038095D01*
X153476190Y-84133333D01*
X153428571Y-84323809D01*
X153380952Y-84419047D01*
X153333333Y-84466666D01*
X153238095Y-84514285D01*
X153142857Y-84514285D01*
X153047619Y-84466666D01*
X153000000Y-84419047D01*
X152952380Y-84323809D01*
X152952380Y-84085714D01*
X153000000Y-83942857D01*
X153952380Y-83514285D02*
X152952380Y-83514285D01*
X152952380Y-83276190D01*
X153000000Y-83133333D01*
X153095238Y-83038095D01*
X153190476Y-82990476D01*
X153380952Y-82942857D01*
X153523809Y-82942857D01*
X153714285Y-82990476D01*
X153809523Y-83038095D01*
X153904761Y-83133333D01*
X153952380Y-83276190D01*
X153952380Y-83514285D01*
X153666666Y-82561904D02*
X153666666Y-82085714D01*
X153952380Y-82657142D02*
X152952380Y-82323809D01*
X153952380Y-81990476D01*
X151404761Y-84490476D02*
X151452380Y-84347619D01*
X151452380Y-84109523D01*
X151404761Y-84014285D01*
X151357142Y-83966666D01*
X151261904Y-83919047D01*
X151166666Y-83919047D01*
X151071428Y-83966666D01*
X151023809Y-84014285D01*
X150976190Y-84109523D01*
X150928571Y-84300000D01*
X150880952Y-84395238D01*
X150833333Y-84442857D01*
X150738095Y-84490476D01*
X150642857Y-84490476D01*
X150547619Y-84442857D01*
X150500000Y-84395238D01*
X150452380Y-84300000D01*
X150452380Y-84061904D01*
X150500000Y-83919047D01*
X151357142Y-82919047D02*
X151404761Y-82966666D01*
X151452380Y-83109523D01*
X151452380Y-83204761D01*
X151404761Y-83347619D01*
X151309523Y-83442857D01*
X151214285Y-83490476D01*
X151023809Y-83538095D01*
X150880952Y-83538095D01*
X150690476Y-83490476D01*
X150595238Y-83442857D01*
X150500000Y-83347619D01*
X150452380Y-83204761D01*
X150452380Y-83109523D01*
X150500000Y-82966666D01*
X150547619Y-82919047D01*
X151452380Y-82014285D02*
X151452380Y-82490476D01*
X150452380Y-82490476D01*
X147900000Y-83961904D02*
X147852380Y-84057142D01*
X147852380Y-84200000D01*
X147900000Y-84342857D01*
X147995238Y-84438095D01*
X148090476Y-84485714D01*
X148280952Y-84533333D01*
X148423809Y-84533333D01*
X148614285Y-84485714D01*
X148709523Y-84438095D01*
X148804761Y-84342857D01*
X148852380Y-84200000D01*
X148852380Y-84104761D01*
X148804761Y-83961904D01*
X148757142Y-83914285D01*
X148423809Y-83914285D01*
X148423809Y-84104761D01*
X148852380Y-83485714D02*
X147852380Y-83485714D01*
X148852380Y-82914285D01*
X147852380Y-82914285D01*
X148852380Y-82438095D02*
X147852380Y-82438095D01*
X147852380Y-82200000D01*
X147900000Y-82057142D01*
X147995238Y-81961904D01*
X148090476Y-81914285D01*
X148280952Y-81866666D01*
X148423809Y-81866666D01*
X148614285Y-81914285D01*
X148709523Y-81961904D01*
X148804761Y-82057142D01*
X148852380Y-82200000D01*
X148852380Y-82438095D01*
X145352380Y-83942857D02*
X145352380Y-84419047D01*
X145828571Y-84466666D01*
X145780952Y-84419047D01*
X145733333Y-84323809D01*
X145733333Y-84085714D01*
X145780952Y-83990476D01*
X145828571Y-83942857D01*
X145923809Y-83895238D01*
X146161904Y-83895238D01*
X146257142Y-83942857D01*
X146304761Y-83990476D01*
X146352380Y-84085714D01*
X146352380Y-84323809D01*
X146304761Y-84419047D01*
X146257142Y-84466666D01*
X145685714Y-83561904D02*
X146352380Y-83323809D01*
X145685714Y-83085714D01*
X156109523Y-85852380D02*
X155633333Y-85852380D01*
X155633333Y-84852380D01*
X157014285Y-85757142D02*
X156966666Y-85804761D01*
X156823809Y-85852380D01*
X156728571Y-85852380D01*
X156585714Y-85804761D01*
X156490476Y-85709523D01*
X156442857Y-85614285D01*
X156395238Y-85423809D01*
X156395238Y-85280952D01*
X156442857Y-85090476D01*
X156490476Y-84995238D01*
X156585714Y-84900000D01*
X156728571Y-84852380D01*
X156823809Y-84852380D01*
X156966666Y-84900000D01*
X157014285Y-84947619D01*
X157442857Y-85852380D02*
X157442857Y-84852380D01*
X157680952Y-84852380D01*
X157823809Y-84900000D01*
X157919047Y-84995238D01*
X157966666Y-85090476D01*
X158014285Y-85280952D01*
X158014285Y-85423809D01*
X157966666Y-85614285D01*
X157919047Y-85709523D01*
X157823809Y-85804761D01*
X157680952Y-85852380D01*
X157442857Y-85852380D01*
X156861904Y-89128571D02*
X157195238Y-89128571D01*
X157338095Y-89652380D02*
X156861904Y-89652380D01*
X156861904Y-88652380D01*
X157338095Y-88652380D01*
X157766666Y-88985714D02*
X157766666Y-89652380D01*
X157766666Y-89080952D02*
X157814285Y-89033333D01*
X157909523Y-88985714D01*
X158052380Y-88985714D01*
X158147619Y-89033333D01*
X158195238Y-89128571D01*
X158195238Y-89652380D01*
X159100000Y-89604761D02*
X159004761Y-89652380D01*
X158814285Y-89652380D01*
X158719047Y-89604761D01*
X158671428Y-89557142D01*
X158623809Y-89461904D01*
X158623809Y-89176190D01*
X158671428Y-89080952D01*
X158719047Y-89033333D01*
X158814285Y-88985714D01*
X159004761Y-88985714D01*
X159100000Y-89033333D01*
X159671428Y-89652380D02*
X159576190Y-89604761D01*
X159528571Y-89557142D01*
X159480952Y-89461904D01*
X159480952Y-89176190D01*
X159528571Y-89080952D01*
X159576190Y-89033333D01*
X159671428Y-88985714D01*
X159814285Y-88985714D01*
X159909523Y-89033333D01*
X159957142Y-89080952D01*
X160004761Y-89176190D01*
X160004761Y-89461904D01*
X159957142Y-89557142D01*
X159909523Y-89604761D01*
X159814285Y-89652380D01*
X159671428Y-89652380D01*
X160861904Y-89652380D02*
X160861904Y-88652380D01*
X160861904Y-89604761D02*
X160766666Y-89652380D01*
X160576190Y-89652380D01*
X160480952Y-89604761D01*
X160433333Y-89557142D01*
X160385714Y-89461904D01*
X160385714Y-89176190D01*
X160433333Y-89080952D01*
X160480952Y-89033333D01*
X160576190Y-88985714D01*
X160766666Y-88985714D01*
X160861904Y-89033333D01*
X161719047Y-89604761D02*
X161623809Y-89652380D01*
X161433333Y-89652380D01*
X161338095Y-89604761D01*
X161290476Y-89509523D01*
X161290476Y-89128571D01*
X161338095Y-89033333D01*
X161433333Y-88985714D01*
X161623809Y-88985714D01*
X161719047Y-89033333D01*
X161766666Y-89128571D01*
X161766666Y-89223809D01*
X161290476Y-89319047D01*
X162195238Y-89652380D02*
X162195238Y-88985714D01*
X162195238Y-89176190D02*
X162242857Y-89080952D01*
X162290476Y-89033333D01*
X162385714Y-88985714D01*
X162480952Y-88985714D01*
X155157142Y-94192976D02*
X155204761Y-94240595D01*
X155252380Y-94383452D01*
X155252380Y-94478690D01*
X155204761Y-94621547D01*
X155109523Y-94716785D01*
X155014285Y-94764404D01*
X154823809Y-94812023D01*
X154680952Y-94812023D01*
X154490476Y-94764404D01*
X154395238Y-94716785D01*
X154300000Y-94621547D01*
X154252380Y-94478690D01*
X154252380Y-94383452D01*
X154300000Y-94240595D01*
X154347619Y-94192976D01*
X155252380Y-93288214D02*
X155252380Y-93764404D01*
X154252380Y-93764404D01*
X155252380Y-92954880D02*
X154252380Y-92954880D01*
X155252380Y-92383452D02*
X154680952Y-92812023D01*
X154252380Y-92383452D02*
X154823809Y-92954880D01*
X150104761Y-94012023D02*
X150152380Y-93869166D01*
X150152380Y-93631071D01*
X150104761Y-93535833D01*
X150057142Y-93488214D01*
X149961904Y-93440595D01*
X149866666Y-93440595D01*
X149771428Y-93488214D01*
X149723809Y-93535833D01*
X149676190Y-93631071D01*
X149628571Y-93821547D01*
X149580952Y-93916785D01*
X149533333Y-93964404D01*
X149438095Y-94012023D01*
X149342857Y-94012023D01*
X149247619Y-93964404D01*
X149200000Y-93916785D01*
X149152380Y-93821547D01*
X149152380Y-93583452D01*
X149200000Y-93440595D01*
X149485714Y-93107261D02*
X150152380Y-92916785D01*
X149676190Y-92726309D01*
X150152380Y-92535833D01*
X149485714Y-92345357D01*
X146652380Y-93188214D02*
X146652380Y-93664404D01*
X147128571Y-93712023D01*
X147080952Y-93664404D01*
X147033333Y-93569166D01*
X147033333Y-93331071D01*
X147080952Y-93235833D01*
X147128571Y-93188214D01*
X147223809Y-93140595D01*
X147461904Y-93140595D01*
X147557142Y-93188214D01*
X147604761Y-93235833D01*
X147652380Y-93331071D01*
X147652380Y-93569166D01*
X147604761Y-93664404D01*
X147557142Y-93712023D01*
X146985714Y-92807261D02*
X147652380Y-92569166D01*
X146985714Y-92331071D01*
X144000000Y-94440595D02*
X143952380Y-94535833D01*
X143952380Y-94678690D01*
X144000000Y-94821547D01*
X144095238Y-94916785D01*
X144190476Y-94964404D01*
X144380952Y-95012023D01*
X144523809Y-95012023D01*
X144714285Y-94964404D01*
X144809523Y-94916785D01*
X144904761Y-94821547D01*
X144952380Y-94678690D01*
X144952380Y-94583452D01*
X144904761Y-94440595D01*
X144857142Y-94392976D01*
X144523809Y-94392976D01*
X144523809Y-94583452D01*
X144952380Y-93964404D02*
X143952380Y-93964404D01*
X144952380Y-93392976D01*
X143952380Y-93392976D01*
X144952380Y-92916785D02*
X143952380Y-92916785D01*
X143952380Y-92678690D01*
X144000000Y-92535833D01*
X144095238Y-92440595D01*
X144190476Y-92392976D01*
X144380952Y-92345357D01*
X144523809Y-92345357D01*
X144714285Y-92392976D01*
X144809523Y-92440595D01*
X144904761Y-92535833D01*
X144952380Y-92678690D01*
X144952380Y-92916785D01*
X107919047Y-110771428D02*
X108680952Y-110771428D01*
X108300000Y-111152380D02*
X108300000Y-110390476D01*
D12*
X108042857Y-84933333D02*
X108995238Y-84933333D01*
X107852380Y-85504761D02*
X108519047Y-83504761D01*
X109185714Y-85504761D01*
X110995238Y-85504761D02*
X110328571Y-84552380D01*
X109852380Y-85504761D02*
X109852380Y-83504761D01*
X110614285Y-83504761D01*
X110804761Y-83600000D01*
X110900000Y-83695238D01*
X110995238Y-83885714D01*
X110995238Y-84171428D01*
X110900000Y-84361904D01*
X110804761Y-84457142D01*
X110614285Y-84552380D01*
X109852380Y-84552380D01*
X111852380Y-85504761D02*
X111852380Y-83504761D01*
X112328571Y-83504761D01*
X112614285Y-83600000D01*
X112804761Y-83790476D01*
X112900000Y-83980952D01*
X112995238Y-84361904D01*
X112995238Y-84647619D01*
X112900000Y-85028571D01*
X112804761Y-85219047D01*
X112614285Y-85409523D01*
X112328571Y-85504761D01*
X111852380Y-85504761D01*
X113852380Y-83504761D02*
X113852380Y-85123809D01*
X113947619Y-85314285D01*
X114042857Y-85409523D01*
X114233333Y-85504761D01*
X114614285Y-85504761D01*
X114804761Y-85409523D01*
X114900000Y-85314285D01*
X114995238Y-85123809D01*
X114995238Y-83504761D01*
X115947619Y-85504761D02*
X115947619Y-83504761D01*
X116900000Y-85504761D02*
X116900000Y-83504761D01*
X118042857Y-85504761D01*
X118042857Y-83504761D01*
X119376190Y-83504761D02*
X119757142Y-83504761D01*
X119947619Y-83600000D01*
X120138095Y-83790476D01*
X120233333Y-84171428D01*
X120233333Y-84838095D01*
X120138095Y-85219047D01*
X119947619Y-85409523D01*
X119757142Y-85504761D01*
X119376190Y-85504761D01*
X119185714Y-85409523D01*
X118995238Y-85219047D01*
X118900000Y-84838095D01*
X118900000Y-84171428D01*
X118995238Y-83790476D01*
X119185714Y-83600000D01*
X119376190Y-83504761D01*
X122614285Y-85504761D02*
X122614285Y-83504761D01*
X123757142Y-85504761D01*
X123757142Y-83504761D01*
X124614285Y-84933333D02*
X125566666Y-84933333D01*
X124423809Y-85504761D02*
X125090476Y-83504761D01*
X125757142Y-85504761D01*
X126423809Y-85504761D02*
X126423809Y-83504761D01*
X127566666Y-85504761D01*
X127566666Y-83504761D01*
X128900000Y-83504761D02*
X129280952Y-83504761D01*
X129471428Y-83600000D01*
X129661904Y-83790476D01*
X129757142Y-84171428D01*
X129757142Y-84838095D01*
X129661904Y-85219047D01*
X129471428Y-85409523D01*
X129280952Y-85504761D01*
X128900000Y-85504761D01*
X128709523Y-85409523D01*
X128519047Y-85219047D01*
X128423809Y-84838095D01*
X128423809Y-84171428D01*
X128519047Y-83790476D01*
X128709523Y-83600000D01*
X128900000Y-83504761D01*
D11*
X135430000Y-80270000D02*
X137970000Y-80270000D01*
X137970000Y-80270000D02*
X137970000Y-77600000D01*
X135430000Y-77600000D02*
X97200000Y-77600000D01*
X140640000Y-77600000D02*
X137970000Y-77600000D01*
X137970000Y-92970000D02*
X137970000Y-95640000D01*
X137970000Y-92970000D02*
X99870000Y-92970000D01*
X99870000Y-92970000D02*
X99870000Y-95640000D01*
X135430000Y-80270000D02*
X135430000Y-77600000D01*
X135430000Y-80270000D02*
X99870000Y-80270000D01*
X99870000Y-80270000D02*
X99870000Y-77600000D01*
X97200000Y-77600000D02*
X97200000Y-95640000D01*
X97200000Y-95640000D02*
X140640000Y-95640000D01*
X140640000Y-95640000D02*
X140640000Y-77600000D01*
X117487000Y-117943500D02*
X120147000Y-117943500D01*
X117487000Y-105183500D02*
X117487000Y-117943500D01*
X120147000Y-105183500D02*
X120147000Y-117943500D01*
X117487000Y-105183500D02*
X120147000Y-105183500D01*
X117487000Y-103913500D02*
X117487000Y-102583500D01*
X117487000Y-102583500D02*
X118817000Y-102583500D01*
X147900000Y-97500000D02*
X179015000Y-97500000D01*
X147900000Y-97500000D02*
X116785000Y-97500000D01*
X116785000Y-97500000D02*
X116785000Y-110200000D01*
X116785000Y-110200000D02*
X116785000Y-122900000D01*
X179015000Y-97500000D02*
X179015000Y-122963500D01*
X179015000Y-122963500D02*
X116785000Y-122900000D01*
X175653000Y-102583500D02*
X176983000Y-102583500D01*
X175653000Y-103913500D02*
X175653000Y-102583500D01*
X175653000Y-105183500D02*
X178313000Y-105183500D01*
X178313000Y-105183500D02*
X178313000Y-117943500D01*
X175653000Y-105183500D02*
X175653000Y-117943500D01*
X175653000Y-117943500D02*
X178313000Y-117943500D01*
X156090000Y-91630000D02*
X156090000Y-88970000D01*
X145870000Y-91630000D02*
X156090000Y-91630000D01*
X145870000Y-88970000D02*
X156090000Y-88970000D01*
X145870000Y-91630000D02*
X145870000Y-88970000D01*
X144600000Y-91630000D02*
X143270000Y-91630000D01*
X143270000Y-91630000D02*
X143270000Y-90300000D01*
X112990000Y-112890000D02*
X113320000Y-112890000D01*
X113320000Y-112890000D02*
X113320000Y-119430000D01*
X113320000Y-119430000D02*
X112990000Y-119430000D01*
X110910000Y-112890000D02*
X110580000Y-112890000D01*
X110580000Y-112890000D02*
X110580000Y-119430000D01*
X110580000Y-119430000D02*
X110910000Y-119430000D01*
X109990000Y-121440000D02*
X99830000Y-121440000D01*
X109990000Y-122710000D02*
X109990000Y-115090000D01*
X109990000Y-115090000D02*
X99830000Y-115090000D01*
X99830000Y-115090000D02*
X99830000Y-122710000D01*
X99830000Y-122710000D02*
X109990000Y-122710000D01*
X107092335Y-111271392D02*
G75*
G03X103860000Y-111114484I-1672335J-1078608D01*
G01*
X107092335Y-113428608D02*
G75*
G02X103860000Y-113585516I-1672335J1078608D01*
G01*
X106461130Y-111270163D02*
G75*
G03X104379039Y-111270000I-1041130J-1079837D01*
G01*
X106461130Y-113429837D02*
G75*
G02X104379039Y-113430000I-1041130J1079837D01*
G01*
X103860000Y-111114000D02*
X103860000Y-111270000D01*
X103860000Y-113430000D02*
X103860000Y-113586000D01*
X114100000Y-100250000D02*
G75*
G02X113400000Y-100950000I-700000J0D01*
G01*
X112800000Y-100950000D02*
G75*
G02X112100000Y-100250000I0J700000D01*
G01*
X112100000Y-98850000D02*
G75*
G02X112800000Y-98150000I700000J0D01*
G01*
X113400000Y-98150000D02*
G75*
G02X114100000Y-98850000I0J-700000D01*
G01*
X112800000Y-98150000D02*
X113400000Y-98150000D01*
X112100000Y-100250000D02*
X112100000Y-98850000D01*
X113400000Y-100950000D02*
X112800000Y-100950000D01*
X114100000Y-98850000D02*
X114100000Y-100250000D01*
D13*
X162525000Y-82895000D02*
X162525000Y-83370000D01*
X162525000Y-83370000D02*
X162825000Y-83695000D01*
X162825000Y-83695000D02*
X162825000Y-83890000D01*
X169075000Y-83220000D02*
X169075000Y-83695000D01*
X169075000Y-83695000D02*
X168625000Y-83695000D01*
X163025000Y-80145000D02*
X162525000Y-80145000D01*
X162525000Y-80145000D02*
X162525000Y-80545000D01*
X168700000Y-80145000D02*
X169075000Y-80145000D01*
X169075000Y-80145000D02*
X169075000Y-80445000D01*
D11*
X154825000Y-87930000D02*
X154825000Y-85270000D01*
X147145000Y-87930000D02*
X154825000Y-87930000D01*
X147145000Y-85270000D02*
X154825000Y-85270000D01*
X147145000Y-87930000D02*
X147145000Y-85270000D01*
X145875000Y-87930000D02*
X144545000Y-87930000D01*
X144545000Y-87930000D02*
X144545000Y-86600000D01*
X134790000Y-100370000D02*
X134790000Y-97430000D01*
X134790000Y-97430000D02*
X129350000Y-97430000D01*
X129350000Y-97430000D02*
X129350000Y-100370000D01*
X129350000Y-100370000D02*
X134790000Y-100370000D01*
X135810000Y-98900000D02*
X134790000Y-98900000D01*
X128330000Y-98900000D02*
X129350000Y-98900000D01*
X133890000Y-100370000D02*
X133890000Y-97430000D01*
X133770000Y-100370000D02*
X133770000Y-97430000D01*
X134010000Y-100370000D02*
X134010000Y-97430000D01*
X148000000Y-81400000D02*
X150900000Y-81400000D01*
X148000000Y-77900000D02*
X151700000Y-77900000D01*
X109260000Y-90178733D02*
X109260000Y-90521267D01*
X108240000Y-90178733D02*
X108240000Y-90521267D01*
X110790000Y-90178733D02*
X110790000Y-90521267D01*
X111810000Y-90178733D02*
X111810000Y-90521267D01*
X114360000Y-90178733D02*
X114360000Y-90521267D01*
X113340000Y-90178733D02*
X113340000Y-90521267D01*
X167860000Y-89038748D02*
X167860000Y-89561252D01*
X166440000Y-89038748D02*
X166440000Y-89561252D01*
X165260000Y-89038748D02*
X165260000Y-89561252D01*
X163840000Y-89038748D02*
X163840000Y-89561252D01*
D10*
X118138095Y-76052380D02*
X118138095Y-76861904D01*
X118185714Y-76957142D01*
X118233333Y-77004761D01*
X118328571Y-77052380D01*
X118519047Y-77052380D01*
X118614285Y-77004761D01*
X118661904Y-76957142D01*
X118709523Y-76861904D01*
X118709523Y-76052380D01*
X119709523Y-77052380D02*
X119138095Y-77052380D01*
X119423809Y-77052380D02*
X119423809Y-76052380D01*
X119328571Y-76195238D01*
X119233333Y-76290476D01*
X119138095Y-76338095D01*
X147138095Y-123552380D02*
X147138095Y-124361904D01*
X147185714Y-124457142D01*
X147233333Y-124504761D01*
X147328571Y-124552380D01*
X147519047Y-124552380D01*
X147614285Y-124504761D01*
X147661904Y-124457142D01*
X147709523Y-124361904D01*
X147709523Y-123552380D01*
X148138095Y-123647619D02*
X148185714Y-123600000D01*
X148280952Y-123552380D01*
X148519047Y-123552380D01*
X148614285Y-123600000D01*
X148661904Y-123647619D01*
X148709523Y-123742857D01*
X148709523Y-123838095D01*
X148661904Y-123980952D01*
X148090476Y-124552380D01*
X148709523Y-124552380D01*
X117434761Y-124592380D02*
X117434761Y-123592380D01*
X117815714Y-123592380D01*
X117910952Y-123640000D01*
X117958571Y-123687619D01*
X118006190Y-123782857D01*
X118006190Y-123925714D01*
X117958571Y-124020952D01*
X117910952Y-124068571D01*
X117815714Y-124116190D01*
X117434761Y-124116190D01*
X119006190Y-124497142D02*
X118958571Y-124544761D01*
X118815714Y-124592380D01*
X118720476Y-124592380D01*
X118577619Y-124544761D01*
X118482380Y-124449523D01*
X118434761Y-124354285D01*
X118387142Y-124163809D01*
X118387142Y-124020952D01*
X118434761Y-123830476D01*
X118482380Y-123735238D01*
X118577619Y-123640000D01*
X118720476Y-123592380D01*
X118815714Y-123592380D01*
X118958571Y-123640000D01*
X119006190Y-123687619D01*
X119387142Y-124306666D02*
X119863333Y-124306666D01*
X119291904Y-124592380D02*
X119625238Y-123592380D01*
X119958571Y-124592380D01*
X120339523Y-124592380D02*
X120530000Y-124592380D01*
X120625238Y-124544761D01*
X120672857Y-124497142D01*
X120768095Y-124354285D01*
X120815714Y-124163809D01*
X120815714Y-123782857D01*
X120768095Y-123687619D01*
X120720476Y-123640000D01*
X120625238Y-123592380D01*
X120434761Y-123592380D01*
X120339523Y-123640000D01*
X120291904Y-123687619D01*
X120244285Y-123782857D01*
X120244285Y-124020952D01*
X120291904Y-124116190D01*
X120339523Y-124163809D01*
X120434761Y-124211428D01*
X120625238Y-124211428D01*
X120720476Y-124163809D01*
X120768095Y-124116190D01*
X120815714Y-124020952D01*
X121672857Y-123592380D02*
X121482380Y-123592380D01*
X121387142Y-123640000D01*
X121339523Y-123687619D01*
X121244285Y-123830476D01*
X121196666Y-124020952D01*
X121196666Y-124401904D01*
X121244285Y-124497142D01*
X121291904Y-124544761D01*
X121387142Y-124592380D01*
X121577619Y-124592380D01*
X121672857Y-124544761D01*
X121720476Y-124497142D01*
X121768095Y-124401904D01*
X121768095Y-124163809D01*
X121720476Y-124068571D01*
X121672857Y-124020952D01*
X121577619Y-123973333D01*
X121387142Y-123973333D01*
X121291904Y-124020952D01*
X121244285Y-124068571D01*
X121196666Y-124163809D01*
X122339523Y-124020952D02*
X122244285Y-123973333D01*
X122196666Y-123925714D01*
X122149047Y-123830476D01*
X122149047Y-123782857D01*
X122196666Y-123687619D01*
X122244285Y-123640000D01*
X122339523Y-123592380D01*
X122530000Y-123592380D01*
X122625238Y-123640000D01*
X122672857Y-123687619D01*
X122720476Y-123782857D01*
X122720476Y-123830476D01*
X122672857Y-123925714D01*
X122625238Y-123973333D01*
X122530000Y-124020952D01*
X122339523Y-124020952D01*
X122244285Y-124068571D01*
X122196666Y-124116190D01*
X122149047Y-124211428D01*
X122149047Y-124401904D01*
X122196666Y-124497142D01*
X122244285Y-124544761D01*
X122339523Y-124592380D01*
X122530000Y-124592380D01*
X122625238Y-124544761D01*
X122672857Y-124497142D01*
X122720476Y-124401904D01*
X122720476Y-124211428D01*
X122672857Y-124116190D01*
X122625238Y-124068571D01*
X122530000Y-124020952D01*
X123625238Y-123592380D02*
X123149047Y-123592380D01*
X123101428Y-124068571D01*
X123149047Y-124020952D01*
X123244285Y-123973333D01*
X123482380Y-123973333D01*
X123577619Y-124020952D01*
X123625238Y-124068571D01*
X123672857Y-124163809D01*
X123672857Y-124401904D01*
X123625238Y-124497142D01*
X123577619Y-124544761D01*
X123482380Y-124592380D01*
X123244285Y-124592380D01*
X123149047Y-124544761D01*
X123101428Y-124497142D01*
D12*
X133995238Y-108945833D02*
X134947619Y-108945833D01*
X133804761Y-109517261D02*
X134471428Y-107517261D01*
X135138095Y-109517261D01*
X135804761Y-109517261D02*
X135804761Y-107517261D01*
X136280952Y-107517261D01*
X136566666Y-107612500D01*
X136757142Y-107802976D01*
X136852380Y-107993452D01*
X136947619Y-108374404D01*
X136947619Y-108660119D01*
X136852380Y-109041071D01*
X136757142Y-109231547D01*
X136566666Y-109422023D01*
X136280952Y-109517261D01*
X135804761Y-109517261D01*
X137709523Y-108945833D02*
X138661904Y-108945833D01*
X137519047Y-109517261D02*
X138185714Y-107517261D01*
X138852380Y-109517261D01*
X140185714Y-108469642D02*
X139519047Y-108469642D01*
X139519047Y-109517261D02*
X139519047Y-107517261D01*
X140471428Y-107517261D01*
X142376190Y-109517261D02*
X141709523Y-108564880D01*
X141233333Y-109517261D02*
X141233333Y-107517261D01*
X141995238Y-107517261D01*
X142185714Y-107612500D01*
X142280952Y-107707738D01*
X142376190Y-107898214D01*
X142376190Y-108183928D01*
X142280952Y-108374404D01*
X142185714Y-108469642D01*
X141995238Y-108564880D01*
X141233333Y-108564880D01*
X143233333Y-107517261D02*
X143233333Y-109136309D01*
X143328571Y-109326785D01*
X143423809Y-109422023D01*
X143614285Y-109517261D01*
X143995238Y-109517261D01*
X144185714Y-109422023D01*
X144280952Y-109326785D01*
X144376190Y-109136309D01*
X144376190Y-107517261D01*
X145328571Y-109517261D02*
X145328571Y-107517261D01*
X145995238Y-107517261D02*
X147138095Y-107517261D01*
X146566666Y-109517261D02*
X146566666Y-107517261D01*
X149328571Y-109517261D02*
X149328571Y-107517261D01*
X150090476Y-107517261D01*
X150280952Y-107612500D01*
X150376190Y-107707738D01*
X150471428Y-107898214D01*
X150471428Y-108183928D01*
X150376190Y-108374404D01*
X150280952Y-108469642D01*
X150090476Y-108564880D01*
X149328571Y-108564880D01*
X152471428Y-109326785D02*
X152376190Y-109422023D01*
X152090476Y-109517261D01*
X151900000Y-109517261D01*
X151614285Y-109422023D01*
X151423809Y-109231547D01*
X151328571Y-109041071D01*
X151233333Y-108660119D01*
X151233333Y-108374404D01*
X151328571Y-107993452D01*
X151423809Y-107802976D01*
X151614285Y-107612500D01*
X151900000Y-107517261D01*
X152090476Y-107517261D01*
X152376190Y-107612500D01*
X152471428Y-107707738D01*
X153233333Y-108945833D02*
X154185714Y-108945833D01*
X153042857Y-109517261D02*
X153709523Y-107517261D01*
X154376190Y-109517261D01*
X155138095Y-109517261D02*
X155519047Y-109517261D01*
X155709523Y-109422023D01*
X155804761Y-109326785D01*
X155995238Y-109041071D01*
X156090476Y-108660119D01*
X156090476Y-107898214D01*
X155995238Y-107707738D01*
X155900000Y-107612500D01*
X155709523Y-107517261D01*
X155328571Y-107517261D01*
X155138095Y-107612500D01*
X155042857Y-107707738D01*
X154947619Y-107898214D01*
X154947619Y-108374404D01*
X155042857Y-108564880D01*
X155138095Y-108660119D01*
X155328571Y-108755357D01*
X155709523Y-108755357D01*
X155900000Y-108660119D01*
X155995238Y-108564880D01*
X156090476Y-108374404D01*
X157804761Y-107517261D02*
X157423809Y-107517261D01*
X157233333Y-107612500D01*
X157138095Y-107707738D01*
X156947619Y-107993452D01*
X156852380Y-108374404D01*
X156852380Y-109136309D01*
X156947619Y-109326785D01*
X157042857Y-109422023D01*
X157233333Y-109517261D01*
X157614285Y-109517261D01*
X157804761Y-109422023D01*
X157900000Y-109326785D01*
X157995238Y-109136309D01*
X157995238Y-108660119D01*
X157900000Y-108469642D01*
X157804761Y-108374404D01*
X157614285Y-108279166D01*
X157233333Y-108279166D01*
X157042857Y-108374404D01*
X156947619Y-108469642D01*
X156852380Y-108660119D01*
X159138095Y-108374404D02*
X158947619Y-108279166D01*
X158852380Y-108183928D01*
X158757142Y-107993452D01*
X158757142Y-107898214D01*
X158852380Y-107707738D01*
X158947619Y-107612500D01*
X159138095Y-107517261D01*
X159519047Y-107517261D01*
X159709523Y-107612500D01*
X159804761Y-107707738D01*
X159900000Y-107898214D01*
X159900000Y-107993452D01*
X159804761Y-108183928D01*
X159709523Y-108279166D01*
X159519047Y-108374404D01*
X159138095Y-108374404D01*
X158947619Y-108469642D01*
X158852380Y-108564880D01*
X158757142Y-108755357D01*
X158757142Y-109136309D01*
X158852380Y-109326785D01*
X158947619Y-109422023D01*
X159138095Y-109517261D01*
X159519047Y-109517261D01*
X159709523Y-109422023D01*
X159804761Y-109326785D01*
X159900000Y-109136309D01*
X159900000Y-108755357D01*
X159804761Y-108564880D01*
X159709523Y-108469642D01*
X159519047Y-108374404D01*
X161709523Y-107517261D02*
X160757142Y-107517261D01*
X160661904Y-108469642D01*
X160757142Y-108374404D01*
X160947619Y-108279166D01*
X161423809Y-108279166D01*
X161614285Y-108374404D01*
X161709523Y-108469642D01*
X161804761Y-108660119D01*
X161804761Y-109136309D01*
X161709523Y-109326785D01*
X161614285Y-109422023D01*
X161423809Y-109517261D01*
X160947619Y-109517261D01*
X160757142Y-109422023D01*
X160661904Y-109326785D01*
D10*
X140733333Y-112430380D02*
X140733333Y-111430380D01*
X141114285Y-111430380D01*
X141209523Y-111478000D01*
X141257142Y-111525619D01*
X141304761Y-111620857D01*
X141304761Y-111763714D01*
X141257142Y-111858952D01*
X141209523Y-111906571D01*
X141114285Y-111954190D01*
X140733333Y-111954190D01*
X141638095Y-111430380D02*
X141876190Y-112430380D01*
X142066666Y-111716095D01*
X142257142Y-112430380D01*
X142495238Y-111430380D01*
X142876190Y-112430380D02*
X142876190Y-111430380D01*
X143209523Y-112144666D01*
X143542857Y-111430380D01*
X143542857Y-112430380D01*
X144733333Y-112382761D02*
X144876190Y-112430380D01*
X145114285Y-112430380D01*
X145209523Y-112382761D01*
X145257142Y-112335142D01*
X145304761Y-112239904D01*
X145304761Y-112144666D01*
X145257142Y-112049428D01*
X145209523Y-112001809D01*
X145114285Y-111954190D01*
X144923809Y-111906571D01*
X144828571Y-111858952D01*
X144780952Y-111811333D01*
X144733333Y-111716095D01*
X144733333Y-111620857D01*
X144780952Y-111525619D01*
X144828571Y-111478000D01*
X144923809Y-111430380D01*
X145161904Y-111430380D01*
X145304761Y-111478000D01*
X145733333Y-111906571D02*
X146066666Y-111906571D01*
X146209523Y-112430380D02*
X145733333Y-112430380D01*
X145733333Y-111430380D01*
X146209523Y-111430380D01*
X147209523Y-112430380D02*
X146876190Y-111954190D01*
X146638095Y-112430380D02*
X146638095Y-111430380D01*
X147019047Y-111430380D01*
X147114285Y-111478000D01*
X147161904Y-111525619D01*
X147209523Y-111620857D01*
X147209523Y-111763714D01*
X147161904Y-111858952D01*
X147114285Y-111906571D01*
X147019047Y-111954190D01*
X146638095Y-111954190D01*
X147495238Y-111430380D02*
X147828571Y-112430380D01*
X148161904Y-111430380D01*
X148685714Y-111430380D02*
X148876190Y-111430380D01*
X148971428Y-111478000D01*
X149066666Y-111573238D01*
X149114285Y-111763714D01*
X149114285Y-112097047D01*
X149066666Y-112287523D01*
X148971428Y-112382761D01*
X148876190Y-112430380D01*
X148685714Y-112430380D01*
X148590476Y-112382761D01*
X148495238Y-112287523D01*
X148447619Y-112097047D01*
X148447619Y-111763714D01*
X148495238Y-111573238D01*
X148590476Y-111478000D01*
X148685714Y-111430380D01*
X150304761Y-112430380D02*
X150304761Y-111430380D01*
X150542857Y-111430380D01*
X150685714Y-111478000D01*
X150780952Y-111573238D01*
X150828571Y-111668476D01*
X150876190Y-111858952D01*
X150876190Y-112001809D01*
X150828571Y-112192285D01*
X150780952Y-112287523D01*
X150685714Y-112382761D01*
X150542857Y-112430380D01*
X150304761Y-112430380D01*
X151876190Y-112430380D02*
X151542857Y-111954190D01*
X151304761Y-112430380D02*
X151304761Y-111430380D01*
X151685714Y-111430380D01*
X151780952Y-111478000D01*
X151828571Y-111525619D01*
X151876190Y-111620857D01*
X151876190Y-111763714D01*
X151828571Y-111858952D01*
X151780952Y-111906571D01*
X151685714Y-111954190D01*
X151304761Y-111954190D01*
X152304761Y-112430380D02*
X152304761Y-111430380D01*
X152638095Y-111430380D02*
X152971428Y-112430380D01*
X153304761Y-111430380D01*
X153638095Y-111906571D02*
X153971428Y-111906571D01*
X154114285Y-112430380D02*
X153638095Y-112430380D01*
X153638095Y-111430380D01*
X154114285Y-111430380D01*
X155114285Y-112430380D02*
X154780952Y-111954190D01*
X154542857Y-112430380D02*
X154542857Y-111430380D01*
X154923809Y-111430380D01*
X155019047Y-111478000D01*
X155066666Y-111525619D01*
X155114285Y-111620857D01*
X155114285Y-111763714D01*
X155066666Y-111858952D01*
X155019047Y-111906571D01*
X154923809Y-111954190D01*
X154542857Y-111954190D01*
X142204761Y-91533333D02*
X142252380Y-91390476D01*
X142252380Y-91152380D01*
X142204761Y-91057142D01*
X142157142Y-91009523D01*
X142061904Y-90961904D01*
X141966666Y-90961904D01*
X141871428Y-91009523D01*
X141823809Y-91057142D01*
X141776190Y-91152380D01*
X141728571Y-91342857D01*
X141680952Y-91438095D01*
X141633333Y-91485714D01*
X141538095Y-91533333D01*
X141442857Y-91533333D01*
X141347619Y-91485714D01*
X141300000Y-91438095D01*
X141252380Y-91342857D01*
X141252380Y-91104761D01*
X141300000Y-90961904D01*
X141252380Y-90628571D02*
X142252380Y-90390476D01*
X141538095Y-90200000D01*
X142252380Y-90009523D01*
X141252380Y-89771428D01*
X141347619Y-89438095D02*
X141300000Y-89390476D01*
X141252380Y-89295238D01*
X141252380Y-89057142D01*
X141300000Y-88961904D01*
X141347619Y-88914285D01*
X141442857Y-88866666D01*
X141538095Y-88866666D01*
X141680952Y-88914285D01*
X142252380Y-89485714D01*
X142252380Y-88866666D01*
X111783333Y-122552380D02*
X111450000Y-122076190D01*
X111211904Y-122552380D02*
X111211904Y-121552380D01*
X111592857Y-121552380D01*
X111688095Y-121600000D01*
X111735714Y-121647619D01*
X111783333Y-121742857D01*
X111783333Y-121885714D01*
X111735714Y-121980952D01*
X111688095Y-122028571D01*
X111592857Y-122076190D01*
X111211904Y-122076190D01*
X112735714Y-122552380D02*
X112164285Y-122552380D01*
X112450000Y-122552380D02*
X112450000Y-121552380D01*
X112354761Y-121695238D01*
X112259523Y-121790476D01*
X112164285Y-121838095D01*
X114235714Y-120483333D02*
X114902380Y-120483333D01*
X113854761Y-120721428D02*
X114569047Y-120959523D01*
X114569047Y-120340476D01*
X113902380Y-120054761D02*
X113902380Y-119388095D01*
X114902380Y-119816666D01*
X113902380Y-118816666D02*
X113902380Y-118721428D01*
X113950000Y-118626190D01*
X113997619Y-118578571D01*
X114092857Y-118530952D01*
X114283333Y-118483333D01*
X114521428Y-118483333D01*
X114711904Y-118530952D01*
X114807142Y-118578571D01*
X114854761Y-118626190D01*
X114902380Y-118721428D01*
X114902380Y-118816666D01*
X114854761Y-118911904D01*
X114807142Y-118959523D01*
X114711904Y-119007142D01*
X114521428Y-119054761D01*
X114283333Y-119054761D01*
X114092857Y-119007142D01*
X113997619Y-118959523D01*
X113950000Y-118911904D01*
X113902380Y-118816666D01*
X114902380Y-118102380D02*
X114902380Y-117864285D01*
X114711904Y-117864285D01*
X114664285Y-117959523D01*
X114569047Y-118054761D01*
X114426190Y-118102380D01*
X114188095Y-118102380D01*
X114045238Y-118054761D01*
X113950000Y-117959523D01*
X113902380Y-117816666D01*
X113902380Y-117626190D01*
X113950000Y-117483333D01*
X114045238Y-117388095D01*
X114188095Y-117340476D01*
X114426190Y-117340476D01*
X114569047Y-117388095D01*
X114664285Y-117483333D01*
X114711904Y-117578571D01*
X114902380Y-117578571D01*
X114902380Y-117340476D01*
X99104761Y-117633333D02*
X99152380Y-117490476D01*
X99152380Y-117252380D01*
X99104761Y-117157142D01*
X99057142Y-117109523D01*
X98961904Y-117061904D01*
X98866666Y-117061904D01*
X98771428Y-117109523D01*
X98723809Y-117157142D01*
X98676190Y-117252380D01*
X98628571Y-117442857D01*
X98580952Y-117538095D01*
X98533333Y-117585714D01*
X98438095Y-117633333D01*
X98342857Y-117633333D01*
X98247619Y-117585714D01*
X98200000Y-117538095D01*
X98152380Y-117442857D01*
X98152380Y-117204761D01*
X98200000Y-117061904D01*
X98152380Y-116728571D02*
X99152380Y-116490476D01*
X98438095Y-116300000D01*
X99152380Y-116109523D01*
X98152380Y-115871428D01*
X99152380Y-114966666D02*
X99152380Y-115538095D01*
X99152380Y-115252380D02*
X98152380Y-115252380D01*
X98295238Y-115347619D01*
X98390476Y-115442857D01*
X98438095Y-115538095D01*
X103576666Y-124432380D02*
X103576666Y-123432380D01*
X103957619Y-123432380D01*
X104052857Y-123480000D01*
X104100476Y-123527619D01*
X104148095Y-123622857D01*
X104148095Y-123765714D01*
X104100476Y-123860952D01*
X104052857Y-123908571D01*
X103957619Y-123956190D01*
X103576666Y-123956190D01*
X104481428Y-123432380D02*
X104719523Y-124432380D01*
X104910000Y-123718095D01*
X105100476Y-124432380D01*
X105338571Y-123432380D01*
X106290952Y-124432380D02*
X105957619Y-123956190D01*
X105719523Y-124432380D02*
X105719523Y-123432380D01*
X106100476Y-123432380D01*
X106195714Y-123480000D01*
X106243333Y-123527619D01*
X106290952Y-123622857D01*
X106290952Y-123765714D01*
X106243333Y-123860952D01*
X106195714Y-123908571D01*
X106100476Y-123956190D01*
X105719523Y-123956190D01*
X104711904Y-109782380D02*
X104711904Y-108782380D01*
X104950000Y-108782380D01*
X105092857Y-108830000D01*
X105188095Y-108925238D01*
X105235714Y-109020476D01*
X105283333Y-109210952D01*
X105283333Y-109353809D01*
X105235714Y-109544285D01*
X105188095Y-109639523D01*
X105092857Y-109734761D01*
X104950000Y-109782380D01*
X104711904Y-109782380D01*
X106235714Y-109782380D02*
X105664285Y-109782380D01*
X105950000Y-109782380D02*
X105950000Y-108782380D01*
X105854761Y-108925238D01*
X105759523Y-109020476D01*
X105664285Y-109068095D01*
X102602380Y-115221428D02*
X101602380Y-115221428D01*
X101602380Y-114840476D01*
X101650000Y-114745238D01*
X101697619Y-114697619D01*
X101792857Y-114650000D01*
X101935714Y-114650000D01*
X102030952Y-114697619D01*
X102078571Y-114745238D01*
X102126190Y-114840476D01*
X102126190Y-115221428D01*
X101602380Y-114316666D02*
X102602380Y-114078571D01*
X101888095Y-113888095D01*
X102602380Y-113697619D01*
X101602380Y-113459523D01*
X102602380Y-112507142D02*
X102126190Y-112840476D01*
X102602380Y-113078571D02*
X101602380Y-113078571D01*
X101602380Y-112697619D01*
X101650000Y-112602380D01*
X101697619Y-112554761D01*
X101792857Y-112507142D01*
X101935714Y-112507142D01*
X102030952Y-112554761D01*
X102078571Y-112602380D01*
X102126190Y-112697619D01*
X102126190Y-113078571D01*
X102602380Y-110840476D02*
X102602380Y-111316666D01*
X101602380Y-111316666D01*
X102078571Y-110507142D02*
X102078571Y-110173809D01*
X102602380Y-110030952D02*
X102602380Y-110507142D01*
X101602380Y-110507142D01*
X101602380Y-110030952D01*
X102602380Y-109602380D02*
X101602380Y-109602380D01*
X101602380Y-109364285D01*
X101650000Y-109221428D01*
X101745238Y-109126190D01*
X101840476Y-109078571D01*
X102030952Y-109030952D01*
X102173809Y-109030952D01*
X102364285Y-109078571D01*
X102459523Y-109126190D01*
X102554761Y-109221428D01*
X102602380Y-109364285D01*
X102602380Y-109602380D01*
X114352380Y-100383333D02*
X115066666Y-100383333D01*
X115209523Y-100430952D01*
X115304761Y-100526190D01*
X115352380Y-100669047D01*
X115352380Y-100764285D01*
X115352380Y-99907142D02*
X114352380Y-99907142D01*
X114352380Y-99526190D01*
X114400000Y-99430952D01*
X114447619Y-99383333D01*
X114542857Y-99335714D01*
X114685714Y-99335714D01*
X114780952Y-99383333D01*
X114828571Y-99430952D01*
X114876190Y-99526190D01*
X114876190Y-99907142D01*
X115352380Y-98383333D02*
X115352380Y-98954761D01*
X115352380Y-98669047D02*
X114352380Y-98669047D01*
X114495238Y-98764285D01*
X114590476Y-98859523D01*
X114638095Y-98954761D01*
X165038095Y-75272380D02*
X165038095Y-76081904D01*
X165085714Y-76177142D01*
X165133333Y-76224761D01*
X165228571Y-76272380D01*
X165419047Y-76272380D01*
X165514285Y-76224761D01*
X165561904Y-76177142D01*
X165609523Y-76081904D01*
X165609523Y-75272380D01*
X166514285Y-75272380D02*
X166323809Y-75272380D01*
X166228571Y-75320000D01*
X166180952Y-75367619D01*
X166085714Y-75510476D01*
X166038095Y-75700952D01*
X166038095Y-76081904D01*
X166085714Y-76177142D01*
X166133333Y-76224761D01*
X166228571Y-76272380D01*
X166419047Y-76272380D01*
X166514285Y-76224761D01*
X166561904Y-76177142D01*
X166609523Y-76081904D01*
X166609523Y-75843809D01*
X166561904Y-75748571D01*
X166514285Y-75700952D01*
X166419047Y-75653333D01*
X166228571Y-75653333D01*
X166133333Y-75700952D01*
X166085714Y-75748571D01*
X166038095Y-75843809D01*
X170952380Y-86947619D02*
X170952380Y-87423809D01*
X169952380Y-87423809D01*
X170952380Y-86614285D02*
X169952380Y-86614285D01*
X169952380Y-86376190D01*
X170000000Y-86233333D01*
X170095238Y-86138095D01*
X170190476Y-86090476D01*
X170380952Y-86042857D01*
X170523809Y-86042857D01*
X170714285Y-86090476D01*
X170809523Y-86138095D01*
X170904761Y-86233333D01*
X170952380Y-86376190D01*
X170952380Y-86614285D01*
X170952380Y-85090476D02*
X170952380Y-85661904D01*
X170952380Y-85376190D02*
X169952380Y-85376190D01*
X170095238Y-85471428D01*
X170190476Y-85566666D01*
X170238095Y-85661904D01*
X170952380Y-84138095D02*
X170952380Y-84709523D01*
X170952380Y-84423809D02*
X169952380Y-84423809D01*
X170095238Y-84519047D01*
X170190476Y-84614285D01*
X170238095Y-84709523D01*
X170952380Y-83185714D02*
X170952380Y-83757142D01*
X170952380Y-83471428D02*
X169952380Y-83471428D01*
X170095238Y-83566666D01*
X170190476Y-83661904D01*
X170238095Y-83757142D01*
X169952380Y-82852380D02*
X169952380Y-82185714D01*
X170952380Y-82614285D01*
X170571428Y-81042857D02*
X170571428Y-80280952D01*
X169952380Y-79138095D02*
X169952380Y-78519047D01*
X170333333Y-78852380D01*
X170333333Y-78709523D01*
X170380952Y-78614285D01*
X170428571Y-78566666D01*
X170523809Y-78519047D01*
X170761904Y-78519047D01*
X170857142Y-78566666D01*
X170904761Y-78614285D01*
X170952380Y-78709523D01*
X170952380Y-78995238D01*
X170904761Y-79090476D01*
X170857142Y-79138095D01*
X170857142Y-78090476D02*
X170904761Y-78042857D01*
X170952380Y-78090476D01*
X170904761Y-78138095D01*
X170857142Y-78090476D01*
X170952380Y-78090476D01*
X169952380Y-77709523D02*
X169952380Y-77090476D01*
X170333333Y-77423809D01*
X170333333Y-77280952D01*
X170380952Y-77185714D01*
X170428571Y-77138095D01*
X170523809Y-77090476D01*
X170761904Y-77090476D01*
X170857142Y-77138095D01*
X170904761Y-77185714D01*
X170952380Y-77280952D01*
X170952380Y-77566666D01*
X170904761Y-77661904D01*
X170857142Y-77709523D01*
X170285714Y-76757142D02*
X170952380Y-76519047D01*
X170285714Y-76280952D01*
X142452380Y-87361904D02*
X143261904Y-87361904D01*
X143357142Y-87314285D01*
X143404761Y-87266666D01*
X143452380Y-87171428D01*
X143452380Y-86980952D01*
X143404761Y-86885714D01*
X143357142Y-86838095D01*
X143261904Y-86790476D01*
X142452380Y-86790476D01*
X142452380Y-85838095D02*
X142452380Y-86314285D01*
X142928571Y-86361904D01*
X142880952Y-86314285D01*
X142833333Y-86219047D01*
X142833333Y-85980952D01*
X142880952Y-85885714D01*
X142928571Y-85838095D01*
X143023809Y-85790476D01*
X143261904Y-85790476D01*
X143357142Y-85838095D01*
X143404761Y-85885714D01*
X143452380Y-85980952D01*
X143452380Y-86219047D01*
X143404761Y-86314285D01*
X143357142Y-86361904D01*
X131331904Y-101822380D02*
X131331904Y-100822380D01*
X131570000Y-100822380D01*
X131712857Y-100870000D01*
X131808095Y-100965238D01*
X131855714Y-101060476D01*
X131903333Y-101250952D01*
X131903333Y-101393809D01*
X131855714Y-101584285D01*
X131808095Y-101679523D01*
X131712857Y-101774761D01*
X131570000Y-101822380D01*
X131331904Y-101822380D01*
X132284285Y-100917619D02*
X132331904Y-100870000D01*
X132427142Y-100822380D01*
X132665238Y-100822380D01*
X132760476Y-100870000D01*
X132808095Y-100917619D01*
X132855714Y-101012857D01*
X132855714Y-101108095D01*
X132808095Y-101250952D01*
X132236666Y-101822380D01*
X132855714Y-101822380D01*
X136888095Y-101452380D02*
X136888095Y-100452380D01*
X137459523Y-101452380D02*
X137030952Y-100880952D01*
X137459523Y-100452380D02*
X136888095Y-101023809D01*
X145430952Y-79252380D02*
X144954761Y-79252380D01*
X144954761Y-78252380D01*
X145764285Y-78728571D02*
X146097619Y-78728571D01*
X146240476Y-79252380D02*
X145764285Y-79252380D01*
X145764285Y-78252380D01*
X146240476Y-78252380D01*
X146669047Y-79252380D02*
X146669047Y-78252380D01*
X146907142Y-78252380D01*
X147050000Y-78300000D01*
X147145238Y-78395238D01*
X147192857Y-78490476D01*
X147240476Y-78680952D01*
X147240476Y-78823809D01*
X147192857Y-79014285D01*
X147145238Y-79109523D01*
X147050000Y-79204761D01*
X146907142Y-79252380D01*
X146669047Y-79252380D01*
X148192857Y-79252380D02*
X147621428Y-79252380D01*
X147907142Y-79252380D02*
X147907142Y-78252380D01*
X147811904Y-78395238D01*
X147716666Y-78490476D01*
X147621428Y-78538095D01*
D14*
X149885714Y-80664285D02*
X149957142Y-80688095D01*
X149980952Y-80711904D01*
X150004761Y-80759523D01*
X150004761Y-80830952D01*
X149980952Y-80878571D01*
X149957142Y-80902380D01*
X149909523Y-80926190D01*
X149719047Y-80926190D01*
X149719047Y-80426190D01*
X149885714Y-80426190D01*
X149933333Y-80450000D01*
X149957142Y-80473809D01*
X149980952Y-80521428D01*
X149980952Y-80569047D01*
X149957142Y-80616666D01*
X149933333Y-80640476D01*
X149885714Y-80664285D01*
X149719047Y-80664285D01*
X149980952Y-79400000D02*
X149933333Y-79376190D01*
X149861904Y-79376190D01*
X149790476Y-79400000D01*
X149742857Y-79447619D01*
X149719047Y-79495238D01*
X149695238Y-79590476D01*
X149695238Y-79661904D01*
X149719047Y-79757142D01*
X149742857Y-79804761D01*
X149790476Y-79852380D01*
X149861904Y-79876190D01*
X149909523Y-79876190D01*
X149980952Y-79852380D01*
X150004761Y-79828571D01*
X150004761Y-79661904D01*
X149909523Y-79661904D01*
X150004761Y-78776190D02*
X149838095Y-78538095D01*
X149719047Y-78776190D02*
X149719047Y-78276190D01*
X149909523Y-78276190D01*
X149957142Y-78300000D01*
X149980952Y-78323809D01*
X150004761Y-78371428D01*
X150004761Y-78442857D01*
X149980952Y-78490476D01*
X149957142Y-78514285D01*
X149909523Y-78538095D01*
X149719047Y-78538095D01*
D10*
X107802380Y-90566666D02*
X107326190Y-90900000D01*
X107802380Y-91138095D02*
X106802380Y-91138095D01*
X106802380Y-90757142D01*
X106850000Y-90661904D01*
X106897619Y-90614285D01*
X106992857Y-90566666D01*
X107135714Y-90566666D01*
X107230952Y-90614285D01*
X107278571Y-90661904D01*
X107326190Y-90757142D01*
X107326190Y-91138095D01*
X106897619Y-90185714D02*
X106850000Y-90138095D01*
X106802380Y-90042857D01*
X106802380Y-89804761D01*
X106850000Y-89709523D01*
X106897619Y-89661904D01*
X106992857Y-89614285D01*
X107088095Y-89614285D01*
X107230952Y-89661904D01*
X107802380Y-90233333D01*
X107802380Y-89614285D01*
X107061904Y-88352380D02*
X106490476Y-88352380D01*
X106776190Y-88352380D02*
X106776190Y-87352380D01*
X106680952Y-87495238D01*
X106585714Y-87590476D01*
X106490476Y-87638095D01*
X107633333Y-87780952D02*
X107538095Y-87733333D01*
X107490476Y-87685714D01*
X107442857Y-87590476D01*
X107442857Y-87542857D01*
X107490476Y-87447619D01*
X107538095Y-87400000D01*
X107633333Y-87352380D01*
X107823809Y-87352380D01*
X107919047Y-87400000D01*
X107966666Y-87447619D01*
X108014285Y-87542857D01*
X108014285Y-87590476D01*
X107966666Y-87685714D01*
X107919047Y-87733333D01*
X107823809Y-87780952D01*
X107633333Y-87780952D01*
X107538095Y-87828571D01*
X107490476Y-87876190D01*
X107442857Y-87971428D01*
X107442857Y-88161904D01*
X107490476Y-88257142D01*
X107538095Y-88304761D01*
X107633333Y-88352380D01*
X107823809Y-88352380D01*
X107919047Y-88304761D01*
X107966666Y-88257142D01*
X108014285Y-88161904D01*
X108014285Y-87971428D01*
X107966666Y-87876190D01*
X107919047Y-87828571D01*
X107823809Y-87780952D01*
X108633333Y-87352380D02*
X108728571Y-87352380D01*
X108823809Y-87400000D01*
X108871428Y-87447619D01*
X108919047Y-87542857D01*
X108966666Y-87733333D01*
X108966666Y-87971428D01*
X108919047Y-88161904D01*
X108871428Y-88257142D01*
X108823809Y-88304761D01*
X108728571Y-88352380D01*
X108633333Y-88352380D01*
X108538095Y-88304761D01*
X108490476Y-88257142D01*
X108442857Y-88161904D01*
X108395238Y-87971428D01*
X108395238Y-87733333D01*
X108442857Y-87542857D01*
X108490476Y-87447619D01*
X108538095Y-87400000D01*
X108633333Y-87352380D01*
X109347619Y-88352380D02*
X109585714Y-88352380D01*
X109585714Y-88161904D01*
X109490476Y-88114285D01*
X109395238Y-88019047D01*
X109347619Y-87876190D01*
X109347619Y-87638095D01*
X109395238Y-87495238D01*
X109490476Y-87400000D01*
X109633333Y-87352380D01*
X109823809Y-87352380D01*
X109966666Y-87400000D01*
X110061904Y-87495238D01*
X110109523Y-87638095D01*
X110109523Y-87876190D01*
X110061904Y-88019047D01*
X109966666Y-88114285D01*
X109871428Y-88161904D01*
X109871428Y-88352380D01*
X110109523Y-88352380D01*
X110502380Y-90466666D02*
X110026190Y-90800000D01*
X110502380Y-91038095D02*
X109502380Y-91038095D01*
X109502380Y-90657142D01*
X109550000Y-90561904D01*
X109597619Y-90514285D01*
X109692857Y-90466666D01*
X109835714Y-90466666D01*
X109930952Y-90514285D01*
X109978571Y-90561904D01*
X110026190Y-90657142D01*
X110026190Y-91038095D01*
X109502380Y-90133333D02*
X109502380Y-89514285D01*
X109883333Y-89847619D01*
X109883333Y-89704761D01*
X109930952Y-89609523D01*
X109978571Y-89561904D01*
X110073809Y-89514285D01*
X110311904Y-89514285D01*
X110407142Y-89561904D01*
X110454761Y-89609523D01*
X110502380Y-89704761D01*
X110502380Y-89990476D01*
X110454761Y-90085714D01*
X110407142Y-90133333D01*
X113052380Y-90516666D02*
X112576190Y-90850000D01*
X113052380Y-91088095D02*
X112052380Y-91088095D01*
X112052380Y-90707142D01*
X112100000Y-90611904D01*
X112147619Y-90564285D01*
X112242857Y-90516666D01*
X112385714Y-90516666D01*
X112480952Y-90564285D01*
X112528571Y-90611904D01*
X112576190Y-90707142D01*
X112576190Y-91088095D01*
X112385714Y-89659523D02*
X113052380Y-89659523D01*
X112004761Y-89897619D02*
X112719047Y-90135714D01*
X112719047Y-89516666D01*
X111411904Y-88402380D02*
X110840476Y-88402380D01*
X111126190Y-88402380D02*
X111126190Y-87402380D01*
X111030952Y-87545238D01*
X110935714Y-87640476D01*
X110840476Y-87688095D01*
X111792857Y-87497619D02*
X111840476Y-87450000D01*
X111935714Y-87402380D01*
X112173809Y-87402380D01*
X112269047Y-87450000D01*
X112316666Y-87497619D01*
X112364285Y-87592857D01*
X112364285Y-87688095D01*
X112316666Y-87830952D01*
X111745238Y-88402380D01*
X112364285Y-88402380D01*
X112983333Y-87402380D02*
X113078571Y-87402380D01*
X113173809Y-87450000D01*
X113221428Y-87497619D01*
X113269047Y-87592857D01*
X113316666Y-87783333D01*
X113316666Y-88021428D01*
X113269047Y-88211904D01*
X113221428Y-88307142D01*
X113173809Y-88354761D01*
X113078571Y-88402380D01*
X112983333Y-88402380D01*
X112888095Y-88354761D01*
X112840476Y-88307142D01*
X112792857Y-88211904D01*
X112745238Y-88021428D01*
X112745238Y-87783333D01*
X112792857Y-87592857D01*
X112840476Y-87497619D01*
X112888095Y-87450000D01*
X112983333Y-87402380D01*
X113697619Y-88402380D02*
X113935714Y-88402380D01*
X113935714Y-88211904D01*
X113840476Y-88164285D01*
X113745238Y-88069047D01*
X113697619Y-87926190D01*
X113697619Y-87688095D01*
X113745238Y-87545238D01*
X113840476Y-87450000D01*
X113983333Y-87402380D01*
X114173809Y-87402380D01*
X114316666Y-87450000D01*
X114411904Y-87545238D01*
X114459523Y-87688095D01*
X114459523Y-87926190D01*
X114411904Y-88069047D01*
X114316666Y-88164285D01*
X114221428Y-88211904D01*
X114221428Y-88402380D01*
X114459523Y-88402380D01*
X169157142Y-89466666D02*
X169204761Y-89514285D01*
X169252380Y-89657142D01*
X169252380Y-89752380D01*
X169204761Y-89895238D01*
X169109523Y-89990476D01*
X169014285Y-90038095D01*
X168823809Y-90085714D01*
X168680952Y-90085714D01*
X168490476Y-90038095D01*
X168395238Y-89990476D01*
X168300000Y-89895238D01*
X168252380Y-89752380D01*
X168252380Y-89657142D01*
X168300000Y-89514285D01*
X168347619Y-89466666D01*
X169252380Y-88514285D02*
X169252380Y-89085714D01*
X169252380Y-88800000D02*
X168252380Y-88800000D01*
X168395238Y-88895238D01*
X168490476Y-88990476D01*
X168538095Y-89085714D01*
X163057142Y-89366666D02*
X163104761Y-89414285D01*
X163152380Y-89557142D01*
X163152380Y-89652380D01*
X163104761Y-89795238D01*
X163009523Y-89890476D01*
X162914285Y-89938095D01*
X162723809Y-89985714D01*
X162580952Y-89985714D01*
X162390476Y-89938095D01*
X162295238Y-89890476D01*
X162200000Y-89795238D01*
X162152380Y-89652380D01*
X162152380Y-89557142D01*
X162200000Y-89414285D01*
X162247619Y-89366666D01*
X162247619Y-88985714D02*
X162200000Y-88938095D01*
X162152380Y-88842857D01*
X162152380Y-88604761D01*
X162200000Y-88509523D01*
X162247619Y-88461904D01*
X162342857Y-88414285D01*
X162438095Y-88414285D01*
X162580952Y-88461904D01*
X163152380Y-89033333D01*
X163152380Y-88414285D01*
X164903571Y-92352380D02*
X164332142Y-92352380D01*
X164617857Y-92352380D02*
X164617857Y-91352380D01*
X164522619Y-91495238D01*
X164427380Y-91590476D01*
X164332142Y-91638095D01*
X165522619Y-91352380D02*
X165617857Y-91352380D01*
X165713095Y-91400000D01*
X165760714Y-91447619D01*
X165808333Y-91542857D01*
X165855952Y-91733333D01*
X165855952Y-91971428D01*
X165808333Y-92161904D01*
X165760714Y-92257142D01*
X165713095Y-92304761D01*
X165617857Y-92352380D01*
X165522619Y-92352380D01*
X165427380Y-92304761D01*
X165379761Y-92257142D01*
X165332142Y-92161904D01*
X165284523Y-91971428D01*
X165284523Y-91733333D01*
X165332142Y-91542857D01*
X165379761Y-91447619D01*
X165427380Y-91400000D01*
X165522619Y-91352380D01*
X166713095Y-91685714D02*
X166713095Y-92352380D01*
X166284523Y-91685714D02*
X166284523Y-92209523D01*
X166332142Y-92304761D01*
X166427380Y-92352380D01*
X166570238Y-92352380D01*
X166665476Y-92304761D01*
X166713095Y-92257142D01*
X167522619Y-91828571D02*
X167189285Y-91828571D01*
X167189285Y-92352380D02*
X167189285Y-91352380D01*
X167665476Y-91352380D01*
M02*
